G04 #@! TF.GenerationSoftware,KiCad,Pcbnew,(5.1.0)-1*
G04 #@! TF.CreationDate,2019-03-17T11:44:46-07:00*
G04 #@! TF.ProjectId,DashSight-Mezzanine-Card,44617368-5369-4676-9874-2d4d657a7a61,rev?*
G04 #@! TF.SameCoordinates,Original*
G04 #@! TF.FileFunction,Copper,L1,Top*
G04 #@! TF.FilePolarity,Positive*
%FSLAX46Y46*%
G04 Gerber Fmt 4.6, Leading zero omitted, Abs format (unit mm)*
G04 Created by KiCad (PCBNEW (5.1.0)-1) date 2019-03-17 11:44:46*
%MOMM*%
%LPD*%
G04 APERTURE LIST*
%ADD10C,0.300000*%
%ADD11R,0.900000X0.500000*%
%ADD12R,1.600000X0.700000*%
%ADD13R,0.700000X1.600000*%
%ADD14R,0.600000X0.500000*%
%ADD15R,0.500000X0.600000*%
%ADD16R,0.750000X0.800000*%
%ADD17R,0.800000X0.750000*%
%ADD18R,1.250000X1.000000*%
%ADD19R,1.600000X1.600000*%
%ADD20C,1.600000*%
%ADD21R,4.000000X4.000000*%
%ADD22R,5.100000X1.800000*%
%ADD23R,1.800000X2.500000*%
%ADD24R,0.400000X0.600000*%
%ADD25R,1.700000X1.700000*%
%ADD26O,1.700000X1.700000*%
%ADD27R,1.200000X0.900000*%
%ADD28O,0.900000X1.500000*%
%ADD29R,0.900000X1.500000*%
%ADD30C,4.000000*%
%ADD31O,1.600000X1.600000*%
%ADD32C,2.200000*%
%ADD33C,2.000000*%
%ADD34C,1.500000*%
%ADD35R,0.500000X0.900000*%
%ADD36O,1.500000X0.900000*%
%ADD37R,1.500000X0.900000*%
%ADD38C,1.000000*%
%ADD39R,1.000000X1.000000*%
%ADD40C,0.800000*%
%ADD41C,0.250000*%
%ADD42C,1.000000*%
G04 APERTURE END LIST*
D10*
X167285714Y-58678571D02*
X167285714Y-57178571D01*
X167642857Y-57178571D01*
X167857142Y-57250000D01*
X168000000Y-57392857D01*
X168071428Y-57535714D01*
X168142857Y-57821428D01*
X168142857Y-58035714D01*
X168071428Y-58321428D01*
X168000000Y-58464285D01*
X167857142Y-58607142D01*
X167642857Y-58678571D01*
X167285714Y-58678571D01*
X169428571Y-58678571D02*
X169428571Y-57892857D01*
X169357142Y-57750000D01*
X169214285Y-57678571D01*
X168928571Y-57678571D01*
X168785714Y-57750000D01*
X169428571Y-58607142D02*
X169285714Y-58678571D01*
X168928571Y-58678571D01*
X168785714Y-58607142D01*
X168714285Y-58464285D01*
X168714285Y-58321428D01*
X168785714Y-58178571D01*
X168928571Y-58107142D01*
X169285714Y-58107142D01*
X169428571Y-58035714D01*
X170071428Y-58607142D02*
X170214285Y-58678571D01*
X170500000Y-58678571D01*
X170642857Y-58607142D01*
X170714285Y-58464285D01*
X170714285Y-58392857D01*
X170642857Y-58250000D01*
X170500000Y-58178571D01*
X170285714Y-58178571D01*
X170142857Y-58107142D01*
X170071428Y-57964285D01*
X170071428Y-57892857D01*
X170142857Y-57750000D01*
X170285714Y-57678571D01*
X170500000Y-57678571D01*
X170642857Y-57750000D01*
X171357142Y-58678571D02*
X171357142Y-57178571D01*
X172000000Y-58678571D02*
X172000000Y-57892857D01*
X171928571Y-57750000D01*
X171785714Y-57678571D01*
X171571428Y-57678571D01*
X171428571Y-57750000D01*
X171357142Y-57821428D01*
X172642857Y-58607142D02*
X172857142Y-58678571D01*
X173214285Y-58678571D01*
X173357142Y-58607142D01*
X173428571Y-58535714D01*
X173500000Y-58392857D01*
X173500000Y-58250000D01*
X173428571Y-58107142D01*
X173357142Y-58035714D01*
X173214285Y-57964285D01*
X172928571Y-57892857D01*
X172785714Y-57821428D01*
X172714285Y-57750000D01*
X172642857Y-57607142D01*
X172642857Y-57464285D01*
X172714285Y-57321428D01*
X172785714Y-57250000D01*
X172928571Y-57178571D01*
X173285714Y-57178571D01*
X173500000Y-57250000D01*
X174142857Y-58678571D02*
X174142857Y-57678571D01*
X174142857Y-57178571D02*
X174071428Y-57250000D01*
X174142857Y-57321428D01*
X174214285Y-57250000D01*
X174142857Y-57178571D01*
X174142857Y-57321428D01*
X175500000Y-57678571D02*
X175500000Y-58892857D01*
X175428571Y-59035714D01*
X175357142Y-59107142D01*
X175214285Y-59178571D01*
X175000000Y-59178571D01*
X174857142Y-59107142D01*
X175500000Y-58607142D02*
X175357142Y-58678571D01*
X175071428Y-58678571D01*
X174928571Y-58607142D01*
X174857142Y-58535714D01*
X174785714Y-58392857D01*
X174785714Y-57964285D01*
X174857142Y-57821428D01*
X174928571Y-57750000D01*
X175071428Y-57678571D01*
X175357142Y-57678571D01*
X175500000Y-57750000D01*
X176214285Y-58678571D02*
X176214285Y-57178571D01*
X176857142Y-58678571D02*
X176857142Y-57892857D01*
X176785714Y-57750000D01*
X176642857Y-57678571D01*
X176428571Y-57678571D01*
X176285714Y-57750000D01*
X176214285Y-57821428D01*
X177357142Y-57678571D02*
X177928571Y-57678571D01*
X177571428Y-57178571D02*
X177571428Y-58464285D01*
X177642857Y-58607142D01*
X177785714Y-58678571D01*
X177928571Y-58678571D01*
X179428571Y-57678571D02*
X179785714Y-58678571D01*
X180142857Y-57678571D01*
X180642857Y-57321428D02*
X180714285Y-57250000D01*
X180857142Y-57178571D01*
X181214285Y-57178571D01*
X181357142Y-57250000D01*
X181428571Y-57321428D01*
X181500000Y-57464285D01*
X181500000Y-57607142D01*
X181428571Y-57821428D01*
X180571428Y-58678571D01*
X181500000Y-58678571D01*
X182142857Y-58535714D02*
X182214285Y-58607142D01*
X182142857Y-58678571D01*
X182071428Y-58607142D01*
X182142857Y-58535714D01*
X182142857Y-58678571D01*
X183142857Y-57178571D02*
X183285714Y-57178571D01*
X183428571Y-57250000D01*
X183500000Y-57321428D01*
X183571428Y-57464285D01*
X183642857Y-57750000D01*
X183642857Y-58107142D01*
X183571428Y-58392857D01*
X183500000Y-58535714D01*
X183428571Y-58607142D01*
X183285714Y-58678571D01*
X183142857Y-58678571D01*
X183000000Y-58607142D01*
X182928571Y-58535714D01*
X182857142Y-58392857D01*
X182785714Y-58107142D01*
X182785714Y-57750000D01*
X182857142Y-57464285D01*
X182928571Y-57321428D01*
X183000000Y-57250000D01*
X183142857Y-57178571D01*
X184285714Y-58107142D02*
X185428571Y-58107142D01*
X186071428Y-58250000D02*
X186785714Y-58250000D01*
X185928571Y-58678571D02*
X186428571Y-57178571D01*
X186928571Y-58678571D01*
D11*
X135128000Y-107708000D03*
X135128000Y-109208000D03*
D12*
X145593000Y-59957000D03*
X145593000Y-61157000D03*
X145593000Y-62357000D03*
X145593000Y-63557000D03*
X145593000Y-64757000D03*
X136093000Y-64757000D03*
X136093000Y-63557000D03*
X136093000Y-62357000D03*
X136093000Y-61157000D03*
X136093000Y-59957000D03*
D13*
X143243000Y-67107000D03*
X138443000Y-67107000D03*
X140843000Y-67107000D03*
X139643000Y-67107000D03*
X142043000Y-67107000D03*
X138443000Y-57607000D03*
X139643000Y-57607000D03*
X140843000Y-57607000D03*
X142043000Y-57607000D03*
X143243000Y-57607000D03*
D14*
X134027000Y-69659500D03*
X132927000Y-69659500D03*
D15*
X177546000Y-115210500D03*
X177546000Y-116310500D03*
X189293500Y-115147000D03*
X189293500Y-116247000D03*
D16*
X190000000Y-61250000D03*
X190000000Y-62750000D03*
X127508000Y-59448000D03*
X127508000Y-60948000D03*
D17*
X127520000Y-63754000D03*
X129020000Y-63754000D03*
D18*
X187007500Y-120475500D03*
X187007500Y-122475500D03*
D19*
X192532000Y-120205500D03*
D20*
X195032000Y-120205500D03*
D21*
X129794000Y-117856000D03*
D22*
X129794000Y-112256000D03*
X129794000Y-123456000D03*
D23*
X167000000Y-103000000D03*
X167000000Y-99000000D03*
D24*
X128328000Y-78232000D03*
X129228000Y-78232000D03*
D16*
X141732000Y-50534000D03*
X141732000Y-49034000D03*
D25*
X171640500Y-115125500D03*
D26*
X169100500Y-115125500D03*
X180848000Y-91694000D03*
D25*
X183388000Y-91694000D03*
D27*
X148000000Y-114650000D03*
X148000000Y-111350000D03*
D24*
X136848000Y-69596000D03*
X135948000Y-69596000D03*
D28*
X183261000Y-115189000D03*
X184531000Y-115189000D03*
D29*
X181991000Y-115189000D03*
D30*
X193300000Y-86960000D03*
X193300000Y-111960000D03*
D20*
X195840000Y-95305000D03*
X195840000Y-98075000D03*
X195840000Y-100845000D03*
X195840000Y-103615000D03*
X193000000Y-93920000D03*
X193000000Y-96690000D03*
X193000000Y-99460000D03*
X193000000Y-102230000D03*
D19*
X193000000Y-105000000D03*
X169000000Y-79000000D03*
D31*
X135980000Y-86620000D03*
X166460000Y-79000000D03*
X138520000Y-86620000D03*
X163920000Y-79000000D03*
X141060000Y-86620000D03*
X161380000Y-79000000D03*
X143600000Y-86620000D03*
X158840000Y-79000000D03*
X146140000Y-86620000D03*
X156300000Y-79000000D03*
X148680000Y-86620000D03*
X153760000Y-79000000D03*
X151220000Y-86620000D03*
X151220000Y-79000000D03*
X153760000Y-86620000D03*
X148680000Y-79000000D03*
X156300000Y-86620000D03*
X146140000Y-79000000D03*
X158840000Y-86620000D03*
X143600000Y-79000000D03*
X161380000Y-86620000D03*
X141060000Y-79000000D03*
X163920000Y-86620000D03*
X138520000Y-79000000D03*
X166460000Y-86620000D03*
X135980000Y-79000000D03*
X169000000Y-86620000D03*
D15*
X135382000Y-112014000D03*
X135382000Y-110914000D03*
D14*
X184450000Y-66000000D03*
X185550000Y-66000000D03*
D16*
X195000000Y-59250000D03*
X195000000Y-60750000D03*
X166000000Y-68750000D03*
X166000000Y-67250000D03*
X166000000Y-61250000D03*
X166000000Y-62750000D03*
D32*
X127508000Y-55118000D03*
X127508000Y-50038000D03*
X132588000Y-50038000D03*
X132588000Y-55118000D03*
D33*
X130048000Y-52578000D03*
D34*
X173000000Y-68000000D03*
X173000000Y-63120000D03*
D19*
X180000000Y-79000000D03*
D31*
X187620000Y-86620000D03*
X180000000Y-81540000D03*
X187620000Y-84080000D03*
X180000000Y-84080000D03*
X187620000Y-81540000D03*
X180000000Y-86620000D03*
X187620000Y-79000000D03*
D11*
X138430000Y-50534000D03*
X138430000Y-49034000D03*
D25*
X141000000Y-123000000D03*
D26*
X141000000Y-120460000D03*
X143540000Y-123000000D03*
X143540000Y-120460000D03*
X146080000Y-123000000D03*
X146080000Y-120460000D03*
X148620000Y-123000000D03*
X148620000Y-120460000D03*
X151160000Y-123000000D03*
X151160000Y-120460000D03*
X153700000Y-123000000D03*
X153700000Y-120460000D03*
X156240000Y-123000000D03*
X156240000Y-120460000D03*
X158780000Y-123000000D03*
X158780000Y-120460000D03*
X161320000Y-123000000D03*
X161320000Y-120460000D03*
X163860000Y-123000000D03*
X163860000Y-120460000D03*
X166400000Y-123000000D03*
X166400000Y-120460000D03*
X168940000Y-123000000D03*
X168940000Y-120460000D03*
X171480000Y-123000000D03*
X171480000Y-120460000D03*
X174020000Y-123000000D03*
X174020000Y-120460000D03*
X176560000Y-123000000D03*
X176560000Y-120460000D03*
X179100000Y-123000000D03*
X179100000Y-120460000D03*
X181640000Y-123000000D03*
X181640000Y-120460000D03*
D25*
X146939000Y-51816000D03*
D26*
X146939000Y-49276000D03*
X149479000Y-51816000D03*
X149479000Y-49276000D03*
X152019000Y-51816000D03*
X152019000Y-49276000D03*
X154559000Y-51816000D03*
X154559000Y-49276000D03*
X157099000Y-51816000D03*
X157099000Y-49276000D03*
X159639000Y-51816000D03*
X159639000Y-49276000D03*
X162179000Y-51816000D03*
X162179000Y-49276000D03*
X164719000Y-51816000D03*
X164719000Y-49276000D03*
X167259000Y-51816000D03*
X167259000Y-49276000D03*
X169799000Y-51816000D03*
X169799000Y-49276000D03*
X172339000Y-51816000D03*
X172339000Y-49276000D03*
X174879000Y-51816000D03*
X174879000Y-49276000D03*
X177419000Y-51816000D03*
X177419000Y-49276000D03*
X179959000Y-51816000D03*
X179959000Y-49276000D03*
X182499000Y-51816000D03*
X182499000Y-49276000D03*
X185039000Y-51816000D03*
X185039000Y-49276000D03*
X187579000Y-51816000D03*
X187579000Y-49276000D03*
X190119000Y-51816000D03*
X190119000Y-49276000D03*
X192659000Y-51816000D03*
X192659000Y-49276000D03*
X195199000Y-51816000D03*
X195199000Y-49276000D03*
D11*
X152000000Y-95500000D03*
X152000000Y-97000000D03*
X152000000Y-100750000D03*
X152000000Y-99250000D03*
D35*
X146750000Y-92000000D03*
X145250000Y-92000000D03*
X128131000Y-80137000D03*
X126631000Y-80137000D03*
D11*
X162000000Y-95500000D03*
X162000000Y-94000000D03*
D35*
X162750000Y-99000000D03*
X161250000Y-99000000D03*
D11*
X150731000Y-58409000D03*
X150731000Y-59909000D03*
D35*
X130000000Y-98000000D03*
X131500000Y-98000000D03*
X130500000Y-104000000D03*
X132000000Y-104000000D03*
D11*
X153289000Y-60972000D03*
X153289000Y-62472000D03*
X148000000Y-102250000D03*
X148000000Y-103750000D03*
X152000000Y-91500000D03*
X152000000Y-93000000D03*
X161000000Y-72750000D03*
X161000000Y-71250000D03*
X166000000Y-73750000D03*
X166000000Y-72250000D03*
D35*
X175750000Y-84000000D03*
X174250000Y-84000000D03*
X184250000Y-61000000D03*
X185750000Y-61000000D03*
D11*
X187000000Y-72500000D03*
X187000000Y-71000000D03*
X187000000Y-101250000D03*
X187000000Y-102750000D03*
X190000000Y-67750000D03*
X190000000Y-66250000D03*
X195000000Y-65750000D03*
X195000000Y-64250000D03*
X155829000Y-60972000D03*
X155829000Y-62472000D03*
X148000000Y-107750000D03*
X148000000Y-106250000D03*
X160000000Y-109250000D03*
X160000000Y-110750000D03*
D36*
X167000000Y-109270000D03*
X167000000Y-108000000D03*
D37*
X167000000Y-110540000D03*
D38*
X157270000Y-91730000D03*
X158540000Y-93000000D03*
D39*
X156000000Y-93000000D03*
D38*
X157270000Y-99730000D03*
X158540000Y-101000000D03*
D39*
X156000000Y-101000000D03*
D38*
X154270000Y-112730000D03*
X155540000Y-114000000D03*
D39*
X153000000Y-114000000D03*
D38*
X186270000Y-108270000D03*
X185000000Y-109540000D03*
D39*
X185000000Y-107000000D03*
D38*
X140730000Y-110270000D03*
X139460000Y-109000000D03*
D39*
X142000000Y-109000000D03*
D38*
X180730000Y-102270000D03*
X179460000Y-101000000D03*
D39*
X182000000Y-101000000D03*
D38*
X140270000Y-99730000D03*
X141540000Y-101000000D03*
D39*
X139000000Y-101000000D03*
D40*
X138430000Y-59690000D03*
X140970000Y-59690000D03*
X143510000Y-59690000D03*
X138430000Y-62230000D03*
X143510000Y-62230000D03*
X138430000Y-64770000D03*
X140970000Y-64770000D03*
X143510000Y-64770000D03*
X132969000Y-66421000D03*
X173228000Y-75946000D03*
X136906000Y-111760000D03*
X158750000Y-55880000D03*
X163830000Y-55880000D03*
X158750000Y-59690000D03*
X163830000Y-59690000D03*
X133350000Y-116332000D03*
X133350000Y-119380000D03*
X173799500Y-110045500D03*
X170688000Y-98742500D03*
X174000000Y-79000000D03*
X131254500Y-78232000D03*
X149000000Y-90000000D03*
D41*
X131500000Y-98700000D02*
X131424999Y-98775001D01*
X131500000Y-98000000D02*
X131500000Y-98700000D01*
X166000000Y-68775000D02*
X166000000Y-68750000D01*
X163525000Y-71250000D02*
X166000000Y-68775000D01*
X161000000Y-71250000D02*
X163525000Y-71250000D01*
X185750000Y-65800000D02*
X185550000Y-66000000D01*
X185750000Y-61000000D02*
X185750000Y-65800000D01*
X189750000Y-61000000D02*
X190000000Y-61250000D01*
X185750000Y-61000000D02*
X189750000Y-61000000D01*
X191975000Y-59250000D02*
X195000000Y-59250000D01*
X190000000Y-61225000D02*
X191975000Y-59250000D01*
X190000000Y-61250000D02*
X190000000Y-61225000D01*
X158970000Y-71250000D02*
X151220000Y-79000000D01*
X161000000Y-71250000D02*
X158970000Y-71250000D01*
X134300000Y-101000000D02*
X139000000Y-101000000D01*
X131500000Y-98200000D02*
X134300000Y-101000000D01*
X131500000Y-98000000D02*
X131500000Y-98200000D01*
X139000000Y-93760000D02*
X139000000Y-101000000D01*
X146140000Y-86620000D02*
X139000000Y-93760000D01*
X185750000Y-60800000D02*
X185750000Y-61000000D01*
X185174999Y-60224999D02*
X185750000Y-60800000D01*
X167650001Y-60224999D02*
X185174999Y-60224999D01*
X166625000Y-61250000D02*
X167650001Y-60224999D01*
X145250000Y-87510000D02*
X146140000Y-86620000D01*
X145250000Y-92000000D02*
X145250000Y-87510000D01*
X166625000Y-61250000D02*
X166000000Y-61250000D01*
X172721002Y-61250000D02*
X166625000Y-61250000D01*
X174075001Y-62603999D02*
X172721002Y-61250000D01*
X174075001Y-68516001D02*
X174075001Y-62603999D01*
X173516001Y-69075001D02*
X174075001Y-68516001D01*
X166950001Y-69075001D02*
X173516001Y-69075001D01*
X166625000Y-68750000D02*
X166950001Y-69075001D01*
X166000000Y-68750000D02*
X166625000Y-68750000D01*
X189293500Y-120189500D02*
X187007500Y-122475500D01*
X189293500Y-116247000D02*
X189293500Y-120189500D01*
X192762000Y-122475500D02*
X195032000Y-120205500D01*
X187007500Y-122475500D02*
X192762000Y-122475500D01*
X183655500Y-122475500D02*
X181640000Y-120460000D01*
X187007500Y-122475500D02*
X183655500Y-122475500D01*
X195260000Y-51877000D02*
X195199000Y-51816000D01*
X195000000Y-59250000D02*
X195260000Y-58990000D01*
X195260000Y-58990000D02*
X195260000Y-51877000D01*
X138163000Y-59957000D02*
X138430000Y-59690000D01*
X136093000Y-59957000D02*
X138163000Y-59957000D01*
X138443000Y-59677000D02*
X138430000Y-59690000D01*
X138443000Y-57607000D02*
X138443000Y-59677000D01*
X139643000Y-61017000D02*
X138430000Y-62230000D01*
X139643000Y-57607000D02*
X139643000Y-61017000D01*
X140843000Y-59563000D02*
X140970000Y-59690000D01*
X140843000Y-57607000D02*
X140843000Y-59563000D01*
X143243000Y-59423000D02*
X143510000Y-59690000D01*
X143243000Y-57607000D02*
X143243000Y-59423000D01*
X141732000Y-50534000D02*
X141732000Y-50546000D01*
X143243000Y-52057000D02*
X143243000Y-57607000D01*
X141732000Y-50546000D02*
X143243000Y-52057000D01*
X127508000Y-55118000D02*
X127508000Y-59448000D01*
X143510000Y-59690000D02*
X143510000Y-62230000D01*
X143510000Y-62230000D02*
X143510000Y-64770000D01*
X140970000Y-64770000D02*
X138430000Y-64770000D01*
X140970000Y-64770000D02*
X143510000Y-64770000D01*
X138430000Y-62230000D02*
X138430000Y-64770000D01*
X138430000Y-59690000D02*
X138430000Y-62230000D01*
X143510000Y-59690000D02*
X140970000Y-59690000D01*
X127508000Y-59448000D02*
X127496000Y-59448000D01*
X127496000Y-59448000D02*
X126428500Y-60515500D01*
X126428500Y-62662500D02*
X127520000Y-63754000D01*
X126428500Y-60515500D02*
X126428500Y-62662500D01*
X136093000Y-63557000D02*
X134880500Y-63557000D01*
X132969000Y-65468500D02*
X132969000Y-66421000D01*
X134880500Y-63557000D02*
X132969000Y-65468500D01*
X151160000Y-123000000D02*
X151320000Y-123000000D01*
X171480000Y-123000000D02*
X171480000Y-122966000D01*
X171480000Y-122966000D02*
X170180000Y-121666000D01*
X165066000Y-121666000D02*
X163860000Y-120460000D01*
X170180000Y-121666000D02*
X165066000Y-121666000D01*
X151160000Y-123000000D02*
X151160000Y-122906000D01*
X151160000Y-122906000D02*
X152400000Y-121666000D01*
X155034000Y-121666000D02*
X156240000Y-120460000D01*
X152400000Y-121666000D02*
X155034000Y-121666000D01*
X177546000Y-116366000D02*
X181640000Y-120460000D01*
X177546000Y-116310500D02*
X177546000Y-116366000D01*
X166032000Y-68750000D02*
X173228000Y-75946000D01*
X166000000Y-68750000D02*
X166032000Y-68750000D01*
X193000000Y-111660000D02*
X193300000Y-111960000D01*
X193000000Y-105000000D02*
X193000000Y-111660000D01*
X182000000Y-101000000D02*
X185004000Y-101000000D01*
X185004000Y-101000000D02*
X187706000Y-98298000D01*
X187706000Y-98298000D02*
X194056000Y-98298000D01*
X194056000Y-98298000D02*
X195326000Y-99568000D01*
X195326000Y-99568000D02*
X196596000Y-99568000D01*
X196596000Y-99568000D02*
X197358000Y-100330000D01*
X197358000Y-100330000D02*
X197358000Y-103886000D01*
X196244000Y-105000000D02*
X193000000Y-105000000D01*
X197358000Y-103886000D02*
X196244000Y-105000000D01*
X171480000Y-123000000D02*
X171480000Y-122906000D01*
X171480000Y-122906000D02*
X172720000Y-121666000D01*
X180434000Y-121666000D02*
X181640000Y-120460000D01*
X172720000Y-121666000D02*
X180434000Y-121666000D01*
X177419000Y-51816000D02*
X177419000Y-51689000D01*
X177419000Y-51689000D02*
X178562000Y-50546000D01*
X181229000Y-50546000D02*
X182499000Y-49276000D01*
X178562000Y-50546000D02*
X181229000Y-50546000D01*
X182499000Y-49276000D02*
X182499000Y-49403000D01*
X182499000Y-49403000D02*
X183642000Y-50546000D01*
X186309000Y-50546000D02*
X187579000Y-49276000D01*
X183642000Y-50546000D02*
X186309000Y-50546000D01*
X169799000Y-49276000D02*
X169799000Y-49403000D01*
X169799000Y-49403000D02*
X168656000Y-50546000D01*
X163449000Y-50546000D02*
X162179000Y-49276000D01*
X168656000Y-50546000D02*
X163449000Y-50546000D01*
X162179000Y-49276000D02*
X162179000Y-49403000D01*
X162179000Y-49403000D02*
X161036000Y-50546000D01*
X158369000Y-50546000D02*
X157099000Y-51816000D01*
X161036000Y-50546000D02*
X158369000Y-50546000D01*
X162179000Y-49276000D02*
X162052000Y-49276000D01*
X162052000Y-49276000D02*
X160782000Y-48006000D01*
X153289000Y-48006000D02*
X152019000Y-49276000D01*
X160782000Y-48006000D02*
X153289000Y-48006000D01*
X132969000Y-69617500D02*
X132927000Y-69659500D01*
X132969000Y-66421000D02*
X132969000Y-69617500D01*
X158750000Y-55880000D02*
X163830000Y-55880000D01*
X158750000Y-59690000D02*
X163830000Y-59690000D01*
X136060000Y-110914000D02*
X136906000Y-111760000D01*
X135382000Y-110914000D02*
X136060000Y-110914000D01*
X135128000Y-109208000D02*
X134100000Y-109208000D01*
X134100000Y-109208000D02*
X131318000Y-106426000D01*
X131318000Y-106426000D02*
X131318000Y-98806000D01*
X135128000Y-110660000D02*
X135382000Y-110914000D01*
X135128000Y-109208000D02*
X135128000Y-110660000D01*
X131826000Y-117856000D02*
X133350000Y-116332000D01*
X131826000Y-117856000D02*
X133350000Y-119380000D01*
X129794000Y-117856000D02*
X131826000Y-117856000D01*
X138168000Y-107708000D02*
X139460000Y-109000000D01*
X135128000Y-107708000D02*
X138168000Y-107708000D01*
X148000000Y-106250000D02*
X148000000Y-103750000D01*
X145250000Y-109000000D02*
X148000000Y-106250000D01*
X142000000Y-109000000D02*
X145250000Y-109000000D01*
X148000000Y-111000000D02*
X148000000Y-107750000D01*
X141460000Y-111000000D02*
X140730000Y-110270000D01*
X148000000Y-111000000D02*
X141460000Y-111000000D01*
X160020000Y-109270000D02*
X160000000Y-109250000D01*
X167000000Y-109270000D02*
X160020000Y-109270000D01*
X154540000Y-115000000D02*
X155540000Y-114000000D01*
X148000000Y-115000000D02*
X154540000Y-115000000D01*
X187000000Y-103250000D02*
X187000000Y-102750000D01*
X187365000Y-103615000D02*
X187000000Y-103250000D01*
X195840000Y-103615000D02*
X187365000Y-103615000D01*
X156247106Y-114000000D02*
X155540000Y-114000000D01*
X187000000Y-102750000D02*
X186800000Y-102750000D01*
X155540000Y-114000000D02*
X164765000Y-114000000D01*
X164765000Y-114000000D02*
X166624000Y-112141000D01*
X177609000Y-112141000D02*
X187000000Y-102750000D01*
X166624000Y-112141000D02*
X177609000Y-112141000D01*
X154730000Y-99730000D02*
X152000000Y-97000000D01*
X157270000Y-99730000D02*
X154730000Y-99730000D01*
X161250000Y-99200000D02*
X161250000Y-99000000D01*
X159450000Y-101000000D02*
X161250000Y-99200000D01*
X158540000Y-101000000D02*
X159450000Y-101000000D01*
X158540000Y-97674998D02*
X158540000Y-101000000D01*
X161289999Y-94924999D02*
X158540000Y-97674998D01*
X164809997Y-94924999D02*
X161289999Y-94924999D01*
X166574998Y-96690000D02*
X164809997Y-94924999D01*
X193000000Y-96690000D02*
X166574998Y-96690000D01*
X152000000Y-100750000D02*
X152000000Y-100882500D01*
X152000000Y-100882500D02*
X154305000Y-103187500D01*
X156352500Y-103187500D02*
X158540000Y-101000000D01*
X154305000Y-103187500D02*
X156352500Y-103187500D01*
X162000000Y-93500000D02*
X162000000Y-94000000D01*
X161500000Y-93000000D02*
X162000000Y-93500000D01*
X158540000Y-93000000D02*
X161500000Y-93000000D01*
X195840000Y-96943630D02*
X195840000Y-98075000D01*
X193941371Y-95045001D02*
X195840000Y-96943630D01*
X192459999Y-95045001D02*
X193941371Y-95045001D01*
X191414998Y-94000000D02*
X192459999Y-95045001D01*
X162000000Y-94000000D02*
X191414998Y-94000000D01*
X153470000Y-91730000D02*
X157270000Y-91730000D01*
X152200000Y-93000000D02*
X153470000Y-91730000D01*
X152000000Y-93000000D02*
X152200000Y-93000000D01*
X160210000Y-110540000D02*
X160000000Y-110750000D01*
X167000000Y-110540000D02*
X160210000Y-110540000D01*
X167000000Y-103000000D02*
X167000000Y-108000000D01*
X189251500Y-115189000D02*
X189293500Y-115147000D01*
X184531000Y-115189000D02*
X189251500Y-115189000D01*
X192532000Y-118385500D02*
X189293500Y-115147000D01*
X192532000Y-120205500D02*
X192532000Y-118385500D01*
X173799500Y-110045500D02*
X172466000Y-110045500D01*
X170420500Y-108000000D02*
X167000000Y-108000000D01*
X172466000Y-110045500D02*
X170420500Y-108000000D01*
X155829000Y-50546000D02*
X155829000Y-60972000D01*
X157099000Y-49276000D02*
X155829000Y-50546000D01*
X195000000Y-76700000D02*
X187620000Y-84080000D01*
X195000000Y-65750000D02*
X195000000Y-76700000D01*
X195000000Y-60750000D02*
X195000000Y-64250000D01*
X190000000Y-62750000D02*
X190000000Y-66250000D01*
X190000000Y-79160000D02*
X187620000Y-81540000D01*
X190000000Y-67750000D02*
X190000000Y-79160000D01*
X146250000Y-104000000D02*
X148000000Y-102250000D01*
X132000000Y-104000000D02*
X146250000Y-104000000D01*
X187605000Y-100845000D02*
X195840000Y-100845000D01*
X187200000Y-101250000D02*
X187605000Y-100845000D01*
X187000000Y-101250000D02*
X187200000Y-101250000D01*
X186800000Y-101250000D02*
X187000000Y-101250000D01*
X176724999Y-111325001D02*
X186800000Y-101250000D01*
X157275001Y-111325001D02*
X176724999Y-111325001D01*
X148200000Y-102250000D02*
X157275001Y-111325001D01*
X148000000Y-102250000D02*
X148200000Y-102250000D01*
X162750000Y-96050000D02*
X162750000Y-99000000D01*
X162200000Y-95500000D02*
X162750000Y-96050000D01*
X162000000Y-95500000D02*
X162200000Y-95500000D01*
X162750000Y-99000000D02*
X167000000Y-99000000D01*
X187000000Y-73000000D02*
X187000000Y-72500000D01*
X188745001Y-79540001D02*
X188745001Y-74745001D01*
X187131409Y-80125001D02*
X188160001Y-80125001D01*
X188160001Y-80125001D02*
X188745001Y-79540001D01*
X188745001Y-74745001D02*
X187000000Y-73000000D01*
X185000000Y-82256410D02*
X187131409Y-80125001D01*
X185000000Y-82256410D02*
X185000000Y-84684500D01*
X180848000Y-88836500D02*
X180848000Y-91694000D01*
X185000000Y-84684500D02*
X180848000Y-88836500D01*
X167257500Y-98742500D02*
X167000000Y-99000000D01*
X170688000Y-98742500D02*
X167257500Y-98742500D01*
X184450000Y-69623002D02*
X184450000Y-66000000D01*
X172298013Y-81774989D02*
X184450000Y-69623002D01*
X169234989Y-81774989D02*
X172298013Y-81774989D01*
X166460000Y-79000000D02*
X169234989Y-81774989D01*
X184450000Y-61200000D02*
X184250000Y-61000000D01*
X184450000Y-66000000D02*
X184450000Y-61200000D01*
X185826998Y-71000000D02*
X184450000Y-69623002D01*
X187000000Y-71000000D02*
X185826998Y-71000000D01*
X165500000Y-72750000D02*
X166000000Y-72250000D01*
X161000000Y-72750000D02*
X165500000Y-72750000D01*
X167250000Y-72250000D02*
X174000000Y-79000000D01*
X166000000Y-72250000D02*
X167250000Y-72250000D01*
X139319999Y-85820001D02*
X138520000Y-86620000D01*
X139645001Y-85494999D02*
X139319999Y-85820001D01*
X154300001Y-85494999D02*
X139645001Y-85494999D01*
X154885001Y-86079999D02*
X154300001Y-85494999D01*
X154885001Y-87160001D02*
X154885001Y-86079999D01*
X156585002Y-88000000D02*
X155725000Y-88000000D01*
X157425001Y-87160001D02*
X156585002Y-88000000D01*
X157425001Y-86369997D02*
X157425001Y-87160001D01*
X159794998Y-84000000D02*
X157425001Y-86369997D01*
X155725000Y-88000000D02*
X154885001Y-87160001D01*
X174250000Y-84000000D02*
X159794998Y-84000000D01*
X176250000Y-84000000D02*
X175750000Y-84000000D01*
X177295001Y-82954999D02*
X176250000Y-84000000D01*
X183665001Y-82954999D02*
X177295001Y-82954999D01*
X187620000Y-79000000D02*
X183665001Y-82954999D01*
X163920000Y-75630000D02*
X163920000Y-79000000D01*
X165800000Y-73750000D02*
X163920000Y-75630000D01*
X166000000Y-73750000D02*
X165800000Y-73750000D01*
X136070000Y-86620000D02*
X135980000Y-86620000D01*
X136616410Y-86620000D02*
X135980000Y-86620000D01*
X138236410Y-85000000D02*
X136616410Y-86620000D01*
X139265002Y-85000000D02*
X138236410Y-85000000D01*
X144725001Y-79540001D02*
X139265002Y-85000000D01*
X144725001Y-78459999D02*
X144725001Y-79540001D01*
X144140001Y-77874999D02*
X144725001Y-78459999D01*
X135439999Y-77874999D02*
X144140001Y-77874999D01*
X129424999Y-83889999D02*
X135439999Y-77874999D01*
X169100500Y-115125500D02*
X169100500Y-115887500D01*
X169100500Y-115887500D02*
X167767000Y-117221000D01*
X146779000Y-117221000D02*
X143540000Y-120460000D01*
X167767000Y-117221000D02*
X146779000Y-117221000D01*
X141000000Y-117632000D02*
X135382000Y-112014000D01*
X141000000Y-120460000D02*
X141000000Y-117632000D01*
X129424999Y-106056999D02*
X135382000Y-112014000D01*
X129424999Y-83889999D02*
X129424999Y-106056999D01*
X152000000Y-88380000D02*
X153760000Y-86620000D01*
X152000000Y-91500000D02*
X152000000Y-88380000D01*
X130500000Y-98500000D02*
X130000000Y-98000000D01*
X130500000Y-104000000D02*
X130500000Y-98500000D01*
X142800001Y-79799999D02*
X143600000Y-79000000D01*
X137105001Y-85494999D02*
X142800001Y-79799999D01*
X135439999Y-85494999D02*
X137105001Y-85494999D01*
X130000000Y-90934998D02*
X135439999Y-85494999D01*
X130000000Y-98000000D02*
X130000000Y-90934998D01*
X138430000Y-49034000D02*
X141732000Y-49034000D01*
X144157000Y-49034000D02*
X146939000Y-51816000D01*
X141732000Y-49034000D02*
X144157000Y-49034000D01*
X146939000Y-51816000D02*
X146939000Y-53213000D01*
X150731000Y-57005000D02*
X150731000Y-58409000D01*
X146939000Y-53213000D02*
X150731000Y-57005000D01*
X131254500Y-78232000D02*
X129228000Y-78232000D01*
X136848000Y-72638500D02*
X131254500Y-78232000D01*
X136848000Y-69596000D02*
X136848000Y-72638500D01*
X147000000Y-92000000D02*
X146750000Y-92000000D01*
X149000000Y-90000000D02*
X147000000Y-92000000D01*
X152000000Y-99250000D02*
X152000000Y-98787000D01*
X146750000Y-93537000D02*
X146750000Y-92000000D01*
X152000000Y-98787000D02*
X146750000Y-93537000D01*
X151220000Y-94220000D02*
X151220000Y-86620000D01*
X152000000Y-95000000D02*
X151220000Y-94220000D01*
X152000000Y-95500000D02*
X152000000Y-95000000D01*
X154559000Y-49276000D02*
X154432000Y-49276000D01*
X154559000Y-49276000D02*
X154305000Y-49276000D01*
X153289000Y-50546000D02*
X154559000Y-49276000D01*
X153289000Y-60972000D02*
X153289000Y-50546000D01*
X159639999Y-87419999D02*
X158840000Y-86620000D01*
X160220000Y-88000000D02*
X159639999Y-87419999D01*
X178620000Y-88000000D02*
X160220000Y-88000000D01*
X180000000Y-86620000D02*
X178620000Y-88000000D01*
X157099999Y-85820001D02*
X156300000Y-86620000D01*
X160695001Y-82224999D02*
X157099999Y-85820001D01*
X175725001Y-82224999D02*
X160695001Y-82224999D01*
X178950000Y-79000000D02*
X175725001Y-82224999D01*
X180000000Y-79000000D02*
X178950000Y-79000000D01*
X162390000Y-62750000D02*
X146140000Y-79000000D01*
X166000000Y-62750000D02*
X162390000Y-62750000D01*
X172630000Y-62750000D02*
X173000000Y-63120000D01*
X166000000Y-62750000D02*
X172630000Y-62750000D01*
X160430000Y-67250000D02*
X148680000Y-79000000D01*
X166000000Y-67250000D02*
X160430000Y-67250000D01*
X172250001Y-67250001D02*
X173000000Y-68000000D01*
X166000000Y-67250000D02*
X172250001Y-67250001D01*
X155829000Y-62472000D02*
X155829000Y-62484000D01*
X153556000Y-64757000D02*
X145593000Y-64757000D01*
X155829000Y-62484000D02*
X153556000Y-64757000D01*
X152204000Y-63557000D02*
X153289000Y-62472000D01*
X145593000Y-63557000D02*
X152204000Y-63557000D01*
X149483000Y-61157000D02*
X150731000Y-59909000D01*
X145593000Y-61157000D02*
X149483000Y-61157000D01*
X129020000Y-63754000D02*
X130556000Y-63754000D01*
X131953000Y-62357000D02*
X136093000Y-62357000D01*
X130556000Y-63754000D02*
X131953000Y-62357000D01*
X129020000Y-63754000D02*
X129020000Y-68211000D01*
X126631000Y-70600000D02*
X126631000Y-80137000D01*
X129020000Y-68211000D02*
X126631000Y-70600000D01*
X129794000Y-112256000D02*
X129782000Y-112256000D01*
X126631000Y-109105000D02*
X126631000Y-80137000D01*
X129782000Y-112256000D02*
X126631000Y-109105000D01*
X132068000Y-123456000D02*
X129794000Y-123456000D01*
X134874000Y-120650000D02*
X132068000Y-123456000D01*
X134874000Y-115570000D02*
X134874000Y-120650000D01*
X129794000Y-112256000D02*
X131560000Y-112256000D01*
X131560000Y-112256000D02*
X134874000Y-115570000D01*
X135884000Y-60948000D02*
X136093000Y-61157000D01*
X127508000Y-60948000D02*
X127508000Y-60960000D01*
X127717000Y-61157000D02*
X127508000Y-60948000D01*
X136093000Y-61157000D02*
X127717000Y-61157000D01*
X136093000Y-61157000D02*
X136785500Y-61157000D01*
X135884500Y-69659500D02*
X135948000Y-69596000D01*
X134027000Y-69659500D02*
X135884500Y-69659500D01*
X136912500Y-61157000D02*
X136093000Y-61157000D01*
X137477500Y-61722000D02*
X136912500Y-61157000D01*
X137477500Y-65849500D02*
X137477500Y-61722000D01*
X135948000Y-69596000D02*
X135948000Y-67379000D01*
X135948000Y-67379000D02*
X137477500Y-65849500D01*
X195840000Y-95305000D02*
X195840000Y-93859000D01*
X193675000Y-91694000D02*
X183388000Y-91694000D01*
X195840000Y-93859000D02*
X193675000Y-91694000D01*
D42*
X142043000Y-57607000D02*
X142043000Y-54857500D01*
X142043000Y-54857500D02*
X139763500Y-52578000D01*
X138430000Y-50546000D02*
X136398000Y-52578000D01*
X138430000Y-50534000D02*
X138430000Y-50546000D01*
X139763500Y-52578000D02*
X136398000Y-52578000D01*
X136398000Y-52578000D02*
X130048000Y-52578000D01*
D41*
X177461000Y-115125500D02*
X177546000Y-115210500D01*
X171640500Y-115125500D02*
X177461000Y-115125500D01*
X181969500Y-115210500D02*
X181991000Y-115189000D01*
X177546000Y-115210500D02*
X181969500Y-115210500D01*
X187007500Y-120475500D02*
X185880500Y-120475500D01*
X181991000Y-116586000D02*
X181991000Y-115189000D01*
X185880500Y-120475500D02*
X181991000Y-116586000D01*
X128328000Y-79940000D02*
X128131000Y-80137000D01*
X128328000Y-78232000D02*
X128328000Y-79940000D01*
M02*
