M48
; DRILL file {KiCad (5.1.0)-1} date 17/03/2019 11:45:26 AM
; FORMAT={3:3/ absolute / metric / suppress leading zeros}
; #@! TF.CreationDate,2019-03-17T11:45:26-07:00
; #@! TF.GenerationSoftware,Kicad,Pcbnew,(5.1.0)-1
FMAT,2
METRIC,TZ
T1C0.400
T2C0.600
T3C0.800
T4C1.000
T5C1.500
T6C1.700
T7C3.200
%
G90
G05
T1
X131255Y-78232
X132969Y-66421
X133350Y-116332
X133350Y-119380
X136906Y-111760
X138430Y-59690
X138430Y-62230
X138430Y-64770
X140970Y-59690
X140970Y-64770
X143510Y-59690
X143510Y-62230
X143510Y-64770
X149000Y-90000
X158750Y-55880
X158750Y-59690
X163830Y-55880
X163830Y-59690
X170688Y-98743
X173228Y-75946
X173799Y-110046
X174000Y-79000
T2
X181991Y-115189
X183261Y-115189
X184531Y-115189
X156000Y-101000
X157270Y-99730
X158540Y-101000
X139000Y-101000
X140270Y-99730
X141540Y-101000
X167000Y-108000
X167000Y-109270
X167000Y-110540
X185000Y-107000
X185000Y-109540
X186270Y-108270
X156000Y-93000
X157270Y-91730
X158540Y-93000
X139460Y-109000
X140730Y-110270
X142000Y-109000
X179460Y-101000
X180730Y-102270
X182000Y-101000
X153000Y-114000
X154270Y-112730
X155540Y-114000
T3
X135980Y-79000
X135980Y-86620
X138520Y-79000
X138520Y-86620
X141060Y-79000
X141060Y-86620
X143600Y-79000
X143600Y-86620
X146140Y-79000
X146140Y-86620
X148680Y-79000
X148680Y-86620
X151220Y-79000
X151220Y-86620
X153760Y-79000
X153760Y-86620
X156300Y-79000
X156300Y-86620
X158840Y-79000
X158840Y-86620
X161380Y-79000
X161380Y-86620
X163920Y-79000
X163920Y-86620
X166460Y-79000
X166460Y-86620
X169000Y-79000
X169000Y-86620
X173000Y-63120
X173000Y-68000
X192532Y-120206
X195032Y-120206
X180000Y-79000
X180000Y-81540
X180000Y-84080
X180000Y-86620
X187620Y-79000
X187620Y-81540
X187620Y-84080
X187620Y-86620
T4
X141000Y-120460
X141000Y-123000
X143540Y-120460
X143540Y-123000
X146080Y-120460
X146080Y-123000
X148620Y-120460
X148620Y-123000
X151160Y-120460
X151160Y-123000
X153700Y-120460
X153700Y-123000
X156240Y-120460
X156240Y-123000
X158780Y-120460
X158780Y-123000
X161320Y-120460
X161320Y-123000
X163860Y-120460
X163860Y-123000
X166400Y-120460
X166400Y-123000
X168940Y-120460
X168940Y-123000
X171480Y-120460
X171480Y-123000
X174020Y-120460
X174020Y-123000
X176560Y-120460
X176560Y-123000
X179100Y-120460
X179100Y-123000
X181640Y-120460
X181640Y-123000
X169101Y-115126
X171641Y-115126
X193000Y-93920
X193000Y-96690
X193000Y-99460
X193000Y-102230
X193000Y-105000
X195840Y-95305
X195840Y-98075
X195840Y-100845
X195840Y-103615
X180848Y-91694
X183388Y-91694
X146939Y-49276
X146939Y-51816
X149479Y-49276
X149479Y-51816
X152019Y-49276
X152019Y-51816
X154559Y-49276
X154559Y-51816
X157099Y-49276
X157099Y-51816
X159639Y-49276
X159639Y-51816
X162179Y-49276
X162179Y-51816
X164719Y-49276
X164719Y-51816
X167259Y-49276
X167259Y-51816
X169799Y-49276
X169799Y-51816
X172339Y-49276
X172339Y-51816
X174879Y-49276
X174879Y-51816
X177419Y-49276
X177419Y-51816
X179959Y-49276
X179959Y-51816
X182499Y-49276
X182499Y-51816
X185039Y-49276
X185039Y-51816
X187579Y-49276
X187579Y-51816
X190119Y-49276
X190119Y-51816
X192659Y-49276
X192659Y-51816
X195199Y-49276
X195199Y-51816
T5
X130048Y-52578
T6
X127508Y-50038
X127508Y-55118
X132588Y-50038
X132588Y-55118
T7
X193300Y-86960
X193300Y-111960
T0
M30
