G04 #@! TF.GenerationSoftware,KiCad,Pcbnew,(5.1.5)-3*
G04 #@! TF.CreationDate,2020-05-03T22:11:19-07:00*
G04 #@! TF.ProjectId,DashSight-Mezzanine-Card,44617368-5369-4676-9874-2d4d657a7a61,rev?*
G04 #@! TF.SameCoordinates,Original*
G04 #@! TF.FileFunction,Legend,Top*
G04 #@! TF.FilePolarity,Positive*
%FSLAX46Y46*%
G04 Gerber Fmt 4.6, Leading zero omitted, Abs format (unit mm)*
G04 Created by KiCad (PCBNEW (5.1.5)-3) date 2020-05-03 22:11:19*
%MOMM*%
%LPD*%
G04 APERTURE LIST*
%ADD10C,0.300000*%
%ADD11C,0.010000*%
%ADD12C,0.120000*%
%ADD13C,0.398780*%
%ADD14C,0.254000*%
%ADD15C,0.150000*%
%ADD16C,0.127000*%
G04 APERTURE END LIST*
D10*
X139859647Y-82309466D02*
X140478695Y-82309466D01*
X139735838Y-82680895D02*
X140169171Y-81380895D01*
X140602504Y-82680895D01*
X141221552Y-82680895D02*
X141097742Y-82618990D01*
X141035838Y-82495180D01*
X141035838Y-81380895D01*
X141716790Y-82680895D02*
X141716790Y-81814228D01*
X141716790Y-81380895D02*
X141654885Y-81442800D01*
X141716790Y-81504704D01*
X141778695Y-81442800D01*
X141716790Y-81380895D01*
X141716790Y-81504704D01*
X142273933Y-82618990D02*
X142397742Y-82680895D01*
X142645361Y-82680895D01*
X142769171Y-82618990D01*
X142831076Y-82495180D01*
X142831076Y-82433276D01*
X142769171Y-82309466D01*
X142645361Y-82247561D01*
X142459647Y-82247561D01*
X142335838Y-82185657D01*
X142273933Y-82061847D01*
X142273933Y-81999942D01*
X142335838Y-81876133D01*
X142459647Y-81814228D01*
X142645361Y-81814228D01*
X142769171Y-81876133D01*
X143202504Y-81814228D02*
X143697742Y-81814228D01*
X143388219Y-81380895D02*
X143388219Y-82495180D01*
X143450123Y-82618990D01*
X143573933Y-82680895D01*
X143697742Y-82680895D01*
X144688219Y-82680895D02*
X144688219Y-81999942D01*
X144626314Y-81876133D01*
X144502504Y-81814228D01*
X144254885Y-81814228D01*
X144131076Y-81876133D01*
X144688219Y-82618990D02*
X144564409Y-82680895D01*
X144254885Y-82680895D01*
X144131076Y-82618990D01*
X144069171Y-82495180D01*
X144069171Y-82371371D01*
X144131076Y-82247561D01*
X144254885Y-82185657D01*
X144564409Y-82185657D01*
X144688219Y-82123752D01*
X145307266Y-82680895D02*
X145307266Y-81814228D01*
X145307266Y-81380895D02*
X145245361Y-81442800D01*
X145307266Y-81504704D01*
X145369171Y-81442800D01*
X145307266Y-81380895D01*
X145307266Y-81504704D01*
X145926314Y-82680895D02*
X145926314Y-81814228D01*
X145926314Y-82061847D02*
X145988219Y-81938038D01*
X146050123Y-81876133D01*
X146173933Y-81814228D01*
X146297742Y-81814228D01*
X148154885Y-81999942D02*
X147721552Y-81999942D01*
X147721552Y-82680895D02*
X147721552Y-81380895D01*
X148340600Y-81380895D01*
X148835838Y-82680895D02*
X148835838Y-81814228D01*
X148835838Y-82061847D02*
X148897742Y-81938038D01*
X148959647Y-81876133D01*
X149083457Y-81814228D01*
X149207266Y-81814228D01*
X150197742Y-82680895D02*
X150197742Y-81999942D01*
X150135838Y-81876133D01*
X150012028Y-81814228D01*
X149764409Y-81814228D01*
X149640600Y-81876133D01*
X150197742Y-82618990D02*
X150073933Y-82680895D01*
X149764409Y-82680895D01*
X149640600Y-82618990D01*
X149578695Y-82495180D01*
X149578695Y-82371371D01*
X149640600Y-82247561D01*
X149764409Y-82185657D01*
X150073933Y-82185657D01*
X150197742Y-82123752D01*
X150816790Y-81814228D02*
X150816790Y-82680895D01*
X150816790Y-81938038D02*
X150878695Y-81876133D01*
X151002504Y-81814228D01*
X151188219Y-81814228D01*
X151312028Y-81876133D01*
X151373933Y-81999942D01*
X151373933Y-82680895D01*
X152550123Y-82618990D02*
X152426314Y-82680895D01*
X152178695Y-82680895D01*
X152054885Y-82618990D01*
X151992980Y-82557085D01*
X151931076Y-82433276D01*
X151931076Y-82061847D01*
X151992980Y-81938038D01*
X152054885Y-81876133D01*
X152178695Y-81814228D01*
X152426314Y-81814228D01*
X152550123Y-81876133D01*
X153107266Y-82680895D02*
X153107266Y-81814228D01*
X153107266Y-81380895D02*
X153045361Y-81442800D01*
X153107266Y-81504704D01*
X153169171Y-81442800D01*
X153107266Y-81380895D01*
X153107266Y-81504704D01*
X153664409Y-82618990D02*
X153788219Y-82680895D01*
X154035838Y-82680895D01*
X154159647Y-82618990D01*
X154221552Y-82495180D01*
X154221552Y-82433276D01*
X154159647Y-82309466D01*
X154035838Y-82247561D01*
X153850123Y-82247561D01*
X153726314Y-82185657D01*
X153664409Y-82061847D01*
X153664409Y-81999942D01*
X153726314Y-81876133D01*
X153850123Y-81814228D01*
X154035838Y-81814228D01*
X154159647Y-81876133D01*
X138897742Y-80586971D02*
X138897742Y-79086971D01*
X139254885Y-79086971D01*
X139469171Y-79158400D01*
X139612028Y-79301257D01*
X139683457Y-79444114D01*
X139754885Y-79729828D01*
X139754885Y-79944114D01*
X139683457Y-80229828D01*
X139612028Y-80372685D01*
X139469171Y-80515542D01*
X139254885Y-80586971D01*
X138897742Y-80586971D01*
X141040600Y-80586971D02*
X141040600Y-79801257D01*
X140969171Y-79658400D01*
X140826314Y-79586971D01*
X140540600Y-79586971D01*
X140397742Y-79658400D01*
X141040600Y-80515542D02*
X140897742Y-80586971D01*
X140540600Y-80586971D01*
X140397742Y-80515542D01*
X140326314Y-80372685D01*
X140326314Y-80229828D01*
X140397742Y-80086971D01*
X140540600Y-80015542D01*
X140897742Y-80015542D01*
X141040600Y-79944114D01*
X141683457Y-80515542D02*
X141826314Y-80586971D01*
X142112028Y-80586971D01*
X142254885Y-80515542D01*
X142326314Y-80372685D01*
X142326314Y-80301257D01*
X142254885Y-80158400D01*
X142112028Y-80086971D01*
X141897742Y-80086971D01*
X141754885Y-80015542D01*
X141683457Y-79872685D01*
X141683457Y-79801257D01*
X141754885Y-79658400D01*
X141897742Y-79586971D01*
X142112028Y-79586971D01*
X142254885Y-79658400D01*
X142969171Y-80586971D02*
X142969171Y-79086971D01*
X143612028Y-80586971D02*
X143612028Y-79801257D01*
X143540600Y-79658400D01*
X143397742Y-79586971D01*
X143183457Y-79586971D01*
X143040600Y-79658400D01*
X142969171Y-79729828D01*
X144254885Y-80515542D02*
X144469171Y-80586971D01*
X144826314Y-80586971D01*
X144969171Y-80515542D01*
X145040600Y-80444114D01*
X145112028Y-80301257D01*
X145112028Y-80158400D01*
X145040600Y-80015542D01*
X144969171Y-79944114D01*
X144826314Y-79872685D01*
X144540600Y-79801257D01*
X144397742Y-79729828D01*
X144326314Y-79658400D01*
X144254885Y-79515542D01*
X144254885Y-79372685D01*
X144326314Y-79229828D01*
X144397742Y-79158400D01*
X144540600Y-79086971D01*
X144897742Y-79086971D01*
X145112028Y-79158400D01*
X145754885Y-80586971D02*
X145754885Y-79586971D01*
X145754885Y-79086971D02*
X145683457Y-79158400D01*
X145754885Y-79229828D01*
X145826314Y-79158400D01*
X145754885Y-79086971D01*
X145754885Y-79229828D01*
X147112028Y-79586971D02*
X147112028Y-80801257D01*
X147040600Y-80944114D01*
X146969171Y-81015542D01*
X146826314Y-81086971D01*
X146612028Y-81086971D01*
X146469171Y-81015542D01*
X147112028Y-80515542D02*
X146969171Y-80586971D01*
X146683457Y-80586971D01*
X146540600Y-80515542D01*
X146469171Y-80444114D01*
X146397742Y-80301257D01*
X146397742Y-79872685D01*
X146469171Y-79729828D01*
X146540600Y-79658400D01*
X146683457Y-79586971D01*
X146969171Y-79586971D01*
X147112028Y-79658400D01*
X147826314Y-80586971D02*
X147826314Y-79086971D01*
X148469171Y-80586971D02*
X148469171Y-79801257D01*
X148397742Y-79658400D01*
X148254885Y-79586971D01*
X148040600Y-79586971D01*
X147897742Y-79658400D01*
X147826314Y-79729828D01*
X148969171Y-79586971D02*
X149540600Y-79586971D01*
X149183457Y-79086971D02*
X149183457Y-80372685D01*
X149254885Y-80515542D01*
X149397742Y-80586971D01*
X149540600Y-80586971D01*
X151040600Y-79586971D02*
X151397742Y-80586971D01*
X151754885Y-79586971D01*
X152183457Y-79086971D02*
X153112028Y-79086971D01*
X152612028Y-79658400D01*
X152826314Y-79658400D01*
X152969171Y-79729828D01*
X153040600Y-79801257D01*
X153112028Y-79944114D01*
X153112028Y-80301257D01*
X153040600Y-80444114D01*
X152969171Y-80515542D01*
X152826314Y-80586971D01*
X152397742Y-80586971D01*
X152254885Y-80515542D01*
X152183457Y-80444114D01*
X153754885Y-80444114D02*
X153826314Y-80515542D01*
X153754885Y-80586971D01*
X153683457Y-80515542D01*
X153754885Y-80444114D01*
X153754885Y-80586971D01*
X154754885Y-79086971D02*
X154897742Y-79086971D01*
X155040600Y-79158400D01*
X155112028Y-79229828D01*
X155183457Y-79372685D01*
X155254885Y-79658400D01*
X155254885Y-80015542D01*
X155183457Y-80301257D01*
X155112028Y-80444114D01*
X155040600Y-80515542D01*
X154897742Y-80586971D01*
X154754885Y-80586971D01*
X154612028Y-80515542D01*
X154540600Y-80444114D01*
X154469171Y-80301257D01*
X154397742Y-80015542D01*
X154397742Y-79658400D01*
X154469171Y-79372685D01*
X154540600Y-79229828D01*
X154612028Y-79158400D01*
X154754885Y-79086971D01*
D11*
G36*
X135993910Y-78522348D02*
G01*
X136072454Y-78522778D01*
X136129298Y-78523942D01*
X136168105Y-78526207D01*
X136192538Y-78529940D01*
X136206262Y-78535506D01*
X136212940Y-78543273D01*
X136216236Y-78553605D01*
X136216556Y-78554943D01*
X136221562Y-78579079D01*
X136230829Y-78626701D01*
X136243392Y-78692741D01*
X136258287Y-78772128D01*
X136274551Y-78859796D01*
X136275119Y-78862875D01*
X136291410Y-78948789D01*
X136306652Y-79024696D01*
X136319861Y-79086045D01*
X136330054Y-79128282D01*
X136336248Y-79146855D01*
X136336543Y-79147184D01*
X136354788Y-79156253D01*
X136392405Y-79171367D01*
X136441271Y-79189262D01*
X136441543Y-79189358D01*
X136503093Y-79212493D01*
X136575657Y-79241965D01*
X136644057Y-79271597D01*
X136647294Y-79273062D01*
X136758702Y-79323626D01*
X137005399Y-79155160D01*
X137081077Y-79103803D01*
X137149631Y-79057889D01*
X137207088Y-79020030D01*
X137249476Y-78992837D01*
X137272825Y-78978921D01*
X137275042Y-78977889D01*
X137292010Y-78982484D01*
X137323701Y-79004655D01*
X137371352Y-79045447D01*
X137436198Y-79105905D01*
X137502397Y-79170227D01*
X137566214Y-79233612D01*
X137623329Y-79291451D01*
X137670305Y-79340175D01*
X137703703Y-79376210D01*
X137720085Y-79395984D01*
X137720694Y-79397002D01*
X137722505Y-79410572D01*
X137715683Y-79432733D01*
X137698540Y-79466478D01*
X137669393Y-79514800D01*
X137626555Y-79580692D01*
X137569448Y-79665517D01*
X137518766Y-79740177D01*
X137473461Y-79807140D01*
X137436150Y-79862516D01*
X137409452Y-79902420D01*
X137395985Y-79922962D01*
X137395137Y-79924356D01*
X137396781Y-79944038D01*
X137409245Y-79982293D01*
X137430048Y-80031889D01*
X137437462Y-80047728D01*
X137469814Y-80118290D01*
X137504328Y-80198353D01*
X137532365Y-80267629D01*
X137552568Y-80319045D01*
X137568615Y-80358119D01*
X137577888Y-80378541D01*
X137579041Y-80380114D01*
X137596096Y-80382721D01*
X137636298Y-80389863D01*
X137694302Y-80400523D01*
X137764763Y-80413685D01*
X137842335Y-80428333D01*
X137921672Y-80443449D01*
X137997431Y-80458018D01*
X138064264Y-80471022D01*
X138116828Y-80481445D01*
X138149776Y-80488270D01*
X138157857Y-80490199D01*
X138166205Y-80494962D01*
X138172506Y-80505718D01*
X138177045Y-80526098D01*
X138180104Y-80559734D01*
X138181967Y-80610255D01*
X138182918Y-80681292D01*
X138183240Y-80776476D01*
X138183257Y-80815492D01*
X138183257Y-81132799D01*
X138107057Y-81147839D01*
X138064663Y-81155995D01*
X138001400Y-81167899D01*
X137924962Y-81182116D01*
X137843043Y-81197210D01*
X137820400Y-81201355D01*
X137744806Y-81216053D01*
X137678953Y-81230505D01*
X137628366Y-81243375D01*
X137598574Y-81253322D01*
X137593612Y-81256287D01*
X137581426Y-81277283D01*
X137563953Y-81317967D01*
X137544577Y-81370322D01*
X137540734Y-81381600D01*
X137515339Y-81451523D01*
X137483817Y-81530418D01*
X137452969Y-81601266D01*
X137452817Y-81601595D01*
X137401447Y-81712733D01*
X137570399Y-81961253D01*
X137739352Y-82209772D01*
X137522429Y-82427058D01*
X137456819Y-82491726D01*
X137396979Y-82548733D01*
X137346267Y-82595033D01*
X137308046Y-82627584D01*
X137285675Y-82643343D01*
X137282466Y-82644343D01*
X137263626Y-82636469D01*
X137225180Y-82614578D01*
X137171330Y-82581267D01*
X137106276Y-82539131D01*
X137035940Y-82491943D01*
X136964555Y-82443810D01*
X136900908Y-82401928D01*
X136849041Y-82368871D01*
X136812995Y-82347218D01*
X136796867Y-82339543D01*
X136777189Y-82346037D01*
X136739875Y-82363150D01*
X136692621Y-82387326D01*
X136687612Y-82390013D01*
X136623977Y-82421927D01*
X136580341Y-82437579D01*
X136553202Y-82437745D01*
X136539057Y-82423204D01*
X136538975Y-82423000D01*
X136531905Y-82405779D01*
X136515042Y-82364899D01*
X136489695Y-82303525D01*
X136457171Y-82224819D01*
X136418778Y-82131947D01*
X136375822Y-82028072D01*
X136334222Y-81927502D01*
X136288504Y-81816516D01*
X136246526Y-81713703D01*
X136209548Y-81622215D01*
X136178827Y-81545201D01*
X136155622Y-81485815D01*
X136141190Y-81447209D01*
X136136743Y-81432800D01*
X136147896Y-81416272D01*
X136177069Y-81389930D01*
X136215971Y-81360887D01*
X136326757Y-81269039D01*
X136413351Y-81163759D01*
X136474716Y-81047266D01*
X136509815Y-80921776D01*
X136517608Y-80789507D01*
X136511943Y-80728457D01*
X136481078Y-80601795D01*
X136427920Y-80489941D01*
X136355767Y-80394001D01*
X136267917Y-80315076D01*
X136167665Y-80254270D01*
X136058310Y-80212687D01*
X135943147Y-80191428D01*
X135825475Y-80191599D01*
X135708590Y-80214301D01*
X135595789Y-80260638D01*
X135490369Y-80331713D01*
X135446368Y-80371911D01*
X135361979Y-80475129D01*
X135303222Y-80587925D01*
X135269704Y-80707010D01*
X135261035Y-80829095D01*
X135276823Y-80950893D01*
X135316678Y-81069116D01*
X135380207Y-81180475D01*
X135467021Y-81281684D01*
X135564029Y-81360887D01*
X135604437Y-81391162D01*
X135632982Y-81417219D01*
X135643257Y-81432825D01*
X135637877Y-81449843D01*
X135622575Y-81490500D01*
X135598612Y-81551642D01*
X135567244Y-81630119D01*
X135529732Y-81722780D01*
X135487333Y-81826472D01*
X135445663Y-81927526D01*
X135399690Y-82038607D01*
X135357107Y-82141541D01*
X135319221Y-82233165D01*
X135287340Y-82310316D01*
X135262771Y-82369831D01*
X135246820Y-82408544D01*
X135240910Y-82423000D01*
X135226948Y-82437685D01*
X135199940Y-82437642D01*
X135156413Y-82422099D01*
X135092890Y-82390284D01*
X135092388Y-82390013D01*
X135044560Y-82365323D01*
X135005897Y-82347338D01*
X134984095Y-82339614D01*
X134983133Y-82339543D01*
X134966721Y-82347378D01*
X134930487Y-82369165D01*
X134878474Y-82402328D01*
X134814725Y-82444291D01*
X134744060Y-82491943D01*
X134672116Y-82540191D01*
X134607274Y-82582151D01*
X134553735Y-82615227D01*
X134515697Y-82636821D01*
X134497533Y-82644343D01*
X134480808Y-82634457D01*
X134447180Y-82606826D01*
X134400010Y-82564495D01*
X134342658Y-82510505D01*
X134278484Y-82447899D01*
X134257497Y-82426983D01*
X134040499Y-82209623D01*
X134205668Y-81967220D01*
X134255864Y-81892781D01*
X134299919Y-81825972D01*
X134335362Y-81770665D01*
X134359719Y-81730729D01*
X134370522Y-81710036D01*
X134370838Y-81708563D01*
X134365143Y-81689058D01*
X134349826Y-81649822D01*
X134327537Y-81597430D01*
X134311893Y-81562355D01*
X134282641Y-81495201D01*
X134255094Y-81427358D01*
X134233737Y-81370034D01*
X134227935Y-81352572D01*
X134211452Y-81305938D01*
X134195340Y-81269905D01*
X134186490Y-81256287D01*
X134166960Y-81247952D01*
X134124334Y-81236137D01*
X134064145Y-81222181D01*
X133991922Y-81207422D01*
X133959600Y-81201355D01*
X133877522Y-81186273D01*
X133798795Y-81171669D01*
X133731109Y-81158980D01*
X133682160Y-81149642D01*
X133672943Y-81147839D01*
X133596743Y-81132799D01*
X133596743Y-80815492D01*
X133596914Y-80711154D01*
X133597616Y-80632213D01*
X133599134Y-80575038D01*
X133601749Y-80535999D01*
X133605746Y-80511465D01*
X133611409Y-80497805D01*
X133619020Y-80491389D01*
X133622143Y-80490199D01*
X133640978Y-80485980D01*
X133682588Y-80477562D01*
X133741630Y-80465961D01*
X133812757Y-80452195D01*
X133890625Y-80437280D01*
X133969887Y-80422232D01*
X134045198Y-80408069D01*
X134111213Y-80395806D01*
X134162587Y-80386461D01*
X134193975Y-80381050D01*
X134200959Y-80380114D01*
X134207285Y-80367596D01*
X134221290Y-80334246D01*
X134240355Y-80286377D01*
X134247634Y-80267629D01*
X134276996Y-80195195D01*
X134311571Y-80115170D01*
X134342537Y-80047728D01*
X134365323Y-79996159D01*
X134380482Y-79953785D01*
X134385542Y-79927834D01*
X134384736Y-79924356D01*
X134374041Y-79907936D01*
X134349620Y-79871417D01*
X134314095Y-79818687D01*
X134270087Y-79753635D01*
X134220217Y-79680151D01*
X134210356Y-79665645D01*
X134152492Y-79579704D01*
X134109956Y-79514261D01*
X134081054Y-79466304D01*
X134064090Y-79432820D01*
X134057367Y-79410795D01*
X134059190Y-79397217D01*
X134059236Y-79397131D01*
X134073586Y-79379297D01*
X134105323Y-79344817D01*
X134151010Y-79297268D01*
X134207204Y-79240222D01*
X134270468Y-79177255D01*
X134277602Y-79170227D01*
X134357330Y-79093020D01*
X134418857Y-79036330D01*
X134463421Y-78999110D01*
X134492257Y-78980315D01*
X134504958Y-78977889D01*
X134523494Y-78988471D01*
X134561961Y-79012916D01*
X134616386Y-79048612D01*
X134682798Y-79092947D01*
X134757225Y-79143311D01*
X134774601Y-79155160D01*
X135021297Y-79323626D01*
X135132706Y-79273062D01*
X135200457Y-79243595D01*
X135273183Y-79213959D01*
X135335703Y-79190330D01*
X135338457Y-79189358D01*
X135387360Y-79171457D01*
X135425057Y-79156320D01*
X135443425Y-79147210D01*
X135443456Y-79147184D01*
X135449285Y-79130717D01*
X135459192Y-79090219D01*
X135472195Y-79030242D01*
X135487309Y-78955340D01*
X135503552Y-78870064D01*
X135504881Y-78862875D01*
X135521175Y-78775014D01*
X135536133Y-78695260D01*
X135548791Y-78628681D01*
X135558186Y-78580347D01*
X135563354Y-78555325D01*
X135563444Y-78554943D01*
X135566589Y-78544299D01*
X135572704Y-78536262D01*
X135585453Y-78530467D01*
X135608500Y-78526547D01*
X135645509Y-78524135D01*
X135700144Y-78522865D01*
X135776067Y-78522371D01*
X135876944Y-78522286D01*
X135890000Y-78522286D01*
X135993910Y-78522348D01*
G37*
X135993910Y-78522348D02*
X136072454Y-78522778D01*
X136129298Y-78523942D01*
X136168105Y-78526207D01*
X136192538Y-78529940D01*
X136206262Y-78535506D01*
X136212940Y-78543273D01*
X136216236Y-78553605D01*
X136216556Y-78554943D01*
X136221562Y-78579079D01*
X136230829Y-78626701D01*
X136243392Y-78692741D01*
X136258287Y-78772128D01*
X136274551Y-78859796D01*
X136275119Y-78862875D01*
X136291410Y-78948789D01*
X136306652Y-79024696D01*
X136319861Y-79086045D01*
X136330054Y-79128282D01*
X136336248Y-79146855D01*
X136336543Y-79147184D01*
X136354788Y-79156253D01*
X136392405Y-79171367D01*
X136441271Y-79189262D01*
X136441543Y-79189358D01*
X136503093Y-79212493D01*
X136575657Y-79241965D01*
X136644057Y-79271597D01*
X136647294Y-79273062D01*
X136758702Y-79323626D01*
X137005399Y-79155160D01*
X137081077Y-79103803D01*
X137149631Y-79057889D01*
X137207088Y-79020030D01*
X137249476Y-78992837D01*
X137272825Y-78978921D01*
X137275042Y-78977889D01*
X137292010Y-78982484D01*
X137323701Y-79004655D01*
X137371352Y-79045447D01*
X137436198Y-79105905D01*
X137502397Y-79170227D01*
X137566214Y-79233612D01*
X137623329Y-79291451D01*
X137670305Y-79340175D01*
X137703703Y-79376210D01*
X137720085Y-79395984D01*
X137720694Y-79397002D01*
X137722505Y-79410572D01*
X137715683Y-79432733D01*
X137698540Y-79466478D01*
X137669393Y-79514800D01*
X137626555Y-79580692D01*
X137569448Y-79665517D01*
X137518766Y-79740177D01*
X137473461Y-79807140D01*
X137436150Y-79862516D01*
X137409452Y-79902420D01*
X137395985Y-79922962D01*
X137395137Y-79924356D01*
X137396781Y-79944038D01*
X137409245Y-79982293D01*
X137430048Y-80031889D01*
X137437462Y-80047728D01*
X137469814Y-80118290D01*
X137504328Y-80198353D01*
X137532365Y-80267629D01*
X137552568Y-80319045D01*
X137568615Y-80358119D01*
X137577888Y-80378541D01*
X137579041Y-80380114D01*
X137596096Y-80382721D01*
X137636298Y-80389863D01*
X137694302Y-80400523D01*
X137764763Y-80413685D01*
X137842335Y-80428333D01*
X137921672Y-80443449D01*
X137997431Y-80458018D01*
X138064264Y-80471022D01*
X138116828Y-80481445D01*
X138149776Y-80488270D01*
X138157857Y-80490199D01*
X138166205Y-80494962D01*
X138172506Y-80505718D01*
X138177045Y-80526098D01*
X138180104Y-80559734D01*
X138181967Y-80610255D01*
X138182918Y-80681292D01*
X138183240Y-80776476D01*
X138183257Y-80815492D01*
X138183257Y-81132799D01*
X138107057Y-81147839D01*
X138064663Y-81155995D01*
X138001400Y-81167899D01*
X137924962Y-81182116D01*
X137843043Y-81197210D01*
X137820400Y-81201355D01*
X137744806Y-81216053D01*
X137678953Y-81230505D01*
X137628366Y-81243375D01*
X137598574Y-81253322D01*
X137593612Y-81256287D01*
X137581426Y-81277283D01*
X137563953Y-81317967D01*
X137544577Y-81370322D01*
X137540734Y-81381600D01*
X137515339Y-81451523D01*
X137483817Y-81530418D01*
X137452969Y-81601266D01*
X137452817Y-81601595D01*
X137401447Y-81712733D01*
X137570399Y-81961253D01*
X137739352Y-82209772D01*
X137522429Y-82427058D01*
X137456819Y-82491726D01*
X137396979Y-82548733D01*
X137346267Y-82595033D01*
X137308046Y-82627584D01*
X137285675Y-82643343D01*
X137282466Y-82644343D01*
X137263626Y-82636469D01*
X137225180Y-82614578D01*
X137171330Y-82581267D01*
X137106276Y-82539131D01*
X137035940Y-82491943D01*
X136964555Y-82443810D01*
X136900908Y-82401928D01*
X136849041Y-82368871D01*
X136812995Y-82347218D01*
X136796867Y-82339543D01*
X136777189Y-82346037D01*
X136739875Y-82363150D01*
X136692621Y-82387326D01*
X136687612Y-82390013D01*
X136623977Y-82421927D01*
X136580341Y-82437579D01*
X136553202Y-82437745D01*
X136539057Y-82423204D01*
X136538975Y-82423000D01*
X136531905Y-82405779D01*
X136515042Y-82364899D01*
X136489695Y-82303525D01*
X136457171Y-82224819D01*
X136418778Y-82131947D01*
X136375822Y-82028072D01*
X136334222Y-81927502D01*
X136288504Y-81816516D01*
X136246526Y-81713703D01*
X136209548Y-81622215D01*
X136178827Y-81545201D01*
X136155622Y-81485815D01*
X136141190Y-81447209D01*
X136136743Y-81432800D01*
X136147896Y-81416272D01*
X136177069Y-81389930D01*
X136215971Y-81360887D01*
X136326757Y-81269039D01*
X136413351Y-81163759D01*
X136474716Y-81047266D01*
X136509815Y-80921776D01*
X136517608Y-80789507D01*
X136511943Y-80728457D01*
X136481078Y-80601795D01*
X136427920Y-80489941D01*
X136355767Y-80394001D01*
X136267917Y-80315076D01*
X136167665Y-80254270D01*
X136058310Y-80212687D01*
X135943147Y-80191428D01*
X135825475Y-80191599D01*
X135708590Y-80214301D01*
X135595789Y-80260638D01*
X135490369Y-80331713D01*
X135446368Y-80371911D01*
X135361979Y-80475129D01*
X135303222Y-80587925D01*
X135269704Y-80707010D01*
X135261035Y-80829095D01*
X135276823Y-80950893D01*
X135316678Y-81069116D01*
X135380207Y-81180475D01*
X135467021Y-81281684D01*
X135564029Y-81360887D01*
X135604437Y-81391162D01*
X135632982Y-81417219D01*
X135643257Y-81432825D01*
X135637877Y-81449843D01*
X135622575Y-81490500D01*
X135598612Y-81551642D01*
X135567244Y-81630119D01*
X135529732Y-81722780D01*
X135487333Y-81826472D01*
X135445663Y-81927526D01*
X135399690Y-82038607D01*
X135357107Y-82141541D01*
X135319221Y-82233165D01*
X135287340Y-82310316D01*
X135262771Y-82369831D01*
X135246820Y-82408544D01*
X135240910Y-82423000D01*
X135226948Y-82437685D01*
X135199940Y-82437642D01*
X135156413Y-82422099D01*
X135092890Y-82390284D01*
X135092388Y-82390013D01*
X135044560Y-82365323D01*
X135005897Y-82347338D01*
X134984095Y-82339614D01*
X134983133Y-82339543D01*
X134966721Y-82347378D01*
X134930487Y-82369165D01*
X134878474Y-82402328D01*
X134814725Y-82444291D01*
X134744060Y-82491943D01*
X134672116Y-82540191D01*
X134607274Y-82582151D01*
X134553735Y-82615227D01*
X134515697Y-82636821D01*
X134497533Y-82644343D01*
X134480808Y-82634457D01*
X134447180Y-82606826D01*
X134400010Y-82564495D01*
X134342658Y-82510505D01*
X134278484Y-82447899D01*
X134257497Y-82426983D01*
X134040499Y-82209623D01*
X134205668Y-81967220D01*
X134255864Y-81892781D01*
X134299919Y-81825972D01*
X134335362Y-81770665D01*
X134359719Y-81730729D01*
X134370522Y-81710036D01*
X134370838Y-81708563D01*
X134365143Y-81689058D01*
X134349826Y-81649822D01*
X134327537Y-81597430D01*
X134311893Y-81562355D01*
X134282641Y-81495201D01*
X134255094Y-81427358D01*
X134233737Y-81370034D01*
X134227935Y-81352572D01*
X134211452Y-81305938D01*
X134195340Y-81269905D01*
X134186490Y-81256287D01*
X134166960Y-81247952D01*
X134124334Y-81236137D01*
X134064145Y-81222181D01*
X133991922Y-81207422D01*
X133959600Y-81201355D01*
X133877522Y-81186273D01*
X133798795Y-81171669D01*
X133731109Y-81158980D01*
X133682160Y-81149642D01*
X133672943Y-81147839D01*
X133596743Y-81132799D01*
X133596743Y-80815492D01*
X133596914Y-80711154D01*
X133597616Y-80632213D01*
X133599134Y-80575038D01*
X133601749Y-80535999D01*
X133605746Y-80511465D01*
X133611409Y-80497805D01*
X133619020Y-80491389D01*
X133622143Y-80490199D01*
X133640978Y-80485980D01*
X133682588Y-80477562D01*
X133741630Y-80465961D01*
X133812757Y-80452195D01*
X133890625Y-80437280D01*
X133969887Y-80422232D01*
X134045198Y-80408069D01*
X134111213Y-80395806D01*
X134162587Y-80386461D01*
X134193975Y-80381050D01*
X134200959Y-80380114D01*
X134207285Y-80367596D01*
X134221290Y-80334246D01*
X134240355Y-80286377D01*
X134247634Y-80267629D01*
X134276996Y-80195195D01*
X134311571Y-80115170D01*
X134342537Y-80047728D01*
X134365323Y-79996159D01*
X134380482Y-79953785D01*
X134385542Y-79927834D01*
X134384736Y-79924356D01*
X134374041Y-79907936D01*
X134349620Y-79871417D01*
X134314095Y-79818687D01*
X134270087Y-79753635D01*
X134220217Y-79680151D01*
X134210356Y-79665645D01*
X134152492Y-79579704D01*
X134109956Y-79514261D01*
X134081054Y-79466304D01*
X134064090Y-79432820D01*
X134057367Y-79410795D01*
X134059190Y-79397217D01*
X134059236Y-79397131D01*
X134073586Y-79379297D01*
X134105323Y-79344817D01*
X134151010Y-79297268D01*
X134207204Y-79240222D01*
X134270468Y-79177255D01*
X134277602Y-79170227D01*
X134357330Y-79093020D01*
X134418857Y-79036330D01*
X134463421Y-78999110D01*
X134492257Y-78980315D01*
X134504958Y-78977889D01*
X134523494Y-78988471D01*
X134561961Y-79012916D01*
X134616386Y-79048612D01*
X134682798Y-79092947D01*
X134757225Y-79143311D01*
X134774601Y-79155160D01*
X135021297Y-79323626D01*
X135132706Y-79273062D01*
X135200457Y-79243595D01*
X135273183Y-79213959D01*
X135335703Y-79190330D01*
X135338457Y-79189358D01*
X135387360Y-79171457D01*
X135425057Y-79156320D01*
X135443425Y-79147210D01*
X135443456Y-79147184D01*
X135449285Y-79130717D01*
X135459192Y-79090219D01*
X135472195Y-79030242D01*
X135487309Y-78955340D01*
X135503552Y-78870064D01*
X135504881Y-78862875D01*
X135521175Y-78775014D01*
X135536133Y-78695260D01*
X135548791Y-78628681D01*
X135558186Y-78580347D01*
X135563354Y-78555325D01*
X135563444Y-78554943D01*
X135566589Y-78544299D01*
X135572704Y-78536262D01*
X135585453Y-78530467D01*
X135608500Y-78526547D01*
X135645509Y-78524135D01*
X135700144Y-78522865D01*
X135776067Y-78522371D01*
X135876944Y-78522286D01*
X135890000Y-78522286D01*
X135993910Y-78522348D01*
G36*
X139043595Y-83246966D02*
G01*
X139101021Y-83284497D01*
X139128719Y-83318096D01*
X139150662Y-83379064D01*
X139152405Y-83427308D01*
X139148457Y-83491816D01*
X138999686Y-83556934D01*
X138927349Y-83590202D01*
X138880084Y-83616964D01*
X138855507Y-83640144D01*
X138851237Y-83662667D01*
X138864889Y-83687455D01*
X138879943Y-83703886D01*
X138923746Y-83730235D01*
X138971389Y-83732081D01*
X139015145Y-83711546D01*
X139047289Y-83670752D01*
X139053038Y-83656347D01*
X139080576Y-83611356D01*
X139112258Y-83592182D01*
X139155714Y-83575779D01*
X139155714Y-83637966D01*
X139151872Y-83680283D01*
X139136823Y-83715969D01*
X139105280Y-83756943D01*
X139100592Y-83762267D01*
X139065506Y-83798720D01*
X139035347Y-83818283D01*
X138997615Y-83827283D01*
X138966335Y-83830230D01*
X138910385Y-83830965D01*
X138870555Y-83821660D01*
X138845708Y-83807846D01*
X138806656Y-83777467D01*
X138779625Y-83744613D01*
X138762517Y-83703294D01*
X138753238Y-83647521D01*
X138749693Y-83571305D01*
X138749410Y-83532622D01*
X138750372Y-83486247D01*
X138838007Y-83486247D01*
X138839023Y-83511126D01*
X138841556Y-83515200D01*
X138858274Y-83509665D01*
X138894249Y-83495017D01*
X138942331Y-83474190D01*
X138952386Y-83469714D01*
X139013152Y-83438814D01*
X139046632Y-83411657D01*
X139053990Y-83386220D01*
X139036391Y-83360481D01*
X139021856Y-83349109D01*
X138969410Y-83326364D01*
X138920322Y-83330122D01*
X138879227Y-83357884D01*
X138850758Y-83407152D01*
X138841631Y-83446257D01*
X138838007Y-83486247D01*
X138750372Y-83486247D01*
X138751285Y-83442249D01*
X138758196Y-83375384D01*
X138771884Y-83326695D01*
X138794096Y-83290849D01*
X138826574Y-83262513D01*
X138840733Y-83253355D01*
X138905053Y-83229507D01*
X138975473Y-83228006D01*
X139043595Y-83246966D01*
G37*
X139043595Y-83246966D02*
X139101021Y-83284497D01*
X139128719Y-83318096D01*
X139150662Y-83379064D01*
X139152405Y-83427308D01*
X139148457Y-83491816D01*
X138999686Y-83556934D01*
X138927349Y-83590202D01*
X138880084Y-83616964D01*
X138855507Y-83640144D01*
X138851237Y-83662667D01*
X138864889Y-83687455D01*
X138879943Y-83703886D01*
X138923746Y-83730235D01*
X138971389Y-83732081D01*
X139015145Y-83711546D01*
X139047289Y-83670752D01*
X139053038Y-83656347D01*
X139080576Y-83611356D01*
X139112258Y-83592182D01*
X139155714Y-83575779D01*
X139155714Y-83637966D01*
X139151872Y-83680283D01*
X139136823Y-83715969D01*
X139105280Y-83756943D01*
X139100592Y-83762267D01*
X139065506Y-83798720D01*
X139035347Y-83818283D01*
X138997615Y-83827283D01*
X138966335Y-83830230D01*
X138910385Y-83830965D01*
X138870555Y-83821660D01*
X138845708Y-83807846D01*
X138806656Y-83777467D01*
X138779625Y-83744613D01*
X138762517Y-83703294D01*
X138753238Y-83647521D01*
X138749693Y-83571305D01*
X138749410Y-83532622D01*
X138750372Y-83486247D01*
X138838007Y-83486247D01*
X138839023Y-83511126D01*
X138841556Y-83515200D01*
X138858274Y-83509665D01*
X138894249Y-83495017D01*
X138942331Y-83474190D01*
X138952386Y-83469714D01*
X139013152Y-83438814D01*
X139046632Y-83411657D01*
X139053990Y-83386220D01*
X139036391Y-83360481D01*
X139021856Y-83349109D01*
X138969410Y-83326364D01*
X138920322Y-83330122D01*
X138879227Y-83357884D01*
X138850758Y-83407152D01*
X138841631Y-83446257D01*
X138838007Y-83486247D01*
X138750372Y-83486247D01*
X138751285Y-83442249D01*
X138758196Y-83375384D01*
X138771884Y-83326695D01*
X138794096Y-83290849D01*
X138826574Y-83262513D01*
X138840733Y-83253355D01*
X138905053Y-83229507D01*
X138975473Y-83228006D01*
X139043595Y-83246966D01*
G36*
X138542600Y-83238752D02*
G01*
X138559948Y-83246334D01*
X138601356Y-83279128D01*
X138636765Y-83326547D01*
X138658664Y-83377151D01*
X138662229Y-83402098D01*
X138650279Y-83436927D01*
X138624067Y-83455357D01*
X138595964Y-83466516D01*
X138583095Y-83468572D01*
X138576829Y-83453649D01*
X138564456Y-83421175D01*
X138559028Y-83406502D01*
X138528590Y-83355744D01*
X138484520Y-83330427D01*
X138428010Y-83331206D01*
X138423825Y-83332203D01*
X138393655Y-83346507D01*
X138371476Y-83374393D01*
X138356327Y-83419287D01*
X138347250Y-83484615D01*
X138343286Y-83573804D01*
X138342914Y-83621261D01*
X138342730Y-83696071D01*
X138341522Y-83747069D01*
X138338309Y-83779471D01*
X138332109Y-83798495D01*
X138321940Y-83809356D01*
X138306819Y-83817272D01*
X138305946Y-83817670D01*
X138276828Y-83829981D01*
X138262403Y-83834514D01*
X138260186Y-83820809D01*
X138258289Y-83782925D01*
X138256847Y-83725715D01*
X138255998Y-83654027D01*
X138255829Y-83601565D01*
X138256692Y-83500047D01*
X138260070Y-83423032D01*
X138267142Y-83366023D01*
X138279088Y-83324526D01*
X138297090Y-83294043D01*
X138322327Y-83270080D01*
X138347247Y-83253355D01*
X138407171Y-83231097D01*
X138476911Y-83226076D01*
X138542600Y-83238752D01*
G37*
X138542600Y-83238752D02*
X138559948Y-83246334D01*
X138601356Y-83279128D01*
X138636765Y-83326547D01*
X138658664Y-83377151D01*
X138662229Y-83402098D01*
X138650279Y-83436927D01*
X138624067Y-83455357D01*
X138595964Y-83466516D01*
X138583095Y-83468572D01*
X138576829Y-83453649D01*
X138564456Y-83421175D01*
X138559028Y-83406502D01*
X138528590Y-83355744D01*
X138484520Y-83330427D01*
X138428010Y-83331206D01*
X138423825Y-83332203D01*
X138393655Y-83346507D01*
X138371476Y-83374393D01*
X138356327Y-83419287D01*
X138347250Y-83484615D01*
X138343286Y-83573804D01*
X138342914Y-83621261D01*
X138342730Y-83696071D01*
X138341522Y-83747069D01*
X138338309Y-83779471D01*
X138332109Y-83798495D01*
X138321940Y-83809356D01*
X138306819Y-83817272D01*
X138305946Y-83817670D01*
X138276828Y-83829981D01*
X138262403Y-83834514D01*
X138260186Y-83820809D01*
X138258289Y-83782925D01*
X138256847Y-83725715D01*
X138255998Y-83654027D01*
X138255829Y-83601565D01*
X138256692Y-83500047D01*
X138260070Y-83423032D01*
X138267142Y-83366023D01*
X138279088Y-83324526D01*
X138297090Y-83294043D01*
X138322327Y-83270080D01*
X138347247Y-83253355D01*
X138407171Y-83231097D01*
X138476911Y-83226076D01*
X138542600Y-83238752D01*
G36*
X138034876Y-83236335D02*
G01*
X138076667Y-83255344D01*
X138109469Y-83278378D01*
X138133503Y-83304133D01*
X138150097Y-83337358D01*
X138160577Y-83382800D01*
X138166271Y-83445207D01*
X138168507Y-83529327D01*
X138168743Y-83584721D01*
X138168743Y-83800826D01*
X138131774Y-83817670D01*
X138102656Y-83829981D01*
X138088231Y-83834514D01*
X138085472Y-83821025D01*
X138083282Y-83784653D01*
X138081942Y-83731542D01*
X138081657Y-83689372D01*
X138080434Y-83628447D01*
X138077136Y-83580115D01*
X138072321Y-83550518D01*
X138068496Y-83544229D01*
X138042783Y-83550652D01*
X138002418Y-83567125D01*
X137955679Y-83589458D01*
X137910845Y-83613457D01*
X137876193Y-83634930D01*
X137860002Y-83649685D01*
X137859938Y-83649845D01*
X137861330Y-83677152D01*
X137873818Y-83703219D01*
X137895743Y-83724392D01*
X137927743Y-83731474D01*
X137955092Y-83730649D01*
X137993826Y-83730042D01*
X138014158Y-83739116D01*
X138026369Y-83763092D01*
X138027909Y-83767613D01*
X138033203Y-83801806D01*
X138019047Y-83822568D01*
X137982148Y-83832462D01*
X137942289Y-83834292D01*
X137870562Y-83820727D01*
X137833432Y-83801355D01*
X137787576Y-83755845D01*
X137763256Y-83699983D01*
X137761073Y-83640957D01*
X137781629Y-83585953D01*
X137812549Y-83551486D01*
X137843420Y-83532189D01*
X137891942Y-83507759D01*
X137948485Y-83482985D01*
X137957910Y-83479199D01*
X138020019Y-83451791D01*
X138055822Y-83427634D01*
X138067337Y-83403619D01*
X138056580Y-83376635D01*
X138038114Y-83355543D01*
X137994469Y-83329572D01*
X137946446Y-83327624D01*
X137902406Y-83347637D01*
X137870709Y-83387551D01*
X137866549Y-83397848D01*
X137842327Y-83435724D01*
X137806965Y-83463842D01*
X137762343Y-83486917D01*
X137762343Y-83421485D01*
X137764969Y-83381506D01*
X137776230Y-83349997D01*
X137801199Y-83316378D01*
X137825169Y-83290484D01*
X137862441Y-83253817D01*
X137891401Y-83234121D01*
X137922505Y-83226220D01*
X137957713Y-83224914D01*
X138034876Y-83236335D01*
G37*
X138034876Y-83236335D02*
X138076667Y-83255344D01*
X138109469Y-83278378D01*
X138133503Y-83304133D01*
X138150097Y-83337358D01*
X138160577Y-83382800D01*
X138166271Y-83445207D01*
X138168507Y-83529327D01*
X138168743Y-83584721D01*
X138168743Y-83800826D01*
X138131774Y-83817670D01*
X138102656Y-83829981D01*
X138088231Y-83834514D01*
X138085472Y-83821025D01*
X138083282Y-83784653D01*
X138081942Y-83731542D01*
X138081657Y-83689372D01*
X138080434Y-83628447D01*
X138077136Y-83580115D01*
X138072321Y-83550518D01*
X138068496Y-83544229D01*
X138042783Y-83550652D01*
X138002418Y-83567125D01*
X137955679Y-83589458D01*
X137910845Y-83613457D01*
X137876193Y-83634930D01*
X137860002Y-83649685D01*
X137859938Y-83649845D01*
X137861330Y-83677152D01*
X137873818Y-83703219D01*
X137895743Y-83724392D01*
X137927743Y-83731474D01*
X137955092Y-83730649D01*
X137993826Y-83730042D01*
X138014158Y-83739116D01*
X138026369Y-83763092D01*
X138027909Y-83767613D01*
X138033203Y-83801806D01*
X138019047Y-83822568D01*
X137982148Y-83832462D01*
X137942289Y-83834292D01*
X137870562Y-83820727D01*
X137833432Y-83801355D01*
X137787576Y-83755845D01*
X137763256Y-83699983D01*
X137761073Y-83640957D01*
X137781629Y-83585953D01*
X137812549Y-83551486D01*
X137843420Y-83532189D01*
X137891942Y-83507759D01*
X137948485Y-83482985D01*
X137957910Y-83479199D01*
X138020019Y-83451791D01*
X138055822Y-83427634D01*
X138067337Y-83403619D01*
X138056580Y-83376635D01*
X138038114Y-83355543D01*
X137994469Y-83329572D01*
X137946446Y-83327624D01*
X137902406Y-83347637D01*
X137870709Y-83387551D01*
X137866549Y-83397848D01*
X137842327Y-83435724D01*
X137806965Y-83463842D01*
X137762343Y-83486917D01*
X137762343Y-83421485D01*
X137764969Y-83381506D01*
X137776230Y-83349997D01*
X137801199Y-83316378D01*
X137825169Y-83290484D01*
X137862441Y-83253817D01*
X137891401Y-83234121D01*
X137922505Y-83226220D01*
X137957713Y-83224914D01*
X138034876Y-83236335D01*
G36*
X137669833Y-83238663D02*
G01*
X137672048Y-83276850D01*
X137673784Y-83334886D01*
X137674899Y-83408180D01*
X137675257Y-83485055D01*
X137675257Y-83745196D01*
X137629326Y-83791127D01*
X137597675Y-83819429D01*
X137569890Y-83830893D01*
X137531915Y-83830168D01*
X137516840Y-83828321D01*
X137469726Y-83822948D01*
X137430756Y-83819869D01*
X137421257Y-83819585D01*
X137389233Y-83821445D01*
X137343432Y-83826114D01*
X137325674Y-83828321D01*
X137282057Y-83831735D01*
X137252745Y-83824320D01*
X137223680Y-83801427D01*
X137213188Y-83791127D01*
X137167257Y-83745196D01*
X137167257Y-83258602D01*
X137204226Y-83241758D01*
X137236059Y-83229282D01*
X137254683Y-83224914D01*
X137259458Y-83238718D01*
X137263921Y-83277286D01*
X137267775Y-83336356D01*
X137270722Y-83411663D01*
X137272143Y-83475286D01*
X137276114Y-83725657D01*
X137310759Y-83730556D01*
X137342268Y-83727131D01*
X137357708Y-83716041D01*
X137362023Y-83695308D01*
X137365708Y-83651145D01*
X137368469Y-83589146D01*
X137370012Y-83514909D01*
X137370235Y-83476706D01*
X137370457Y-83256783D01*
X137416166Y-83240849D01*
X137448518Y-83230015D01*
X137466115Y-83224962D01*
X137466623Y-83224914D01*
X137468388Y-83238648D01*
X137470329Y-83276730D01*
X137472282Y-83334482D01*
X137474084Y-83407227D01*
X137475343Y-83475286D01*
X137479314Y-83725657D01*
X137566400Y-83725657D01*
X137570396Y-83497240D01*
X137574392Y-83268822D01*
X137616847Y-83246868D01*
X137648192Y-83231793D01*
X137666744Y-83224951D01*
X137667279Y-83224914D01*
X137669833Y-83238663D01*
G37*
X137669833Y-83238663D02*
X137672048Y-83276850D01*
X137673784Y-83334886D01*
X137674899Y-83408180D01*
X137675257Y-83485055D01*
X137675257Y-83745196D01*
X137629326Y-83791127D01*
X137597675Y-83819429D01*
X137569890Y-83830893D01*
X137531915Y-83830168D01*
X137516840Y-83828321D01*
X137469726Y-83822948D01*
X137430756Y-83819869D01*
X137421257Y-83819585D01*
X137389233Y-83821445D01*
X137343432Y-83826114D01*
X137325674Y-83828321D01*
X137282057Y-83831735D01*
X137252745Y-83824320D01*
X137223680Y-83801427D01*
X137213188Y-83791127D01*
X137167257Y-83745196D01*
X137167257Y-83258602D01*
X137204226Y-83241758D01*
X137236059Y-83229282D01*
X137254683Y-83224914D01*
X137259458Y-83238718D01*
X137263921Y-83277286D01*
X137267775Y-83336356D01*
X137270722Y-83411663D01*
X137272143Y-83475286D01*
X137276114Y-83725657D01*
X137310759Y-83730556D01*
X137342268Y-83727131D01*
X137357708Y-83716041D01*
X137362023Y-83695308D01*
X137365708Y-83651145D01*
X137368469Y-83589146D01*
X137370012Y-83514909D01*
X137370235Y-83476706D01*
X137370457Y-83256783D01*
X137416166Y-83240849D01*
X137448518Y-83230015D01*
X137466115Y-83224962D01*
X137466623Y-83224914D01*
X137468388Y-83238648D01*
X137470329Y-83276730D01*
X137472282Y-83334482D01*
X137474084Y-83407227D01*
X137475343Y-83475286D01*
X137479314Y-83725657D01*
X137566400Y-83725657D01*
X137570396Y-83497240D01*
X137574392Y-83268822D01*
X137616847Y-83246868D01*
X137648192Y-83231793D01*
X137666744Y-83224951D01*
X137667279Y-83224914D01*
X137669833Y-83238663D01*
G36*
X137080117Y-83345358D02*
G01*
X137079933Y-83453837D01*
X137079219Y-83537287D01*
X137077675Y-83599704D01*
X137075001Y-83645085D01*
X137070894Y-83677429D01*
X137065055Y-83700733D01*
X137057182Y-83718995D01*
X137051221Y-83729418D01*
X137001855Y-83785945D01*
X136939264Y-83821377D01*
X136870013Y-83834090D01*
X136800668Y-83822463D01*
X136759375Y-83801568D01*
X136716025Y-83765422D01*
X136686481Y-83721276D01*
X136668655Y-83663462D01*
X136660463Y-83586313D01*
X136659302Y-83529714D01*
X136659458Y-83525647D01*
X136760857Y-83525647D01*
X136761476Y-83590550D01*
X136764314Y-83633514D01*
X136770840Y-83661622D01*
X136782523Y-83681953D01*
X136796483Y-83697288D01*
X136843365Y-83726890D01*
X136893701Y-83729419D01*
X136941276Y-83704705D01*
X136944979Y-83701356D01*
X136960783Y-83683935D01*
X136970693Y-83663209D01*
X136976058Y-83632362D01*
X136978228Y-83584577D01*
X136978571Y-83531748D01*
X136977827Y-83465381D01*
X136974748Y-83421106D01*
X136968061Y-83392009D01*
X136956496Y-83371173D01*
X136947013Y-83360107D01*
X136902960Y-83332198D01*
X136852224Y-83328843D01*
X136803796Y-83350159D01*
X136794450Y-83358073D01*
X136778540Y-83375647D01*
X136768610Y-83396587D01*
X136763278Y-83427782D01*
X136761163Y-83476122D01*
X136760857Y-83525647D01*
X136659458Y-83525647D01*
X136662810Y-83438568D01*
X136674726Y-83370086D01*
X136697135Y-83318600D01*
X136732124Y-83278443D01*
X136759375Y-83257861D01*
X136808907Y-83235625D01*
X136866316Y-83225304D01*
X136919682Y-83228067D01*
X136949543Y-83239212D01*
X136961261Y-83242383D01*
X136969037Y-83230557D01*
X136974465Y-83198866D01*
X136978571Y-83150593D01*
X136983067Y-83096829D01*
X136989313Y-83064482D01*
X137000676Y-83045985D01*
X137020528Y-83033770D01*
X137033000Y-83028362D01*
X137080171Y-83008601D01*
X137080117Y-83345358D01*
G37*
X137080117Y-83345358D02*
X137079933Y-83453837D01*
X137079219Y-83537287D01*
X137077675Y-83599704D01*
X137075001Y-83645085D01*
X137070894Y-83677429D01*
X137065055Y-83700733D01*
X137057182Y-83718995D01*
X137051221Y-83729418D01*
X137001855Y-83785945D01*
X136939264Y-83821377D01*
X136870013Y-83834090D01*
X136800668Y-83822463D01*
X136759375Y-83801568D01*
X136716025Y-83765422D01*
X136686481Y-83721276D01*
X136668655Y-83663462D01*
X136660463Y-83586313D01*
X136659302Y-83529714D01*
X136659458Y-83525647D01*
X136760857Y-83525647D01*
X136761476Y-83590550D01*
X136764314Y-83633514D01*
X136770840Y-83661622D01*
X136782523Y-83681953D01*
X136796483Y-83697288D01*
X136843365Y-83726890D01*
X136893701Y-83729419D01*
X136941276Y-83704705D01*
X136944979Y-83701356D01*
X136960783Y-83683935D01*
X136970693Y-83663209D01*
X136976058Y-83632362D01*
X136978228Y-83584577D01*
X136978571Y-83531748D01*
X136977827Y-83465381D01*
X136974748Y-83421106D01*
X136968061Y-83392009D01*
X136956496Y-83371173D01*
X136947013Y-83360107D01*
X136902960Y-83332198D01*
X136852224Y-83328843D01*
X136803796Y-83350159D01*
X136794450Y-83358073D01*
X136778540Y-83375647D01*
X136768610Y-83396587D01*
X136763278Y-83427782D01*
X136761163Y-83476122D01*
X136760857Y-83525647D01*
X136659458Y-83525647D01*
X136662810Y-83438568D01*
X136674726Y-83370086D01*
X136697135Y-83318600D01*
X136732124Y-83278443D01*
X136759375Y-83257861D01*
X136808907Y-83235625D01*
X136866316Y-83225304D01*
X136919682Y-83228067D01*
X136949543Y-83239212D01*
X136961261Y-83242383D01*
X136969037Y-83230557D01*
X136974465Y-83198866D01*
X136978571Y-83150593D01*
X136983067Y-83096829D01*
X136989313Y-83064482D01*
X137000676Y-83045985D01*
X137020528Y-83033770D01*
X137033000Y-83028362D01*
X137080171Y-83008601D01*
X137080117Y-83345358D01*
G36*
X136419926Y-83229755D02*
G01*
X136485858Y-83254084D01*
X136539273Y-83297117D01*
X136560164Y-83327409D01*
X136582939Y-83382994D01*
X136582466Y-83423186D01*
X136558562Y-83450217D01*
X136549717Y-83454813D01*
X136511530Y-83469144D01*
X136492028Y-83465472D01*
X136485422Y-83441407D01*
X136485086Y-83428114D01*
X136472992Y-83379210D01*
X136441471Y-83344999D01*
X136397659Y-83328476D01*
X136348695Y-83332634D01*
X136308894Y-83354227D01*
X136295450Y-83366544D01*
X136285921Y-83381487D01*
X136279485Y-83404075D01*
X136275317Y-83439328D01*
X136272597Y-83492266D01*
X136270502Y-83567907D01*
X136269960Y-83591857D01*
X136267981Y-83673790D01*
X136265731Y-83731455D01*
X136262357Y-83769608D01*
X136257006Y-83793004D01*
X136248824Y-83806398D01*
X136236959Y-83814545D01*
X136229362Y-83818144D01*
X136197102Y-83830452D01*
X136178111Y-83834514D01*
X136171836Y-83820948D01*
X136168006Y-83779934D01*
X136166600Y-83710999D01*
X136167598Y-83613669D01*
X136167908Y-83598657D01*
X136170101Y-83509859D01*
X136172693Y-83445019D01*
X136176382Y-83399067D01*
X136181864Y-83366935D01*
X136189835Y-83343553D01*
X136200993Y-83323852D01*
X136206830Y-83315410D01*
X136240296Y-83278057D01*
X136277727Y-83249003D01*
X136282309Y-83246467D01*
X136349426Y-83226443D01*
X136419926Y-83229755D01*
G37*
X136419926Y-83229755D02*
X136485858Y-83254084D01*
X136539273Y-83297117D01*
X136560164Y-83327409D01*
X136582939Y-83382994D01*
X136582466Y-83423186D01*
X136558562Y-83450217D01*
X136549717Y-83454813D01*
X136511530Y-83469144D01*
X136492028Y-83465472D01*
X136485422Y-83441407D01*
X136485086Y-83428114D01*
X136472992Y-83379210D01*
X136441471Y-83344999D01*
X136397659Y-83328476D01*
X136348695Y-83332634D01*
X136308894Y-83354227D01*
X136295450Y-83366544D01*
X136285921Y-83381487D01*
X136279485Y-83404075D01*
X136275317Y-83439328D01*
X136272597Y-83492266D01*
X136270502Y-83567907D01*
X136269960Y-83591857D01*
X136267981Y-83673790D01*
X136265731Y-83731455D01*
X136262357Y-83769608D01*
X136257006Y-83793004D01*
X136248824Y-83806398D01*
X136236959Y-83814545D01*
X136229362Y-83818144D01*
X136197102Y-83830452D01*
X136178111Y-83834514D01*
X136171836Y-83820948D01*
X136168006Y-83779934D01*
X136166600Y-83710999D01*
X136167598Y-83613669D01*
X136167908Y-83598657D01*
X136170101Y-83509859D01*
X136172693Y-83445019D01*
X136176382Y-83399067D01*
X136181864Y-83366935D01*
X136189835Y-83343553D01*
X136200993Y-83323852D01*
X136206830Y-83315410D01*
X136240296Y-83278057D01*
X136277727Y-83249003D01*
X136282309Y-83246467D01*
X136349426Y-83226443D01*
X136419926Y-83229755D01*
G36*
X135929744Y-83230968D02*
G01*
X135986616Y-83252087D01*
X135987267Y-83252493D01*
X136022440Y-83278380D01*
X136048407Y-83308633D01*
X136066670Y-83348058D01*
X136078732Y-83401462D01*
X136086096Y-83473651D01*
X136090264Y-83569432D01*
X136090629Y-83583078D01*
X136095876Y-83788842D01*
X136051716Y-83811678D01*
X136019763Y-83827110D01*
X136000470Y-83834423D01*
X135999578Y-83834514D01*
X135996239Y-83821022D01*
X135993587Y-83784626D01*
X135991956Y-83731452D01*
X135991600Y-83688393D01*
X135991592Y-83618641D01*
X135988403Y-83574837D01*
X135977288Y-83553944D01*
X135953501Y-83552925D01*
X135912296Y-83568741D01*
X135850086Y-83597815D01*
X135804341Y-83621963D01*
X135780813Y-83642913D01*
X135773896Y-83665747D01*
X135773886Y-83666877D01*
X135785299Y-83706212D01*
X135819092Y-83727462D01*
X135870809Y-83730539D01*
X135908061Y-83730006D01*
X135927703Y-83740735D01*
X135939952Y-83766505D01*
X135947002Y-83799337D01*
X135936842Y-83817966D01*
X135933017Y-83820632D01*
X135897001Y-83831340D01*
X135846566Y-83832856D01*
X135794626Y-83825759D01*
X135757822Y-83812788D01*
X135706938Y-83769585D01*
X135678014Y-83709446D01*
X135672286Y-83662462D01*
X135676657Y-83620082D01*
X135692475Y-83585488D01*
X135723797Y-83554763D01*
X135774678Y-83523990D01*
X135849176Y-83489252D01*
X135853714Y-83487288D01*
X135920821Y-83456287D01*
X135962232Y-83430862D01*
X135979981Y-83408014D01*
X135976107Y-83384745D01*
X135952643Y-83358056D01*
X135945627Y-83351914D01*
X135898630Y-83328100D01*
X135849933Y-83329103D01*
X135807522Y-83352451D01*
X135779384Y-83395675D01*
X135776769Y-83404160D01*
X135751308Y-83445308D01*
X135719001Y-83465128D01*
X135672286Y-83484770D01*
X135672286Y-83433950D01*
X135686496Y-83360082D01*
X135728675Y-83292327D01*
X135750624Y-83269661D01*
X135800517Y-83240569D01*
X135863967Y-83227400D01*
X135929744Y-83230968D01*
G37*
X135929744Y-83230968D02*
X135986616Y-83252087D01*
X135987267Y-83252493D01*
X136022440Y-83278380D01*
X136048407Y-83308633D01*
X136066670Y-83348058D01*
X136078732Y-83401462D01*
X136086096Y-83473651D01*
X136090264Y-83569432D01*
X136090629Y-83583078D01*
X136095876Y-83788842D01*
X136051716Y-83811678D01*
X136019763Y-83827110D01*
X136000470Y-83834423D01*
X135999578Y-83834514D01*
X135996239Y-83821022D01*
X135993587Y-83784626D01*
X135991956Y-83731452D01*
X135991600Y-83688393D01*
X135991592Y-83618641D01*
X135988403Y-83574837D01*
X135977288Y-83553944D01*
X135953501Y-83552925D01*
X135912296Y-83568741D01*
X135850086Y-83597815D01*
X135804341Y-83621963D01*
X135780813Y-83642913D01*
X135773896Y-83665747D01*
X135773886Y-83666877D01*
X135785299Y-83706212D01*
X135819092Y-83727462D01*
X135870809Y-83730539D01*
X135908061Y-83730006D01*
X135927703Y-83740735D01*
X135939952Y-83766505D01*
X135947002Y-83799337D01*
X135936842Y-83817966D01*
X135933017Y-83820632D01*
X135897001Y-83831340D01*
X135846566Y-83832856D01*
X135794626Y-83825759D01*
X135757822Y-83812788D01*
X135706938Y-83769585D01*
X135678014Y-83709446D01*
X135672286Y-83662462D01*
X135676657Y-83620082D01*
X135692475Y-83585488D01*
X135723797Y-83554763D01*
X135774678Y-83523990D01*
X135849176Y-83489252D01*
X135853714Y-83487288D01*
X135920821Y-83456287D01*
X135962232Y-83430862D01*
X135979981Y-83408014D01*
X135976107Y-83384745D01*
X135952643Y-83358056D01*
X135945627Y-83351914D01*
X135898630Y-83328100D01*
X135849933Y-83329103D01*
X135807522Y-83352451D01*
X135779384Y-83395675D01*
X135776769Y-83404160D01*
X135751308Y-83445308D01*
X135719001Y-83465128D01*
X135672286Y-83484770D01*
X135672286Y-83433950D01*
X135686496Y-83360082D01*
X135728675Y-83292327D01*
X135750624Y-83269661D01*
X135800517Y-83240569D01*
X135863967Y-83227400D01*
X135929744Y-83230968D01*
G36*
X135265886Y-83131289D02*
G01*
X135270139Y-83190613D01*
X135275025Y-83225572D01*
X135281795Y-83240820D01*
X135291702Y-83241015D01*
X135294914Y-83239195D01*
X135337644Y-83226015D01*
X135393227Y-83226785D01*
X135449737Y-83240333D01*
X135485082Y-83257861D01*
X135521321Y-83285861D01*
X135547813Y-83317549D01*
X135565999Y-83357813D01*
X135577322Y-83411543D01*
X135583222Y-83483626D01*
X135585143Y-83578951D01*
X135585177Y-83597237D01*
X135585200Y-83802646D01*
X135539491Y-83818580D01*
X135507027Y-83829420D01*
X135489215Y-83834468D01*
X135488691Y-83834514D01*
X135486937Y-83820828D01*
X135485444Y-83783076D01*
X135484326Y-83726224D01*
X135483697Y-83655234D01*
X135483600Y-83612073D01*
X135483398Y-83526973D01*
X135482358Y-83465981D01*
X135479831Y-83424177D01*
X135475164Y-83396642D01*
X135467707Y-83378456D01*
X135456811Y-83364698D01*
X135450007Y-83358073D01*
X135403272Y-83331375D01*
X135352272Y-83329375D01*
X135306001Y-83351955D01*
X135297444Y-83360107D01*
X135284893Y-83375436D01*
X135276188Y-83393618D01*
X135270631Y-83419909D01*
X135267526Y-83459562D01*
X135266176Y-83517832D01*
X135265886Y-83598173D01*
X135265886Y-83802646D01*
X135220177Y-83818580D01*
X135187713Y-83829420D01*
X135169901Y-83834468D01*
X135169377Y-83834514D01*
X135168037Y-83820623D01*
X135166828Y-83781439D01*
X135165801Y-83720700D01*
X135165002Y-83642141D01*
X135164481Y-83549498D01*
X135164286Y-83446509D01*
X135164286Y-83049342D01*
X135211457Y-83029444D01*
X135258629Y-83009547D01*
X135265886Y-83131289D01*
G37*
X135265886Y-83131289D02*
X135270139Y-83190613D01*
X135275025Y-83225572D01*
X135281795Y-83240820D01*
X135291702Y-83241015D01*
X135294914Y-83239195D01*
X135337644Y-83226015D01*
X135393227Y-83226785D01*
X135449737Y-83240333D01*
X135485082Y-83257861D01*
X135521321Y-83285861D01*
X135547813Y-83317549D01*
X135565999Y-83357813D01*
X135577322Y-83411543D01*
X135583222Y-83483626D01*
X135585143Y-83578951D01*
X135585177Y-83597237D01*
X135585200Y-83802646D01*
X135539491Y-83818580D01*
X135507027Y-83829420D01*
X135489215Y-83834468D01*
X135488691Y-83834514D01*
X135486937Y-83820828D01*
X135485444Y-83783076D01*
X135484326Y-83726224D01*
X135483697Y-83655234D01*
X135483600Y-83612073D01*
X135483398Y-83526973D01*
X135482358Y-83465981D01*
X135479831Y-83424177D01*
X135475164Y-83396642D01*
X135467707Y-83378456D01*
X135456811Y-83364698D01*
X135450007Y-83358073D01*
X135403272Y-83331375D01*
X135352272Y-83329375D01*
X135306001Y-83351955D01*
X135297444Y-83360107D01*
X135284893Y-83375436D01*
X135276188Y-83393618D01*
X135270631Y-83419909D01*
X135267526Y-83459562D01*
X135266176Y-83517832D01*
X135265886Y-83598173D01*
X135265886Y-83802646D01*
X135220177Y-83818580D01*
X135187713Y-83829420D01*
X135169901Y-83834468D01*
X135169377Y-83834514D01*
X135168037Y-83820623D01*
X135166828Y-83781439D01*
X135165801Y-83720700D01*
X135165002Y-83642141D01*
X135164481Y-83549498D01*
X135164286Y-83446509D01*
X135164286Y-83049342D01*
X135211457Y-83029444D01*
X135258629Y-83009547D01*
X135265886Y-83131289D01*
G36*
X134058303Y-83211239D02*
G01*
X134115527Y-83249735D01*
X134159749Y-83305335D01*
X134186167Y-83376086D01*
X134191510Y-83428162D01*
X134190903Y-83449893D01*
X134185822Y-83466531D01*
X134171855Y-83481437D01*
X134144589Y-83497973D01*
X134099612Y-83519498D01*
X134032511Y-83549374D01*
X134032171Y-83549524D01*
X133970407Y-83577813D01*
X133919759Y-83602933D01*
X133885404Y-83622179D01*
X133872518Y-83632848D01*
X133872514Y-83632934D01*
X133883872Y-83656166D01*
X133910431Y-83681774D01*
X133940923Y-83700221D01*
X133956370Y-83703886D01*
X133998515Y-83691212D01*
X134034808Y-83659471D01*
X134052517Y-83624572D01*
X134069552Y-83598845D01*
X134102922Y-83569546D01*
X134142149Y-83544235D01*
X134176756Y-83530471D01*
X134183993Y-83529714D01*
X134192139Y-83542160D01*
X134192630Y-83573972D01*
X134186643Y-83616866D01*
X134175357Y-83662558D01*
X134159950Y-83702761D01*
X134159171Y-83704322D01*
X134112804Y-83769062D01*
X134052711Y-83813097D01*
X133984465Y-83834711D01*
X133913638Y-83832185D01*
X133845804Y-83803804D01*
X133842788Y-83801808D01*
X133789427Y-83753448D01*
X133754340Y-83690352D01*
X133734922Y-83607387D01*
X133732316Y-83584078D01*
X133727701Y-83474055D01*
X133733233Y-83422748D01*
X133872514Y-83422748D01*
X133874324Y-83454753D01*
X133884222Y-83464093D01*
X133908898Y-83457105D01*
X133947795Y-83440587D01*
X133991275Y-83419881D01*
X133992356Y-83419333D01*
X134029209Y-83399949D01*
X134044000Y-83387013D01*
X134040353Y-83373451D01*
X134024995Y-83355632D01*
X133985923Y-83329845D01*
X133943846Y-83327950D01*
X133906103Y-83346717D01*
X133880034Y-83382915D01*
X133872514Y-83422748D01*
X133733233Y-83422748D01*
X133737194Y-83386027D01*
X133761550Y-83316212D01*
X133795456Y-83267302D01*
X133856653Y-83217878D01*
X133924063Y-83193359D01*
X133992880Y-83191797D01*
X134058303Y-83211239D01*
G37*
X134058303Y-83211239D02*
X134115527Y-83249735D01*
X134159749Y-83305335D01*
X134186167Y-83376086D01*
X134191510Y-83428162D01*
X134190903Y-83449893D01*
X134185822Y-83466531D01*
X134171855Y-83481437D01*
X134144589Y-83497973D01*
X134099612Y-83519498D01*
X134032511Y-83549374D01*
X134032171Y-83549524D01*
X133970407Y-83577813D01*
X133919759Y-83602933D01*
X133885404Y-83622179D01*
X133872518Y-83632848D01*
X133872514Y-83632934D01*
X133883872Y-83656166D01*
X133910431Y-83681774D01*
X133940923Y-83700221D01*
X133956370Y-83703886D01*
X133998515Y-83691212D01*
X134034808Y-83659471D01*
X134052517Y-83624572D01*
X134069552Y-83598845D01*
X134102922Y-83569546D01*
X134142149Y-83544235D01*
X134176756Y-83530471D01*
X134183993Y-83529714D01*
X134192139Y-83542160D01*
X134192630Y-83573972D01*
X134186643Y-83616866D01*
X134175357Y-83662558D01*
X134159950Y-83702761D01*
X134159171Y-83704322D01*
X134112804Y-83769062D01*
X134052711Y-83813097D01*
X133984465Y-83834711D01*
X133913638Y-83832185D01*
X133845804Y-83803804D01*
X133842788Y-83801808D01*
X133789427Y-83753448D01*
X133754340Y-83690352D01*
X133734922Y-83607387D01*
X133732316Y-83584078D01*
X133727701Y-83474055D01*
X133733233Y-83422748D01*
X133872514Y-83422748D01*
X133874324Y-83454753D01*
X133884222Y-83464093D01*
X133908898Y-83457105D01*
X133947795Y-83440587D01*
X133991275Y-83419881D01*
X133992356Y-83419333D01*
X134029209Y-83399949D01*
X134044000Y-83387013D01*
X134040353Y-83373451D01*
X134024995Y-83355632D01*
X133985923Y-83329845D01*
X133943846Y-83327950D01*
X133906103Y-83346717D01*
X133880034Y-83382915D01*
X133872514Y-83422748D01*
X133733233Y-83422748D01*
X133737194Y-83386027D01*
X133761550Y-83316212D01*
X133795456Y-83267302D01*
X133856653Y-83217878D01*
X133924063Y-83193359D01*
X133992880Y-83191797D01*
X134058303Y-83211239D01*
G36*
X132931115Y-83201962D02*
G01*
X132999145Y-83237733D01*
X133049351Y-83295301D01*
X133067185Y-83332312D01*
X133081063Y-83387882D01*
X133088167Y-83458096D01*
X133088840Y-83534727D01*
X133083427Y-83609552D01*
X133072270Y-83674342D01*
X133055714Y-83720873D01*
X133050626Y-83728887D01*
X132990355Y-83788707D01*
X132918769Y-83824535D01*
X132841092Y-83835020D01*
X132762548Y-83818810D01*
X132740689Y-83809092D01*
X132698122Y-83779143D01*
X132660763Y-83739433D01*
X132657232Y-83734397D01*
X132642881Y-83710124D01*
X132633394Y-83684178D01*
X132627790Y-83650022D01*
X132625086Y-83601119D01*
X132624299Y-83530935D01*
X132624286Y-83515200D01*
X132624322Y-83510192D01*
X132769429Y-83510192D01*
X132770273Y-83576430D01*
X132773596Y-83620386D01*
X132780583Y-83648779D01*
X132792416Y-83668325D01*
X132798457Y-83674857D01*
X132833186Y-83699680D01*
X132866903Y-83698548D01*
X132900995Y-83677016D01*
X132921329Y-83654029D01*
X132933371Y-83620478D01*
X132940134Y-83567569D01*
X132940598Y-83561399D01*
X132941752Y-83465513D01*
X132929688Y-83394299D01*
X132904570Y-83348194D01*
X132866560Y-83327635D01*
X132852992Y-83326514D01*
X132817364Y-83332152D01*
X132792994Y-83351686D01*
X132778093Y-83389042D01*
X132770875Y-83448150D01*
X132769429Y-83510192D01*
X132624322Y-83510192D01*
X132624826Y-83440413D01*
X132627096Y-83388159D01*
X132632068Y-83351949D01*
X132640713Y-83325299D01*
X132654005Y-83301722D01*
X132656943Y-83297338D01*
X132706313Y-83238249D01*
X132760109Y-83203947D01*
X132825602Y-83190331D01*
X132847842Y-83189665D01*
X132931115Y-83201962D01*
G37*
X132931115Y-83201962D02*
X132999145Y-83237733D01*
X133049351Y-83295301D01*
X133067185Y-83332312D01*
X133081063Y-83387882D01*
X133088167Y-83458096D01*
X133088840Y-83534727D01*
X133083427Y-83609552D01*
X133072270Y-83674342D01*
X133055714Y-83720873D01*
X133050626Y-83728887D01*
X132990355Y-83788707D01*
X132918769Y-83824535D01*
X132841092Y-83835020D01*
X132762548Y-83818810D01*
X132740689Y-83809092D01*
X132698122Y-83779143D01*
X132660763Y-83739433D01*
X132657232Y-83734397D01*
X132642881Y-83710124D01*
X132633394Y-83684178D01*
X132627790Y-83650022D01*
X132625086Y-83601119D01*
X132624299Y-83530935D01*
X132624286Y-83515200D01*
X132624322Y-83510192D01*
X132769429Y-83510192D01*
X132770273Y-83576430D01*
X132773596Y-83620386D01*
X132780583Y-83648779D01*
X132792416Y-83668325D01*
X132798457Y-83674857D01*
X132833186Y-83699680D01*
X132866903Y-83698548D01*
X132900995Y-83677016D01*
X132921329Y-83654029D01*
X132933371Y-83620478D01*
X132940134Y-83567569D01*
X132940598Y-83561399D01*
X132941752Y-83465513D01*
X132929688Y-83394299D01*
X132904570Y-83348194D01*
X132866560Y-83327635D01*
X132852992Y-83326514D01*
X132817364Y-83332152D01*
X132792994Y-83351686D01*
X132778093Y-83389042D01*
X132770875Y-83448150D01*
X132769429Y-83510192D01*
X132624322Y-83510192D01*
X132624826Y-83440413D01*
X132627096Y-83388159D01*
X132632068Y-83351949D01*
X132640713Y-83325299D01*
X132654005Y-83301722D01*
X132656943Y-83297338D01*
X132706313Y-83238249D01*
X132760109Y-83203947D01*
X132825602Y-83190331D01*
X132847842Y-83189665D01*
X132931115Y-83201962D01*
G36*
X134606093Y-83207780D02*
G01*
X134652672Y-83234723D01*
X134685057Y-83261466D01*
X134708742Y-83289484D01*
X134725059Y-83323748D01*
X134735339Y-83369227D01*
X134740914Y-83430892D01*
X134743116Y-83513711D01*
X134743371Y-83573246D01*
X134743371Y-83792391D01*
X134681686Y-83820044D01*
X134620000Y-83847697D01*
X134612743Y-83607670D01*
X134609744Y-83518028D01*
X134606598Y-83452962D01*
X134602701Y-83408026D01*
X134597447Y-83378770D01*
X134590231Y-83360748D01*
X134580450Y-83349511D01*
X134577312Y-83347079D01*
X134529761Y-83328083D01*
X134481697Y-83335600D01*
X134453086Y-83355543D01*
X134441447Y-83369675D01*
X134433391Y-83388220D01*
X134428271Y-83416334D01*
X134425441Y-83459173D01*
X134424256Y-83521895D01*
X134424057Y-83587261D01*
X134424018Y-83669268D01*
X134422614Y-83727316D01*
X134417914Y-83766465D01*
X134407987Y-83791780D01*
X134390903Y-83808323D01*
X134364732Y-83821156D01*
X134329775Y-83834491D01*
X134291596Y-83849007D01*
X134296141Y-83591389D01*
X134297971Y-83498519D01*
X134300112Y-83429889D01*
X134303181Y-83380711D01*
X134307794Y-83346198D01*
X134314568Y-83321562D01*
X134324119Y-83302016D01*
X134335634Y-83284770D01*
X134391190Y-83229680D01*
X134458980Y-83197822D01*
X134532713Y-83190191D01*
X134606093Y-83207780D01*
G37*
X134606093Y-83207780D02*
X134652672Y-83234723D01*
X134685057Y-83261466D01*
X134708742Y-83289484D01*
X134725059Y-83323748D01*
X134735339Y-83369227D01*
X134740914Y-83430892D01*
X134743116Y-83513711D01*
X134743371Y-83573246D01*
X134743371Y-83792391D01*
X134681686Y-83820044D01*
X134620000Y-83847697D01*
X134612743Y-83607670D01*
X134609744Y-83518028D01*
X134606598Y-83452962D01*
X134602701Y-83408026D01*
X134597447Y-83378770D01*
X134590231Y-83360748D01*
X134580450Y-83349511D01*
X134577312Y-83347079D01*
X134529761Y-83328083D01*
X134481697Y-83335600D01*
X134453086Y-83355543D01*
X134441447Y-83369675D01*
X134433391Y-83388220D01*
X134428271Y-83416334D01*
X134425441Y-83459173D01*
X134424256Y-83521895D01*
X134424057Y-83587261D01*
X134424018Y-83669268D01*
X134422614Y-83727316D01*
X134417914Y-83766465D01*
X134407987Y-83791780D01*
X134390903Y-83808323D01*
X134364732Y-83821156D01*
X134329775Y-83834491D01*
X134291596Y-83849007D01*
X134296141Y-83591389D01*
X134297971Y-83498519D01*
X134300112Y-83429889D01*
X134303181Y-83380711D01*
X134307794Y-83346198D01*
X134314568Y-83321562D01*
X134324119Y-83302016D01*
X134335634Y-83284770D01*
X134391190Y-83229680D01*
X134458980Y-83197822D01*
X134532713Y-83190191D01*
X134606093Y-83207780D01*
G36*
X133489744Y-83199918D02*
G01*
X133545201Y-83227568D01*
X133594148Y-83278480D01*
X133607629Y-83297338D01*
X133622314Y-83322015D01*
X133631842Y-83348816D01*
X133637293Y-83384587D01*
X133639747Y-83436169D01*
X133640286Y-83504267D01*
X133637852Y-83597588D01*
X133629394Y-83667657D01*
X133613174Y-83719931D01*
X133587454Y-83759869D01*
X133550497Y-83792929D01*
X133547782Y-83794886D01*
X133511360Y-83814908D01*
X133467502Y-83824815D01*
X133411724Y-83827257D01*
X133321048Y-83827257D01*
X133321010Y-83915283D01*
X133320166Y-83964308D01*
X133315024Y-83993065D01*
X133301587Y-84010311D01*
X133275858Y-84024808D01*
X133269679Y-84027769D01*
X133240764Y-84041648D01*
X133218376Y-84050414D01*
X133201729Y-84051171D01*
X133190036Y-84041023D01*
X133182510Y-84017073D01*
X133178366Y-83976426D01*
X133176815Y-83916186D01*
X133177071Y-83833455D01*
X133178349Y-83725339D01*
X133178748Y-83693000D01*
X133180185Y-83581524D01*
X133181472Y-83508603D01*
X133320971Y-83508603D01*
X133321755Y-83570499D01*
X133325240Y-83610997D01*
X133333124Y-83637708D01*
X133347105Y-83658244D01*
X133356597Y-83668260D01*
X133395404Y-83697567D01*
X133429763Y-83699952D01*
X133465216Y-83675750D01*
X133466114Y-83674857D01*
X133480539Y-83656153D01*
X133489313Y-83630732D01*
X133493739Y-83591584D01*
X133495118Y-83531697D01*
X133495143Y-83518430D01*
X133491812Y-83435901D01*
X133480969Y-83378691D01*
X133461340Y-83343766D01*
X133431650Y-83328094D01*
X133414491Y-83326514D01*
X133373766Y-83333926D01*
X133345832Y-83358330D01*
X133329017Y-83402980D01*
X133321650Y-83471130D01*
X133320971Y-83508603D01*
X133181472Y-83508603D01*
X133181708Y-83495245D01*
X133183677Y-83430333D01*
X133186450Y-83382958D01*
X133190388Y-83349290D01*
X133195849Y-83325498D01*
X133203192Y-83307753D01*
X133212777Y-83292224D01*
X133216887Y-83286381D01*
X133271405Y-83231185D01*
X133340336Y-83199890D01*
X133420072Y-83191165D01*
X133489744Y-83199918D01*
G37*
X133489744Y-83199918D02*
X133545201Y-83227568D01*
X133594148Y-83278480D01*
X133607629Y-83297338D01*
X133622314Y-83322015D01*
X133631842Y-83348816D01*
X133637293Y-83384587D01*
X133639747Y-83436169D01*
X133640286Y-83504267D01*
X133637852Y-83597588D01*
X133629394Y-83667657D01*
X133613174Y-83719931D01*
X133587454Y-83759869D01*
X133550497Y-83792929D01*
X133547782Y-83794886D01*
X133511360Y-83814908D01*
X133467502Y-83824815D01*
X133411724Y-83827257D01*
X133321048Y-83827257D01*
X133321010Y-83915283D01*
X133320166Y-83964308D01*
X133315024Y-83993065D01*
X133301587Y-84010311D01*
X133275858Y-84024808D01*
X133269679Y-84027769D01*
X133240764Y-84041648D01*
X133218376Y-84050414D01*
X133201729Y-84051171D01*
X133190036Y-84041023D01*
X133182510Y-84017073D01*
X133178366Y-83976426D01*
X133176815Y-83916186D01*
X133177071Y-83833455D01*
X133178349Y-83725339D01*
X133178748Y-83693000D01*
X133180185Y-83581524D01*
X133181472Y-83508603D01*
X133320971Y-83508603D01*
X133321755Y-83570499D01*
X133325240Y-83610997D01*
X133333124Y-83637708D01*
X133347105Y-83658244D01*
X133356597Y-83668260D01*
X133395404Y-83697567D01*
X133429763Y-83699952D01*
X133465216Y-83675750D01*
X133466114Y-83674857D01*
X133480539Y-83656153D01*
X133489313Y-83630732D01*
X133493739Y-83591584D01*
X133495118Y-83531697D01*
X133495143Y-83518430D01*
X133491812Y-83435901D01*
X133480969Y-83378691D01*
X133461340Y-83343766D01*
X133431650Y-83328094D01*
X133414491Y-83326514D01*
X133373766Y-83333926D01*
X133345832Y-83358330D01*
X133329017Y-83402980D01*
X133321650Y-83471130D01*
X133320971Y-83508603D01*
X133181472Y-83508603D01*
X133181708Y-83495245D01*
X133183677Y-83430333D01*
X133186450Y-83382958D01*
X133190388Y-83349290D01*
X133195849Y-83325498D01*
X133203192Y-83307753D01*
X133212777Y-83292224D01*
X133216887Y-83286381D01*
X133271405Y-83231185D01*
X133340336Y-83199890D01*
X133420072Y-83191165D01*
X133489744Y-83199918D01*
G36*
X194125850Y-55211181D02*
G01*
X194171029Y-55214178D01*
X194207965Y-55222446D01*
X194233444Y-55235057D01*
X194242167Y-55244814D01*
X194250229Y-55273082D01*
X194249009Y-55304421D01*
X194239219Y-55331167D01*
X194233463Y-55338471D01*
X194222256Y-55351137D01*
X194221455Y-55361328D01*
X194230792Y-55376832D01*
X194232075Y-55378687D01*
X194248135Y-55402560D01*
X194254403Y-55415757D01*
X194250846Y-55421442D01*
X194237434Y-55422776D01*
X194231634Y-55422801D01*
X194211179Y-55420291D01*
X194198111Y-55409658D01*
X194188938Y-55393167D01*
X194176550Y-55372870D01*
X194161897Y-55364596D01*
X194149270Y-55363534D01*
X194132115Y-55365172D01*
X194125078Y-55373512D01*
X194123733Y-55393167D01*
X194122152Y-55413207D01*
X194115035Y-55421411D01*
X194102566Y-55422801D01*
X194081400Y-55422801D01*
X194081400Y-55322174D01*
X194123733Y-55322174D01*
X194158854Y-55319571D01*
X194187493Y-55313615D01*
X194203261Y-55302151D01*
X194208155Y-55282715D01*
X194197961Y-55267149D01*
X194174401Y-55257277D01*
X194158854Y-55255097D01*
X194123733Y-55252494D01*
X194123733Y-55322174D01*
X194081400Y-55322174D01*
X194081400Y-55211134D01*
X194125850Y-55211181D01*
G37*
X194125850Y-55211181D02*
X194171029Y-55214178D01*
X194207965Y-55222446D01*
X194233444Y-55235057D01*
X194242167Y-55244814D01*
X194250229Y-55273082D01*
X194249009Y-55304421D01*
X194239219Y-55331167D01*
X194233463Y-55338471D01*
X194222256Y-55351137D01*
X194221455Y-55361328D01*
X194230792Y-55376832D01*
X194232075Y-55378687D01*
X194248135Y-55402560D01*
X194254403Y-55415757D01*
X194250846Y-55421442D01*
X194237434Y-55422776D01*
X194231634Y-55422801D01*
X194211179Y-55420291D01*
X194198111Y-55409658D01*
X194188938Y-55393167D01*
X194176550Y-55372870D01*
X194161897Y-55364596D01*
X194149270Y-55363534D01*
X194132115Y-55365172D01*
X194125078Y-55373512D01*
X194123733Y-55393167D01*
X194122152Y-55413207D01*
X194115035Y-55421411D01*
X194102566Y-55422801D01*
X194081400Y-55422801D01*
X194081400Y-55322174D01*
X194123733Y-55322174D01*
X194158854Y-55319571D01*
X194187493Y-55313615D01*
X194203261Y-55302151D01*
X194208155Y-55282715D01*
X194197961Y-55267149D01*
X194174401Y-55257277D01*
X194158854Y-55255097D01*
X194123733Y-55252494D01*
X194123733Y-55322174D01*
X194081400Y-55322174D01*
X194081400Y-55211134D01*
X194125850Y-55211181D01*
G36*
X188505489Y-54116031D02*
G01*
X188559283Y-54133724D01*
X188608071Y-54165050D01*
X188620819Y-54175952D01*
X188664423Y-54224066D01*
X188695245Y-54279290D01*
X188713868Y-54343315D01*
X188720876Y-54417834D01*
X188720000Y-54463748D01*
X188717223Y-54504275D01*
X188712782Y-54534440D01*
X188704993Y-54560813D01*
X188692172Y-54589966D01*
X188682918Y-54608484D01*
X188646611Y-54666147D01*
X188603257Y-54709029D01*
X188551124Y-54738277D01*
X188488483Y-54755039D01*
X188456032Y-54758843D01*
X188421053Y-54758589D01*
X188385013Y-54753878D01*
X188374268Y-54751316D01*
X188309546Y-54725185D01*
X188256376Y-54686799D01*
X188215023Y-54636522D01*
X188185750Y-54574720D01*
X188168820Y-54501757D01*
X188165083Y-54461513D01*
X188166377Y-54380066D01*
X188179742Y-54309544D01*
X188205691Y-54248498D01*
X188244734Y-54195481D01*
X188266648Y-54173914D01*
X188314579Y-54139401D01*
X188367593Y-54118747D01*
X188429210Y-54110681D01*
X188442600Y-54110467D01*
X188505489Y-54116031D01*
G37*
X188505489Y-54116031D02*
X188559283Y-54133724D01*
X188608071Y-54165050D01*
X188620819Y-54175952D01*
X188664423Y-54224066D01*
X188695245Y-54279290D01*
X188713868Y-54343315D01*
X188720876Y-54417834D01*
X188720000Y-54463748D01*
X188717223Y-54504275D01*
X188712782Y-54534440D01*
X188704993Y-54560813D01*
X188692172Y-54589966D01*
X188682918Y-54608484D01*
X188646611Y-54666147D01*
X188603257Y-54709029D01*
X188551124Y-54738277D01*
X188488483Y-54755039D01*
X188456032Y-54758843D01*
X188421053Y-54758589D01*
X188385013Y-54753878D01*
X188374268Y-54751316D01*
X188309546Y-54725185D01*
X188256376Y-54686799D01*
X188215023Y-54636522D01*
X188185750Y-54574720D01*
X188168820Y-54501757D01*
X188165083Y-54461513D01*
X188166377Y-54380066D01*
X188179742Y-54309544D01*
X188205691Y-54248498D01*
X188244734Y-54195481D01*
X188266648Y-54173914D01*
X188314579Y-54139401D01*
X188367593Y-54118747D01*
X188429210Y-54110681D01*
X188442600Y-54110467D01*
X188505489Y-54116031D01*
G36*
X194206054Y-55114732D02*
G01*
X194259899Y-55133145D01*
X194295738Y-55155483D01*
X194316068Y-55175488D01*
X194337417Y-55203307D01*
X194348794Y-55221681D01*
X194362877Y-55250347D01*
X194370339Y-55276455D01*
X194373049Y-55307951D01*
X194373219Y-55325434D01*
X194365444Y-55386272D01*
X194342805Y-55439169D01*
X194305786Y-55483334D01*
X194255216Y-55517801D01*
X194221569Y-55529740D01*
X194180292Y-55536832D01*
X194138370Y-55538487D01*
X194102790Y-55534113D01*
X194094100Y-55531425D01*
X194041958Y-55503609D01*
X194000186Y-55465036D01*
X193969888Y-55418391D01*
X193952171Y-55366360D01*
X193948546Y-55317154D01*
X193996556Y-55317154D01*
X194000892Y-55364632D01*
X194018446Y-55408418D01*
X194033061Y-55428544D01*
X194073487Y-55463243D01*
X194119857Y-55483822D01*
X194169117Y-55489496D01*
X194218214Y-55479481D01*
X194223373Y-55477430D01*
X194266590Y-55451365D01*
X194298872Y-55415709D01*
X194319472Y-55373557D01*
X194327645Y-55328007D01*
X194322646Y-55282152D01*
X194303728Y-55239088D01*
X194286178Y-55216708D01*
X194244436Y-55183632D01*
X194197877Y-55165516D01*
X194149345Y-55162218D01*
X194101684Y-55173598D01*
X194057737Y-55199513D01*
X194028005Y-55229551D01*
X194005555Y-55270591D01*
X193996556Y-55317154D01*
X193948546Y-55317154D01*
X193948139Y-55311630D01*
X193958897Y-55256887D01*
X193970186Y-55230315D01*
X194003725Y-55181624D01*
X194046837Y-55145086D01*
X194096767Y-55121336D01*
X194150758Y-55111007D01*
X194206054Y-55114732D01*
G37*
X194206054Y-55114732D02*
X194259899Y-55133145D01*
X194295738Y-55155483D01*
X194316068Y-55175488D01*
X194337417Y-55203307D01*
X194348794Y-55221681D01*
X194362877Y-55250347D01*
X194370339Y-55276455D01*
X194373049Y-55307951D01*
X194373219Y-55325434D01*
X194365444Y-55386272D01*
X194342805Y-55439169D01*
X194305786Y-55483334D01*
X194255216Y-55517801D01*
X194221569Y-55529740D01*
X194180292Y-55536832D01*
X194138370Y-55538487D01*
X194102790Y-55534113D01*
X194094100Y-55531425D01*
X194041958Y-55503609D01*
X194000186Y-55465036D01*
X193969888Y-55418391D01*
X193952171Y-55366360D01*
X193948546Y-55317154D01*
X193996556Y-55317154D01*
X194000892Y-55364632D01*
X194018446Y-55408418D01*
X194033061Y-55428544D01*
X194073487Y-55463243D01*
X194119857Y-55483822D01*
X194169117Y-55489496D01*
X194218214Y-55479481D01*
X194223373Y-55477430D01*
X194266590Y-55451365D01*
X194298872Y-55415709D01*
X194319472Y-55373557D01*
X194327645Y-55328007D01*
X194322646Y-55282152D01*
X194303728Y-55239088D01*
X194286178Y-55216708D01*
X194244436Y-55183632D01*
X194197877Y-55165516D01*
X194149345Y-55162218D01*
X194101684Y-55173598D01*
X194057737Y-55199513D01*
X194028005Y-55229551D01*
X194005555Y-55270591D01*
X193996556Y-55317154D01*
X193948546Y-55317154D01*
X193948139Y-55311630D01*
X193958897Y-55256887D01*
X193970186Y-55230315D01*
X194003725Y-55181624D01*
X194046837Y-55145086D01*
X194096767Y-55121336D01*
X194150758Y-55111007D01*
X194206054Y-55114732D01*
G36*
X190969435Y-53293436D02*
G01*
X191198151Y-53293446D01*
X191411097Y-53293468D01*
X191608853Y-53293503D01*
X191792000Y-53293557D01*
X191961121Y-53293633D01*
X192116795Y-53293734D01*
X192259605Y-53293863D01*
X192390132Y-53294025D01*
X192508956Y-53294224D01*
X192616660Y-53294461D01*
X192713823Y-53294742D01*
X192801029Y-53295069D01*
X192878857Y-53295446D01*
X192947889Y-53295878D01*
X193008706Y-53296366D01*
X193061890Y-53296916D01*
X193108022Y-53297529D01*
X193147683Y-53298211D01*
X193181454Y-53298964D01*
X193209917Y-53299793D01*
X193233652Y-53300700D01*
X193253241Y-53301689D01*
X193269266Y-53302764D01*
X193282307Y-53303928D01*
X193292945Y-53305186D01*
X193301763Y-53306539D01*
X193309341Y-53307993D01*
X193315166Y-53309292D01*
X193452745Y-53349631D01*
X193581376Y-53403897D01*
X193700404Y-53471587D01*
X193809170Y-53552198D01*
X193907017Y-53645227D01*
X193993288Y-53750169D01*
X194067324Y-53866522D01*
X194084172Y-53897968D01*
X194137083Y-54014623D01*
X194174805Y-54131529D01*
X194198158Y-54252108D01*
X194207967Y-54379783D01*
X194208400Y-54414884D01*
X194200802Y-54555600D01*
X194177908Y-54689117D01*
X194139567Y-54815812D01*
X194085629Y-54936060D01*
X194015942Y-55050236D01*
X193930357Y-55158715D01*
X193893791Y-55198358D01*
X193798096Y-55288401D01*
X193697066Y-55364162D01*
X193588657Y-55426777D01*
X193470825Y-55477383D01*
X193341525Y-55517116D01*
X193304151Y-55526181D01*
X193222033Y-55545066D01*
X191187917Y-55547602D01*
X189153800Y-55550137D01*
X189153800Y-53784501D01*
X189223175Y-53784501D01*
X189457304Y-54429938D01*
X189691433Y-55075376D01*
X189903665Y-55075521D01*
X190115896Y-55075667D01*
X190237263Y-54684084D01*
X190261557Y-54605934D01*
X190284457Y-54532718D01*
X190305456Y-54466026D01*
X190324046Y-54407450D01*
X190339720Y-54358583D01*
X190351968Y-54321016D01*
X190360284Y-54296340D01*
X190364160Y-54286149D01*
X190364249Y-54286022D01*
X190367757Y-54292563D01*
X190375678Y-54313796D01*
X190387518Y-54348206D01*
X190402781Y-54394280D01*
X190420975Y-54450502D01*
X190441603Y-54515359D01*
X190464172Y-54587335D01*
X190488188Y-54664917D01*
X190492085Y-54677596D01*
X190614300Y-55075647D01*
X191037736Y-55075667D01*
X191272635Y-54433439D01*
X191309063Y-54333774D01*
X191343763Y-54238711D01*
X191376299Y-54149448D01*
X191406237Y-54067182D01*
X191433144Y-53993111D01*
X191456583Y-53928431D01*
X191476123Y-53874342D01*
X191491327Y-53832041D01*
X191501761Y-53802724D01*
X191506992Y-53787590D01*
X191507533Y-53785739D01*
X191499450Y-53784223D01*
X191476732Y-53782868D01*
X191441680Y-53781736D01*
X191396591Y-53780887D01*
X191343764Y-53780383D01*
X191301703Y-53780267D01*
X191566800Y-53780267D01*
X191566800Y-55075667D01*
X191990133Y-55075667D01*
X191990133Y-53780267D01*
X192074800Y-53780267D01*
X192074800Y-55075667D01*
X192498133Y-55075667D01*
X192498133Y-54432200D01*
X192587057Y-54432200D01*
X192587877Y-54500015D01*
X192590903Y-54555196D01*
X192597019Y-54601989D01*
X192607108Y-54644643D01*
X192622055Y-54687404D01*
X192642744Y-54734521D01*
X192655507Y-54761016D01*
X192705238Y-54843503D01*
X192767819Y-54915162D01*
X192842440Y-54975172D01*
X192900644Y-55009419D01*
X192978521Y-55045166D01*
X193052703Y-55069589D01*
X193128773Y-55083963D01*
X193212315Y-55089562D01*
X193251666Y-55089593D01*
X193332100Y-55088367D01*
X193334388Y-54917961D01*
X193336677Y-54747555D01*
X193261831Y-54743976D01*
X193201317Y-54736778D01*
X193152618Y-54720664D01*
X193112342Y-54694164D01*
X193086990Y-54668226D01*
X193051043Y-54613914D01*
X193026090Y-54551596D01*
X193012035Y-54484333D01*
X193008787Y-54415187D01*
X193016251Y-54347217D01*
X193034336Y-54283485D01*
X193062946Y-54227053D01*
X193101822Y-54181133D01*
X193142955Y-54149530D01*
X193185134Y-54130061D01*
X193233835Y-54120715D01*
X193270888Y-54119120D01*
X193336677Y-54118934D01*
X193334388Y-53943251D01*
X193332100Y-53767567D01*
X193226266Y-53768927D01*
X193141995Y-53773220D01*
X193067978Y-53784622D01*
X192998564Y-53804442D01*
X192928099Y-53833985D01*
X192913000Y-53841366D01*
X192844955Y-53882934D01*
X192779701Y-53936936D01*
X192721430Y-53999240D01*
X192674333Y-54065714D01*
X192660968Y-54089780D01*
X192634329Y-54145231D01*
X192614680Y-54195783D01*
X192601075Y-54245817D01*
X192592567Y-54299716D01*
X192588211Y-54361863D01*
X192587057Y-54432200D01*
X192498133Y-54432200D01*
X192498133Y-53780267D01*
X192074800Y-53780267D01*
X191990133Y-53780267D01*
X191566800Y-53780267D01*
X191301703Y-53780267D01*
X191095873Y-53780267D01*
X190974584Y-54193017D01*
X190950679Y-54274203D01*
X190927953Y-54351066D01*
X190906901Y-54421954D01*
X190888018Y-54485217D01*
X190871799Y-54539203D01*
X190858738Y-54582262D01*
X190849330Y-54612742D01*
X190844070Y-54628992D01*
X190843508Y-54630521D01*
X190841631Y-54634754D01*
X190839608Y-54637187D01*
X190837138Y-54636867D01*
X190833919Y-54632843D01*
X190829651Y-54624162D01*
X190824032Y-54609872D01*
X190816760Y-54589021D01*
X190807535Y-54560657D01*
X190796056Y-54523826D01*
X190782020Y-54477579D01*
X190765127Y-54420961D01*
X190745076Y-54353020D01*
X190721565Y-54272806D01*
X190694293Y-54179364D01*
X190662959Y-54071744D01*
X190627261Y-53948993D01*
X190620053Y-53924201D01*
X190579440Y-53784501D01*
X190170916Y-53779969D01*
X190149812Y-53849968D01*
X190142969Y-53873041D01*
X190132061Y-53910298D01*
X190117693Y-53959649D01*
X190100472Y-54019001D01*
X190081004Y-54086264D01*
X190059896Y-54159346D01*
X190037755Y-54236156D01*
X190025192Y-54279800D01*
X190003518Y-54354863D01*
X189983140Y-54424904D01*
X189964558Y-54488243D01*
X189948270Y-54543202D01*
X189934777Y-54588104D01*
X189924577Y-54621270D01*
X189918172Y-54641022D01*
X189916202Y-54645980D01*
X189912844Y-54639337D01*
X189905222Y-54617906D01*
X189893792Y-54583159D01*
X189879015Y-54536568D01*
X189861350Y-54479607D01*
X189841256Y-54413748D01*
X189819192Y-54340464D01*
X189795618Y-54261226D01*
X189785051Y-54225419D01*
X189760872Y-54143472D01*
X189738006Y-54066344D01*
X189716921Y-53995579D01*
X189698081Y-53932722D01*
X189681951Y-53879318D01*
X189668997Y-53836910D01*
X189659683Y-53807044D01*
X189654477Y-53791265D01*
X189653646Y-53789240D01*
X189644611Y-53786071D01*
X189621532Y-53783783D01*
X189583746Y-53782355D01*
X189530588Y-53781764D01*
X189461394Y-53781991D01*
X189435546Y-53782235D01*
X189223175Y-53784501D01*
X189153800Y-53784501D01*
X189153800Y-53780267D01*
X188722000Y-53780267D01*
X188722000Y-53944789D01*
X188677550Y-53901457D01*
X188611475Y-53846782D01*
X188538241Y-53805689D01*
X188493400Y-53787910D01*
X188449779Y-53777203D01*
X188394827Y-53770357D01*
X188333718Y-53767445D01*
X188271624Y-53768537D01*
X188213718Y-53773705D01*
X188165174Y-53783020D01*
X188163933Y-53783360D01*
X188071732Y-53817318D01*
X187988647Y-53865362D01*
X187915482Y-53926826D01*
X187853040Y-54001044D01*
X187805342Y-54080834D01*
X187773506Y-54159295D01*
X187750394Y-54248123D01*
X187736721Y-54342767D01*
X187733202Y-54438674D01*
X187737870Y-54510594D01*
X187747053Y-54578659D01*
X187758462Y-54635608D01*
X187773726Y-54687245D01*
X187794469Y-54739375D01*
X187813152Y-54779334D01*
X187861007Y-54859674D01*
X187920568Y-54930302D01*
X187989723Y-54989074D01*
X188061600Y-55031599D01*
X188153912Y-55067153D01*
X188250995Y-55087280D01*
X188338864Y-55092601D01*
X188431648Y-55085193D01*
X188516656Y-55063108D01*
X188593349Y-55026552D01*
X188661183Y-54975731D01*
X188671857Y-54965628D01*
X188722000Y-54916563D01*
X188722000Y-55549801D01*
X188516683Y-55548377D01*
X188457335Y-55547849D01*
X188401829Y-55547137D01*
X188353002Y-55546295D01*
X188313690Y-55545375D01*
X188286728Y-55544432D01*
X188277500Y-55543863D01*
X188144311Y-55523556D01*
X188015571Y-55487910D01*
X187892564Y-55437879D01*
X187776573Y-55374419D01*
X187668882Y-55298483D01*
X187570773Y-55211027D01*
X187483530Y-55113006D01*
X187408437Y-55005374D01*
X187346777Y-54889085D01*
X187323825Y-54834367D01*
X187282304Y-54706461D01*
X187255530Y-54576828D01*
X187243880Y-54448006D01*
X187247691Y-54322958D01*
X187268803Y-54182392D01*
X187304751Y-54049946D01*
X187355673Y-53925331D01*
X187421708Y-53808259D01*
X187502997Y-53698439D01*
X187593955Y-53601064D01*
X187696995Y-53512420D01*
X187807323Y-53438473D01*
X187926217Y-53378519D01*
X188054954Y-53331855D01*
X188110080Y-53316603D01*
X188201300Y-53293434D01*
X190724367Y-53293434D01*
X190969435Y-53293436D01*
G37*
X190969435Y-53293436D02*
X191198151Y-53293446D01*
X191411097Y-53293468D01*
X191608853Y-53293503D01*
X191792000Y-53293557D01*
X191961121Y-53293633D01*
X192116795Y-53293734D01*
X192259605Y-53293863D01*
X192390132Y-53294025D01*
X192508956Y-53294224D01*
X192616660Y-53294461D01*
X192713823Y-53294742D01*
X192801029Y-53295069D01*
X192878857Y-53295446D01*
X192947889Y-53295878D01*
X193008706Y-53296366D01*
X193061890Y-53296916D01*
X193108022Y-53297529D01*
X193147683Y-53298211D01*
X193181454Y-53298964D01*
X193209917Y-53299793D01*
X193233652Y-53300700D01*
X193253241Y-53301689D01*
X193269266Y-53302764D01*
X193282307Y-53303928D01*
X193292945Y-53305186D01*
X193301763Y-53306539D01*
X193309341Y-53307993D01*
X193315166Y-53309292D01*
X193452745Y-53349631D01*
X193581376Y-53403897D01*
X193700404Y-53471587D01*
X193809170Y-53552198D01*
X193907017Y-53645227D01*
X193993288Y-53750169D01*
X194067324Y-53866522D01*
X194084172Y-53897968D01*
X194137083Y-54014623D01*
X194174805Y-54131529D01*
X194198158Y-54252108D01*
X194207967Y-54379783D01*
X194208400Y-54414884D01*
X194200802Y-54555600D01*
X194177908Y-54689117D01*
X194139567Y-54815812D01*
X194085629Y-54936060D01*
X194015942Y-55050236D01*
X193930357Y-55158715D01*
X193893791Y-55198358D01*
X193798096Y-55288401D01*
X193697066Y-55364162D01*
X193588657Y-55426777D01*
X193470825Y-55477383D01*
X193341525Y-55517116D01*
X193304151Y-55526181D01*
X193222033Y-55545066D01*
X191187917Y-55547602D01*
X189153800Y-55550137D01*
X189153800Y-53784501D01*
X189223175Y-53784501D01*
X189457304Y-54429938D01*
X189691433Y-55075376D01*
X189903665Y-55075521D01*
X190115896Y-55075667D01*
X190237263Y-54684084D01*
X190261557Y-54605934D01*
X190284457Y-54532718D01*
X190305456Y-54466026D01*
X190324046Y-54407450D01*
X190339720Y-54358583D01*
X190351968Y-54321016D01*
X190360284Y-54296340D01*
X190364160Y-54286149D01*
X190364249Y-54286022D01*
X190367757Y-54292563D01*
X190375678Y-54313796D01*
X190387518Y-54348206D01*
X190402781Y-54394280D01*
X190420975Y-54450502D01*
X190441603Y-54515359D01*
X190464172Y-54587335D01*
X190488188Y-54664917D01*
X190492085Y-54677596D01*
X190614300Y-55075647D01*
X191037736Y-55075667D01*
X191272635Y-54433439D01*
X191309063Y-54333774D01*
X191343763Y-54238711D01*
X191376299Y-54149448D01*
X191406237Y-54067182D01*
X191433144Y-53993111D01*
X191456583Y-53928431D01*
X191476123Y-53874342D01*
X191491327Y-53832041D01*
X191501761Y-53802724D01*
X191506992Y-53787590D01*
X191507533Y-53785739D01*
X191499450Y-53784223D01*
X191476732Y-53782868D01*
X191441680Y-53781736D01*
X191396591Y-53780887D01*
X191343764Y-53780383D01*
X191301703Y-53780267D01*
X191566800Y-53780267D01*
X191566800Y-55075667D01*
X191990133Y-55075667D01*
X191990133Y-53780267D01*
X192074800Y-53780267D01*
X192074800Y-55075667D01*
X192498133Y-55075667D01*
X192498133Y-54432200D01*
X192587057Y-54432200D01*
X192587877Y-54500015D01*
X192590903Y-54555196D01*
X192597019Y-54601989D01*
X192607108Y-54644643D01*
X192622055Y-54687404D01*
X192642744Y-54734521D01*
X192655507Y-54761016D01*
X192705238Y-54843503D01*
X192767819Y-54915162D01*
X192842440Y-54975172D01*
X192900644Y-55009419D01*
X192978521Y-55045166D01*
X193052703Y-55069589D01*
X193128773Y-55083963D01*
X193212315Y-55089562D01*
X193251666Y-55089593D01*
X193332100Y-55088367D01*
X193334388Y-54917961D01*
X193336677Y-54747555D01*
X193261831Y-54743976D01*
X193201317Y-54736778D01*
X193152618Y-54720664D01*
X193112342Y-54694164D01*
X193086990Y-54668226D01*
X193051043Y-54613914D01*
X193026090Y-54551596D01*
X193012035Y-54484333D01*
X193008787Y-54415187D01*
X193016251Y-54347217D01*
X193034336Y-54283485D01*
X193062946Y-54227053D01*
X193101822Y-54181133D01*
X193142955Y-54149530D01*
X193185134Y-54130061D01*
X193233835Y-54120715D01*
X193270888Y-54119120D01*
X193336677Y-54118934D01*
X193334388Y-53943251D01*
X193332100Y-53767567D01*
X193226266Y-53768927D01*
X193141995Y-53773220D01*
X193067978Y-53784622D01*
X192998564Y-53804442D01*
X192928099Y-53833985D01*
X192913000Y-53841366D01*
X192844955Y-53882934D01*
X192779701Y-53936936D01*
X192721430Y-53999240D01*
X192674333Y-54065714D01*
X192660968Y-54089780D01*
X192634329Y-54145231D01*
X192614680Y-54195783D01*
X192601075Y-54245817D01*
X192592567Y-54299716D01*
X192588211Y-54361863D01*
X192587057Y-54432200D01*
X192498133Y-54432200D01*
X192498133Y-53780267D01*
X192074800Y-53780267D01*
X191990133Y-53780267D01*
X191566800Y-53780267D01*
X191301703Y-53780267D01*
X191095873Y-53780267D01*
X190974584Y-54193017D01*
X190950679Y-54274203D01*
X190927953Y-54351066D01*
X190906901Y-54421954D01*
X190888018Y-54485217D01*
X190871799Y-54539203D01*
X190858738Y-54582262D01*
X190849330Y-54612742D01*
X190844070Y-54628992D01*
X190843508Y-54630521D01*
X190841631Y-54634754D01*
X190839608Y-54637187D01*
X190837138Y-54636867D01*
X190833919Y-54632843D01*
X190829651Y-54624162D01*
X190824032Y-54609872D01*
X190816760Y-54589021D01*
X190807535Y-54560657D01*
X190796056Y-54523826D01*
X190782020Y-54477579D01*
X190765127Y-54420961D01*
X190745076Y-54353020D01*
X190721565Y-54272806D01*
X190694293Y-54179364D01*
X190662959Y-54071744D01*
X190627261Y-53948993D01*
X190620053Y-53924201D01*
X190579440Y-53784501D01*
X190170916Y-53779969D01*
X190149812Y-53849968D01*
X190142969Y-53873041D01*
X190132061Y-53910298D01*
X190117693Y-53959649D01*
X190100472Y-54019001D01*
X190081004Y-54086264D01*
X190059896Y-54159346D01*
X190037755Y-54236156D01*
X190025192Y-54279800D01*
X190003518Y-54354863D01*
X189983140Y-54424904D01*
X189964558Y-54488243D01*
X189948270Y-54543202D01*
X189934777Y-54588104D01*
X189924577Y-54621270D01*
X189918172Y-54641022D01*
X189916202Y-54645980D01*
X189912844Y-54639337D01*
X189905222Y-54617906D01*
X189893792Y-54583159D01*
X189879015Y-54536568D01*
X189861350Y-54479607D01*
X189841256Y-54413748D01*
X189819192Y-54340464D01*
X189795618Y-54261226D01*
X189785051Y-54225419D01*
X189760872Y-54143472D01*
X189738006Y-54066344D01*
X189716921Y-53995579D01*
X189698081Y-53932722D01*
X189681951Y-53879318D01*
X189668997Y-53836910D01*
X189659683Y-53807044D01*
X189654477Y-53791265D01*
X189653646Y-53789240D01*
X189644611Y-53786071D01*
X189621532Y-53783783D01*
X189583746Y-53782355D01*
X189530588Y-53781764D01*
X189461394Y-53781991D01*
X189435546Y-53782235D01*
X189223175Y-53784501D01*
X189153800Y-53784501D01*
X189153800Y-53780267D01*
X188722000Y-53780267D01*
X188722000Y-53944789D01*
X188677550Y-53901457D01*
X188611475Y-53846782D01*
X188538241Y-53805689D01*
X188493400Y-53787910D01*
X188449779Y-53777203D01*
X188394827Y-53770357D01*
X188333718Y-53767445D01*
X188271624Y-53768537D01*
X188213718Y-53773705D01*
X188165174Y-53783020D01*
X188163933Y-53783360D01*
X188071732Y-53817318D01*
X187988647Y-53865362D01*
X187915482Y-53926826D01*
X187853040Y-54001044D01*
X187805342Y-54080834D01*
X187773506Y-54159295D01*
X187750394Y-54248123D01*
X187736721Y-54342767D01*
X187733202Y-54438674D01*
X187737870Y-54510594D01*
X187747053Y-54578659D01*
X187758462Y-54635608D01*
X187773726Y-54687245D01*
X187794469Y-54739375D01*
X187813152Y-54779334D01*
X187861007Y-54859674D01*
X187920568Y-54930302D01*
X187989723Y-54989074D01*
X188061600Y-55031599D01*
X188153912Y-55067153D01*
X188250995Y-55087280D01*
X188338864Y-55092601D01*
X188431648Y-55085193D01*
X188516656Y-55063108D01*
X188593349Y-55026552D01*
X188661183Y-54975731D01*
X188671857Y-54965628D01*
X188722000Y-54916563D01*
X188722000Y-55549801D01*
X188516683Y-55548377D01*
X188457335Y-55547849D01*
X188401829Y-55547137D01*
X188353002Y-55546295D01*
X188313690Y-55545375D01*
X188286728Y-55544432D01*
X188277500Y-55543863D01*
X188144311Y-55523556D01*
X188015571Y-55487910D01*
X187892564Y-55437879D01*
X187776573Y-55374419D01*
X187668882Y-55298483D01*
X187570773Y-55211027D01*
X187483530Y-55113006D01*
X187408437Y-55005374D01*
X187346777Y-54889085D01*
X187323825Y-54834367D01*
X187282304Y-54706461D01*
X187255530Y-54576828D01*
X187243880Y-54448006D01*
X187247691Y-54322958D01*
X187268803Y-54182392D01*
X187304751Y-54049946D01*
X187355673Y-53925331D01*
X187421708Y-53808259D01*
X187502997Y-53698439D01*
X187593955Y-53601064D01*
X187696995Y-53512420D01*
X187807323Y-53438473D01*
X187926217Y-53378519D01*
X188054954Y-53331855D01*
X188110080Y-53316603D01*
X188201300Y-53293434D01*
X190724367Y-53293434D01*
X190969435Y-53293436D01*
D12*
X135675000Y-76935000D02*
X137960000Y-76935000D01*
X135675000Y-75465000D02*
X135675000Y-76935000D01*
X137960000Y-75465000D02*
X135675000Y-75465000D01*
X145184000Y-84914500D02*
G75*
G03X145184000Y-89964500I0J-2525000D01*
G01*
X151434000Y-84914500D02*
G75*
G02X151434000Y-89964500I0J-2525000D01*
G01*
X151434000Y-84914500D02*
X145184000Y-84914500D01*
X151434000Y-89964500D02*
X145184000Y-89964500D01*
X151912000Y-114046000D02*
X151912000Y-110596000D01*
X151912000Y-114046000D02*
X151912000Y-115996000D01*
X146792000Y-114046000D02*
X146792000Y-112096000D01*
X146792000Y-114046000D02*
X146792000Y-115996000D01*
X167255978Y-112080522D02*
G75*
G03X162817500Y-113919000I-1838478J-1838478D01*
G01*
X167255978Y-115757478D02*
G75*
G02X162817500Y-113919000I-1838478J1838478D01*
G01*
X167267500Y-115719000D02*
X167267500Y-112119000D01*
X179624500Y-96523500D02*
X177974500Y-96523500D01*
X179624500Y-106803500D02*
X179624500Y-96523500D01*
X174324500Y-106803500D02*
X179624500Y-106803500D01*
X174324500Y-96523500D02*
X174324500Y-106803500D01*
X175974500Y-96523500D02*
X174324500Y-96523500D01*
X177974500Y-96523500D02*
G75*
G02X175974500Y-96523500I-1000000J0D01*
G01*
X185607000Y-111700000D02*
X185607000Y-113030000D01*
X184277000Y-111700000D02*
X185607000Y-111700000D01*
X183007000Y-111700000D02*
X183007000Y-114360000D01*
X183007000Y-114360000D02*
X180407000Y-114360000D01*
X183007000Y-111700000D02*
X180407000Y-111700000D01*
X180407000Y-111700000D02*
X180407000Y-114360000D01*
X185607000Y-115383000D02*
X185607000Y-116713000D01*
X184277000Y-115383000D02*
X185607000Y-115383000D01*
X183007000Y-115383000D02*
X183007000Y-118043000D01*
X183007000Y-118043000D02*
X180407000Y-118043000D01*
X183007000Y-115383000D02*
X180407000Y-115383000D01*
X180407000Y-115383000D02*
X180407000Y-118043000D01*
X131804000Y-48898000D02*
X135404000Y-48898000D01*
X131804000Y-56258000D02*
X135404000Y-56258000D01*
X137284000Y-50778000D02*
X137284000Y-54378000D01*
X129924000Y-50778000D02*
X129924000Y-54378000D01*
X180977000Y-57015400D02*
X180977000Y-55905400D01*
X181737000Y-57015400D02*
X180977000Y-57015400D01*
X182497000Y-55341929D02*
X182497000Y-54795400D01*
X182497000Y-57015400D02*
X182497000Y-56468871D01*
X182497000Y-54795400D02*
X184972000Y-54795400D01*
X182497000Y-57015400D02*
X184972000Y-57015400D01*
X184972000Y-55597870D02*
X184972000Y-54795400D01*
X184972000Y-57015400D02*
X184972000Y-56212930D01*
X169800800Y-61131600D02*
X169800800Y-60381600D01*
X170500800Y-64281600D02*
X169800800Y-64281600D01*
X173200800Y-63531600D02*
X173200800Y-64281600D01*
X173200800Y-64281600D02*
X172500800Y-64281600D01*
X169800800Y-64281600D02*
X169800800Y-63531600D01*
X169800800Y-60381600D02*
X170500800Y-60381600D01*
X173350800Y-60381600D02*
G75*
G03X173350800Y-60381600I-150000J0D01*
G01*
X173260800Y-60381600D02*
G75*
G03X173260800Y-60381600I-60000J0D01*
G01*
X150333400Y-54026600D02*
X151028400Y-54026600D01*
X150333400Y-54711600D02*
X150333400Y-54026600D01*
X151636676Y-55396600D02*
X151723400Y-55396600D01*
X150333400Y-55396600D02*
X150420124Y-55396600D01*
X151723400Y-55396600D02*
X151723400Y-55271600D01*
X150333400Y-55396600D02*
X150333400Y-55271600D01*
X150333400Y-55396600D02*
X151723400Y-55396600D01*
X150841400Y-57735000D02*
X151536400Y-57735000D01*
X150841400Y-58420000D02*
X150841400Y-57735000D01*
X152144676Y-59105000D02*
X152231400Y-59105000D01*
X150841400Y-59105000D02*
X150928124Y-59105000D01*
X152231400Y-59105000D02*
X152231400Y-58980000D01*
X150841400Y-59105000D02*
X150841400Y-58980000D01*
X150841400Y-59105000D02*
X152231400Y-59105000D01*
D13*
X194403980Y-76768960D02*
G75*
G03X194403980Y-76768960I-139700J0D01*
G01*
D14*
X194911980Y-77269340D02*
X194911980Y-76517500D01*
X194911980Y-71269860D02*
X196562980Y-71269860D01*
X194911980Y-72021700D02*
X194911980Y-71269860D01*
X196562980Y-77269340D02*
X194911980Y-77269340D01*
X199163940Y-75768200D02*
X199163940Y-72771000D01*
D13*
X194556380Y-68539360D02*
G75*
G03X194556380Y-68539360I-139700J0D01*
G01*
D14*
X195064380Y-69039740D02*
X195064380Y-68287900D01*
X195064380Y-63040260D02*
X196715380Y-63040260D01*
X195064380Y-63792100D02*
X195064380Y-63040260D01*
X196715380Y-69039740D02*
X195064380Y-69039740D01*
X199316340Y-67538600D02*
X199316340Y-64541400D01*
D13*
X194505580Y-60563760D02*
G75*
G03X194505580Y-60563760I-139700J0D01*
G01*
D14*
X195013580Y-61064140D02*
X195013580Y-60312300D01*
X195013580Y-55064660D02*
X196664580Y-55064660D01*
X195013580Y-55816500D02*
X195013580Y-55064660D01*
X196664580Y-61064140D02*
X195013580Y-61064140D01*
X199265540Y-59563000D02*
X199265540Y-56565800D01*
D12*
X169890221Y-90019600D02*
X170215779Y-90019600D01*
X169890221Y-88999600D02*
X170215779Y-88999600D01*
X175389000Y-60552601D02*
X175789000Y-60552601D01*
X175589000Y-60752601D02*
X175589000Y-60352601D01*
X176414000Y-56401800D02*
X177154000Y-56401800D01*
X176247000Y-56441800D02*
X177321000Y-56441800D01*
X176120000Y-56481800D02*
X177448000Y-56481800D01*
X176016000Y-56521800D02*
X177552000Y-56521800D01*
X175925000Y-56561800D02*
X177643000Y-56561800D01*
X175844000Y-56601800D02*
X177724000Y-56601800D01*
X175771000Y-56641800D02*
X177797000Y-56641800D01*
X175704000Y-56681800D02*
X177864000Y-56681800D01*
X175642000Y-56721800D02*
X177926000Y-56721800D01*
X175584000Y-56761800D02*
X177984000Y-56761800D01*
X175530000Y-56801800D02*
X178038000Y-56801800D01*
X175480000Y-56841800D02*
X178088000Y-56841800D01*
X175433000Y-56881800D02*
X178135000Y-56881800D01*
X177624000Y-56921800D02*
X178180000Y-56921800D01*
X175388000Y-56921800D02*
X175944000Y-56921800D01*
X177624000Y-56961800D02*
X178222000Y-56961800D01*
X175346000Y-56961800D02*
X175944000Y-56961800D01*
X177624000Y-57001800D02*
X178262000Y-57001800D01*
X175306000Y-57001800D02*
X175944000Y-57001800D01*
X177624000Y-57041800D02*
X178300000Y-57041800D01*
X175268000Y-57041800D02*
X175944000Y-57041800D01*
X177624000Y-57081800D02*
X178336000Y-57081800D01*
X175232000Y-57081800D02*
X175944000Y-57081800D01*
X177624000Y-57121800D02*
X178371000Y-57121800D01*
X175197000Y-57121800D02*
X175944000Y-57121800D01*
X177624000Y-57161800D02*
X178403000Y-57161800D01*
X175165000Y-57161800D02*
X175944000Y-57161800D01*
X177624000Y-57201800D02*
X178434000Y-57201800D01*
X175134000Y-57201800D02*
X175944000Y-57201800D01*
X177624000Y-57241800D02*
X178464000Y-57241800D01*
X175104000Y-57241800D02*
X175944000Y-57241800D01*
X177624000Y-57281800D02*
X178492000Y-57281800D01*
X175076000Y-57281800D02*
X175944000Y-57281800D01*
X177624000Y-57321800D02*
X178519000Y-57321800D01*
X175049000Y-57321800D02*
X175944000Y-57321800D01*
X177624000Y-57361800D02*
X178544000Y-57361800D01*
X175024000Y-57361800D02*
X175944000Y-57361800D01*
X177624000Y-57401800D02*
X178569000Y-57401800D01*
X174999000Y-57401800D02*
X175944000Y-57401800D01*
X177624000Y-57441800D02*
X178592000Y-57441800D01*
X174976000Y-57441800D02*
X175944000Y-57441800D01*
X177624000Y-57481800D02*
X178614000Y-57481800D01*
X174954000Y-57481800D02*
X175944000Y-57481800D01*
X177624000Y-57521800D02*
X178635000Y-57521800D01*
X174933000Y-57521800D02*
X175944000Y-57521800D01*
X177624000Y-57561800D02*
X178654000Y-57561800D01*
X174914000Y-57561800D02*
X175944000Y-57561800D01*
X177624000Y-57601800D02*
X178673000Y-57601800D01*
X174895000Y-57601800D02*
X175944000Y-57601800D01*
X177624000Y-57641800D02*
X178691000Y-57641800D01*
X174877000Y-57641800D02*
X175944000Y-57641800D01*
X177624000Y-57681800D02*
X178708000Y-57681800D01*
X174860000Y-57681800D02*
X175944000Y-57681800D01*
X177624000Y-57721800D02*
X178724000Y-57721800D01*
X174844000Y-57721800D02*
X175944000Y-57721800D01*
X177624000Y-57761800D02*
X178738000Y-57761800D01*
X174830000Y-57761800D02*
X175944000Y-57761800D01*
X177624000Y-57802800D02*
X178752000Y-57802800D01*
X174816000Y-57802800D02*
X175944000Y-57802800D01*
X177624000Y-57842800D02*
X178766000Y-57842800D01*
X174802000Y-57842800D02*
X175944000Y-57842800D01*
X177624000Y-57882800D02*
X178778000Y-57882800D01*
X174790000Y-57882800D02*
X175944000Y-57882800D01*
X177624000Y-57922800D02*
X178789000Y-57922800D01*
X174779000Y-57922800D02*
X175944000Y-57922800D01*
X177624000Y-57962800D02*
X178800000Y-57962800D01*
X174768000Y-57962800D02*
X175944000Y-57962800D01*
X177624000Y-58002800D02*
X178809000Y-58002800D01*
X174759000Y-58002800D02*
X175944000Y-58002800D01*
X177624000Y-58042800D02*
X178818000Y-58042800D01*
X174750000Y-58042800D02*
X175944000Y-58042800D01*
X177624000Y-58082800D02*
X178826000Y-58082800D01*
X174742000Y-58082800D02*
X175944000Y-58082800D01*
X177624000Y-58122800D02*
X178834000Y-58122800D01*
X174734000Y-58122800D02*
X175944000Y-58122800D01*
X177624000Y-58162800D02*
X178840000Y-58162800D01*
X174728000Y-58162800D02*
X175944000Y-58162800D01*
X177624000Y-58202800D02*
X178846000Y-58202800D01*
X174722000Y-58202800D02*
X175944000Y-58202800D01*
X177624000Y-58242800D02*
X178851000Y-58242800D01*
X174717000Y-58242800D02*
X175944000Y-58242800D01*
X177624000Y-58282800D02*
X178855000Y-58282800D01*
X174713000Y-58282800D02*
X175944000Y-58282800D01*
X177624000Y-58322800D02*
X178858000Y-58322800D01*
X174710000Y-58322800D02*
X175944000Y-58322800D01*
X177624000Y-58362800D02*
X178861000Y-58362800D01*
X174707000Y-58362800D02*
X175944000Y-58362800D01*
X174705000Y-58402800D02*
X175944000Y-58402800D01*
X177624000Y-58402800D02*
X178863000Y-58402800D01*
X174704000Y-58442800D02*
X175944000Y-58442800D01*
X177624000Y-58442800D02*
X178864000Y-58442800D01*
X174704000Y-58482800D02*
X175944000Y-58482800D01*
X177624000Y-58482800D02*
X178864000Y-58482800D01*
X178904000Y-58482800D02*
G75*
G03X178904000Y-58482800I-2120000J0D01*
G01*
X179189500Y-88394000D02*
X179189500Y-89854000D01*
X176029500Y-88394000D02*
X176029500Y-90554000D01*
X176029500Y-88394000D02*
X176959500Y-88394000D01*
X179189500Y-88394000D02*
X178259500Y-88394000D01*
X168595522Y-113160022D02*
G75*
G03X170434000Y-117598500I1838478J-1838478D01*
G01*
X172272478Y-113160022D02*
G75*
G02X170434000Y-117598500I-1838478J-1838478D01*
G01*
X172234000Y-113148500D02*
X168634000Y-113148500D01*
X174018725Y-113527500D02*
X174018725Y-114027500D01*
X173768725Y-113777500D02*
X174268725Y-113777500D01*
X179174500Y-114968500D02*
X179174500Y-115536500D01*
X179134500Y-114734500D02*
X179134500Y-115770500D01*
X179094500Y-114575500D02*
X179094500Y-115929500D01*
X179054500Y-114447500D02*
X179054500Y-116057500D01*
X179014500Y-114337500D02*
X179014500Y-116167500D01*
X178974500Y-114241500D02*
X178974500Y-116263500D01*
X178934500Y-114154500D02*
X178934500Y-116350500D01*
X178894500Y-114074500D02*
X178894500Y-116430500D01*
X178854500Y-116292500D02*
X178854500Y-116503500D01*
X178854500Y-114001500D02*
X178854500Y-114212500D01*
X178814500Y-116292500D02*
X178814500Y-116571500D01*
X178814500Y-113933500D02*
X178814500Y-114212500D01*
X178774500Y-116292500D02*
X178774500Y-116635500D01*
X178774500Y-113869500D02*
X178774500Y-114212500D01*
X178734500Y-116292500D02*
X178734500Y-116695500D01*
X178734500Y-113809500D02*
X178734500Y-114212500D01*
X178694500Y-116292500D02*
X178694500Y-116752500D01*
X178694500Y-113752500D02*
X178694500Y-114212500D01*
X178654500Y-116292500D02*
X178654500Y-116806500D01*
X178654500Y-113698500D02*
X178654500Y-114212500D01*
X178614500Y-116292500D02*
X178614500Y-116857500D01*
X178614500Y-113647500D02*
X178614500Y-114212500D01*
X178574500Y-116292500D02*
X178574500Y-116905500D01*
X178574500Y-113599500D02*
X178574500Y-114212500D01*
X178534500Y-116292500D02*
X178534500Y-116951500D01*
X178534500Y-113553500D02*
X178534500Y-114212500D01*
X178494500Y-116292500D02*
X178494500Y-116995500D01*
X178494500Y-113509500D02*
X178494500Y-114212500D01*
X178454500Y-116292500D02*
X178454500Y-117037500D01*
X178454500Y-113467500D02*
X178454500Y-114212500D01*
X178414500Y-116292500D02*
X178414500Y-117078500D01*
X178414500Y-113426500D02*
X178414500Y-114212500D01*
X178374500Y-116292500D02*
X178374500Y-117116500D01*
X178374500Y-113388500D02*
X178374500Y-114212500D01*
X178334500Y-116292500D02*
X178334500Y-117153500D01*
X178334500Y-113351500D02*
X178334500Y-114212500D01*
X178294500Y-116292500D02*
X178294500Y-117189500D01*
X178294500Y-113315500D02*
X178294500Y-114212500D01*
X178254500Y-116292500D02*
X178254500Y-117223500D01*
X178254500Y-113281500D02*
X178254500Y-114212500D01*
X178214500Y-116292500D02*
X178214500Y-117256500D01*
X178214500Y-113248500D02*
X178214500Y-114212500D01*
X178174500Y-116292500D02*
X178174500Y-117287500D01*
X178174500Y-113217500D02*
X178174500Y-114212500D01*
X178134500Y-116292500D02*
X178134500Y-117317500D01*
X178134500Y-113187500D02*
X178134500Y-114212500D01*
X178094500Y-116292500D02*
X178094500Y-117347500D01*
X178094500Y-113157500D02*
X178094500Y-114212500D01*
X178054500Y-116292500D02*
X178054500Y-117374500D01*
X178054500Y-113130500D02*
X178054500Y-114212500D01*
X178014500Y-116292500D02*
X178014500Y-117401500D01*
X178014500Y-113103500D02*
X178014500Y-114212500D01*
X177974500Y-116292500D02*
X177974500Y-117427500D01*
X177974500Y-113077500D02*
X177974500Y-114212500D01*
X177934500Y-116292500D02*
X177934500Y-117452500D01*
X177934500Y-113052500D02*
X177934500Y-114212500D01*
X177894500Y-116292500D02*
X177894500Y-117476500D01*
X177894500Y-113028500D02*
X177894500Y-114212500D01*
X177854500Y-116292500D02*
X177854500Y-117499500D01*
X177854500Y-113005500D02*
X177854500Y-114212500D01*
X177814500Y-116292500D02*
X177814500Y-117520500D01*
X177814500Y-112984500D02*
X177814500Y-114212500D01*
X177774500Y-116292500D02*
X177774500Y-117542500D01*
X177774500Y-112962500D02*
X177774500Y-114212500D01*
X177734500Y-116292500D02*
X177734500Y-117562500D01*
X177734500Y-112942500D02*
X177734500Y-114212500D01*
X177694500Y-116292500D02*
X177694500Y-117581500D01*
X177694500Y-112923500D02*
X177694500Y-114212500D01*
X177654500Y-116292500D02*
X177654500Y-117600500D01*
X177654500Y-112904500D02*
X177654500Y-114212500D01*
X177614500Y-116292500D02*
X177614500Y-117617500D01*
X177614500Y-112887500D02*
X177614500Y-114212500D01*
X177574500Y-116292500D02*
X177574500Y-117634500D01*
X177574500Y-112870500D02*
X177574500Y-114212500D01*
X177534500Y-116292500D02*
X177534500Y-117650500D01*
X177534500Y-112854500D02*
X177534500Y-114212500D01*
X177494500Y-116292500D02*
X177494500Y-117666500D01*
X177494500Y-112838500D02*
X177494500Y-114212500D01*
X177454500Y-116292500D02*
X177454500Y-117680500D01*
X177454500Y-112824500D02*
X177454500Y-114212500D01*
X177414500Y-116292500D02*
X177414500Y-117694500D01*
X177414500Y-112810500D02*
X177414500Y-114212500D01*
X177374500Y-116292500D02*
X177374500Y-117707500D01*
X177374500Y-112797500D02*
X177374500Y-114212500D01*
X177334500Y-116292500D02*
X177334500Y-117720500D01*
X177334500Y-112784500D02*
X177334500Y-114212500D01*
X177294500Y-116292500D02*
X177294500Y-117732500D01*
X177294500Y-112772500D02*
X177294500Y-114212500D01*
X177253500Y-116292500D02*
X177253500Y-117743500D01*
X177253500Y-112761500D02*
X177253500Y-114212500D01*
X177213500Y-116292500D02*
X177213500Y-117753500D01*
X177213500Y-112751500D02*
X177213500Y-114212500D01*
X177173500Y-116292500D02*
X177173500Y-117763500D01*
X177173500Y-112741500D02*
X177173500Y-114212500D01*
X177133500Y-116292500D02*
X177133500Y-117772500D01*
X177133500Y-112732500D02*
X177133500Y-114212500D01*
X177093500Y-116292500D02*
X177093500Y-117780500D01*
X177093500Y-112724500D02*
X177093500Y-114212500D01*
X177053500Y-116292500D02*
X177053500Y-117788500D01*
X177053500Y-112716500D02*
X177053500Y-114212500D01*
X177013500Y-116292500D02*
X177013500Y-117795500D01*
X177013500Y-112709500D02*
X177013500Y-114212500D01*
X176973500Y-116292500D02*
X176973500Y-117802500D01*
X176973500Y-112702500D02*
X176973500Y-114212500D01*
X176933500Y-116292500D02*
X176933500Y-117808500D01*
X176933500Y-112696500D02*
X176933500Y-114212500D01*
X176893500Y-116292500D02*
X176893500Y-117813500D01*
X176893500Y-112691500D02*
X176893500Y-114212500D01*
X176853500Y-116292500D02*
X176853500Y-117817500D01*
X176853500Y-112687500D02*
X176853500Y-114212500D01*
X176813500Y-116292500D02*
X176813500Y-117821500D01*
X176813500Y-112683500D02*
X176813500Y-114212500D01*
X176773500Y-112679500D02*
X176773500Y-117825500D01*
X176733500Y-112676500D02*
X176733500Y-117828500D01*
X176693500Y-112674500D02*
X176693500Y-117830500D01*
X176653500Y-112673500D02*
X176653500Y-117831500D01*
X176613500Y-112672500D02*
X176613500Y-117832500D01*
X176573500Y-112672500D02*
X176573500Y-117832500D01*
X179193500Y-115252500D02*
G75*
G03X179193500Y-115252500I-2620000J0D01*
G01*
X132200000Y-70980000D02*
X131600000Y-70980000D01*
X147810000Y-70980000D02*
X147200000Y-70980000D01*
X132200000Y-58560000D02*
X131590000Y-58560000D01*
X147810000Y-58670000D02*
X147810000Y-70980000D01*
X131590000Y-58560000D02*
X131590000Y-70980000D01*
X139600000Y-70980000D02*
X137600000Y-70980000D01*
X139600000Y-58560000D02*
X137600000Y-58560000D01*
X190948000Y-112208000D02*
X192278000Y-112208000D01*
X190948000Y-113538000D02*
X190948000Y-112208000D01*
X190948000Y-114808000D02*
X193608000Y-114808000D01*
X193608000Y-114808000D02*
X193608000Y-117408000D01*
X190948000Y-114808000D02*
X190948000Y-117408000D01*
X190948000Y-117408000D02*
X193608000Y-117408000D01*
X194631000Y-112208000D02*
X195961000Y-112208000D01*
X194631000Y-113538000D02*
X194631000Y-112208000D01*
X194631000Y-114808000D02*
X197291000Y-114808000D01*
X197291000Y-114808000D02*
X197291000Y-117408000D01*
X194631000Y-114808000D02*
X194631000Y-117408000D01*
X194631000Y-117408000D02*
X197291000Y-117408000D01*
X139371000Y-54986422D02*
X139371000Y-55503578D01*
X140791000Y-54986422D02*
X140791000Y-55503578D01*
X154884000Y-108710000D02*
X154884000Y-107250000D01*
X158044000Y-108710000D02*
X158044000Y-106550000D01*
X158044000Y-108710000D02*
X157114000Y-108710000D01*
X154884000Y-108710000D02*
X155814000Y-108710000D01*
X159577500Y-110116500D02*
X161037500Y-110116500D01*
X159577500Y-113276500D02*
X161737500Y-113276500D01*
X159577500Y-113276500D02*
X159577500Y-112346500D01*
X159577500Y-110116500D02*
X159577500Y-111046500D01*
X139410221Y-52707000D02*
X139735779Y-52707000D01*
X139410221Y-51687000D02*
X139735779Y-51687000D01*
X142966221Y-53723000D02*
X143291779Y-53723000D01*
X142966221Y-52703000D02*
X143291779Y-52703000D01*
X183024175Y-100139500D02*
X182591162Y-100389500D01*
X182591162Y-99889500D02*
X183024175Y-100139500D01*
X182591162Y-100389500D02*
X182591162Y-99889500D01*
X183485500Y-79114500D02*
X193965500Y-79114500D01*
X183485500Y-110084500D02*
X183485500Y-79114500D01*
X193965500Y-110084500D02*
X183485500Y-110084500D01*
X188606500Y-116209578D02*
X188606500Y-115692422D01*
X187186500Y-116209578D02*
X187186500Y-115692422D01*
X175927500Y-93691000D02*
X175227500Y-93691000D01*
X175227500Y-92491000D02*
X175927500Y-92491000D01*
X136937000Y-73060000D02*
X137637000Y-73060000D01*
X137637000Y-74260000D02*
X136937000Y-74260000D01*
X129595100Y-115054554D02*
G75*
G02X129596000Y-120656000I-4499100J-2801446D01*
G01*
X129596000Y-115056000D02*
G75*
G02X129580337Y-113752277I386922J656604D01*
G01*
X137596000Y-119856000D02*
X135596000Y-121956000D01*
X137596000Y-115856000D02*
X135596000Y-113756000D01*
X137596000Y-119856000D02*
X137596000Y-115856000D01*
X129596000Y-121956000D02*
G75*
G02X129580337Y-120652277I386922J656604D01*
G01*
X129596000Y-113756000D02*
X135596000Y-113756000D01*
X129596000Y-121956000D02*
X135596000Y-121956000D01*
X171669500Y-108649500D02*
X171669500Y-111949500D01*
X171669500Y-111949500D02*
X177069500Y-111949500D01*
X171669500Y-108649500D02*
X177069500Y-108649500D01*
X170303500Y-99171000D02*
G75*
G02X170303500Y-97171000I0J1000000D01*
G01*
X170303500Y-97171000D02*
X170303500Y-95521000D01*
X170303500Y-95521000D02*
X134623500Y-95521000D01*
X134623500Y-95521000D02*
X134623500Y-100821000D01*
X134623500Y-100821000D02*
X170303500Y-100821000D01*
X170303500Y-100821000D02*
X170303500Y-99171000D01*
X162377500Y-108413000D02*
X163377500Y-108413000D01*
X163377500Y-109773000D02*
X162377500Y-109773000D01*
X170239500Y-90271500D02*
X169739500Y-90271500D01*
X169739500Y-91211500D02*
X170239500Y-91211500D01*
X179418500Y-94332500D02*
X180118500Y-94332500D01*
X180118500Y-95532500D02*
X179418500Y-95532500D01*
X150654500Y-92167000D02*
X149954500Y-92167000D01*
X149954500Y-90967000D02*
X150654500Y-90967000D01*
X145192000Y-90967000D02*
X145892000Y-90967000D01*
X145892000Y-92167000D02*
X145192000Y-92167000D01*
X164000500Y-91167500D02*
X163000500Y-91167500D01*
X163000500Y-89807500D02*
X164000500Y-89807500D01*
X163012500Y-87712000D02*
X164012500Y-87712000D01*
X164012500Y-89072000D02*
X163012500Y-89072000D01*
X159149500Y-89844500D02*
X159149500Y-88844500D01*
X160509500Y-88844500D02*
X160509500Y-89844500D01*
X134231000Y-75864000D02*
X133231000Y-75864000D01*
X133231000Y-74504000D02*
X134231000Y-74504000D01*
X169553000Y-86340400D02*
X170553000Y-86340400D01*
X170553000Y-87700400D02*
X169553000Y-87700400D01*
X156091000Y-104476000D02*
X157091000Y-104476000D01*
X157091000Y-105836000D02*
X156091000Y-105836000D01*
X153969000Y-62111000D02*
X153969000Y-63111000D01*
X152609000Y-63111000D02*
X152609000Y-62111000D01*
X137279000Y-105582000D02*
X136279000Y-105582000D01*
X136279000Y-104222000D02*
X137279000Y-104222000D01*
X162896000Y-107053000D02*
X162896000Y-106053000D01*
X164256000Y-106053000D02*
X164256000Y-107053000D01*
X159467000Y-105465500D02*
X159467000Y-104465500D01*
X160827000Y-104465500D02*
X160827000Y-105465500D01*
X167013000Y-105809500D02*
X168013000Y-105809500D01*
X168013000Y-107169500D02*
X167013000Y-107169500D01*
X162478000Y-106053000D02*
X162478000Y-107053000D01*
X161118000Y-107053000D02*
X161118000Y-106053000D01*
X169489500Y-91395000D02*
X170489500Y-91395000D01*
X170489500Y-92755000D02*
X169489500Y-92755000D01*
X174950500Y-94189000D02*
X175950500Y-94189000D01*
X175950500Y-95549000D02*
X174950500Y-95549000D01*
X179141500Y-92411000D02*
X180141500Y-92411000D01*
X180141500Y-93771000D02*
X179141500Y-93771000D01*
X156001000Y-62111000D02*
X156001000Y-63111000D01*
X154641000Y-63111000D02*
X154641000Y-62111000D01*
X159266000Y-108286000D02*
X160266000Y-108286000D01*
X160266000Y-109646000D02*
X159266000Y-109646000D01*
X161054500Y-115879500D02*
X161054500Y-114879500D01*
X162414500Y-114879500D02*
X162414500Y-115879500D01*
D15*
X136421904Y-75222380D02*
X136421904Y-74222380D01*
X136660000Y-74222380D01*
X136802857Y-74270000D01*
X136898095Y-74365238D01*
X136945714Y-74460476D01*
X136993333Y-74650952D01*
X136993333Y-74793809D01*
X136945714Y-74984285D01*
X136898095Y-75079523D01*
X136802857Y-75174761D01*
X136660000Y-75222380D01*
X136421904Y-75222380D01*
X137850476Y-74555714D02*
X137850476Y-75222380D01*
X137612380Y-74174761D02*
X137374285Y-74889047D01*
X137993333Y-74889047D01*
X147832809Y-90940690D02*
X147832809Y-91416880D01*
X147499476Y-90416880D02*
X147832809Y-90940690D01*
X148166142Y-90416880D01*
X149023285Y-91416880D02*
X148451857Y-91416880D01*
X148737571Y-91416880D02*
X148737571Y-90416880D01*
X148642333Y-90559738D01*
X148547095Y-90654976D01*
X148451857Y-90702595D01*
X152204380Y-114807904D02*
X153013904Y-114807904D01*
X153109142Y-114760285D01*
X153156761Y-114712666D01*
X153204380Y-114617428D01*
X153204380Y-114426952D01*
X153156761Y-114331714D01*
X153109142Y-114284095D01*
X153013904Y-114236476D01*
X152204380Y-114236476D01*
X152537714Y-113331714D02*
X153204380Y-113331714D01*
X152156761Y-113569809D02*
X152871047Y-113807904D01*
X152871047Y-113188857D01*
X161309880Y-114680904D02*
X162119404Y-114680904D01*
X162214642Y-114633285D01*
X162262261Y-114585666D01*
X162309880Y-114490428D01*
X162309880Y-114299952D01*
X162262261Y-114204714D01*
X162214642Y-114157095D01*
X162119404Y-114109476D01*
X161309880Y-114109476D01*
X161405119Y-113680904D02*
X161357500Y-113633285D01*
X161309880Y-113538047D01*
X161309880Y-113299952D01*
X161357500Y-113204714D01*
X161405119Y-113157095D01*
X161500357Y-113109476D01*
X161595595Y-113109476D01*
X161738452Y-113157095D01*
X162309880Y-113728523D01*
X162309880Y-113109476D01*
X176212595Y-94975880D02*
X176212595Y-95785404D01*
X176260214Y-95880642D01*
X176307833Y-95928261D01*
X176403071Y-95975880D01*
X176593547Y-95975880D01*
X176688785Y-95928261D01*
X176736404Y-95880642D01*
X176784023Y-95785404D01*
X176784023Y-94975880D01*
X177784023Y-95975880D02*
X177212595Y-95975880D01*
X177498309Y-95975880D02*
X177498309Y-94975880D01*
X177403071Y-95118738D01*
X177307833Y-95213976D01*
X177212595Y-95261595D01*
X186059380Y-113863333D02*
X186773666Y-113863333D01*
X186916523Y-113910952D01*
X187011761Y-114006190D01*
X187059380Y-114149047D01*
X187059380Y-114244285D01*
X187059380Y-113387142D02*
X186059380Y-113387142D01*
X186059380Y-113006190D01*
X186107000Y-112910952D01*
X186154619Y-112863333D01*
X186249857Y-112815714D01*
X186392714Y-112815714D01*
X186487952Y-112863333D01*
X186535571Y-112910952D01*
X186583190Y-113006190D01*
X186583190Y-113387142D01*
X186154619Y-112434761D02*
X186107000Y-112387142D01*
X186059380Y-112291904D01*
X186059380Y-112053809D01*
X186107000Y-111958571D01*
X186154619Y-111910952D01*
X186249857Y-111863333D01*
X186345095Y-111863333D01*
X186487952Y-111910952D01*
X187059380Y-112482380D01*
X187059380Y-111863333D01*
X186059380Y-117546333D02*
X186773666Y-117546333D01*
X186916523Y-117593952D01*
X187011761Y-117689190D01*
X187059380Y-117832047D01*
X187059380Y-117927285D01*
X187059380Y-117070142D02*
X186059380Y-117070142D01*
X186059380Y-116689190D01*
X186107000Y-116593952D01*
X186154619Y-116546333D01*
X186249857Y-116498714D01*
X186392714Y-116498714D01*
X186487952Y-116546333D01*
X186535571Y-116593952D01*
X186583190Y-116689190D01*
X186583190Y-117070142D01*
X187059380Y-115546333D02*
X187059380Y-116117761D01*
X187059380Y-115832047D02*
X186059380Y-115832047D01*
X186202238Y-115927285D01*
X186297476Y-116022523D01*
X186345095Y-116117761D01*
X133270666Y-47280380D02*
X133270666Y-47994666D01*
X133223047Y-48137523D01*
X133127809Y-48232761D01*
X132984952Y-48280380D01*
X132889714Y-48280380D01*
X133651619Y-47280380D02*
X134270666Y-47280380D01*
X133937333Y-47661333D01*
X134080190Y-47661333D01*
X134175428Y-47708952D01*
X134223047Y-47756571D01*
X134270666Y-47851809D01*
X134270666Y-48089904D01*
X134223047Y-48185142D01*
X134175428Y-48232761D01*
X134080190Y-48280380D01*
X133794476Y-48280380D01*
X133699238Y-48232761D01*
X133651619Y-48185142D01*
X179494380Y-56714923D02*
X180208666Y-56714923D01*
X180351523Y-56762542D01*
X180446761Y-56857780D01*
X180494380Y-57000638D01*
X180494380Y-57095876D01*
X180494380Y-55714923D02*
X180494380Y-56286352D01*
X180494380Y-56000638D02*
X179494380Y-56000638D01*
X179637238Y-56095876D01*
X179732476Y-56191114D01*
X179780095Y-56286352D01*
X179827714Y-54857780D02*
X180494380Y-54857780D01*
X179446761Y-55095876D02*
X180161047Y-55333971D01*
X180161047Y-54714923D01*
X173653180Y-63093504D02*
X174462704Y-63093504D01*
X174557942Y-63045885D01*
X174605561Y-62998266D01*
X174653180Y-62903028D01*
X174653180Y-62712552D01*
X174605561Y-62617314D01*
X174557942Y-62569695D01*
X174462704Y-62522076D01*
X173653180Y-62522076D01*
X173653180Y-61617314D02*
X173653180Y-61807790D01*
X173700800Y-61903028D01*
X173748419Y-61950647D01*
X173891276Y-62045885D01*
X174081752Y-62093504D01*
X174462704Y-62093504D01*
X174557942Y-62045885D01*
X174605561Y-61998266D01*
X174653180Y-61903028D01*
X174653180Y-61712552D01*
X174605561Y-61617314D01*
X174557942Y-61569695D01*
X174462704Y-61522076D01*
X174224609Y-61522076D01*
X174129371Y-61569695D01*
X174081752Y-61617314D01*
X174034133Y-61712552D01*
X174034133Y-61903028D01*
X174081752Y-61998266D01*
X174129371Y-62045885D01*
X174224609Y-62093504D01*
X150695066Y-52603980D02*
X150695066Y-53318266D01*
X150647447Y-53461123D01*
X150552209Y-53556361D01*
X150409352Y-53603980D01*
X150314114Y-53603980D01*
X151076019Y-52603980D02*
X151742685Y-52603980D01*
X151314114Y-53603980D01*
X151203066Y-56312380D02*
X151203066Y-57026666D01*
X151155447Y-57169523D01*
X151060209Y-57264761D01*
X150917352Y-57312380D01*
X150822114Y-57312380D01*
X152107828Y-56312380D02*
X151917352Y-56312380D01*
X151822114Y-56360000D01*
X151774495Y-56407619D01*
X151679257Y-56550476D01*
X151631638Y-56740952D01*
X151631638Y-57121904D01*
X151679257Y-57217142D01*
X151726876Y-57264761D01*
X151822114Y-57312380D01*
X152012590Y-57312380D01*
X152107828Y-57264761D01*
X152155447Y-57217142D01*
X152203066Y-57121904D01*
X152203066Y-56883809D01*
X152155447Y-56788571D01*
X152107828Y-56740952D01*
X152012590Y-56693333D01*
X151822114Y-56693333D01*
X151726876Y-56740952D01*
X151679257Y-56788571D01*
X151631638Y-56883809D01*
D16*
X194959514Y-77618771D02*
X194959514Y-78054200D01*
X194930485Y-78141285D01*
X194872428Y-78199342D01*
X194785342Y-78228371D01*
X194727285Y-78228371D01*
X195569114Y-78228371D02*
X195220771Y-78228371D01*
X195394942Y-78228371D02*
X195394942Y-77618771D01*
X195336885Y-77705857D01*
X195278828Y-77763914D01*
X195220771Y-77792942D01*
X195946485Y-77618771D02*
X196004542Y-77618771D01*
X196062600Y-77647800D01*
X196091628Y-77676828D01*
X196120657Y-77734885D01*
X196149685Y-77851000D01*
X196149685Y-77996142D01*
X196120657Y-78112257D01*
X196091628Y-78170314D01*
X196062600Y-78199342D01*
X196004542Y-78228371D01*
X195946485Y-78228371D01*
X195888428Y-78199342D01*
X195859400Y-78170314D01*
X195830371Y-78112257D01*
X195801342Y-77996142D01*
X195801342Y-77851000D01*
X195830371Y-77734885D01*
X195859400Y-77676828D01*
X195888428Y-77647800D01*
X195946485Y-77618771D01*
X195402200Y-69389171D02*
X195402200Y-69824600D01*
X195373171Y-69911685D01*
X195315114Y-69969742D01*
X195228028Y-69998771D01*
X195169971Y-69998771D01*
X195721514Y-69998771D02*
X195837628Y-69998771D01*
X195895685Y-69969742D01*
X195924714Y-69940714D01*
X195982771Y-69853628D01*
X196011800Y-69737514D01*
X196011800Y-69505285D01*
X195982771Y-69447228D01*
X195953742Y-69418200D01*
X195895685Y-69389171D01*
X195779571Y-69389171D01*
X195721514Y-69418200D01*
X195692485Y-69447228D01*
X195663457Y-69505285D01*
X195663457Y-69650428D01*
X195692485Y-69708485D01*
X195721514Y-69737514D01*
X195779571Y-69766542D01*
X195895685Y-69766542D01*
X195953742Y-69737514D01*
X195982771Y-69708485D01*
X196011800Y-69650428D01*
X195351400Y-61413571D02*
X195351400Y-61849000D01*
X195322371Y-61936085D01*
X195264314Y-61994142D01*
X195177228Y-62023171D01*
X195119171Y-62023171D01*
X195728771Y-61674828D02*
X195670714Y-61645800D01*
X195641685Y-61616771D01*
X195612657Y-61558714D01*
X195612657Y-61529685D01*
X195641685Y-61471628D01*
X195670714Y-61442600D01*
X195728771Y-61413571D01*
X195844885Y-61413571D01*
X195902942Y-61442600D01*
X195931971Y-61471628D01*
X195961000Y-61529685D01*
X195961000Y-61558714D01*
X195931971Y-61616771D01*
X195902942Y-61645800D01*
X195844885Y-61674828D01*
X195728771Y-61674828D01*
X195670714Y-61703857D01*
X195641685Y-61732885D01*
X195612657Y-61790942D01*
X195612657Y-61907057D01*
X195641685Y-61965114D01*
X195670714Y-61994142D01*
X195728771Y-62023171D01*
X195844885Y-62023171D01*
X195902942Y-61994142D01*
X195931971Y-61965114D01*
X195961000Y-61907057D01*
X195961000Y-61790942D01*
X195931971Y-61732885D01*
X195902942Y-61703857D01*
X195844885Y-61674828D01*
D15*
X169410142Y-88531980D02*
X169076809Y-88055790D01*
X168838714Y-88531980D02*
X168838714Y-87531980D01*
X169219666Y-87531980D01*
X169314904Y-87579600D01*
X169362523Y-87627219D01*
X169410142Y-87722457D01*
X169410142Y-87865314D01*
X169362523Y-87960552D01*
X169314904Y-88008171D01*
X169219666Y-88055790D01*
X168838714Y-88055790D01*
X170362523Y-88531980D02*
X169791095Y-88531980D01*
X170076809Y-88531980D02*
X170076809Y-87531980D01*
X169981571Y-87674838D01*
X169886333Y-87770076D01*
X169791095Y-87817695D01*
X170743476Y-87627219D02*
X170791095Y-87579600D01*
X170886333Y-87531980D01*
X171124428Y-87531980D01*
X171219666Y-87579600D01*
X171267285Y-87627219D01*
X171314904Y-87722457D01*
X171314904Y-87817695D01*
X171267285Y-87960552D01*
X170695857Y-88531980D01*
X171314904Y-88531980D01*
X173891142Y-59125657D02*
X173938761Y-59173276D01*
X173986380Y-59316133D01*
X173986380Y-59411371D01*
X173938761Y-59554228D01*
X173843523Y-59649466D01*
X173748285Y-59697085D01*
X173557809Y-59744704D01*
X173414952Y-59744704D01*
X173224476Y-59697085D01*
X173129238Y-59649466D01*
X173034000Y-59554228D01*
X172986380Y-59411371D01*
X172986380Y-59316133D01*
X173034000Y-59173276D01*
X173081619Y-59125657D01*
X173986380Y-58173276D02*
X173986380Y-58744704D01*
X173986380Y-58458990D02*
X172986380Y-58458990D01*
X173129238Y-58554228D01*
X173224476Y-58649466D01*
X173272095Y-58744704D01*
X173414952Y-57601847D02*
X173367333Y-57697085D01*
X173319714Y-57744704D01*
X173224476Y-57792323D01*
X173176857Y-57792323D01*
X173081619Y-57744704D01*
X173034000Y-57697085D01*
X172986380Y-57601847D01*
X172986380Y-57411371D01*
X173034000Y-57316133D01*
X173081619Y-57268514D01*
X173176857Y-57220895D01*
X173224476Y-57220895D01*
X173319714Y-57268514D01*
X173367333Y-57316133D01*
X173414952Y-57411371D01*
X173414952Y-57601847D01*
X173462571Y-57697085D01*
X173510190Y-57744704D01*
X173605428Y-57792323D01*
X173795904Y-57792323D01*
X173891142Y-57744704D01*
X173938761Y-57697085D01*
X173986380Y-57601847D01*
X173986380Y-57411371D01*
X173938761Y-57316133D01*
X173891142Y-57268514D01*
X173795904Y-57220895D01*
X173605428Y-57220895D01*
X173510190Y-57268514D01*
X173462571Y-57316133D01*
X173414952Y-57411371D01*
X173126342Y-59672457D02*
X173173961Y-59720076D01*
X173221580Y-59862933D01*
X173221580Y-59958171D01*
X173173961Y-60101028D01*
X173078723Y-60196266D01*
X172983485Y-60243885D01*
X172793009Y-60291504D01*
X172650152Y-60291504D01*
X172459676Y-60243885D01*
X172364438Y-60196266D01*
X172269200Y-60101028D01*
X172221580Y-59958171D01*
X172221580Y-59862933D01*
X172269200Y-59720076D01*
X172316819Y-59672457D01*
X173221580Y-58720076D02*
X173221580Y-59291504D01*
X173221580Y-59005790D02*
X172221580Y-59005790D01*
X172364438Y-59101028D01*
X172459676Y-59196266D01*
X172507295Y-59291504D01*
X172221580Y-58386742D02*
X172221580Y-57720076D01*
X173221580Y-58148647D01*
X174617142Y-61213942D02*
X174569523Y-61261561D01*
X174426666Y-61309180D01*
X174331428Y-61309180D01*
X174188571Y-61261561D01*
X174093333Y-61166323D01*
X174045714Y-61071085D01*
X173998095Y-60880609D01*
X173998095Y-60737752D01*
X174045714Y-60547276D01*
X174093333Y-60452038D01*
X174188571Y-60356800D01*
X174331428Y-60309180D01*
X174426666Y-60309180D01*
X174569523Y-60356800D01*
X174617142Y-60404419D01*
X175569523Y-61309180D02*
X174998095Y-61309180D01*
X175283809Y-61309180D02*
X175283809Y-60309180D01*
X175188571Y-60452038D01*
X175093333Y-60547276D01*
X174998095Y-60594895D01*
X176426666Y-60309180D02*
X176236190Y-60309180D01*
X176140952Y-60356800D01*
X176093333Y-60404419D01*
X175998095Y-60547276D01*
X175950476Y-60737752D01*
X175950476Y-61118704D01*
X175998095Y-61213942D01*
X176045714Y-61261561D01*
X176140952Y-61309180D01*
X176331428Y-61309180D01*
X176426666Y-61261561D01*
X176474285Y-61213942D01*
X176521904Y-61118704D01*
X176521904Y-60880609D01*
X176474285Y-60785371D01*
X176426666Y-60737752D01*
X176331428Y-60690133D01*
X176140952Y-60690133D01*
X176045714Y-60737752D01*
X175998095Y-60785371D01*
X175950476Y-60880609D01*
X173855142Y-60147142D02*
X173807523Y-60194761D01*
X173664666Y-60242380D01*
X173569428Y-60242380D01*
X173426571Y-60194761D01*
X173331333Y-60099523D01*
X173283714Y-60004285D01*
X173236095Y-59813809D01*
X173236095Y-59670952D01*
X173283714Y-59480476D01*
X173331333Y-59385238D01*
X173426571Y-59290000D01*
X173569428Y-59242380D01*
X173664666Y-59242380D01*
X173807523Y-59290000D01*
X173855142Y-59337619D01*
X174807523Y-60242380D02*
X174236095Y-60242380D01*
X174521809Y-60242380D02*
X174521809Y-59242380D01*
X174426571Y-59385238D01*
X174331333Y-59480476D01*
X174236095Y-59528095D01*
X175712285Y-59242380D02*
X175236095Y-59242380D01*
X175188476Y-59718571D01*
X175236095Y-59670952D01*
X175331333Y-59623333D01*
X175569428Y-59623333D01*
X175664666Y-59670952D01*
X175712285Y-59718571D01*
X175759904Y-59813809D01*
X175759904Y-60051904D01*
X175712285Y-60147142D01*
X175664666Y-60194761D01*
X175569428Y-60242380D01*
X175331333Y-60242380D01*
X175236095Y-60194761D01*
X175188476Y-60147142D01*
X174432933Y-62433142D02*
X174385314Y-62480761D01*
X174242457Y-62528380D01*
X174147219Y-62528380D01*
X174004361Y-62480761D01*
X173909123Y-62385523D01*
X173861504Y-62290285D01*
X173813885Y-62099809D01*
X173813885Y-61956952D01*
X173861504Y-61766476D01*
X173909123Y-61671238D01*
X174004361Y-61576000D01*
X174147219Y-61528380D01*
X174242457Y-61528380D01*
X174385314Y-61576000D01*
X174432933Y-61623619D01*
X174909123Y-62528380D02*
X175099600Y-62528380D01*
X175194838Y-62480761D01*
X175242457Y-62433142D01*
X175337695Y-62290285D01*
X175385314Y-62099809D01*
X175385314Y-61718857D01*
X175337695Y-61623619D01*
X175290076Y-61576000D01*
X175194838Y-61528380D01*
X175004361Y-61528380D01*
X174909123Y-61576000D01*
X174861504Y-61623619D01*
X174813885Y-61718857D01*
X174813885Y-61956952D01*
X174861504Y-62052190D01*
X174909123Y-62099809D01*
X175004361Y-62147428D01*
X175194838Y-62147428D01*
X175290076Y-62099809D01*
X175337695Y-62052190D01*
X175385314Y-61956952D01*
X175657119Y-89249238D02*
X175609500Y-89344476D01*
X175514261Y-89439714D01*
X175371404Y-89582571D01*
X175323785Y-89677809D01*
X175323785Y-89773047D01*
X175561880Y-89725428D02*
X175514261Y-89820666D01*
X175419023Y-89915904D01*
X175228547Y-89963523D01*
X174895214Y-89963523D01*
X174704738Y-89915904D01*
X174609500Y-89820666D01*
X174561880Y-89725428D01*
X174561880Y-89534952D01*
X174609500Y-89439714D01*
X174704738Y-89344476D01*
X174895214Y-89296857D01*
X175228547Y-89296857D01*
X175419023Y-89344476D01*
X175514261Y-89439714D01*
X175561880Y-89534952D01*
X175561880Y-89725428D01*
X174561880Y-88963523D02*
X174561880Y-88296857D01*
X175561880Y-88725428D01*
X169672095Y-118010880D02*
X169672095Y-118820404D01*
X169719714Y-118915642D01*
X169767333Y-118963261D01*
X169862571Y-119010880D01*
X170053047Y-119010880D01*
X170148285Y-118963261D01*
X170195904Y-118915642D01*
X170243523Y-118820404D01*
X170243523Y-118010880D01*
X170624476Y-118010880D02*
X171243523Y-118010880D01*
X170910190Y-118391833D01*
X171053047Y-118391833D01*
X171148285Y-118439452D01*
X171195904Y-118487071D01*
X171243523Y-118582309D01*
X171243523Y-118820404D01*
X171195904Y-118915642D01*
X171148285Y-118963261D01*
X171053047Y-119010880D01*
X170767333Y-119010880D01*
X170672095Y-118963261D01*
X170624476Y-118915642D01*
X187698142Y-112217142D02*
X187650523Y-112264761D01*
X187507666Y-112312380D01*
X187412428Y-112312380D01*
X187269571Y-112264761D01*
X187174333Y-112169523D01*
X187126714Y-112074285D01*
X187079095Y-111883809D01*
X187079095Y-111740952D01*
X187126714Y-111550476D01*
X187174333Y-111455238D01*
X187269571Y-111360000D01*
X187412428Y-111312380D01*
X187507666Y-111312380D01*
X187650523Y-111360000D01*
X187698142Y-111407619D01*
X188650523Y-112312380D02*
X188079095Y-112312380D01*
X188364809Y-112312380D02*
X188364809Y-111312380D01*
X188269571Y-111455238D01*
X188174333Y-111550476D01*
X188079095Y-111598095D01*
X189269571Y-111312380D02*
X189364809Y-111312380D01*
X189460047Y-111360000D01*
X189507666Y-111407619D01*
X189555285Y-111502857D01*
X189602904Y-111693333D01*
X189602904Y-111931428D01*
X189555285Y-112121904D01*
X189507666Y-112217142D01*
X189460047Y-112264761D01*
X189364809Y-112312380D01*
X189269571Y-112312380D01*
X189174333Y-112264761D01*
X189126714Y-112217142D01*
X189079095Y-112121904D01*
X189031476Y-111931428D01*
X189031476Y-111693333D01*
X189079095Y-111502857D01*
X189126714Y-111407619D01*
X189174333Y-111360000D01*
X189269571Y-111312380D01*
X169092642Y-111010642D02*
X169045023Y-111058261D01*
X168902166Y-111105880D01*
X168806928Y-111105880D01*
X168664071Y-111058261D01*
X168568833Y-110963023D01*
X168521214Y-110867785D01*
X168473595Y-110677309D01*
X168473595Y-110534452D01*
X168521214Y-110343976D01*
X168568833Y-110248738D01*
X168664071Y-110153500D01*
X168806928Y-110105880D01*
X168902166Y-110105880D01*
X169045023Y-110153500D01*
X169092642Y-110201119D01*
X170045023Y-111105880D02*
X169473595Y-111105880D01*
X169759309Y-111105880D02*
X169759309Y-110105880D01*
X169664071Y-110248738D01*
X169568833Y-110343976D01*
X169473595Y-110391595D01*
X170378357Y-110105880D02*
X170997404Y-110105880D01*
X170664071Y-110486833D01*
X170806928Y-110486833D01*
X170902166Y-110534452D01*
X170949785Y-110582071D01*
X170997404Y-110677309D01*
X170997404Y-110915404D01*
X170949785Y-111010642D01*
X170902166Y-111058261D01*
X170806928Y-111105880D01*
X170521214Y-111105880D01*
X170425976Y-111058261D01*
X170378357Y-111010642D01*
X175930642Y-111859642D02*
X175883023Y-111907261D01*
X175740166Y-111954880D01*
X175644928Y-111954880D01*
X175502071Y-111907261D01*
X175406833Y-111812023D01*
X175359214Y-111716785D01*
X175311595Y-111526309D01*
X175311595Y-111383452D01*
X175359214Y-111192976D01*
X175406833Y-111097738D01*
X175502071Y-111002500D01*
X175644928Y-110954880D01*
X175740166Y-110954880D01*
X175883023Y-111002500D01*
X175930642Y-111050119D01*
X176883023Y-111954880D02*
X176311595Y-111954880D01*
X176597309Y-111954880D02*
X176597309Y-110954880D01*
X176502071Y-111097738D01*
X176406833Y-111192976D01*
X176311595Y-111240595D01*
X177263976Y-111050119D02*
X177311595Y-111002500D01*
X177406833Y-110954880D01*
X177644928Y-110954880D01*
X177740166Y-111002500D01*
X177787785Y-111050119D01*
X177835404Y-111145357D01*
X177835404Y-111240595D01*
X177787785Y-111383452D01*
X177216357Y-111954880D01*
X177835404Y-111954880D01*
X147026333Y-71831142D02*
X146978714Y-71878761D01*
X146835857Y-71926380D01*
X146740619Y-71926380D01*
X146597761Y-71878761D01*
X146502523Y-71783523D01*
X146454904Y-71688285D01*
X146407285Y-71497809D01*
X146407285Y-71354952D01*
X146454904Y-71164476D01*
X146502523Y-71069238D01*
X146597761Y-70974000D01*
X146740619Y-70926380D01*
X146835857Y-70926380D01*
X146978714Y-70974000D01*
X147026333Y-71021619D01*
X147931095Y-70926380D02*
X147454904Y-70926380D01*
X147407285Y-71402571D01*
X147454904Y-71354952D01*
X147550142Y-71307333D01*
X147788238Y-71307333D01*
X147883476Y-71354952D01*
X147931095Y-71402571D01*
X147978714Y-71497809D01*
X147978714Y-71735904D01*
X147931095Y-71831142D01*
X147883476Y-71878761D01*
X147788238Y-71926380D01*
X147550142Y-71926380D01*
X147454904Y-71878761D01*
X147407285Y-71831142D01*
X135194642Y-105005166D02*
X135242261Y-105052785D01*
X135289880Y-105195642D01*
X135289880Y-105290880D01*
X135242261Y-105433738D01*
X135147023Y-105528976D01*
X135051785Y-105576595D01*
X134861309Y-105624214D01*
X134718452Y-105624214D01*
X134527976Y-105576595D01*
X134432738Y-105528976D01*
X134337500Y-105433738D01*
X134289880Y-105290880D01*
X134289880Y-105195642D01*
X134337500Y-105052785D01*
X134385119Y-105005166D01*
X134385119Y-104624214D02*
X134337500Y-104576595D01*
X134289880Y-104481357D01*
X134289880Y-104243261D01*
X134337500Y-104148023D01*
X134385119Y-104100404D01*
X134480357Y-104052785D01*
X134575595Y-104052785D01*
X134718452Y-104100404D01*
X135289880Y-104671833D01*
X135289880Y-104052785D01*
X148152380Y-65531904D02*
X148961904Y-65531904D01*
X149057142Y-65484285D01*
X149104761Y-65436666D01*
X149152380Y-65341428D01*
X149152380Y-65150952D01*
X149104761Y-65055714D01*
X149057142Y-65008095D01*
X148961904Y-64960476D01*
X148152380Y-64960476D01*
X148152380Y-64008095D02*
X148152380Y-64484285D01*
X148628571Y-64531904D01*
X148580952Y-64484285D01*
X148533333Y-64389047D01*
X148533333Y-64150952D01*
X148580952Y-64055714D01*
X148628571Y-64008095D01*
X148723809Y-63960476D01*
X148961904Y-63960476D01*
X149057142Y-64008095D01*
X149104761Y-64055714D01*
X149152380Y-64150952D01*
X149152380Y-64389047D01*
X149104761Y-64484285D01*
X149057142Y-64531904D01*
X190944666Y-111612761D02*
X191087523Y-111660380D01*
X191325619Y-111660380D01*
X191420857Y-111612761D01*
X191468476Y-111565142D01*
X191516095Y-111469904D01*
X191516095Y-111374666D01*
X191468476Y-111279428D01*
X191420857Y-111231809D01*
X191325619Y-111184190D01*
X191135142Y-111136571D01*
X191039904Y-111088952D01*
X190992285Y-111041333D01*
X190944666Y-110946095D01*
X190944666Y-110850857D01*
X190992285Y-110755619D01*
X191039904Y-110708000D01*
X191135142Y-110660380D01*
X191373238Y-110660380D01*
X191516095Y-110708000D01*
X191849428Y-110660380D02*
X192087523Y-111660380D01*
X192278000Y-110946095D01*
X192468476Y-111660380D01*
X192706571Y-110660380D01*
X193039904Y-110755619D02*
X193087523Y-110708000D01*
X193182761Y-110660380D01*
X193420857Y-110660380D01*
X193516095Y-110708000D01*
X193563714Y-110755619D01*
X193611333Y-110850857D01*
X193611333Y-110946095D01*
X193563714Y-111088952D01*
X192992285Y-111660380D01*
X193611333Y-111660380D01*
X194627666Y-111612761D02*
X194770523Y-111660380D01*
X195008619Y-111660380D01*
X195103857Y-111612761D01*
X195151476Y-111565142D01*
X195199095Y-111469904D01*
X195199095Y-111374666D01*
X195151476Y-111279428D01*
X195103857Y-111231809D01*
X195008619Y-111184190D01*
X194818142Y-111136571D01*
X194722904Y-111088952D01*
X194675285Y-111041333D01*
X194627666Y-110946095D01*
X194627666Y-110850857D01*
X194675285Y-110755619D01*
X194722904Y-110708000D01*
X194818142Y-110660380D01*
X195056238Y-110660380D01*
X195199095Y-110708000D01*
X195532428Y-110660380D02*
X195770523Y-111660380D01*
X195961000Y-110946095D01*
X196151476Y-111660380D01*
X196389571Y-110660380D01*
X197294333Y-111660380D02*
X196722904Y-111660380D01*
X197008619Y-111660380D02*
X197008619Y-110660380D01*
X196913380Y-110803238D01*
X196818142Y-110898476D01*
X196722904Y-110946095D01*
X142183380Y-55411666D02*
X141707190Y-55745000D01*
X142183380Y-55983095D02*
X141183380Y-55983095D01*
X141183380Y-55602142D01*
X141231000Y-55506904D01*
X141278619Y-55459285D01*
X141373857Y-55411666D01*
X141516714Y-55411666D01*
X141611952Y-55459285D01*
X141659571Y-55506904D01*
X141707190Y-55602142D01*
X141707190Y-55983095D01*
X142183380Y-54459285D02*
X142183380Y-55030714D01*
X142183380Y-54745000D02*
X141183380Y-54745000D01*
X141326238Y-54840238D01*
X141421476Y-54935476D01*
X141469095Y-55030714D01*
X159511619Y-108045238D02*
X159464000Y-108140476D01*
X159368761Y-108235714D01*
X159225904Y-108378571D01*
X159178285Y-108473809D01*
X159178285Y-108569047D01*
X159416380Y-108521428D02*
X159368761Y-108616666D01*
X159273523Y-108711904D01*
X159083047Y-108759523D01*
X158749714Y-108759523D01*
X158559238Y-108711904D01*
X158464000Y-108616666D01*
X158416380Y-108521428D01*
X158416380Y-108330952D01*
X158464000Y-108235714D01*
X158559238Y-108140476D01*
X158749714Y-108092857D01*
X159083047Y-108092857D01*
X159273523Y-108140476D01*
X159368761Y-108235714D01*
X159416380Y-108330952D01*
X159416380Y-108521428D01*
X158749714Y-107235714D02*
X159416380Y-107235714D01*
X158368761Y-107473809D02*
X159083047Y-107711904D01*
X159083047Y-107092857D01*
X160242261Y-114744119D02*
X160147023Y-114696500D01*
X160051785Y-114601261D01*
X159908928Y-114458404D01*
X159813690Y-114410785D01*
X159718452Y-114410785D01*
X159766071Y-114648880D02*
X159670833Y-114601261D01*
X159575595Y-114506023D01*
X159527976Y-114315547D01*
X159527976Y-113982214D01*
X159575595Y-113791738D01*
X159670833Y-113696500D01*
X159766071Y-113648880D01*
X159956547Y-113648880D01*
X160051785Y-113696500D01*
X160147023Y-113791738D01*
X160194642Y-113982214D01*
X160194642Y-114315547D01*
X160147023Y-114506023D01*
X160051785Y-114601261D01*
X159956547Y-114648880D01*
X159766071Y-114648880D01*
X160575595Y-113744119D02*
X160623214Y-113696500D01*
X160718452Y-113648880D01*
X160956547Y-113648880D01*
X161051785Y-113696500D01*
X161099404Y-113744119D01*
X161147023Y-113839357D01*
X161147023Y-113934595D01*
X161099404Y-114077452D01*
X160527976Y-114648880D01*
X161147023Y-114648880D01*
X139406333Y-51219380D02*
X138930142Y-51219380D01*
X138930142Y-50219380D01*
X140263476Y-51219380D02*
X139692047Y-51219380D01*
X139977761Y-51219380D02*
X139977761Y-50219380D01*
X139882523Y-50362238D01*
X139787285Y-50457476D01*
X139692047Y-50505095D01*
X142962333Y-52140142D02*
X142914714Y-52187761D01*
X142771857Y-52235380D01*
X142676619Y-52235380D01*
X142533761Y-52187761D01*
X142438523Y-52092523D01*
X142390904Y-51997285D01*
X142343285Y-51806809D01*
X142343285Y-51663952D01*
X142390904Y-51473476D01*
X142438523Y-51378238D01*
X142533761Y-51283000D01*
X142676619Y-51235380D01*
X142771857Y-51235380D01*
X142914714Y-51283000D01*
X142962333Y-51330619D01*
X143914714Y-52235380D02*
X143343285Y-52235380D01*
X143629000Y-52235380D02*
X143629000Y-51235380D01*
X143533761Y-51378238D01*
X143438523Y-51473476D01*
X143343285Y-51521095D01*
X181997880Y-94932833D02*
X182712166Y-94932833D01*
X182855023Y-94980452D01*
X182950261Y-95075690D01*
X182997880Y-95218547D01*
X182997880Y-95313785D01*
X182331214Y-94028071D02*
X182997880Y-94028071D01*
X181950261Y-94266166D02*
X182664547Y-94504261D01*
X182664547Y-93885214D01*
X186603642Y-116593857D02*
X186651261Y-116641476D01*
X186698880Y-116784333D01*
X186698880Y-116879571D01*
X186651261Y-117022428D01*
X186556023Y-117117666D01*
X186460785Y-117165285D01*
X186270309Y-117212904D01*
X186127452Y-117212904D01*
X185936976Y-117165285D01*
X185841738Y-117117666D01*
X185746500Y-117022428D01*
X185698880Y-116879571D01*
X185698880Y-116784333D01*
X185746500Y-116641476D01*
X185794119Y-116593857D01*
X186698880Y-115641476D02*
X186698880Y-116212904D01*
X186698880Y-115927190D02*
X185698880Y-115927190D01*
X185841738Y-116022428D01*
X185936976Y-116117666D01*
X185984595Y-116212904D01*
X186698880Y-114689095D02*
X186698880Y-115260523D01*
X186698880Y-114974809D02*
X185698880Y-114974809D01*
X185841738Y-115070047D01*
X185936976Y-115165285D01*
X185984595Y-115260523D01*
X175410833Y-91948142D02*
X175363214Y-91995761D01*
X175220357Y-92043380D01*
X175125119Y-92043380D01*
X174982261Y-91995761D01*
X174887023Y-91900523D01*
X174839404Y-91805285D01*
X174791785Y-91614809D01*
X174791785Y-91471952D01*
X174839404Y-91281476D01*
X174887023Y-91186238D01*
X174982261Y-91091000D01*
X175125119Y-91043380D01*
X175220357Y-91043380D01*
X175363214Y-91091000D01*
X175410833Y-91138619D01*
X176267976Y-91376714D02*
X176267976Y-92043380D01*
X176029880Y-90995761D02*
X175791785Y-91710047D01*
X176410833Y-91710047D01*
X136644142Y-75517142D02*
X136596523Y-75564761D01*
X136453666Y-75612380D01*
X136358428Y-75612380D01*
X136215571Y-75564761D01*
X136120333Y-75469523D01*
X136072714Y-75374285D01*
X136025095Y-75183809D01*
X136025095Y-75040952D01*
X136072714Y-74850476D01*
X136120333Y-74755238D01*
X136215571Y-74660000D01*
X136358428Y-74612380D01*
X136453666Y-74612380D01*
X136596523Y-74660000D01*
X136644142Y-74707619D01*
X137596523Y-75612380D02*
X137025095Y-75612380D01*
X137310809Y-75612380D02*
X137310809Y-74612380D01*
X137215571Y-74755238D01*
X137120333Y-74850476D01*
X137025095Y-74898095D01*
X138453666Y-74945714D02*
X138453666Y-75612380D01*
X138215571Y-74564761D02*
X137977476Y-75279047D01*
X138596523Y-75279047D01*
X128824571Y-118641714D02*
X128872190Y-118498857D01*
X128919809Y-118451238D01*
X129015047Y-118403619D01*
X129157904Y-118403619D01*
X129253142Y-118451238D01*
X129300761Y-118498857D01*
X129348380Y-118594095D01*
X129348380Y-118975047D01*
X128348380Y-118975047D01*
X128348380Y-118641714D01*
X128396000Y-118546476D01*
X128443619Y-118498857D01*
X128538857Y-118451238D01*
X128634095Y-118451238D01*
X128729333Y-118498857D01*
X128776952Y-118546476D01*
X128824571Y-118641714D01*
X128824571Y-118975047D01*
X128348380Y-118117904D02*
X128348380Y-117546476D01*
X129348380Y-117832190D02*
X128348380Y-117832190D01*
X129348380Y-116689333D02*
X129348380Y-117260761D01*
X129348380Y-116975047D02*
X128348380Y-116975047D01*
X128491238Y-117070285D01*
X128586476Y-117165523D01*
X128634095Y-117260761D01*
X174331404Y-108251880D02*
X174331404Y-107251880D01*
X174569500Y-107251880D01*
X174712357Y-107299500D01*
X174807595Y-107394738D01*
X174855214Y-107489976D01*
X174902833Y-107680452D01*
X174902833Y-107823309D01*
X174855214Y-108013785D01*
X174807595Y-108109023D01*
X174712357Y-108204261D01*
X174569500Y-108251880D01*
X174331404Y-108251880D01*
X175236166Y-107251880D02*
X175855214Y-107251880D01*
X175521880Y-107632833D01*
X175664738Y-107632833D01*
X175759976Y-107680452D01*
X175807595Y-107728071D01*
X175855214Y-107823309D01*
X175855214Y-108061404D01*
X175807595Y-108156642D01*
X175759976Y-108204261D01*
X175664738Y-108251880D01*
X175379023Y-108251880D01*
X175283785Y-108204261D01*
X175236166Y-108156642D01*
X171755880Y-99147190D02*
X170755880Y-99147190D01*
X171660642Y-98099571D02*
X171708261Y-98147190D01*
X171755880Y-98290047D01*
X171755880Y-98385285D01*
X171708261Y-98528142D01*
X171613023Y-98623380D01*
X171517785Y-98671000D01*
X171327309Y-98718619D01*
X171184452Y-98718619D01*
X170993976Y-98671000D01*
X170898738Y-98623380D01*
X170803500Y-98528142D01*
X170755880Y-98385285D01*
X170755880Y-98290047D01*
X170803500Y-98147190D01*
X170851119Y-98099571D01*
X170851119Y-97718619D02*
X170803500Y-97671000D01*
X170755880Y-97575761D01*
X170755880Y-97337666D01*
X170803500Y-97242428D01*
X170851119Y-97194809D01*
X170946357Y-97147190D01*
X171041595Y-97147190D01*
X171184452Y-97194809D01*
X171755880Y-97766238D01*
X171755880Y-97147190D01*
X162710833Y-110995380D02*
X162377500Y-110519190D01*
X162139404Y-110995380D02*
X162139404Y-109995380D01*
X162520357Y-109995380D01*
X162615595Y-110043000D01*
X162663214Y-110090619D01*
X162710833Y-110185857D01*
X162710833Y-110328714D01*
X162663214Y-110423952D01*
X162615595Y-110471571D01*
X162520357Y-110519190D01*
X162139404Y-110519190D01*
X163187023Y-110995380D02*
X163377500Y-110995380D01*
X163472738Y-110947761D01*
X163520357Y-110900142D01*
X163615595Y-110757285D01*
X163663214Y-110566809D01*
X163663214Y-110185857D01*
X163615595Y-110090619D01*
X163567976Y-110043000D01*
X163472738Y-109995380D01*
X163282261Y-109995380D01*
X163187023Y-110043000D01*
X163139404Y-110090619D01*
X163091785Y-110185857D01*
X163091785Y-110423952D01*
X163139404Y-110519190D01*
X163187023Y-110566809D01*
X163282261Y-110614428D01*
X163472738Y-110614428D01*
X163567976Y-110566809D01*
X163615595Y-110519190D01*
X163663214Y-110423952D01*
X169822833Y-89828642D02*
X169775214Y-89876261D01*
X169632357Y-89923880D01*
X169537119Y-89923880D01*
X169394261Y-89876261D01*
X169299023Y-89781023D01*
X169251404Y-89685785D01*
X169203785Y-89495309D01*
X169203785Y-89352452D01*
X169251404Y-89161976D01*
X169299023Y-89066738D01*
X169394261Y-88971500D01*
X169537119Y-88923880D01*
X169632357Y-88923880D01*
X169775214Y-88971500D01*
X169822833Y-89019119D01*
X170394261Y-89352452D02*
X170299023Y-89304833D01*
X170251404Y-89257214D01*
X170203785Y-89161976D01*
X170203785Y-89114357D01*
X170251404Y-89019119D01*
X170299023Y-88971500D01*
X170394261Y-88923880D01*
X170584738Y-88923880D01*
X170679976Y-88971500D01*
X170727595Y-89019119D01*
X170775214Y-89114357D01*
X170775214Y-89161976D01*
X170727595Y-89257214D01*
X170679976Y-89304833D01*
X170584738Y-89352452D01*
X170394261Y-89352452D01*
X170299023Y-89400071D01*
X170251404Y-89447690D01*
X170203785Y-89542928D01*
X170203785Y-89733404D01*
X170251404Y-89828642D01*
X170299023Y-89876261D01*
X170394261Y-89923880D01*
X170584738Y-89923880D01*
X170679976Y-89876261D01*
X170727595Y-89828642D01*
X170775214Y-89733404D01*
X170775214Y-89542928D01*
X170727595Y-89447690D01*
X170679976Y-89400071D01*
X170584738Y-89352452D01*
X179601833Y-96789642D02*
X179554214Y-96837261D01*
X179411357Y-96884880D01*
X179316119Y-96884880D01*
X179173261Y-96837261D01*
X179078023Y-96742023D01*
X179030404Y-96646785D01*
X178982785Y-96456309D01*
X178982785Y-96313452D01*
X179030404Y-96122976D01*
X179078023Y-96027738D01*
X179173261Y-95932500D01*
X179316119Y-95884880D01*
X179411357Y-95884880D01*
X179554214Y-95932500D01*
X179601833Y-95980119D01*
X179935166Y-95884880D02*
X180554214Y-95884880D01*
X180220880Y-96265833D01*
X180363738Y-96265833D01*
X180458976Y-96313452D01*
X180506595Y-96361071D01*
X180554214Y-96456309D01*
X180554214Y-96694404D01*
X180506595Y-96789642D01*
X180458976Y-96837261D01*
X180363738Y-96884880D01*
X180078023Y-96884880D01*
X179982785Y-96837261D01*
X179935166Y-96789642D01*
X150137833Y-90424142D02*
X150090214Y-90471761D01*
X149947357Y-90519380D01*
X149852119Y-90519380D01*
X149709261Y-90471761D01*
X149614023Y-90376523D01*
X149566404Y-90281285D01*
X149518785Y-90090809D01*
X149518785Y-89947952D01*
X149566404Y-89757476D01*
X149614023Y-89662238D01*
X149709261Y-89567000D01*
X149852119Y-89519380D01*
X149947357Y-89519380D01*
X150090214Y-89567000D01*
X150137833Y-89614619D01*
X150994976Y-89519380D02*
X150804500Y-89519380D01*
X150709261Y-89567000D01*
X150661642Y-89614619D01*
X150566404Y-89757476D01*
X150518785Y-89947952D01*
X150518785Y-90328904D01*
X150566404Y-90424142D01*
X150614023Y-90471761D01*
X150709261Y-90519380D01*
X150899738Y-90519380D01*
X150994976Y-90471761D01*
X151042595Y-90424142D01*
X151090214Y-90328904D01*
X151090214Y-90090809D01*
X151042595Y-89995571D01*
X150994976Y-89947952D01*
X150899738Y-89900333D01*
X150709261Y-89900333D01*
X150614023Y-89947952D01*
X150566404Y-89995571D01*
X150518785Y-90090809D01*
X145375333Y-93424142D02*
X145327714Y-93471761D01*
X145184857Y-93519380D01*
X145089619Y-93519380D01*
X144946761Y-93471761D01*
X144851523Y-93376523D01*
X144803904Y-93281285D01*
X144756285Y-93090809D01*
X144756285Y-92947952D01*
X144803904Y-92757476D01*
X144851523Y-92662238D01*
X144946761Y-92567000D01*
X145089619Y-92519380D01*
X145184857Y-92519380D01*
X145327714Y-92567000D01*
X145375333Y-92614619D01*
X145708666Y-92519380D02*
X146375333Y-92519380D01*
X145946761Y-93519380D01*
X162857642Y-89489880D02*
X162524309Y-89013690D01*
X162286214Y-89489880D02*
X162286214Y-88489880D01*
X162667166Y-88489880D01*
X162762404Y-88537500D01*
X162810023Y-88585119D01*
X162857642Y-88680357D01*
X162857642Y-88823214D01*
X162810023Y-88918452D01*
X162762404Y-88966071D01*
X162667166Y-89013690D01*
X162286214Y-89013690D01*
X163238595Y-88585119D02*
X163286214Y-88537500D01*
X163381452Y-88489880D01*
X163619547Y-88489880D01*
X163714785Y-88537500D01*
X163762404Y-88585119D01*
X163810023Y-88680357D01*
X163810023Y-88775595D01*
X163762404Y-88918452D01*
X163190976Y-89489880D01*
X163810023Y-89489880D01*
X164714785Y-88489880D02*
X164238595Y-88489880D01*
X164190976Y-88966071D01*
X164238595Y-88918452D01*
X164333833Y-88870833D01*
X164571928Y-88870833D01*
X164667166Y-88918452D01*
X164714785Y-88966071D01*
X164762404Y-89061309D01*
X164762404Y-89299404D01*
X164714785Y-89394642D01*
X164667166Y-89442261D01*
X164571928Y-89489880D01*
X164333833Y-89489880D01*
X164238595Y-89442261D01*
X164190976Y-89394642D01*
X162869642Y-90294380D02*
X162536309Y-89818190D01*
X162298214Y-90294380D02*
X162298214Y-89294380D01*
X162679166Y-89294380D01*
X162774404Y-89342000D01*
X162822023Y-89389619D01*
X162869642Y-89484857D01*
X162869642Y-89627714D01*
X162822023Y-89722952D01*
X162774404Y-89770571D01*
X162679166Y-89818190D01*
X162298214Y-89818190D01*
X163250595Y-89389619D02*
X163298214Y-89342000D01*
X163393452Y-89294380D01*
X163631547Y-89294380D01*
X163726785Y-89342000D01*
X163774404Y-89389619D01*
X163822023Y-89484857D01*
X163822023Y-89580095D01*
X163774404Y-89722952D01*
X163202976Y-90294380D01*
X163822023Y-90294380D01*
X164679166Y-89294380D02*
X164488690Y-89294380D01*
X164393452Y-89342000D01*
X164345833Y-89389619D01*
X164250595Y-89532476D01*
X164202976Y-89722952D01*
X164202976Y-90103904D01*
X164250595Y-90199142D01*
X164298214Y-90246761D01*
X164393452Y-90294380D01*
X164583928Y-90294380D01*
X164679166Y-90246761D01*
X164726785Y-90199142D01*
X164774404Y-90103904D01*
X164774404Y-89865809D01*
X164726785Y-89770571D01*
X164679166Y-89722952D01*
X164583928Y-89675333D01*
X164393452Y-89675333D01*
X164298214Y-89722952D01*
X164250595Y-89770571D01*
X164202976Y-89865809D01*
X161731880Y-89987357D02*
X161255690Y-90320690D01*
X161731880Y-90558785D02*
X160731880Y-90558785D01*
X160731880Y-90177833D01*
X160779500Y-90082595D01*
X160827119Y-90034976D01*
X160922357Y-89987357D01*
X161065214Y-89987357D01*
X161160452Y-90034976D01*
X161208071Y-90082595D01*
X161255690Y-90177833D01*
X161255690Y-90558785D01*
X160827119Y-89606404D02*
X160779500Y-89558785D01*
X160731880Y-89463547D01*
X160731880Y-89225452D01*
X160779500Y-89130214D01*
X160827119Y-89082595D01*
X160922357Y-89034976D01*
X161017595Y-89034976D01*
X161160452Y-89082595D01*
X161731880Y-89654023D01*
X161731880Y-89034976D01*
X160731880Y-88701642D02*
X160731880Y-88034976D01*
X161731880Y-88463547D01*
X133088142Y-74186380D02*
X132754809Y-73710190D01*
X132516714Y-74186380D02*
X132516714Y-73186380D01*
X132897666Y-73186380D01*
X132992904Y-73234000D01*
X133040523Y-73281619D01*
X133088142Y-73376857D01*
X133088142Y-73519714D01*
X133040523Y-73614952D01*
X132992904Y-73662571D01*
X132897666Y-73710190D01*
X132516714Y-73710190D01*
X133469095Y-73281619D02*
X133516714Y-73234000D01*
X133611952Y-73186380D01*
X133850047Y-73186380D01*
X133945285Y-73234000D01*
X133992904Y-73281619D01*
X134040523Y-73376857D01*
X134040523Y-73472095D01*
X133992904Y-73614952D01*
X133421476Y-74186380D01*
X134040523Y-74186380D01*
X134611952Y-73614952D02*
X134516714Y-73567333D01*
X134469095Y-73519714D01*
X134421476Y-73424476D01*
X134421476Y-73376857D01*
X134469095Y-73281619D01*
X134516714Y-73234000D01*
X134611952Y-73186380D01*
X134802428Y-73186380D01*
X134897666Y-73234000D01*
X134945285Y-73281619D01*
X134992904Y-73376857D01*
X134992904Y-73424476D01*
X134945285Y-73519714D01*
X134897666Y-73567333D01*
X134802428Y-73614952D01*
X134611952Y-73614952D01*
X134516714Y-73662571D01*
X134469095Y-73710190D01*
X134421476Y-73805428D01*
X134421476Y-73995904D01*
X134469095Y-74091142D01*
X134516714Y-74138761D01*
X134611952Y-74186380D01*
X134802428Y-74186380D01*
X134897666Y-74138761D01*
X134945285Y-74091142D01*
X134992904Y-73995904D01*
X134992904Y-73805428D01*
X134945285Y-73710190D01*
X134897666Y-73662571D01*
X134802428Y-73614952D01*
X169410142Y-88922780D02*
X169076809Y-88446590D01*
X168838714Y-88922780D02*
X168838714Y-87922780D01*
X169219666Y-87922780D01*
X169314904Y-87970400D01*
X169362523Y-88018019D01*
X169410142Y-88113257D01*
X169410142Y-88256114D01*
X169362523Y-88351352D01*
X169314904Y-88398971D01*
X169219666Y-88446590D01*
X168838714Y-88446590D01*
X169743476Y-87922780D02*
X170362523Y-87922780D01*
X170029190Y-88303733D01*
X170172047Y-88303733D01*
X170267285Y-88351352D01*
X170314904Y-88398971D01*
X170362523Y-88494209D01*
X170362523Y-88732304D01*
X170314904Y-88827542D01*
X170267285Y-88875161D01*
X170172047Y-88922780D01*
X169886333Y-88922780D01*
X169791095Y-88875161D01*
X169743476Y-88827542D01*
X170981571Y-87922780D02*
X171076809Y-87922780D01*
X171172047Y-87970400D01*
X171219666Y-88018019D01*
X171267285Y-88113257D01*
X171314904Y-88303733D01*
X171314904Y-88541828D01*
X171267285Y-88732304D01*
X171219666Y-88827542D01*
X171172047Y-88875161D01*
X171076809Y-88922780D01*
X170981571Y-88922780D01*
X170886333Y-88875161D01*
X170838714Y-88827542D01*
X170791095Y-88732304D01*
X170743476Y-88541828D01*
X170743476Y-88303733D01*
X170791095Y-88113257D01*
X170838714Y-88018019D01*
X170886333Y-87970400D01*
X170981571Y-87922780D01*
X155948142Y-107058380D02*
X155614809Y-106582190D01*
X155376714Y-107058380D02*
X155376714Y-106058380D01*
X155757666Y-106058380D01*
X155852904Y-106106000D01*
X155900523Y-106153619D01*
X155948142Y-106248857D01*
X155948142Y-106391714D01*
X155900523Y-106486952D01*
X155852904Y-106534571D01*
X155757666Y-106582190D01*
X155376714Y-106582190D01*
X156329095Y-106153619D02*
X156376714Y-106106000D01*
X156471952Y-106058380D01*
X156710047Y-106058380D01*
X156805285Y-106106000D01*
X156852904Y-106153619D01*
X156900523Y-106248857D01*
X156900523Y-106344095D01*
X156852904Y-106486952D01*
X156281476Y-107058380D01*
X156900523Y-107058380D01*
X157519571Y-106058380D02*
X157614809Y-106058380D01*
X157710047Y-106106000D01*
X157757666Y-106153619D01*
X157805285Y-106248857D01*
X157852904Y-106439333D01*
X157852904Y-106677428D01*
X157805285Y-106867904D01*
X157757666Y-106963142D01*
X157710047Y-107010761D01*
X157614809Y-107058380D01*
X157519571Y-107058380D01*
X157424333Y-107010761D01*
X157376714Y-106963142D01*
X157329095Y-106867904D01*
X157281476Y-106677428D01*
X157281476Y-106439333D01*
X157329095Y-106248857D01*
X157376714Y-106153619D01*
X157424333Y-106106000D01*
X157519571Y-106058380D01*
X152291380Y-62777666D02*
X151815190Y-63111000D01*
X152291380Y-63349095D02*
X151291380Y-63349095D01*
X151291380Y-62968142D01*
X151339000Y-62872904D01*
X151386619Y-62825285D01*
X151481857Y-62777666D01*
X151624714Y-62777666D01*
X151719952Y-62825285D01*
X151767571Y-62872904D01*
X151815190Y-62968142D01*
X151815190Y-63349095D01*
X151386619Y-62396714D02*
X151339000Y-62349095D01*
X151291380Y-62253857D01*
X151291380Y-62015761D01*
X151339000Y-61920523D01*
X151386619Y-61872904D01*
X151481857Y-61825285D01*
X151577095Y-61825285D01*
X151719952Y-61872904D01*
X152291380Y-62444333D01*
X152291380Y-61825285D01*
X136136142Y-103904380D02*
X135802809Y-103428190D01*
X135564714Y-103904380D02*
X135564714Y-102904380D01*
X135945666Y-102904380D01*
X136040904Y-102952000D01*
X136088523Y-102999619D01*
X136136142Y-103094857D01*
X136136142Y-103237714D01*
X136088523Y-103332952D01*
X136040904Y-103380571D01*
X135945666Y-103428190D01*
X135564714Y-103428190D01*
X136517095Y-102999619D02*
X136564714Y-102952000D01*
X136659952Y-102904380D01*
X136898047Y-102904380D01*
X136993285Y-102952000D01*
X137040904Y-102999619D01*
X137088523Y-103094857D01*
X137088523Y-103190095D01*
X137040904Y-103332952D01*
X136469476Y-103904380D01*
X137088523Y-103904380D01*
X137469476Y-102999619D02*
X137517095Y-102952000D01*
X137612333Y-102904380D01*
X137850428Y-102904380D01*
X137945666Y-102952000D01*
X137993285Y-102999619D01*
X138040904Y-103094857D01*
X138040904Y-103190095D01*
X137993285Y-103332952D01*
X137421857Y-103904380D01*
X138040904Y-103904380D01*
X165478380Y-107195857D02*
X165002190Y-107529190D01*
X165478380Y-107767285D02*
X164478380Y-107767285D01*
X164478380Y-107386333D01*
X164526000Y-107291095D01*
X164573619Y-107243476D01*
X164668857Y-107195857D01*
X164811714Y-107195857D01*
X164906952Y-107243476D01*
X164954571Y-107291095D01*
X165002190Y-107386333D01*
X165002190Y-107767285D01*
X165478380Y-106243476D02*
X165478380Y-106814904D01*
X165478380Y-106529190D02*
X164478380Y-106529190D01*
X164621238Y-106624428D01*
X164716476Y-106719666D01*
X164764095Y-106814904D01*
X164478380Y-105386333D02*
X164478380Y-105576809D01*
X164526000Y-105672047D01*
X164573619Y-105719666D01*
X164716476Y-105814904D01*
X164906952Y-105862523D01*
X165287904Y-105862523D01*
X165383142Y-105814904D01*
X165430761Y-105767285D01*
X165478380Y-105672047D01*
X165478380Y-105481571D01*
X165430761Y-105386333D01*
X165383142Y-105338714D01*
X165287904Y-105291095D01*
X165049809Y-105291095D01*
X164954571Y-105338714D01*
X164906952Y-105386333D01*
X164859333Y-105481571D01*
X164859333Y-105672047D01*
X164906952Y-105767285D01*
X164954571Y-105814904D01*
X165049809Y-105862523D01*
X162049380Y-105608357D02*
X161573190Y-105941690D01*
X162049380Y-106179785D02*
X161049380Y-106179785D01*
X161049380Y-105798833D01*
X161097000Y-105703595D01*
X161144619Y-105655976D01*
X161239857Y-105608357D01*
X161382714Y-105608357D01*
X161477952Y-105655976D01*
X161525571Y-105703595D01*
X161573190Y-105798833D01*
X161573190Y-106179785D01*
X162049380Y-104655976D02*
X162049380Y-105227404D01*
X162049380Y-104941690D02*
X161049380Y-104941690D01*
X161192238Y-105036928D01*
X161287476Y-105132166D01*
X161335095Y-105227404D01*
X161049380Y-103751214D02*
X161049380Y-104227404D01*
X161525571Y-104275023D01*
X161477952Y-104227404D01*
X161430333Y-104132166D01*
X161430333Y-103894071D01*
X161477952Y-103798833D01*
X161525571Y-103751214D01*
X161620809Y-103703595D01*
X161858904Y-103703595D01*
X161954142Y-103751214D01*
X162001761Y-103798833D01*
X162049380Y-103894071D01*
X162049380Y-104132166D01*
X162001761Y-104227404D01*
X161954142Y-104275023D01*
X167346333Y-108391880D02*
X167013000Y-107915690D01*
X166774904Y-108391880D02*
X166774904Y-107391880D01*
X167155857Y-107391880D01*
X167251095Y-107439500D01*
X167298714Y-107487119D01*
X167346333Y-107582357D01*
X167346333Y-107725214D01*
X167298714Y-107820452D01*
X167251095Y-107868071D01*
X167155857Y-107915690D01*
X166774904Y-107915690D01*
X167679666Y-107391880D02*
X168298714Y-107391880D01*
X167965380Y-107772833D01*
X168108238Y-107772833D01*
X168203476Y-107820452D01*
X168251095Y-107868071D01*
X168298714Y-107963309D01*
X168298714Y-108201404D01*
X168251095Y-108296642D01*
X168203476Y-108344261D01*
X168108238Y-108391880D01*
X167822523Y-108391880D01*
X167727285Y-108344261D01*
X167679666Y-108296642D01*
X160800380Y-107195857D02*
X160324190Y-107529190D01*
X160800380Y-107767285D02*
X159800380Y-107767285D01*
X159800380Y-107386333D01*
X159848000Y-107291095D01*
X159895619Y-107243476D01*
X159990857Y-107195857D01*
X160133714Y-107195857D01*
X160228952Y-107243476D01*
X160276571Y-107291095D01*
X160324190Y-107386333D01*
X160324190Y-107767285D01*
X160800380Y-106243476D02*
X160800380Y-106814904D01*
X160800380Y-106529190D02*
X159800380Y-106529190D01*
X159943238Y-106624428D01*
X160038476Y-106719666D01*
X160086095Y-106814904D01*
X159800380Y-105910142D02*
X159800380Y-105291095D01*
X160181333Y-105624428D01*
X160181333Y-105481571D01*
X160228952Y-105386333D01*
X160276571Y-105338714D01*
X160371809Y-105291095D01*
X160609904Y-105291095D01*
X160705142Y-105338714D01*
X160752761Y-105386333D01*
X160800380Y-105481571D01*
X160800380Y-105767285D01*
X160752761Y-105862523D01*
X160705142Y-105910142D01*
X169346642Y-93977380D02*
X169013309Y-93501190D01*
X168775214Y-93977380D02*
X168775214Y-92977380D01*
X169156166Y-92977380D01*
X169251404Y-93025000D01*
X169299023Y-93072619D01*
X169346642Y-93167857D01*
X169346642Y-93310714D01*
X169299023Y-93405952D01*
X169251404Y-93453571D01*
X169156166Y-93501190D01*
X168775214Y-93501190D01*
X170299023Y-93977380D02*
X169727595Y-93977380D01*
X170013309Y-93977380D02*
X170013309Y-92977380D01*
X169918071Y-93120238D01*
X169822833Y-93215476D01*
X169727595Y-93263095D01*
X171251404Y-93977380D02*
X170679976Y-93977380D01*
X170965690Y-93977380D02*
X170965690Y-92977380D01*
X170870452Y-93120238D01*
X170775214Y-93215476D01*
X170679976Y-93263095D01*
X175283833Y-96771380D02*
X174950500Y-96295190D01*
X174712404Y-96771380D02*
X174712404Y-95771380D01*
X175093357Y-95771380D01*
X175188595Y-95819000D01*
X175236214Y-95866619D01*
X175283833Y-95961857D01*
X175283833Y-96104714D01*
X175236214Y-96199952D01*
X175188595Y-96247571D01*
X175093357Y-96295190D01*
X174712404Y-96295190D01*
X176140976Y-95771380D02*
X175950500Y-95771380D01*
X175855261Y-95819000D01*
X175807642Y-95866619D01*
X175712404Y-96009476D01*
X175664785Y-96199952D01*
X175664785Y-96580904D01*
X175712404Y-96676142D01*
X175760023Y-96723761D01*
X175855261Y-96771380D01*
X176045738Y-96771380D01*
X176140976Y-96723761D01*
X176188595Y-96676142D01*
X176236214Y-96580904D01*
X176236214Y-96342809D01*
X176188595Y-96247571D01*
X176140976Y-96199952D01*
X176045738Y-96152333D01*
X175855261Y-96152333D01*
X175760023Y-96199952D01*
X175712404Y-96247571D01*
X175664785Y-96342809D01*
X179474833Y-94993380D02*
X179141500Y-94517190D01*
X178903404Y-94993380D02*
X178903404Y-93993380D01*
X179284357Y-93993380D01*
X179379595Y-94041000D01*
X179427214Y-94088619D01*
X179474833Y-94183857D01*
X179474833Y-94326714D01*
X179427214Y-94421952D01*
X179379595Y-94469571D01*
X179284357Y-94517190D01*
X178903404Y-94517190D01*
X180379595Y-93993380D02*
X179903404Y-93993380D01*
X179855785Y-94469571D01*
X179903404Y-94421952D01*
X179998642Y-94374333D01*
X180236738Y-94374333D01*
X180331976Y-94421952D01*
X180379595Y-94469571D01*
X180427214Y-94564809D01*
X180427214Y-94802904D01*
X180379595Y-94898142D01*
X180331976Y-94945761D01*
X180236738Y-94993380D01*
X179998642Y-94993380D01*
X179903404Y-94945761D01*
X179855785Y-94898142D01*
X154323380Y-62777666D02*
X153847190Y-63111000D01*
X154323380Y-63349095D02*
X153323380Y-63349095D01*
X153323380Y-62968142D01*
X153371000Y-62872904D01*
X153418619Y-62825285D01*
X153513857Y-62777666D01*
X153656714Y-62777666D01*
X153751952Y-62825285D01*
X153799571Y-62872904D01*
X153847190Y-62968142D01*
X153847190Y-63349095D01*
X153656714Y-61920523D02*
X154323380Y-61920523D01*
X153275761Y-62158619D02*
X153990047Y-62396714D01*
X153990047Y-61777666D01*
X159123142Y-110868380D02*
X158789809Y-110392190D01*
X158551714Y-110868380D02*
X158551714Y-109868380D01*
X158932666Y-109868380D01*
X159027904Y-109916000D01*
X159075523Y-109963619D01*
X159123142Y-110058857D01*
X159123142Y-110201714D01*
X159075523Y-110296952D01*
X159027904Y-110344571D01*
X158932666Y-110392190D01*
X158551714Y-110392190D01*
X160075523Y-110868380D02*
X159504095Y-110868380D01*
X159789809Y-110868380D02*
X159789809Y-109868380D01*
X159694571Y-110011238D01*
X159599333Y-110106476D01*
X159504095Y-110154095D01*
X160408857Y-109868380D02*
X161075523Y-109868380D01*
X160646952Y-110868380D01*
X163636880Y-115546166D02*
X163160690Y-115879500D01*
X163636880Y-116117595D02*
X162636880Y-116117595D01*
X162636880Y-115736642D01*
X162684500Y-115641404D01*
X162732119Y-115593785D01*
X162827357Y-115546166D01*
X162970214Y-115546166D01*
X163065452Y-115593785D01*
X163113071Y-115641404D01*
X163160690Y-115736642D01*
X163160690Y-116117595D01*
X163065452Y-114974738D02*
X163017833Y-115069976D01*
X162970214Y-115117595D01*
X162874976Y-115165214D01*
X162827357Y-115165214D01*
X162732119Y-115117595D01*
X162684500Y-115069976D01*
X162636880Y-114974738D01*
X162636880Y-114784261D01*
X162684500Y-114689023D01*
X162732119Y-114641404D01*
X162827357Y-114593785D01*
X162874976Y-114593785D01*
X162970214Y-114641404D01*
X163017833Y-114689023D01*
X163065452Y-114784261D01*
X163065452Y-114974738D01*
X163113071Y-115069976D01*
X163160690Y-115117595D01*
X163255928Y-115165214D01*
X163446404Y-115165214D01*
X163541642Y-115117595D01*
X163589261Y-115069976D01*
X163636880Y-114974738D01*
X163636880Y-114784261D01*
X163589261Y-114689023D01*
X163541642Y-114641404D01*
X163446404Y-114593785D01*
X163255928Y-114593785D01*
X163160690Y-114641404D01*
X163113071Y-114689023D01*
X163065452Y-114784261D01*
M02*
