G04 #@! TF.GenerationSoftware,KiCad,Pcbnew,(5.1.5)-3*
G04 #@! TF.CreationDate,2020-05-03T22:11:19-07:00*
G04 #@! TF.ProjectId,DashSight-Mezzanine-Card,44617368-5369-4676-9874-2d4d657a7a61,rev?*
G04 #@! TF.SameCoordinates,Original*
G04 #@! TF.FileFunction,Paste,Top*
G04 #@! TF.FilePolarity,Positive*
%FSLAX46Y46*%
G04 Gerber Fmt 4.6, Leading zero omitted, Abs format (unit mm)*
G04 Created by KiCad (PCBNEW (5.1.5)-3) date 2020-05-03 22:11:19*
%MOMM*%
%LPD*%
G04 APERTURE LIST*
%ADD10C,0.100000*%
%ADD11R,0.350000X0.230000*%
%ADD12R,0.230000X0.350000*%
%ADD13R,1.998980X1.198880*%
%ADD14R,1.348740X0.599440*%
%ADD15R,0.800000X0.900000*%
%ADD16R,0.800000X1.800000*%
%ADD17R,0.900000X0.800000*%
%ADD18R,0.800000X0.750000*%
%ADD19R,4.000000X4.000000*%
%ADD20R,5.100000X1.800000*%
%ADD21R,2.500000X1.800000*%
%ADD22R,0.500000X0.900000*%
%ADD23R,0.600000X0.500000*%
%ADD24R,0.900000X0.500000*%
G04 APERTURE END LIST*
D10*
G36*
X138187691Y-75726053D02*
G01*
X138208926Y-75729203D01*
X138229750Y-75734419D01*
X138249962Y-75741651D01*
X138269368Y-75750830D01*
X138287781Y-75761866D01*
X138305024Y-75774654D01*
X138320930Y-75789070D01*
X138335346Y-75804976D01*
X138348134Y-75822219D01*
X138359170Y-75840632D01*
X138368349Y-75860038D01*
X138375581Y-75880250D01*
X138380797Y-75901074D01*
X138383947Y-75922309D01*
X138385000Y-75943750D01*
X138385000Y-76456250D01*
X138383947Y-76477691D01*
X138380797Y-76498926D01*
X138375581Y-76519750D01*
X138368349Y-76539962D01*
X138359170Y-76559368D01*
X138348134Y-76577781D01*
X138335346Y-76595024D01*
X138320930Y-76610930D01*
X138305024Y-76625346D01*
X138287781Y-76638134D01*
X138269368Y-76649170D01*
X138249962Y-76658349D01*
X138229750Y-76665581D01*
X138208926Y-76670797D01*
X138187691Y-76673947D01*
X138166250Y-76675000D01*
X137728750Y-76675000D01*
X137707309Y-76673947D01*
X137686074Y-76670797D01*
X137665250Y-76665581D01*
X137645038Y-76658349D01*
X137625632Y-76649170D01*
X137607219Y-76638134D01*
X137589976Y-76625346D01*
X137574070Y-76610930D01*
X137559654Y-76595024D01*
X137546866Y-76577781D01*
X137535830Y-76559368D01*
X137526651Y-76539962D01*
X137519419Y-76519750D01*
X137514203Y-76498926D01*
X137511053Y-76477691D01*
X137510000Y-76456250D01*
X137510000Y-75943750D01*
X137511053Y-75922309D01*
X137514203Y-75901074D01*
X137519419Y-75880250D01*
X137526651Y-75860038D01*
X137535830Y-75840632D01*
X137546866Y-75822219D01*
X137559654Y-75804976D01*
X137574070Y-75789070D01*
X137589976Y-75774654D01*
X137607219Y-75761866D01*
X137625632Y-75750830D01*
X137645038Y-75741651D01*
X137665250Y-75734419D01*
X137686074Y-75729203D01*
X137707309Y-75726053D01*
X137728750Y-75725000D01*
X138166250Y-75725000D01*
X138187691Y-75726053D01*
G37*
G36*
X136612691Y-75726053D02*
G01*
X136633926Y-75729203D01*
X136654750Y-75734419D01*
X136674962Y-75741651D01*
X136694368Y-75750830D01*
X136712781Y-75761866D01*
X136730024Y-75774654D01*
X136745930Y-75789070D01*
X136760346Y-75804976D01*
X136773134Y-75822219D01*
X136784170Y-75840632D01*
X136793349Y-75860038D01*
X136800581Y-75880250D01*
X136805797Y-75901074D01*
X136808947Y-75922309D01*
X136810000Y-75943750D01*
X136810000Y-76456250D01*
X136808947Y-76477691D01*
X136805797Y-76498926D01*
X136800581Y-76519750D01*
X136793349Y-76539962D01*
X136784170Y-76559368D01*
X136773134Y-76577781D01*
X136760346Y-76595024D01*
X136745930Y-76610930D01*
X136730024Y-76625346D01*
X136712781Y-76638134D01*
X136694368Y-76649170D01*
X136674962Y-76658349D01*
X136654750Y-76665581D01*
X136633926Y-76670797D01*
X136612691Y-76673947D01*
X136591250Y-76675000D01*
X136153750Y-76675000D01*
X136132309Y-76673947D01*
X136111074Y-76670797D01*
X136090250Y-76665581D01*
X136070038Y-76658349D01*
X136050632Y-76649170D01*
X136032219Y-76638134D01*
X136014976Y-76625346D01*
X135999070Y-76610930D01*
X135984654Y-76595024D01*
X135971866Y-76577781D01*
X135960830Y-76559368D01*
X135951651Y-76539962D01*
X135944419Y-76519750D01*
X135939203Y-76498926D01*
X135936053Y-76477691D01*
X135935000Y-76456250D01*
X135935000Y-75943750D01*
X135936053Y-75922309D01*
X135939203Y-75901074D01*
X135944419Y-75880250D01*
X135951651Y-75860038D01*
X135960830Y-75840632D01*
X135971866Y-75822219D01*
X135984654Y-75804976D01*
X135999070Y-75789070D01*
X136014976Y-75774654D01*
X136032219Y-75761866D01*
X136050632Y-75750830D01*
X136070038Y-75741651D01*
X136090250Y-75734419D01*
X136111074Y-75729203D01*
X136132309Y-75726053D01*
X136153750Y-75725000D01*
X136591250Y-75725000D01*
X136612691Y-75726053D01*
G37*
G36*
X151421703Y-115546722D02*
G01*
X151436264Y-115548882D01*
X151450543Y-115552459D01*
X151464403Y-115557418D01*
X151477710Y-115563712D01*
X151490336Y-115571280D01*
X151502159Y-115580048D01*
X151513066Y-115589934D01*
X151522952Y-115600841D01*
X151531720Y-115612664D01*
X151539288Y-115625290D01*
X151545582Y-115638597D01*
X151550541Y-115652457D01*
X151554118Y-115666736D01*
X151556278Y-115681297D01*
X151557000Y-115696000D01*
X151557000Y-117346000D01*
X151556278Y-117360703D01*
X151554118Y-117375264D01*
X151550541Y-117389543D01*
X151545582Y-117403403D01*
X151539288Y-117416710D01*
X151531720Y-117429336D01*
X151522952Y-117441159D01*
X151513066Y-117452066D01*
X151502159Y-117461952D01*
X151490336Y-117470720D01*
X151477710Y-117478288D01*
X151464403Y-117484582D01*
X151450543Y-117489541D01*
X151436264Y-117493118D01*
X151421703Y-117495278D01*
X151407000Y-117496000D01*
X151107000Y-117496000D01*
X151092297Y-117495278D01*
X151077736Y-117493118D01*
X151063457Y-117489541D01*
X151049597Y-117484582D01*
X151036290Y-117478288D01*
X151023664Y-117470720D01*
X151011841Y-117461952D01*
X151000934Y-117452066D01*
X150991048Y-117441159D01*
X150982280Y-117429336D01*
X150974712Y-117416710D01*
X150968418Y-117403403D01*
X150963459Y-117389543D01*
X150959882Y-117375264D01*
X150957722Y-117360703D01*
X150957000Y-117346000D01*
X150957000Y-115696000D01*
X150957722Y-115681297D01*
X150959882Y-115666736D01*
X150963459Y-115652457D01*
X150968418Y-115638597D01*
X150974712Y-115625290D01*
X150982280Y-115612664D01*
X150991048Y-115600841D01*
X151000934Y-115589934D01*
X151011841Y-115580048D01*
X151023664Y-115571280D01*
X151036290Y-115563712D01*
X151049597Y-115557418D01*
X151063457Y-115552459D01*
X151077736Y-115548882D01*
X151092297Y-115546722D01*
X151107000Y-115546000D01*
X151407000Y-115546000D01*
X151421703Y-115546722D01*
G37*
G36*
X150151703Y-115546722D02*
G01*
X150166264Y-115548882D01*
X150180543Y-115552459D01*
X150194403Y-115557418D01*
X150207710Y-115563712D01*
X150220336Y-115571280D01*
X150232159Y-115580048D01*
X150243066Y-115589934D01*
X150252952Y-115600841D01*
X150261720Y-115612664D01*
X150269288Y-115625290D01*
X150275582Y-115638597D01*
X150280541Y-115652457D01*
X150284118Y-115666736D01*
X150286278Y-115681297D01*
X150287000Y-115696000D01*
X150287000Y-117346000D01*
X150286278Y-117360703D01*
X150284118Y-117375264D01*
X150280541Y-117389543D01*
X150275582Y-117403403D01*
X150269288Y-117416710D01*
X150261720Y-117429336D01*
X150252952Y-117441159D01*
X150243066Y-117452066D01*
X150232159Y-117461952D01*
X150220336Y-117470720D01*
X150207710Y-117478288D01*
X150194403Y-117484582D01*
X150180543Y-117489541D01*
X150166264Y-117493118D01*
X150151703Y-117495278D01*
X150137000Y-117496000D01*
X149837000Y-117496000D01*
X149822297Y-117495278D01*
X149807736Y-117493118D01*
X149793457Y-117489541D01*
X149779597Y-117484582D01*
X149766290Y-117478288D01*
X149753664Y-117470720D01*
X149741841Y-117461952D01*
X149730934Y-117452066D01*
X149721048Y-117441159D01*
X149712280Y-117429336D01*
X149704712Y-117416710D01*
X149698418Y-117403403D01*
X149693459Y-117389543D01*
X149689882Y-117375264D01*
X149687722Y-117360703D01*
X149687000Y-117346000D01*
X149687000Y-115696000D01*
X149687722Y-115681297D01*
X149689882Y-115666736D01*
X149693459Y-115652457D01*
X149698418Y-115638597D01*
X149704712Y-115625290D01*
X149712280Y-115612664D01*
X149721048Y-115600841D01*
X149730934Y-115589934D01*
X149741841Y-115580048D01*
X149753664Y-115571280D01*
X149766290Y-115563712D01*
X149779597Y-115557418D01*
X149793457Y-115552459D01*
X149807736Y-115548882D01*
X149822297Y-115546722D01*
X149837000Y-115546000D01*
X150137000Y-115546000D01*
X150151703Y-115546722D01*
G37*
G36*
X148881703Y-115546722D02*
G01*
X148896264Y-115548882D01*
X148910543Y-115552459D01*
X148924403Y-115557418D01*
X148937710Y-115563712D01*
X148950336Y-115571280D01*
X148962159Y-115580048D01*
X148973066Y-115589934D01*
X148982952Y-115600841D01*
X148991720Y-115612664D01*
X148999288Y-115625290D01*
X149005582Y-115638597D01*
X149010541Y-115652457D01*
X149014118Y-115666736D01*
X149016278Y-115681297D01*
X149017000Y-115696000D01*
X149017000Y-117346000D01*
X149016278Y-117360703D01*
X149014118Y-117375264D01*
X149010541Y-117389543D01*
X149005582Y-117403403D01*
X148999288Y-117416710D01*
X148991720Y-117429336D01*
X148982952Y-117441159D01*
X148973066Y-117452066D01*
X148962159Y-117461952D01*
X148950336Y-117470720D01*
X148937710Y-117478288D01*
X148924403Y-117484582D01*
X148910543Y-117489541D01*
X148896264Y-117493118D01*
X148881703Y-117495278D01*
X148867000Y-117496000D01*
X148567000Y-117496000D01*
X148552297Y-117495278D01*
X148537736Y-117493118D01*
X148523457Y-117489541D01*
X148509597Y-117484582D01*
X148496290Y-117478288D01*
X148483664Y-117470720D01*
X148471841Y-117461952D01*
X148460934Y-117452066D01*
X148451048Y-117441159D01*
X148442280Y-117429336D01*
X148434712Y-117416710D01*
X148428418Y-117403403D01*
X148423459Y-117389543D01*
X148419882Y-117375264D01*
X148417722Y-117360703D01*
X148417000Y-117346000D01*
X148417000Y-115696000D01*
X148417722Y-115681297D01*
X148419882Y-115666736D01*
X148423459Y-115652457D01*
X148428418Y-115638597D01*
X148434712Y-115625290D01*
X148442280Y-115612664D01*
X148451048Y-115600841D01*
X148460934Y-115589934D01*
X148471841Y-115580048D01*
X148483664Y-115571280D01*
X148496290Y-115563712D01*
X148509597Y-115557418D01*
X148523457Y-115552459D01*
X148537736Y-115548882D01*
X148552297Y-115546722D01*
X148567000Y-115546000D01*
X148867000Y-115546000D01*
X148881703Y-115546722D01*
G37*
G36*
X147611703Y-115546722D02*
G01*
X147626264Y-115548882D01*
X147640543Y-115552459D01*
X147654403Y-115557418D01*
X147667710Y-115563712D01*
X147680336Y-115571280D01*
X147692159Y-115580048D01*
X147703066Y-115589934D01*
X147712952Y-115600841D01*
X147721720Y-115612664D01*
X147729288Y-115625290D01*
X147735582Y-115638597D01*
X147740541Y-115652457D01*
X147744118Y-115666736D01*
X147746278Y-115681297D01*
X147747000Y-115696000D01*
X147747000Y-117346000D01*
X147746278Y-117360703D01*
X147744118Y-117375264D01*
X147740541Y-117389543D01*
X147735582Y-117403403D01*
X147729288Y-117416710D01*
X147721720Y-117429336D01*
X147712952Y-117441159D01*
X147703066Y-117452066D01*
X147692159Y-117461952D01*
X147680336Y-117470720D01*
X147667710Y-117478288D01*
X147654403Y-117484582D01*
X147640543Y-117489541D01*
X147626264Y-117493118D01*
X147611703Y-117495278D01*
X147597000Y-117496000D01*
X147297000Y-117496000D01*
X147282297Y-117495278D01*
X147267736Y-117493118D01*
X147253457Y-117489541D01*
X147239597Y-117484582D01*
X147226290Y-117478288D01*
X147213664Y-117470720D01*
X147201841Y-117461952D01*
X147190934Y-117452066D01*
X147181048Y-117441159D01*
X147172280Y-117429336D01*
X147164712Y-117416710D01*
X147158418Y-117403403D01*
X147153459Y-117389543D01*
X147149882Y-117375264D01*
X147147722Y-117360703D01*
X147147000Y-117346000D01*
X147147000Y-115696000D01*
X147147722Y-115681297D01*
X147149882Y-115666736D01*
X147153459Y-115652457D01*
X147158418Y-115638597D01*
X147164712Y-115625290D01*
X147172280Y-115612664D01*
X147181048Y-115600841D01*
X147190934Y-115589934D01*
X147201841Y-115580048D01*
X147213664Y-115571280D01*
X147226290Y-115563712D01*
X147239597Y-115557418D01*
X147253457Y-115552459D01*
X147267736Y-115548882D01*
X147282297Y-115546722D01*
X147297000Y-115546000D01*
X147597000Y-115546000D01*
X147611703Y-115546722D01*
G37*
G36*
X147611703Y-110596722D02*
G01*
X147626264Y-110598882D01*
X147640543Y-110602459D01*
X147654403Y-110607418D01*
X147667710Y-110613712D01*
X147680336Y-110621280D01*
X147692159Y-110630048D01*
X147703066Y-110639934D01*
X147712952Y-110650841D01*
X147721720Y-110662664D01*
X147729288Y-110675290D01*
X147735582Y-110688597D01*
X147740541Y-110702457D01*
X147744118Y-110716736D01*
X147746278Y-110731297D01*
X147747000Y-110746000D01*
X147747000Y-112396000D01*
X147746278Y-112410703D01*
X147744118Y-112425264D01*
X147740541Y-112439543D01*
X147735582Y-112453403D01*
X147729288Y-112466710D01*
X147721720Y-112479336D01*
X147712952Y-112491159D01*
X147703066Y-112502066D01*
X147692159Y-112511952D01*
X147680336Y-112520720D01*
X147667710Y-112528288D01*
X147654403Y-112534582D01*
X147640543Y-112539541D01*
X147626264Y-112543118D01*
X147611703Y-112545278D01*
X147597000Y-112546000D01*
X147297000Y-112546000D01*
X147282297Y-112545278D01*
X147267736Y-112543118D01*
X147253457Y-112539541D01*
X147239597Y-112534582D01*
X147226290Y-112528288D01*
X147213664Y-112520720D01*
X147201841Y-112511952D01*
X147190934Y-112502066D01*
X147181048Y-112491159D01*
X147172280Y-112479336D01*
X147164712Y-112466710D01*
X147158418Y-112453403D01*
X147153459Y-112439543D01*
X147149882Y-112425264D01*
X147147722Y-112410703D01*
X147147000Y-112396000D01*
X147147000Y-110746000D01*
X147147722Y-110731297D01*
X147149882Y-110716736D01*
X147153459Y-110702457D01*
X147158418Y-110688597D01*
X147164712Y-110675290D01*
X147172280Y-110662664D01*
X147181048Y-110650841D01*
X147190934Y-110639934D01*
X147201841Y-110630048D01*
X147213664Y-110621280D01*
X147226290Y-110613712D01*
X147239597Y-110607418D01*
X147253457Y-110602459D01*
X147267736Y-110598882D01*
X147282297Y-110596722D01*
X147297000Y-110596000D01*
X147597000Y-110596000D01*
X147611703Y-110596722D01*
G37*
G36*
X148881703Y-110596722D02*
G01*
X148896264Y-110598882D01*
X148910543Y-110602459D01*
X148924403Y-110607418D01*
X148937710Y-110613712D01*
X148950336Y-110621280D01*
X148962159Y-110630048D01*
X148973066Y-110639934D01*
X148982952Y-110650841D01*
X148991720Y-110662664D01*
X148999288Y-110675290D01*
X149005582Y-110688597D01*
X149010541Y-110702457D01*
X149014118Y-110716736D01*
X149016278Y-110731297D01*
X149017000Y-110746000D01*
X149017000Y-112396000D01*
X149016278Y-112410703D01*
X149014118Y-112425264D01*
X149010541Y-112439543D01*
X149005582Y-112453403D01*
X148999288Y-112466710D01*
X148991720Y-112479336D01*
X148982952Y-112491159D01*
X148973066Y-112502066D01*
X148962159Y-112511952D01*
X148950336Y-112520720D01*
X148937710Y-112528288D01*
X148924403Y-112534582D01*
X148910543Y-112539541D01*
X148896264Y-112543118D01*
X148881703Y-112545278D01*
X148867000Y-112546000D01*
X148567000Y-112546000D01*
X148552297Y-112545278D01*
X148537736Y-112543118D01*
X148523457Y-112539541D01*
X148509597Y-112534582D01*
X148496290Y-112528288D01*
X148483664Y-112520720D01*
X148471841Y-112511952D01*
X148460934Y-112502066D01*
X148451048Y-112491159D01*
X148442280Y-112479336D01*
X148434712Y-112466710D01*
X148428418Y-112453403D01*
X148423459Y-112439543D01*
X148419882Y-112425264D01*
X148417722Y-112410703D01*
X148417000Y-112396000D01*
X148417000Y-110746000D01*
X148417722Y-110731297D01*
X148419882Y-110716736D01*
X148423459Y-110702457D01*
X148428418Y-110688597D01*
X148434712Y-110675290D01*
X148442280Y-110662664D01*
X148451048Y-110650841D01*
X148460934Y-110639934D01*
X148471841Y-110630048D01*
X148483664Y-110621280D01*
X148496290Y-110613712D01*
X148509597Y-110607418D01*
X148523457Y-110602459D01*
X148537736Y-110598882D01*
X148552297Y-110596722D01*
X148567000Y-110596000D01*
X148867000Y-110596000D01*
X148881703Y-110596722D01*
G37*
G36*
X150151703Y-110596722D02*
G01*
X150166264Y-110598882D01*
X150180543Y-110602459D01*
X150194403Y-110607418D01*
X150207710Y-110613712D01*
X150220336Y-110621280D01*
X150232159Y-110630048D01*
X150243066Y-110639934D01*
X150252952Y-110650841D01*
X150261720Y-110662664D01*
X150269288Y-110675290D01*
X150275582Y-110688597D01*
X150280541Y-110702457D01*
X150284118Y-110716736D01*
X150286278Y-110731297D01*
X150287000Y-110746000D01*
X150287000Y-112396000D01*
X150286278Y-112410703D01*
X150284118Y-112425264D01*
X150280541Y-112439543D01*
X150275582Y-112453403D01*
X150269288Y-112466710D01*
X150261720Y-112479336D01*
X150252952Y-112491159D01*
X150243066Y-112502066D01*
X150232159Y-112511952D01*
X150220336Y-112520720D01*
X150207710Y-112528288D01*
X150194403Y-112534582D01*
X150180543Y-112539541D01*
X150166264Y-112543118D01*
X150151703Y-112545278D01*
X150137000Y-112546000D01*
X149837000Y-112546000D01*
X149822297Y-112545278D01*
X149807736Y-112543118D01*
X149793457Y-112539541D01*
X149779597Y-112534582D01*
X149766290Y-112528288D01*
X149753664Y-112520720D01*
X149741841Y-112511952D01*
X149730934Y-112502066D01*
X149721048Y-112491159D01*
X149712280Y-112479336D01*
X149704712Y-112466710D01*
X149698418Y-112453403D01*
X149693459Y-112439543D01*
X149689882Y-112425264D01*
X149687722Y-112410703D01*
X149687000Y-112396000D01*
X149687000Y-110746000D01*
X149687722Y-110731297D01*
X149689882Y-110716736D01*
X149693459Y-110702457D01*
X149698418Y-110688597D01*
X149704712Y-110675290D01*
X149712280Y-110662664D01*
X149721048Y-110650841D01*
X149730934Y-110639934D01*
X149741841Y-110630048D01*
X149753664Y-110621280D01*
X149766290Y-110613712D01*
X149779597Y-110607418D01*
X149793457Y-110602459D01*
X149807736Y-110598882D01*
X149822297Y-110596722D01*
X149837000Y-110596000D01*
X150137000Y-110596000D01*
X150151703Y-110596722D01*
G37*
G36*
X151421703Y-110596722D02*
G01*
X151436264Y-110598882D01*
X151450543Y-110602459D01*
X151464403Y-110607418D01*
X151477710Y-110613712D01*
X151490336Y-110621280D01*
X151502159Y-110630048D01*
X151513066Y-110639934D01*
X151522952Y-110650841D01*
X151531720Y-110662664D01*
X151539288Y-110675290D01*
X151545582Y-110688597D01*
X151550541Y-110702457D01*
X151554118Y-110716736D01*
X151556278Y-110731297D01*
X151557000Y-110746000D01*
X151557000Y-112396000D01*
X151556278Y-112410703D01*
X151554118Y-112425264D01*
X151550541Y-112439543D01*
X151545582Y-112453403D01*
X151539288Y-112466710D01*
X151531720Y-112479336D01*
X151522952Y-112491159D01*
X151513066Y-112502066D01*
X151502159Y-112511952D01*
X151490336Y-112520720D01*
X151477710Y-112528288D01*
X151464403Y-112534582D01*
X151450543Y-112539541D01*
X151436264Y-112543118D01*
X151421703Y-112545278D01*
X151407000Y-112546000D01*
X151107000Y-112546000D01*
X151092297Y-112545278D01*
X151077736Y-112543118D01*
X151063457Y-112539541D01*
X151049597Y-112534582D01*
X151036290Y-112528288D01*
X151023664Y-112520720D01*
X151011841Y-112511952D01*
X151000934Y-112502066D01*
X150991048Y-112491159D01*
X150982280Y-112479336D01*
X150974712Y-112466710D01*
X150968418Y-112453403D01*
X150963459Y-112439543D01*
X150959882Y-112425264D01*
X150957722Y-112410703D01*
X150957000Y-112396000D01*
X150957000Y-110746000D01*
X150957722Y-110731297D01*
X150959882Y-110716736D01*
X150963459Y-110702457D01*
X150968418Y-110688597D01*
X150974712Y-110675290D01*
X150982280Y-110662664D01*
X150991048Y-110650841D01*
X151000934Y-110639934D01*
X151011841Y-110630048D01*
X151023664Y-110621280D01*
X151036290Y-110613712D01*
X151049597Y-110607418D01*
X151063457Y-110602459D01*
X151077736Y-110598882D01*
X151092297Y-110596722D01*
X151107000Y-110596000D01*
X151407000Y-110596000D01*
X151421703Y-110596722D01*
G37*
D11*
X170275800Y-63836600D03*
X170275800Y-63406600D03*
X170275800Y-62976600D03*
X170275800Y-62546600D03*
X170275800Y-62116600D03*
X170275800Y-61686600D03*
X170275800Y-61256600D03*
X170275800Y-60826600D03*
X172725800Y-63836600D03*
X172725800Y-63406600D03*
X172725800Y-62976600D03*
X172725800Y-62546600D03*
X172725800Y-62116600D03*
X172725800Y-61686600D03*
X172725800Y-61256600D03*
D12*
X170855800Y-63806600D03*
X170855800Y-60856600D03*
X171285800Y-63806600D03*
X171285800Y-60856600D03*
X171715800Y-63806600D03*
X171715800Y-60856600D03*
X172145800Y-63806600D03*
X172145800Y-60856600D03*
D11*
X172725800Y-60826600D03*
D13*
X198236840Y-77068680D03*
X198236840Y-71470520D03*
D14*
X194564000Y-72771000D03*
X194564000Y-73771760D03*
X194564000Y-74767440D03*
X194564000Y-75768200D03*
D13*
X198389240Y-68839080D03*
X198389240Y-63240920D03*
D14*
X194716400Y-64541400D03*
X194716400Y-65542160D03*
X194716400Y-66537840D03*
X194716400Y-67538600D03*
D13*
X198338440Y-60863480D03*
X198338440Y-55265320D03*
D14*
X194665600Y-56565800D03*
X194665600Y-57566560D03*
X194665600Y-58562240D03*
X194665600Y-59563000D03*
D10*
G36*
X171080691Y-89035653D02*
G01*
X171101926Y-89038803D01*
X171122750Y-89044019D01*
X171142962Y-89051251D01*
X171162368Y-89060430D01*
X171180781Y-89071466D01*
X171198024Y-89084254D01*
X171213930Y-89098670D01*
X171228346Y-89114576D01*
X171241134Y-89131819D01*
X171252170Y-89150232D01*
X171261349Y-89169638D01*
X171268581Y-89189850D01*
X171273797Y-89210674D01*
X171276947Y-89231909D01*
X171278000Y-89253350D01*
X171278000Y-89765850D01*
X171276947Y-89787291D01*
X171273797Y-89808526D01*
X171268581Y-89829350D01*
X171261349Y-89849562D01*
X171252170Y-89868968D01*
X171241134Y-89887381D01*
X171228346Y-89904624D01*
X171213930Y-89920530D01*
X171198024Y-89934946D01*
X171180781Y-89947734D01*
X171162368Y-89958770D01*
X171142962Y-89967949D01*
X171122750Y-89975181D01*
X171101926Y-89980397D01*
X171080691Y-89983547D01*
X171059250Y-89984600D01*
X170621750Y-89984600D01*
X170600309Y-89983547D01*
X170579074Y-89980397D01*
X170558250Y-89975181D01*
X170538038Y-89967949D01*
X170518632Y-89958770D01*
X170500219Y-89947734D01*
X170482976Y-89934946D01*
X170467070Y-89920530D01*
X170452654Y-89904624D01*
X170439866Y-89887381D01*
X170428830Y-89868968D01*
X170419651Y-89849562D01*
X170412419Y-89829350D01*
X170407203Y-89808526D01*
X170404053Y-89787291D01*
X170403000Y-89765850D01*
X170403000Y-89253350D01*
X170404053Y-89231909D01*
X170407203Y-89210674D01*
X170412419Y-89189850D01*
X170419651Y-89169638D01*
X170428830Y-89150232D01*
X170439866Y-89131819D01*
X170452654Y-89114576D01*
X170467070Y-89098670D01*
X170482976Y-89084254D01*
X170500219Y-89071466D01*
X170518632Y-89060430D01*
X170538038Y-89051251D01*
X170558250Y-89044019D01*
X170579074Y-89038803D01*
X170600309Y-89035653D01*
X170621750Y-89034600D01*
X171059250Y-89034600D01*
X171080691Y-89035653D01*
G37*
G36*
X169505691Y-89035653D02*
G01*
X169526926Y-89038803D01*
X169547750Y-89044019D01*
X169567962Y-89051251D01*
X169587368Y-89060430D01*
X169605781Y-89071466D01*
X169623024Y-89084254D01*
X169638930Y-89098670D01*
X169653346Y-89114576D01*
X169666134Y-89131819D01*
X169677170Y-89150232D01*
X169686349Y-89169638D01*
X169693581Y-89189850D01*
X169698797Y-89210674D01*
X169701947Y-89231909D01*
X169703000Y-89253350D01*
X169703000Y-89765850D01*
X169701947Y-89787291D01*
X169698797Y-89808526D01*
X169693581Y-89829350D01*
X169686349Y-89849562D01*
X169677170Y-89868968D01*
X169666134Y-89887381D01*
X169653346Y-89904624D01*
X169638930Y-89920530D01*
X169623024Y-89934946D01*
X169605781Y-89947734D01*
X169587368Y-89958770D01*
X169567962Y-89967949D01*
X169547750Y-89975181D01*
X169526926Y-89980397D01*
X169505691Y-89983547D01*
X169484250Y-89984600D01*
X169046750Y-89984600D01*
X169025309Y-89983547D01*
X169004074Y-89980397D01*
X168983250Y-89975181D01*
X168963038Y-89967949D01*
X168943632Y-89958770D01*
X168925219Y-89947734D01*
X168907976Y-89934946D01*
X168892070Y-89920530D01*
X168877654Y-89904624D01*
X168864866Y-89887381D01*
X168853830Y-89868968D01*
X168844651Y-89849562D01*
X168837419Y-89829350D01*
X168832203Y-89808526D01*
X168829053Y-89787291D01*
X168828000Y-89765850D01*
X168828000Y-89253350D01*
X168829053Y-89231909D01*
X168832203Y-89210674D01*
X168837419Y-89189850D01*
X168844651Y-89169638D01*
X168853830Y-89150232D01*
X168864866Y-89131819D01*
X168877654Y-89114576D01*
X168892070Y-89098670D01*
X168907976Y-89084254D01*
X168925219Y-89071466D01*
X168943632Y-89060430D01*
X168963038Y-89051251D01*
X168983250Y-89044019D01*
X169004074Y-89038803D01*
X169025309Y-89035653D01*
X169046750Y-89034600D01*
X169484250Y-89034600D01*
X169505691Y-89035653D01*
G37*
G36*
X174126158Y-58250310D02*
G01*
X174140476Y-58252434D01*
X174154517Y-58255951D01*
X174168146Y-58260828D01*
X174181231Y-58267017D01*
X174193647Y-58274458D01*
X174205273Y-58283081D01*
X174215998Y-58292802D01*
X174225719Y-58303527D01*
X174234342Y-58315153D01*
X174241783Y-58327569D01*
X174247972Y-58340654D01*
X174252849Y-58354283D01*
X174256366Y-58368324D01*
X174258490Y-58382642D01*
X174259200Y-58397100D01*
X174259200Y-58692100D01*
X174258490Y-58706558D01*
X174256366Y-58720876D01*
X174252849Y-58734917D01*
X174247972Y-58748546D01*
X174241783Y-58761631D01*
X174234342Y-58774047D01*
X174225719Y-58785673D01*
X174215998Y-58796398D01*
X174205273Y-58806119D01*
X174193647Y-58814742D01*
X174181231Y-58822183D01*
X174168146Y-58828372D01*
X174154517Y-58833249D01*
X174140476Y-58836766D01*
X174126158Y-58838890D01*
X174111700Y-58839600D01*
X173766700Y-58839600D01*
X173752242Y-58838890D01*
X173737924Y-58836766D01*
X173723883Y-58833249D01*
X173710254Y-58828372D01*
X173697169Y-58822183D01*
X173684753Y-58814742D01*
X173673127Y-58806119D01*
X173662402Y-58796398D01*
X173652681Y-58785673D01*
X173644058Y-58774047D01*
X173636617Y-58761631D01*
X173630428Y-58748546D01*
X173625551Y-58734917D01*
X173622034Y-58720876D01*
X173619910Y-58706558D01*
X173619200Y-58692100D01*
X173619200Y-58397100D01*
X173619910Y-58382642D01*
X173622034Y-58368324D01*
X173625551Y-58354283D01*
X173630428Y-58340654D01*
X173636617Y-58327569D01*
X173644058Y-58315153D01*
X173652681Y-58303527D01*
X173662402Y-58292802D01*
X173673127Y-58283081D01*
X173684753Y-58274458D01*
X173697169Y-58267017D01*
X173710254Y-58260828D01*
X173723883Y-58255951D01*
X173737924Y-58252434D01*
X173752242Y-58250310D01*
X173766700Y-58249600D01*
X174111700Y-58249600D01*
X174126158Y-58250310D01*
G37*
G36*
X174126158Y-59220310D02*
G01*
X174140476Y-59222434D01*
X174154517Y-59225951D01*
X174168146Y-59230828D01*
X174181231Y-59237017D01*
X174193647Y-59244458D01*
X174205273Y-59253081D01*
X174215998Y-59262802D01*
X174225719Y-59273527D01*
X174234342Y-59285153D01*
X174241783Y-59297569D01*
X174247972Y-59310654D01*
X174252849Y-59324283D01*
X174256366Y-59338324D01*
X174258490Y-59352642D01*
X174259200Y-59367100D01*
X174259200Y-59662100D01*
X174258490Y-59676558D01*
X174256366Y-59690876D01*
X174252849Y-59704917D01*
X174247972Y-59718546D01*
X174241783Y-59731631D01*
X174234342Y-59744047D01*
X174225719Y-59755673D01*
X174215998Y-59766398D01*
X174205273Y-59776119D01*
X174193647Y-59784742D01*
X174181231Y-59792183D01*
X174168146Y-59798372D01*
X174154517Y-59803249D01*
X174140476Y-59806766D01*
X174126158Y-59808890D01*
X174111700Y-59809600D01*
X173766700Y-59809600D01*
X173752242Y-59808890D01*
X173737924Y-59806766D01*
X173723883Y-59803249D01*
X173710254Y-59798372D01*
X173697169Y-59792183D01*
X173684753Y-59784742D01*
X173673127Y-59776119D01*
X173662402Y-59766398D01*
X173652681Y-59755673D01*
X173644058Y-59744047D01*
X173636617Y-59731631D01*
X173630428Y-59718546D01*
X173625551Y-59704917D01*
X173622034Y-59690876D01*
X173619910Y-59676558D01*
X173619200Y-59662100D01*
X173619200Y-59367100D01*
X173619910Y-59352642D01*
X173622034Y-59338324D01*
X173625551Y-59324283D01*
X173630428Y-59310654D01*
X173636617Y-59297569D01*
X173644058Y-59285153D01*
X173652681Y-59273527D01*
X173662402Y-59262802D01*
X173673127Y-59253081D01*
X173684753Y-59244458D01*
X173697169Y-59237017D01*
X173710254Y-59230828D01*
X173723883Y-59225951D01*
X173737924Y-59222434D01*
X173752242Y-59220310D01*
X173766700Y-59219600D01*
X174111700Y-59219600D01*
X174126158Y-59220310D01*
G37*
G36*
X175906958Y-61707510D02*
G01*
X175921276Y-61709634D01*
X175935317Y-61713151D01*
X175948946Y-61718028D01*
X175962031Y-61724217D01*
X175974447Y-61731658D01*
X175986073Y-61740281D01*
X175996798Y-61750002D01*
X176006519Y-61760727D01*
X176015142Y-61772353D01*
X176022583Y-61784769D01*
X176028772Y-61797854D01*
X176033649Y-61811483D01*
X176037166Y-61825524D01*
X176039290Y-61839842D01*
X176040000Y-61854300D01*
X176040000Y-62199300D01*
X176039290Y-62213758D01*
X176037166Y-62228076D01*
X176033649Y-62242117D01*
X176028772Y-62255746D01*
X176022583Y-62268831D01*
X176015142Y-62281247D01*
X176006519Y-62292873D01*
X175996798Y-62303598D01*
X175986073Y-62313319D01*
X175974447Y-62321942D01*
X175962031Y-62329383D01*
X175948946Y-62335572D01*
X175935317Y-62340449D01*
X175921276Y-62343966D01*
X175906958Y-62346090D01*
X175892500Y-62346800D01*
X175597500Y-62346800D01*
X175583042Y-62346090D01*
X175568724Y-62343966D01*
X175554683Y-62340449D01*
X175541054Y-62335572D01*
X175527969Y-62329383D01*
X175515553Y-62321942D01*
X175503927Y-62313319D01*
X175493202Y-62303598D01*
X175483481Y-62292873D01*
X175474858Y-62281247D01*
X175467417Y-62268831D01*
X175461228Y-62255746D01*
X175456351Y-62242117D01*
X175452834Y-62228076D01*
X175450710Y-62213758D01*
X175450000Y-62199300D01*
X175450000Y-61854300D01*
X175450710Y-61839842D01*
X175452834Y-61825524D01*
X175456351Y-61811483D01*
X175461228Y-61797854D01*
X175467417Y-61784769D01*
X175474858Y-61772353D01*
X175483481Y-61760727D01*
X175493202Y-61750002D01*
X175503927Y-61740281D01*
X175515553Y-61731658D01*
X175527969Y-61724217D01*
X175541054Y-61718028D01*
X175554683Y-61713151D01*
X175568724Y-61709634D01*
X175583042Y-61707510D01*
X175597500Y-61706800D01*
X175892500Y-61706800D01*
X175906958Y-61707510D01*
G37*
G36*
X174936958Y-61707510D02*
G01*
X174951276Y-61709634D01*
X174965317Y-61713151D01*
X174978946Y-61718028D01*
X174992031Y-61724217D01*
X175004447Y-61731658D01*
X175016073Y-61740281D01*
X175026798Y-61750002D01*
X175036519Y-61760727D01*
X175045142Y-61772353D01*
X175052583Y-61784769D01*
X175058772Y-61797854D01*
X175063649Y-61811483D01*
X175067166Y-61825524D01*
X175069290Y-61839842D01*
X175070000Y-61854300D01*
X175070000Y-62199300D01*
X175069290Y-62213758D01*
X175067166Y-62228076D01*
X175063649Y-62242117D01*
X175058772Y-62255746D01*
X175052583Y-62268831D01*
X175045142Y-62281247D01*
X175036519Y-62292873D01*
X175026798Y-62303598D01*
X175016073Y-62313319D01*
X175004447Y-62321942D01*
X174992031Y-62329383D01*
X174978946Y-62335572D01*
X174965317Y-62340449D01*
X174951276Y-62343966D01*
X174936958Y-62346090D01*
X174922500Y-62346800D01*
X174627500Y-62346800D01*
X174613042Y-62346090D01*
X174598724Y-62343966D01*
X174584683Y-62340449D01*
X174571054Y-62335572D01*
X174557969Y-62329383D01*
X174545553Y-62321942D01*
X174533927Y-62313319D01*
X174523202Y-62303598D01*
X174513481Y-62292873D01*
X174504858Y-62281247D01*
X174497417Y-62268831D01*
X174491228Y-62255746D01*
X174486351Y-62242117D01*
X174482834Y-62228076D01*
X174480710Y-62213758D01*
X174480000Y-62199300D01*
X174480000Y-61854300D01*
X174480710Y-61839842D01*
X174482834Y-61825524D01*
X174486351Y-61811483D01*
X174491228Y-61797854D01*
X174497417Y-61784769D01*
X174504858Y-61772353D01*
X174513481Y-61760727D01*
X174523202Y-61750002D01*
X174533927Y-61740281D01*
X174545553Y-61731658D01*
X174557969Y-61724217D01*
X174571054Y-61718028D01*
X174584683Y-61713151D01*
X174598724Y-61709634D01*
X174613042Y-61707510D01*
X174627500Y-61706800D01*
X174922500Y-61706800D01*
X174936958Y-61707510D01*
G37*
G36*
X175144958Y-60640710D02*
G01*
X175159276Y-60642834D01*
X175173317Y-60646351D01*
X175186946Y-60651228D01*
X175200031Y-60657417D01*
X175212447Y-60664858D01*
X175224073Y-60673481D01*
X175234798Y-60683202D01*
X175244519Y-60693927D01*
X175253142Y-60705553D01*
X175260583Y-60717969D01*
X175266772Y-60731054D01*
X175271649Y-60744683D01*
X175275166Y-60758724D01*
X175277290Y-60773042D01*
X175278000Y-60787500D01*
X175278000Y-61132500D01*
X175277290Y-61146958D01*
X175275166Y-61161276D01*
X175271649Y-61175317D01*
X175266772Y-61188946D01*
X175260583Y-61202031D01*
X175253142Y-61214447D01*
X175244519Y-61226073D01*
X175234798Y-61236798D01*
X175224073Y-61246519D01*
X175212447Y-61255142D01*
X175200031Y-61262583D01*
X175186946Y-61268772D01*
X175173317Y-61273649D01*
X175159276Y-61277166D01*
X175144958Y-61279290D01*
X175130500Y-61280000D01*
X174835500Y-61280000D01*
X174821042Y-61279290D01*
X174806724Y-61277166D01*
X174792683Y-61273649D01*
X174779054Y-61268772D01*
X174765969Y-61262583D01*
X174753553Y-61255142D01*
X174741927Y-61246519D01*
X174731202Y-61236798D01*
X174721481Y-61226073D01*
X174712858Y-61214447D01*
X174705417Y-61202031D01*
X174699228Y-61188946D01*
X174694351Y-61175317D01*
X174690834Y-61161276D01*
X174688710Y-61146958D01*
X174688000Y-61132500D01*
X174688000Y-60787500D01*
X174688710Y-60773042D01*
X174690834Y-60758724D01*
X174694351Y-60744683D01*
X174699228Y-60731054D01*
X174705417Y-60717969D01*
X174712858Y-60705553D01*
X174721481Y-60693927D01*
X174731202Y-60683202D01*
X174741927Y-60673481D01*
X174753553Y-60664858D01*
X174765969Y-60657417D01*
X174779054Y-60651228D01*
X174792683Y-60646351D01*
X174806724Y-60642834D01*
X174821042Y-60640710D01*
X174835500Y-60640000D01*
X175130500Y-60640000D01*
X175144958Y-60640710D01*
G37*
G36*
X174174958Y-60640710D02*
G01*
X174189276Y-60642834D01*
X174203317Y-60646351D01*
X174216946Y-60651228D01*
X174230031Y-60657417D01*
X174242447Y-60664858D01*
X174254073Y-60673481D01*
X174264798Y-60683202D01*
X174274519Y-60693927D01*
X174283142Y-60705553D01*
X174290583Y-60717969D01*
X174296772Y-60731054D01*
X174301649Y-60744683D01*
X174305166Y-60758724D01*
X174307290Y-60773042D01*
X174308000Y-60787500D01*
X174308000Y-61132500D01*
X174307290Y-61146958D01*
X174305166Y-61161276D01*
X174301649Y-61175317D01*
X174296772Y-61188946D01*
X174290583Y-61202031D01*
X174283142Y-61214447D01*
X174274519Y-61226073D01*
X174264798Y-61236798D01*
X174254073Y-61246519D01*
X174242447Y-61255142D01*
X174230031Y-61262583D01*
X174216946Y-61268772D01*
X174203317Y-61273649D01*
X174189276Y-61277166D01*
X174174958Y-61279290D01*
X174160500Y-61280000D01*
X173865500Y-61280000D01*
X173851042Y-61279290D01*
X173836724Y-61277166D01*
X173822683Y-61273649D01*
X173809054Y-61268772D01*
X173795969Y-61262583D01*
X173783553Y-61255142D01*
X173771927Y-61246519D01*
X173761202Y-61236798D01*
X173751481Y-61226073D01*
X173742858Y-61214447D01*
X173735417Y-61202031D01*
X173729228Y-61188946D01*
X173724351Y-61175317D01*
X173720834Y-61161276D01*
X173718710Y-61146958D01*
X173718000Y-61132500D01*
X173718000Y-60787500D01*
X173718710Y-60773042D01*
X173720834Y-60758724D01*
X173724351Y-60744683D01*
X173729228Y-60731054D01*
X173735417Y-60717969D01*
X173742858Y-60705553D01*
X173751481Y-60693927D01*
X173761202Y-60683202D01*
X173771927Y-60673481D01*
X173783553Y-60664858D01*
X173795969Y-60657417D01*
X173809054Y-60651228D01*
X173822683Y-60646351D01*
X173836724Y-60642834D01*
X173851042Y-60640710D01*
X173865500Y-60640000D01*
X174160500Y-60640000D01*
X174174958Y-60640710D01*
G37*
G36*
X175246558Y-62926710D02*
G01*
X175260876Y-62928834D01*
X175274917Y-62932351D01*
X175288546Y-62937228D01*
X175301631Y-62943417D01*
X175314047Y-62950858D01*
X175325673Y-62959481D01*
X175336398Y-62969202D01*
X175346119Y-62979927D01*
X175354742Y-62991553D01*
X175362183Y-63003969D01*
X175368372Y-63017054D01*
X175373249Y-63030683D01*
X175376766Y-63044724D01*
X175378890Y-63059042D01*
X175379600Y-63073500D01*
X175379600Y-63418500D01*
X175378890Y-63432958D01*
X175376766Y-63447276D01*
X175373249Y-63461317D01*
X175368372Y-63474946D01*
X175362183Y-63488031D01*
X175354742Y-63500447D01*
X175346119Y-63512073D01*
X175336398Y-63522798D01*
X175325673Y-63532519D01*
X175314047Y-63541142D01*
X175301631Y-63548583D01*
X175288546Y-63554772D01*
X175274917Y-63559649D01*
X175260876Y-63563166D01*
X175246558Y-63565290D01*
X175232100Y-63566000D01*
X174937100Y-63566000D01*
X174922642Y-63565290D01*
X174908324Y-63563166D01*
X174894283Y-63559649D01*
X174880654Y-63554772D01*
X174867569Y-63548583D01*
X174855153Y-63541142D01*
X174843527Y-63532519D01*
X174832802Y-63522798D01*
X174823081Y-63512073D01*
X174814458Y-63500447D01*
X174807017Y-63488031D01*
X174800828Y-63474946D01*
X174795951Y-63461317D01*
X174792434Y-63447276D01*
X174790310Y-63432958D01*
X174789600Y-63418500D01*
X174789600Y-63073500D01*
X174790310Y-63059042D01*
X174792434Y-63044724D01*
X174795951Y-63030683D01*
X174800828Y-63017054D01*
X174807017Y-63003969D01*
X174814458Y-62991553D01*
X174823081Y-62979927D01*
X174832802Y-62969202D01*
X174843527Y-62959481D01*
X174855153Y-62950858D01*
X174867569Y-62943417D01*
X174880654Y-62937228D01*
X174894283Y-62932351D01*
X174908324Y-62928834D01*
X174922642Y-62926710D01*
X174937100Y-62926000D01*
X175232100Y-62926000D01*
X175246558Y-62926710D01*
G37*
G36*
X174276558Y-62926710D02*
G01*
X174290876Y-62928834D01*
X174304917Y-62932351D01*
X174318546Y-62937228D01*
X174331631Y-62943417D01*
X174344047Y-62950858D01*
X174355673Y-62959481D01*
X174366398Y-62969202D01*
X174376119Y-62979927D01*
X174384742Y-62991553D01*
X174392183Y-63003969D01*
X174398372Y-63017054D01*
X174403249Y-63030683D01*
X174406766Y-63044724D01*
X174408890Y-63059042D01*
X174409600Y-63073500D01*
X174409600Y-63418500D01*
X174408890Y-63432958D01*
X174406766Y-63447276D01*
X174403249Y-63461317D01*
X174398372Y-63474946D01*
X174392183Y-63488031D01*
X174384742Y-63500447D01*
X174376119Y-63512073D01*
X174366398Y-63522798D01*
X174355673Y-63532519D01*
X174344047Y-63541142D01*
X174331631Y-63548583D01*
X174318546Y-63554772D01*
X174304917Y-63559649D01*
X174290876Y-63563166D01*
X174276558Y-63565290D01*
X174262100Y-63566000D01*
X173967100Y-63566000D01*
X173952642Y-63565290D01*
X173938324Y-63563166D01*
X173924283Y-63559649D01*
X173910654Y-63554772D01*
X173897569Y-63548583D01*
X173885153Y-63541142D01*
X173873527Y-63532519D01*
X173862802Y-63522798D01*
X173853081Y-63512073D01*
X173844458Y-63500447D01*
X173837017Y-63488031D01*
X173830828Y-63474946D01*
X173825951Y-63461317D01*
X173822434Y-63447276D01*
X173820310Y-63432958D01*
X173819600Y-63418500D01*
X173819600Y-63073500D01*
X173820310Y-63059042D01*
X173822434Y-63044724D01*
X173825951Y-63030683D01*
X173830828Y-63017054D01*
X173837017Y-63003969D01*
X173844458Y-62991553D01*
X173853081Y-62979927D01*
X173862802Y-62969202D01*
X173873527Y-62959481D01*
X173885153Y-62950858D01*
X173897569Y-62943417D01*
X173910654Y-62937228D01*
X173924283Y-62932351D01*
X173938324Y-62928834D01*
X173952642Y-62926710D01*
X173967100Y-62926000D01*
X174262100Y-62926000D01*
X174276558Y-62926710D01*
G37*
D15*
X177609500Y-88154000D03*
X178559500Y-90154000D03*
X176659500Y-90154000D03*
D10*
G36*
X188987958Y-112710710D02*
G01*
X189002276Y-112712834D01*
X189016317Y-112716351D01*
X189029946Y-112721228D01*
X189043031Y-112727417D01*
X189055447Y-112734858D01*
X189067073Y-112743481D01*
X189077798Y-112753202D01*
X189087519Y-112763927D01*
X189096142Y-112775553D01*
X189103583Y-112787969D01*
X189109772Y-112801054D01*
X189114649Y-112814683D01*
X189118166Y-112828724D01*
X189120290Y-112843042D01*
X189121000Y-112857500D01*
X189121000Y-113202500D01*
X189120290Y-113216958D01*
X189118166Y-113231276D01*
X189114649Y-113245317D01*
X189109772Y-113258946D01*
X189103583Y-113272031D01*
X189096142Y-113284447D01*
X189087519Y-113296073D01*
X189077798Y-113306798D01*
X189067073Y-113316519D01*
X189055447Y-113325142D01*
X189043031Y-113332583D01*
X189029946Y-113338772D01*
X189016317Y-113343649D01*
X189002276Y-113347166D01*
X188987958Y-113349290D01*
X188973500Y-113350000D01*
X188678500Y-113350000D01*
X188664042Y-113349290D01*
X188649724Y-113347166D01*
X188635683Y-113343649D01*
X188622054Y-113338772D01*
X188608969Y-113332583D01*
X188596553Y-113325142D01*
X188584927Y-113316519D01*
X188574202Y-113306798D01*
X188564481Y-113296073D01*
X188555858Y-113284447D01*
X188548417Y-113272031D01*
X188542228Y-113258946D01*
X188537351Y-113245317D01*
X188533834Y-113231276D01*
X188531710Y-113216958D01*
X188531000Y-113202500D01*
X188531000Y-112857500D01*
X188531710Y-112843042D01*
X188533834Y-112828724D01*
X188537351Y-112814683D01*
X188542228Y-112801054D01*
X188548417Y-112787969D01*
X188555858Y-112775553D01*
X188564481Y-112763927D01*
X188574202Y-112753202D01*
X188584927Y-112743481D01*
X188596553Y-112734858D01*
X188608969Y-112727417D01*
X188622054Y-112721228D01*
X188635683Y-112716351D01*
X188649724Y-112712834D01*
X188664042Y-112710710D01*
X188678500Y-112710000D01*
X188973500Y-112710000D01*
X188987958Y-112710710D01*
G37*
G36*
X188017958Y-112710710D02*
G01*
X188032276Y-112712834D01*
X188046317Y-112716351D01*
X188059946Y-112721228D01*
X188073031Y-112727417D01*
X188085447Y-112734858D01*
X188097073Y-112743481D01*
X188107798Y-112753202D01*
X188117519Y-112763927D01*
X188126142Y-112775553D01*
X188133583Y-112787969D01*
X188139772Y-112801054D01*
X188144649Y-112814683D01*
X188148166Y-112828724D01*
X188150290Y-112843042D01*
X188151000Y-112857500D01*
X188151000Y-113202500D01*
X188150290Y-113216958D01*
X188148166Y-113231276D01*
X188144649Y-113245317D01*
X188139772Y-113258946D01*
X188133583Y-113272031D01*
X188126142Y-113284447D01*
X188117519Y-113296073D01*
X188107798Y-113306798D01*
X188097073Y-113316519D01*
X188085447Y-113325142D01*
X188073031Y-113332583D01*
X188059946Y-113338772D01*
X188046317Y-113343649D01*
X188032276Y-113347166D01*
X188017958Y-113349290D01*
X188003500Y-113350000D01*
X187708500Y-113350000D01*
X187694042Y-113349290D01*
X187679724Y-113347166D01*
X187665683Y-113343649D01*
X187652054Y-113338772D01*
X187638969Y-113332583D01*
X187626553Y-113325142D01*
X187614927Y-113316519D01*
X187604202Y-113306798D01*
X187594481Y-113296073D01*
X187585858Y-113284447D01*
X187578417Y-113272031D01*
X187572228Y-113258946D01*
X187567351Y-113245317D01*
X187563834Y-113231276D01*
X187561710Y-113216958D01*
X187561000Y-113202500D01*
X187561000Y-112857500D01*
X187561710Y-112843042D01*
X187563834Y-112828724D01*
X187567351Y-112814683D01*
X187572228Y-112801054D01*
X187578417Y-112787969D01*
X187585858Y-112775553D01*
X187594481Y-112763927D01*
X187604202Y-112753202D01*
X187614927Y-112743481D01*
X187626553Y-112734858D01*
X187638969Y-112727417D01*
X187652054Y-112721228D01*
X187665683Y-112716351D01*
X187679724Y-112712834D01*
X187694042Y-112710710D01*
X187708500Y-112710000D01*
X188003500Y-112710000D01*
X188017958Y-112710710D01*
G37*
G36*
X170382458Y-111504210D02*
G01*
X170396776Y-111506334D01*
X170410817Y-111509851D01*
X170424446Y-111514728D01*
X170437531Y-111520917D01*
X170449947Y-111528358D01*
X170461573Y-111536981D01*
X170472298Y-111546702D01*
X170482019Y-111557427D01*
X170490642Y-111569053D01*
X170498083Y-111581469D01*
X170504272Y-111594554D01*
X170509149Y-111608183D01*
X170512666Y-111622224D01*
X170514790Y-111636542D01*
X170515500Y-111651000D01*
X170515500Y-111996000D01*
X170514790Y-112010458D01*
X170512666Y-112024776D01*
X170509149Y-112038817D01*
X170504272Y-112052446D01*
X170498083Y-112065531D01*
X170490642Y-112077947D01*
X170482019Y-112089573D01*
X170472298Y-112100298D01*
X170461573Y-112110019D01*
X170449947Y-112118642D01*
X170437531Y-112126083D01*
X170424446Y-112132272D01*
X170410817Y-112137149D01*
X170396776Y-112140666D01*
X170382458Y-112142790D01*
X170368000Y-112143500D01*
X170073000Y-112143500D01*
X170058542Y-112142790D01*
X170044224Y-112140666D01*
X170030183Y-112137149D01*
X170016554Y-112132272D01*
X170003469Y-112126083D01*
X169991053Y-112118642D01*
X169979427Y-112110019D01*
X169968702Y-112100298D01*
X169958981Y-112089573D01*
X169950358Y-112077947D01*
X169942917Y-112065531D01*
X169936728Y-112052446D01*
X169931851Y-112038817D01*
X169928334Y-112024776D01*
X169926210Y-112010458D01*
X169925500Y-111996000D01*
X169925500Y-111651000D01*
X169926210Y-111636542D01*
X169928334Y-111622224D01*
X169931851Y-111608183D01*
X169936728Y-111594554D01*
X169942917Y-111581469D01*
X169950358Y-111569053D01*
X169958981Y-111557427D01*
X169968702Y-111546702D01*
X169979427Y-111536981D01*
X169991053Y-111528358D01*
X170003469Y-111520917D01*
X170016554Y-111514728D01*
X170030183Y-111509851D01*
X170044224Y-111506334D01*
X170058542Y-111504210D01*
X170073000Y-111503500D01*
X170368000Y-111503500D01*
X170382458Y-111504210D01*
G37*
G36*
X169412458Y-111504210D02*
G01*
X169426776Y-111506334D01*
X169440817Y-111509851D01*
X169454446Y-111514728D01*
X169467531Y-111520917D01*
X169479947Y-111528358D01*
X169491573Y-111536981D01*
X169502298Y-111546702D01*
X169512019Y-111557427D01*
X169520642Y-111569053D01*
X169528083Y-111581469D01*
X169534272Y-111594554D01*
X169539149Y-111608183D01*
X169542666Y-111622224D01*
X169544790Y-111636542D01*
X169545500Y-111651000D01*
X169545500Y-111996000D01*
X169544790Y-112010458D01*
X169542666Y-112024776D01*
X169539149Y-112038817D01*
X169534272Y-112052446D01*
X169528083Y-112065531D01*
X169520642Y-112077947D01*
X169512019Y-112089573D01*
X169502298Y-112100298D01*
X169491573Y-112110019D01*
X169479947Y-112118642D01*
X169467531Y-112126083D01*
X169454446Y-112132272D01*
X169440817Y-112137149D01*
X169426776Y-112140666D01*
X169412458Y-112142790D01*
X169398000Y-112143500D01*
X169103000Y-112143500D01*
X169088542Y-112142790D01*
X169074224Y-112140666D01*
X169060183Y-112137149D01*
X169046554Y-112132272D01*
X169033469Y-112126083D01*
X169021053Y-112118642D01*
X169009427Y-112110019D01*
X168998702Y-112100298D01*
X168988981Y-112089573D01*
X168980358Y-112077947D01*
X168972917Y-112065531D01*
X168966728Y-112052446D01*
X168961851Y-112038817D01*
X168958334Y-112024776D01*
X168956210Y-112010458D01*
X168955500Y-111996000D01*
X168955500Y-111651000D01*
X168956210Y-111636542D01*
X168958334Y-111622224D01*
X168961851Y-111608183D01*
X168966728Y-111594554D01*
X168972917Y-111581469D01*
X168980358Y-111569053D01*
X168988981Y-111557427D01*
X168998702Y-111546702D01*
X169009427Y-111536981D01*
X169021053Y-111528358D01*
X169033469Y-111520917D01*
X169046554Y-111514728D01*
X169060183Y-111509851D01*
X169074224Y-111506334D01*
X169088542Y-111504210D01*
X169103000Y-111503500D01*
X169398000Y-111503500D01*
X169412458Y-111504210D01*
G37*
G36*
X147839958Y-72324710D02*
G01*
X147854276Y-72326834D01*
X147868317Y-72330351D01*
X147881946Y-72335228D01*
X147895031Y-72341417D01*
X147907447Y-72348858D01*
X147919073Y-72357481D01*
X147929798Y-72367202D01*
X147939519Y-72377927D01*
X147948142Y-72389553D01*
X147955583Y-72401969D01*
X147961772Y-72415054D01*
X147966649Y-72428683D01*
X147970166Y-72442724D01*
X147972290Y-72457042D01*
X147973000Y-72471500D01*
X147973000Y-72816500D01*
X147972290Y-72830958D01*
X147970166Y-72845276D01*
X147966649Y-72859317D01*
X147961772Y-72872946D01*
X147955583Y-72886031D01*
X147948142Y-72898447D01*
X147939519Y-72910073D01*
X147929798Y-72920798D01*
X147919073Y-72930519D01*
X147907447Y-72939142D01*
X147895031Y-72946583D01*
X147881946Y-72952772D01*
X147868317Y-72957649D01*
X147854276Y-72961166D01*
X147839958Y-72963290D01*
X147825500Y-72964000D01*
X147530500Y-72964000D01*
X147516042Y-72963290D01*
X147501724Y-72961166D01*
X147487683Y-72957649D01*
X147474054Y-72952772D01*
X147460969Y-72946583D01*
X147448553Y-72939142D01*
X147436927Y-72930519D01*
X147426202Y-72920798D01*
X147416481Y-72910073D01*
X147407858Y-72898447D01*
X147400417Y-72886031D01*
X147394228Y-72872946D01*
X147389351Y-72859317D01*
X147385834Y-72845276D01*
X147383710Y-72830958D01*
X147383000Y-72816500D01*
X147383000Y-72471500D01*
X147383710Y-72457042D01*
X147385834Y-72442724D01*
X147389351Y-72428683D01*
X147394228Y-72415054D01*
X147400417Y-72401969D01*
X147407858Y-72389553D01*
X147416481Y-72377927D01*
X147426202Y-72367202D01*
X147436927Y-72357481D01*
X147448553Y-72348858D01*
X147460969Y-72341417D01*
X147474054Y-72335228D01*
X147487683Y-72330351D01*
X147501724Y-72326834D01*
X147516042Y-72324710D01*
X147530500Y-72324000D01*
X147825500Y-72324000D01*
X147839958Y-72324710D01*
G37*
G36*
X146869958Y-72324710D02*
G01*
X146884276Y-72326834D01*
X146898317Y-72330351D01*
X146911946Y-72335228D01*
X146925031Y-72341417D01*
X146937447Y-72348858D01*
X146949073Y-72357481D01*
X146959798Y-72367202D01*
X146969519Y-72377927D01*
X146978142Y-72389553D01*
X146985583Y-72401969D01*
X146991772Y-72415054D01*
X146996649Y-72428683D01*
X147000166Y-72442724D01*
X147002290Y-72457042D01*
X147003000Y-72471500D01*
X147003000Y-72816500D01*
X147002290Y-72830958D01*
X147000166Y-72845276D01*
X146996649Y-72859317D01*
X146991772Y-72872946D01*
X146985583Y-72886031D01*
X146978142Y-72898447D01*
X146969519Y-72910073D01*
X146959798Y-72920798D01*
X146949073Y-72930519D01*
X146937447Y-72939142D01*
X146925031Y-72946583D01*
X146911946Y-72952772D01*
X146898317Y-72957649D01*
X146884276Y-72961166D01*
X146869958Y-72963290D01*
X146855500Y-72964000D01*
X146560500Y-72964000D01*
X146546042Y-72963290D01*
X146531724Y-72961166D01*
X146517683Y-72957649D01*
X146504054Y-72952772D01*
X146490969Y-72946583D01*
X146478553Y-72939142D01*
X146466927Y-72930519D01*
X146456202Y-72920798D01*
X146446481Y-72910073D01*
X146437858Y-72898447D01*
X146430417Y-72886031D01*
X146424228Y-72872946D01*
X146419351Y-72859317D01*
X146415834Y-72845276D01*
X146413710Y-72830958D01*
X146413000Y-72816500D01*
X146413000Y-72471500D01*
X146413710Y-72457042D01*
X146415834Y-72442724D01*
X146419351Y-72428683D01*
X146424228Y-72415054D01*
X146430417Y-72401969D01*
X146437858Y-72389553D01*
X146446481Y-72377927D01*
X146456202Y-72367202D01*
X146466927Y-72357481D01*
X146478553Y-72348858D01*
X146490969Y-72341417D01*
X146504054Y-72335228D01*
X146517683Y-72330351D01*
X146531724Y-72326834D01*
X146546042Y-72324710D01*
X146560500Y-72324000D01*
X146855500Y-72324000D01*
X146869958Y-72324710D01*
G37*
G36*
X133854458Y-105029210D02*
G01*
X133868776Y-105031334D01*
X133882817Y-105034851D01*
X133896446Y-105039728D01*
X133909531Y-105045917D01*
X133921947Y-105053358D01*
X133933573Y-105061981D01*
X133944298Y-105071702D01*
X133954019Y-105082427D01*
X133962642Y-105094053D01*
X133970083Y-105106469D01*
X133976272Y-105119554D01*
X133981149Y-105133183D01*
X133984666Y-105147224D01*
X133986790Y-105161542D01*
X133987500Y-105176000D01*
X133987500Y-105471000D01*
X133986790Y-105485458D01*
X133984666Y-105499776D01*
X133981149Y-105513817D01*
X133976272Y-105527446D01*
X133970083Y-105540531D01*
X133962642Y-105552947D01*
X133954019Y-105564573D01*
X133944298Y-105575298D01*
X133933573Y-105585019D01*
X133921947Y-105593642D01*
X133909531Y-105601083D01*
X133896446Y-105607272D01*
X133882817Y-105612149D01*
X133868776Y-105615666D01*
X133854458Y-105617790D01*
X133840000Y-105618500D01*
X133495000Y-105618500D01*
X133480542Y-105617790D01*
X133466224Y-105615666D01*
X133452183Y-105612149D01*
X133438554Y-105607272D01*
X133425469Y-105601083D01*
X133413053Y-105593642D01*
X133401427Y-105585019D01*
X133390702Y-105575298D01*
X133380981Y-105564573D01*
X133372358Y-105552947D01*
X133364917Y-105540531D01*
X133358728Y-105527446D01*
X133353851Y-105513817D01*
X133350334Y-105499776D01*
X133348210Y-105485458D01*
X133347500Y-105471000D01*
X133347500Y-105176000D01*
X133348210Y-105161542D01*
X133350334Y-105147224D01*
X133353851Y-105133183D01*
X133358728Y-105119554D01*
X133364917Y-105106469D01*
X133372358Y-105094053D01*
X133380981Y-105082427D01*
X133390702Y-105071702D01*
X133401427Y-105061981D01*
X133413053Y-105053358D01*
X133425469Y-105045917D01*
X133438554Y-105039728D01*
X133452183Y-105034851D01*
X133466224Y-105031334D01*
X133480542Y-105029210D01*
X133495000Y-105028500D01*
X133840000Y-105028500D01*
X133854458Y-105029210D01*
G37*
G36*
X133854458Y-104059210D02*
G01*
X133868776Y-104061334D01*
X133882817Y-104064851D01*
X133896446Y-104069728D01*
X133909531Y-104075917D01*
X133921947Y-104083358D01*
X133933573Y-104091981D01*
X133944298Y-104101702D01*
X133954019Y-104112427D01*
X133962642Y-104124053D01*
X133970083Y-104136469D01*
X133976272Y-104149554D01*
X133981149Y-104163183D01*
X133984666Y-104177224D01*
X133986790Y-104191542D01*
X133987500Y-104206000D01*
X133987500Y-104501000D01*
X133986790Y-104515458D01*
X133984666Y-104529776D01*
X133981149Y-104543817D01*
X133976272Y-104557446D01*
X133970083Y-104570531D01*
X133962642Y-104582947D01*
X133954019Y-104594573D01*
X133944298Y-104605298D01*
X133933573Y-104615019D01*
X133921947Y-104623642D01*
X133909531Y-104631083D01*
X133896446Y-104637272D01*
X133882817Y-104642149D01*
X133868776Y-104645666D01*
X133854458Y-104647790D01*
X133840000Y-104648500D01*
X133495000Y-104648500D01*
X133480542Y-104647790D01*
X133466224Y-104645666D01*
X133452183Y-104642149D01*
X133438554Y-104637272D01*
X133425469Y-104631083D01*
X133413053Y-104623642D01*
X133401427Y-104615019D01*
X133390702Y-104605298D01*
X133380981Y-104594573D01*
X133372358Y-104582947D01*
X133364917Y-104570531D01*
X133358728Y-104557446D01*
X133353851Y-104543817D01*
X133350334Y-104529776D01*
X133348210Y-104515458D01*
X133347500Y-104501000D01*
X133347500Y-104206000D01*
X133348210Y-104191542D01*
X133350334Y-104177224D01*
X133353851Y-104163183D01*
X133358728Y-104149554D01*
X133364917Y-104136469D01*
X133372358Y-104124053D01*
X133380981Y-104112427D01*
X133390702Y-104101702D01*
X133401427Y-104091981D01*
X133413053Y-104083358D01*
X133425469Y-104075917D01*
X133438554Y-104069728D01*
X133452183Y-104064851D01*
X133466224Y-104061334D01*
X133480542Y-104059210D01*
X133495000Y-104058500D01*
X133840000Y-104058500D01*
X133854458Y-104059210D01*
G37*
D16*
X146700000Y-70770000D03*
X144500000Y-70770000D03*
X143400000Y-70770000D03*
X142300000Y-70770000D03*
X141200000Y-70770000D03*
X140100000Y-70770000D03*
X137100000Y-70770000D03*
X136000000Y-70770000D03*
X134900000Y-70770000D03*
X133800000Y-70770000D03*
X132700000Y-70770000D03*
X132700000Y-58770000D03*
X133800000Y-58770000D03*
X134900000Y-58770000D03*
X136000000Y-58770000D03*
X137100000Y-58770000D03*
X140100000Y-58770000D03*
X141200000Y-58770000D03*
X142300000Y-58770000D03*
X143400000Y-58770000D03*
X144500000Y-58770000D03*
X145600000Y-58770000D03*
X146700000Y-58770000D03*
D10*
G36*
X140561142Y-55696174D02*
G01*
X140584803Y-55699684D01*
X140608007Y-55705496D01*
X140630529Y-55713554D01*
X140652153Y-55723782D01*
X140672670Y-55736079D01*
X140691883Y-55750329D01*
X140709607Y-55766393D01*
X140725671Y-55784117D01*
X140739921Y-55803330D01*
X140752218Y-55823847D01*
X140762446Y-55845471D01*
X140770504Y-55867993D01*
X140776316Y-55891197D01*
X140779826Y-55914858D01*
X140781000Y-55938750D01*
X140781000Y-56426250D01*
X140779826Y-56450142D01*
X140776316Y-56473803D01*
X140770504Y-56497007D01*
X140762446Y-56519529D01*
X140752218Y-56541153D01*
X140739921Y-56561670D01*
X140725671Y-56580883D01*
X140709607Y-56598607D01*
X140691883Y-56614671D01*
X140672670Y-56628921D01*
X140652153Y-56641218D01*
X140630529Y-56651446D01*
X140608007Y-56659504D01*
X140584803Y-56665316D01*
X140561142Y-56668826D01*
X140537250Y-56670000D01*
X139624750Y-56670000D01*
X139600858Y-56668826D01*
X139577197Y-56665316D01*
X139553993Y-56659504D01*
X139531471Y-56651446D01*
X139509847Y-56641218D01*
X139489330Y-56628921D01*
X139470117Y-56614671D01*
X139452393Y-56598607D01*
X139436329Y-56580883D01*
X139422079Y-56561670D01*
X139409782Y-56541153D01*
X139399554Y-56519529D01*
X139391496Y-56497007D01*
X139385684Y-56473803D01*
X139382174Y-56450142D01*
X139381000Y-56426250D01*
X139381000Y-55938750D01*
X139382174Y-55914858D01*
X139385684Y-55891197D01*
X139391496Y-55867993D01*
X139399554Y-55845471D01*
X139409782Y-55823847D01*
X139422079Y-55803330D01*
X139436329Y-55784117D01*
X139452393Y-55766393D01*
X139470117Y-55750329D01*
X139489330Y-55736079D01*
X139509847Y-55723782D01*
X139531471Y-55713554D01*
X139553993Y-55705496D01*
X139577197Y-55699684D01*
X139600858Y-55696174D01*
X139624750Y-55695000D01*
X140537250Y-55695000D01*
X140561142Y-55696174D01*
G37*
G36*
X140561142Y-53821174D02*
G01*
X140584803Y-53824684D01*
X140608007Y-53830496D01*
X140630529Y-53838554D01*
X140652153Y-53848782D01*
X140672670Y-53861079D01*
X140691883Y-53875329D01*
X140709607Y-53891393D01*
X140725671Y-53909117D01*
X140739921Y-53928330D01*
X140752218Y-53948847D01*
X140762446Y-53970471D01*
X140770504Y-53992993D01*
X140776316Y-54016197D01*
X140779826Y-54039858D01*
X140781000Y-54063750D01*
X140781000Y-54551250D01*
X140779826Y-54575142D01*
X140776316Y-54598803D01*
X140770504Y-54622007D01*
X140762446Y-54644529D01*
X140752218Y-54666153D01*
X140739921Y-54686670D01*
X140725671Y-54705883D01*
X140709607Y-54723607D01*
X140691883Y-54739671D01*
X140672670Y-54753921D01*
X140652153Y-54766218D01*
X140630529Y-54776446D01*
X140608007Y-54784504D01*
X140584803Y-54790316D01*
X140561142Y-54793826D01*
X140537250Y-54795000D01*
X139624750Y-54795000D01*
X139600858Y-54793826D01*
X139577197Y-54790316D01*
X139553993Y-54784504D01*
X139531471Y-54776446D01*
X139509847Y-54766218D01*
X139489330Y-54753921D01*
X139470117Y-54739671D01*
X139452393Y-54723607D01*
X139436329Y-54705883D01*
X139422079Y-54686670D01*
X139409782Y-54666153D01*
X139399554Y-54644529D01*
X139391496Y-54622007D01*
X139385684Y-54598803D01*
X139382174Y-54575142D01*
X139381000Y-54551250D01*
X139381000Y-54063750D01*
X139382174Y-54039858D01*
X139385684Y-54016197D01*
X139391496Y-53992993D01*
X139399554Y-53970471D01*
X139409782Y-53948847D01*
X139422079Y-53928330D01*
X139436329Y-53909117D01*
X139452393Y-53891393D01*
X139470117Y-53875329D01*
X139489330Y-53861079D01*
X139509847Y-53848782D01*
X139531471Y-53838554D01*
X139553993Y-53830496D01*
X139577197Y-53824684D01*
X139600858Y-53821174D01*
X139624750Y-53820000D01*
X140537250Y-53820000D01*
X140561142Y-53821174D01*
G37*
D15*
X156464000Y-108950000D03*
X155514000Y-106950000D03*
X157414000Y-106950000D03*
D17*
X159337500Y-111696500D03*
X161337500Y-110746500D03*
X161337500Y-112646500D03*
D10*
G36*
X140600691Y-51723053D02*
G01*
X140621926Y-51726203D01*
X140642750Y-51731419D01*
X140662962Y-51738651D01*
X140682368Y-51747830D01*
X140700781Y-51758866D01*
X140718024Y-51771654D01*
X140733930Y-51786070D01*
X140748346Y-51801976D01*
X140761134Y-51819219D01*
X140772170Y-51837632D01*
X140781349Y-51857038D01*
X140788581Y-51877250D01*
X140793797Y-51898074D01*
X140796947Y-51919309D01*
X140798000Y-51940750D01*
X140798000Y-52453250D01*
X140796947Y-52474691D01*
X140793797Y-52495926D01*
X140788581Y-52516750D01*
X140781349Y-52536962D01*
X140772170Y-52556368D01*
X140761134Y-52574781D01*
X140748346Y-52592024D01*
X140733930Y-52607930D01*
X140718024Y-52622346D01*
X140700781Y-52635134D01*
X140682368Y-52646170D01*
X140662962Y-52655349D01*
X140642750Y-52662581D01*
X140621926Y-52667797D01*
X140600691Y-52670947D01*
X140579250Y-52672000D01*
X140141750Y-52672000D01*
X140120309Y-52670947D01*
X140099074Y-52667797D01*
X140078250Y-52662581D01*
X140058038Y-52655349D01*
X140038632Y-52646170D01*
X140020219Y-52635134D01*
X140002976Y-52622346D01*
X139987070Y-52607930D01*
X139972654Y-52592024D01*
X139959866Y-52574781D01*
X139948830Y-52556368D01*
X139939651Y-52536962D01*
X139932419Y-52516750D01*
X139927203Y-52495926D01*
X139924053Y-52474691D01*
X139923000Y-52453250D01*
X139923000Y-51940750D01*
X139924053Y-51919309D01*
X139927203Y-51898074D01*
X139932419Y-51877250D01*
X139939651Y-51857038D01*
X139948830Y-51837632D01*
X139959866Y-51819219D01*
X139972654Y-51801976D01*
X139987070Y-51786070D01*
X140002976Y-51771654D01*
X140020219Y-51758866D01*
X140038632Y-51747830D01*
X140058038Y-51738651D01*
X140078250Y-51731419D01*
X140099074Y-51726203D01*
X140120309Y-51723053D01*
X140141750Y-51722000D01*
X140579250Y-51722000D01*
X140600691Y-51723053D01*
G37*
G36*
X139025691Y-51723053D02*
G01*
X139046926Y-51726203D01*
X139067750Y-51731419D01*
X139087962Y-51738651D01*
X139107368Y-51747830D01*
X139125781Y-51758866D01*
X139143024Y-51771654D01*
X139158930Y-51786070D01*
X139173346Y-51801976D01*
X139186134Y-51819219D01*
X139197170Y-51837632D01*
X139206349Y-51857038D01*
X139213581Y-51877250D01*
X139218797Y-51898074D01*
X139221947Y-51919309D01*
X139223000Y-51940750D01*
X139223000Y-52453250D01*
X139221947Y-52474691D01*
X139218797Y-52495926D01*
X139213581Y-52516750D01*
X139206349Y-52536962D01*
X139197170Y-52556368D01*
X139186134Y-52574781D01*
X139173346Y-52592024D01*
X139158930Y-52607930D01*
X139143024Y-52622346D01*
X139125781Y-52635134D01*
X139107368Y-52646170D01*
X139087962Y-52655349D01*
X139067750Y-52662581D01*
X139046926Y-52667797D01*
X139025691Y-52670947D01*
X139004250Y-52672000D01*
X138566750Y-52672000D01*
X138545309Y-52670947D01*
X138524074Y-52667797D01*
X138503250Y-52662581D01*
X138483038Y-52655349D01*
X138463632Y-52646170D01*
X138445219Y-52635134D01*
X138427976Y-52622346D01*
X138412070Y-52607930D01*
X138397654Y-52592024D01*
X138384866Y-52574781D01*
X138373830Y-52556368D01*
X138364651Y-52536962D01*
X138357419Y-52516750D01*
X138352203Y-52495926D01*
X138349053Y-52474691D01*
X138348000Y-52453250D01*
X138348000Y-51940750D01*
X138349053Y-51919309D01*
X138352203Y-51898074D01*
X138357419Y-51877250D01*
X138364651Y-51857038D01*
X138373830Y-51837632D01*
X138384866Y-51819219D01*
X138397654Y-51801976D01*
X138412070Y-51786070D01*
X138427976Y-51771654D01*
X138445219Y-51758866D01*
X138463632Y-51747830D01*
X138483038Y-51738651D01*
X138503250Y-51731419D01*
X138524074Y-51726203D01*
X138545309Y-51723053D01*
X138566750Y-51722000D01*
X139004250Y-51722000D01*
X139025691Y-51723053D01*
G37*
G36*
X144156691Y-52739053D02*
G01*
X144177926Y-52742203D01*
X144198750Y-52747419D01*
X144218962Y-52754651D01*
X144238368Y-52763830D01*
X144256781Y-52774866D01*
X144274024Y-52787654D01*
X144289930Y-52802070D01*
X144304346Y-52817976D01*
X144317134Y-52835219D01*
X144328170Y-52853632D01*
X144337349Y-52873038D01*
X144344581Y-52893250D01*
X144349797Y-52914074D01*
X144352947Y-52935309D01*
X144354000Y-52956750D01*
X144354000Y-53469250D01*
X144352947Y-53490691D01*
X144349797Y-53511926D01*
X144344581Y-53532750D01*
X144337349Y-53552962D01*
X144328170Y-53572368D01*
X144317134Y-53590781D01*
X144304346Y-53608024D01*
X144289930Y-53623930D01*
X144274024Y-53638346D01*
X144256781Y-53651134D01*
X144238368Y-53662170D01*
X144218962Y-53671349D01*
X144198750Y-53678581D01*
X144177926Y-53683797D01*
X144156691Y-53686947D01*
X144135250Y-53688000D01*
X143697750Y-53688000D01*
X143676309Y-53686947D01*
X143655074Y-53683797D01*
X143634250Y-53678581D01*
X143614038Y-53671349D01*
X143594632Y-53662170D01*
X143576219Y-53651134D01*
X143558976Y-53638346D01*
X143543070Y-53623930D01*
X143528654Y-53608024D01*
X143515866Y-53590781D01*
X143504830Y-53572368D01*
X143495651Y-53552962D01*
X143488419Y-53532750D01*
X143483203Y-53511926D01*
X143480053Y-53490691D01*
X143479000Y-53469250D01*
X143479000Y-52956750D01*
X143480053Y-52935309D01*
X143483203Y-52914074D01*
X143488419Y-52893250D01*
X143495651Y-52873038D01*
X143504830Y-52853632D01*
X143515866Y-52835219D01*
X143528654Y-52817976D01*
X143543070Y-52802070D01*
X143558976Y-52787654D01*
X143576219Y-52774866D01*
X143594632Y-52763830D01*
X143614038Y-52754651D01*
X143634250Y-52747419D01*
X143655074Y-52742203D01*
X143676309Y-52739053D01*
X143697750Y-52738000D01*
X144135250Y-52738000D01*
X144156691Y-52739053D01*
G37*
G36*
X142581691Y-52739053D02*
G01*
X142602926Y-52742203D01*
X142623750Y-52747419D01*
X142643962Y-52754651D01*
X142663368Y-52763830D01*
X142681781Y-52774866D01*
X142699024Y-52787654D01*
X142714930Y-52802070D01*
X142729346Y-52817976D01*
X142742134Y-52835219D01*
X142753170Y-52853632D01*
X142762349Y-52873038D01*
X142769581Y-52893250D01*
X142774797Y-52914074D01*
X142777947Y-52935309D01*
X142779000Y-52956750D01*
X142779000Y-53469250D01*
X142777947Y-53490691D01*
X142774797Y-53511926D01*
X142769581Y-53532750D01*
X142762349Y-53552962D01*
X142753170Y-53572368D01*
X142742134Y-53590781D01*
X142729346Y-53608024D01*
X142714930Y-53623930D01*
X142699024Y-53638346D01*
X142681781Y-53651134D01*
X142663368Y-53662170D01*
X142643962Y-53671349D01*
X142623750Y-53678581D01*
X142602926Y-53683797D01*
X142581691Y-53686947D01*
X142560250Y-53688000D01*
X142122750Y-53688000D01*
X142101309Y-53686947D01*
X142080074Y-53683797D01*
X142059250Y-53678581D01*
X142039038Y-53671349D01*
X142019632Y-53662170D01*
X142001219Y-53651134D01*
X141983976Y-53638346D01*
X141968070Y-53623930D01*
X141953654Y-53608024D01*
X141940866Y-53590781D01*
X141929830Y-53572368D01*
X141920651Y-53552962D01*
X141913419Y-53532750D01*
X141908203Y-53511926D01*
X141905053Y-53490691D01*
X141904000Y-53469250D01*
X141904000Y-52956750D01*
X141905053Y-52935309D01*
X141908203Y-52914074D01*
X141913419Y-52893250D01*
X141920651Y-52873038D01*
X141929830Y-52853632D01*
X141940866Y-52835219D01*
X141953654Y-52817976D01*
X141968070Y-52802070D01*
X141983976Y-52787654D01*
X142001219Y-52774866D01*
X142019632Y-52763830D01*
X142039038Y-52754651D01*
X142059250Y-52747419D01*
X142080074Y-52742203D01*
X142101309Y-52739053D01*
X142122750Y-52738000D01*
X142560250Y-52738000D01*
X142581691Y-52739053D01*
G37*
G36*
X188376642Y-114527174D02*
G01*
X188400303Y-114530684D01*
X188423507Y-114536496D01*
X188446029Y-114544554D01*
X188467653Y-114554782D01*
X188488170Y-114567079D01*
X188507383Y-114581329D01*
X188525107Y-114597393D01*
X188541171Y-114615117D01*
X188555421Y-114634330D01*
X188567718Y-114654847D01*
X188577946Y-114676471D01*
X188586004Y-114698993D01*
X188591816Y-114722197D01*
X188595326Y-114745858D01*
X188596500Y-114769750D01*
X188596500Y-115257250D01*
X188595326Y-115281142D01*
X188591816Y-115304803D01*
X188586004Y-115328007D01*
X188577946Y-115350529D01*
X188567718Y-115372153D01*
X188555421Y-115392670D01*
X188541171Y-115411883D01*
X188525107Y-115429607D01*
X188507383Y-115445671D01*
X188488170Y-115459921D01*
X188467653Y-115472218D01*
X188446029Y-115482446D01*
X188423507Y-115490504D01*
X188400303Y-115496316D01*
X188376642Y-115499826D01*
X188352750Y-115501000D01*
X187440250Y-115501000D01*
X187416358Y-115499826D01*
X187392697Y-115496316D01*
X187369493Y-115490504D01*
X187346971Y-115482446D01*
X187325347Y-115472218D01*
X187304830Y-115459921D01*
X187285617Y-115445671D01*
X187267893Y-115429607D01*
X187251829Y-115411883D01*
X187237579Y-115392670D01*
X187225282Y-115372153D01*
X187215054Y-115350529D01*
X187206996Y-115328007D01*
X187201184Y-115304803D01*
X187197674Y-115281142D01*
X187196500Y-115257250D01*
X187196500Y-114769750D01*
X187197674Y-114745858D01*
X187201184Y-114722197D01*
X187206996Y-114698993D01*
X187215054Y-114676471D01*
X187225282Y-114654847D01*
X187237579Y-114634330D01*
X187251829Y-114615117D01*
X187267893Y-114597393D01*
X187285617Y-114581329D01*
X187304830Y-114567079D01*
X187325347Y-114554782D01*
X187346971Y-114544554D01*
X187369493Y-114536496D01*
X187392697Y-114530684D01*
X187416358Y-114527174D01*
X187440250Y-114526000D01*
X188352750Y-114526000D01*
X188376642Y-114527174D01*
G37*
G36*
X188376642Y-116402174D02*
G01*
X188400303Y-116405684D01*
X188423507Y-116411496D01*
X188446029Y-116419554D01*
X188467653Y-116429782D01*
X188488170Y-116442079D01*
X188507383Y-116456329D01*
X188525107Y-116472393D01*
X188541171Y-116490117D01*
X188555421Y-116509330D01*
X188567718Y-116529847D01*
X188577946Y-116551471D01*
X188586004Y-116573993D01*
X188591816Y-116597197D01*
X188595326Y-116620858D01*
X188596500Y-116644750D01*
X188596500Y-117132250D01*
X188595326Y-117156142D01*
X188591816Y-117179803D01*
X188586004Y-117203007D01*
X188577946Y-117225529D01*
X188567718Y-117247153D01*
X188555421Y-117267670D01*
X188541171Y-117286883D01*
X188525107Y-117304607D01*
X188507383Y-117320671D01*
X188488170Y-117334921D01*
X188467653Y-117347218D01*
X188446029Y-117357446D01*
X188423507Y-117365504D01*
X188400303Y-117371316D01*
X188376642Y-117374826D01*
X188352750Y-117376000D01*
X187440250Y-117376000D01*
X187416358Y-117374826D01*
X187392697Y-117371316D01*
X187369493Y-117365504D01*
X187346971Y-117357446D01*
X187325347Y-117347218D01*
X187304830Y-117334921D01*
X187285617Y-117320671D01*
X187267893Y-117304607D01*
X187251829Y-117286883D01*
X187237579Y-117267670D01*
X187225282Y-117247153D01*
X187215054Y-117225529D01*
X187206996Y-117203007D01*
X187201184Y-117179803D01*
X187197674Y-117156142D01*
X187196500Y-117132250D01*
X187196500Y-116644750D01*
X187197674Y-116620858D01*
X187201184Y-116597197D01*
X187206996Y-116573993D01*
X187215054Y-116551471D01*
X187225282Y-116529847D01*
X187237579Y-116509330D01*
X187251829Y-116490117D01*
X187267893Y-116472393D01*
X187285617Y-116456329D01*
X187304830Y-116442079D01*
X187325347Y-116429782D01*
X187346971Y-116419554D01*
X187369493Y-116411496D01*
X187392697Y-116405684D01*
X187416358Y-116402174D01*
X187440250Y-116401000D01*
X188352750Y-116401000D01*
X188376642Y-116402174D01*
G37*
D18*
X176327500Y-93091000D03*
X174827500Y-93091000D03*
X136537000Y-73660000D03*
X138037000Y-73660000D03*
D19*
X133096000Y-117856000D03*
D20*
X133096000Y-112256000D03*
X133096000Y-123456000D03*
D21*
X173069500Y-110299500D03*
X177069500Y-110299500D03*
D22*
X163627500Y-109093000D03*
X162127500Y-109093000D03*
D23*
X169439500Y-90741500D03*
X170539500Y-90741500D03*
D18*
X179018500Y-94932500D03*
X180518500Y-94932500D03*
X151054500Y-91567000D03*
X149554500Y-91567000D03*
X144792000Y-91567000D03*
X146292000Y-91567000D03*
D22*
X162750500Y-90487500D03*
X164250500Y-90487500D03*
X164262500Y-88392000D03*
X162762500Y-88392000D03*
D24*
X159829500Y-88594500D03*
X159829500Y-90094500D03*
D22*
X132981000Y-75184000D03*
X134481000Y-75184000D03*
X170803000Y-87020400D03*
X169303000Y-87020400D03*
X157341000Y-105156000D03*
X155841000Y-105156000D03*
D24*
X153289000Y-63361000D03*
X153289000Y-61861000D03*
D22*
X136029000Y-104902000D03*
X137529000Y-104902000D03*
D24*
X163576000Y-105803000D03*
X163576000Y-107303000D03*
X160147000Y-104215500D03*
X160147000Y-105715500D03*
D22*
X168263000Y-106489500D03*
X166763000Y-106489500D03*
D24*
X161798000Y-107303000D03*
X161798000Y-105803000D03*
D22*
X170739500Y-92075000D03*
X169239500Y-92075000D03*
X176200500Y-94869000D03*
X174700500Y-94869000D03*
X180391500Y-93091000D03*
X178891500Y-93091000D03*
D24*
X155321000Y-63361000D03*
X155321000Y-61861000D03*
D22*
X160516000Y-108966000D03*
X159016000Y-108966000D03*
D24*
X161734500Y-114629500D03*
X161734500Y-116129500D03*
M02*
