G04 #@! TF.GenerationSoftware,KiCad,Pcbnew,(5.1.5)-3*
G04 #@! TF.CreationDate,2020-04-29T23:57:10-07:00*
G04 #@! TF.ProjectId,DashSight-Mezzanine-Card,44617368-5369-4676-9874-2d4d657a7a61,rev?*
G04 #@! TF.SameCoordinates,Original*
G04 #@! TF.FileFunction,Legend,Top*
G04 #@! TF.FilePolarity,Positive*
%FSLAX46Y46*%
G04 Gerber Fmt 4.6, Leading zero omitted, Abs format (unit mm)*
G04 Created by KiCad (PCBNEW (5.1.5)-3) date 2020-04-29 23:57:10*
%MOMM*%
%LPD*%
G04 APERTURE LIST*
%ADD10C,0.300000*%
%ADD11C,0.120000*%
%ADD12C,0.010000*%
%ADD13C,0.398780*%
%ADD14C,0.254000*%
%ADD15C,0.150000*%
%ADD16C,0.127000*%
G04 APERTURE END LIST*
D10*
X139859647Y-82309466D02*
X140478695Y-82309466D01*
X139735838Y-82680895D02*
X140169171Y-81380895D01*
X140602504Y-82680895D01*
X141221552Y-82680895D02*
X141097742Y-82618990D01*
X141035838Y-82495180D01*
X141035838Y-81380895D01*
X141716790Y-82680895D02*
X141716790Y-81814228D01*
X141716790Y-81380895D02*
X141654885Y-81442800D01*
X141716790Y-81504704D01*
X141778695Y-81442800D01*
X141716790Y-81380895D01*
X141716790Y-81504704D01*
X142273933Y-82618990D02*
X142397742Y-82680895D01*
X142645361Y-82680895D01*
X142769171Y-82618990D01*
X142831076Y-82495180D01*
X142831076Y-82433276D01*
X142769171Y-82309466D01*
X142645361Y-82247561D01*
X142459647Y-82247561D01*
X142335838Y-82185657D01*
X142273933Y-82061847D01*
X142273933Y-81999942D01*
X142335838Y-81876133D01*
X142459647Y-81814228D01*
X142645361Y-81814228D01*
X142769171Y-81876133D01*
X143202504Y-81814228D02*
X143697742Y-81814228D01*
X143388219Y-81380895D02*
X143388219Y-82495180D01*
X143450123Y-82618990D01*
X143573933Y-82680895D01*
X143697742Y-82680895D01*
X144688219Y-82680895D02*
X144688219Y-81999942D01*
X144626314Y-81876133D01*
X144502504Y-81814228D01*
X144254885Y-81814228D01*
X144131076Y-81876133D01*
X144688219Y-82618990D02*
X144564409Y-82680895D01*
X144254885Y-82680895D01*
X144131076Y-82618990D01*
X144069171Y-82495180D01*
X144069171Y-82371371D01*
X144131076Y-82247561D01*
X144254885Y-82185657D01*
X144564409Y-82185657D01*
X144688219Y-82123752D01*
X145307266Y-82680895D02*
X145307266Y-81814228D01*
X145307266Y-81380895D02*
X145245361Y-81442800D01*
X145307266Y-81504704D01*
X145369171Y-81442800D01*
X145307266Y-81380895D01*
X145307266Y-81504704D01*
X145926314Y-82680895D02*
X145926314Y-81814228D01*
X145926314Y-82061847D02*
X145988219Y-81938038D01*
X146050123Y-81876133D01*
X146173933Y-81814228D01*
X146297742Y-81814228D01*
X148154885Y-81999942D02*
X147721552Y-81999942D01*
X147721552Y-82680895D02*
X147721552Y-81380895D01*
X148340600Y-81380895D01*
X148835838Y-82680895D02*
X148835838Y-81814228D01*
X148835838Y-82061847D02*
X148897742Y-81938038D01*
X148959647Y-81876133D01*
X149083457Y-81814228D01*
X149207266Y-81814228D01*
X150197742Y-82680895D02*
X150197742Y-81999942D01*
X150135838Y-81876133D01*
X150012028Y-81814228D01*
X149764409Y-81814228D01*
X149640600Y-81876133D01*
X150197742Y-82618990D02*
X150073933Y-82680895D01*
X149764409Y-82680895D01*
X149640600Y-82618990D01*
X149578695Y-82495180D01*
X149578695Y-82371371D01*
X149640600Y-82247561D01*
X149764409Y-82185657D01*
X150073933Y-82185657D01*
X150197742Y-82123752D01*
X150816790Y-81814228D02*
X150816790Y-82680895D01*
X150816790Y-81938038D02*
X150878695Y-81876133D01*
X151002504Y-81814228D01*
X151188219Y-81814228D01*
X151312028Y-81876133D01*
X151373933Y-81999942D01*
X151373933Y-82680895D01*
X152550123Y-82618990D02*
X152426314Y-82680895D01*
X152178695Y-82680895D01*
X152054885Y-82618990D01*
X151992980Y-82557085D01*
X151931076Y-82433276D01*
X151931076Y-82061847D01*
X151992980Y-81938038D01*
X152054885Y-81876133D01*
X152178695Y-81814228D01*
X152426314Y-81814228D01*
X152550123Y-81876133D01*
X153107266Y-82680895D02*
X153107266Y-81814228D01*
X153107266Y-81380895D02*
X153045361Y-81442800D01*
X153107266Y-81504704D01*
X153169171Y-81442800D01*
X153107266Y-81380895D01*
X153107266Y-81504704D01*
X153664409Y-82618990D02*
X153788219Y-82680895D01*
X154035838Y-82680895D01*
X154159647Y-82618990D01*
X154221552Y-82495180D01*
X154221552Y-82433276D01*
X154159647Y-82309466D01*
X154035838Y-82247561D01*
X153850123Y-82247561D01*
X153726314Y-82185657D01*
X153664409Y-82061847D01*
X153664409Y-81999942D01*
X153726314Y-81876133D01*
X153850123Y-81814228D01*
X154035838Y-81814228D01*
X154159647Y-81876133D01*
X138897742Y-80586971D02*
X138897742Y-79086971D01*
X139254885Y-79086971D01*
X139469171Y-79158400D01*
X139612028Y-79301257D01*
X139683457Y-79444114D01*
X139754885Y-79729828D01*
X139754885Y-79944114D01*
X139683457Y-80229828D01*
X139612028Y-80372685D01*
X139469171Y-80515542D01*
X139254885Y-80586971D01*
X138897742Y-80586971D01*
X141040600Y-80586971D02*
X141040600Y-79801257D01*
X140969171Y-79658400D01*
X140826314Y-79586971D01*
X140540600Y-79586971D01*
X140397742Y-79658400D01*
X141040600Y-80515542D02*
X140897742Y-80586971D01*
X140540600Y-80586971D01*
X140397742Y-80515542D01*
X140326314Y-80372685D01*
X140326314Y-80229828D01*
X140397742Y-80086971D01*
X140540600Y-80015542D01*
X140897742Y-80015542D01*
X141040600Y-79944114D01*
X141683457Y-80515542D02*
X141826314Y-80586971D01*
X142112028Y-80586971D01*
X142254885Y-80515542D01*
X142326314Y-80372685D01*
X142326314Y-80301257D01*
X142254885Y-80158400D01*
X142112028Y-80086971D01*
X141897742Y-80086971D01*
X141754885Y-80015542D01*
X141683457Y-79872685D01*
X141683457Y-79801257D01*
X141754885Y-79658400D01*
X141897742Y-79586971D01*
X142112028Y-79586971D01*
X142254885Y-79658400D01*
X142969171Y-80586971D02*
X142969171Y-79086971D01*
X143612028Y-80586971D02*
X143612028Y-79801257D01*
X143540600Y-79658400D01*
X143397742Y-79586971D01*
X143183457Y-79586971D01*
X143040600Y-79658400D01*
X142969171Y-79729828D01*
X144254885Y-80515542D02*
X144469171Y-80586971D01*
X144826314Y-80586971D01*
X144969171Y-80515542D01*
X145040600Y-80444114D01*
X145112028Y-80301257D01*
X145112028Y-80158400D01*
X145040600Y-80015542D01*
X144969171Y-79944114D01*
X144826314Y-79872685D01*
X144540600Y-79801257D01*
X144397742Y-79729828D01*
X144326314Y-79658400D01*
X144254885Y-79515542D01*
X144254885Y-79372685D01*
X144326314Y-79229828D01*
X144397742Y-79158400D01*
X144540600Y-79086971D01*
X144897742Y-79086971D01*
X145112028Y-79158400D01*
X145754885Y-80586971D02*
X145754885Y-79586971D01*
X145754885Y-79086971D02*
X145683457Y-79158400D01*
X145754885Y-79229828D01*
X145826314Y-79158400D01*
X145754885Y-79086971D01*
X145754885Y-79229828D01*
X147112028Y-79586971D02*
X147112028Y-80801257D01*
X147040600Y-80944114D01*
X146969171Y-81015542D01*
X146826314Y-81086971D01*
X146612028Y-81086971D01*
X146469171Y-81015542D01*
X147112028Y-80515542D02*
X146969171Y-80586971D01*
X146683457Y-80586971D01*
X146540600Y-80515542D01*
X146469171Y-80444114D01*
X146397742Y-80301257D01*
X146397742Y-79872685D01*
X146469171Y-79729828D01*
X146540600Y-79658400D01*
X146683457Y-79586971D01*
X146969171Y-79586971D01*
X147112028Y-79658400D01*
X147826314Y-80586971D02*
X147826314Y-79086971D01*
X148469171Y-80586971D02*
X148469171Y-79801257D01*
X148397742Y-79658400D01*
X148254885Y-79586971D01*
X148040600Y-79586971D01*
X147897742Y-79658400D01*
X147826314Y-79729828D01*
X148969171Y-79586971D02*
X149540600Y-79586971D01*
X149183457Y-79086971D02*
X149183457Y-80372685D01*
X149254885Y-80515542D01*
X149397742Y-80586971D01*
X149540600Y-80586971D01*
X151040600Y-79586971D02*
X151397742Y-80586971D01*
X151754885Y-79586971D01*
X152183457Y-79086971D02*
X153112028Y-79086971D01*
X152612028Y-79658400D01*
X152826314Y-79658400D01*
X152969171Y-79729828D01*
X153040600Y-79801257D01*
X153112028Y-79944114D01*
X153112028Y-80301257D01*
X153040600Y-80444114D01*
X152969171Y-80515542D01*
X152826314Y-80586971D01*
X152397742Y-80586971D01*
X152254885Y-80515542D01*
X152183457Y-80444114D01*
X153754885Y-80444114D02*
X153826314Y-80515542D01*
X153754885Y-80586971D01*
X153683457Y-80515542D01*
X153754885Y-80444114D01*
X153754885Y-80586971D01*
X154754885Y-79086971D02*
X154897742Y-79086971D01*
X155040600Y-79158400D01*
X155112028Y-79229828D01*
X155183457Y-79372685D01*
X155254885Y-79658400D01*
X155254885Y-80015542D01*
X155183457Y-80301257D01*
X155112028Y-80444114D01*
X155040600Y-80515542D01*
X154897742Y-80586971D01*
X154754885Y-80586971D01*
X154612028Y-80515542D01*
X154540600Y-80444114D01*
X154469171Y-80301257D01*
X154397742Y-80015542D01*
X154397742Y-79658400D01*
X154469171Y-79372685D01*
X154540600Y-79229828D01*
X154612028Y-79158400D01*
X154754885Y-79086971D01*
D11*
X135675000Y-76935000D02*
X137960000Y-76935000D01*
X135675000Y-75465000D02*
X135675000Y-76935000D01*
X137960000Y-75465000D02*
X135675000Y-75465000D01*
X145184000Y-84914500D02*
G75*
G03X145184000Y-89964500I0J-2525000D01*
G01*
X151434000Y-84914500D02*
G75*
G02X151434000Y-89964500I0J-2525000D01*
G01*
X151434000Y-84914500D02*
X145184000Y-84914500D01*
X151434000Y-89964500D02*
X145184000Y-89964500D01*
X151912000Y-114046000D02*
X151912000Y-110596000D01*
X151912000Y-114046000D02*
X151912000Y-115996000D01*
X146792000Y-114046000D02*
X146792000Y-112096000D01*
X146792000Y-114046000D02*
X146792000Y-115996000D01*
X167255978Y-112080522D02*
G75*
G03X162817500Y-113919000I-1838478J-1838478D01*
G01*
X167255978Y-115757478D02*
G75*
G02X162817500Y-113919000I-1838478J1838478D01*
G01*
X167267500Y-115719000D02*
X167267500Y-112119000D01*
X179624500Y-96523500D02*
X177974500Y-96523500D01*
X179624500Y-106803500D02*
X179624500Y-96523500D01*
X174324500Y-106803500D02*
X179624500Y-106803500D01*
X174324500Y-96523500D02*
X174324500Y-106803500D01*
X175974500Y-96523500D02*
X174324500Y-96523500D01*
X177974500Y-96523500D02*
G75*
G02X175974500Y-96523500I-1000000J0D01*
G01*
X185607000Y-111700000D02*
X185607000Y-113030000D01*
X184277000Y-111700000D02*
X185607000Y-111700000D01*
X183007000Y-111700000D02*
X183007000Y-114360000D01*
X183007000Y-114360000D02*
X180407000Y-114360000D01*
X183007000Y-111700000D02*
X180407000Y-111700000D01*
X180407000Y-111700000D02*
X180407000Y-114360000D01*
X185607000Y-115383000D02*
X185607000Y-116713000D01*
X184277000Y-115383000D02*
X185607000Y-115383000D01*
X183007000Y-115383000D02*
X183007000Y-118043000D01*
X183007000Y-118043000D02*
X180407000Y-118043000D01*
X183007000Y-115383000D02*
X180407000Y-115383000D01*
X180407000Y-115383000D02*
X180407000Y-118043000D01*
X131804000Y-48898000D02*
X135404000Y-48898000D01*
X131804000Y-56258000D02*
X135404000Y-56258000D01*
X137284000Y-50778000D02*
X137284000Y-54378000D01*
X129924000Y-50778000D02*
X129924000Y-54378000D01*
D12*
G36*
X135536710Y-77963548D02*
G01*
X135615254Y-77963978D01*
X135672098Y-77965142D01*
X135710905Y-77967407D01*
X135735338Y-77971140D01*
X135749062Y-77976706D01*
X135755740Y-77984473D01*
X135759036Y-77994805D01*
X135759356Y-77996143D01*
X135764362Y-78020279D01*
X135773629Y-78067901D01*
X135786192Y-78133941D01*
X135801087Y-78213328D01*
X135817351Y-78300996D01*
X135817919Y-78304075D01*
X135834210Y-78389989D01*
X135849452Y-78465896D01*
X135862661Y-78527245D01*
X135872854Y-78569482D01*
X135879048Y-78588055D01*
X135879343Y-78588384D01*
X135897588Y-78597453D01*
X135935205Y-78612567D01*
X135984071Y-78630462D01*
X135984343Y-78630558D01*
X136045893Y-78653693D01*
X136118457Y-78683165D01*
X136186857Y-78712797D01*
X136190094Y-78714262D01*
X136301502Y-78764826D01*
X136548199Y-78596360D01*
X136623877Y-78545003D01*
X136692431Y-78499089D01*
X136749888Y-78461230D01*
X136792276Y-78434037D01*
X136815625Y-78420121D01*
X136817842Y-78419089D01*
X136834810Y-78423684D01*
X136866501Y-78445855D01*
X136914152Y-78486647D01*
X136978998Y-78547105D01*
X137045197Y-78611427D01*
X137109014Y-78674812D01*
X137166129Y-78732651D01*
X137213105Y-78781375D01*
X137246503Y-78817410D01*
X137262885Y-78837184D01*
X137263494Y-78838202D01*
X137265305Y-78851772D01*
X137258483Y-78873933D01*
X137241340Y-78907678D01*
X137212193Y-78956000D01*
X137169355Y-79021892D01*
X137112248Y-79106717D01*
X137061566Y-79181377D01*
X137016261Y-79248340D01*
X136978950Y-79303716D01*
X136952252Y-79343620D01*
X136938785Y-79364162D01*
X136937937Y-79365556D01*
X136939581Y-79385238D01*
X136952045Y-79423493D01*
X136972848Y-79473089D01*
X136980262Y-79488928D01*
X137012614Y-79559490D01*
X137047128Y-79639553D01*
X137075165Y-79708829D01*
X137095368Y-79760245D01*
X137111415Y-79799319D01*
X137120688Y-79819741D01*
X137121841Y-79821314D01*
X137138896Y-79823921D01*
X137179098Y-79831063D01*
X137237102Y-79841723D01*
X137307563Y-79854885D01*
X137385135Y-79869533D01*
X137464472Y-79884649D01*
X137540231Y-79899218D01*
X137607064Y-79912222D01*
X137659628Y-79922645D01*
X137692576Y-79929470D01*
X137700657Y-79931399D01*
X137709005Y-79936162D01*
X137715306Y-79946918D01*
X137719845Y-79967298D01*
X137722904Y-80000934D01*
X137724767Y-80051455D01*
X137725718Y-80122492D01*
X137726040Y-80217676D01*
X137726057Y-80256692D01*
X137726057Y-80573999D01*
X137649857Y-80589039D01*
X137607463Y-80597195D01*
X137544200Y-80609099D01*
X137467762Y-80623316D01*
X137385843Y-80638410D01*
X137363200Y-80642555D01*
X137287606Y-80657253D01*
X137221753Y-80671705D01*
X137171166Y-80684575D01*
X137141374Y-80694522D01*
X137136412Y-80697487D01*
X137124226Y-80718483D01*
X137106753Y-80759167D01*
X137087377Y-80811522D01*
X137083534Y-80822800D01*
X137058139Y-80892723D01*
X137026617Y-80971618D01*
X136995769Y-81042466D01*
X136995617Y-81042795D01*
X136944247Y-81153933D01*
X137113199Y-81402453D01*
X137282152Y-81650972D01*
X137065229Y-81868258D01*
X136999619Y-81932926D01*
X136939779Y-81989933D01*
X136889067Y-82036233D01*
X136850846Y-82068784D01*
X136828475Y-82084543D01*
X136825266Y-82085543D01*
X136806426Y-82077669D01*
X136767980Y-82055778D01*
X136714130Y-82022467D01*
X136649076Y-81980331D01*
X136578740Y-81933143D01*
X136507355Y-81885010D01*
X136443708Y-81843128D01*
X136391841Y-81810071D01*
X136355795Y-81788418D01*
X136339667Y-81780743D01*
X136319989Y-81787237D01*
X136282675Y-81804350D01*
X136235421Y-81828526D01*
X136230412Y-81831213D01*
X136166777Y-81863127D01*
X136123141Y-81878779D01*
X136096002Y-81878945D01*
X136081857Y-81864404D01*
X136081775Y-81864200D01*
X136074705Y-81846979D01*
X136057842Y-81806099D01*
X136032495Y-81744725D01*
X135999971Y-81666019D01*
X135961578Y-81573147D01*
X135918622Y-81469272D01*
X135877022Y-81368702D01*
X135831304Y-81257716D01*
X135789326Y-81154903D01*
X135752348Y-81063415D01*
X135721627Y-80986401D01*
X135698422Y-80927015D01*
X135683990Y-80888409D01*
X135679543Y-80874000D01*
X135690696Y-80857472D01*
X135719869Y-80831130D01*
X135758771Y-80802087D01*
X135869557Y-80710239D01*
X135956151Y-80604959D01*
X136017516Y-80488466D01*
X136052615Y-80362976D01*
X136060408Y-80230707D01*
X136054743Y-80169657D01*
X136023878Y-80042995D01*
X135970720Y-79931141D01*
X135898567Y-79835201D01*
X135810717Y-79756276D01*
X135710465Y-79695470D01*
X135601110Y-79653887D01*
X135485947Y-79632628D01*
X135368275Y-79632799D01*
X135251390Y-79655501D01*
X135138589Y-79701838D01*
X135033169Y-79772913D01*
X134989168Y-79813111D01*
X134904779Y-79916329D01*
X134846022Y-80029125D01*
X134812504Y-80148210D01*
X134803835Y-80270295D01*
X134819623Y-80392093D01*
X134859478Y-80510316D01*
X134923007Y-80621675D01*
X135009821Y-80722884D01*
X135106829Y-80802087D01*
X135147237Y-80832362D01*
X135175782Y-80858419D01*
X135186057Y-80874025D01*
X135180677Y-80891043D01*
X135165375Y-80931700D01*
X135141412Y-80992842D01*
X135110044Y-81071319D01*
X135072532Y-81163980D01*
X135030133Y-81267672D01*
X134988463Y-81368726D01*
X134942490Y-81479807D01*
X134899907Y-81582741D01*
X134862021Y-81674365D01*
X134830140Y-81751516D01*
X134805571Y-81811031D01*
X134789620Y-81849744D01*
X134783710Y-81864200D01*
X134769748Y-81878885D01*
X134742740Y-81878842D01*
X134699213Y-81863299D01*
X134635690Y-81831484D01*
X134635188Y-81831213D01*
X134587360Y-81806523D01*
X134548697Y-81788538D01*
X134526895Y-81780814D01*
X134525933Y-81780743D01*
X134509521Y-81788578D01*
X134473287Y-81810365D01*
X134421274Y-81843528D01*
X134357525Y-81885491D01*
X134286860Y-81933143D01*
X134214916Y-81981391D01*
X134150074Y-82023351D01*
X134096535Y-82056427D01*
X134058497Y-82078021D01*
X134040333Y-82085543D01*
X134023608Y-82075657D01*
X133989980Y-82048026D01*
X133942810Y-82005695D01*
X133885458Y-81951705D01*
X133821284Y-81889099D01*
X133800297Y-81868183D01*
X133583299Y-81650823D01*
X133748468Y-81408420D01*
X133798664Y-81333981D01*
X133842719Y-81267172D01*
X133878162Y-81211865D01*
X133902519Y-81171929D01*
X133913322Y-81151236D01*
X133913638Y-81149763D01*
X133907943Y-81130258D01*
X133892626Y-81091022D01*
X133870337Y-81038630D01*
X133854693Y-81003555D01*
X133825441Y-80936401D01*
X133797894Y-80868558D01*
X133776537Y-80811234D01*
X133770735Y-80793772D01*
X133754252Y-80747138D01*
X133738140Y-80711105D01*
X133729290Y-80697487D01*
X133709760Y-80689152D01*
X133667134Y-80677337D01*
X133606945Y-80663381D01*
X133534722Y-80648622D01*
X133502400Y-80642555D01*
X133420322Y-80627473D01*
X133341595Y-80612869D01*
X133273909Y-80600180D01*
X133224960Y-80590842D01*
X133215743Y-80589039D01*
X133139543Y-80573999D01*
X133139543Y-80256692D01*
X133139714Y-80152354D01*
X133140416Y-80073413D01*
X133141934Y-80016238D01*
X133144549Y-79977199D01*
X133148546Y-79952665D01*
X133154209Y-79939005D01*
X133161820Y-79932589D01*
X133164943Y-79931399D01*
X133183778Y-79927180D01*
X133225388Y-79918762D01*
X133284430Y-79907161D01*
X133355557Y-79893395D01*
X133433425Y-79878480D01*
X133512687Y-79863432D01*
X133587998Y-79849269D01*
X133654013Y-79837006D01*
X133705387Y-79827661D01*
X133736775Y-79822250D01*
X133743759Y-79821314D01*
X133750085Y-79808796D01*
X133764090Y-79775446D01*
X133783155Y-79727577D01*
X133790434Y-79708829D01*
X133819796Y-79636395D01*
X133854371Y-79556370D01*
X133885337Y-79488928D01*
X133908123Y-79437359D01*
X133923282Y-79394985D01*
X133928342Y-79369034D01*
X133927536Y-79365556D01*
X133916841Y-79349136D01*
X133892420Y-79312617D01*
X133856895Y-79259887D01*
X133812887Y-79194835D01*
X133763017Y-79121351D01*
X133753156Y-79106845D01*
X133695292Y-79020904D01*
X133652756Y-78955461D01*
X133623854Y-78907504D01*
X133606890Y-78874020D01*
X133600167Y-78851995D01*
X133601990Y-78838417D01*
X133602036Y-78838331D01*
X133616386Y-78820497D01*
X133648123Y-78786017D01*
X133693810Y-78738468D01*
X133750004Y-78681422D01*
X133813268Y-78618455D01*
X133820402Y-78611427D01*
X133900130Y-78534220D01*
X133961657Y-78477530D01*
X134006221Y-78440310D01*
X134035057Y-78421515D01*
X134047758Y-78419089D01*
X134066294Y-78429671D01*
X134104761Y-78454116D01*
X134159186Y-78489812D01*
X134225598Y-78534147D01*
X134300025Y-78584511D01*
X134317401Y-78596360D01*
X134564097Y-78764826D01*
X134675506Y-78714262D01*
X134743257Y-78684795D01*
X134815983Y-78655159D01*
X134878503Y-78631530D01*
X134881257Y-78630558D01*
X134930160Y-78612657D01*
X134967857Y-78597520D01*
X134986225Y-78588410D01*
X134986256Y-78588384D01*
X134992085Y-78571917D01*
X135001992Y-78531419D01*
X135014995Y-78471442D01*
X135030109Y-78396540D01*
X135046352Y-78311264D01*
X135047681Y-78304075D01*
X135063975Y-78216214D01*
X135078933Y-78136460D01*
X135091591Y-78069881D01*
X135100986Y-78021547D01*
X135106154Y-77996525D01*
X135106244Y-77996143D01*
X135109389Y-77985499D01*
X135115504Y-77977462D01*
X135128253Y-77971667D01*
X135151300Y-77967747D01*
X135188309Y-77965335D01*
X135242944Y-77964065D01*
X135318867Y-77963571D01*
X135419744Y-77963486D01*
X135432800Y-77963486D01*
X135536710Y-77963548D01*
G37*
X135536710Y-77963548D02*
X135615254Y-77963978D01*
X135672098Y-77965142D01*
X135710905Y-77967407D01*
X135735338Y-77971140D01*
X135749062Y-77976706D01*
X135755740Y-77984473D01*
X135759036Y-77994805D01*
X135759356Y-77996143D01*
X135764362Y-78020279D01*
X135773629Y-78067901D01*
X135786192Y-78133941D01*
X135801087Y-78213328D01*
X135817351Y-78300996D01*
X135817919Y-78304075D01*
X135834210Y-78389989D01*
X135849452Y-78465896D01*
X135862661Y-78527245D01*
X135872854Y-78569482D01*
X135879048Y-78588055D01*
X135879343Y-78588384D01*
X135897588Y-78597453D01*
X135935205Y-78612567D01*
X135984071Y-78630462D01*
X135984343Y-78630558D01*
X136045893Y-78653693D01*
X136118457Y-78683165D01*
X136186857Y-78712797D01*
X136190094Y-78714262D01*
X136301502Y-78764826D01*
X136548199Y-78596360D01*
X136623877Y-78545003D01*
X136692431Y-78499089D01*
X136749888Y-78461230D01*
X136792276Y-78434037D01*
X136815625Y-78420121D01*
X136817842Y-78419089D01*
X136834810Y-78423684D01*
X136866501Y-78445855D01*
X136914152Y-78486647D01*
X136978998Y-78547105D01*
X137045197Y-78611427D01*
X137109014Y-78674812D01*
X137166129Y-78732651D01*
X137213105Y-78781375D01*
X137246503Y-78817410D01*
X137262885Y-78837184D01*
X137263494Y-78838202D01*
X137265305Y-78851772D01*
X137258483Y-78873933D01*
X137241340Y-78907678D01*
X137212193Y-78956000D01*
X137169355Y-79021892D01*
X137112248Y-79106717D01*
X137061566Y-79181377D01*
X137016261Y-79248340D01*
X136978950Y-79303716D01*
X136952252Y-79343620D01*
X136938785Y-79364162D01*
X136937937Y-79365556D01*
X136939581Y-79385238D01*
X136952045Y-79423493D01*
X136972848Y-79473089D01*
X136980262Y-79488928D01*
X137012614Y-79559490D01*
X137047128Y-79639553D01*
X137075165Y-79708829D01*
X137095368Y-79760245D01*
X137111415Y-79799319D01*
X137120688Y-79819741D01*
X137121841Y-79821314D01*
X137138896Y-79823921D01*
X137179098Y-79831063D01*
X137237102Y-79841723D01*
X137307563Y-79854885D01*
X137385135Y-79869533D01*
X137464472Y-79884649D01*
X137540231Y-79899218D01*
X137607064Y-79912222D01*
X137659628Y-79922645D01*
X137692576Y-79929470D01*
X137700657Y-79931399D01*
X137709005Y-79936162D01*
X137715306Y-79946918D01*
X137719845Y-79967298D01*
X137722904Y-80000934D01*
X137724767Y-80051455D01*
X137725718Y-80122492D01*
X137726040Y-80217676D01*
X137726057Y-80256692D01*
X137726057Y-80573999D01*
X137649857Y-80589039D01*
X137607463Y-80597195D01*
X137544200Y-80609099D01*
X137467762Y-80623316D01*
X137385843Y-80638410D01*
X137363200Y-80642555D01*
X137287606Y-80657253D01*
X137221753Y-80671705D01*
X137171166Y-80684575D01*
X137141374Y-80694522D01*
X137136412Y-80697487D01*
X137124226Y-80718483D01*
X137106753Y-80759167D01*
X137087377Y-80811522D01*
X137083534Y-80822800D01*
X137058139Y-80892723D01*
X137026617Y-80971618D01*
X136995769Y-81042466D01*
X136995617Y-81042795D01*
X136944247Y-81153933D01*
X137113199Y-81402453D01*
X137282152Y-81650972D01*
X137065229Y-81868258D01*
X136999619Y-81932926D01*
X136939779Y-81989933D01*
X136889067Y-82036233D01*
X136850846Y-82068784D01*
X136828475Y-82084543D01*
X136825266Y-82085543D01*
X136806426Y-82077669D01*
X136767980Y-82055778D01*
X136714130Y-82022467D01*
X136649076Y-81980331D01*
X136578740Y-81933143D01*
X136507355Y-81885010D01*
X136443708Y-81843128D01*
X136391841Y-81810071D01*
X136355795Y-81788418D01*
X136339667Y-81780743D01*
X136319989Y-81787237D01*
X136282675Y-81804350D01*
X136235421Y-81828526D01*
X136230412Y-81831213D01*
X136166777Y-81863127D01*
X136123141Y-81878779D01*
X136096002Y-81878945D01*
X136081857Y-81864404D01*
X136081775Y-81864200D01*
X136074705Y-81846979D01*
X136057842Y-81806099D01*
X136032495Y-81744725D01*
X135999971Y-81666019D01*
X135961578Y-81573147D01*
X135918622Y-81469272D01*
X135877022Y-81368702D01*
X135831304Y-81257716D01*
X135789326Y-81154903D01*
X135752348Y-81063415D01*
X135721627Y-80986401D01*
X135698422Y-80927015D01*
X135683990Y-80888409D01*
X135679543Y-80874000D01*
X135690696Y-80857472D01*
X135719869Y-80831130D01*
X135758771Y-80802087D01*
X135869557Y-80710239D01*
X135956151Y-80604959D01*
X136017516Y-80488466D01*
X136052615Y-80362976D01*
X136060408Y-80230707D01*
X136054743Y-80169657D01*
X136023878Y-80042995D01*
X135970720Y-79931141D01*
X135898567Y-79835201D01*
X135810717Y-79756276D01*
X135710465Y-79695470D01*
X135601110Y-79653887D01*
X135485947Y-79632628D01*
X135368275Y-79632799D01*
X135251390Y-79655501D01*
X135138589Y-79701838D01*
X135033169Y-79772913D01*
X134989168Y-79813111D01*
X134904779Y-79916329D01*
X134846022Y-80029125D01*
X134812504Y-80148210D01*
X134803835Y-80270295D01*
X134819623Y-80392093D01*
X134859478Y-80510316D01*
X134923007Y-80621675D01*
X135009821Y-80722884D01*
X135106829Y-80802087D01*
X135147237Y-80832362D01*
X135175782Y-80858419D01*
X135186057Y-80874025D01*
X135180677Y-80891043D01*
X135165375Y-80931700D01*
X135141412Y-80992842D01*
X135110044Y-81071319D01*
X135072532Y-81163980D01*
X135030133Y-81267672D01*
X134988463Y-81368726D01*
X134942490Y-81479807D01*
X134899907Y-81582741D01*
X134862021Y-81674365D01*
X134830140Y-81751516D01*
X134805571Y-81811031D01*
X134789620Y-81849744D01*
X134783710Y-81864200D01*
X134769748Y-81878885D01*
X134742740Y-81878842D01*
X134699213Y-81863299D01*
X134635690Y-81831484D01*
X134635188Y-81831213D01*
X134587360Y-81806523D01*
X134548697Y-81788538D01*
X134526895Y-81780814D01*
X134525933Y-81780743D01*
X134509521Y-81788578D01*
X134473287Y-81810365D01*
X134421274Y-81843528D01*
X134357525Y-81885491D01*
X134286860Y-81933143D01*
X134214916Y-81981391D01*
X134150074Y-82023351D01*
X134096535Y-82056427D01*
X134058497Y-82078021D01*
X134040333Y-82085543D01*
X134023608Y-82075657D01*
X133989980Y-82048026D01*
X133942810Y-82005695D01*
X133885458Y-81951705D01*
X133821284Y-81889099D01*
X133800297Y-81868183D01*
X133583299Y-81650823D01*
X133748468Y-81408420D01*
X133798664Y-81333981D01*
X133842719Y-81267172D01*
X133878162Y-81211865D01*
X133902519Y-81171929D01*
X133913322Y-81151236D01*
X133913638Y-81149763D01*
X133907943Y-81130258D01*
X133892626Y-81091022D01*
X133870337Y-81038630D01*
X133854693Y-81003555D01*
X133825441Y-80936401D01*
X133797894Y-80868558D01*
X133776537Y-80811234D01*
X133770735Y-80793772D01*
X133754252Y-80747138D01*
X133738140Y-80711105D01*
X133729290Y-80697487D01*
X133709760Y-80689152D01*
X133667134Y-80677337D01*
X133606945Y-80663381D01*
X133534722Y-80648622D01*
X133502400Y-80642555D01*
X133420322Y-80627473D01*
X133341595Y-80612869D01*
X133273909Y-80600180D01*
X133224960Y-80590842D01*
X133215743Y-80589039D01*
X133139543Y-80573999D01*
X133139543Y-80256692D01*
X133139714Y-80152354D01*
X133140416Y-80073413D01*
X133141934Y-80016238D01*
X133144549Y-79977199D01*
X133148546Y-79952665D01*
X133154209Y-79939005D01*
X133161820Y-79932589D01*
X133164943Y-79931399D01*
X133183778Y-79927180D01*
X133225388Y-79918762D01*
X133284430Y-79907161D01*
X133355557Y-79893395D01*
X133433425Y-79878480D01*
X133512687Y-79863432D01*
X133587998Y-79849269D01*
X133654013Y-79837006D01*
X133705387Y-79827661D01*
X133736775Y-79822250D01*
X133743759Y-79821314D01*
X133750085Y-79808796D01*
X133764090Y-79775446D01*
X133783155Y-79727577D01*
X133790434Y-79708829D01*
X133819796Y-79636395D01*
X133854371Y-79556370D01*
X133885337Y-79488928D01*
X133908123Y-79437359D01*
X133923282Y-79394985D01*
X133928342Y-79369034D01*
X133927536Y-79365556D01*
X133916841Y-79349136D01*
X133892420Y-79312617D01*
X133856895Y-79259887D01*
X133812887Y-79194835D01*
X133763017Y-79121351D01*
X133753156Y-79106845D01*
X133695292Y-79020904D01*
X133652756Y-78955461D01*
X133623854Y-78907504D01*
X133606890Y-78874020D01*
X133600167Y-78851995D01*
X133601990Y-78838417D01*
X133602036Y-78838331D01*
X133616386Y-78820497D01*
X133648123Y-78786017D01*
X133693810Y-78738468D01*
X133750004Y-78681422D01*
X133813268Y-78618455D01*
X133820402Y-78611427D01*
X133900130Y-78534220D01*
X133961657Y-78477530D01*
X134006221Y-78440310D01*
X134035057Y-78421515D01*
X134047758Y-78419089D01*
X134066294Y-78429671D01*
X134104761Y-78454116D01*
X134159186Y-78489812D01*
X134225598Y-78534147D01*
X134300025Y-78584511D01*
X134317401Y-78596360D01*
X134564097Y-78764826D01*
X134675506Y-78714262D01*
X134743257Y-78684795D01*
X134815983Y-78655159D01*
X134878503Y-78631530D01*
X134881257Y-78630558D01*
X134930160Y-78612657D01*
X134967857Y-78597520D01*
X134986225Y-78588410D01*
X134986256Y-78588384D01*
X134992085Y-78571917D01*
X135001992Y-78531419D01*
X135014995Y-78471442D01*
X135030109Y-78396540D01*
X135046352Y-78311264D01*
X135047681Y-78304075D01*
X135063975Y-78216214D01*
X135078933Y-78136460D01*
X135091591Y-78069881D01*
X135100986Y-78021547D01*
X135106154Y-77996525D01*
X135106244Y-77996143D01*
X135109389Y-77985499D01*
X135115504Y-77977462D01*
X135128253Y-77971667D01*
X135151300Y-77967747D01*
X135188309Y-77965335D01*
X135242944Y-77964065D01*
X135318867Y-77963571D01*
X135419744Y-77963486D01*
X135432800Y-77963486D01*
X135536710Y-77963548D01*
G36*
X138586395Y-82688166D02*
G01*
X138643821Y-82725697D01*
X138671519Y-82759296D01*
X138693462Y-82820264D01*
X138695205Y-82868508D01*
X138691257Y-82933016D01*
X138542486Y-82998134D01*
X138470149Y-83031402D01*
X138422884Y-83058164D01*
X138398307Y-83081344D01*
X138394037Y-83103867D01*
X138407689Y-83128655D01*
X138422743Y-83145086D01*
X138466546Y-83171435D01*
X138514189Y-83173281D01*
X138557945Y-83152746D01*
X138590089Y-83111952D01*
X138595838Y-83097547D01*
X138623376Y-83052556D01*
X138655058Y-83033382D01*
X138698514Y-83016979D01*
X138698514Y-83079166D01*
X138694672Y-83121483D01*
X138679623Y-83157169D01*
X138648080Y-83198143D01*
X138643392Y-83203467D01*
X138608306Y-83239920D01*
X138578147Y-83259483D01*
X138540415Y-83268483D01*
X138509135Y-83271430D01*
X138453185Y-83272165D01*
X138413355Y-83262860D01*
X138388508Y-83249046D01*
X138349456Y-83218667D01*
X138322425Y-83185813D01*
X138305317Y-83144494D01*
X138296038Y-83088721D01*
X138292493Y-83012505D01*
X138292210Y-82973822D01*
X138293172Y-82927447D01*
X138380807Y-82927447D01*
X138381823Y-82952326D01*
X138384356Y-82956400D01*
X138401074Y-82950865D01*
X138437049Y-82936217D01*
X138485131Y-82915390D01*
X138495186Y-82910914D01*
X138555952Y-82880014D01*
X138589432Y-82852857D01*
X138596790Y-82827420D01*
X138579191Y-82801681D01*
X138564656Y-82790309D01*
X138512210Y-82767564D01*
X138463122Y-82771322D01*
X138422027Y-82799084D01*
X138393558Y-82848352D01*
X138384431Y-82887457D01*
X138380807Y-82927447D01*
X138293172Y-82927447D01*
X138294085Y-82883449D01*
X138300996Y-82816584D01*
X138314684Y-82767895D01*
X138336896Y-82732049D01*
X138369374Y-82703713D01*
X138383533Y-82694555D01*
X138447853Y-82670707D01*
X138518273Y-82669206D01*
X138586395Y-82688166D01*
G37*
X138586395Y-82688166D02*
X138643821Y-82725697D01*
X138671519Y-82759296D01*
X138693462Y-82820264D01*
X138695205Y-82868508D01*
X138691257Y-82933016D01*
X138542486Y-82998134D01*
X138470149Y-83031402D01*
X138422884Y-83058164D01*
X138398307Y-83081344D01*
X138394037Y-83103867D01*
X138407689Y-83128655D01*
X138422743Y-83145086D01*
X138466546Y-83171435D01*
X138514189Y-83173281D01*
X138557945Y-83152746D01*
X138590089Y-83111952D01*
X138595838Y-83097547D01*
X138623376Y-83052556D01*
X138655058Y-83033382D01*
X138698514Y-83016979D01*
X138698514Y-83079166D01*
X138694672Y-83121483D01*
X138679623Y-83157169D01*
X138648080Y-83198143D01*
X138643392Y-83203467D01*
X138608306Y-83239920D01*
X138578147Y-83259483D01*
X138540415Y-83268483D01*
X138509135Y-83271430D01*
X138453185Y-83272165D01*
X138413355Y-83262860D01*
X138388508Y-83249046D01*
X138349456Y-83218667D01*
X138322425Y-83185813D01*
X138305317Y-83144494D01*
X138296038Y-83088721D01*
X138292493Y-83012505D01*
X138292210Y-82973822D01*
X138293172Y-82927447D01*
X138380807Y-82927447D01*
X138381823Y-82952326D01*
X138384356Y-82956400D01*
X138401074Y-82950865D01*
X138437049Y-82936217D01*
X138485131Y-82915390D01*
X138495186Y-82910914D01*
X138555952Y-82880014D01*
X138589432Y-82852857D01*
X138596790Y-82827420D01*
X138579191Y-82801681D01*
X138564656Y-82790309D01*
X138512210Y-82767564D01*
X138463122Y-82771322D01*
X138422027Y-82799084D01*
X138393558Y-82848352D01*
X138384431Y-82887457D01*
X138380807Y-82927447D01*
X138293172Y-82927447D01*
X138294085Y-82883449D01*
X138300996Y-82816584D01*
X138314684Y-82767895D01*
X138336896Y-82732049D01*
X138369374Y-82703713D01*
X138383533Y-82694555D01*
X138447853Y-82670707D01*
X138518273Y-82669206D01*
X138586395Y-82688166D01*
G36*
X138085400Y-82679952D02*
G01*
X138102748Y-82687534D01*
X138144156Y-82720328D01*
X138179565Y-82767747D01*
X138201464Y-82818351D01*
X138205029Y-82843298D01*
X138193079Y-82878127D01*
X138166867Y-82896557D01*
X138138764Y-82907716D01*
X138125895Y-82909772D01*
X138119629Y-82894849D01*
X138107256Y-82862375D01*
X138101828Y-82847702D01*
X138071390Y-82796944D01*
X138027320Y-82771627D01*
X137970810Y-82772406D01*
X137966625Y-82773403D01*
X137936455Y-82787707D01*
X137914276Y-82815593D01*
X137899127Y-82860487D01*
X137890050Y-82925815D01*
X137886086Y-83015004D01*
X137885714Y-83062461D01*
X137885530Y-83137271D01*
X137884322Y-83188269D01*
X137881109Y-83220671D01*
X137874909Y-83239695D01*
X137864740Y-83250556D01*
X137849619Y-83258472D01*
X137848746Y-83258870D01*
X137819628Y-83271181D01*
X137805203Y-83275714D01*
X137802986Y-83262009D01*
X137801089Y-83224125D01*
X137799647Y-83166915D01*
X137798798Y-83095227D01*
X137798629Y-83042765D01*
X137799492Y-82941247D01*
X137802870Y-82864232D01*
X137809942Y-82807223D01*
X137821888Y-82765726D01*
X137839890Y-82735243D01*
X137865127Y-82711280D01*
X137890047Y-82694555D01*
X137949971Y-82672297D01*
X138019711Y-82667276D01*
X138085400Y-82679952D01*
G37*
X138085400Y-82679952D02*
X138102748Y-82687534D01*
X138144156Y-82720328D01*
X138179565Y-82767747D01*
X138201464Y-82818351D01*
X138205029Y-82843298D01*
X138193079Y-82878127D01*
X138166867Y-82896557D01*
X138138764Y-82907716D01*
X138125895Y-82909772D01*
X138119629Y-82894849D01*
X138107256Y-82862375D01*
X138101828Y-82847702D01*
X138071390Y-82796944D01*
X138027320Y-82771627D01*
X137970810Y-82772406D01*
X137966625Y-82773403D01*
X137936455Y-82787707D01*
X137914276Y-82815593D01*
X137899127Y-82860487D01*
X137890050Y-82925815D01*
X137886086Y-83015004D01*
X137885714Y-83062461D01*
X137885530Y-83137271D01*
X137884322Y-83188269D01*
X137881109Y-83220671D01*
X137874909Y-83239695D01*
X137864740Y-83250556D01*
X137849619Y-83258472D01*
X137848746Y-83258870D01*
X137819628Y-83271181D01*
X137805203Y-83275714D01*
X137802986Y-83262009D01*
X137801089Y-83224125D01*
X137799647Y-83166915D01*
X137798798Y-83095227D01*
X137798629Y-83042765D01*
X137799492Y-82941247D01*
X137802870Y-82864232D01*
X137809942Y-82807223D01*
X137821888Y-82765726D01*
X137839890Y-82735243D01*
X137865127Y-82711280D01*
X137890047Y-82694555D01*
X137949971Y-82672297D01*
X138019711Y-82667276D01*
X138085400Y-82679952D01*
G36*
X137577676Y-82677535D02*
G01*
X137619467Y-82696544D01*
X137652269Y-82719578D01*
X137676303Y-82745333D01*
X137692897Y-82778558D01*
X137703377Y-82824000D01*
X137709071Y-82886407D01*
X137711307Y-82970527D01*
X137711543Y-83025921D01*
X137711543Y-83242026D01*
X137674574Y-83258870D01*
X137645456Y-83271181D01*
X137631031Y-83275714D01*
X137628272Y-83262225D01*
X137626082Y-83225853D01*
X137624742Y-83172742D01*
X137624457Y-83130572D01*
X137623234Y-83069647D01*
X137619936Y-83021315D01*
X137615121Y-82991718D01*
X137611296Y-82985429D01*
X137585583Y-82991852D01*
X137545218Y-83008325D01*
X137498479Y-83030658D01*
X137453645Y-83054657D01*
X137418993Y-83076130D01*
X137402802Y-83090885D01*
X137402738Y-83091045D01*
X137404130Y-83118352D01*
X137416618Y-83144419D01*
X137438543Y-83165592D01*
X137470543Y-83172674D01*
X137497892Y-83171849D01*
X137536626Y-83171242D01*
X137556958Y-83180316D01*
X137569169Y-83204292D01*
X137570709Y-83208813D01*
X137576003Y-83243006D01*
X137561847Y-83263768D01*
X137524948Y-83273662D01*
X137485089Y-83275492D01*
X137413362Y-83261927D01*
X137376232Y-83242555D01*
X137330376Y-83197045D01*
X137306056Y-83141183D01*
X137303873Y-83082157D01*
X137324429Y-83027153D01*
X137355349Y-82992686D01*
X137386220Y-82973389D01*
X137434742Y-82948959D01*
X137491285Y-82924185D01*
X137500710Y-82920399D01*
X137562819Y-82892991D01*
X137598622Y-82868834D01*
X137610137Y-82844819D01*
X137599380Y-82817835D01*
X137580914Y-82796743D01*
X137537269Y-82770772D01*
X137489246Y-82768824D01*
X137445206Y-82788837D01*
X137413509Y-82828751D01*
X137409349Y-82839048D01*
X137385127Y-82876924D01*
X137349765Y-82905042D01*
X137305143Y-82928117D01*
X137305143Y-82862685D01*
X137307769Y-82822706D01*
X137319030Y-82791197D01*
X137343999Y-82757578D01*
X137367969Y-82731684D01*
X137405241Y-82695017D01*
X137434201Y-82675321D01*
X137465305Y-82667420D01*
X137500513Y-82666114D01*
X137577676Y-82677535D01*
G37*
X137577676Y-82677535D02*
X137619467Y-82696544D01*
X137652269Y-82719578D01*
X137676303Y-82745333D01*
X137692897Y-82778558D01*
X137703377Y-82824000D01*
X137709071Y-82886407D01*
X137711307Y-82970527D01*
X137711543Y-83025921D01*
X137711543Y-83242026D01*
X137674574Y-83258870D01*
X137645456Y-83271181D01*
X137631031Y-83275714D01*
X137628272Y-83262225D01*
X137626082Y-83225853D01*
X137624742Y-83172742D01*
X137624457Y-83130572D01*
X137623234Y-83069647D01*
X137619936Y-83021315D01*
X137615121Y-82991718D01*
X137611296Y-82985429D01*
X137585583Y-82991852D01*
X137545218Y-83008325D01*
X137498479Y-83030658D01*
X137453645Y-83054657D01*
X137418993Y-83076130D01*
X137402802Y-83090885D01*
X137402738Y-83091045D01*
X137404130Y-83118352D01*
X137416618Y-83144419D01*
X137438543Y-83165592D01*
X137470543Y-83172674D01*
X137497892Y-83171849D01*
X137536626Y-83171242D01*
X137556958Y-83180316D01*
X137569169Y-83204292D01*
X137570709Y-83208813D01*
X137576003Y-83243006D01*
X137561847Y-83263768D01*
X137524948Y-83273662D01*
X137485089Y-83275492D01*
X137413362Y-83261927D01*
X137376232Y-83242555D01*
X137330376Y-83197045D01*
X137306056Y-83141183D01*
X137303873Y-83082157D01*
X137324429Y-83027153D01*
X137355349Y-82992686D01*
X137386220Y-82973389D01*
X137434742Y-82948959D01*
X137491285Y-82924185D01*
X137500710Y-82920399D01*
X137562819Y-82892991D01*
X137598622Y-82868834D01*
X137610137Y-82844819D01*
X137599380Y-82817835D01*
X137580914Y-82796743D01*
X137537269Y-82770772D01*
X137489246Y-82768824D01*
X137445206Y-82788837D01*
X137413509Y-82828751D01*
X137409349Y-82839048D01*
X137385127Y-82876924D01*
X137349765Y-82905042D01*
X137305143Y-82928117D01*
X137305143Y-82862685D01*
X137307769Y-82822706D01*
X137319030Y-82791197D01*
X137343999Y-82757578D01*
X137367969Y-82731684D01*
X137405241Y-82695017D01*
X137434201Y-82675321D01*
X137465305Y-82667420D01*
X137500513Y-82666114D01*
X137577676Y-82677535D01*
G36*
X137212633Y-82679863D02*
G01*
X137214848Y-82718050D01*
X137216584Y-82776086D01*
X137217699Y-82849380D01*
X137218057Y-82926255D01*
X137218057Y-83186396D01*
X137172126Y-83232327D01*
X137140475Y-83260629D01*
X137112690Y-83272093D01*
X137074715Y-83271368D01*
X137059640Y-83269521D01*
X137012526Y-83264148D01*
X136973556Y-83261069D01*
X136964057Y-83260785D01*
X136932033Y-83262645D01*
X136886232Y-83267314D01*
X136868474Y-83269521D01*
X136824857Y-83272935D01*
X136795545Y-83265520D01*
X136766480Y-83242627D01*
X136755988Y-83232327D01*
X136710057Y-83186396D01*
X136710057Y-82699802D01*
X136747026Y-82682958D01*
X136778859Y-82670482D01*
X136797483Y-82666114D01*
X136802258Y-82679918D01*
X136806721Y-82718486D01*
X136810575Y-82777556D01*
X136813522Y-82852863D01*
X136814943Y-82916486D01*
X136818914Y-83166857D01*
X136853559Y-83171756D01*
X136885068Y-83168331D01*
X136900508Y-83157241D01*
X136904823Y-83136508D01*
X136908508Y-83092345D01*
X136911269Y-83030346D01*
X136912812Y-82956109D01*
X136913035Y-82917906D01*
X136913257Y-82697983D01*
X136958966Y-82682049D01*
X136991318Y-82671215D01*
X137008915Y-82666162D01*
X137009423Y-82666114D01*
X137011188Y-82679848D01*
X137013129Y-82717930D01*
X137015082Y-82775682D01*
X137016884Y-82848427D01*
X137018143Y-82916486D01*
X137022114Y-83166857D01*
X137109200Y-83166857D01*
X137113196Y-82938440D01*
X137117192Y-82710022D01*
X137159647Y-82688068D01*
X137190992Y-82672993D01*
X137209544Y-82666151D01*
X137210079Y-82666114D01*
X137212633Y-82679863D01*
G37*
X137212633Y-82679863D02*
X137214848Y-82718050D01*
X137216584Y-82776086D01*
X137217699Y-82849380D01*
X137218057Y-82926255D01*
X137218057Y-83186396D01*
X137172126Y-83232327D01*
X137140475Y-83260629D01*
X137112690Y-83272093D01*
X137074715Y-83271368D01*
X137059640Y-83269521D01*
X137012526Y-83264148D01*
X136973556Y-83261069D01*
X136964057Y-83260785D01*
X136932033Y-83262645D01*
X136886232Y-83267314D01*
X136868474Y-83269521D01*
X136824857Y-83272935D01*
X136795545Y-83265520D01*
X136766480Y-83242627D01*
X136755988Y-83232327D01*
X136710057Y-83186396D01*
X136710057Y-82699802D01*
X136747026Y-82682958D01*
X136778859Y-82670482D01*
X136797483Y-82666114D01*
X136802258Y-82679918D01*
X136806721Y-82718486D01*
X136810575Y-82777556D01*
X136813522Y-82852863D01*
X136814943Y-82916486D01*
X136818914Y-83166857D01*
X136853559Y-83171756D01*
X136885068Y-83168331D01*
X136900508Y-83157241D01*
X136904823Y-83136508D01*
X136908508Y-83092345D01*
X136911269Y-83030346D01*
X136912812Y-82956109D01*
X136913035Y-82917906D01*
X136913257Y-82697983D01*
X136958966Y-82682049D01*
X136991318Y-82671215D01*
X137008915Y-82666162D01*
X137009423Y-82666114D01*
X137011188Y-82679848D01*
X137013129Y-82717930D01*
X137015082Y-82775682D01*
X137016884Y-82848427D01*
X137018143Y-82916486D01*
X137022114Y-83166857D01*
X137109200Y-83166857D01*
X137113196Y-82938440D01*
X137117192Y-82710022D01*
X137159647Y-82688068D01*
X137190992Y-82672993D01*
X137209544Y-82666151D01*
X137210079Y-82666114D01*
X137212633Y-82679863D01*
G36*
X136622917Y-82786558D02*
G01*
X136622733Y-82895037D01*
X136622019Y-82978487D01*
X136620475Y-83040904D01*
X136617801Y-83086285D01*
X136613694Y-83118629D01*
X136607855Y-83141933D01*
X136599982Y-83160195D01*
X136594021Y-83170618D01*
X136544655Y-83227145D01*
X136482064Y-83262577D01*
X136412813Y-83275290D01*
X136343468Y-83263663D01*
X136302175Y-83242768D01*
X136258825Y-83206622D01*
X136229281Y-83162476D01*
X136211455Y-83104662D01*
X136203263Y-83027513D01*
X136202102Y-82970914D01*
X136202258Y-82966847D01*
X136303657Y-82966847D01*
X136304276Y-83031750D01*
X136307114Y-83074714D01*
X136313640Y-83102822D01*
X136325323Y-83123153D01*
X136339283Y-83138488D01*
X136386165Y-83168090D01*
X136436501Y-83170619D01*
X136484076Y-83145905D01*
X136487779Y-83142556D01*
X136503583Y-83125135D01*
X136513493Y-83104409D01*
X136518858Y-83073562D01*
X136521028Y-83025777D01*
X136521371Y-82972948D01*
X136520627Y-82906581D01*
X136517548Y-82862306D01*
X136510861Y-82833209D01*
X136499296Y-82812373D01*
X136489813Y-82801307D01*
X136445760Y-82773398D01*
X136395024Y-82770043D01*
X136346596Y-82791359D01*
X136337250Y-82799273D01*
X136321340Y-82816847D01*
X136311410Y-82837787D01*
X136306078Y-82868982D01*
X136303963Y-82917322D01*
X136303657Y-82966847D01*
X136202258Y-82966847D01*
X136205610Y-82879768D01*
X136217526Y-82811286D01*
X136239935Y-82759800D01*
X136274924Y-82719643D01*
X136302175Y-82699061D01*
X136351707Y-82676825D01*
X136409116Y-82666504D01*
X136462482Y-82669267D01*
X136492343Y-82680412D01*
X136504061Y-82683583D01*
X136511837Y-82671757D01*
X136517265Y-82640066D01*
X136521371Y-82591793D01*
X136525867Y-82538029D01*
X136532113Y-82505682D01*
X136543476Y-82487185D01*
X136563328Y-82474970D01*
X136575800Y-82469562D01*
X136622971Y-82449801D01*
X136622917Y-82786558D01*
G37*
X136622917Y-82786558D02*
X136622733Y-82895037D01*
X136622019Y-82978487D01*
X136620475Y-83040904D01*
X136617801Y-83086285D01*
X136613694Y-83118629D01*
X136607855Y-83141933D01*
X136599982Y-83160195D01*
X136594021Y-83170618D01*
X136544655Y-83227145D01*
X136482064Y-83262577D01*
X136412813Y-83275290D01*
X136343468Y-83263663D01*
X136302175Y-83242768D01*
X136258825Y-83206622D01*
X136229281Y-83162476D01*
X136211455Y-83104662D01*
X136203263Y-83027513D01*
X136202102Y-82970914D01*
X136202258Y-82966847D01*
X136303657Y-82966847D01*
X136304276Y-83031750D01*
X136307114Y-83074714D01*
X136313640Y-83102822D01*
X136325323Y-83123153D01*
X136339283Y-83138488D01*
X136386165Y-83168090D01*
X136436501Y-83170619D01*
X136484076Y-83145905D01*
X136487779Y-83142556D01*
X136503583Y-83125135D01*
X136513493Y-83104409D01*
X136518858Y-83073562D01*
X136521028Y-83025777D01*
X136521371Y-82972948D01*
X136520627Y-82906581D01*
X136517548Y-82862306D01*
X136510861Y-82833209D01*
X136499296Y-82812373D01*
X136489813Y-82801307D01*
X136445760Y-82773398D01*
X136395024Y-82770043D01*
X136346596Y-82791359D01*
X136337250Y-82799273D01*
X136321340Y-82816847D01*
X136311410Y-82837787D01*
X136306078Y-82868982D01*
X136303963Y-82917322D01*
X136303657Y-82966847D01*
X136202258Y-82966847D01*
X136205610Y-82879768D01*
X136217526Y-82811286D01*
X136239935Y-82759800D01*
X136274924Y-82719643D01*
X136302175Y-82699061D01*
X136351707Y-82676825D01*
X136409116Y-82666504D01*
X136462482Y-82669267D01*
X136492343Y-82680412D01*
X136504061Y-82683583D01*
X136511837Y-82671757D01*
X136517265Y-82640066D01*
X136521371Y-82591793D01*
X136525867Y-82538029D01*
X136532113Y-82505682D01*
X136543476Y-82487185D01*
X136563328Y-82474970D01*
X136575800Y-82469562D01*
X136622971Y-82449801D01*
X136622917Y-82786558D01*
G36*
X135962726Y-82670955D02*
G01*
X136028658Y-82695284D01*
X136082073Y-82738317D01*
X136102964Y-82768609D01*
X136125739Y-82824194D01*
X136125266Y-82864386D01*
X136101362Y-82891417D01*
X136092517Y-82896013D01*
X136054330Y-82910344D01*
X136034828Y-82906672D01*
X136028222Y-82882607D01*
X136027886Y-82869314D01*
X136015792Y-82820410D01*
X135984271Y-82786199D01*
X135940459Y-82769676D01*
X135891495Y-82773834D01*
X135851694Y-82795427D01*
X135838250Y-82807744D01*
X135828721Y-82822687D01*
X135822285Y-82845275D01*
X135818117Y-82880528D01*
X135815397Y-82933466D01*
X135813302Y-83009107D01*
X135812760Y-83033057D01*
X135810781Y-83114990D01*
X135808531Y-83172655D01*
X135805157Y-83210808D01*
X135799806Y-83234204D01*
X135791624Y-83247598D01*
X135779759Y-83255745D01*
X135772162Y-83259344D01*
X135739902Y-83271652D01*
X135720911Y-83275714D01*
X135714636Y-83262148D01*
X135710806Y-83221134D01*
X135709400Y-83152199D01*
X135710398Y-83054869D01*
X135710708Y-83039857D01*
X135712901Y-82951059D01*
X135715493Y-82886219D01*
X135719182Y-82840267D01*
X135724664Y-82808135D01*
X135732635Y-82784753D01*
X135743793Y-82765052D01*
X135749630Y-82756610D01*
X135783096Y-82719257D01*
X135820527Y-82690203D01*
X135825109Y-82687667D01*
X135892226Y-82667643D01*
X135962726Y-82670955D01*
G37*
X135962726Y-82670955D02*
X136028658Y-82695284D01*
X136082073Y-82738317D01*
X136102964Y-82768609D01*
X136125739Y-82824194D01*
X136125266Y-82864386D01*
X136101362Y-82891417D01*
X136092517Y-82896013D01*
X136054330Y-82910344D01*
X136034828Y-82906672D01*
X136028222Y-82882607D01*
X136027886Y-82869314D01*
X136015792Y-82820410D01*
X135984271Y-82786199D01*
X135940459Y-82769676D01*
X135891495Y-82773834D01*
X135851694Y-82795427D01*
X135838250Y-82807744D01*
X135828721Y-82822687D01*
X135822285Y-82845275D01*
X135818117Y-82880528D01*
X135815397Y-82933466D01*
X135813302Y-83009107D01*
X135812760Y-83033057D01*
X135810781Y-83114990D01*
X135808531Y-83172655D01*
X135805157Y-83210808D01*
X135799806Y-83234204D01*
X135791624Y-83247598D01*
X135779759Y-83255745D01*
X135772162Y-83259344D01*
X135739902Y-83271652D01*
X135720911Y-83275714D01*
X135714636Y-83262148D01*
X135710806Y-83221134D01*
X135709400Y-83152199D01*
X135710398Y-83054869D01*
X135710708Y-83039857D01*
X135712901Y-82951059D01*
X135715493Y-82886219D01*
X135719182Y-82840267D01*
X135724664Y-82808135D01*
X135732635Y-82784753D01*
X135743793Y-82765052D01*
X135749630Y-82756610D01*
X135783096Y-82719257D01*
X135820527Y-82690203D01*
X135825109Y-82687667D01*
X135892226Y-82667643D01*
X135962726Y-82670955D01*
G36*
X135472544Y-82672168D02*
G01*
X135529416Y-82693287D01*
X135530067Y-82693693D01*
X135565240Y-82719580D01*
X135591207Y-82749833D01*
X135609470Y-82789258D01*
X135621532Y-82842662D01*
X135628896Y-82914851D01*
X135633064Y-83010632D01*
X135633429Y-83024278D01*
X135638676Y-83230042D01*
X135594516Y-83252878D01*
X135562563Y-83268310D01*
X135543270Y-83275623D01*
X135542378Y-83275714D01*
X135539039Y-83262222D01*
X135536387Y-83225826D01*
X135534756Y-83172652D01*
X135534400Y-83129593D01*
X135534392Y-83059841D01*
X135531203Y-83016037D01*
X135520088Y-82995144D01*
X135496301Y-82994125D01*
X135455096Y-83009941D01*
X135392886Y-83039015D01*
X135347141Y-83063163D01*
X135323613Y-83084113D01*
X135316696Y-83106947D01*
X135316686Y-83108077D01*
X135328099Y-83147412D01*
X135361892Y-83168662D01*
X135413609Y-83171739D01*
X135450861Y-83171206D01*
X135470503Y-83181935D01*
X135482752Y-83207705D01*
X135489802Y-83240537D01*
X135479642Y-83259166D01*
X135475817Y-83261832D01*
X135439801Y-83272540D01*
X135389366Y-83274056D01*
X135337426Y-83266959D01*
X135300622Y-83253988D01*
X135249738Y-83210785D01*
X135220814Y-83150646D01*
X135215086Y-83103662D01*
X135219457Y-83061282D01*
X135235275Y-83026688D01*
X135266597Y-82995963D01*
X135317478Y-82965190D01*
X135391976Y-82930452D01*
X135396514Y-82928488D01*
X135463621Y-82897487D01*
X135505032Y-82872062D01*
X135522781Y-82849214D01*
X135518907Y-82825945D01*
X135495443Y-82799256D01*
X135488427Y-82793114D01*
X135441430Y-82769300D01*
X135392733Y-82770303D01*
X135350322Y-82793651D01*
X135322184Y-82836875D01*
X135319569Y-82845360D01*
X135294108Y-82886508D01*
X135261801Y-82906328D01*
X135215086Y-82925970D01*
X135215086Y-82875150D01*
X135229296Y-82801282D01*
X135271475Y-82733527D01*
X135293424Y-82710861D01*
X135343317Y-82681769D01*
X135406767Y-82668600D01*
X135472544Y-82672168D01*
G37*
X135472544Y-82672168D02*
X135529416Y-82693287D01*
X135530067Y-82693693D01*
X135565240Y-82719580D01*
X135591207Y-82749833D01*
X135609470Y-82789258D01*
X135621532Y-82842662D01*
X135628896Y-82914851D01*
X135633064Y-83010632D01*
X135633429Y-83024278D01*
X135638676Y-83230042D01*
X135594516Y-83252878D01*
X135562563Y-83268310D01*
X135543270Y-83275623D01*
X135542378Y-83275714D01*
X135539039Y-83262222D01*
X135536387Y-83225826D01*
X135534756Y-83172652D01*
X135534400Y-83129593D01*
X135534392Y-83059841D01*
X135531203Y-83016037D01*
X135520088Y-82995144D01*
X135496301Y-82994125D01*
X135455096Y-83009941D01*
X135392886Y-83039015D01*
X135347141Y-83063163D01*
X135323613Y-83084113D01*
X135316696Y-83106947D01*
X135316686Y-83108077D01*
X135328099Y-83147412D01*
X135361892Y-83168662D01*
X135413609Y-83171739D01*
X135450861Y-83171206D01*
X135470503Y-83181935D01*
X135482752Y-83207705D01*
X135489802Y-83240537D01*
X135479642Y-83259166D01*
X135475817Y-83261832D01*
X135439801Y-83272540D01*
X135389366Y-83274056D01*
X135337426Y-83266959D01*
X135300622Y-83253988D01*
X135249738Y-83210785D01*
X135220814Y-83150646D01*
X135215086Y-83103662D01*
X135219457Y-83061282D01*
X135235275Y-83026688D01*
X135266597Y-82995963D01*
X135317478Y-82965190D01*
X135391976Y-82930452D01*
X135396514Y-82928488D01*
X135463621Y-82897487D01*
X135505032Y-82872062D01*
X135522781Y-82849214D01*
X135518907Y-82825945D01*
X135495443Y-82799256D01*
X135488427Y-82793114D01*
X135441430Y-82769300D01*
X135392733Y-82770303D01*
X135350322Y-82793651D01*
X135322184Y-82836875D01*
X135319569Y-82845360D01*
X135294108Y-82886508D01*
X135261801Y-82906328D01*
X135215086Y-82925970D01*
X135215086Y-82875150D01*
X135229296Y-82801282D01*
X135271475Y-82733527D01*
X135293424Y-82710861D01*
X135343317Y-82681769D01*
X135406767Y-82668600D01*
X135472544Y-82672168D01*
G36*
X134808686Y-82572489D02*
G01*
X134812939Y-82631813D01*
X134817825Y-82666772D01*
X134824595Y-82682020D01*
X134834502Y-82682215D01*
X134837714Y-82680395D01*
X134880444Y-82667215D01*
X134936027Y-82667985D01*
X134992537Y-82681533D01*
X135027882Y-82699061D01*
X135064121Y-82727061D01*
X135090613Y-82758749D01*
X135108799Y-82799013D01*
X135120122Y-82852743D01*
X135126022Y-82924826D01*
X135127943Y-83020151D01*
X135127977Y-83038437D01*
X135128000Y-83243846D01*
X135082291Y-83259780D01*
X135049827Y-83270620D01*
X135032015Y-83275668D01*
X135031491Y-83275714D01*
X135029737Y-83262028D01*
X135028244Y-83224276D01*
X135027126Y-83167424D01*
X135026497Y-83096434D01*
X135026400Y-83053273D01*
X135026198Y-82968173D01*
X135025158Y-82907181D01*
X135022631Y-82865377D01*
X135017964Y-82837842D01*
X135010507Y-82819656D01*
X134999611Y-82805898D01*
X134992807Y-82799273D01*
X134946072Y-82772575D01*
X134895072Y-82770575D01*
X134848801Y-82793155D01*
X134840244Y-82801307D01*
X134827693Y-82816636D01*
X134818988Y-82834818D01*
X134813431Y-82861109D01*
X134810326Y-82900762D01*
X134808976Y-82959032D01*
X134808686Y-83039373D01*
X134808686Y-83243846D01*
X134762977Y-83259780D01*
X134730513Y-83270620D01*
X134712701Y-83275668D01*
X134712177Y-83275714D01*
X134710837Y-83261823D01*
X134709628Y-83222639D01*
X134708601Y-83161900D01*
X134707802Y-83083341D01*
X134707281Y-82990698D01*
X134707086Y-82887709D01*
X134707086Y-82490542D01*
X134754257Y-82470644D01*
X134801429Y-82450747D01*
X134808686Y-82572489D01*
G37*
X134808686Y-82572489D02*
X134812939Y-82631813D01*
X134817825Y-82666772D01*
X134824595Y-82682020D01*
X134834502Y-82682215D01*
X134837714Y-82680395D01*
X134880444Y-82667215D01*
X134936027Y-82667985D01*
X134992537Y-82681533D01*
X135027882Y-82699061D01*
X135064121Y-82727061D01*
X135090613Y-82758749D01*
X135108799Y-82799013D01*
X135120122Y-82852743D01*
X135126022Y-82924826D01*
X135127943Y-83020151D01*
X135127977Y-83038437D01*
X135128000Y-83243846D01*
X135082291Y-83259780D01*
X135049827Y-83270620D01*
X135032015Y-83275668D01*
X135031491Y-83275714D01*
X135029737Y-83262028D01*
X135028244Y-83224276D01*
X135027126Y-83167424D01*
X135026497Y-83096434D01*
X135026400Y-83053273D01*
X135026198Y-82968173D01*
X135025158Y-82907181D01*
X135022631Y-82865377D01*
X135017964Y-82837842D01*
X135010507Y-82819656D01*
X134999611Y-82805898D01*
X134992807Y-82799273D01*
X134946072Y-82772575D01*
X134895072Y-82770575D01*
X134848801Y-82793155D01*
X134840244Y-82801307D01*
X134827693Y-82816636D01*
X134818988Y-82834818D01*
X134813431Y-82861109D01*
X134810326Y-82900762D01*
X134808976Y-82959032D01*
X134808686Y-83039373D01*
X134808686Y-83243846D01*
X134762977Y-83259780D01*
X134730513Y-83270620D01*
X134712701Y-83275668D01*
X134712177Y-83275714D01*
X134710837Y-83261823D01*
X134709628Y-83222639D01*
X134708601Y-83161900D01*
X134707802Y-83083341D01*
X134707281Y-82990698D01*
X134707086Y-82887709D01*
X134707086Y-82490542D01*
X134754257Y-82470644D01*
X134801429Y-82450747D01*
X134808686Y-82572489D01*
G36*
X133601103Y-82652439D02*
G01*
X133658327Y-82690935D01*
X133702549Y-82746535D01*
X133728967Y-82817286D01*
X133734310Y-82869362D01*
X133733703Y-82891093D01*
X133728622Y-82907731D01*
X133714655Y-82922637D01*
X133687389Y-82939173D01*
X133642412Y-82960698D01*
X133575311Y-82990574D01*
X133574971Y-82990724D01*
X133513207Y-83019013D01*
X133462559Y-83044133D01*
X133428204Y-83063379D01*
X133415318Y-83074048D01*
X133415314Y-83074134D01*
X133426672Y-83097366D01*
X133453231Y-83122974D01*
X133483723Y-83141421D01*
X133499170Y-83145086D01*
X133541315Y-83132412D01*
X133577608Y-83100671D01*
X133595317Y-83065772D01*
X133612352Y-83040045D01*
X133645722Y-83010746D01*
X133684949Y-82985435D01*
X133719556Y-82971671D01*
X133726793Y-82970914D01*
X133734939Y-82983360D01*
X133735430Y-83015172D01*
X133729443Y-83058066D01*
X133718157Y-83103758D01*
X133702750Y-83143961D01*
X133701971Y-83145522D01*
X133655604Y-83210262D01*
X133595511Y-83254297D01*
X133527265Y-83275911D01*
X133456438Y-83273385D01*
X133388604Y-83245004D01*
X133385588Y-83243008D01*
X133332227Y-83194648D01*
X133297140Y-83131552D01*
X133277722Y-83048587D01*
X133275116Y-83025278D01*
X133270501Y-82915255D01*
X133276033Y-82863948D01*
X133415314Y-82863948D01*
X133417124Y-82895953D01*
X133427022Y-82905293D01*
X133451698Y-82898305D01*
X133490595Y-82881787D01*
X133534075Y-82861081D01*
X133535156Y-82860533D01*
X133572009Y-82841149D01*
X133586800Y-82828213D01*
X133583153Y-82814651D01*
X133567795Y-82796832D01*
X133528723Y-82771045D01*
X133486646Y-82769150D01*
X133448903Y-82787917D01*
X133422834Y-82824115D01*
X133415314Y-82863948D01*
X133276033Y-82863948D01*
X133279994Y-82827227D01*
X133304350Y-82757412D01*
X133338256Y-82708502D01*
X133399453Y-82659078D01*
X133466863Y-82634559D01*
X133535680Y-82632997D01*
X133601103Y-82652439D01*
G37*
X133601103Y-82652439D02*
X133658327Y-82690935D01*
X133702549Y-82746535D01*
X133728967Y-82817286D01*
X133734310Y-82869362D01*
X133733703Y-82891093D01*
X133728622Y-82907731D01*
X133714655Y-82922637D01*
X133687389Y-82939173D01*
X133642412Y-82960698D01*
X133575311Y-82990574D01*
X133574971Y-82990724D01*
X133513207Y-83019013D01*
X133462559Y-83044133D01*
X133428204Y-83063379D01*
X133415318Y-83074048D01*
X133415314Y-83074134D01*
X133426672Y-83097366D01*
X133453231Y-83122974D01*
X133483723Y-83141421D01*
X133499170Y-83145086D01*
X133541315Y-83132412D01*
X133577608Y-83100671D01*
X133595317Y-83065772D01*
X133612352Y-83040045D01*
X133645722Y-83010746D01*
X133684949Y-82985435D01*
X133719556Y-82971671D01*
X133726793Y-82970914D01*
X133734939Y-82983360D01*
X133735430Y-83015172D01*
X133729443Y-83058066D01*
X133718157Y-83103758D01*
X133702750Y-83143961D01*
X133701971Y-83145522D01*
X133655604Y-83210262D01*
X133595511Y-83254297D01*
X133527265Y-83275911D01*
X133456438Y-83273385D01*
X133388604Y-83245004D01*
X133385588Y-83243008D01*
X133332227Y-83194648D01*
X133297140Y-83131552D01*
X133277722Y-83048587D01*
X133275116Y-83025278D01*
X133270501Y-82915255D01*
X133276033Y-82863948D01*
X133415314Y-82863948D01*
X133417124Y-82895953D01*
X133427022Y-82905293D01*
X133451698Y-82898305D01*
X133490595Y-82881787D01*
X133534075Y-82861081D01*
X133535156Y-82860533D01*
X133572009Y-82841149D01*
X133586800Y-82828213D01*
X133583153Y-82814651D01*
X133567795Y-82796832D01*
X133528723Y-82771045D01*
X133486646Y-82769150D01*
X133448903Y-82787917D01*
X133422834Y-82824115D01*
X133415314Y-82863948D01*
X133276033Y-82863948D01*
X133279994Y-82827227D01*
X133304350Y-82757412D01*
X133338256Y-82708502D01*
X133399453Y-82659078D01*
X133466863Y-82634559D01*
X133535680Y-82632997D01*
X133601103Y-82652439D01*
G36*
X132473915Y-82643162D02*
G01*
X132541945Y-82678933D01*
X132592151Y-82736501D01*
X132609985Y-82773512D01*
X132623863Y-82829082D01*
X132630967Y-82899296D01*
X132631640Y-82975927D01*
X132626227Y-83050752D01*
X132615070Y-83115542D01*
X132598514Y-83162073D01*
X132593426Y-83170087D01*
X132533155Y-83229907D01*
X132461569Y-83265735D01*
X132383892Y-83276220D01*
X132305348Y-83260010D01*
X132283489Y-83250292D01*
X132240922Y-83220343D01*
X132203563Y-83180633D01*
X132200032Y-83175597D01*
X132185681Y-83151324D01*
X132176194Y-83125378D01*
X132170590Y-83091222D01*
X132167886Y-83042319D01*
X132167099Y-82972135D01*
X132167086Y-82956400D01*
X132167122Y-82951392D01*
X132312229Y-82951392D01*
X132313073Y-83017630D01*
X132316396Y-83061586D01*
X132323383Y-83089979D01*
X132335216Y-83109525D01*
X132341257Y-83116057D01*
X132375986Y-83140880D01*
X132409703Y-83139748D01*
X132443795Y-83118216D01*
X132464129Y-83095229D01*
X132476171Y-83061678D01*
X132482934Y-83008769D01*
X132483398Y-83002599D01*
X132484552Y-82906713D01*
X132472488Y-82835499D01*
X132447370Y-82789394D01*
X132409360Y-82768835D01*
X132395792Y-82767714D01*
X132360164Y-82773352D01*
X132335794Y-82792886D01*
X132320893Y-82830242D01*
X132313675Y-82889350D01*
X132312229Y-82951392D01*
X132167122Y-82951392D01*
X132167626Y-82881613D01*
X132169896Y-82829359D01*
X132174868Y-82793149D01*
X132183513Y-82766499D01*
X132196805Y-82742922D01*
X132199743Y-82738538D01*
X132249113Y-82679449D01*
X132302909Y-82645147D01*
X132368402Y-82631531D01*
X132390642Y-82630865D01*
X132473915Y-82643162D01*
G37*
X132473915Y-82643162D02*
X132541945Y-82678933D01*
X132592151Y-82736501D01*
X132609985Y-82773512D01*
X132623863Y-82829082D01*
X132630967Y-82899296D01*
X132631640Y-82975927D01*
X132626227Y-83050752D01*
X132615070Y-83115542D01*
X132598514Y-83162073D01*
X132593426Y-83170087D01*
X132533155Y-83229907D01*
X132461569Y-83265735D01*
X132383892Y-83276220D01*
X132305348Y-83260010D01*
X132283489Y-83250292D01*
X132240922Y-83220343D01*
X132203563Y-83180633D01*
X132200032Y-83175597D01*
X132185681Y-83151324D01*
X132176194Y-83125378D01*
X132170590Y-83091222D01*
X132167886Y-83042319D01*
X132167099Y-82972135D01*
X132167086Y-82956400D01*
X132167122Y-82951392D01*
X132312229Y-82951392D01*
X132313073Y-83017630D01*
X132316396Y-83061586D01*
X132323383Y-83089979D01*
X132335216Y-83109525D01*
X132341257Y-83116057D01*
X132375986Y-83140880D01*
X132409703Y-83139748D01*
X132443795Y-83118216D01*
X132464129Y-83095229D01*
X132476171Y-83061678D01*
X132482934Y-83008769D01*
X132483398Y-83002599D01*
X132484552Y-82906713D01*
X132472488Y-82835499D01*
X132447370Y-82789394D01*
X132409360Y-82768835D01*
X132395792Y-82767714D01*
X132360164Y-82773352D01*
X132335794Y-82792886D01*
X132320893Y-82830242D01*
X132313675Y-82889350D01*
X132312229Y-82951392D01*
X132167122Y-82951392D01*
X132167626Y-82881613D01*
X132169896Y-82829359D01*
X132174868Y-82793149D01*
X132183513Y-82766499D01*
X132196805Y-82742922D01*
X132199743Y-82738538D01*
X132249113Y-82679449D01*
X132302909Y-82645147D01*
X132368402Y-82631531D01*
X132390642Y-82630865D01*
X132473915Y-82643162D01*
G36*
X134148893Y-82648980D02*
G01*
X134195472Y-82675923D01*
X134227857Y-82702666D01*
X134251542Y-82730684D01*
X134267859Y-82764948D01*
X134278139Y-82810427D01*
X134283714Y-82872092D01*
X134285916Y-82954911D01*
X134286171Y-83014446D01*
X134286171Y-83233591D01*
X134224486Y-83261244D01*
X134162800Y-83288897D01*
X134155543Y-83048870D01*
X134152544Y-82959228D01*
X134149398Y-82894162D01*
X134145501Y-82849226D01*
X134140247Y-82819970D01*
X134133031Y-82801948D01*
X134123250Y-82790711D01*
X134120112Y-82788279D01*
X134072561Y-82769283D01*
X134024497Y-82776800D01*
X133995886Y-82796743D01*
X133984247Y-82810875D01*
X133976191Y-82829420D01*
X133971071Y-82857534D01*
X133968241Y-82900373D01*
X133967056Y-82963095D01*
X133966857Y-83028461D01*
X133966818Y-83110468D01*
X133965414Y-83168516D01*
X133960714Y-83207665D01*
X133950787Y-83232980D01*
X133933703Y-83249523D01*
X133907532Y-83262356D01*
X133872575Y-83275691D01*
X133834396Y-83290207D01*
X133838941Y-83032589D01*
X133840771Y-82939719D01*
X133842912Y-82871089D01*
X133845981Y-82821911D01*
X133850594Y-82787398D01*
X133857368Y-82762762D01*
X133866919Y-82743216D01*
X133878434Y-82725970D01*
X133933990Y-82670880D01*
X134001780Y-82639022D01*
X134075513Y-82631391D01*
X134148893Y-82648980D01*
G37*
X134148893Y-82648980D02*
X134195472Y-82675923D01*
X134227857Y-82702666D01*
X134251542Y-82730684D01*
X134267859Y-82764948D01*
X134278139Y-82810427D01*
X134283714Y-82872092D01*
X134285916Y-82954911D01*
X134286171Y-83014446D01*
X134286171Y-83233591D01*
X134224486Y-83261244D01*
X134162800Y-83288897D01*
X134155543Y-83048870D01*
X134152544Y-82959228D01*
X134149398Y-82894162D01*
X134145501Y-82849226D01*
X134140247Y-82819970D01*
X134133031Y-82801948D01*
X134123250Y-82790711D01*
X134120112Y-82788279D01*
X134072561Y-82769283D01*
X134024497Y-82776800D01*
X133995886Y-82796743D01*
X133984247Y-82810875D01*
X133976191Y-82829420D01*
X133971071Y-82857534D01*
X133968241Y-82900373D01*
X133967056Y-82963095D01*
X133966857Y-83028461D01*
X133966818Y-83110468D01*
X133965414Y-83168516D01*
X133960714Y-83207665D01*
X133950787Y-83232980D01*
X133933703Y-83249523D01*
X133907532Y-83262356D01*
X133872575Y-83275691D01*
X133834396Y-83290207D01*
X133838941Y-83032589D01*
X133840771Y-82939719D01*
X133842912Y-82871089D01*
X133845981Y-82821911D01*
X133850594Y-82787398D01*
X133857368Y-82762762D01*
X133866919Y-82743216D01*
X133878434Y-82725970D01*
X133933990Y-82670880D01*
X134001780Y-82639022D01*
X134075513Y-82631391D01*
X134148893Y-82648980D01*
G36*
X133032544Y-82641118D02*
G01*
X133088001Y-82668768D01*
X133136948Y-82719680D01*
X133150429Y-82738538D01*
X133165114Y-82763215D01*
X133174642Y-82790016D01*
X133180093Y-82825787D01*
X133182547Y-82877369D01*
X133183086Y-82945467D01*
X133180652Y-83038788D01*
X133172194Y-83108857D01*
X133155974Y-83161131D01*
X133130254Y-83201069D01*
X133093297Y-83234129D01*
X133090582Y-83236086D01*
X133054160Y-83256108D01*
X133010302Y-83266015D01*
X132954524Y-83268457D01*
X132863848Y-83268457D01*
X132863810Y-83356483D01*
X132862966Y-83405508D01*
X132857824Y-83434265D01*
X132844387Y-83451511D01*
X132818658Y-83466008D01*
X132812479Y-83468969D01*
X132783564Y-83482848D01*
X132761176Y-83491614D01*
X132744529Y-83492371D01*
X132732836Y-83482223D01*
X132725310Y-83458273D01*
X132721166Y-83417626D01*
X132719615Y-83357386D01*
X132719871Y-83274655D01*
X132721149Y-83166539D01*
X132721548Y-83134200D01*
X132722985Y-83022724D01*
X132724272Y-82949803D01*
X132863771Y-82949803D01*
X132864555Y-83011699D01*
X132868040Y-83052197D01*
X132875924Y-83078908D01*
X132889905Y-83099444D01*
X132899397Y-83109460D01*
X132938204Y-83138767D01*
X132972563Y-83141152D01*
X133008016Y-83116950D01*
X133008914Y-83116057D01*
X133023339Y-83097353D01*
X133032113Y-83071932D01*
X133036539Y-83032784D01*
X133037918Y-82972897D01*
X133037943Y-82959630D01*
X133034612Y-82877101D01*
X133023769Y-82819891D01*
X133004140Y-82784966D01*
X132974450Y-82769294D01*
X132957291Y-82767714D01*
X132916566Y-82775126D01*
X132888632Y-82799530D01*
X132871817Y-82844180D01*
X132864450Y-82912330D01*
X132863771Y-82949803D01*
X132724272Y-82949803D01*
X132724508Y-82936445D01*
X132726477Y-82871533D01*
X132729250Y-82824158D01*
X132733188Y-82790490D01*
X132738649Y-82766698D01*
X132745992Y-82748953D01*
X132755577Y-82733424D01*
X132759687Y-82727581D01*
X132814205Y-82672385D01*
X132883136Y-82641090D01*
X132962872Y-82632365D01*
X133032544Y-82641118D01*
G37*
X133032544Y-82641118D02*
X133088001Y-82668768D01*
X133136948Y-82719680D01*
X133150429Y-82738538D01*
X133165114Y-82763215D01*
X133174642Y-82790016D01*
X133180093Y-82825787D01*
X133182547Y-82877369D01*
X133183086Y-82945467D01*
X133180652Y-83038788D01*
X133172194Y-83108857D01*
X133155974Y-83161131D01*
X133130254Y-83201069D01*
X133093297Y-83234129D01*
X133090582Y-83236086D01*
X133054160Y-83256108D01*
X133010302Y-83266015D01*
X132954524Y-83268457D01*
X132863848Y-83268457D01*
X132863810Y-83356483D01*
X132862966Y-83405508D01*
X132857824Y-83434265D01*
X132844387Y-83451511D01*
X132818658Y-83466008D01*
X132812479Y-83468969D01*
X132783564Y-83482848D01*
X132761176Y-83491614D01*
X132744529Y-83492371D01*
X132732836Y-83482223D01*
X132725310Y-83458273D01*
X132721166Y-83417626D01*
X132719615Y-83357386D01*
X132719871Y-83274655D01*
X132721149Y-83166539D01*
X132721548Y-83134200D01*
X132722985Y-83022724D01*
X132724272Y-82949803D01*
X132863771Y-82949803D01*
X132864555Y-83011699D01*
X132868040Y-83052197D01*
X132875924Y-83078908D01*
X132889905Y-83099444D01*
X132899397Y-83109460D01*
X132938204Y-83138767D01*
X132972563Y-83141152D01*
X133008016Y-83116950D01*
X133008914Y-83116057D01*
X133023339Y-83097353D01*
X133032113Y-83071932D01*
X133036539Y-83032784D01*
X133037918Y-82972897D01*
X133037943Y-82959630D01*
X133034612Y-82877101D01*
X133023769Y-82819891D01*
X133004140Y-82784966D01*
X132974450Y-82769294D01*
X132957291Y-82767714D01*
X132916566Y-82775126D01*
X132888632Y-82799530D01*
X132871817Y-82844180D01*
X132864450Y-82912330D01*
X132863771Y-82949803D01*
X132724272Y-82949803D01*
X132724508Y-82936445D01*
X132726477Y-82871533D01*
X132729250Y-82824158D01*
X132733188Y-82790490D01*
X132738649Y-82766698D01*
X132745992Y-82748953D01*
X132755577Y-82733424D01*
X132759687Y-82727581D01*
X132814205Y-82672385D01*
X132883136Y-82641090D01*
X132962872Y-82632365D01*
X133032544Y-82641118D01*
G36*
X193770250Y-55363581D02*
G01*
X193815429Y-55366578D01*
X193852365Y-55374846D01*
X193877844Y-55387457D01*
X193886567Y-55397214D01*
X193894629Y-55425482D01*
X193893409Y-55456821D01*
X193883619Y-55483567D01*
X193877863Y-55490871D01*
X193866656Y-55503537D01*
X193865855Y-55513728D01*
X193875192Y-55529232D01*
X193876475Y-55531087D01*
X193892535Y-55554960D01*
X193898803Y-55568157D01*
X193895246Y-55573842D01*
X193881834Y-55575176D01*
X193876034Y-55575201D01*
X193855579Y-55572691D01*
X193842511Y-55562058D01*
X193833338Y-55545567D01*
X193820950Y-55525270D01*
X193806297Y-55516996D01*
X193793670Y-55515934D01*
X193776515Y-55517572D01*
X193769478Y-55525912D01*
X193768133Y-55545567D01*
X193766552Y-55565607D01*
X193759435Y-55573811D01*
X193746966Y-55575201D01*
X193725800Y-55575201D01*
X193725800Y-55474574D01*
X193768133Y-55474574D01*
X193803254Y-55471971D01*
X193831893Y-55466015D01*
X193847661Y-55454551D01*
X193852555Y-55435115D01*
X193842361Y-55419549D01*
X193818801Y-55409677D01*
X193803254Y-55407497D01*
X193768133Y-55404894D01*
X193768133Y-55474574D01*
X193725800Y-55474574D01*
X193725800Y-55363534D01*
X193770250Y-55363581D01*
G37*
X193770250Y-55363581D02*
X193815429Y-55366578D01*
X193852365Y-55374846D01*
X193877844Y-55387457D01*
X193886567Y-55397214D01*
X193894629Y-55425482D01*
X193893409Y-55456821D01*
X193883619Y-55483567D01*
X193877863Y-55490871D01*
X193866656Y-55503537D01*
X193865855Y-55513728D01*
X193875192Y-55529232D01*
X193876475Y-55531087D01*
X193892535Y-55554960D01*
X193898803Y-55568157D01*
X193895246Y-55573842D01*
X193881834Y-55575176D01*
X193876034Y-55575201D01*
X193855579Y-55572691D01*
X193842511Y-55562058D01*
X193833338Y-55545567D01*
X193820950Y-55525270D01*
X193806297Y-55516996D01*
X193793670Y-55515934D01*
X193776515Y-55517572D01*
X193769478Y-55525912D01*
X193768133Y-55545567D01*
X193766552Y-55565607D01*
X193759435Y-55573811D01*
X193746966Y-55575201D01*
X193725800Y-55575201D01*
X193725800Y-55474574D01*
X193768133Y-55474574D01*
X193803254Y-55471971D01*
X193831893Y-55466015D01*
X193847661Y-55454551D01*
X193852555Y-55435115D01*
X193842361Y-55419549D01*
X193818801Y-55409677D01*
X193803254Y-55407497D01*
X193768133Y-55404894D01*
X193768133Y-55474574D01*
X193725800Y-55474574D01*
X193725800Y-55363534D01*
X193770250Y-55363581D01*
G36*
X188149889Y-54268431D02*
G01*
X188203683Y-54286124D01*
X188252471Y-54317450D01*
X188265219Y-54328352D01*
X188308823Y-54376466D01*
X188339645Y-54431690D01*
X188358268Y-54495715D01*
X188365276Y-54570234D01*
X188364400Y-54616148D01*
X188361623Y-54656675D01*
X188357182Y-54686840D01*
X188349393Y-54713213D01*
X188336572Y-54742366D01*
X188327318Y-54760884D01*
X188291011Y-54818547D01*
X188247657Y-54861429D01*
X188195524Y-54890677D01*
X188132883Y-54907439D01*
X188100432Y-54911243D01*
X188065453Y-54910989D01*
X188029413Y-54906278D01*
X188018668Y-54903716D01*
X187953946Y-54877585D01*
X187900776Y-54839199D01*
X187859423Y-54788922D01*
X187830150Y-54727120D01*
X187813220Y-54654157D01*
X187809483Y-54613913D01*
X187810777Y-54532466D01*
X187824142Y-54461944D01*
X187850091Y-54400898D01*
X187889134Y-54347881D01*
X187911048Y-54326314D01*
X187958979Y-54291801D01*
X188011993Y-54271147D01*
X188073610Y-54263081D01*
X188087000Y-54262867D01*
X188149889Y-54268431D01*
G37*
X188149889Y-54268431D02*
X188203683Y-54286124D01*
X188252471Y-54317450D01*
X188265219Y-54328352D01*
X188308823Y-54376466D01*
X188339645Y-54431690D01*
X188358268Y-54495715D01*
X188365276Y-54570234D01*
X188364400Y-54616148D01*
X188361623Y-54656675D01*
X188357182Y-54686840D01*
X188349393Y-54713213D01*
X188336572Y-54742366D01*
X188327318Y-54760884D01*
X188291011Y-54818547D01*
X188247657Y-54861429D01*
X188195524Y-54890677D01*
X188132883Y-54907439D01*
X188100432Y-54911243D01*
X188065453Y-54910989D01*
X188029413Y-54906278D01*
X188018668Y-54903716D01*
X187953946Y-54877585D01*
X187900776Y-54839199D01*
X187859423Y-54788922D01*
X187830150Y-54727120D01*
X187813220Y-54654157D01*
X187809483Y-54613913D01*
X187810777Y-54532466D01*
X187824142Y-54461944D01*
X187850091Y-54400898D01*
X187889134Y-54347881D01*
X187911048Y-54326314D01*
X187958979Y-54291801D01*
X188011993Y-54271147D01*
X188073610Y-54263081D01*
X188087000Y-54262867D01*
X188149889Y-54268431D01*
G36*
X193850454Y-55267132D02*
G01*
X193904299Y-55285545D01*
X193940138Y-55307883D01*
X193960468Y-55327888D01*
X193981817Y-55355707D01*
X193993194Y-55374081D01*
X194007277Y-55402747D01*
X194014739Y-55428855D01*
X194017449Y-55460351D01*
X194017619Y-55477834D01*
X194009844Y-55538672D01*
X193987205Y-55591569D01*
X193950186Y-55635734D01*
X193899616Y-55670201D01*
X193865969Y-55682140D01*
X193824692Y-55689232D01*
X193782770Y-55690887D01*
X193747190Y-55686513D01*
X193738500Y-55683825D01*
X193686358Y-55656009D01*
X193644586Y-55617436D01*
X193614288Y-55570791D01*
X193596571Y-55518760D01*
X193592946Y-55469554D01*
X193640956Y-55469554D01*
X193645292Y-55517032D01*
X193662846Y-55560818D01*
X193677461Y-55580944D01*
X193717887Y-55615643D01*
X193764257Y-55636222D01*
X193813517Y-55641896D01*
X193862614Y-55631881D01*
X193867773Y-55629830D01*
X193910990Y-55603765D01*
X193943272Y-55568109D01*
X193963872Y-55525957D01*
X193972045Y-55480407D01*
X193967046Y-55434552D01*
X193948128Y-55391488D01*
X193930578Y-55369108D01*
X193888836Y-55336032D01*
X193842277Y-55317916D01*
X193793745Y-55314618D01*
X193746084Y-55325998D01*
X193702137Y-55351913D01*
X193672405Y-55381951D01*
X193649955Y-55422991D01*
X193640956Y-55469554D01*
X193592946Y-55469554D01*
X193592539Y-55464030D01*
X193603297Y-55409287D01*
X193614586Y-55382715D01*
X193648125Y-55334024D01*
X193691237Y-55297486D01*
X193741167Y-55273736D01*
X193795158Y-55263407D01*
X193850454Y-55267132D01*
G37*
X193850454Y-55267132D02*
X193904299Y-55285545D01*
X193940138Y-55307883D01*
X193960468Y-55327888D01*
X193981817Y-55355707D01*
X193993194Y-55374081D01*
X194007277Y-55402747D01*
X194014739Y-55428855D01*
X194017449Y-55460351D01*
X194017619Y-55477834D01*
X194009844Y-55538672D01*
X193987205Y-55591569D01*
X193950186Y-55635734D01*
X193899616Y-55670201D01*
X193865969Y-55682140D01*
X193824692Y-55689232D01*
X193782770Y-55690887D01*
X193747190Y-55686513D01*
X193738500Y-55683825D01*
X193686358Y-55656009D01*
X193644586Y-55617436D01*
X193614288Y-55570791D01*
X193596571Y-55518760D01*
X193592946Y-55469554D01*
X193640956Y-55469554D01*
X193645292Y-55517032D01*
X193662846Y-55560818D01*
X193677461Y-55580944D01*
X193717887Y-55615643D01*
X193764257Y-55636222D01*
X193813517Y-55641896D01*
X193862614Y-55631881D01*
X193867773Y-55629830D01*
X193910990Y-55603765D01*
X193943272Y-55568109D01*
X193963872Y-55525957D01*
X193972045Y-55480407D01*
X193967046Y-55434552D01*
X193948128Y-55391488D01*
X193930578Y-55369108D01*
X193888836Y-55336032D01*
X193842277Y-55317916D01*
X193793745Y-55314618D01*
X193746084Y-55325998D01*
X193702137Y-55351913D01*
X193672405Y-55381951D01*
X193649955Y-55422991D01*
X193640956Y-55469554D01*
X193592946Y-55469554D01*
X193592539Y-55464030D01*
X193603297Y-55409287D01*
X193614586Y-55382715D01*
X193648125Y-55334024D01*
X193691237Y-55297486D01*
X193741167Y-55273736D01*
X193795158Y-55263407D01*
X193850454Y-55267132D01*
G36*
X190613835Y-53445836D02*
G01*
X190842551Y-53445846D01*
X191055497Y-53445868D01*
X191253253Y-53445903D01*
X191436400Y-53445957D01*
X191605521Y-53446033D01*
X191761195Y-53446134D01*
X191904005Y-53446263D01*
X192034532Y-53446425D01*
X192153356Y-53446624D01*
X192261060Y-53446861D01*
X192358223Y-53447142D01*
X192445429Y-53447469D01*
X192523257Y-53447846D01*
X192592289Y-53448278D01*
X192653106Y-53448766D01*
X192706290Y-53449316D01*
X192752422Y-53449929D01*
X192792083Y-53450611D01*
X192825854Y-53451364D01*
X192854317Y-53452193D01*
X192878052Y-53453100D01*
X192897641Y-53454089D01*
X192913666Y-53455164D01*
X192926707Y-53456328D01*
X192937345Y-53457586D01*
X192946163Y-53458939D01*
X192953741Y-53460393D01*
X192959566Y-53461692D01*
X193097145Y-53502031D01*
X193225776Y-53556297D01*
X193344804Y-53623987D01*
X193453570Y-53704598D01*
X193551417Y-53797627D01*
X193637688Y-53902569D01*
X193711724Y-54018922D01*
X193728572Y-54050368D01*
X193781483Y-54167023D01*
X193819205Y-54283929D01*
X193842558Y-54404508D01*
X193852367Y-54532183D01*
X193852800Y-54567284D01*
X193845202Y-54708000D01*
X193822308Y-54841517D01*
X193783967Y-54968212D01*
X193730029Y-55088460D01*
X193660342Y-55202636D01*
X193574757Y-55311115D01*
X193538191Y-55350758D01*
X193442496Y-55440801D01*
X193341466Y-55516562D01*
X193233057Y-55579177D01*
X193115225Y-55629783D01*
X192985925Y-55669516D01*
X192948551Y-55678581D01*
X192866433Y-55697466D01*
X190832317Y-55700002D01*
X188798200Y-55702537D01*
X188798200Y-53936901D01*
X188867575Y-53936901D01*
X189101704Y-54582338D01*
X189335833Y-55227776D01*
X189548065Y-55227921D01*
X189760296Y-55228067D01*
X189881663Y-54836484D01*
X189905957Y-54758334D01*
X189928857Y-54685118D01*
X189949856Y-54618426D01*
X189968446Y-54559850D01*
X189984120Y-54510983D01*
X189996368Y-54473416D01*
X190004684Y-54448740D01*
X190008560Y-54438549D01*
X190008649Y-54438422D01*
X190012157Y-54444963D01*
X190020078Y-54466196D01*
X190031918Y-54500606D01*
X190047181Y-54546680D01*
X190065375Y-54602902D01*
X190086003Y-54667759D01*
X190108572Y-54739735D01*
X190132588Y-54817317D01*
X190136485Y-54829996D01*
X190258700Y-55228047D01*
X190682136Y-55228067D01*
X190917035Y-54585839D01*
X190953463Y-54486174D01*
X190988163Y-54391111D01*
X191020699Y-54301848D01*
X191050637Y-54219582D01*
X191077544Y-54145511D01*
X191100983Y-54080831D01*
X191120523Y-54026742D01*
X191135727Y-53984441D01*
X191146161Y-53955124D01*
X191151392Y-53939990D01*
X191151933Y-53938139D01*
X191143850Y-53936623D01*
X191121132Y-53935268D01*
X191086080Y-53934136D01*
X191040991Y-53933287D01*
X190988164Y-53932783D01*
X190946103Y-53932667D01*
X191211200Y-53932667D01*
X191211200Y-55228067D01*
X191634533Y-55228067D01*
X191634533Y-53932667D01*
X191719200Y-53932667D01*
X191719200Y-55228067D01*
X192142533Y-55228067D01*
X192142533Y-54584600D01*
X192231457Y-54584600D01*
X192232277Y-54652415D01*
X192235303Y-54707596D01*
X192241419Y-54754389D01*
X192251508Y-54797043D01*
X192266455Y-54839804D01*
X192287144Y-54886921D01*
X192299907Y-54913416D01*
X192349638Y-54995903D01*
X192412219Y-55067562D01*
X192486840Y-55127572D01*
X192545044Y-55161819D01*
X192622921Y-55197566D01*
X192697103Y-55221989D01*
X192773173Y-55236363D01*
X192856715Y-55241962D01*
X192896066Y-55241993D01*
X192976500Y-55240767D01*
X192978788Y-55070361D01*
X192981077Y-54899955D01*
X192906231Y-54896376D01*
X192845717Y-54889178D01*
X192797018Y-54873064D01*
X192756742Y-54846564D01*
X192731390Y-54820626D01*
X192695443Y-54766314D01*
X192670490Y-54703996D01*
X192656435Y-54636733D01*
X192653187Y-54567587D01*
X192660651Y-54499617D01*
X192678736Y-54435885D01*
X192707346Y-54379453D01*
X192746222Y-54333533D01*
X192787355Y-54301930D01*
X192829534Y-54282461D01*
X192878235Y-54273115D01*
X192915288Y-54271520D01*
X192981077Y-54271334D01*
X192978788Y-54095651D01*
X192976500Y-53919967D01*
X192870666Y-53921327D01*
X192786395Y-53925620D01*
X192712378Y-53937022D01*
X192642964Y-53956842D01*
X192572499Y-53986385D01*
X192557400Y-53993766D01*
X192489355Y-54035334D01*
X192424101Y-54089336D01*
X192365830Y-54151640D01*
X192318733Y-54218114D01*
X192305368Y-54242180D01*
X192278729Y-54297631D01*
X192259080Y-54348183D01*
X192245475Y-54398217D01*
X192236967Y-54452116D01*
X192232611Y-54514263D01*
X192231457Y-54584600D01*
X192142533Y-54584600D01*
X192142533Y-53932667D01*
X191719200Y-53932667D01*
X191634533Y-53932667D01*
X191211200Y-53932667D01*
X190946103Y-53932667D01*
X190740273Y-53932667D01*
X190618984Y-54345417D01*
X190595079Y-54426603D01*
X190572353Y-54503466D01*
X190551301Y-54574354D01*
X190532418Y-54637617D01*
X190516199Y-54691603D01*
X190503138Y-54734662D01*
X190493730Y-54765142D01*
X190488470Y-54781392D01*
X190487908Y-54782921D01*
X190486031Y-54787154D01*
X190484008Y-54789587D01*
X190481538Y-54789267D01*
X190478319Y-54785243D01*
X190474051Y-54776562D01*
X190468432Y-54762272D01*
X190461160Y-54741421D01*
X190451935Y-54713057D01*
X190440456Y-54676226D01*
X190426420Y-54629979D01*
X190409527Y-54573361D01*
X190389476Y-54505420D01*
X190365965Y-54425206D01*
X190338693Y-54331764D01*
X190307359Y-54224144D01*
X190271661Y-54101393D01*
X190264453Y-54076601D01*
X190223840Y-53936901D01*
X189815316Y-53932369D01*
X189794212Y-54002368D01*
X189787369Y-54025441D01*
X189776461Y-54062698D01*
X189762093Y-54112049D01*
X189744872Y-54171401D01*
X189725404Y-54238664D01*
X189704296Y-54311746D01*
X189682155Y-54388556D01*
X189669592Y-54432200D01*
X189647918Y-54507263D01*
X189627540Y-54577304D01*
X189608958Y-54640643D01*
X189592670Y-54695602D01*
X189579177Y-54740504D01*
X189568977Y-54773670D01*
X189562572Y-54793422D01*
X189560602Y-54798380D01*
X189557244Y-54791737D01*
X189549622Y-54770306D01*
X189538192Y-54735559D01*
X189523415Y-54688968D01*
X189505750Y-54632007D01*
X189485656Y-54566148D01*
X189463592Y-54492864D01*
X189440018Y-54413626D01*
X189429451Y-54377819D01*
X189405272Y-54295872D01*
X189382406Y-54218744D01*
X189361321Y-54147979D01*
X189342481Y-54085122D01*
X189326351Y-54031718D01*
X189313397Y-53989310D01*
X189304083Y-53959444D01*
X189298877Y-53943665D01*
X189298046Y-53941640D01*
X189289011Y-53938471D01*
X189265932Y-53936183D01*
X189228146Y-53934755D01*
X189174988Y-53934164D01*
X189105794Y-53934391D01*
X189079946Y-53934635D01*
X188867575Y-53936901D01*
X188798200Y-53936901D01*
X188798200Y-53932667D01*
X188366400Y-53932667D01*
X188366400Y-54097189D01*
X188321950Y-54053857D01*
X188255875Y-53999182D01*
X188182641Y-53958089D01*
X188137800Y-53940310D01*
X188094179Y-53929603D01*
X188039227Y-53922757D01*
X187978118Y-53919845D01*
X187916024Y-53920937D01*
X187858118Y-53926105D01*
X187809574Y-53935420D01*
X187808333Y-53935760D01*
X187716132Y-53969718D01*
X187633047Y-54017762D01*
X187559882Y-54079226D01*
X187497440Y-54153444D01*
X187449742Y-54233234D01*
X187417906Y-54311695D01*
X187394794Y-54400523D01*
X187381121Y-54495167D01*
X187377602Y-54591074D01*
X187382270Y-54662994D01*
X187391453Y-54731059D01*
X187402862Y-54788008D01*
X187418126Y-54839645D01*
X187438869Y-54891775D01*
X187457552Y-54931734D01*
X187505407Y-55012074D01*
X187564968Y-55082702D01*
X187634123Y-55141474D01*
X187706000Y-55183999D01*
X187798312Y-55219553D01*
X187895395Y-55239680D01*
X187983264Y-55245001D01*
X188076048Y-55237593D01*
X188161056Y-55215508D01*
X188237749Y-55178952D01*
X188305583Y-55128131D01*
X188316257Y-55118028D01*
X188366400Y-55068963D01*
X188366400Y-55702201D01*
X188161083Y-55700777D01*
X188101735Y-55700249D01*
X188046229Y-55699537D01*
X187997402Y-55698695D01*
X187958090Y-55697775D01*
X187931128Y-55696832D01*
X187921900Y-55696263D01*
X187788711Y-55675956D01*
X187659971Y-55640310D01*
X187536964Y-55590279D01*
X187420973Y-55526819D01*
X187313282Y-55450883D01*
X187215173Y-55363427D01*
X187127930Y-55265406D01*
X187052837Y-55157774D01*
X186991177Y-55041485D01*
X186968225Y-54986767D01*
X186926704Y-54858861D01*
X186899930Y-54729228D01*
X186888280Y-54600406D01*
X186892091Y-54475358D01*
X186913203Y-54334792D01*
X186949151Y-54202346D01*
X187000073Y-54077731D01*
X187066108Y-53960659D01*
X187147397Y-53850839D01*
X187238355Y-53753464D01*
X187341395Y-53664820D01*
X187451723Y-53590873D01*
X187570617Y-53530919D01*
X187699354Y-53484255D01*
X187754480Y-53469003D01*
X187845700Y-53445834D01*
X190368767Y-53445834D01*
X190613835Y-53445836D01*
G37*
X190613835Y-53445836D02*
X190842551Y-53445846D01*
X191055497Y-53445868D01*
X191253253Y-53445903D01*
X191436400Y-53445957D01*
X191605521Y-53446033D01*
X191761195Y-53446134D01*
X191904005Y-53446263D01*
X192034532Y-53446425D01*
X192153356Y-53446624D01*
X192261060Y-53446861D01*
X192358223Y-53447142D01*
X192445429Y-53447469D01*
X192523257Y-53447846D01*
X192592289Y-53448278D01*
X192653106Y-53448766D01*
X192706290Y-53449316D01*
X192752422Y-53449929D01*
X192792083Y-53450611D01*
X192825854Y-53451364D01*
X192854317Y-53452193D01*
X192878052Y-53453100D01*
X192897641Y-53454089D01*
X192913666Y-53455164D01*
X192926707Y-53456328D01*
X192937345Y-53457586D01*
X192946163Y-53458939D01*
X192953741Y-53460393D01*
X192959566Y-53461692D01*
X193097145Y-53502031D01*
X193225776Y-53556297D01*
X193344804Y-53623987D01*
X193453570Y-53704598D01*
X193551417Y-53797627D01*
X193637688Y-53902569D01*
X193711724Y-54018922D01*
X193728572Y-54050368D01*
X193781483Y-54167023D01*
X193819205Y-54283929D01*
X193842558Y-54404508D01*
X193852367Y-54532183D01*
X193852800Y-54567284D01*
X193845202Y-54708000D01*
X193822308Y-54841517D01*
X193783967Y-54968212D01*
X193730029Y-55088460D01*
X193660342Y-55202636D01*
X193574757Y-55311115D01*
X193538191Y-55350758D01*
X193442496Y-55440801D01*
X193341466Y-55516562D01*
X193233057Y-55579177D01*
X193115225Y-55629783D01*
X192985925Y-55669516D01*
X192948551Y-55678581D01*
X192866433Y-55697466D01*
X190832317Y-55700002D01*
X188798200Y-55702537D01*
X188798200Y-53936901D01*
X188867575Y-53936901D01*
X189101704Y-54582338D01*
X189335833Y-55227776D01*
X189548065Y-55227921D01*
X189760296Y-55228067D01*
X189881663Y-54836484D01*
X189905957Y-54758334D01*
X189928857Y-54685118D01*
X189949856Y-54618426D01*
X189968446Y-54559850D01*
X189984120Y-54510983D01*
X189996368Y-54473416D01*
X190004684Y-54448740D01*
X190008560Y-54438549D01*
X190008649Y-54438422D01*
X190012157Y-54444963D01*
X190020078Y-54466196D01*
X190031918Y-54500606D01*
X190047181Y-54546680D01*
X190065375Y-54602902D01*
X190086003Y-54667759D01*
X190108572Y-54739735D01*
X190132588Y-54817317D01*
X190136485Y-54829996D01*
X190258700Y-55228047D01*
X190682136Y-55228067D01*
X190917035Y-54585839D01*
X190953463Y-54486174D01*
X190988163Y-54391111D01*
X191020699Y-54301848D01*
X191050637Y-54219582D01*
X191077544Y-54145511D01*
X191100983Y-54080831D01*
X191120523Y-54026742D01*
X191135727Y-53984441D01*
X191146161Y-53955124D01*
X191151392Y-53939990D01*
X191151933Y-53938139D01*
X191143850Y-53936623D01*
X191121132Y-53935268D01*
X191086080Y-53934136D01*
X191040991Y-53933287D01*
X190988164Y-53932783D01*
X190946103Y-53932667D01*
X191211200Y-53932667D01*
X191211200Y-55228067D01*
X191634533Y-55228067D01*
X191634533Y-53932667D01*
X191719200Y-53932667D01*
X191719200Y-55228067D01*
X192142533Y-55228067D01*
X192142533Y-54584600D01*
X192231457Y-54584600D01*
X192232277Y-54652415D01*
X192235303Y-54707596D01*
X192241419Y-54754389D01*
X192251508Y-54797043D01*
X192266455Y-54839804D01*
X192287144Y-54886921D01*
X192299907Y-54913416D01*
X192349638Y-54995903D01*
X192412219Y-55067562D01*
X192486840Y-55127572D01*
X192545044Y-55161819D01*
X192622921Y-55197566D01*
X192697103Y-55221989D01*
X192773173Y-55236363D01*
X192856715Y-55241962D01*
X192896066Y-55241993D01*
X192976500Y-55240767D01*
X192978788Y-55070361D01*
X192981077Y-54899955D01*
X192906231Y-54896376D01*
X192845717Y-54889178D01*
X192797018Y-54873064D01*
X192756742Y-54846564D01*
X192731390Y-54820626D01*
X192695443Y-54766314D01*
X192670490Y-54703996D01*
X192656435Y-54636733D01*
X192653187Y-54567587D01*
X192660651Y-54499617D01*
X192678736Y-54435885D01*
X192707346Y-54379453D01*
X192746222Y-54333533D01*
X192787355Y-54301930D01*
X192829534Y-54282461D01*
X192878235Y-54273115D01*
X192915288Y-54271520D01*
X192981077Y-54271334D01*
X192978788Y-54095651D01*
X192976500Y-53919967D01*
X192870666Y-53921327D01*
X192786395Y-53925620D01*
X192712378Y-53937022D01*
X192642964Y-53956842D01*
X192572499Y-53986385D01*
X192557400Y-53993766D01*
X192489355Y-54035334D01*
X192424101Y-54089336D01*
X192365830Y-54151640D01*
X192318733Y-54218114D01*
X192305368Y-54242180D01*
X192278729Y-54297631D01*
X192259080Y-54348183D01*
X192245475Y-54398217D01*
X192236967Y-54452116D01*
X192232611Y-54514263D01*
X192231457Y-54584600D01*
X192142533Y-54584600D01*
X192142533Y-53932667D01*
X191719200Y-53932667D01*
X191634533Y-53932667D01*
X191211200Y-53932667D01*
X190946103Y-53932667D01*
X190740273Y-53932667D01*
X190618984Y-54345417D01*
X190595079Y-54426603D01*
X190572353Y-54503466D01*
X190551301Y-54574354D01*
X190532418Y-54637617D01*
X190516199Y-54691603D01*
X190503138Y-54734662D01*
X190493730Y-54765142D01*
X190488470Y-54781392D01*
X190487908Y-54782921D01*
X190486031Y-54787154D01*
X190484008Y-54789587D01*
X190481538Y-54789267D01*
X190478319Y-54785243D01*
X190474051Y-54776562D01*
X190468432Y-54762272D01*
X190461160Y-54741421D01*
X190451935Y-54713057D01*
X190440456Y-54676226D01*
X190426420Y-54629979D01*
X190409527Y-54573361D01*
X190389476Y-54505420D01*
X190365965Y-54425206D01*
X190338693Y-54331764D01*
X190307359Y-54224144D01*
X190271661Y-54101393D01*
X190264453Y-54076601D01*
X190223840Y-53936901D01*
X189815316Y-53932369D01*
X189794212Y-54002368D01*
X189787369Y-54025441D01*
X189776461Y-54062698D01*
X189762093Y-54112049D01*
X189744872Y-54171401D01*
X189725404Y-54238664D01*
X189704296Y-54311746D01*
X189682155Y-54388556D01*
X189669592Y-54432200D01*
X189647918Y-54507263D01*
X189627540Y-54577304D01*
X189608958Y-54640643D01*
X189592670Y-54695602D01*
X189579177Y-54740504D01*
X189568977Y-54773670D01*
X189562572Y-54793422D01*
X189560602Y-54798380D01*
X189557244Y-54791737D01*
X189549622Y-54770306D01*
X189538192Y-54735559D01*
X189523415Y-54688968D01*
X189505750Y-54632007D01*
X189485656Y-54566148D01*
X189463592Y-54492864D01*
X189440018Y-54413626D01*
X189429451Y-54377819D01*
X189405272Y-54295872D01*
X189382406Y-54218744D01*
X189361321Y-54147979D01*
X189342481Y-54085122D01*
X189326351Y-54031718D01*
X189313397Y-53989310D01*
X189304083Y-53959444D01*
X189298877Y-53943665D01*
X189298046Y-53941640D01*
X189289011Y-53938471D01*
X189265932Y-53936183D01*
X189228146Y-53934755D01*
X189174988Y-53934164D01*
X189105794Y-53934391D01*
X189079946Y-53934635D01*
X188867575Y-53936901D01*
X188798200Y-53936901D01*
X188798200Y-53932667D01*
X188366400Y-53932667D01*
X188366400Y-54097189D01*
X188321950Y-54053857D01*
X188255875Y-53999182D01*
X188182641Y-53958089D01*
X188137800Y-53940310D01*
X188094179Y-53929603D01*
X188039227Y-53922757D01*
X187978118Y-53919845D01*
X187916024Y-53920937D01*
X187858118Y-53926105D01*
X187809574Y-53935420D01*
X187808333Y-53935760D01*
X187716132Y-53969718D01*
X187633047Y-54017762D01*
X187559882Y-54079226D01*
X187497440Y-54153444D01*
X187449742Y-54233234D01*
X187417906Y-54311695D01*
X187394794Y-54400523D01*
X187381121Y-54495167D01*
X187377602Y-54591074D01*
X187382270Y-54662994D01*
X187391453Y-54731059D01*
X187402862Y-54788008D01*
X187418126Y-54839645D01*
X187438869Y-54891775D01*
X187457552Y-54931734D01*
X187505407Y-55012074D01*
X187564968Y-55082702D01*
X187634123Y-55141474D01*
X187706000Y-55183999D01*
X187798312Y-55219553D01*
X187895395Y-55239680D01*
X187983264Y-55245001D01*
X188076048Y-55237593D01*
X188161056Y-55215508D01*
X188237749Y-55178952D01*
X188305583Y-55128131D01*
X188316257Y-55118028D01*
X188366400Y-55068963D01*
X188366400Y-55702201D01*
X188161083Y-55700777D01*
X188101735Y-55700249D01*
X188046229Y-55699537D01*
X187997402Y-55698695D01*
X187958090Y-55697775D01*
X187931128Y-55696832D01*
X187921900Y-55696263D01*
X187788711Y-55675956D01*
X187659971Y-55640310D01*
X187536964Y-55590279D01*
X187420973Y-55526819D01*
X187313282Y-55450883D01*
X187215173Y-55363427D01*
X187127930Y-55265406D01*
X187052837Y-55157774D01*
X186991177Y-55041485D01*
X186968225Y-54986767D01*
X186926704Y-54858861D01*
X186899930Y-54729228D01*
X186888280Y-54600406D01*
X186892091Y-54475358D01*
X186913203Y-54334792D01*
X186949151Y-54202346D01*
X187000073Y-54077731D01*
X187066108Y-53960659D01*
X187147397Y-53850839D01*
X187238355Y-53753464D01*
X187341395Y-53664820D01*
X187451723Y-53590873D01*
X187570617Y-53530919D01*
X187699354Y-53484255D01*
X187754480Y-53469003D01*
X187845700Y-53445834D01*
X190368767Y-53445834D01*
X190613835Y-53445836D01*
D11*
X175414400Y-56278800D02*
X175414400Y-55168800D01*
X176174400Y-56278800D02*
X175414400Y-56278800D01*
X176934400Y-54605329D02*
X176934400Y-54058800D01*
X176934400Y-56278800D02*
X176934400Y-55732271D01*
X176934400Y-54058800D02*
X179409400Y-54058800D01*
X176934400Y-56278800D02*
X179409400Y-56278800D01*
X179409400Y-54861270D02*
X179409400Y-54058800D01*
X179409400Y-56278800D02*
X179409400Y-55476330D01*
X175414400Y-59504600D02*
X175414400Y-58394600D01*
X176174400Y-59504600D02*
X175414400Y-59504600D01*
X176934400Y-57831129D02*
X176934400Y-57284600D01*
X176934400Y-59504600D02*
X176934400Y-58958071D01*
X176934400Y-57284600D02*
X179409400Y-57284600D01*
X176934400Y-59504600D02*
X179409400Y-59504600D01*
X179409400Y-58087070D02*
X179409400Y-57284600D01*
X179409400Y-59504600D02*
X179409400Y-58702130D01*
X176447600Y-71600800D02*
X175697600Y-71600800D01*
X179597600Y-70900800D02*
X179597600Y-71600800D01*
X178847600Y-68200800D02*
X179597600Y-68200800D01*
X179597600Y-68200800D02*
X179597600Y-68900800D01*
X179597600Y-71600800D02*
X178847600Y-71600800D01*
X175697600Y-71600800D02*
X175697600Y-70900800D01*
X175847600Y-68200800D02*
G75*
G03X175847600Y-68200800I-150000J0D01*
G01*
X175757600Y-68200800D02*
G75*
G03X175757600Y-68200800I-60000J0D01*
G01*
X150333400Y-54026600D02*
X151028400Y-54026600D01*
X150333400Y-54711600D02*
X150333400Y-54026600D01*
X151636676Y-55396600D02*
X151723400Y-55396600D01*
X150333400Y-55396600D02*
X150420124Y-55396600D01*
X151723400Y-55396600D02*
X151723400Y-55271600D01*
X150333400Y-55396600D02*
X150333400Y-55271600D01*
X150333400Y-55396600D02*
X151723400Y-55396600D01*
X150841400Y-57735000D02*
X151536400Y-57735000D01*
X150841400Y-58420000D02*
X150841400Y-57735000D01*
X152144676Y-59105000D02*
X152231400Y-59105000D01*
X150841400Y-59105000D02*
X150928124Y-59105000D01*
X152231400Y-59105000D02*
X152231400Y-58980000D01*
X150841400Y-59105000D02*
X150841400Y-58980000D01*
X150841400Y-59105000D02*
X152231400Y-59105000D01*
D13*
X194403980Y-76768960D02*
G75*
G03X194403980Y-76768960I-139700J0D01*
G01*
D14*
X194911980Y-77269340D02*
X194911980Y-76517500D01*
X194911980Y-71269860D02*
X196562980Y-71269860D01*
X194911980Y-72021700D02*
X194911980Y-71269860D01*
X196562980Y-77269340D02*
X194911980Y-77269340D01*
X199163940Y-75768200D02*
X199163940Y-72771000D01*
D13*
X194556380Y-68539360D02*
G75*
G03X194556380Y-68539360I-139700J0D01*
G01*
D14*
X195064380Y-69039740D02*
X195064380Y-68287900D01*
X195064380Y-63040260D02*
X196715380Y-63040260D01*
X195064380Y-63792100D02*
X195064380Y-63040260D01*
X196715380Y-69039740D02*
X195064380Y-69039740D01*
X199316340Y-67538600D02*
X199316340Y-64541400D01*
D13*
X194505580Y-60563760D02*
G75*
G03X194505580Y-60563760I-139700J0D01*
G01*
D14*
X195013580Y-61064140D02*
X195013580Y-60312300D01*
X195013580Y-55064660D02*
X196664580Y-55064660D01*
X195013580Y-55816500D02*
X195013580Y-55064660D01*
X196664580Y-61064140D02*
X195013580Y-61064140D01*
X199265540Y-59563000D02*
X199265540Y-56565800D01*
D11*
X174703200Y-75245179D02*
X174703200Y-74919621D01*
X173683200Y-75245179D02*
X173683200Y-74919621D01*
X177852800Y-75245179D02*
X177852800Y-74919621D01*
X176832800Y-75245179D02*
X176832800Y-74919621D01*
X176278000Y-75245179D02*
X176278000Y-74919621D01*
X175258000Y-75245179D02*
X175258000Y-74919621D01*
X170880821Y-71884000D02*
X171206379Y-71884000D01*
X170880821Y-70864000D02*
X171206379Y-70864000D01*
X169890221Y-90019600D02*
X170215779Y-90019600D01*
X169890221Y-88999600D02*
X170215779Y-88999600D01*
X175868601Y-66012600D02*
X175868601Y-65612600D01*
X176068601Y-65812600D02*
X175668601Y-65812600D01*
X171717800Y-64987600D02*
X171717800Y-64247600D01*
X171757800Y-65154600D02*
X171757800Y-64080600D01*
X171797800Y-65281600D02*
X171797800Y-63953600D01*
X171837800Y-65385600D02*
X171837800Y-63849600D01*
X171877800Y-65476600D02*
X171877800Y-63758600D01*
X171917800Y-65557600D02*
X171917800Y-63677600D01*
X171957800Y-65630600D02*
X171957800Y-63604600D01*
X171997800Y-65697600D02*
X171997800Y-63537600D01*
X172037800Y-65759600D02*
X172037800Y-63475600D01*
X172077800Y-65817600D02*
X172077800Y-63417600D01*
X172117800Y-65871600D02*
X172117800Y-63363600D01*
X172157800Y-65921600D02*
X172157800Y-63313600D01*
X172197800Y-65968600D02*
X172197800Y-63266600D01*
X172237800Y-63777600D02*
X172237800Y-63221600D01*
X172237800Y-66013600D02*
X172237800Y-65457600D01*
X172277800Y-63777600D02*
X172277800Y-63179600D01*
X172277800Y-66055600D02*
X172277800Y-65457600D01*
X172317800Y-63777600D02*
X172317800Y-63139600D01*
X172317800Y-66095600D02*
X172317800Y-65457600D01*
X172357800Y-63777600D02*
X172357800Y-63101600D01*
X172357800Y-66133600D02*
X172357800Y-65457600D01*
X172397800Y-63777600D02*
X172397800Y-63065600D01*
X172397800Y-66169600D02*
X172397800Y-65457600D01*
X172437800Y-63777600D02*
X172437800Y-63030600D01*
X172437800Y-66204600D02*
X172437800Y-65457600D01*
X172477800Y-63777600D02*
X172477800Y-62998600D01*
X172477800Y-66236600D02*
X172477800Y-65457600D01*
X172517800Y-63777600D02*
X172517800Y-62967600D01*
X172517800Y-66267600D02*
X172517800Y-65457600D01*
X172557800Y-63777600D02*
X172557800Y-62937600D01*
X172557800Y-66297600D02*
X172557800Y-65457600D01*
X172597800Y-63777600D02*
X172597800Y-62909600D01*
X172597800Y-66325600D02*
X172597800Y-65457600D01*
X172637800Y-63777600D02*
X172637800Y-62882600D01*
X172637800Y-66352600D02*
X172637800Y-65457600D01*
X172677800Y-63777600D02*
X172677800Y-62857600D01*
X172677800Y-66377600D02*
X172677800Y-65457600D01*
X172717800Y-63777600D02*
X172717800Y-62832600D01*
X172717800Y-66402600D02*
X172717800Y-65457600D01*
X172757800Y-63777600D02*
X172757800Y-62809600D01*
X172757800Y-66425600D02*
X172757800Y-65457600D01*
X172797800Y-63777600D02*
X172797800Y-62787600D01*
X172797800Y-66447600D02*
X172797800Y-65457600D01*
X172837800Y-63777600D02*
X172837800Y-62766600D01*
X172837800Y-66468600D02*
X172837800Y-65457600D01*
X172877800Y-63777600D02*
X172877800Y-62747600D01*
X172877800Y-66487600D02*
X172877800Y-65457600D01*
X172917800Y-63777600D02*
X172917800Y-62728600D01*
X172917800Y-66506600D02*
X172917800Y-65457600D01*
X172957800Y-63777600D02*
X172957800Y-62710600D01*
X172957800Y-66524600D02*
X172957800Y-65457600D01*
X172997800Y-63777600D02*
X172997800Y-62693600D01*
X172997800Y-66541600D02*
X172997800Y-65457600D01*
X173037800Y-63777600D02*
X173037800Y-62677600D01*
X173037800Y-66557600D02*
X173037800Y-65457600D01*
X173077800Y-63777600D02*
X173077800Y-62663600D01*
X173077800Y-66571600D02*
X173077800Y-65457600D01*
X173118800Y-63777600D02*
X173118800Y-62649600D01*
X173118800Y-66585600D02*
X173118800Y-65457600D01*
X173158800Y-63777600D02*
X173158800Y-62635600D01*
X173158800Y-66599600D02*
X173158800Y-65457600D01*
X173198800Y-63777600D02*
X173198800Y-62623600D01*
X173198800Y-66611600D02*
X173198800Y-65457600D01*
X173238800Y-63777600D02*
X173238800Y-62612600D01*
X173238800Y-66622600D02*
X173238800Y-65457600D01*
X173278800Y-63777600D02*
X173278800Y-62601600D01*
X173278800Y-66633600D02*
X173278800Y-65457600D01*
X173318800Y-63777600D02*
X173318800Y-62592600D01*
X173318800Y-66642600D02*
X173318800Y-65457600D01*
X173358800Y-63777600D02*
X173358800Y-62583600D01*
X173358800Y-66651600D02*
X173358800Y-65457600D01*
X173398800Y-63777600D02*
X173398800Y-62575600D01*
X173398800Y-66659600D02*
X173398800Y-65457600D01*
X173438800Y-63777600D02*
X173438800Y-62567600D01*
X173438800Y-66667600D02*
X173438800Y-65457600D01*
X173478800Y-63777600D02*
X173478800Y-62561600D01*
X173478800Y-66673600D02*
X173478800Y-65457600D01*
X173518800Y-63777600D02*
X173518800Y-62555600D01*
X173518800Y-66679600D02*
X173518800Y-65457600D01*
X173558800Y-63777600D02*
X173558800Y-62550600D01*
X173558800Y-66684600D02*
X173558800Y-65457600D01*
X173598800Y-63777600D02*
X173598800Y-62546600D01*
X173598800Y-66688600D02*
X173598800Y-65457600D01*
X173638800Y-63777600D02*
X173638800Y-62543600D01*
X173638800Y-66691600D02*
X173638800Y-65457600D01*
X173678800Y-63777600D02*
X173678800Y-62540600D01*
X173678800Y-66694600D02*
X173678800Y-65457600D01*
X173718800Y-66696600D02*
X173718800Y-65457600D01*
X173718800Y-63777600D02*
X173718800Y-62538600D01*
X173758800Y-66697600D02*
X173758800Y-65457600D01*
X173758800Y-63777600D02*
X173758800Y-62537600D01*
X173798800Y-66697600D02*
X173798800Y-65457600D01*
X173798800Y-63777600D02*
X173798800Y-62537600D01*
X175918800Y-64617600D02*
G75*
G03X175918800Y-64617600I-2120000J0D01*
G01*
X179189500Y-88394000D02*
X179189500Y-89854000D01*
X176029500Y-88394000D02*
X176029500Y-90554000D01*
X176029500Y-88394000D02*
X176959500Y-88394000D01*
X179189500Y-88394000D02*
X178259500Y-88394000D01*
X168595522Y-113160022D02*
G75*
G03X170434000Y-117598500I1838478J-1838478D01*
G01*
X172272478Y-113160022D02*
G75*
G02X170434000Y-117598500I-1838478J-1838478D01*
G01*
X172234000Y-113148500D02*
X168634000Y-113148500D01*
X174018725Y-113527500D02*
X174018725Y-114027500D01*
X173768725Y-113777500D02*
X174268725Y-113777500D01*
X179174500Y-114968500D02*
X179174500Y-115536500D01*
X179134500Y-114734500D02*
X179134500Y-115770500D01*
X179094500Y-114575500D02*
X179094500Y-115929500D01*
X179054500Y-114447500D02*
X179054500Y-116057500D01*
X179014500Y-114337500D02*
X179014500Y-116167500D01*
X178974500Y-114241500D02*
X178974500Y-116263500D01*
X178934500Y-114154500D02*
X178934500Y-116350500D01*
X178894500Y-114074500D02*
X178894500Y-116430500D01*
X178854500Y-116292500D02*
X178854500Y-116503500D01*
X178854500Y-114001500D02*
X178854500Y-114212500D01*
X178814500Y-116292500D02*
X178814500Y-116571500D01*
X178814500Y-113933500D02*
X178814500Y-114212500D01*
X178774500Y-116292500D02*
X178774500Y-116635500D01*
X178774500Y-113869500D02*
X178774500Y-114212500D01*
X178734500Y-116292500D02*
X178734500Y-116695500D01*
X178734500Y-113809500D02*
X178734500Y-114212500D01*
X178694500Y-116292500D02*
X178694500Y-116752500D01*
X178694500Y-113752500D02*
X178694500Y-114212500D01*
X178654500Y-116292500D02*
X178654500Y-116806500D01*
X178654500Y-113698500D02*
X178654500Y-114212500D01*
X178614500Y-116292500D02*
X178614500Y-116857500D01*
X178614500Y-113647500D02*
X178614500Y-114212500D01*
X178574500Y-116292500D02*
X178574500Y-116905500D01*
X178574500Y-113599500D02*
X178574500Y-114212500D01*
X178534500Y-116292500D02*
X178534500Y-116951500D01*
X178534500Y-113553500D02*
X178534500Y-114212500D01*
X178494500Y-116292500D02*
X178494500Y-116995500D01*
X178494500Y-113509500D02*
X178494500Y-114212500D01*
X178454500Y-116292500D02*
X178454500Y-117037500D01*
X178454500Y-113467500D02*
X178454500Y-114212500D01*
X178414500Y-116292500D02*
X178414500Y-117078500D01*
X178414500Y-113426500D02*
X178414500Y-114212500D01*
X178374500Y-116292500D02*
X178374500Y-117116500D01*
X178374500Y-113388500D02*
X178374500Y-114212500D01*
X178334500Y-116292500D02*
X178334500Y-117153500D01*
X178334500Y-113351500D02*
X178334500Y-114212500D01*
X178294500Y-116292500D02*
X178294500Y-117189500D01*
X178294500Y-113315500D02*
X178294500Y-114212500D01*
X178254500Y-116292500D02*
X178254500Y-117223500D01*
X178254500Y-113281500D02*
X178254500Y-114212500D01*
X178214500Y-116292500D02*
X178214500Y-117256500D01*
X178214500Y-113248500D02*
X178214500Y-114212500D01*
X178174500Y-116292500D02*
X178174500Y-117287500D01*
X178174500Y-113217500D02*
X178174500Y-114212500D01*
X178134500Y-116292500D02*
X178134500Y-117317500D01*
X178134500Y-113187500D02*
X178134500Y-114212500D01*
X178094500Y-116292500D02*
X178094500Y-117347500D01*
X178094500Y-113157500D02*
X178094500Y-114212500D01*
X178054500Y-116292500D02*
X178054500Y-117374500D01*
X178054500Y-113130500D02*
X178054500Y-114212500D01*
X178014500Y-116292500D02*
X178014500Y-117401500D01*
X178014500Y-113103500D02*
X178014500Y-114212500D01*
X177974500Y-116292500D02*
X177974500Y-117427500D01*
X177974500Y-113077500D02*
X177974500Y-114212500D01*
X177934500Y-116292500D02*
X177934500Y-117452500D01*
X177934500Y-113052500D02*
X177934500Y-114212500D01*
X177894500Y-116292500D02*
X177894500Y-117476500D01*
X177894500Y-113028500D02*
X177894500Y-114212500D01*
X177854500Y-116292500D02*
X177854500Y-117499500D01*
X177854500Y-113005500D02*
X177854500Y-114212500D01*
X177814500Y-116292500D02*
X177814500Y-117520500D01*
X177814500Y-112984500D02*
X177814500Y-114212500D01*
X177774500Y-116292500D02*
X177774500Y-117542500D01*
X177774500Y-112962500D02*
X177774500Y-114212500D01*
X177734500Y-116292500D02*
X177734500Y-117562500D01*
X177734500Y-112942500D02*
X177734500Y-114212500D01*
X177694500Y-116292500D02*
X177694500Y-117581500D01*
X177694500Y-112923500D02*
X177694500Y-114212500D01*
X177654500Y-116292500D02*
X177654500Y-117600500D01*
X177654500Y-112904500D02*
X177654500Y-114212500D01*
X177614500Y-116292500D02*
X177614500Y-117617500D01*
X177614500Y-112887500D02*
X177614500Y-114212500D01*
X177574500Y-116292500D02*
X177574500Y-117634500D01*
X177574500Y-112870500D02*
X177574500Y-114212500D01*
X177534500Y-116292500D02*
X177534500Y-117650500D01*
X177534500Y-112854500D02*
X177534500Y-114212500D01*
X177494500Y-116292500D02*
X177494500Y-117666500D01*
X177494500Y-112838500D02*
X177494500Y-114212500D01*
X177454500Y-116292500D02*
X177454500Y-117680500D01*
X177454500Y-112824500D02*
X177454500Y-114212500D01*
X177414500Y-116292500D02*
X177414500Y-117694500D01*
X177414500Y-112810500D02*
X177414500Y-114212500D01*
X177374500Y-116292500D02*
X177374500Y-117707500D01*
X177374500Y-112797500D02*
X177374500Y-114212500D01*
X177334500Y-116292500D02*
X177334500Y-117720500D01*
X177334500Y-112784500D02*
X177334500Y-114212500D01*
X177294500Y-116292500D02*
X177294500Y-117732500D01*
X177294500Y-112772500D02*
X177294500Y-114212500D01*
X177253500Y-116292500D02*
X177253500Y-117743500D01*
X177253500Y-112761500D02*
X177253500Y-114212500D01*
X177213500Y-116292500D02*
X177213500Y-117753500D01*
X177213500Y-112751500D02*
X177213500Y-114212500D01*
X177173500Y-116292500D02*
X177173500Y-117763500D01*
X177173500Y-112741500D02*
X177173500Y-114212500D01*
X177133500Y-116292500D02*
X177133500Y-117772500D01*
X177133500Y-112732500D02*
X177133500Y-114212500D01*
X177093500Y-116292500D02*
X177093500Y-117780500D01*
X177093500Y-112724500D02*
X177093500Y-114212500D01*
X177053500Y-116292500D02*
X177053500Y-117788500D01*
X177053500Y-112716500D02*
X177053500Y-114212500D01*
X177013500Y-116292500D02*
X177013500Y-117795500D01*
X177013500Y-112709500D02*
X177013500Y-114212500D01*
X176973500Y-116292500D02*
X176973500Y-117802500D01*
X176973500Y-112702500D02*
X176973500Y-114212500D01*
X176933500Y-116292500D02*
X176933500Y-117808500D01*
X176933500Y-112696500D02*
X176933500Y-114212500D01*
X176893500Y-116292500D02*
X176893500Y-117813500D01*
X176893500Y-112691500D02*
X176893500Y-114212500D01*
X176853500Y-116292500D02*
X176853500Y-117817500D01*
X176853500Y-112687500D02*
X176853500Y-114212500D01*
X176813500Y-116292500D02*
X176813500Y-117821500D01*
X176813500Y-112683500D02*
X176813500Y-114212500D01*
X176773500Y-112679500D02*
X176773500Y-117825500D01*
X176733500Y-112676500D02*
X176733500Y-117828500D01*
X176693500Y-112674500D02*
X176693500Y-117830500D01*
X176653500Y-112673500D02*
X176653500Y-117831500D01*
X176613500Y-112672500D02*
X176613500Y-117832500D01*
X176573500Y-112672500D02*
X176573500Y-117832500D01*
X179193500Y-115252500D02*
G75*
G03X179193500Y-115252500I-2620000J0D01*
G01*
X132200000Y-70980000D02*
X131600000Y-70980000D01*
X147810000Y-70980000D02*
X147200000Y-70980000D01*
X132200000Y-58560000D02*
X131590000Y-58560000D01*
X147810000Y-58670000D02*
X147810000Y-70980000D01*
X131590000Y-58560000D02*
X131590000Y-70980000D01*
X139600000Y-70980000D02*
X137600000Y-70980000D01*
X139600000Y-58560000D02*
X137600000Y-58560000D01*
X190948000Y-112208000D02*
X192278000Y-112208000D01*
X190948000Y-113538000D02*
X190948000Y-112208000D01*
X190948000Y-114808000D02*
X193608000Y-114808000D01*
X193608000Y-114808000D02*
X193608000Y-117408000D01*
X190948000Y-114808000D02*
X190948000Y-117408000D01*
X190948000Y-117408000D02*
X193608000Y-117408000D01*
X194631000Y-112208000D02*
X195961000Y-112208000D01*
X194631000Y-113538000D02*
X194631000Y-112208000D01*
X194631000Y-114808000D02*
X197291000Y-114808000D01*
X197291000Y-114808000D02*
X197291000Y-117408000D01*
X194631000Y-114808000D02*
X194631000Y-117408000D01*
X194631000Y-117408000D02*
X197291000Y-117408000D01*
X139371000Y-54986422D02*
X139371000Y-55503578D01*
X140791000Y-54986422D02*
X140791000Y-55503578D01*
X154884000Y-108710000D02*
X154884000Y-107250000D01*
X158044000Y-108710000D02*
X158044000Y-106550000D01*
X158044000Y-108710000D02*
X157114000Y-108710000D01*
X154884000Y-108710000D02*
X155814000Y-108710000D01*
X159577500Y-110116500D02*
X161037500Y-110116500D01*
X159577500Y-113276500D02*
X161737500Y-113276500D01*
X159577500Y-113276500D02*
X159577500Y-112346500D01*
X159577500Y-110116500D02*
X159577500Y-111046500D01*
X139410221Y-52707000D02*
X139735779Y-52707000D01*
X139410221Y-51687000D02*
X139735779Y-51687000D01*
X142966221Y-53723000D02*
X143291779Y-53723000D01*
X142966221Y-52703000D02*
X143291779Y-52703000D01*
X183024175Y-100139500D02*
X182591162Y-100389500D01*
X182591162Y-99889500D02*
X183024175Y-100139500D01*
X182591162Y-100389500D02*
X182591162Y-99889500D01*
X183485500Y-79114500D02*
X193965500Y-79114500D01*
X183485500Y-110084500D02*
X183485500Y-79114500D01*
X193965500Y-110084500D02*
X183485500Y-110084500D01*
X188606500Y-116209578D02*
X188606500Y-115692422D01*
X187186500Y-116209578D02*
X187186500Y-115692422D01*
X175927500Y-93691000D02*
X175227500Y-93691000D01*
X175227500Y-92491000D02*
X175927500Y-92491000D01*
X136937000Y-73060000D02*
X137637000Y-73060000D01*
X137637000Y-74260000D02*
X136937000Y-74260000D01*
X129595100Y-115054554D02*
G75*
G02X129596000Y-120656000I-4499100J-2801446D01*
G01*
X129596000Y-115056000D02*
G75*
G02X129580337Y-113752277I386922J656604D01*
G01*
X137596000Y-119856000D02*
X135596000Y-121956000D01*
X137596000Y-115856000D02*
X135596000Y-113756000D01*
X137596000Y-119856000D02*
X137596000Y-115856000D01*
X129596000Y-121956000D02*
G75*
G02X129580337Y-120652277I386922J656604D01*
G01*
X129596000Y-113756000D02*
X135596000Y-113756000D01*
X129596000Y-121956000D02*
X135596000Y-121956000D01*
X171669500Y-108649500D02*
X171669500Y-111949500D01*
X171669500Y-111949500D02*
X177069500Y-111949500D01*
X171669500Y-108649500D02*
X177069500Y-108649500D01*
X170303500Y-99171000D02*
G75*
G02X170303500Y-97171000I0J1000000D01*
G01*
X170303500Y-97171000D02*
X170303500Y-95521000D01*
X170303500Y-95521000D02*
X134623500Y-95521000D01*
X134623500Y-95521000D02*
X134623500Y-100821000D01*
X134623500Y-100821000D02*
X170303500Y-100821000D01*
X170303500Y-100821000D02*
X170303500Y-99171000D01*
X162377500Y-108413000D02*
X163377500Y-108413000D01*
X163377500Y-109773000D02*
X162377500Y-109773000D01*
X170239500Y-90271500D02*
X169739500Y-90271500D01*
X169739500Y-91211500D02*
X170239500Y-91211500D01*
X179418500Y-94332500D02*
X180118500Y-94332500D01*
X180118500Y-95532500D02*
X179418500Y-95532500D01*
X150654500Y-92167000D02*
X149954500Y-92167000D01*
X149954500Y-90967000D02*
X150654500Y-90967000D01*
X145192000Y-90967000D02*
X145892000Y-90967000D01*
X145892000Y-92167000D02*
X145192000Y-92167000D01*
X164000500Y-91167500D02*
X163000500Y-91167500D01*
X163000500Y-89807500D02*
X164000500Y-89807500D01*
X163012500Y-87712000D02*
X164012500Y-87712000D01*
X164012500Y-89072000D02*
X163012500Y-89072000D01*
X159149500Y-89844500D02*
X159149500Y-88844500D01*
X160509500Y-88844500D02*
X160509500Y-89844500D01*
X134231000Y-75864000D02*
X133231000Y-75864000D01*
X133231000Y-74504000D02*
X134231000Y-74504000D01*
X169553000Y-86340400D02*
X170553000Y-86340400D01*
X170553000Y-87700400D02*
X169553000Y-87700400D01*
X156091000Y-104476000D02*
X157091000Y-104476000D01*
X157091000Y-105836000D02*
X156091000Y-105836000D01*
X153969000Y-62111000D02*
X153969000Y-63111000D01*
X152609000Y-63111000D02*
X152609000Y-62111000D01*
X137279000Y-105582000D02*
X136279000Y-105582000D01*
X136279000Y-104222000D02*
X137279000Y-104222000D01*
X162896000Y-107053000D02*
X162896000Y-106053000D01*
X164256000Y-106053000D02*
X164256000Y-107053000D01*
X159467000Y-105465500D02*
X159467000Y-104465500D01*
X160827000Y-104465500D02*
X160827000Y-105465500D01*
X167013000Y-105809500D02*
X168013000Y-105809500D01*
X168013000Y-107169500D02*
X167013000Y-107169500D01*
X162478000Y-106053000D02*
X162478000Y-107053000D01*
X161118000Y-107053000D02*
X161118000Y-106053000D01*
X169489500Y-91395000D02*
X170489500Y-91395000D01*
X170489500Y-92755000D02*
X169489500Y-92755000D01*
X174950500Y-94189000D02*
X175950500Y-94189000D01*
X175950500Y-95549000D02*
X174950500Y-95549000D01*
X179141500Y-92411000D02*
X180141500Y-92411000D01*
X180141500Y-93771000D02*
X179141500Y-93771000D01*
X156001000Y-62111000D02*
X156001000Y-63111000D01*
X154641000Y-63111000D02*
X154641000Y-62111000D01*
X159266000Y-108286000D02*
X160266000Y-108286000D01*
X160266000Y-109646000D02*
X159266000Y-109646000D01*
X161054500Y-115879500D02*
X161054500Y-114879500D01*
X162414500Y-114879500D02*
X162414500Y-115879500D01*
D15*
X136421904Y-75222380D02*
X136421904Y-74222380D01*
X136660000Y-74222380D01*
X136802857Y-74270000D01*
X136898095Y-74365238D01*
X136945714Y-74460476D01*
X136993333Y-74650952D01*
X136993333Y-74793809D01*
X136945714Y-74984285D01*
X136898095Y-75079523D01*
X136802857Y-75174761D01*
X136660000Y-75222380D01*
X136421904Y-75222380D01*
X137850476Y-74555714D02*
X137850476Y-75222380D01*
X137612380Y-74174761D02*
X137374285Y-74889047D01*
X137993333Y-74889047D01*
X147832809Y-90940690D02*
X147832809Y-91416880D01*
X147499476Y-90416880D02*
X147832809Y-90940690D01*
X148166142Y-90416880D01*
X149023285Y-91416880D02*
X148451857Y-91416880D01*
X148737571Y-91416880D02*
X148737571Y-90416880D01*
X148642333Y-90559738D01*
X148547095Y-90654976D01*
X148451857Y-90702595D01*
X152204380Y-114807904D02*
X153013904Y-114807904D01*
X153109142Y-114760285D01*
X153156761Y-114712666D01*
X153204380Y-114617428D01*
X153204380Y-114426952D01*
X153156761Y-114331714D01*
X153109142Y-114284095D01*
X153013904Y-114236476D01*
X152204380Y-114236476D01*
X152537714Y-113331714D02*
X153204380Y-113331714D01*
X152156761Y-113569809D02*
X152871047Y-113807904D01*
X152871047Y-113188857D01*
X161309880Y-114680904D02*
X162119404Y-114680904D01*
X162214642Y-114633285D01*
X162262261Y-114585666D01*
X162309880Y-114490428D01*
X162309880Y-114299952D01*
X162262261Y-114204714D01*
X162214642Y-114157095D01*
X162119404Y-114109476D01*
X161309880Y-114109476D01*
X161405119Y-113680904D02*
X161357500Y-113633285D01*
X161309880Y-113538047D01*
X161309880Y-113299952D01*
X161357500Y-113204714D01*
X161405119Y-113157095D01*
X161500357Y-113109476D01*
X161595595Y-113109476D01*
X161738452Y-113157095D01*
X162309880Y-113728523D01*
X162309880Y-113109476D01*
X176212595Y-94975880D02*
X176212595Y-95785404D01*
X176260214Y-95880642D01*
X176307833Y-95928261D01*
X176403071Y-95975880D01*
X176593547Y-95975880D01*
X176688785Y-95928261D01*
X176736404Y-95880642D01*
X176784023Y-95785404D01*
X176784023Y-94975880D01*
X177784023Y-95975880D02*
X177212595Y-95975880D01*
X177498309Y-95975880D02*
X177498309Y-94975880D01*
X177403071Y-95118738D01*
X177307833Y-95213976D01*
X177212595Y-95261595D01*
X186059380Y-113863333D02*
X186773666Y-113863333D01*
X186916523Y-113910952D01*
X187011761Y-114006190D01*
X187059380Y-114149047D01*
X187059380Y-114244285D01*
X187059380Y-113387142D02*
X186059380Y-113387142D01*
X186059380Y-113006190D01*
X186107000Y-112910952D01*
X186154619Y-112863333D01*
X186249857Y-112815714D01*
X186392714Y-112815714D01*
X186487952Y-112863333D01*
X186535571Y-112910952D01*
X186583190Y-113006190D01*
X186583190Y-113387142D01*
X186154619Y-112434761D02*
X186107000Y-112387142D01*
X186059380Y-112291904D01*
X186059380Y-112053809D01*
X186107000Y-111958571D01*
X186154619Y-111910952D01*
X186249857Y-111863333D01*
X186345095Y-111863333D01*
X186487952Y-111910952D01*
X187059380Y-112482380D01*
X187059380Y-111863333D01*
X186059380Y-117546333D02*
X186773666Y-117546333D01*
X186916523Y-117593952D01*
X187011761Y-117689190D01*
X187059380Y-117832047D01*
X187059380Y-117927285D01*
X187059380Y-117070142D02*
X186059380Y-117070142D01*
X186059380Y-116689190D01*
X186107000Y-116593952D01*
X186154619Y-116546333D01*
X186249857Y-116498714D01*
X186392714Y-116498714D01*
X186487952Y-116546333D01*
X186535571Y-116593952D01*
X186583190Y-116689190D01*
X186583190Y-117070142D01*
X187059380Y-115546333D02*
X187059380Y-116117761D01*
X187059380Y-115832047D02*
X186059380Y-115832047D01*
X186202238Y-115927285D01*
X186297476Y-116022523D01*
X186345095Y-116117761D01*
X133270666Y-47280380D02*
X133270666Y-47994666D01*
X133223047Y-48137523D01*
X133127809Y-48232761D01*
X132984952Y-48280380D01*
X132889714Y-48280380D01*
X133651619Y-47280380D02*
X134270666Y-47280380D01*
X133937333Y-47661333D01*
X134080190Y-47661333D01*
X134175428Y-47708952D01*
X134223047Y-47756571D01*
X134270666Y-47851809D01*
X134270666Y-48089904D01*
X134223047Y-48185142D01*
X134175428Y-48232761D01*
X134080190Y-48280380D01*
X133794476Y-48280380D01*
X133699238Y-48232761D01*
X133651619Y-48185142D01*
X173931780Y-55978323D02*
X174646066Y-55978323D01*
X174788923Y-56025942D01*
X174884161Y-56121180D01*
X174931780Y-56264038D01*
X174931780Y-56359276D01*
X174931780Y-54978323D02*
X174931780Y-55549752D01*
X174931780Y-55264038D02*
X173931780Y-55264038D01*
X174074638Y-55359276D01*
X174169876Y-55454514D01*
X174217495Y-55549752D01*
X173931780Y-54073561D02*
X173931780Y-54549752D01*
X174407971Y-54597371D01*
X174360352Y-54549752D01*
X174312733Y-54454514D01*
X174312733Y-54216419D01*
X174360352Y-54121180D01*
X174407971Y-54073561D01*
X174503209Y-54025942D01*
X174741304Y-54025942D01*
X174836542Y-54073561D01*
X174884161Y-54121180D01*
X174931780Y-54216419D01*
X174931780Y-54454514D01*
X174884161Y-54549752D01*
X174836542Y-54597371D01*
X173931780Y-59204123D02*
X174646066Y-59204123D01*
X174788923Y-59251742D01*
X174884161Y-59346980D01*
X174931780Y-59489838D01*
X174931780Y-59585076D01*
X174931780Y-58204123D02*
X174931780Y-58775552D01*
X174931780Y-58489838D02*
X173931780Y-58489838D01*
X174074638Y-58585076D01*
X174169876Y-58680314D01*
X174217495Y-58775552D01*
X174265114Y-57346980D02*
X174931780Y-57346980D01*
X173884161Y-57585076D02*
X174598447Y-57823171D01*
X174598447Y-57204123D01*
X176885695Y-66653180D02*
X176885695Y-67462704D01*
X176933314Y-67557942D01*
X176980933Y-67605561D01*
X177076171Y-67653180D01*
X177266647Y-67653180D01*
X177361885Y-67605561D01*
X177409504Y-67557942D01*
X177457123Y-67462704D01*
X177457123Y-66653180D01*
X178361885Y-66653180D02*
X178171409Y-66653180D01*
X178076171Y-66700800D01*
X178028552Y-66748419D01*
X177933314Y-66891276D01*
X177885695Y-67081752D01*
X177885695Y-67462704D01*
X177933314Y-67557942D01*
X177980933Y-67605561D01*
X178076171Y-67653180D01*
X178266647Y-67653180D01*
X178361885Y-67605561D01*
X178409504Y-67557942D01*
X178457123Y-67462704D01*
X178457123Y-67224609D01*
X178409504Y-67129371D01*
X178361885Y-67081752D01*
X178266647Y-67034133D01*
X178076171Y-67034133D01*
X177980933Y-67081752D01*
X177933314Y-67129371D01*
X177885695Y-67224609D01*
X150695066Y-52603980D02*
X150695066Y-53318266D01*
X150647447Y-53461123D01*
X150552209Y-53556361D01*
X150409352Y-53603980D01*
X150314114Y-53603980D01*
X151076019Y-52603980D02*
X151742685Y-52603980D01*
X151314114Y-53603980D01*
X151203066Y-56312380D02*
X151203066Y-57026666D01*
X151155447Y-57169523D01*
X151060209Y-57264761D01*
X150917352Y-57312380D01*
X150822114Y-57312380D01*
X152107828Y-56312380D02*
X151917352Y-56312380D01*
X151822114Y-56360000D01*
X151774495Y-56407619D01*
X151679257Y-56550476D01*
X151631638Y-56740952D01*
X151631638Y-57121904D01*
X151679257Y-57217142D01*
X151726876Y-57264761D01*
X151822114Y-57312380D01*
X152012590Y-57312380D01*
X152107828Y-57264761D01*
X152155447Y-57217142D01*
X152203066Y-57121904D01*
X152203066Y-56883809D01*
X152155447Y-56788571D01*
X152107828Y-56740952D01*
X152012590Y-56693333D01*
X151822114Y-56693333D01*
X151726876Y-56740952D01*
X151679257Y-56788571D01*
X151631638Y-56883809D01*
D16*
X194959514Y-77618771D02*
X194959514Y-78054200D01*
X194930485Y-78141285D01*
X194872428Y-78199342D01*
X194785342Y-78228371D01*
X194727285Y-78228371D01*
X195569114Y-78228371D02*
X195220771Y-78228371D01*
X195394942Y-78228371D02*
X195394942Y-77618771D01*
X195336885Y-77705857D01*
X195278828Y-77763914D01*
X195220771Y-77792942D01*
X195946485Y-77618771D02*
X196004542Y-77618771D01*
X196062600Y-77647800D01*
X196091628Y-77676828D01*
X196120657Y-77734885D01*
X196149685Y-77851000D01*
X196149685Y-77996142D01*
X196120657Y-78112257D01*
X196091628Y-78170314D01*
X196062600Y-78199342D01*
X196004542Y-78228371D01*
X195946485Y-78228371D01*
X195888428Y-78199342D01*
X195859400Y-78170314D01*
X195830371Y-78112257D01*
X195801342Y-77996142D01*
X195801342Y-77851000D01*
X195830371Y-77734885D01*
X195859400Y-77676828D01*
X195888428Y-77647800D01*
X195946485Y-77618771D01*
X195402200Y-69389171D02*
X195402200Y-69824600D01*
X195373171Y-69911685D01*
X195315114Y-69969742D01*
X195228028Y-69998771D01*
X195169971Y-69998771D01*
X195721514Y-69998771D02*
X195837628Y-69998771D01*
X195895685Y-69969742D01*
X195924714Y-69940714D01*
X195982771Y-69853628D01*
X196011800Y-69737514D01*
X196011800Y-69505285D01*
X195982771Y-69447228D01*
X195953742Y-69418200D01*
X195895685Y-69389171D01*
X195779571Y-69389171D01*
X195721514Y-69418200D01*
X195692485Y-69447228D01*
X195663457Y-69505285D01*
X195663457Y-69650428D01*
X195692485Y-69708485D01*
X195721514Y-69737514D01*
X195779571Y-69766542D01*
X195895685Y-69766542D01*
X195953742Y-69737514D01*
X195982771Y-69708485D01*
X196011800Y-69650428D01*
X195351400Y-61413571D02*
X195351400Y-61849000D01*
X195322371Y-61936085D01*
X195264314Y-61994142D01*
X195177228Y-62023171D01*
X195119171Y-62023171D01*
X195728771Y-61674828D02*
X195670714Y-61645800D01*
X195641685Y-61616771D01*
X195612657Y-61558714D01*
X195612657Y-61529685D01*
X195641685Y-61471628D01*
X195670714Y-61442600D01*
X195728771Y-61413571D01*
X195844885Y-61413571D01*
X195902942Y-61442600D01*
X195931971Y-61471628D01*
X195961000Y-61529685D01*
X195961000Y-61558714D01*
X195931971Y-61616771D01*
X195902942Y-61645800D01*
X195844885Y-61674828D01*
X195728771Y-61674828D01*
X195670714Y-61703857D01*
X195641685Y-61732885D01*
X195612657Y-61790942D01*
X195612657Y-61907057D01*
X195641685Y-61965114D01*
X195670714Y-61994142D01*
X195728771Y-62023171D01*
X195844885Y-62023171D01*
X195902942Y-61994142D01*
X195931971Y-61965114D01*
X195961000Y-61907057D01*
X195961000Y-61790942D01*
X195931971Y-61732885D01*
X195902942Y-61703857D01*
X195844885Y-61674828D01*
D15*
X173215580Y-75725257D02*
X172739390Y-76058590D01*
X173215580Y-76296685D02*
X172215580Y-76296685D01*
X172215580Y-75915733D01*
X172263200Y-75820495D01*
X172310819Y-75772876D01*
X172406057Y-75725257D01*
X172548914Y-75725257D01*
X172644152Y-75772876D01*
X172691771Y-75820495D01*
X172739390Y-75915733D01*
X172739390Y-76296685D01*
X172215580Y-75391923D02*
X172215580Y-74772876D01*
X172596533Y-75106209D01*
X172596533Y-74963352D01*
X172644152Y-74868114D01*
X172691771Y-74820495D01*
X172787009Y-74772876D01*
X173025104Y-74772876D01*
X173120342Y-74820495D01*
X173167961Y-74868114D01*
X173215580Y-74963352D01*
X173215580Y-75249066D01*
X173167961Y-75344304D01*
X173120342Y-75391923D01*
X172215580Y-73915733D02*
X172215580Y-74106209D01*
X172263200Y-74201447D01*
X172310819Y-74249066D01*
X172453676Y-74344304D01*
X172644152Y-74391923D01*
X173025104Y-74391923D01*
X173120342Y-74344304D01*
X173167961Y-74296685D01*
X173215580Y-74201447D01*
X173215580Y-74010971D01*
X173167961Y-73915733D01*
X173120342Y-73868114D01*
X173025104Y-73820495D01*
X172787009Y-73820495D01*
X172691771Y-73868114D01*
X172644152Y-73915733D01*
X172596533Y-74010971D01*
X172596533Y-74201447D01*
X172644152Y-74296685D01*
X172691771Y-74344304D01*
X172787009Y-74391923D01*
X176365180Y-75725257D02*
X175888990Y-76058590D01*
X176365180Y-76296685D02*
X175365180Y-76296685D01*
X175365180Y-75915733D01*
X175412800Y-75820495D01*
X175460419Y-75772876D01*
X175555657Y-75725257D01*
X175698514Y-75725257D01*
X175793752Y-75772876D01*
X175841371Y-75820495D01*
X175888990Y-75915733D01*
X175888990Y-76296685D01*
X175365180Y-75391923D02*
X175365180Y-74772876D01*
X175746133Y-75106209D01*
X175746133Y-74963352D01*
X175793752Y-74868114D01*
X175841371Y-74820495D01*
X175936609Y-74772876D01*
X176174704Y-74772876D01*
X176269942Y-74820495D01*
X176317561Y-74868114D01*
X176365180Y-74963352D01*
X176365180Y-75249066D01*
X176317561Y-75344304D01*
X176269942Y-75391923D01*
X175365180Y-73868114D02*
X175365180Y-74344304D01*
X175841371Y-74391923D01*
X175793752Y-74344304D01*
X175746133Y-74249066D01*
X175746133Y-74010971D01*
X175793752Y-73915733D01*
X175841371Y-73868114D01*
X175936609Y-73820495D01*
X176174704Y-73820495D01*
X176269942Y-73868114D01*
X176317561Y-73915733D01*
X176365180Y-74010971D01*
X176365180Y-74249066D01*
X176317561Y-74344304D01*
X176269942Y-74391923D01*
X174790380Y-75725257D02*
X174314190Y-76058590D01*
X174790380Y-76296685D02*
X173790380Y-76296685D01*
X173790380Y-75915733D01*
X173838000Y-75820495D01*
X173885619Y-75772876D01*
X173980857Y-75725257D01*
X174123714Y-75725257D01*
X174218952Y-75772876D01*
X174266571Y-75820495D01*
X174314190Y-75915733D01*
X174314190Y-76296685D01*
X173790380Y-75391923D02*
X173790380Y-74772876D01*
X174171333Y-75106209D01*
X174171333Y-74963352D01*
X174218952Y-74868114D01*
X174266571Y-74820495D01*
X174361809Y-74772876D01*
X174599904Y-74772876D01*
X174695142Y-74820495D01*
X174742761Y-74868114D01*
X174790380Y-74963352D01*
X174790380Y-75249066D01*
X174742761Y-75344304D01*
X174695142Y-75391923D01*
X173885619Y-74391923D02*
X173838000Y-74344304D01*
X173790380Y-74249066D01*
X173790380Y-74010971D01*
X173838000Y-73915733D01*
X173885619Y-73868114D01*
X173980857Y-73820495D01*
X174076095Y-73820495D01*
X174218952Y-73868114D01*
X174790380Y-74439542D01*
X174790380Y-73820495D01*
X170400742Y-70396380D02*
X170067409Y-69920190D01*
X169829314Y-70396380D02*
X169829314Y-69396380D01*
X170210266Y-69396380D01*
X170305504Y-69444000D01*
X170353123Y-69491619D01*
X170400742Y-69586857D01*
X170400742Y-69729714D01*
X170353123Y-69824952D01*
X170305504Y-69872571D01*
X170210266Y-69920190D01*
X169829314Y-69920190D01*
X170734076Y-69396380D02*
X171353123Y-69396380D01*
X171019790Y-69777333D01*
X171162647Y-69777333D01*
X171257885Y-69824952D01*
X171305504Y-69872571D01*
X171353123Y-69967809D01*
X171353123Y-70205904D01*
X171305504Y-70301142D01*
X171257885Y-70348761D01*
X171162647Y-70396380D01*
X170876933Y-70396380D01*
X170781695Y-70348761D01*
X170734076Y-70301142D01*
X172305504Y-70396380D02*
X171734076Y-70396380D01*
X172019790Y-70396380D02*
X172019790Y-69396380D01*
X171924552Y-69539238D01*
X171829314Y-69634476D01*
X171734076Y-69682095D01*
X169410142Y-88531980D02*
X169076809Y-88055790D01*
X168838714Y-88531980D02*
X168838714Y-87531980D01*
X169219666Y-87531980D01*
X169314904Y-87579600D01*
X169362523Y-87627219D01*
X169410142Y-87722457D01*
X169410142Y-87865314D01*
X169362523Y-87960552D01*
X169314904Y-88008171D01*
X169219666Y-88055790D01*
X168838714Y-88055790D01*
X170362523Y-88531980D02*
X169791095Y-88531980D01*
X170076809Y-88531980D02*
X170076809Y-87531980D01*
X169981571Y-87674838D01*
X169886333Y-87770076D01*
X169791095Y-87817695D01*
X170743476Y-87627219D02*
X170791095Y-87579600D01*
X170886333Y-87531980D01*
X171124428Y-87531980D01*
X171219666Y-87579600D01*
X171267285Y-87627219D01*
X171314904Y-87722457D01*
X171314904Y-87817695D01*
X171267285Y-87960552D01*
X170695857Y-88531980D01*
X171314904Y-88531980D01*
X173155942Y-68224742D02*
X173108323Y-68272361D01*
X172965466Y-68319980D01*
X172870228Y-68319980D01*
X172727371Y-68272361D01*
X172632133Y-68177123D01*
X172584514Y-68081885D01*
X172536895Y-67891409D01*
X172536895Y-67748552D01*
X172584514Y-67558076D01*
X172632133Y-67462838D01*
X172727371Y-67367600D01*
X172870228Y-67319980D01*
X172965466Y-67319980D01*
X173108323Y-67367600D01*
X173155942Y-67415219D01*
X174108323Y-68319980D02*
X173536895Y-68319980D01*
X173822609Y-68319980D02*
X173822609Y-67319980D01*
X173727371Y-67462838D01*
X173632133Y-67558076D01*
X173536895Y-67605695D01*
X174679752Y-67748552D02*
X174584514Y-67700933D01*
X174536895Y-67653314D01*
X174489276Y-67558076D01*
X174489276Y-67510457D01*
X174536895Y-67415219D01*
X174584514Y-67367600D01*
X174679752Y-67319980D01*
X174870228Y-67319980D01*
X174965466Y-67367600D01*
X175013085Y-67415219D01*
X175060704Y-67510457D01*
X175060704Y-67558076D01*
X175013085Y-67653314D01*
X174965466Y-67700933D01*
X174870228Y-67748552D01*
X174679752Y-67748552D01*
X174584514Y-67796171D01*
X174536895Y-67843790D01*
X174489276Y-67939028D01*
X174489276Y-68129504D01*
X174536895Y-68224742D01*
X174584514Y-68272361D01*
X174679752Y-68319980D01*
X174870228Y-68319980D01*
X174965466Y-68272361D01*
X175013085Y-68224742D01*
X175060704Y-68129504D01*
X175060704Y-67939028D01*
X175013085Y-67843790D01*
X174965466Y-67796171D01*
X174870228Y-67748552D01*
X173702742Y-68989542D02*
X173655123Y-69037161D01*
X173512266Y-69084780D01*
X173417028Y-69084780D01*
X173274171Y-69037161D01*
X173178933Y-68941923D01*
X173131314Y-68846685D01*
X173083695Y-68656209D01*
X173083695Y-68513352D01*
X173131314Y-68322876D01*
X173178933Y-68227638D01*
X173274171Y-68132400D01*
X173417028Y-68084780D01*
X173512266Y-68084780D01*
X173655123Y-68132400D01*
X173702742Y-68180019D01*
X174655123Y-69084780D02*
X174083695Y-69084780D01*
X174369409Y-69084780D02*
X174369409Y-68084780D01*
X174274171Y-68227638D01*
X174178933Y-68322876D01*
X174083695Y-68370495D01*
X174988457Y-68084780D02*
X175655123Y-68084780D01*
X175226552Y-69084780D01*
X176529942Y-66784457D02*
X176577561Y-66832076D01*
X176625180Y-66974933D01*
X176625180Y-67070171D01*
X176577561Y-67213028D01*
X176482323Y-67308266D01*
X176387085Y-67355885D01*
X176196609Y-67403504D01*
X176053752Y-67403504D01*
X175863276Y-67355885D01*
X175768038Y-67308266D01*
X175672800Y-67213028D01*
X175625180Y-67070171D01*
X175625180Y-66974933D01*
X175672800Y-66832076D01*
X175720419Y-66784457D01*
X176625180Y-65832076D02*
X176625180Y-66403504D01*
X176625180Y-66117790D02*
X175625180Y-66117790D01*
X175768038Y-66213028D01*
X175863276Y-66308266D01*
X175910895Y-66403504D01*
X175625180Y-64974933D02*
X175625180Y-65165409D01*
X175672800Y-65260647D01*
X175720419Y-65308266D01*
X175863276Y-65403504D01*
X176053752Y-65451123D01*
X176434704Y-65451123D01*
X176529942Y-65403504D01*
X176577561Y-65355885D01*
X176625180Y-65260647D01*
X176625180Y-65070171D01*
X176577561Y-64974933D01*
X176529942Y-64927314D01*
X176434704Y-64879695D01*
X176196609Y-64879695D01*
X176101371Y-64927314D01*
X176053752Y-64974933D01*
X176006133Y-65070171D01*
X176006133Y-65260647D01*
X176053752Y-65355885D01*
X176101371Y-65403504D01*
X176196609Y-65451123D01*
X175463142Y-67546457D02*
X175510761Y-67594076D01*
X175558380Y-67736933D01*
X175558380Y-67832171D01*
X175510761Y-67975028D01*
X175415523Y-68070266D01*
X175320285Y-68117885D01*
X175129809Y-68165504D01*
X174986952Y-68165504D01*
X174796476Y-68117885D01*
X174701238Y-68070266D01*
X174606000Y-67975028D01*
X174558380Y-67832171D01*
X174558380Y-67736933D01*
X174606000Y-67594076D01*
X174653619Y-67546457D01*
X175558380Y-66594076D02*
X175558380Y-67165504D01*
X175558380Y-66879790D02*
X174558380Y-66879790D01*
X174701238Y-66975028D01*
X174796476Y-67070266D01*
X174844095Y-67165504D01*
X174558380Y-65689314D02*
X174558380Y-66165504D01*
X175034571Y-66213123D01*
X174986952Y-66165504D01*
X174939333Y-66070266D01*
X174939333Y-65832171D01*
X174986952Y-65736933D01*
X175034571Y-65689314D01*
X175129809Y-65641695D01*
X175367904Y-65641695D01*
X175463142Y-65689314D01*
X175510761Y-65736933D01*
X175558380Y-65832171D01*
X175558380Y-66070266D01*
X175510761Y-66165504D01*
X175463142Y-66213123D01*
X177749142Y-66968666D02*
X177796761Y-67016285D01*
X177844380Y-67159142D01*
X177844380Y-67254380D01*
X177796761Y-67397238D01*
X177701523Y-67492476D01*
X177606285Y-67540095D01*
X177415809Y-67587714D01*
X177272952Y-67587714D01*
X177082476Y-67540095D01*
X176987238Y-67492476D01*
X176892000Y-67397238D01*
X176844380Y-67254380D01*
X176844380Y-67159142D01*
X176892000Y-67016285D01*
X176939619Y-66968666D01*
X177844380Y-66492476D02*
X177844380Y-66302000D01*
X177796761Y-66206761D01*
X177749142Y-66159142D01*
X177606285Y-66063904D01*
X177415809Y-66016285D01*
X177034857Y-66016285D01*
X176939619Y-66063904D01*
X176892000Y-66111523D01*
X176844380Y-66206761D01*
X176844380Y-66397238D01*
X176892000Y-66492476D01*
X176939619Y-66540095D01*
X177034857Y-66587714D01*
X177272952Y-66587714D01*
X177368190Y-66540095D01*
X177415809Y-66492476D01*
X177463428Y-66397238D01*
X177463428Y-66206761D01*
X177415809Y-66111523D01*
X177368190Y-66063904D01*
X177272952Y-66016285D01*
X175657119Y-89249238D02*
X175609500Y-89344476D01*
X175514261Y-89439714D01*
X175371404Y-89582571D01*
X175323785Y-89677809D01*
X175323785Y-89773047D01*
X175561880Y-89725428D02*
X175514261Y-89820666D01*
X175419023Y-89915904D01*
X175228547Y-89963523D01*
X174895214Y-89963523D01*
X174704738Y-89915904D01*
X174609500Y-89820666D01*
X174561880Y-89725428D01*
X174561880Y-89534952D01*
X174609500Y-89439714D01*
X174704738Y-89344476D01*
X174895214Y-89296857D01*
X175228547Y-89296857D01*
X175419023Y-89344476D01*
X175514261Y-89439714D01*
X175561880Y-89534952D01*
X175561880Y-89725428D01*
X174561880Y-88963523D02*
X174561880Y-88296857D01*
X175561880Y-88725428D01*
X169672095Y-118010880D02*
X169672095Y-118820404D01*
X169719714Y-118915642D01*
X169767333Y-118963261D01*
X169862571Y-119010880D01*
X170053047Y-119010880D01*
X170148285Y-118963261D01*
X170195904Y-118915642D01*
X170243523Y-118820404D01*
X170243523Y-118010880D01*
X170624476Y-118010880D02*
X171243523Y-118010880D01*
X170910190Y-118391833D01*
X171053047Y-118391833D01*
X171148285Y-118439452D01*
X171195904Y-118487071D01*
X171243523Y-118582309D01*
X171243523Y-118820404D01*
X171195904Y-118915642D01*
X171148285Y-118963261D01*
X171053047Y-119010880D01*
X170767333Y-119010880D01*
X170672095Y-118963261D01*
X170624476Y-118915642D01*
X187698142Y-112217142D02*
X187650523Y-112264761D01*
X187507666Y-112312380D01*
X187412428Y-112312380D01*
X187269571Y-112264761D01*
X187174333Y-112169523D01*
X187126714Y-112074285D01*
X187079095Y-111883809D01*
X187079095Y-111740952D01*
X187126714Y-111550476D01*
X187174333Y-111455238D01*
X187269571Y-111360000D01*
X187412428Y-111312380D01*
X187507666Y-111312380D01*
X187650523Y-111360000D01*
X187698142Y-111407619D01*
X188650523Y-112312380D02*
X188079095Y-112312380D01*
X188364809Y-112312380D02*
X188364809Y-111312380D01*
X188269571Y-111455238D01*
X188174333Y-111550476D01*
X188079095Y-111598095D01*
X189269571Y-111312380D02*
X189364809Y-111312380D01*
X189460047Y-111360000D01*
X189507666Y-111407619D01*
X189555285Y-111502857D01*
X189602904Y-111693333D01*
X189602904Y-111931428D01*
X189555285Y-112121904D01*
X189507666Y-112217142D01*
X189460047Y-112264761D01*
X189364809Y-112312380D01*
X189269571Y-112312380D01*
X189174333Y-112264761D01*
X189126714Y-112217142D01*
X189079095Y-112121904D01*
X189031476Y-111931428D01*
X189031476Y-111693333D01*
X189079095Y-111502857D01*
X189126714Y-111407619D01*
X189174333Y-111360000D01*
X189269571Y-111312380D01*
X169092642Y-111010642D02*
X169045023Y-111058261D01*
X168902166Y-111105880D01*
X168806928Y-111105880D01*
X168664071Y-111058261D01*
X168568833Y-110963023D01*
X168521214Y-110867785D01*
X168473595Y-110677309D01*
X168473595Y-110534452D01*
X168521214Y-110343976D01*
X168568833Y-110248738D01*
X168664071Y-110153500D01*
X168806928Y-110105880D01*
X168902166Y-110105880D01*
X169045023Y-110153500D01*
X169092642Y-110201119D01*
X170045023Y-111105880D02*
X169473595Y-111105880D01*
X169759309Y-111105880D02*
X169759309Y-110105880D01*
X169664071Y-110248738D01*
X169568833Y-110343976D01*
X169473595Y-110391595D01*
X170378357Y-110105880D02*
X170997404Y-110105880D01*
X170664071Y-110486833D01*
X170806928Y-110486833D01*
X170902166Y-110534452D01*
X170949785Y-110582071D01*
X170997404Y-110677309D01*
X170997404Y-110915404D01*
X170949785Y-111010642D01*
X170902166Y-111058261D01*
X170806928Y-111105880D01*
X170521214Y-111105880D01*
X170425976Y-111058261D01*
X170378357Y-111010642D01*
X175930642Y-111859642D02*
X175883023Y-111907261D01*
X175740166Y-111954880D01*
X175644928Y-111954880D01*
X175502071Y-111907261D01*
X175406833Y-111812023D01*
X175359214Y-111716785D01*
X175311595Y-111526309D01*
X175311595Y-111383452D01*
X175359214Y-111192976D01*
X175406833Y-111097738D01*
X175502071Y-111002500D01*
X175644928Y-110954880D01*
X175740166Y-110954880D01*
X175883023Y-111002500D01*
X175930642Y-111050119D01*
X176883023Y-111954880D02*
X176311595Y-111954880D01*
X176597309Y-111954880D02*
X176597309Y-110954880D01*
X176502071Y-111097738D01*
X176406833Y-111192976D01*
X176311595Y-111240595D01*
X177263976Y-111050119D02*
X177311595Y-111002500D01*
X177406833Y-110954880D01*
X177644928Y-110954880D01*
X177740166Y-111002500D01*
X177787785Y-111050119D01*
X177835404Y-111145357D01*
X177835404Y-111240595D01*
X177787785Y-111383452D01*
X177216357Y-111954880D01*
X177835404Y-111954880D01*
X147026333Y-71831142D02*
X146978714Y-71878761D01*
X146835857Y-71926380D01*
X146740619Y-71926380D01*
X146597761Y-71878761D01*
X146502523Y-71783523D01*
X146454904Y-71688285D01*
X146407285Y-71497809D01*
X146407285Y-71354952D01*
X146454904Y-71164476D01*
X146502523Y-71069238D01*
X146597761Y-70974000D01*
X146740619Y-70926380D01*
X146835857Y-70926380D01*
X146978714Y-70974000D01*
X147026333Y-71021619D01*
X147931095Y-70926380D02*
X147454904Y-70926380D01*
X147407285Y-71402571D01*
X147454904Y-71354952D01*
X147550142Y-71307333D01*
X147788238Y-71307333D01*
X147883476Y-71354952D01*
X147931095Y-71402571D01*
X147978714Y-71497809D01*
X147978714Y-71735904D01*
X147931095Y-71831142D01*
X147883476Y-71878761D01*
X147788238Y-71926380D01*
X147550142Y-71926380D01*
X147454904Y-71878761D01*
X147407285Y-71831142D01*
X135194642Y-105005166D02*
X135242261Y-105052785D01*
X135289880Y-105195642D01*
X135289880Y-105290880D01*
X135242261Y-105433738D01*
X135147023Y-105528976D01*
X135051785Y-105576595D01*
X134861309Y-105624214D01*
X134718452Y-105624214D01*
X134527976Y-105576595D01*
X134432738Y-105528976D01*
X134337500Y-105433738D01*
X134289880Y-105290880D01*
X134289880Y-105195642D01*
X134337500Y-105052785D01*
X134385119Y-105005166D01*
X134385119Y-104624214D02*
X134337500Y-104576595D01*
X134289880Y-104481357D01*
X134289880Y-104243261D01*
X134337500Y-104148023D01*
X134385119Y-104100404D01*
X134480357Y-104052785D01*
X134575595Y-104052785D01*
X134718452Y-104100404D01*
X135289880Y-104671833D01*
X135289880Y-104052785D01*
X148152380Y-65531904D02*
X148961904Y-65531904D01*
X149057142Y-65484285D01*
X149104761Y-65436666D01*
X149152380Y-65341428D01*
X149152380Y-65150952D01*
X149104761Y-65055714D01*
X149057142Y-65008095D01*
X148961904Y-64960476D01*
X148152380Y-64960476D01*
X148152380Y-64008095D02*
X148152380Y-64484285D01*
X148628571Y-64531904D01*
X148580952Y-64484285D01*
X148533333Y-64389047D01*
X148533333Y-64150952D01*
X148580952Y-64055714D01*
X148628571Y-64008095D01*
X148723809Y-63960476D01*
X148961904Y-63960476D01*
X149057142Y-64008095D01*
X149104761Y-64055714D01*
X149152380Y-64150952D01*
X149152380Y-64389047D01*
X149104761Y-64484285D01*
X149057142Y-64531904D01*
X190944666Y-111612761D02*
X191087523Y-111660380D01*
X191325619Y-111660380D01*
X191420857Y-111612761D01*
X191468476Y-111565142D01*
X191516095Y-111469904D01*
X191516095Y-111374666D01*
X191468476Y-111279428D01*
X191420857Y-111231809D01*
X191325619Y-111184190D01*
X191135142Y-111136571D01*
X191039904Y-111088952D01*
X190992285Y-111041333D01*
X190944666Y-110946095D01*
X190944666Y-110850857D01*
X190992285Y-110755619D01*
X191039904Y-110708000D01*
X191135142Y-110660380D01*
X191373238Y-110660380D01*
X191516095Y-110708000D01*
X191849428Y-110660380D02*
X192087523Y-111660380D01*
X192278000Y-110946095D01*
X192468476Y-111660380D01*
X192706571Y-110660380D01*
X193039904Y-110755619D02*
X193087523Y-110708000D01*
X193182761Y-110660380D01*
X193420857Y-110660380D01*
X193516095Y-110708000D01*
X193563714Y-110755619D01*
X193611333Y-110850857D01*
X193611333Y-110946095D01*
X193563714Y-111088952D01*
X192992285Y-111660380D01*
X193611333Y-111660380D01*
X194627666Y-111612761D02*
X194770523Y-111660380D01*
X195008619Y-111660380D01*
X195103857Y-111612761D01*
X195151476Y-111565142D01*
X195199095Y-111469904D01*
X195199095Y-111374666D01*
X195151476Y-111279428D01*
X195103857Y-111231809D01*
X195008619Y-111184190D01*
X194818142Y-111136571D01*
X194722904Y-111088952D01*
X194675285Y-111041333D01*
X194627666Y-110946095D01*
X194627666Y-110850857D01*
X194675285Y-110755619D01*
X194722904Y-110708000D01*
X194818142Y-110660380D01*
X195056238Y-110660380D01*
X195199095Y-110708000D01*
X195532428Y-110660380D02*
X195770523Y-111660380D01*
X195961000Y-110946095D01*
X196151476Y-111660380D01*
X196389571Y-110660380D01*
X197294333Y-111660380D02*
X196722904Y-111660380D01*
X197008619Y-111660380D02*
X197008619Y-110660380D01*
X196913380Y-110803238D01*
X196818142Y-110898476D01*
X196722904Y-110946095D01*
X142183380Y-55411666D02*
X141707190Y-55745000D01*
X142183380Y-55983095D02*
X141183380Y-55983095D01*
X141183380Y-55602142D01*
X141231000Y-55506904D01*
X141278619Y-55459285D01*
X141373857Y-55411666D01*
X141516714Y-55411666D01*
X141611952Y-55459285D01*
X141659571Y-55506904D01*
X141707190Y-55602142D01*
X141707190Y-55983095D01*
X142183380Y-54459285D02*
X142183380Y-55030714D01*
X142183380Y-54745000D02*
X141183380Y-54745000D01*
X141326238Y-54840238D01*
X141421476Y-54935476D01*
X141469095Y-55030714D01*
X159511619Y-108045238D02*
X159464000Y-108140476D01*
X159368761Y-108235714D01*
X159225904Y-108378571D01*
X159178285Y-108473809D01*
X159178285Y-108569047D01*
X159416380Y-108521428D02*
X159368761Y-108616666D01*
X159273523Y-108711904D01*
X159083047Y-108759523D01*
X158749714Y-108759523D01*
X158559238Y-108711904D01*
X158464000Y-108616666D01*
X158416380Y-108521428D01*
X158416380Y-108330952D01*
X158464000Y-108235714D01*
X158559238Y-108140476D01*
X158749714Y-108092857D01*
X159083047Y-108092857D01*
X159273523Y-108140476D01*
X159368761Y-108235714D01*
X159416380Y-108330952D01*
X159416380Y-108521428D01*
X158749714Y-107235714D02*
X159416380Y-107235714D01*
X158368761Y-107473809D02*
X159083047Y-107711904D01*
X159083047Y-107092857D01*
X160242261Y-114744119D02*
X160147023Y-114696500D01*
X160051785Y-114601261D01*
X159908928Y-114458404D01*
X159813690Y-114410785D01*
X159718452Y-114410785D01*
X159766071Y-114648880D02*
X159670833Y-114601261D01*
X159575595Y-114506023D01*
X159527976Y-114315547D01*
X159527976Y-113982214D01*
X159575595Y-113791738D01*
X159670833Y-113696500D01*
X159766071Y-113648880D01*
X159956547Y-113648880D01*
X160051785Y-113696500D01*
X160147023Y-113791738D01*
X160194642Y-113982214D01*
X160194642Y-114315547D01*
X160147023Y-114506023D01*
X160051785Y-114601261D01*
X159956547Y-114648880D01*
X159766071Y-114648880D01*
X160575595Y-113744119D02*
X160623214Y-113696500D01*
X160718452Y-113648880D01*
X160956547Y-113648880D01*
X161051785Y-113696500D01*
X161099404Y-113744119D01*
X161147023Y-113839357D01*
X161147023Y-113934595D01*
X161099404Y-114077452D01*
X160527976Y-114648880D01*
X161147023Y-114648880D01*
X139406333Y-51219380D02*
X138930142Y-51219380D01*
X138930142Y-50219380D01*
X140263476Y-51219380D02*
X139692047Y-51219380D01*
X139977761Y-51219380D02*
X139977761Y-50219380D01*
X139882523Y-50362238D01*
X139787285Y-50457476D01*
X139692047Y-50505095D01*
X142962333Y-52140142D02*
X142914714Y-52187761D01*
X142771857Y-52235380D01*
X142676619Y-52235380D01*
X142533761Y-52187761D01*
X142438523Y-52092523D01*
X142390904Y-51997285D01*
X142343285Y-51806809D01*
X142343285Y-51663952D01*
X142390904Y-51473476D01*
X142438523Y-51378238D01*
X142533761Y-51283000D01*
X142676619Y-51235380D01*
X142771857Y-51235380D01*
X142914714Y-51283000D01*
X142962333Y-51330619D01*
X143914714Y-52235380D02*
X143343285Y-52235380D01*
X143629000Y-52235380D02*
X143629000Y-51235380D01*
X143533761Y-51378238D01*
X143438523Y-51473476D01*
X143343285Y-51521095D01*
X181997880Y-94932833D02*
X182712166Y-94932833D01*
X182855023Y-94980452D01*
X182950261Y-95075690D01*
X182997880Y-95218547D01*
X182997880Y-95313785D01*
X182331214Y-94028071D02*
X182997880Y-94028071D01*
X181950261Y-94266166D02*
X182664547Y-94504261D01*
X182664547Y-93885214D01*
X186603642Y-116593857D02*
X186651261Y-116641476D01*
X186698880Y-116784333D01*
X186698880Y-116879571D01*
X186651261Y-117022428D01*
X186556023Y-117117666D01*
X186460785Y-117165285D01*
X186270309Y-117212904D01*
X186127452Y-117212904D01*
X185936976Y-117165285D01*
X185841738Y-117117666D01*
X185746500Y-117022428D01*
X185698880Y-116879571D01*
X185698880Y-116784333D01*
X185746500Y-116641476D01*
X185794119Y-116593857D01*
X186698880Y-115641476D02*
X186698880Y-116212904D01*
X186698880Y-115927190D02*
X185698880Y-115927190D01*
X185841738Y-116022428D01*
X185936976Y-116117666D01*
X185984595Y-116212904D01*
X186698880Y-114689095D02*
X186698880Y-115260523D01*
X186698880Y-114974809D02*
X185698880Y-114974809D01*
X185841738Y-115070047D01*
X185936976Y-115165285D01*
X185984595Y-115260523D01*
X175410833Y-91948142D02*
X175363214Y-91995761D01*
X175220357Y-92043380D01*
X175125119Y-92043380D01*
X174982261Y-91995761D01*
X174887023Y-91900523D01*
X174839404Y-91805285D01*
X174791785Y-91614809D01*
X174791785Y-91471952D01*
X174839404Y-91281476D01*
X174887023Y-91186238D01*
X174982261Y-91091000D01*
X175125119Y-91043380D01*
X175220357Y-91043380D01*
X175363214Y-91091000D01*
X175410833Y-91138619D01*
X176267976Y-91376714D02*
X176267976Y-92043380D01*
X176029880Y-90995761D02*
X175791785Y-91710047D01*
X176410833Y-91710047D01*
X136644142Y-75517142D02*
X136596523Y-75564761D01*
X136453666Y-75612380D01*
X136358428Y-75612380D01*
X136215571Y-75564761D01*
X136120333Y-75469523D01*
X136072714Y-75374285D01*
X136025095Y-75183809D01*
X136025095Y-75040952D01*
X136072714Y-74850476D01*
X136120333Y-74755238D01*
X136215571Y-74660000D01*
X136358428Y-74612380D01*
X136453666Y-74612380D01*
X136596523Y-74660000D01*
X136644142Y-74707619D01*
X137596523Y-75612380D02*
X137025095Y-75612380D01*
X137310809Y-75612380D02*
X137310809Y-74612380D01*
X137215571Y-74755238D01*
X137120333Y-74850476D01*
X137025095Y-74898095D01*
X138453666Y-74945714D02*
X138453666Y-75612380D01*
X138215571Y-74564761D02*
X137977476Y-75279047D01*
X138596523Y-75279047D01*
X128824571Y-118641714D02*
X128872190Y-118498857D01*
X128919809Y-118451238D01*
X129015047Y-118403619D01*
X129157904Y-118403619D01*
X129253142Y-118451238D01*
X129300761Y-118498857D01*
X129348380Y-118594095D01*
X129348380Y-118975047D01*
X128348380Y-118975047D01*
X128348380Y-118641714D01*
X128396000Y-118546476D01*
X128443619Y-118498857D01*
X128538857Y-118451238D01*
X128634095Y-118451238D01*
X128729333Y-118498857D01*
X128776952Y-118546476D01*
X128824571Y-118641714D01*
X128824571Y-118975047D01*
X128348380Y-118117904D02*
X128348380Y-117546476D01*
X129348380Y-117832190D02*
X128348380Y-117832190D01*
X129348380Y-116689333D02*
X129348380Y-117260761D01*
X129348380Y-116975047D02*
X128348380Y-116975047D01*
X128491238Y-117070285D01*
X128586476Y-117165523D01*
X128634095Y-117260761D01*
X174331404Y-108251880D02*
X174331404Y-107251880D01*
X174569500Y-107251880D01*
X174712357Y-107299500D01*
X174807595Y-107394738D01*
X174855214Y-107489976D01*
X174902833Y-107680452D01*
X174902833Y-107823309D01*
X174855214Y-108013785D01*
X174807595Y-108109023D01*
X174712357Y-108204261D01*
X174569500Y-108251880D01*
X174331404Y-108251880D01*
X175236166Y-107251880D02*
X175855214Y-107251880D01*
X175521880Y-107632833D01*
X175664738Y-107632833D01*
X175759976Y-107680452D01*
X175807595Y-107728071D01*
X175855214Y-107823309D01*
X175855214Y-108061404D01*
X175807595Y-108156642D01*
X175759976Y-108204261D01*
X175664738Y-108251880D01*
X175379023Y-108251880D01*
X175283785Y-108204261D01*
X175236166Y-108156642D01*
X171755880Y-99147190D02*
X170755880Y-99147190D01*
X171660642Y-98099571D02*
X171708261Y-98147190D01*
X171755880Y-98290047D01*
X171755880Y-98385285D01*
X171708261Y-98528142D01*
X171613023Y-98623380D01*
X171517785Y-98671000D01*
X171327309Y-98718619D01*
X171184452Y-98718619D01*
X170993976Y-98671000D01*
X170898738Y-98623380D01*
X170803500Y-98528142D01*
X170755880Y-98385285D01*
X170755880Y-98290047D01*
X170803500Y-98147190D01*
X170851119Y-98099571D01*
X170851119Y-97718619D02*
X170803500Y-97671000D01*
X170755880Y-97575761D01*
X170755880Y-97337666D01*
X170803500Y-97242428D01*
X170851119Y-97194809D01*
X170946357Y-97147190D01*
X171041595Y-97147190D01*
X171184452Y-97194809D01*
X171755880Y-97766238D01*
X171755880Y-97147190D01*
X162710833Y-110995380D02*
X162377500Y-110519190D01*
X162139404Y-110995380D02*
X162139404Y-109995380D01*
X162520357Y-109995380D01*
X162615595Y-110043000D01*
X162663214Y-110090619D01*
X162710833Y-110185857D01*
X162710833Y-110328714D01*
X162663214Y-110423952D01*
X162615595Y-110471571D01*
X162520357Y-110519190D01*
X162139404Y-110519190D01*
X163187023Y-110995380D02*
X163377500Y-110995380D01*
X163472738Y-110947761D01*
X163520357Y-110900142D01*
X163615595Y-110757285D01*
X163663214Y-110566809D01*
X163663214Y-110185857D01*
X163615595Y-110090619D01*
X163567976Y-110043000D01*
X163472738Y-109995380D01*
X163282261Y-109995380D01*
X163187023Y-110043000D01*
X163139404Y-110090619D01*
X163091785Y-110185857D01*
X163091785Y-110423952D01*
X163139404Y-110519190D01*
X163187023Y-110566809D01*
X163282261Y-110614428D01*
X163472738Y-110614428D01*
X163567976Y-110566809D01*
X163615595Y-110519190D01*
X163663214Y-110423952D01*
X169822833Y-89828642D02*
X169775214Y-89876261D01*
X169632357Y-89923880D01*
X169537119Y-89923880D01*
X169394261Y-89876261D01*
X169299023Y-89781023D01*
X169251404Y-89685785D01*
X169203785Y-89495309D01*
X169203785Y-89352452D01*
X169251404Y-89161976D01*
X169299023Y-89066738D01*
X169394261Y-88971500D01*
X169537119Y-88923880D01*
X169632357Y-88923880D01*
X169775214Y-88971500D01*
X169822833Y-89019119D01*
X170394261Y-89352452D02*
X170299023Y-89304833D01*
X170251404Y-89257214D01*
X170203785Y-89161976D01*
X170203785Y-89114357D01*
X170251404Y-89019119D01*
X170299023Y-88971500D01*
X170394261Y-88923880D01*
X170584738Y-88923880D01*
X170679976Y-88971500D01*
X170727595Y-89019119D01*
X170775214Y-89114357D01*
X170775214Y-89161976D01*
X170727595Y-89257214D01*
X170679976Y-89304833D01*
X170584738Y-89352452D01*
X170394261Y-89352452D01*
X170299023Y-89400071D01*
X170251404Y-89447690D01*
X170203785Y-89542928D01*
X170203785Y-89733404D01*
X170251404Y-89828642D01*
X170299023Y-89876261D01*
X170394261Y-89923880D01*
X170584738Y-89923880D01*
X170679976Y-89876261D01*
X170727595Y-89828642D01*
X170775214Y-89733404D01*
X170775214Y-89542928D01*
X170727595Y-89447690D01*
X170679976Y-89400071D01*
X170584738Y-89352452D01*
X179601833Y-96789642D02*
X179554214Y-96837261D01*
X179411357Y-96884880D01*
X179316119Y-96884880D01*
X179173261Y-96837261D01*
X179078023Y-96742023D01*
X179030404Y-96646785D01*
X178982785Y-96456309D01*
X178982785Y-96313452D01*
X179030404Y-96122976D01*
X179078023Y-96027738D01*
X179173261Y-95932500D01*
X179316119Y-95884880D01*
X179411357Y-95884880D01*
X179554214Y-95932500D01*
X179601833Y-95980119D01*
X179935166Y-95884880D02*
X180554214Y-95884880D01*
X180220880Y-96265833D01*
X180363738Y-96265833D01*
X180458976Y-96313452D01*
X180506595Y-96361071D01*
X180554214Y-96456309D01*
X180554214Y-96694404D01*
X180506595Y-96789642D01*
X180458976Y-96837261D01*
X180363738Y-96884880D01*
X180078023Y-96884880D01*
X179982785Y-96837261D01*
X179935166Y-96789642D01*
X150137833Y-90424142D02*
X150090214Y-90471761D01*
X149947357Y-90519380D01*
X149852119Y-90519380D01*
X149709261Y-90471761D01*
X149614023Y-90376523D01*
X149566404Y-90281285D01*
X149518785Y-90090809D01*
X149518785Y-89947952D01*
X149566404Y-89757476D01*
X149614023Y-89662238D01*
X149709261Y-89567000D01*
X149852119Y-89519380D01*
X149947357Y-89519380D01*
X150090214Y-89567000D01*
X150137833Y-89614619D01*
X150994976Y-89519380D02*
X150804500Y-89519380D01*
X150709261Y-89567000D01*
X150661642Y-89614619D01*
X150566404Y-89757476D01*
X150518785Y-89947952D01*
X150518785Y-90328904D01*
X150566404Y-90424142D01*
X150614023Y-90471761D01*
X150709261Y-90519380D01*
X150899738Y-90519380D01*
X150994976Y-90471761D01*
X151042595Y-90424142D01*
X151090214Y-90328904D01*
X151090214Y-90090809D01*
X151042595Y-89995571D01*
X150994976Y-89947952D01*
X150899738Y-89900333D01*
X150709261Y-89900333D01*
X150614023Y-89947952D01*
X150566404Y-89995571D01*
X150518785Y-90090809D01*
X145375333Y-93424142D02*
X145327714Y-93471761D01*
X145184857Y-93519380D01*
X145089619Y-93519380D01*
X144946761Y-93471761D01*
X144851523Y-93376523D01*
X144803904Y-93281285D01*
X144756285Y-93090809D01*
X144756285Y-92947952D01*
X144803904Y-92757476D01*
X144851523Y-92662238D01*
X144946761Y-92567000D01*
X145089619Y-92519380D01*
X145184857Y-92519380D01*
X145327714Y-92567000D01*
X145375333Y-92614619D01*
X145708666Y-92519380D02*
X146375333Y-92519380D01*
X145946761Y-93519380D01*
X162857642Y-89489880D02*
X162524309Y-89013690D01*
X162286214Y-89489880D02*
X162286214Y-88489880D01*
X162667166Y-88489880D01*
X162762404Y-88537500D01*
X162810023Y-88585119D01*
X162857642Y-88680357D01*
X162857642Y-88823214D01*
X162810023Y-88918452D01*
X162762404Y-88966071D01*
X162667166Y-89013690D01*
X162286214Y-89013690D01*
X163238595Y-88585119D02*
X163286214Y-88537500D01*
X163381452Y-88489880D01*
X163619547Y-88489880D01*
X163714785Y-88537500D01*
X163762404Y-88585119D01*
X163810023Y-88680357D01*
X163810023Y-88775595D01*
X163762404Y-88918452D01*
X163190976Y-89489880D01*
X163810023Y-89489880D01*
X164714785Y-88489880D02*
X164238595Y-88489880D01*
X164190976Y-88966071D01*
X164238595Y-88918452D01*
X164333833Y-88870833D01*
X164571928Y-88870833D01*
X164667166Y-88918452D01*
X164714785Y-88966071D01*
X164762404Y-89061309D01*
X164762404Y-89299404D01*
X164714785Y-89394642D01*
X164667166Y-89442261D01*
X164571928Y-89489880D01*
X164333833Y-89489880D01*
X164238595Y-89442261D01*
X164190976Y-89394642D01*
X162869642Y-90294380D02*
X162536309Y-89818190D01*
X162298214Y-90294380D02*
X162298214Y-89294380D01*
X162679166Y-89294380D01*
X162774404Y-89342000D01*
X162822023Y-89389619D01*
X162869642Y-89484857D01*
X162869642Y-89627714D01*
X162822023Y-89722952D01*
X162774404Y-89770571D01*
X162679166Y-89818190D01*
X162298214Y-89818190D01*
X163250595Y-89389619D02*
X163298214Y-89342000D01*
X163393452Y-89294380D01*
X163631547Y-89294380D01*
X163726785Y-89342000D01*
X163774404Y-89389619D01*
X163822023Y-89484857D01*
X163822023Y-89580095D01*
X163774404Y-89722952D01*
X163202976Y-90294380D01*
X163822023Y-90294380D01*
X164679166Y-89294380D02*
X164488690Y-89294380D01*
X164393452Y-89342000D01*
X164345833Y-89389619D01*
X164250595Y-89532476D01*
X164202976Y-89722952D01*
X164202976Y-90103904D01*
X164250595Y-90199142D01*
X164298214Y-90246761D01*
X164393452Y-90294380D01*
X164583928Y-90294380D01*
X164679166Y-90246761D01*
X164726785Y-90199142D01*
X164774404Y-90103904D01*
X164774404Y-89865809D01*
X164726785Y-89770571D01*
X164679166Y-89722952D01*
X164583928Y-89675333D01*
X164393452Y-89675333D01*
X164298214Y-89722952D01*
X164250595Y-89770571D01*
X164202976Y-89865809D01*
X161731880Y-89987357D02*
X161255690Y-90320690D01*
X161731880Y-90558785D02*
X160731880Y-90558785D01*
X160731880Y-90177833D01*
X160779500Y-90082595D01*
X160827119Y-90034976D01*
X160922357Y-89987357D01*
X161065214Y-89987357D01*
X161160452Y-90034976D01*
X161208071Y-90082595D01*
X161255690Y-90177833D01*
X161255690Y-90558785D01*
X160827119Y-89606404D02*
X160779500Y-89558785D01*
X160731880Y-89463547D01*
X160731880Y-89225452D01*
X160779500Y-89130214D01*
X160827119Y-89082595D01*
X160922357Y-89034976D01*
X161017595Y-89034976D01*
X161160452Y-89082595D01*
X161731880Y-89654023D01*
X161731880Y-89034976D01*
X160731880Y-88701642D02*
X160731880Y-88034976D01*
X161731880Y-88463547D01*
X133088142Y-74186380D02*
X132754809Y-73710190D01*
X132516714Y-74186380D02*
X132516714Y-73186380D01*
X132897666Y-73186380D01*
X132992904Y-73234000D01*
X133040523Y-73281619D01*
X133088142Y-73376857D01*
X133088142Y-73519714D01*
X133040523Y-73614952D01*
X132992904Y-73662571D01*
X132897666Y-73710190D01*
X132516714Y-73710190D01*
X133469095Y-73281619D02*
X133516714Y-73234000D01*
X133611952Y-73186380D01*
X133850047Y-73186380D01*
X133945285Y-73234000D01*
X133992904Y-73281619D01*
X134040523Y-73376857D01*
X134040523Y-73472095D01*
X133992904Y-73614952D01*
X133421476Y-74186380D01*
X134040523Y-74186380D01*
X134611952Y-73614952D02*
X134516714Y-73567333D01*
X134469095Y-73519714D01*
X134421476Y-73424476D01*
X134421476Y-73376857D01*
X134469095Y-73281619D01*
X134516714Y-73234000D01*
X134611952Y-73186380D01*
X134802428Y-73186380D01*
X134897666Y-73234000D01*
X134945285Y-73281619D01*
X134992904Y-73376857D01*
X134992904Y-73424476D01*
X134945285Y-73519714D01*
X134897666Y-73567333D01*
X134802428Y-73614952D01*
X134611952Y-73614952D01*
X134516714Y-73662571D01*
X134469095Y-73710190D01*
X134421476Y-73805428D01*
X134421476Y-73995904D01*
X134469095Y-74091142D01*
X134516714Y-74138761D01*
X134611952Y-74186380D01*
X134802428Y-74186380D01*
X134897666Y-74138761D01*
X134945285Y-74091142D01*
X134992904Y-73995904D01*
X134992904Y-73805428D01*
X134945285Y-73710190D01*
X134897666Y-73662571D01*
X134802428Y-73614952D01*
X169410142Y-88922780D02*
X169076809Y-88446590D01*
X168838714Y-88922780D02*
X168838714Y-87922780D01*
X169219666Y-87922780D01*
X169314904Y-87970400D01*
X169362523Y-88018019D01*
X169410142Y-88113257D01*
X169410142Y-88256114D01*
X169362523Y-88351352D01*
X169314904Y-88398971D01*
X169219666Y-88446590D01*
X168838714Y-88446590D01*
X169743476Y-87922780D02*
X170362523Y-87922780D01*
X170029190Y-88303733D01*
X170172047Y-88303733D01*
X170267285Y-88351352D01*
X170314904Y-88398971D01*
X170362523Y-88494209D01*
X170362523Y-88732304D01*
X170314904Y-88827542D01*
X170267285Y-88875161D01*
X170172047Y-88922780D01*
X169886333Y-88922780D01*
X169791095Y-88875161D01*
X169743476Y-88827542D01*
X170981571Y-87922780D02*
X171076809Y-87922780D01*
X171172047Y-87970400D01*
X171219666Y-88018019D01*
X171267285Y-88113257D01*
X171314904Y-88303733D01*
X171314904Y-88541828D01*
X171267285Y-88732304D01*
X171219666Y-88827542D01*
X171172047Y-88875161D01*
X171076809Y-88922780D01*
X170981571Y-88922780D01*
X170886333Y-88875161D01*
X170838714Y-88827542D01*
X170791095Y-88732304D01*
X170743476Y-88541828D01*
X170743476Y-88303733D01*
X170791095Y-88113257D01*
X170838714Y-88018019D01*
X170886333Y-87970400D01*
X170981571Y-87922780D01*
X155948142Y-107058380D02*
X155614809Y-106582190D01*
X155376714Y-107058380D02*
X155376714Y-106058380D01*
X155757666Y-106058380D01*
X155852904Y-106106000D01*
X155900523Y-106153619D01*
X155948142Y-106248857D01*
X155948142Y-106391714D01*
X155900523Y-106486952D01*
X155852904Y-106534571D01*
X155757666Y-106582190D01*
X155376714Y-106582190D01*
X156329095Y-106153619D02*
X156376714Y-106106000D01*
X156471952Y-106058380D01*
X156710047Y-106058380D01*
X156805285Y-106106000D01*
X156852904Y-106153619D01*
X156900523Y-106248857D01*
X156900523Y-106344095D01*
X156852904Y-106486952D01*
X156281476Y-107058380D01*
X156900523Y-107058380D01*
X157519571Y-106058380D02*
X157614809Y-106058380D01*
X157710047Y-106106000D01*
X157757666Y-106153619D01*
X157805285Y-106248857D01*
X157852904Y-106439333D01*
X157852904Y-106677428D01*
X157805285Y-106867904D01*
X157757666Y-106963142D01*
X157710047Y-107010761D01*
X157614809Y-107058380D01*
X157519571Y-107058380D01*
X157424333Y-107010761D01*
X157376714Y-106963142D01*
X157329095Y-106867904D01*
X157281476Y-106677428D01*
X157281476Y-106439333D01*
X157329095Y-106248857D01*
X157376714Y-106153619D01*
X157424333Y-106106000D01*
X157519571Y-106058380D01*
X152291380Y-62777666D02*
X151815190Y-63111000D01*
X152291380Y-63349095D02*
X151291380Y-63349095D01*
X151291380Y-62968142D01*
X151339000Y-62872904D01*
X151386619Y-62825285D01*
X151481857Y-62777666D01*
X151624714Y-62777666D01*
X151719952Y-62825285D01*
X151767571Y-62872904D01*
X151815190Y-62968142D01*
X151815190Y-63349095D01*
X151386619Y-62396714D02*
X151339000Y-62349095D01*
X151291380Y-62253857D01*
X151291380Y-62015761D01*
X151339000Y-61920523D01*
X151386619Y-61872904D01*
X151481857Y-61825285D01*
X151577095Y-61825285D01*
X151719952Y-61872904D01*
X152291380Y-62444333D01*
X152291380Y-61825285D01*
X136136142Y-103904380D02*
X135802809Y-103428190D01*
X135564714Y-103904380D02*
X135564714Y-102904380D01*
X135945666Y-102904380D01*
X136040904Y-102952000D01*
X136088523Y-102999619D01*
X136136142Y-103094857D01*
X136136142Y-103237714D01*
X136088523Y-103332952D01*
X136040904Y-103380571D01*
X135945666Y-103428190D01*
X135564714Y-103428190D01*
X136517095Y-102999619D02*
X136564714Y-102952000D01*
X136659952Y-102904380D01*
X136898047Y-102904380D01*
X136993285Y-102952000D01*
X137040904Y-102999619D01*
X137088523Y-103094857D01*
X137088523Y-103190095D01*
X137040904Y-103332952D01*
X136469476Y-103904380D01*
X137088523Y-103904380D01*
X137469476Y-102999619D02*
X137517095Y-102952000D01*
X137612333Y-102904380D01*
X137850428Y-102904380D01*
X137945666Y-102952000D01*
X137993285Y-102999619D01*
X138040904Y-103094857D01*
X138040904Y-103190095D01*
X137993285Y-103332952D01*
X137421857Y-103904380D01*
X138040904Y-103904380D01*
X165478380Y-107195857D02*
X165002190Y-107529190D01*
X165478380Y-107767285D02*
X164478380Y-107767285D01*
X164478380Y-107386333D01*
X164526000Y-107291095D01*
X164573619Y-107243476D01*
X164668857Y-107195857D01*
X164811714Y-107195857D01*
X164906952Y-107243476D01*
X164954571Y-107291095D01*
X165002190Y-107386333D01*
X165002190Y-107767285D01*
X165478380Y-106243476D02*
X165478380Y-106814904D01*
X165478380Y-106529190D02*
X164478380Y-106529190D01*
X164621238Y-106624428D01*
X164716476Y-106719666D01*
X164764095Y-106814904D01*
X164478380Y-105386333D02*
X164478380Y-105576809D01*
X164526000Y-105672047D01*
X164573619Y-105719666D01*
X164716476Y-105814904D01*
X164906952Y-105862523D01*
X165287904Y-105862523D01*
X165383142Y-105814904D01*
X165430761Y-105767285D01*
X165478380Y-105672047D01*
X165478380Y-105481571D01*
X165430761Y-105386333D01*
X165383142Y-105338714D01*
X165287904Y-105291095D01*
X165049809Y-105291095D01*
X164954571Y-105338714D01*
X164906952Y-105386333D01*
X164859333Y-105481571D01*
X164859333Y-105672047D01*
X164906952Y-105767285D01*
X164954571Y-105814904D01*
X165049809Y-105862523D01*
X162049380Y-105608357D02*
X161573190Y-105941690D01*
X162049380Y-106179785D02*
X161049380Y-106179785D01*
X161049380Y-105798833D01*
X161097000Y-105703595D01*
X161144619Y-105655976D01*
X161239857Y-105608357D01*
X161382714Y-105608357D01*
X161477952Y-105655976D01*
X161525571Y-105703595D01*
X161573190Y-105798833D01*
X161573190Y-106179785D01*
X162049380Y-104655976D02*
X162049380Y-105227404D01*
X162049380Y-104941690D02*
X161049380Y-104941690D01*
X161192238Y-105036928D01*
X161287476Y-105132166D01*
X161335095Y-105227404D01*
X161049380Y-103751214D02*
X161049380Y-104227404D01*
X161525571Y-104275023D01*
X161477952Y-104227404D01*
X161430333Y-104132166D01*
X161430333Y-103894071D01*
X161477952Y-103798833D01*
X161525571Y-103751214D01*
X161620809Y-103703595D01*
X161858904Y-103703595D01*
X161954142Y-103751214D01*
X162001761Y-103798833D01*
X162049380Y-103894071D01*
X162049380Y-104132166D01*
X162001761Y-104227404D01*
X161954142Y-104275023D01*
X167346333Y-108391880D02*
X167013000Y-107915690D01*
X166774904Y-108391880D02*
X166774904Y-107391880D01*
X167155857Y-107391880D01*
X167251095Y-107439500D01*
X167298714Y-107487119D01*
X167346333Y-107582357D01*
X167346333Y-107725214D01*
X167298714Y-107820452D01*
X167251095Y-107868071D01*
X167155857Y-107915690D01*
X166774904Y-107915690D01*
X167679666Y-107391880D02*
X168298714Y-107391880D01*
X167965380Y-107772833D01*
X168108238Y-107772833D01*
X168203476Y-107820452D01*
X168251095Y-107868071D01*
X168298714Y-107963309D01*
X168298714Y-108201404D01*
X168251095Y-108296642D01*
X168203476Y-108344261D01*
X168108238Y-108391880D01*
X167822523Y-108391880D01*
X167727285Y-108344261D01*
X167679666Y-108296642D01*
X160800380Y-107195857D02*
X160324190Y-107529190D01*
X160800380Y-107767285D02*
X159800380Y-107767285D01*
X159800380Y-107386333D01*
X159848000Y-107291095D01*
X159895619Y-107243476D01*
X159990857Y-107195857D01*
X160133714Y-107195857D01*
X160228952Y-107243476D01*
X160276571Y-107291095D01*
X160324190Y-107386333D01*
X160324190Y-107767285D01*
X160800380Y-106243476D02*
X160800380Y-106814904D01*
X160800380Y-106529190D02*
X159800380Y-106529190D01*
X159943238Y-106624428D01*
X160038476Y-106719666D01*
X160086095Y-106814904D01*
X159800380Y-105910142D02*
X159800380Y-105291095D01*
X160181333Y-105624428D01*
X160181333Y-105481571D01*
X160228952Y-105386333D01*
X160276571Y-105338714D01*
X160371809Y-105291095D01*
X160609904Y-105291095D01*
X160705142Y-105338714D01*
X160752761Y-105386333D01*
X160800380Y-105481571D01*
X160800380Y-105767285D01*
X160752761Y-105862523D01*
X160705142Y-105910142D01*
X169346642Y-93977380D02*
X169013309Y-93501190D01*
X168775214Y-93977380D02*
X168775214Y-92977380D01*
X169156166Y-92977380D01*
X169251404Y-93025000D01*
X169299023Y-93072619D01*
X169346642Y-93167857D01*
X169346642Y-93310714D01*
X169299023Y-93405952D01*
X169251404Y-93453571D01*
X169156166Y-93501190D01*
X168775214Y-93501190D01*
X170299023Y-93977380D02*
X169727595Y-93977380D01*
X170013309Y-93977380D02*
X170013309Y-92977380D01*
X169918071Y-93120238D01*
X169822833Y-93215476D01*
X169727595Y-93263095D01*
X171251404Y-93977380D02*
X170679976Y-93977380D01*
X170965690Y-93977380D02*
X170965690Y-92977380D01*
X170870452Y-93120238D01*
X170775214Y-93215476D01*
X170679976Y-93263095D01*
X175283833Y-96771380D02*
X174950500Y-96295190D01*
X174712404Y-96771380D02*
X174712404Y-95771380D01*
X175093357Y-95771380D01*
X175188595Y-95819000D01*
X175236214Y-95866619D01*
X175283833Y-95961857D01*
X175283833Y-96104714D01*
X175236214Y-96199952D01*
X175188595Y-96247571D01*
X175093357Y-96295190D01*
X174712404Y-96295190D01*
X176140976Y-95771380D02*
X175950500Y-95771380D01*
X175855261Y-95819000D01*
X175807642Y-95866619D01*
X175712404Y-96009476D01*
X175664785Y-96199952D01*
X175664785Y-96580904D01*
X175712404Y-96676142D01*
X175760023Y-96723761D01*
X175855261Y-96771380D01*
X176045738Y-96771380D01*
X176140976Y-96723761D01*
X176188595Y-96676142D01*
X176236214Y-96580904D01*
X176236214Y-96342809D01*
X176188595Y-96247571D01*
X176140976Y-96199952D01*
X176045738Y-96152333D01*
X175855261Y-96152333D01*
X175760023Y-96199952D01*
X175712404Y-96247571D01*
X175664785Y-96342809D01*
X179474833Y-94993380D02*
X179141500Y-94517190D01*
X178903404Y-94993380D02*
X178903404Y-93993380D01*
X179284357Y-93993380D01*
X179379595Y-94041000D01*
X179427214Y-94088619D01*
X179474833Y-94183857D01*
X179474833Y-94326714D01*
X179427214Y-94421952D01*
X179379595Y-94469571D01*
X179284357Y-94517190D01*
X178903404Y-94517190D01*
X180379595Y-93993380D02*
X179903404Y-93993380D01*
X179855785Y-94469571D01*
X179903404Y-94421952D01*
X179998642Y-94374333D01*
X180236738Y-94374333D01*
X180331976Y-94421952D01*
X180379595Y-94469571D01*
X180427214Y-94564809D01*
X180427214Y-94802904D01*
X180379595Y-94898142D01*
X180331976Y-94945761D01*
X180236738Y-94993380D01*
X179998642Y-94993380D01*
X179903404Y-94945761D01*
X179855785Y-94898142D01*
X154323380Y-62777666D02*
X153847190Y-63111000D01*
X154323380Y-63349095D02*
X153323380Y-63349095D01*
X153323380Y-62968142D01*
X153371000Y-62872904D01*
X153418619Y-62825285D01*
X153513857Y-62777666D01*
X153656714Y-62777666D01*
X153751952Y-62825285D01*
X153799571Y-62872904D01*
X153847190Y-62968142D01*
X153847190Y-63349095D01*
X153656714Y-61920523D02*
X154323380Y-61920523D01*
X153275761Y-62158619D02*
X153990047Y-62396714D01*
X153990047Y-61777666D01*
X159123142Y-110868380D02*
X158789809Y-110392190D01*
X158551714Y-110868380D02*
X158551714Y-109868380D01*
X158932666Y-109868380D01*
X159027904Y-109916000D01*
X159075523Y-109963619D01*
X159123142Y-110058857D01*
X159123142Y-110201714D01*
X159075523Y-110296952D01*
X159027904Y-110344571D01*
X158932666Y-110392190D01*
X158551714Y-110392190D01*
X160075523Y-110868380D02*
X159504095Y-110868380D01*
X159789809Y-110868380D02*
X159789809Y-109868380D01*
X159694571Y-110011238D01*
X159599333Y-110106476D01*
X159504095Y-110154095D01*
X160408857Y-109868380D02*
X161075523Y-109868380D01*
X160646952Y-110868380D01*
X163636880Y-115546166D02*
X163160690Y-115879500D01*
X163636880Y-116117595D02*
X162636880Y-116117595D01*
X162636880Y-115736642D01*
X162684500Y-115641404D01*
X162732119Y-115593785D01*
X162827357Y-115546166D01*
X162970214Y-115546166D01*
X163065452Y-115593785D01*
X163113071Y-115641404D01*
X163160690Y-115736642D01*
X163160690Y-116117595D01*
X163065452Y-114974738D02*
X163017833Y-115069976D01*
X162970214Y-115117595D01*
X162874976Y-115165214D01*
X162827357Y-115165214D01*
X162732119Y-115117595D01*
X162684500Y-115069976D01*
X162636880Y-114974738D01*
X162636880Y-114784261D01*
X162684500Y-114689023D01*
X162732119Y-114641404D01*
X162827357Y-114593785D01*
X162874976Y-114593785D01*
X162970214Y-114641404D01*
X163017833Y-114689023D01*
X163065452Y-114784261D01*
X163065452Y-114974738D01*
X163113071Y-115069976D01*
X163160690Y-115117595D01*
X163255928Y-115165214D01*
X163446404Y-115165214D01*
X163541642Y-115117595D01*
X163589261Y-115069976D01*
X163636880Y-114974738D01*
X163636880Y-114784261D01*
X163589261Y-114689023D01*
X163541642Y-114641404D01*
X163446404Y-114593785D01*
X163255928Y-114593785D01*
X163160690Y-114641404D01*
X163113071Y-114689023D01*
X163065452Y-114784261D01*
M02*
