G04 #@! TF.GenerationSoftware,KiCad,Pcbnew,(5.1.5)-3*
G04 #@! TF.CreationDate,2020-04-29T23:57:10-07:00*
G04 #@! TF.ProjectId,DashSight-Mezzanine-Card,44617368-5369-4676-9874-2d4d657a7a61,rev?*
G04 #@! TF.SameCoordinates,Original*
G04 #@! TF.FileFunction,Copper,L4,Bot*
G04 #@! TF.FilePolarity,Positive*
%FSLAX46Y46*%
G04 Gerber Fmt 4.6, Leading zero omitted, Abs format (unit mm)*
G04 Created by KiCad (PCBNEW (5.1.5)-3) date 2020-04-29 23:57:10*
%MOMM*%
%LPD*%
G04 APERTURE LIST*
%ADD10C,1.500000*%
%ADD11R,1.500000X1.050000*%
%ADD12O,1.500000X1.050000*%
%ADD13O,1.600000X1.600000*%
%ADD14R,1.600000X1.600000*%
%ADD15O,1.700000X1.700000*%
%ADD16R,1.700000X1.700000*%
%ADD17C,2.250000*%
%ADD18C,2.050000*%
%ADD19O,1.000000X1.000000*%
%ADD20R,1.000000X1.000000*%
%ADD21R,0.850000X0.850000*%
%ADD22C,0.100000*%
%ADD23C,1.200000*%
%ADD24R,1.200000X1.200000*%
%ADD25R,1.050000X1.500000*%
%ADD26O,1.050000X1.500000*%
%ADD27C,1.600000*%
%ADD28R,0.900000X0.800000*%
%ADD29C,4.000000*%
%ADD30R,0.900000X0.500000*%
%ADD31R,0.900000X1.200000*%
%ADD32R,0.500000X0.900000*%
%ADD33C,0.600000*%
%ADD34C,0.800000*%
%ADD35C,1.000000*%
%ADD36C,0.250000*%
G04 APERTURE END LIST*
D10*
X145869000Y-87439500D03*
X150749000Y-87439500D03*
D11*
X165417500Y-115189000D03*
D12*
X165417500Y-112649000D03*
X165417500Y-113919000D03*
D13*
X180784500Y-97853500D03*
X173164500Y-105473500D03*
X180784500Y-100393500D03*
X173164500Y-102933500D03*
X180784500Y-102933500D03*
X173164500Y-100393500D03*
X180784500Y-105473500D03*
D14*
X173164500Y-97853500D03*
D15*
X181737000Y-113030000D03*
D16*
X184277000Y-113030000D03*
D15*
X181737000Y-116713000D03*
D16*
X184277000Y-116713000D03*
D15*
X197866000Y-120523000D03*
X197866000Y-123063000D03*
X195326000Y-120523000D03*
X195326000Y-123063000D03*
X192786000Y-120523000D03*
X192786000Y-123063000D03*
X190246000Y-120523000D03*
X190246000Y-123063000D03*
X187706000Y-120523000D03*
D16*
X187706000Y-123063000D03*
D17*
X131064000Y-55118000D03*
X131064000Y-50038000D03*
X136144000Y-50038000D03*
X136144000Y-55118000D03*
D18*
X133604000Y-52578000D03*
D15*
X181640000Y-120460000D03*
X181640000Y-123000000D03*
X179100000Y-120460000D03*
X179100000Y-123000000D03*
X176560000Y-120460000D03*
X176560000Y-123000000D03*
X174020000Y-120460000D03*
X174020000Y-123000000D03*
X171480000Y-120460000D03*
X171480000Y-123000000D03*
X168940000Y-120460000D03*
X168940000Y-123000000D03*
X166400000Y-120460000D03*
X166400000Y-123000000D03*
X163860000Y-120460000D03*
X163860000Y-123000000D03*
X161320000Y-120460000D03*
X161320000Y-123000000D03*
X158780000Y-120460000D03*
X158780000Y-123000000D03*
X156240000Y-120460000D03*
X156240000Y-123000000D03*
X153700000Y-120460000D03*
X153700000Y-123000000D03*
X151160000Y-120460000D03*
X151160000Y-123000000D03*
X148620000Y-120460000D03*
X148620000Y-123000000D03*
X146080000Y-120460000D03*
X146080000Y-123000000D03*
X143540000Y-120460000D03*
X143540000Y-123000000D03*
X141000000Y-120460000D03*
D16*
X141000000Y-123000000D03*
D15*
X195199000Y-48276000D03*
X195199000Y-50816000D03*
X192659000Y-48276000D03*
X192659000Y-50816000D03*
X190119000Y-48276000D03*
X190119000Y-50816000D03*
X187579000Y-48276000D03*
X187579000Y-50816000D03*
X185039000Y-48276000D03*
X185039000Y-50816000D03*
X182499000Y-48276000D03*
X182499000Y-50816000D03*
X179959000Y-48276000D03*
X179959000Y-50816000D03*
X177419000Y-48276000D03*
X177419000Y-50816000D03*
X174879000Y-48276000D03*
X174879000Y-50816000D03*
X172339000Y-48276000D03*
X172339000Y-50816000D03*
X169799000Y-48276000D03*
X169799000Y-50816000D03*
X167259000Y-48276000D03*
X167259000Y-50816000D03*
X164719000Y-48276000D03*
X164719000Y-50816000D03*
X162179000Y-48276000D03*
X162179000Y-50816000D03*
X159639000Y-48276000D03*
X159639000Y-50816000D03*
X157099000Y-48276000D03*
X157099000Y-50816000D03*
X154559000Y-48276000D03*
X154559000Y-50816000D03*
X152019000Y-48276000D03*
X152019000Y-50816000D03*
X149479000Y-48276000D03*
X149479000Y-50816000D03*
X146939000Y-48276000D03*
D16*
X146939000Y-50816000D03*
D19*
X178714400Y-55168800D03*
X177444400Y-55168800D03*
D20*
X176174400Y-55168800D03*
D19*
X178714400Y-58394600D03*
X177444400Y-58394600D03*
D20*
X176174400Y-58394600D03*
D21*
X151028400Y-54711600D03*
X151536400Y-58420000D03*
G04 #@! TA.AperFunction,SMDPad,CuDef*
D22*
G36*
X168197091Y-62047453D02*
G01*
X168218326Y-62050603D01*
X168239150Y-62055819D01*
X168259362Y-62063051D01*
X168278768Y-62072230D01*
X168297181Y-62083266D01*
X168314424Y-62096054D01*
X168330330Y-62110470D01*
X168344746Y-62126376D01*
X168357534Y-62143619D01*
X168368570Y-62162032D01*
X168377749Y-62181438D01*
X168384981Y-62201650D01*
X168390197Y-62222474D01*
X168393347Y-62243709D01*
X168394400Y-62265150D01*
X168394400Y-62702650D01*
X168393347Y-62724091D01*
X168390197Y-62745326D01*
X168384981Y-62766150D01*
X168377749Y-62786362D01*
X168368570Y-62805768D01*
X168357534Y-62824181D01*
X168344746Y-62841424D01*
X168330330Y-62857330D01*
X168314424Y-62871746D01*
X168297181Y-62884534D01*
X168278768Y-62895570D01*
X168259362Y-62904749D01*
X168239150Y-62911981D01*
X168218326Y-62917197D01*
X168197091Y-62920347D01*
X168175650Y-62921400D01*
X167663150Y-62921400D01*
X167641709Y-62920347D01*
X167620474Y-62917197D01*
X167599650Y-62911981D01*
X167579438Y-62904749D01*
X167560032Y-62895570D01*
X167541619Y-62884534D01*
X167524376Y-62871746D01*
X167508470Y-62857330D01*
X167494054Y-62841424D01*
X167481266Y-62824181D01*
X167470230Y-62805768D01*
X167461051Y-62786362D01*
X167453819Y-62766150D01*
X167448603Y-62745326D01*
X167445453Y-62724091D01*
X167444400Y-62702650D01*
X167444400Y-62265150D01*
X167445453Y-62243709D01*
X167448603Y-62222474D01*
X167453819Y-62201650D01*
X167461051Y-62181438D01*
X167470230Y-62162032D01*
X167481266Y-62143619D01*
X167494054Y-62126376D01*
X167508470Y-62110470D01*
X167524376Y-62096054D01*
X167541619Y-62083266D01*
X167560032Y-62072230D01*
X167579438Y-62063051D01*
X167599650Y-62055819D01*
X167620474Y-62050603D01*
X167641709Y-62047453D01*
X167663150Y-62046400D01*
X168175650Y-62046400D01*
X168197091Y-62047453D01*
G37*
G04 #@! TD.AperFunction*
G04 #@! TA.AperFunction,SMDPad,CuDef*
G36*
X168197091Y-63622453D02*
G01*
X168218326Y-63625603D01*
X168239150Y-63630819D01*
X168259362Y-63638051D01*
X168278768Y-63647230D01*
X168297181Y-63658266D01*
X168314424Y-63671054D01*
X168330330Y-63685470D01*
X168344746Y-63701376D01*
X168357534Y-63718619D01*
X168368570Y-63737032D01*
X168377749Y-63756438D01*
X168384981Y-63776650D01*
X168390197Y-63797474D01*
X168393347Y-63818709D01*
X168394400Y-63840150D01*
X168394400Y-64277650D01*
X168393347Y-64299091D01*
X168390197Y-64320326D01*
X168384981Y-64341150D01*
X168377749Y-64361362D01*
X168368570Y-64380768D01*
X168357534Y-64399181D01*
X168344746Y-64416424D01*
X168330330Y-64432330D01*
X168314424Y-64446746D01*
X168297181Y-64459534D01*
X168278768Y-64470570D01*
X168259362Y-64479749D01*
X168239150Y-64486981D01*
X168218326Y-64492197D01*
X168197091Y-64495347D01*
X168175650Y-64496400D01*
X167663150Y-64496400D01*
X167641709Y-64495347D01*
X167620474Y-64492197D01*
X167599650Y-64486981D01*
X167579438Y-64479749D01*
X167560032Y-64470570D01*
X167541619Y-64459534D01*
X167524376Y-64446746D01*
X167508470Y-64432330D01*
X167494054Y-64416424D01*
X167481266Y-64399181D01*
X167470230Y-64380768D01*
X167461051Y-64361362D01*
X167453819Y-64341150D01*
X167448603Y-64320326D01*
X167445453Y-64299091D01*
X167444400Y-64277650D01*
X167444400Y-63840150D01*
X167445453Y-63818709D01*
X167448603Y-63797474D01*
X167453819Y-63776650D01*
X167461051Y-63756438D01*
X167470230Y-63737032D01*
X167481266Y-63718619D01*
X167494054Y-63701376D01*
X167508470Y-63685470D01*
X167524376Y-63671054D01*
X167541619Y-63658266D01*
X167560032Y-63647230D01*
X167579438Y-63638051D01*
X167599650Y-63630819D01*
X167620474Y-63625603D01*
X167641709Y-63622453D01*
X167663150Y-63621400D01*
X168175650Y-63621400D01*
X168197091Y-63622453D01*
G37*
G04 #@! TD.AperFunction*
G04 #@! TA.AperFunction,SMDPad,CuDef*
G36*
X168171691Y-60472853D02*
G01*
X168192926Y-60476003D01*
X168213750Y-60481219D01*
X168233962Y-60488451D01*
X168253368Y-60497630D01*
X168271781Y-60508666D01*
X168289024Y-60521454D01*
X168304930Y-60535870D01*
X168319346Y-60551776D01*
X168332134Y-60569019D01*
X168343170Y-60587432D01*
X168352349Y-60606838D01*
X168359581Y-60627050D01*
X168364797Y-60647874D01*
X168367947Y-60669109D01*
X168369000Y-60690550D01*
X168369000Y-61128050D01*
X168367947Y-61149491D01*
X168364797Y-61170726D01*
X168359581Y-61191550D01*
X168352349Y-61211762D01*
X168343170Y-61231168D01*
X168332134Y-61249581D01*
X168319346Y-61266824D01*
X168304930Y-61282730D01*
X168289024Y-61297146D01*
X168271781Y-61309934D01*
X168253368Y-61320970D01*
X168233962Y-61330149D01*
X168213750Y-61337381D01*
X168192926Y-61342597D01*
X168171691Y-61345747D01*
X168150250Y-61346800D01*
X167637750Y-61346800D01*
X167616309Y-61345747D01*
X167595074Y-61342597D01*
X167574250Y-61337381D01*
X167554038Y-61330149D01*
X167534632Y-61320970D01*
X167516219Y-61309934D01*
X167498976Y-61297146D01*
X167483070Y-61282730D01*
X167468654Y-61266824D01*
X167455866Y-61249581D01*
X167444830Y-61231168D01*
X167435651Y-61211762D01*
X167428419Y-61191550D01*
X167423203Y-61170726D01*
X167420053Y-61149491D01*
X167419000Y-61128050D01*
X167419000Y-60690550D01*
X167420053Y-60669109D01*
X167423203Y-60647874D01*
X167428419Y-60627050D01*
X167435651Y-60606838D01*
X167444830Y-60587432D01*
X167455866Y-60569019D01*
X167468654Y-60551776D01*
X167483070Y-60535870D01*
X167498976Y-60521454D01*
X167516219Y-60508666D01*
X167534632Y-60497630D01*
X167554038Y-60488451D01*
X167574250Y-60481219D01*
X167595074Y-60476003D01*
X167616309Y-60472853D01*
X167637750Y-60471800D01*
X168150250Y-60471800D01*
X168171691Y-60472853D01*
G37*
G04 #@! TD.AperFunction*
G04 #@! TA.AperFunction,SMDPad,CuDef*
G36*
X168171691Y-58897853D02*
G01*
X168192926Y-58901003D01*
X168213750Y-58906219D01*
X168233962Y-58913451D01*
X168253368Y-58922630D01*
X168271781Y-58933666D01*
X168289024Y-58946454D01*
X168304930Y-58960870D01*
X168319346Y-58976776D01*
X168332134Y-58994019D01*
X168343170Y-59012432D01*
X168352349Y-59031838D01*
X168359581Y-59052050D01*
X168364797Y-59072874D01*
X168367947Y-59094109D01*
X168369000Y-59115550D01*
X168369000Y-59553050D01*
X168367947Y-59574491D01*
X168364797Y-59595726D01*
X168359581Y-59616550D01*
X168352349Y-59636762D01*
X168343170Y-59656168D01*
X168332134Y-59674581D01*
X168319346Y-59691824D01*
X168304930Y-59707730D01*
X168289024Y-59722146D01*
X168271781Y-59734934D01*
X168253368Y-59745970D01*
X168233962Y-59755149D01*
X168213750Y-59762381D01*
X168192926Y-59767597D01*
X168171691Y-59770747D01*
X168150250Y-59771800D01*
X167637750Y-59771800D01*
X167616309Y-59770747D01*
X167595074Y-59767597D01*
X167574250Y-59762381D01*
X167554038Y-59755149D01*
X167534632Y-59745970D01*
X167516219Y-59734934D01*
X167498976Y-59722146D01*
X167483070Y-59707730D01*
X167468654Y-59691824D01*
X167455866Y-59674581D01*
X167444830Y-59656168D01*
X167435651Y-59636762D01*
X167428419Y-59616550D01*
X167423203Y-59595726D01*
X167420053Y-59574491D01*
X167419000Y-59553050D01*
X167419000Y-59115550D01*
X167420053Y-59094109D01*
X167423203Y-59072874D01*
X167428419Y-59052050D01*
X167435651Y-59031838D01*
X167444830Y-59012432D01*
X167455866Y-58994019D01*
X167468654Y-58976776D01*
X167483070Y-58960870D01*
X167498976Y-58946454D01*
X167516219Y-58933666D01*
X167534632Y-58922630D01*
X167554038Y-58913451D01*
X167574250Y-58906219D01*
X167595074Y-58901003D01*
X167616309Y-58897853D01*
X167637750Y-58896800D01*
X168150250Y-58896800D01*
X168171691Y-58897853D01*
G37*
G04 #@! TD.AperFunction*
G04 #@! TA.AperFunction,SMDPad,CuDef*
G36*
X170711691Y-68524453D02*
G01*
X170732926Y-68527603D01*
X170753750Y-68532819D01*
X170773962Y-68540051D01*
X170793368Y-68549230D01*
X170811781Y-68560266D01*
X170829024Y-68573054D01*
X170844930Y-68587470D01*
X170859346Y-68603376D01*
X170872134Y-68620619D01*
X170883170Y-68639032D01*
X170892349Y-68658438D01*
X170899581Y-68678650D01*
X170904797Y-68699474D01*
X170907947Y-68720709D01*
X170909000Y-68742150D01*
X170909000Y-69179650D01*
X170907947Y-69201091D01*
X170904797Y-69222326D01*
X170899581Y-69243150D01*
X170892349Y-69263362D01*
X170883170Y-69282768D01*
X170872134Y-69301181D01*
X170859346Y-69318424D01*
X170844930Y-69334330D01*
X170829024Y-69348746D01*
X170811781Y-69361534D01*
X170793368Y-69372570D01*
X170773962Y-69381749D01*
X170753750Y-69388981D01*
X170732926Y-69394197D01*
X170711691Y-69397347D01*
X170690250Y-69398400D01*
X170177750Y-69398400D01*
X170156309Y-69397347D01*
X170135074Y-69394197D01*
X170114250Y-69388981D01*
X170094038Y-69381749D01*
X170074632Y-69372570D01*
X170056219Y-69361534D01*
X170038976Y-69348746D01*
X170023070Y-69334330D01*
X170008654Y-69318424D01*
X169995866Y-69301181D01*
X169984830Y-69282768D01*
X169975651Y-69263362D01*
X169968419Y-69243150D01*
X169963203Y-69222326D01*
X169960053Y-69201091D01*
X169959000Y-69179650D01*
X169959000Y-68742150D01*
X169960053Y-68720709D01*
X169963203Y-68699474D01*
X169968419Y-68678650D01*
X169975651Y-68658438D01*
X169984830Y-68639032D01*
X169995866Y-68620619D01*
X170008654Y-68603376D01*
X170023070Y-68587470D01*
X170038976Y-68573054D01*
X170056219Y-68560266D01*
X170074632Y-68549230D01*
X170094038Y-68540051D01*
X170114250Y-68532819D01*
X170135074Y-68527603D01*
X170156309Y-68524453D01*
X170177750Y-68523400D01*
X170690250Y-68523400D01*
X170711691Y-68524453D01*
G37*
G04 #@! TD.AperFunction*
G04 #@! TA.AperFunction,SMDPad,CuDef*
G36*
X170711691Y-70099453D02*
G01*
X170732926Y-70102603D01*
X170753750Y-70107819D01*
X170773962Y-70115051D01*
X170793368Y-70124230D01*
X170811781Y-70135266D01*
X170829024Y-70148054D01*
X170844930Y-70162470D01*
X170859346Y-70178376D01*
X170872134Y-70195619D01*
X170883170Y-70214032D01*
X170892349Y-70233438D01*
X170899581Y-70253650D01*
X170904797Y-70274474D01*
X170907947Y-70295709D01*
X170909000Y-70317150D01*
X170909000Y-70754650D01*
X170907947Y-70776091D01*
X170904797Y-70797326D01*
X170899581Y-70818150D01*
X170892349Y-70838362D01*
X170883170Y-70857768D01*
X170872134Y-70876181D01*
X170859346Y-70893424D01*
X170844930Y-70909330D01*
X170829024Y-70923746D01*
X170811781Y-70936534D01*
X170793368Y-70947570D01*
X170773962Y-70956749D01*
X170753750Y-70963981D01*
X170732926Y-70969197D01*
X170711691Y-70972347D01*
X170690250Y-70973400D01*
X170177750Y-70973400D01*
X170156309Y-70972347D01*
X170135074Y-70969197D01*
X170114250Y-70963981D01*
X170094038Y-70956749D01*
X170074632Y-70947570D01*
X170056219Y-70936534D01*
X170038976Y-70923746D01*
X170023070Y-70909330D01*
X170008654Y-70893424D01*
X169995866Y-70876181D01*
X169984830Y-70857768D01*
X169975651Y-70838362D01*
X169968419Y-70818150D01*
X169963203Y-70797326D01*
X169960053Y-70776091D01*
X169959000Y-70754650D01*
X169959000Y-70317150D01*
X169960053Y-70295709D01*
X169963203Y-70274474D01*
X169968419Y-70253650D01*
X169975651Y-70233438D01*
X169984830Y-70214032D01*
X169995866Y-70195619D01*
X170008654Y-70178376D01*
X170023070Y-70162470D01*
X170038976Y-70148054D01*
X170056219Y-70135266D01*
X170074632Y-70124230D01*
X170094038Y-70115051D01*
X170114250Y-70107819D01*
X170135074Y-70102603D01*
X170156309Y-70099453D01*
X170177750Y-70098400D01*
X170690250Y-70098400D01*
X170711691Y-70099453D01*
G37*
G04 #@! TD.AperFunction*
G04 #@! TA.AperFunction,SMDPad,CuDef*
G36*
X170711691Y-65374853D02*
G01*
X170732926Y-65378003D01*
X170753750Y-65383219D01*
X170773962Y-65390451D01*
X170793368Y-65399630D01*
X170811781Y-65410666D01*
X170829024Y-65423454D01*
X170844930Y-65437870D01*
X170859346Y-65453776D01*
X170872134Y-65471019D01*
X170883170Y-65489432D01*
X170892349Y-65508838D01*
X170899581Y-65529050D01*
X170904797Y-65549874D01*
X170907947Y-65571109D01*
X170909000Y-65592550D01*
X170909000Y-66030050D01*
X170907947Y-66051491D01*
X170904797Y-66072726D01*
X170899581Y-66093550D01*
X170892349Y-66113762D01*
X170883170Y-66133168D01*
X170872134Y-66151581D01*
X170859346Y-66168824D01*
X170844930Y-66184730D01*
X170829024Y-66199146D01*
X170811781Y-66211934D01*
X170793368Y-66222970D01*
X170773962Y-66232149D01*
X170753750Y-66239381D01*
X170732926Y-66244597D01*
X170711691Y-66247747D01*
X170690250Y-66248800D01*
X170177750Y-66248800D01*
X170156309Y-66247747D01*
X170135074Y-66244597D01*
X170114250Y-66239381D01*
X170094038Y-66232149D01*
X170074632Y-66222970D01*
X170056219Y-66211934D01*
X170038976Y-66199146D01*
X170023070Y-66184730D01*
X170008654Y-66168824D01*
X169995866Y-66151581D01*
X169984830Y-66133168D01*
X169975651Y-66113762D01*
X169968419Y-66093550D01*
X169963203Y-66072726D01*
X169960053Y-66051491D01*
X169959000Y-66030050D01*
X169959000Y-65592550D01*
X169960053Y-65571109D01*
X169963203Y-65549874D01*
X169968419Y-65529050D01*
X169975651Y-65508838D01*
X169984830Y-65489432D01*
X169995866Y-65471019D01*
X170008654Y-65453776D01*
X170023070Y-65437870D01*
X170038976Y-65423454D01*
X170056219Y-65410666D01*
X170074632Y-65399630D01*
X170094038Y-65390451D01*
X170114250Y-65383219D01*
X170135074Y-65378003D01*
X170156309Y-65374853D01*
X170177750Y-65373800D01*
X170690250Y-65373800D01*
X170711691Y-65374853D01*
G37*
G04 #@! TD.AperFunction*
G04 #@! TA.AperFunction,SMDPad,CuDef*
G36*
X170711691Y-66949853D02*
G01*
X170732926Y-66953003D01*
X170753750Y-66958219D01*
X170773962Y-66965451D01*
X170793368Y-66974630D01*
X170811781Y-66985666D01*
X170829024Y-66998454D01*
X170844930Y-67012870D01*
X170859346Y-67028776D01*
X170872134Y-67046019D01*
X170883170Y-67064432D01*
X170892349Y-67083838D01*
X170899581Y-67104050D01*
X170904797Y-67124874D01*
X170907947Y-67146109D01*
X170909000Y-67167550D01*
X170909000Y-67605050D01*
X170907947Y-67626491D01*
X170904797Y-67647726D01*
X170899581Y-67668550D01*
X170892349Y-67688762D01*
X170883170Y-67708168D01*
X170872134Y-67726581D01*
X170859346Y-67743824D01*
X170844930Y-67759730D01*
X170829024Y-67774146D01*
X170811781Y-67786934D01*
X170793368Y-67797970D01*
X170773962Y-67807149D01*
X170753750Y-67814381D01*
X170732926Y-67819597D01*
X170711691Y-67822747D01*
X170690250Y-67823800D01*
X170177750Y-67823800D01*
X170156309Y-67822747D01*
X170135074Y-67819597D01*
X170114250Y-67814381D01*
X170094038Y-67807149D01*
X170074632Y-67797970D01*
X170056219Y-67786934D01*
X170038976Y-67774146D01*
X170023070Y-67759730D01*
X170008654Y-67743824D01*
X169995866Y-67726581D01*
X169984830Y-67708168D01*
X169975651Y-67688762D01*
X169968419Y-67668550D01*
X169963203Y-67647726D01*
X169960053Y-67626491D01*
X169959000Y-67605050D01*
X169959000Y-67167550D01*
X169960053Y-67146109D01*
X169963203Y-67124874D01*
X169968419Y-67104050D01*
X169975651Y-67083838D01*
X169984830Y-67064432D01*
X169995866Y-67046019D01*
X170008654Y-67028776D01*
X170023070Y-67012870D01*
X170038976Y-66998454D01*
X170056219Y-66985666D01*
X170074632Y-66974630D01*
X170094038Y-66965451D01*
X170114250Y-66958219D01*
X170135074Y-66953003D01*
X170156309Y-66949853D01*
X170177750Y-66948800D01*
X170690250Y-66948800D01*
X170711691Y-66949853D01*
G37*
G04 #@! TD.AperFunction*
D23*
X173048800Y-64617600D03*
D24*
X174548800Y-64617600D03*
D25*
X171704000Y-114998500D03*
D26*
X169164000Y-114998500D03*
X170434000Y-114998500D03*
D27*
X177823500Y-115252500D03*
D14*
X175323500Y-115252500D03*
D15*
X192278000Y-116078000D03*
D16*
X192278000Y-113538000D03*
D15*
X195961000Y-116078000D03*
D16*
X195961000Y-113538000D03*
D28*
X161210500Y-110045500D03*
X159210500Y-109095500D03*
X159210500Y-110995500D03*
X143526000Y-108013500D03*
X145526000Y-108963500D03*
X145526000Y-107063500D03*
X144923000Y-112268000D03*
X146923000Y-113218000D03*
X146923000Y-111318000D03*
X150828500Y-113347500D03*
X152828500Y-114297500D03*
X152828500Y-112397500D03*
D29*
X186545500Y-82099500D03*
X186545500Y-107099500D03*
D27*
X189085500Y-90444500D03*
X189085500Y-93214500D03*
X189085500Y-95984500D03*
X189085500Y-98754500D03*
X186245500Y-89059500D03*
X186245500Y-91829500D03*
X186245500Y-94599500D03*
X186245500Y-97369500D03*
D14*
X186245500Y-100139500D03*
D30*
X142494000Y-113335500D03*
X142494000Y-111835500D03*
D31*
X176719500Y-109156500D03*
X173419500Y-109156500D03*
X148589000Y-115824000D03*
X145289000Y-115824000D03*
D14*
X168973500Y-94361000D03*
D13*
X135953500Y-101981000D03*
X166433500Y-94361000D03*
X138493500Y-101981000D03*
X163893500Y-94361000D03*
X141033500Y-101981000D03*
X161353500Y-94361000D03*
X143573500Y-101981000D03*
X158813500Y-94361000D03*
X146113500Y-101981000D03*
X156273500Y-94361000D03*
X148653500Y-101981000D03*
X153733500Y-94361000D03*
X151193500Y-101981000D03*
X151193500Y-94361000D03*
X153733500Y-101981000D03*
X148653500Y-94361000D03*
X156273500Y-101981000D03*
X146113500Y-94361000D03*
X158813500Y-101981000D03*
X143573500Y-94361000D03*
X161353500Y-101981000D03*
X141033500Y-94361000D03*
X163893500Y-101981000D03*
X138493500Y-94361000D03*
X166433500Y-101981000D03*
X135953500Y-94361000D03*
X168973500Y-101981000D03*
D32*
X166802500Y-110172500D03*
X165302500Y-110172500D03*
X138315000Y-108966000D03*
X139815000Y-108966000D03*
X138759500Y-112522000D03*
X140259500Y-112522000D03*
D30*
X141541500Y-109525500D03*
X141541500Y-108025500D03*
X157607000Y-107835000D03*
X157607000Y-109335000D03*
D32*
X141998000Y-116268500D03*
X143498000Y-116268500D03*
D30*
X148971000Y-112319500D03*
X148971000Y-110819500D03*
X149860000Y-107557000D03*
X149860000Y-106057000D03*
D33*
X149313900Y-53276500D03*
X138480800Y-55422800D03*
D34*
X193090800Y-59740800D03*
X193090800Y-67691000D03*
X193014600Y-75869800D03*
X179781200Y-67462400D03*
D35*
X180441600Y-69850000D03*
X177342800Y-64566800D03*
D23*
X171119800Y-53340000D03*
D33*
X149720300Y-56984900D03*
X149720300Y-58013600D03*
X149771100Y-59778900D03*
X149313900Y-54495700D03*
X151091900Y-53124100D03*
X152552400Y-54508400D03*
X152615900Y-56426100D03*
X151498300Y-59880500D03*
D23*
X163576000Y-53695600D03*
D34*
X143065500Y-105473500D03*
X143002000Y-110553500D03*
X165163500Y-107378500D03*
X153289000Y-109918500D03*
X142748000Y-91567000D03*
X133667500Y-106934000D03*
X172085000Y-90233500D03*
X177546000Y-94615000D03*
D33*
X144589500Y-74549000D03*
X147574000Y-74549000D03*
X149923500Y-73469500D03*
X151828500Y-71501000D03*
X154051000Y-69215000D03*
X155956000Y-66230500D03*
X156718000Y-62547500D03*
X142557500Y-73469500D03*
D35*
X137922000Y-115443000D03*
X137795000Y-119761000D03*
X133731000Y-73279000D03*
D34*
X138620500Y-58356500D03*
D33*
X135128000Y-57277000D03*
X131953000Y-57150000D03*
D35*
X144018000Y-51054000D03*
D33*
X137795000Y-51562000D03*
X137795000Y-52832000D03*
X138684000Y-51054000D03*
X138684000Y-53340000D03*
X132715000Y-48133000D03*
X134493000Y-48133000D03*
X129159000Y-51308000D03*
X129159000Y-53340000D03*
X132715000Y-60198000D03*
X133858000Y-60198000D03*
X134874000Y-60198000D03*
X134366000Y-56769000D03*
X132842000Y-56769000D03*
X131826000Y-57912000D03*
X131826000Y-59309000D03*
D35*
X148590000Y-71755000D03*
D33*
X155956000Y-54800500D03*
X156019500Y-59372500D03*
D34*
X142049500Y-106680000D03*
X182435500Y-109093000D03*
X193090800Y-58445400D03*
X193141600Y-66344800D03*
X192989200Y-74599800D03*
D23*
X167195500Y-53733700D03*
D34*
X175768000Y-77165200D03*
X167944800Y-65328800D03*
X171653200Y-67868800D03*
X177241200Y-67564000D03*
D35*
X139446000Y-117195600D03*
X147878800Y-54305200D03*
X145999200Y-54305200D03*
X194564000Y-108394500D03*
D34*
X152844500Y-116840000D03*
D35*
X139192000Y-75692000D03*
X145542000Y-72644000D03*
X145796000Y-56896000D03*
X192214500Y-108458000D03*
D34*
X157797500Y-112966500D03*
X190779400Y-73812400D03*
X173786800Y-70408800D03*
X191643000Y-56565800D03*
X173837600Y-68986400D03*
D36*
X146226000Y-107063500D02*
X145526000Y-107063500D01*
X152128500Y-112397500D02*
X146794500Y-107063500D01*
X146794500Y-107063500D02*
X146226000Y-107063500D01*
X152828500Y-112397500D02*
X152128500Y-112397500D01*
X145526000Y-102568500D02*
X146113500Y-101981000D01*
X145526000Y-107063500D02*
X145526000Y-102568500D01*
X154366000Y-110995500D02*
X153289000Y-109918500D01*
X159210500Y-110995500D02*
X154366000Y-110995500D01*
X142494000Y-111061500D02*
X143002000Y-110553500D01*
X142494000Y-111835500D02*
X142494000Y-111061500D01*
X139815000Y-108266000D02*
X139815000Y-108966000D01*
X142182998Y-105473500D02*
X139815000Y-107841498D01*
X139815000Y-107841498D02*
X139815000Y-108266000D01*
X143065500Y-105473500D02*
X142182998Y-105473500D01*
X145526000Y-106413500D02*
X145526000Y-107063500D01*
X144586000Y-105473500D02*
X145526000Y-106413500D01*
X143065500Y-105473500D02*
X144586000Y-105473500D01*
X142192500Y-106680000D02*
X143526000Y-108013500D01*
X142049500Y-106680000D02*
X142192500Y-106680000D01*
X142694000Y-113335500D02*
X142494000Y-113335500D01*
X143194000Y-112635500D02*
X143194000Y-112835500D01*
X143194000Y-112835500D02*
X142694000Y-113335500D01*
X143561500Y-112268000D02*
X143194000Y-112635500D01*
X144923000Y-112268000D02*
X143561500Y-112268000D01*
X144923000Y-109566500D02*
X145526000Y-108963500D01*
X144923000Y-112268000D02*
X144923000Y-109566500D01*
X148472500Y-111318000D02*
X148971000Y-110819500D01*
X146923000Y-111318000D02*
X148472500Y-111318000D01*
X148971000Y-110319500D02*
X148971000Y-110819500D01*
X146889999Y-108238499D02*
X148971000Y-110319500D01*
X144315997Y-108738501D02*
X144815999Y-108238499D01*
X144815999Y-108238499D02*
X146889999Y-108238499D01*
X141754501Y-108738501D02*
X144315997Y-108738501D01*
X141541500Y-108525500D02*
X141754501Y-108738501D01*
X141541500Y-108025500D02*
X141541500Y-108525500D01*
X146223000Y-113218000D02*
X146923000Y-113218000D01*
X145289000Y-114152000D02*
X146223000Y-113218000D01*
X145289000Y-115824000D02*
X145289000Y-114152000D01*
X148971000Y-112819500D02*
X148971000Y-112319500D01*
X148572500Y-113218000D02*
X148971000Y-112819500D01*
X146923000Y-113218000D02*
X148572500Y-113218000D01*
X150128500Y-113347500D02*
X148589000Y-114887000D01*
X148589000Y-114974000D02*
X148589000Y-115824000D01*
X148589000Y-114887000D02*
X148589000Y-114974000D01*
X150828500Y-113347500D02*
X150128500Y-113347500D01*
X148513999Y-116749001D02*
X148589000Y-116674000D01*
X148589000Y-116674000D02*
X148589000Y-115824000D01*
X144478501Y-116749001D02*
X148513999Y-116749001D01*
X143998000Y-116268500D02*
X144478501Y-116749001D01*
X143498000Y-116268500D02*
X143998000Y-116268500D01*
X182835499Y-109492999D02*
X182435500Y-109093000D01*
X180128501Y-116377501D02*
X182912001Y-113594001D01*
X182912001Y-109569501D02*
X182835499Y-109492999D01*
X151528500Y-114432502D02*
X153473499Y-116377501D01*
X151528500Y-113997500D02*
X151528500Y-114432502D01*
X182912001Y-113594001D02*
X182912001Y-109569501D01*
X150878500Y-113347500D02*
X151528500Y-113997500D01*
X153473499Y-116377501D02*
X180128501Y-116377501D01*
X150828500Y-113347500D02*
X150878500Y-113347500D01*
X149860000Y-108057000D02*
X153603501Y-111800501D01*
X149860000Y-107557000D02*
X149860000Y-108057000D01*
X153528500Y-114297500D02*
X152828500Y-114297500D01*
X153603501Y-114222499D02*
X153528500Y-114297500D01*
X153603501Y-111800501D02*
X153603501Y-114222499D01*
X161337500Y-110172500D02*
X161210500Y-110045500D01*
X165302500Y-110172500D02*
X161337500Y-110172500D01*
X181909501Y-103473501D02*
X181034503Y-104348499D01*
X181909501Y-102290497D02*
X181909501Y-103473501D01*
X185185499Y-99014499D02*
X181909501Y-102290497D01*
X186265503Y-99014499D02*
X185185499Y-99014499D01*
X187370501Y-97909501D02*
X186265503Y-99014499D01*
X187370501Y-96060869D02*
X187370501Y-97909501D01*
X189085500Y-94345870D02*
X187370501Y-96060869D01*
X189085500Y-93214500D02*
X189085500Y-94345870D01*
X173817499Y-106598501D02*
X176067501Y-104348499D01*
X165302500Y-109472500D02*
X168176499Y-106598501D01*
X168176499Y-106598501D02*
X173817499Y-106598501D01*
X165302500Y-110172500D02*
X165302500Y-109472500D01*
X176067501Y-104348499D02*
X175954503Y-104348499D01*
X181034503Y-104348499D02*
X176067501Y-104348499D01*
X157846500Y-109095500D02*
X157607000Y-109335000D01*
X159210500Y-109095500D02*
X157846500Y-109095500D01*
X149160000Y-106057000D02*
X149860000Y-106057000D01*
X147528499Y-104425499D02*
X149160000Y-106057000D01*
X147528499Y-101490999D02*
X147528499Y-104425499D01*
X144988499Y-94110997D02*
X144988499Y-98950999D01*
X144988499Y-98950999D02*
X147528499Y-101490999D01*
X135953500Y-94361000D02*
X137078501Y-93235999D01*
X137078501Y-93235999D02*
X144113501Y-93235999D01*
X144113501Y-93235999D02*
X144988499Y-94110997D01*
X186245500Y-94932500D02*
X186245500Y-94599500D01*
X180784500Y-100393500D02*
X186245500Y-94932500D01*
X190210501Y-99294501D02*
X190210501Y-97109501D01*
X180348502Y-109156500D02*
X190210501Y-99294501D01*
X189885499Y-96784499D02*
X189085500Y-95984500D01*
X190210501Y-97109501D02*
X189885499Y-96784499D01*
X176719500Y-109156500D02*
X180348502Y-109156500D01*
X140259500Y-111822000D02*
X140259500Y-112522000D01*
X140259500Y-109736998D02*
X140259500Y-111822000D01*
X140470998Y-109525500D02*
X140259500Y-109736998D01*
X141541500Y-109525500D02*
X140470998Y-109525500D01*
X141498000Y-116268500D02*
X141998000Y-116268500D01*
X140259500Y-115030000D02*
X141498000Y-116268500D01*
X140259500Y-112522000D02*
X140259500Y-115030000D01*
X134828499Y-109876001D02*
X134828499Y-93820999D01*
X140184499Y-113297001D02*
X138249499Y-113297001D01*
X140259500Y-113222000D02*
X140184499Y-113297001D01*
X138249499Y-113297001D02*
X134828499Y-109876001D01*
X140259500Y-112522000D02*
X140259500Y-113222000D01*
X189885499Y-95184501D02*
X189085500Y-95984500D01*
X190210501Y-94859499D02*
X189885499Y-95184501D01*
X190210501Y-92674499D02*
X190210501Y-94859499D01*
X189625501Y-92089499D02*
X190210501Y-92674499D01*
X188170501Y-92089499D02*
X189625501Y-92089499D01*
X186785501Y-90704499D02*
X188170501Y-92089499D01*
X185705499Y-90704499D02*
X186785501Y-90704499D01*
X185451497Y-90958501D02*
X185705499Y-90704499D01*
X171736999Y-90958501D02*
X185451497Y-90958501D01*
X171611999Y-90833501D02*
X171736999Y-90958501D01*
X137815997Y-90833501D02*
X171611999Y-90833501D01*
X134828499Y-93820999D02*
X137815997Y-90833501D01*
X178879500Y-110172500D02*
X181737000Y-113030000D01*
X166802500Y-110172500D02*
X178879500Y-110172500D01*
X148653500Y-99441000D02*
X153733500Y-94361000D01*
X148653500Y-101981000D02*
X148653500Y-99441000D01*
X174289501Y-96793499D02*
X174289501Y-101808499D01*
X173964499Y-102133501D02*
X173164500Y-102933500D01*
X174289501Y-101808499D02*
X173964499Y-102133501D01*
X171857002Y-94361000D02*
X174289501Y-96793499D01*
X168973500Y-94361000D02*
X171857002Y-94361000D01*
X179165001Y-119284999D02*
X144715001Y-119284999D01*
X144389999Y-119610001D02*
X143540000Y-120460000D01*
X144715001Y-119284999D02*
X144389999Y-119610001D01*
X181737000Y-116713000D02*
X179165001Y-119284999D01*
X141000000Y-120460000D02*
X143540000Y-120460000D01*
X154864870Y-94361000D02*
X156273500Y-94361000D01*
X153733500Y-94361000D02*
X154864870Y-94361000D01*
X156273500Y-94361000D02*
X158813500Y-94361000D01*
X159613499Y-95160999D02*
X158813500Y-94361000D01*
X168898499Y-95486001D02*
X159938501Y-95486001D01*
X159938501Y-95486001D02*
X159613499Y-95160999D01*
X168973500Y-95411000D02*
X168898499Y-95486001D01*
X168973500Y-94361000D02*
X168973500Y-95411000D01*
X153733500Y-103112370D02*
X153733500Y-101981000D01*
X153733500Y-104661500D02*
X153733500Y-103112370D01*
X156907000Y-107835000D02*
X153733500Y-104661500D01*
X157607000Y-107835000D02*
X156907000Y-107835000D01*
X138759500Y-109410500D02*
X138315000Y-108966000D01*
X138759500Y-112522000D02*
X138759500Y-109410500D01*
X142773501Y-95160999D02*
X143573500Y-94361000D01*
X142448499Y-95486001D02*
X142773501Y-95160999D01*
X142448499Y-104132501D02*
X142448499Y-95486001D01*
X138315000Y-108266000D02*
X142448499Y-104132501D01*
X138315000Y-108966000D02*
X138315000Y-108266000D01*
X186606000Y-123063000D02*
X187706000Y-123063000D01*
X186530999Y-122987999D02*
X186606000Y-123063000D01*
X186530999Y-114141501D02*
X186530999Y-122987999D01*
X192214500Y-108458000D02*
X186530999Y-114141501D01*
X194564000Y-108394500D02*
X189039500Y-113919000D01*
X188806000Y-123063000D02*
X187706000Y-123063000D01*
X188881001Y-122987999D02*
X188806000Y-123063000D01*
X188881001Y-120744999D02*
X188881001Y-122987999D01*
X189039500Y-120586500D02*
X188881001Y-120744999D01*
X189039500Y-113919000D02*
X189039500Y-120586500D01*
X139446000Y-122546000D02*
X139446000Y-117902706D01*
X139446000Y-117902706D02*
X139446000Y-117195600D01*
X139900000Y-123000000D02*
X139446000Y-122546000D01*
X141000000Y-123000000D02*
X139900000Y-123000000D01*
X187706000Y-124163000D02*
X187706000Y-123063000D01*
X187693999Y-124175001D02*
X187706000Y-124163000D01*
X162495001Y-124175001D02*
X187693999Y-124175001D01*
X161320000Y-123000000D02*
X162495001Y-124175001D01*
X171170700Y-67386300D02*
X171653200Y-67868800D01*
X170434000Y-67386300D02*
X171170700Y-67386300D01*
X167944800Y-65894485D02*
X167944800Y-65328800D01*
X167944800Y-68521700D02*
X167944800Y-65894485D01*
X169959000Y-70535900D02*
X167944800Y-68521700D01*
X170434000Y-70535900D02*
X169959000Y-70535900D01*
X167919400Y-65303400D02*
X167944800Y-65328800D01*
X167919400Y-64058900D02*
X167919400Y-65303400D01*
X167419000Y-59334300D02*
X167894000Y-59334300D01*
X167195500Y-59110800D02*
X167419000Y-59334300D01*
X167195500Y-53733700D02*
X167195500Y-59110800D01*
X162306000Y-105473500D02*
X173164500Y-105473500D01*
X158813500Y-101981000D02*
X162306000Y-105473500D01*
X172114500Y-97853500D02*
X173164500Y-97853500D01*
X157148498Y-101981000D02*
X161275998Y-97853500D01*
X161275998Y-97853500D02*
X172114500Y-97853500D01*
X156273500Y-101981000D02*
X157148498Y-101981000D01*
X166533498Y-109156500D02*
X172719500Y-109156500D01*
X166227499Y-109462499D02*
X166533498Y-109156500D01*
X166227499Y-110532503D02*
X166227499Y-109462499D01*
X165812501Y-110947501D02*
X166227499Y-110532503D01*
X172719500Y-109156500D02*
X173419500Y-109156500D01*
X162773500Y-112966500D02*
X164792499Y-110947501D01*
X164792499Y-110947501D02*
X165812501Y-110947501D01*
X157797500Y-112966500D02*
X162773500Y-112966500D01*
X151162099Y-52499099D02*
X152729597Y-52499099D01*
X149479000Y-50816000D02*
X151162099Y-52499099D01*
X171881900Y-70408800D02*
X170434000Y-68960900D01*
X173786800Y-70408800D02*
X171881900Y-70408800D01*
X169959000Y-68960900D02*
X170434000Y-68960900D01*
X169633990Y-68635890D02*
X169959000Y-68960900D01*
X169633990Y-63723490D02*
X169633990Y-68635890D01*
X168394400Y-62483900D02*
X169633990Y-63723490D01*
X167919400Y-62483900D02*
X168394400Y-62483900D01*
X162714398Y-62483900D02*
X167919400Y-62483900D01*
X152729597Y-52499099D02*
X162714398Y-62483900D01*
X173786800Y-70408800D02*
X176403000Y-73025000D01*
X176403000Y-73025000D02*
X181965600Y-73025000D01*
X182753000Y-73812400D02*
X181965600Y-73025000D01*
X190779400Y-73812400D02*
X182753000Y-73812400D01*
X153194001Y-51991001D02*
X154716101Y-51991001D01*
X152019000Y-50816000D02*
X153194001Y-51991001D01*
X173837600Y-68739900D02*
X173837600Y-68986400D01*
X170909000Y-65811300D02*
X173837600Y-68739900D01*
X170434000Y-65811300D02*
X170909000Y-65811300D01*
X170434000Y-62974300D02*
X168369000Y-60909300D01*
X168369000Y-60909300D02*
X167894000Y-60909300D01*
X170434000Y-65811300D02*
X170434000Y-62974300D01*
X163634400Y-60909300D02*
X167894000Y-60909300D01*
X154716101Y-51991001D02*
X163634400Y-60909300D01*
X178612700Y-60909300D02*
X167894000Y-60909300D01*
X191643000Y-56565800D02*
X182956200Y-56565800D01*
X182956200Y-56565800D02*
X178612700Y-60909300D01*
M02*
