M48
INCH,TZ
T1C0.0118
T2C0.0157
T3C0.0177
T4C0.0197
T5C0.0236
T6C0.0256
T7C0.0295
T8C0.0315
T9C0.0394
T10C0.0591
T11C0.0669
T12C0.1260
%
G90
G05
T1
X50850Y-20200
X50850Y-21000
X51900Y-22800
X51900Y-23350
X51950Y-22500
X52250Y-18950
X52250Y-23700
X52300Y-22350
X52700Y-23700
X52900Y-22350
X52950Y-18950
X53100Y-23700
X53200Y-22550
X54250Y-20300
X54250Y-20800
X54520Y-21820
X54600Y-20100
X54600Y-21000
X56125Y-28925
X56925Y-29350
X58100Y-29350
X58785Y-20975
X58785Y-21455
X58945Y-22435
X58945Y-22840
X58965Y-23535
X59025Y-28925
X59485Y-20915
X59645Y-23575
X59775Y-28150
X60060Y-21460
X60085Y-22215
X60650Y-27250
X61400Y-21575
X61400Y-26075
X61425Y-23375
X61700Y-24625
X67605Y-23457
T2
X52625Y-42100
X54575Y-22975
X55925Y-42000
X56200Y-36050
X56300Y-43525
X56325Y-41525
X60175Y-46000
X60350Y-43275
X62125Y-44475
X65025Y-42275
X66400Y-23500
X67750Y-35525
X68440Y-24380
X68480Y-25380
X69900Y-37250
X71825Y-42950
X75300Y-29000
X75450Y-22270
X75980Y-29370
X75990Y-29870
X76020Y-23010
X76020Y-23520
X76020Y-26650
X76040Y-26120
T3
X54900Y-46140
T4
X52650Y-28850
X54250Y-47150
X54300Y-45450
X54800Y-29800
X56700Y-20100
X57300Y-28600
X57400Y-22400
X57480Y-21380
X58220Y-21380
X58500Y-28250
X67540Y-25640
X69620Y-24420
X75675Y-42700
X76600Y-42675
X59660Y-23000
X59460Y-21540
T5
X64400Y-21140
X65900Y-22000
X69600Y-22729
X69600Y-23320
T6
X71550Y-22010
X72050Y-22010
X72550Y-22010
T7
X65125Y-44350
X65125Y-44850
X65125Y-45350
X66600Y-45275
X67100Y-45275
X67600Y-45275
T8
X53525Y-37150
X53525Y-40150
X54525Y-37150
X54525Y-40150
X55525Y-37150
X55525Y-40150
X56525Y-37150
X56525Y-40150
X57525Y-37150
X57525Y-40150
X58525Y-37150
X58525Y-40150
X59525Y-37150
X59525Y-40150
X60525Y-37150
X60525Y-40150
X61525Y-37150
X61525Y-40150
X62525Y-37150
X62525Y-40150
X63525Y-37150
X63525Y-40150
X64525Y-37150
X64525Y-40150
X65525Y-37150
X65525Y-40150
X66525Y-37150
X66525Y-40150
X69025Y-45375
X70009Y-45375
X57429Y-34425
X59350Y-34425
X68175Y-38525
X68175Y-39525
X68175Y-40525
X68175Y-41525
X71175Y-38525
X71175Y-39525
X71175Y-40525
X71175Y-41525
T9
X77150Y-44700
X77150Y-45700
X73500Y-47450
X73500Y-48450
X74500Y-47450
X74500Y-48450
X75500Y-47450
X75500Y-48450
X76500Y-47450
X76500Y-48450
X77500Y-47450
X77500Y-48450
X71550Y-45950
X72550Y-45950
X57850Y-19006
X57850Y-20006
X58850Y-19006
X58850Y-20006
X59850Y-19006
X59850Y-20006
X60850Y-19006
X60850Y-20006
X61850Y-19006
X61850Y-20006
X62850Y-19006
X62850Y-20006
X63850Y-19006
X63850Y-20006
X64850Y-19006
X64850Y-20006
X65850Y-19006
X65850Y-20006
X66850Y-19006
X66850Y-20006
X67850Y-19006
X67850Y-20006
X68850Y-19006
X68850Y-20006
X69850Y-19006
X69850Y-20006
X70850Y-19006
X70850Y-20006
X71850Y-19006
X71850Y-20006
X72850Y-19006
X72850Y-20006
X73850Y-19006
X73850Y-20006
X74850Y-19006
X74850Y-20006
X75850Y-19006
X75850Y-20006
X76850Y-19006
X76850Y-20006
X71550Y-44500
X72550Y-44500
X73325Y-35063
X73325Y-36153
X73325Y-37244
X73325Y-38334
X73325Y-39425
X74443Y-35608
X74443Y-36699
X74443Y-37789
X74443Y-38880
X75700Y-44700
X75700Y-45700
X55512Y-47425
X55512Y-48425
X56512Y-47425
X56512Y-48425
X57512Y-47425
X57512Y-48425
X58512Y-47425
X58512Y-48425
X59512Y-47425
X59512Y-48425
X60512Y-47425
X60512Y-48425
X61512Y-47425
X61512Y-48425
X62512Y-47425
X62512Y-48425
X63512Y-47425
X63512Y-48425
X64512Y-47425
X64512Y-48425
X65512Y-47425
X65512Y-48425
X66512Y-47425
X66512Y-48425
X67512Y-47425
X67512Y-48425
X68512Y-47425
X68512Y-48425
X69512Y-47425
X69512Y-48425
X70512Y-47425
X70512Y-48425
X71512Y-47425
X71512Y-48425
T10
X52600Y-20700
T11
X51600Y-19700
X51600Y-21700
X53600Y-19700
X53600Y-21700
T12
X73443Y-32323
X73443Y-42165
T0
M30
