G04 #@! TF.GenerationSoftware,KiCad,Pcbnew,(5.1.5)-3*
G04 #@! TF.CreationDate,2020-04-30T00:21:43-07:00*
G04 #@! TF.ProjectId,DashSight-Mezzanine-Card,44617368-5369-4676-9874-2d4d657a7a61,rev?*
G04 #@! TF.SameCoordinates,Original*
G04 #@! TF.FileFunction,Paste,Bot*
G04 #@! TF.FilePolarity,Positive*
%FSLAX46Y46*%
G04 Gerber Fmt 4.6, Leading zero omitted, Abs format (unit mm)*
G04 Created by KiCad (PCBNEW (5.1.5)-3) date 2020-04-30 00:21:43*
%MOMM*%
%LPD*%
G04 APERTURE LIST*
%ADD10C,0.100000*%
%ADD11R,0.900000X0.800000*%
%ADD12R,0.900000X0.500000*%
%ADD13R,0.900000X1.200000*%
%ADD14R,0.500000X0.900000*%
G04 APERTURE END LIST*
D10*
G36*
X168197091Y-62047453D02*
G01*
X168218326Y-62050603D01*
X168239150Y-62055819D01*
X168259362Y-62063051D01*
X168278768Y-62072230D01*
X168297181Y-62083266D01*
X168314424Y-62096054D01*
X168330330Y-62110470D01*
X168344746Y-62126376D01*
X168357534Y-62143619D01*
X168368570Y-62162032D01*
X168377749Y-62181438D01*
X168384981Y-62201650D01*
X168390197Y-62222474D01*
X168393347Y-62243709D01*
X168394400Y-62265150D01*
X168394400Y-62702650D01*
X168393347Y-62724091D01*
X168390197Y-62745326D01*
X168384981Y-62766150D01*
X168377749Y-62786362D01*
X168368570Y-62805768D01*
X168357534Y-62824181D01*
X168344746Y-62841424D01*
X168330330Y-62857330D01*
X168314424Y-62871746D01*
X168297181Y-62884534D01*
X168278768Y-62895570D01*
X168259362Y-62904749D01*
X168239150Y-62911981D01*
X168218326Y-62917197D01*
X168197091Y-62920347D01*
X168175650Y-62921400D01*
X167663150Y-62921400D01*
X167641709Y-62920347D01*
X167620474Y-62917197D01*
X167599650Y-62911981D01*
X167579438Y-62904749D01*
X167560032Y-62895570D01*
X167541619Y-62884534D01*
X167524376Y-62871746D01*
X167508470Y-62857330D01*
X167494054Y-62841424D01*
X167481266Y-62824181D01*
X167470230Y-62805768D01*
X167461051Y-62786362D01*
X167453819Y-62766150D01*
X167448603Y-62745326D01*
X167445453Y-62724091D01*
X167444400Y-62702650D01*
X167444400Y-62265150D01*
X167445453Y-62243709D01*
X167448603Y-62222474D01*
X167453819Y-62201650D01*
X167461051Y-62181438D01*
X167470230Y-62162032D01*
X167481266Y-62143619D01*
X167494054Y-62126376D01*
X167508470Y-62110470D01*
X167524376Y-62096054D01*
X167541619Y-62083266D01*
X167560032Y-62072230D01*
X167579438Y-62063051D01*
X167599650Y-62055819D01*
X167620474Y-62050603D01*
X167641709Y-62047453D01*
X167663150Y-62046400D01*
X168175650Y-62046400D01*
X168197091Y-62047453D01*
G37*
G36*
X168197091Y-63622453D02*
G01*
X168218326Y-63625603D01*
X168239150Y-63630819D01*
X168259362Y-63638051D01*
X168278768Y-63647230D01*
X168297181Y-63658266D01*
X168314424Y-63671054D01*
X168330330Y-63685470D01*
X168344746Y-63701376D01*
X168357534Y-63718619D01*
X168368570Y-63737032D01*
X168377749Y-63756438D01*
X168384981Y-63776650D01*
X168390197Y-63797474D01*
X168393347Y-63818709D01*
X168394400Y-63840150D01*
X168394400Y-64277650D01*
X168393347Y-64299091D01*
X168390197Y-64320326D01*
X168384981Y-64341150D01*
X168377749Y-64361362D01*
X168368570Y-64380768D01*
X168357534Y-64399181D01*
X168344746Y-64416424D01*
X168330330Y-64432330D01*
X168314424Y-64446746D01*
X168297181Y-64459534D01*
X168278768Y-64470570D01*
X168259362Y-64479749D01*
X168239150Y-64486981D01*
X168218326Y-64492197D01*
X168197091Y-64495347D01*
X168175650Y-64496400D01*
X167663150Y-64496400D01*
X167641709Y-64495347D01*
X167620474Y-64492197D01*
X167599650Y-64486981D01*
X167579438Y-64479749D01*
X167560032Y-64470570D01*
X167541619Y-64459534D01*
X167524376Y-64446746D01*
X167508470Y-64432330D01*
X167494054Y-64416424D01*
X167481266Y-64399181D01*
X167470230Y-64380768D01*
X167461051Y-64361362D01*
X167453819Y-64341150D01*
X167448603Y-64320326D01*
X167445453Y-64299091D01*
X167444400Y-64277650D01*
X167444400Y-63840150D01*
X167445453Y-63818709D01*
X167448603Y-63797474D01*
X167453819Y-63776650D01*
X167461051Y-63756438D01*
X167470230Y-63737032D01*
X167481266Y-63718619D01*
X167494054Y-63701376D01*
X167508470Y-63685470D01*
X167524376Y-63671054D01*
X167541619Y-63658266D01*
X167560032Y-63647230D01*
X167579438Y-63638051D01*
X167599650Y-63630819D01*
X167620474Y-63625603D01*
X167641709Y-63622453D01*
X167663150Y-63621400D01*
X168175650Y-63621400D01*
X168197091Y-63622453D01*
G37*
G36*
X168171691Y-60472853D02*
G01*
X168192926Y-60476003D01*
X168213750Y-60481219D01*
X168233962Y-60488451D01*
X168253368Y-60497630D01*
X168271781Y-60508666D01*
X168289024Y-60521454D01*
X168304930Y-60535870D01*
X168319346Y-60551776D01*
X168332134Y-60569019D01*
X168343170Y-60587432D01*
X168352349Y-60606838D01*
X168359581Y-60627050D01*
X168364797Y-60647874D01*
X168367947Y-60669109D01*
X168369000Y-60690550D01*
X168369000Y-61128050D01*
X168367947Y-61149491D01*
X168364797Y-61170726D01*
X168359581Y-61191550D01*
X168352349Y-61211762D01*
X168343170Y-61231168D01*
X168332134Y-61249581D01*
X168319346Y-61266824D01*
X168304930Y-61282730D01*
X168289024Y-61297146D01*
X168271781Y-61309934D01*
X168253368Y-61320970D01*
X168233962Y-61330149D01*
X168213750Y-61337381D01*
X168192926Y-61342597D01*
X168171691Y-61345747D01*
X168150250Y-61346800D01*
X167637750Y-61346800D01*
X167616309Y-61345747D01*
X167595074Y-61342597D01*
X167574250Y-61337381D01*
X167554038Y-61330149D01*
X167534632Y-61320970D01*
X167516219Y-61309934D01*
X167498976Y-61297146D01*
X167483070Y-61282730D01*
X167468654Y-61266824D01*
X167455866Y-61249581D01*
X167444830Y-61231168D01*
X167435651Y-61211762D01*
X167428419Y-61191550D01*
X167423203Y-61170726D01*
X167420053Y-61149491D01*
X167419000Y-61128050D01*
X167419000Y-60690550D01*
X167420053Y-60669109D01*
X167423203Y-60647874D01*
X167428419Y-60627050D01*
X167435651Y-60606838D01*
X167444830Y-60587432D01*
X167455866Y-60569019D01*
X167468654Y-60551776D01*
X167483070Y-60535870D01*
X167498976Y-60521454D01*
X167516219Y-60508666D01*
X167534632Y-60497630D01*
X167554038Y-60488451D01*
X167574250Y-60481219D01*
X167595074Y-60476003D01*
X167616309Y-60472853D01*
X167637750Y-60471800D01*
X168150250Y-60471800D01*
X168171691Y-60472853D01*
G37*
G36*
X168171691Y-58897853D02*
G01*
X168192926Y-58901003D01*
X168213750Y-58906219D01*
X168233962Y-58913451D01*
X168253368Y-58922630D01*
X168271781Y-58933666D01*
X168289024Y-58946454D01*
X168304930Y-58960870D01*
X168319346Y-58976776D01*
X168332134Y-58994019D01*
X168343170Y-59012432D01*
X168352349Y-59031838D01*
X168359581Y-59052050D01*
X168364797Y-59072874D01*
X168367947Y-59094109D01*
X168369000Y-59115550D01*
X168369000Y-59553050D01*
X168367947Y-59574491D01*
X168364797Y-59595726D01*
X168359581Y-59616550D01*
X168352349Y-59636762D01*
X168343170Y-59656168D01*
X168332134Y-59674581D01*
X168319346Y-59691824D01*
X168304930Y-59707730D01*
X168289024Y-59722146D01*
X168271781Y-59734934D01*
X168253368Y-59745970D01*
X168233962Y-59755149D01*
X168213750Y-59762381D01*
X168192926Y-59767597D01*
X168171691Y-59770747D01*
X168150250Y-59771800D01*
X167637750Y-59771800D01*
X167616309Y-59770747D01*
X167595074Y-59767597D01*
X167574250Y-59762381D01*
X167554038Y-59755149D01*
X167534632Y-59745970D01*
X167516219Y-59734934D01*
X167498976Y-59722146D01*
X167483070Y-59707730D01*
X167468654Y-59691824D01*
X167455866Y-59674581D01*
X167444830Y-59656168D01*
X167435651Y-59636762D01*
X167428419Y-59616550D01*
X167423203Y-59595726D01*
X167420053Y-59574491D01*
X167419000Y-59553050D01*
X167419000Y-59115550D01*
X167420053Y-59094109D01*
X167423203Y-59072874D01*
X167428419Y-59052050D01*
X167435651Y-59031838D01*
X167444830Y-59012432D01*
X167455866Y-58994019D01*
X167468654Y-58976776D01*
X167483070Y-58960870D01*
X167498976Y-58946454D01*
X167516219Y-58933666D01*
X167534632Y-58922630D01*
X167554038Y-58913451D01*
X167574250Y-58906219D01*
X167595074Y-58901003D01*
X167616309Y-58897853D01*
X167637750Y-58896800D01*
X168150250Y-58896800D01*
X168171691Y-58897853D01*
G37*
G36*
X170711691Y-68524453D02*
G01*
X170732926Y-68527603D01*
X170753750Y-68532819D01*
X170773962Y-68540051D01*
X170793368Y-68549230D01*
X170811781Y-68560266D01*
X170829024Y-68573054D01*
X170844930Y-68587470D01*
X170859346Y-68603376D01*
X170872134Y-68620619D01*
X170883170Y-68639032D01*
X170892349Y-68658438D01*
X170899581Y-68678650D01*
X170904797Y-68699474D01*
X170907947Y-68720709D01*
X170909000Y-68742150D01*
X170909000Y-69179650D01*
X170907947Y-69201091D01*
X170904797Y-69222326D01*
X170899581Y-69243150D01*
X170892349Y-69263362D01*
X170883170Y-69282768D01*
X170872134Y-69301181D01*
X170859346Y-69318424D01*
X170844930Y-69334330D01*
X170829024Y-69348746D01*
X170811781Y-69361534D01*
X170793368Y-69372570D01*
X170773962Y-69381749D01*
X170753750Y-69388981D01*
X170732926Y-69394197D01*
X170711691Y-69397347D01*
X170690250Y-69398400D01*
X170177750Y-69398400D01*
X170156309Y-69397347D01*
X170135074Y-69394197D01*
X170114250Y-69388981D01*
X170094038Y-69381749D01*
X170074632Y-69372570D01*
X170056219Y-69361534D01*
X170038976Y-69348746D01*
X170023070Y-69334330D01*
X170008654Y-69318424D01*
X169995866Y-69301181D01*
X169984830Y-69282768D01*
X169975651Y-69263362D01*
X169968419Y-69243150D01*
X169963203Y-69222326D01*
X169960053Y-69201091D01*
X169959000Y-69179650D01*
X169959000Y-68742150D01*
X169960053Y-68720709D01*
X169963203Y-68699474D01*
X169968419Y-68678650D01*
X169975651Y-68658438D01*
X169984830Y-68639032D01*
X169995866Y-68620619D01*
X170008654Y-68603376D01*
X170023070Y-68587470D01*
X170038976Y-68573054D01*
X170056219Y-68560266D01*
X170074632Y-68549230D01*
X170094038Y-68540051D01*
X170114250Y-68532819D01*
X170135074Y-68527603D01*
X170156309Y-68524453D01*
X170177750Y-68523400D01*
X170690250Y-68523400D01*
X170711691Y-68524453D01*
G37*
G36*
X170711691Y-70099453D02*
G01*
X170732926Y-70102603D01*
X170753750Y-70107819D01*
X170773962Y-70115051D01*
X170793368Y-70124230D01*
X170811781Y-70135266D01*
X170829024Y-70148054D01*
X170844930Y-70162470D01*
X170859346Y-70178376D01*
X170872134Y-70195619D01*
X170883170Y-70214032D01*
X170892349Y-70233438D01*
X170899581Y-70253650D01*
X170904797Y-70274474D01*
X170907947Y-70295709D01*
X170909000Y-70317150D01*
X170909000Y-70754650D01*
X170907947Y-70776091D01*
X170904797Y-70797326D01*
X170899581Y-70818150D01*
X170892349Y-70838362D01*
X170883170Y-70857768D01*
X170872134Y-70876181D01*
X170859346Y-70893424D01*
X170844930Y-70909330D01*
X170829024Y-70923746D01*
X170811781Y-70936534D01*
X170793368Y-70947570D01*
X170773962Y-70956749D01*
X170753750Y-70963981D01*
X170732926Y-70969197D01*
X170711691Y-70972347D01*
X170690250Y-70973400D01*
X170177750Y-70973400D01*
X170156309Y-70972347D01*
X170135074Y-70969197D01*
X170114250Y-70963981D01*
X170094038Y-70956749D01*
X170074632Y-70947570D01*
X170056219Y-70936534D01*
X170038976Y-70923746D01*
X170023070Y-70909330D01*
X170008654Y-70893424D01*
X169995866Y-70876181D01*
X169984830Y-70857768D01*
X169975651Y-70838362D01*
X169968419Y-70818150D01*
X169963203Y-70797326D01*
X169960053Y-70776091D01*
X169959000Y-70754650D01*
X169959000Y-70317150D01*
X169960053Y-70295709D01*
X169963203Y-70274474D01*
X169968419Y-70253650D01*
X169975651Y-70233438D01*
X169984830Y-70214032D01*
X169995866Y-70195619D01*
X170008654Y-70178376D01*
X170023070Y-70162470D01*
X170038976Y-70148054D01*
X170056219Y-70135266D01*
X170074632Y-70124230D01*
X170094038Y-70115051D01*
X170114250Y-70107819D01*
X170135074Y-70102603D01*
X170156309Y-70099453D01*
X170177750Y-70098400D01*
X170690250Y-70098400D01*
X170711691Y-70099453D01*
G37*
G36*
X170711691Y-65374853D02*
G01*
X170732926Y-65378003D01*
X170753750Y-65383219D01*
X170773962Y-65390451D01*
X170793368Y-65399630D01*
X170811781Y-65410666D01*
X170829024Y-65423454D01*
X170844930Y-65437870D01*
X170859346Y-65453776D01*
X170872134Y-65471019D01*
X170883170Y-65489432D01*
X170892349Y-65508838D01*
X170899581Y-65529050D01*
X170904797Y-65549874D01*
X170907947Y-65571109D01*
X170909000Y-65592550D01*
X170909000Y-66030050D01*
X170907947Y-66051491D01*
X170904797Y-66072726D01*
X170899581Y-66093550D01*
X170892349Y-66113762D01*
X170883170Y-66133168D01*
X170872134Y-66151581D01*
X170859346Y-66168824D01*
X170844930Y-66184730D01*
X170829024Y-66199146D01*
X170811781Y-66211934D01*
X170793368Y-66222970D01*
X170773962Y-66232149D01*
X170753750Y-66239381D01*
X170732926Y-66244597D01*
X170711691Y-66247747D01*
X170690250Y-66248800D01*
X170177750Y-66248800D01*
X170156309Y-66247747D01*
X170135074Y-66244597D01*
X170114250Y-66239381D01*
X170094038Y-66232149D01*
X170074632Y-66222970D01*
X170056219Y-66211934D01*
X170038976Y-66199146D01*
X170023070Y-66184730D01*
X170008654Y-66168824D01*
X169995866Y-66151581D01*
X169984830Y-66133168D01*
X169975651Y-66113762D01*
X169968419Y-66093550D01*
X169963203Y-66072726D01*
X169960053Y-66051491D01*
X169959000Y-66030050D01*
X169959000Y-65592550D01*
X169960053Y-65571109D01*
X169963203Y-65549874D01*
X169968419Y-65529050D01*
X169975651Y-65508838D01*
X169984830Y-65489432D01*
X169995866Y-65471019D01*
X170008654Y-65453776D01*
X170023070Y-65437870D01*
X170038976Y-65423454D01*
X170056219Y-65410666D01*
X170074632Y-65399630D01*
X170094038Y-65390451D01*
X170114250Y-65383219D01*
X170135074Y-65378003D01*
X170156309Y-65374853D01*
X170177750Y-65373800D01*
X170690250Y-65373800D01*
X170711691Y-65374853D01*
G37*
G36*
X170711691Y-66949853D02*
G01*
X170732926Y-66953003D01*
X170753750Y-66958219D01*
X170773962Y-66965451D01*
X170793368Y-66974630D01*
X170811781Y-66985666D01*
X170829024Y-66998454D01*
X170844930Y-67012870D01*
X170859346Y-67028776D01*
X170872134Y-67046019D01*
X170883170Y-67064432D01*
X170892349Y-67083838D01*
X170899581Y-67104050D01*
X170904797Y-67124874D01*
X170907947Y-67146109D01*
X170909000Y-67167550D01*
X170909000Y-67605050D01*
X170907947Y-67626491D01*
X170904797Y-67647726D01*
X170899581Y-67668550D01*
X170892349Y-67688762D01*
X170883170Y-67708168D01*
X170872134Y-67726581D01*
X170859346Y-67743824D01*
X170844930Y-67759730D01*
X170829024Y-67774146D01*
X170811781Y-67786934D01*
X170793368Y-67797970D01*
X170773962Y-67807149D01*
X170753750Y-67814381D01*
X170732926Y-67819597D01*
X170711691Y-67822747D01*
X170690250Y-67823800D01*
X170177750Y-67823800D01*
X170156309Y-67822747D01*
X170135074Y-67819597D01*
X170114250Y-67814381D01*
X170094038Y-67807149D01*
X170074632Y-67797970D01*
X170056219Y-67786934D01*
X170038976Y-67774146D01*
X170023070Y-67759730D01*
X170008654Y-67743824D01*
X169995866Y-67726581D01*
X169984830Y-67708168D01*
X169975651Y-67688762D01*
X169968419Y-67668550D01*
X169963203Y-67647726D01*
X169960053Y-67626491D01*
X169959000Y-67605050D01*
X169959000Y-67167550D01*
X169960053Y-67146109D01*
X169963203Y-67124874D01*
X169968419Y-67104050D01*
X169975651Y-67083838D01*
X169984830Y-67064432D01*
X169995866Y-67046019D01*
X170008654Y-67028776D01*
X170023070Y-67012870D01*
X170038976Y-66998454D01*
X170056219Y-66985666D01*
X170074632Y-66974630D01*
X170094038Y-66965451D01*
X170114250Y-66958219D01*
X170135074Y-66953003D01*
X170156309Y-66949853D01*
X170177750Y-66948800D01*
X170690250Y-66948800D01*
X170711691Y-66949853D01*
G37*
D11*
X161210500Y-110045500D03*
X159210500Y-109095500D03*
X159210500Y-110995500D03*
X143526000Y-108013500D03*
X145526000Y-108963500D03*
X145526000Y-107063500D03*
X144923000Y-112268000D03*
X146923000Y-113218000D03*
X146923000Y-111318000D03*
X150828500Y-113347500D03*
X152828500Y-114297500D03*
X152828500Y-112397500D03*
D12*
X142494000Y-113335500D03*
X142494000Y-111835500D03*
D13*
X176719500Y-109156500D03*
X173419500Y-109156500D03*
X148589000Y-115824000D03*
X145289000Y-115824000D03*
D14*
X166802500Y-110172500D03*
X165302500Y-110172500D03*
X138315000Y-108966000D03*
X139815000Y-108966000D03*
X138759500Y-112522000D03*
X140259500Y-112522000D03*
D12*
X141541500Y-109525500D03*
X141541500Y-108025500D03*
X157607000Y-107835000D03*
X157607000Y-109335000D03*
D14*
X141998000Y-116268500D03*
X143498000Y-116268500D03*
D12*
X148971000Y-112319500D03*
X148971000Y-110819500D03*
X149860000Y-107557000D03*
X149860000Y-106057000D03*
M02*
