G04 #@! TF.GenerationSoftware,KiCad,Pcbnew,(5.1.5)-3*
G04 #@! TF.CreationDate,2020-04-29T23:57:10-07:00*
G04 #@! TF.ProjectId,DashSight-Mezzanine-Card,44617368-5369-4676-9874-2d4d657a7a61,rev?*
G04 #@! TF.SameCoordinates,Original*
G04 #@! TF.FileFunction,Soldermask,Bot*
G04 #@! TF.FilePolarity,Negative*
%FSLAX46Y46*%
G04 Gerber Fmt 4.6, Leading zero omitted, Abs format (unit mm)*
G04 Created by KiCad (PCBNEW (5.1.5)-3) date 2020-04-29 23:57:10*
%MOMM*%
%LPD*%
G04 APERTURE LIST*
%ADD10C,0.100000*%
G04 APERTURE END LIST*
D10*
G36*
X198113935Y-122245664D02*
G01*
X198268624Y-122309739D01*
X198268626Y-122309740D01*
X198407844Y-122402762D01*
X198526238Y-122521156D01*
X198577166Y-122597376D01*
X198619261Y-122660376D01*
X198683336Y-122815065D01*
X198716000Y-122979281D01*
X198716000Y-123146719D01*
X198683336Y-123310935D01*
X198645356Y-123402626D01*
X198619260Y-123465626D01*
X198526238Y-123604844D01*
X198407844Y-123723238D01*
X198268626Y-123816260D01*
X198268625Y-123816261D01*
X198268624Y-123816261D01*
X198113935Y-123880336D01*
X197949719Y-123913000D01*
X197782281Y-123913000D01*
X197618065Y-123880336D01*
X197463376Y-123816261D01*
X197463375Y-123816261D01*
X197463374Y-123816260D01*
X197324156Y-123723238D01*
X197205762Y-123604844D01*
X197112740Y-123465626D01*
X197086644Y-123402626D01*
X197048664Y-123310935D01*
X197016000Y-123146719D01*
X197016000Y-122979281D01*
X197048664Y-122815065D01*
X197112739Y-122660376D01*
X197154834Y-122597376D01*
X197205762Y-122521156D01*
X197324156Y-122402762D01*
X197463374Y-122309740D01*
X197463376Y-122309739D01*
X197618065Y-122245664D01*
X197782281Y-122213000D01*
X197949719Y-122213000D01*
X198113935Y-122245664D01*
G37*
G36*
X195573935Y-122245664D02*
G01*
X195728624Y-122309739D01*
X195728626Y-122309740D01*
X195867844Y-122402762D01*
X195986238Y-122521156D01*
X196037166Y-122597376D01*
X196079261Y-122660376D01*
X196143336Y-122815065D01*
X196176000Y-122979281D01*
X196176000Y-123146719D01*
X196143336Y-123310935D01*
X196105356Y-123402626D01*
X196079260Y-123465626D01*
X195986238Y-123604844D01*
X195867844Y-123723238D01*
X195728626Y-123816260D01*
X195728625Y-123816261D01*
X195728624Y-123816261D01*
X195573935Y-123880336D01*
X195409719Y-123913000D01*
X195242281Y-123913000D01*
X195078065Y-123880336D01*
X194923376Y-123816261D01*
X194923375Y-123816261D01*
X194923374Y-123816260D01*
X194784156Y-123723238D01*
X194665762Y-123604844D01*
X194572740Y-123465626D01*
X194546644Y-123402626D01*
X194508664Y-123310935D01*
X194476000Y-123146719D01*
X194476000Y-122979281D01*
X194508664Y-122815065D01*
X194572739Y-122660376D01*
X194614834Y-122597376D01*
X194665762Y-122521156D01*
X194784156Y-122402762D01*
X194923374Y-122309740D01*
X194923376Y-122309739D01*
X195078065Y-122245664D01*
X195242281Y-122213000D01*
X195409719Y-122213000D01*
X195573935Y-122245664D01*
G37*
G36*
X188556000Y-123913000D02*
G01*
X186856000Y-123913000D01*
X186856000Y-122213000D01*
X188556000Y-122213000D01*
X188556000Y-123913000D01*
G37*
G36*
X193033935Y-122245664D02*
G01*
X193188624Y-122309739D01*
X193188626Y-122309740D01*
X193327844Y-122402762D01*
X193446238Y-122521156D01*
X193497166Y-122597376D01*
X193539261Y-122660376D01*
X193603336Y-122815065D01*
X193636000Y-122979281D01*
X193636000Y-123146719D01*
X193603336Y-123310935D01*
X193565356Y-123402626D01*
X193539260Y-123465626D01*
X193446238Y-123604844D01*
X193327844Y-123723238D01*
X193188626Y-123816260D01*
X193188625Y-123816261D01*
X193188624Y-123816261D01*
X193033935Y-123880336D01*
X192869719Y-123913000D01*
X192702281Y-123913000D01*
X192538065Y-123880336D01*
X192383376Y-123816261D01*
X192383375Y-123816261D01*
X192383374Y-123816260D01*
X192244156Y-123723238D01*
X192125762Y-123604844D01*
X192032740Y-123465626D01*
X192006644Y-123402626D01*
X191968664Y-123310935D01*
X191936000Y-123146719D01*
X191936000Y-122979281D01*
X191968664Y-122815065D01*
X192032739Y-122660376D01*
X192074834Y-122597376D01*
X192125762Y-122521156D01*
X192244156Y-122402762D01*
X192383374Y-122309740D01*
X192383376Y-122309739D01*
X192538065Y-122245664D01*
X192702281Y-122213000D01*
X192869719Y-122213000D01*
X193033935Y-122245664D01*
G37*
G36*
X190493935Y-122245664D02*
G01*
X190648624Y-122309739D01*
X190648626Y-122309740D01*
X190787844Y-122402762D01*
X190906238Y-122521156D01*
X190957166Y-122597376D01*
X190999261Y-122660376D01*
X191063336Y-122815065D01*
X191096000Y-122979281D01*
X191096000Y-123146719D01*
X191063336Y-123310935D01*
X191025356Y-123402626D01*
X190999260Y-123465626D01*
X190906238Y-123604844D01*
X190787844Y-123723238D01*
X190648626Y-123816260D01*
X190648625Y-123816261D01*
X190648624Y-123816261D01*
X190493935Y-123880336D01*
X190329719Y-123913000D01*
X190162281Y-123913000D01*
X189998065Y-123880336D01*
X189843376Y-123816261D01*
X189843375Y-123816261D01*
X189843374Y-123816260D01*
X189704156Y-123723238D01*
X189585762Y-123604844D01*
X189492740Y-123465626D01*
X189466644Y-123402626D01*
X189428664Y-123310935D01*
X189396000Y-123146719D01*
X189396000Y-122979281D01*
X189428664Y-122815065D01*
X189492739Y-122660376D01*
X189534834Y-122597376D01*
X189585762Y-122521156D01*
X189704156Y-122402762D01*
X189843374Y-122309740D01*
X189843376Y-122309739D01*
X189998065Y-122245664D01*
X190162281Y-122213000D01*
X190329719Y-122213000D01*
X190493935Y-122245664D01*
G37*
G36*
X146327935Y-122182664D02*
G01*
X146480031Y-122245665D01*
X146482626Y-122246740D01*
X146621844Y-122339762D01*
X146740238Y-122458156D01*
X146833260Y-122597374D01*
X146833261Y-122597376D01*
X146897336Y-122752065D01*
X146930000Y-122916281D01*
X146930000Y-123083719D01*
X146897336Y-123247935D01*
X146833261Y-123402624D01*
X146833260Y-123402626D01*
X146740238Y-123541844D01*
X146621844Y-123660238D01*
X146482626Y-123753260D01*
X146482625Y-123753261D01*
X146482624Y-123753261D01*
X146327935Y-123817336D01*
X146163719Y-123850000D01*
X145996281Y-123850000D01*
X145832065Y-123817336D01*
X145677376Y-123753261D01*
X145677375Y-123753261D01*
X145677374Y-123753260D01*
X145538156Y-123660238D01*
X145419762Y-123541844D01*
X145326740Y-123402626D01*
X145326739Y-123402624D01*
X145262664Y-123247935D01*
X145230000Y-123083719D01*
X145230000Y-122916281D01*
X145262664Y-122752065D01*
X145326739Y-122597376D01*
X145326740Y-122597374D01*
X145419762Y-122458156D01*
X145538156Y-122339762D01*
X145677374Y-122246740D01*
X145679969Y-122245665D01*
X145832065Y-122182664D01*
X145996281Y-122150000D01*
X146163719Y-122150000D01*
X146327935Y-122182664D01*
G37*
G36*
X141850000Y-123850000D02*
G01*
X140150000Y-123850000D01*
X140150000Y-122150000D01*
X141850000Y-122150000D01*
X141850000Y-123850000D01*
G37*
G36*
X143787935Y-122182664D02*
G01*
X143940031Y-122245665D01*
X143942626Y-122246740D01*
X144081844Y-122339762D01*
X144200238Y-122458156D01*
X144293260Y-122597374D01*
X144293261Y-122597376D01*
X144357336Y-122752065D01*
X144390000Y-122916281D01*
X144390000Y-123083719D01*
X144357336Y-123247935D01*
X144293261Y-123402624D01*
X144293260Y-123402626D01*
X144200238Y-123541844D01*
X144081844Y-123660238D01*
X143942626Y-123753260D01*
X143942625Y-123753261D01*
X143942624Y-123753261D01*
X143787935Y-123817336D01*
X143623719Y-123850000D01*
X143456281Y-123850000D01*
X143292065Y-123817336D01*
X143137376Y-123753261D01*
X143137375Y-123753261D01*
X143137374Y-123753260D01*
X142998156Y-123660238D01*
X142879762Y-123541844D01*
X142786740Y-123402626D01*
X142786739Y-123402624D01*
X142722664Y-123247935D01*
X142690000Y-123083719D01*
X142690000Y-122916281D01*
X142722664Y-122752065D01*
X142786739Y-122597376D01*
X142786740Y-122597374D01*
X142879762Y-122458156D01*
X142998156Y-122339762D01*
X143137374Y-122246740D01*
X143139969Y-122245665D01*
X143292065Y-122182664D01*
X143456281Y-122150000D01*
X143623719Y-122150000D01*
X143787935Y-122182664D01*
G37*
G36*
X148867935Y-122182664D02*
G01*
X149020031Y-122245665D01*
X149022626Y-122246740D01*
X149161844Y-122339762D01*
X149280238Y-122458156D01*
X149373260Y-122597374D01*
X149373261Y-122597376D01*
X149437336Y-122752065D01*
X149470000Y-122916281D01*
X149470000Y-123083719D01*
X149437336Y-123247935D01*
X149373261Y-123402624D01*
X149373260Y-123402626D01*
X149280238Y-123541844D01*
X149161844Y-123660238D01*
X149022626Y-123753260D01*
X149022625Y-123753261D01*
X149022624Y-123753261D01*
X148867935Y-123817336D01*
X148703719Y-123850000D01*
X148536281Y-123850000D01*
X148372065Y-123817336D01*
X148217376Y-123753261D01*
X148217375Y-123753261D01*
X148217374Y-123753260D01*
X148078156Y-123660238D01*
X147959762Y-123541844D01*
X147866740Y-123402626D01*
X147866739Y-123402624D01*
X147802664Y-123247935D01*
X147770000Y-123083719D01*
X147770000Y-122916281D01*
X147802664Y-122752065D01*
X147866739Y-122597376D01*
X147866740Y-122597374D01*
X147959762Y-122458156D01*
X148078156Y-122339762D01*
X148217374Y-122246740D01*
X148219969Y-122245665D01*
X148372065Y-122182664D01*
X148536281Y-122150000D01*
X148703719Y-122150000D01*
X148867935Y-122182664D01*
G37*
G36*
X151407935Y-122182664D02*
G01*
X151560031Y-122245665D01*
X151562626Y-122246740D01*
X151701844Y-122339762D01*
X151820238Y-122458156D01*
X151913260Y-122597374D01*
X151913261Y-122597376D01*
X151977336Y-122752065D01*
X152010000Y-122916281D01*
X152010000Y-123083719D01*
X151977336Y-123247935D01*
X151913261Y-123402624D01*
X151913260Y-123402626D01*
X151820238Y-123541844D01*
X151701844Y-123660238D01*
X151562626Y-123753260D01*
X151562625Y-123753261D01*
X151562624Y-123753261D01*
X151407935Y-123817336D01*
X151243719Y-123850000D01*
X151076281Y-123850000D01*
X150912065Y-123817336D01*
X150757376Y-123753261D01*
X150757375Y-123753261D01*
X150757374Y-123753260D01*
X150618156Y-123660238D01*
X150499762Y-123541844D01*
X150406740Y-123402626D01*
X150406739Y-123402624D01*
X150342664Y-123247935D01*
X150310000Y-123083719D01*
X150310000Y-122916281D01*
X150342664Y-122752065D01*
X150406739Y-122597376D01*
X150406740Y-122597374D01*
X150499762Y-122458156D01*
X150618156Y-122339762D01*
X150757374Y-122246740D01*
X150759969Y-122245665D01*
X150912065Y-122182664D01*
X151076281Y-122150000D01*
X151243719Y-122150000D01*
X151407935Y-122182664D01*
G37*
G36*
X153947935Y-122182664D02*
G01*
X154100031Y-122245665D01*
X154102626Y-122246740D01*
X154241844Y-122339762D01*
X154360238Y-122458156D01*
X154453260Y-122597374D01*
X154453261Y-122597376D01*
X154517336Y-122752065D01*
X154550000Y-122916281D01*
X154550000Y-123083719D01*
X154517336Y-123247935D01*
X154453261Y-123402624D01*
X154453260Y-123402626D01*
X154360238Y-123541844D01*
X154241844Y-123660238D01*
X154102626Y-123753260D01*
X154102625Y-123753261D01*
X154102624Y-123753261D01*
X153947935Y-123817336D01*
X153783719Y-123850000D01*
X153616281Y-123850000D01*
X153452065Y-123817336D01*
X153297376Y-123753261D01*
X153297375Y-123753261D01*
X153297374Y-123753260D01*
X153158156Y-123660238D01*
X153039762Y-123541844D01*
X152946740Y-123402626D01*
X152946739Y-123402624D01*
X152882664Y-123247935D01*
X152850000Y-123083719D01*
X152850000Y-122916281D01*
X152882664Y-122752065D01*
X152946739Y-122597376D01*
X152946740Y-122597374D01*
X153039762Y-122458156D01*
X153158156Y-122339762D01*
X153297374Y-122246740D01*
X153299969Y-122245665D01*
X153452065Y-122182664D01*
X153616281Y-122150000D01*
X153783719Y-122150000D01*
X153947935Y-122182664D01*
G37*
G36*
X156487935Y-122182664D02*
G01*
X156640031Y-122245665D01*
X156642626Y-122246740D01*
X156781844Y-122339762D01*
X156900238Y-122458156D01*
X156993260Y-122597374D01*
X156993261Y-122597376D01*
X157057336Y-122752065D01*
X157090000Y-122916281D01*
X157090000Y-123083719D01*
X157057336Y-123247935D01*
X156993261Y-123402624D01*
X156993260Y-123402626D01*
X156900238Y-123541844D01*
X156781844Y-123660238D01*
X156642626Y-123753260D01*
X156642625Y-123753261D01*
X156642624Y-123753261D01*
X156487935Y-123817336D01*
X156323719Y-123850000D01*
X156156281Y-123850000D01*
X155992065Y-123817336D01*
X155837376Y-123753261D01*
X155837375Y-123753261D01*
X155837374Y-123753260D01*
X155698156Y-123660238D01*
X155579762Y-123541844D01*
X155486740Y-123402626D01*
X155486739Y-123402624D01*
X155422664Y-123247935D01*
X155390000Y-123083719D01*
X155390000Y-122916281D01*
X155422664Y-122752065D01*
X155486739Y-122597376D01*
X155486740Y-122597374D01*
X155579762Y-122458156D01*
X155698156Y-122339762D01*
X155837374Y-122246740D01*
X155839969Y-122245665D01*
X155992065Y-122182664D01*
X156156281Y-122150000D01*
X156323719Y-122150000D01*
X156487935Y-122182664D01*
G37*
G36*
X159027935Y-122182664D02*
G01*
X159180031Y-122245665D01*
X159182626Y-122246740D01*
X159321844Y-122339762D01*
X159440238Y-122458156D01*
X159533260Y-122597374D01*
X159533261Y-122597376D01*
X159597336Y-122752065D01*
X159630000Y-122916281D01*
X159630000Y-123083719D01*
X159597336Y-123247935D01*
X159533261Y-123402624D01*
X159533260Y-123402626D01*
X159440238Y-123541844D01*
X159321844Y-123660238D01*
X159182626Y-123753260D01*
X159182625Y-123753261D01*
X159182624Y-123753261D01*
X159027935Y-123817336D01*
X158863719Y-123850000D01*
X158696281Y-123850000D01*
X158532065Y-123817336D01*
X158377376Y-123753261D01*
X158377375Y-123753261D01*
X158377374Y-123753260D01*
X158238156Y-123660238D01*
X158119762Y-123541844D01*
X158026740Y-123402626D01*
X158026739Y-123402624D01*
X157962664Y-123247935D01*
X157930000Y-123083719D01*
X157930000Y-122916281D01*
X157962664Y-122752065D01*
X158026739Y-122597376D01*
X158026740Y-122597374D01*
X158119762Y-122458156D01*
X158238156Y-122339762D01*
X158377374Y-122246740D01*
X158379969Y-122245665D01*
X158532065Y-122182664D01*
X158696281Y-122150000D01*
X158863719Y-122150000D01*
X159027935Y-122182664D01*
G37*
G36*
X166647935Y-122182664D02*
G01*
X166800031Y-122245665D01*
X166802626Y-122246740D01*
X166941844Y-122339762D01*
X167060238Y-122458156D01*
X167153260Y-122597374D01*
X167153261Y-122597376D01*
X167217336Y-122752065D01*
X167250000Y-122916281D01*
X167250000Y-123083719D01*
X167217336Y-123247935D01*
X167153261Y-123402624D01*
X167153260Y-123402626D01*
X167060238Y-123541844D01*
X166941844Y-123660238D01*
X166802626Y-123753260D01*
X166802625Y-123753261D01*
X166802624Y-123753261D01*
X166647935Y-123817336D01*
X166483719Y-123850000D01*
X166316281Y-123850000D01*
X166152065Y-123817336D01*
X165997376Y-123753261D01*
X165997375Y-123753261D01*
X165997374Y-123753260D01*
X165858156Y-123660238D01*
X165739762Y-123541844D01*
X165646740Y-123402626D01*
X165646739Y-123402624D01*
X165582664Y-123247935D01*
X165550000Y-123083719D01*
X165550000Y-122916281D01*
X165582664Y-122752065D01*
X165646739Y-122597376D01*
X165646740Y-122597374D01*
X165739762Y-122458156D01*
X165858156Y-122339762D01*
X165997374Y-122246740D01*
X165999969Y-122245665D01*
X166152065Y-122182664D01*
X166316281Y-122150000D01*
X166483719Y-122150000D01*
X166647935Y-122182664D01*
G37*
G36*
X169187935Y-122182664D02*
G01*
X169340031Y-122245665D01*
X169342626Y-122246740D01*
X169481844Y-122339762D01*
X169600238Y-122458156D01*
X169693260Y-122597374D01*
X169693261Y-122597376D01*
X169757336Y-122752065D01*
X169790000Y-122916281D01*
X169790000Y-123083719D01*
X169757336Y-123247935D01*
X169693261Y-123402624D01*
X169693260Y-123402626D01*
X169600238Y-123541844D01*
X169481844Y-123660238D01*
X169342626Y-123753260D01*
X169342625Y-123753261D01*
X169342624Y-123753261D01*
X169187935Y-123817336D01*
X169023719Y-123850000D01*
X168856281Y-123850000D01*
X168692065Y-123817336D01*
X168537376Y-123753261D01*
X168537375Y-123753261D01*
X168537374Y-123753260D01*
X168398156Y-123660238D01*
X168279762Y-123541844D01*
X168186740Y-123402626D01*
X168186739Y-123402624D01*
X168122664Y-123247935D01*
X168090000Y-123083719D01*
X168090000Y-122916281D01*
X168122664Y-122752065D01*
X168186739Y-122597376D01*
X168186740Y-122597374D01*
X168279762Y-122458156D01*
X168398156Y-122339762D01*
X168537374Y-122246740D01*
X168539969Y-122245665D01*
X168692065Y-122182664D01*
X168856281Y-122150000D01*
X169023719Y-122150000D01*
X169187935Y-122182664D01*
G37*
G36*
X171727935Y-122182664D02*
G01*
X171880031Y-122245665D01*
X171882626Y-122246740D01*
X172021844Y-122339762D01*
X172140238Y-122458156D01*
X172233260Y-122597374D01*
X172233261Y-122597376D01*
X172297336Y-122752065D01*
X172330000Y-122916281D01*
X172330000Y-123083719D01*
X172297336Y-123247935D01*
X172233261Y-123402624D01*
X172233260Y-123402626D01*
X172140238Y-123541844D01*
X172021844Y-123660238D01*
X171882626Y-123753260D01*
X171882625Y-123753261D01*
X171882624Y-123753261D01*
X171727935Y-123817336D01*
X171563719Y-123850000D01*
X171396281Y-123850000D01*
X171232065Y-123817336D01*
X171077376Y-123753261D01*
X171077375Y-123753261D01*
X171077374Y-123753260D01*
X170938156Y-123660238D01*
X170819762Y-123541844D01*
X170726740Y-123402626D01*
X170726739Y-123402624D01*
X170662664Y-123247935D01*
X170630000Y-123083719D01*
X170630000Y-122916281D01*
X170662664Y-122752065D01*
X170726739Y-122597376D01*
X170726740Y-122597374D01*
X170819762Y-122458156D01*
X170938156Y-122339762D01*
X171077374Y-122246740D01*
X171079969Y-122245665D01*
X171232065Y-122182664D01*
X171396281Y-122150000D01*
X171563719Y-122150000D01*
X171727935Y-122182664D01*
G37*
G36*
X174267935Y-122182664D02*
G01*
X174420031Y-122245665D01*
X174422626Y-122246740D01*
X174561844Y-122339762D01*
X174680238Y-122458156D01*
X174773260Y-122597374D01*
X174773261Y-122597376D01*
X174837336Y-122752065D01*
X174870000Y-122916281D01*
X174870000Y-123083719D01*
X174837336Y-123247935D01*
X174773261Y-123402624D01*
X174773260Y-123402626D01*
X174680238Y-123541844D01*
X174561844Y-123660238D01*
X174422626Y-123753260D01*
X174422625Y-123753261D01*
X174422624Y-123753261D01*
X174267935Y-123817336D01*
X174103719Y-123850000D01*
X173936281Y-123850000D01*
X173772065Y-123817336D01*
X173617376Y-123753261D01*
X173617375Y-123753261D01*
X173617374Y-123753260D01*
X173478156Y-123660238D01*
X173359762Y-123541844D01*
X173266740Y-123402626D01*
X173266739Y-123402624D01*
X173202664Y-123247935D01*
X173170000Y-123083719D01*
X173170000Y-122916281D01*
X173202664Y-122752065D01*
X173266739Y-122597376D01*
X173266740Y-122597374D01*
X173359762Y-122458156D01*
X173478156Y-122339762D01*
X173617374Y-122246740D01*
X173619969Y-122245665D01*
X173772065Y-122182664D01*
X173936281Y-122150000D01*
X174103719Y-122150000D01*
X174267935Y-122182664D01*
G37*
G36*
X176807935Y-122182664D02*
G01*
X176960031Y-122245665D01*
X176962626Y-122246740D01*
X177101844Y-122339762D01*
X177220238Y-122458156D01*
X177313260Y-122597374D01*
X177313261Y-122597376D01*
X177377336Y-122752065D01*
X177410000Y-122916281D01*
X177410000Y-123083719D01*
X177377336Y-123247935D01*
X177313261Y-123402624D01*
X177313260Y-123402626D01*
X177220238Y-123541844D01*
X177101844Y-123660238D01*
X176962626Y-123753260D01*
X176962625Y-123753261D01*
X176962624Y-123753261D01*
X176807935Y-123817336D01*
X176643719Y-123850000D01*
X176476281Y-123850000D01*
X176312065Y-123817336D01*
X176157376Y-123753261D01*
X176157375Y-123753261D01*
X176157374Y-123753260D01*
X176018156Y-123660238D01*
X175899762Y-123541844D01*
X175806740Y-123402626D01*
X175806739Y-123402624D01*
X175742664Y-123247935D01*
X175710000Y-123083719D01*
X175710000Y-122916281D01*
X175742664Y-122752065D01*
X175806739Y-122597376D01*
X175806740Y-122597374D01*
X175899762Y-122458156D01*
X176018156Y-122339762D01*
X176157374Y-122246740D01*
X176159969Y-122245665D01*
X176312065Y-122182664D01*
X176476281Y-122150000D01*
X176643719Y-122150000D01*
X176807935Y-122182664D01*
G37*
G36*
X164107935Y-122182664D02*
G01*
X164260031Y-122245665D01*
X164262626Y-122246740D01*
X164401844Y-122339762D01*
X164520238Y-122458156D01*
X164613260Y-122597374D01*
X164613261Y-122597376D01*
X164677336Y-122752065D01*
X164710000Y-122916281D01*
X164710000Y-123083719D01*
X164677336Y-123247935D01*
X164613261Y-123402624D01*
X164613260Y-123402626D01*
X164520238Y-123541844D01*
X164401844Y-123660238D01*
X164262626Y-123753260D01*
X164262625Y-123753261D01*
X164262624Y-123753261D01*
X164107935Y-123817336D01*
X163943719Y-123850000D01*
X163776281Y-123850000D01*
X163612065Y-123817336D01*
X163457376Y-123753261D01*
X163457375Y-123753261D01*
X163457374Y-123753260D01*
X163318156Y-123660238D01*
X163199762Y-123541844D01*
X163106740Y-123402626D01*
X163106739Y-123402624D01*
X163042664Y-123247935D01*
X163010000Y-123083719D01*
X163010000Y-122916281D01*
X163042664Y-122752065D01*
X163106739Y-122597376D01*
X163106740Y-122597374D01*
X163199762Y-122458156D01*
X163318156Y-122339762D01*
X163457374Y-122246740D01*
X163459969Y-122245665D01*
X163612065Y-122182664D01*
X163776281Y-122150000D01*
X163943719Y-122150000D01*
X164107935Y-122182664D01*
G37*
G36*
X179347935Y-122182664D02*
G01*
X179500031Y-122245665D01*
X179502626Y-122246740D01*
X179641844Y-122339762D01*
X179760238Y-122458156D01*
X179853260Y-122597374D01*
X179853261Y-122597376D01*
X179917336Y-122752065D01*
X179950000Y-122916281D01*
X179950000Y-123083719D01*
X179917336Y-123247935D01*
X179853261Y-123402624D01*
X179853260Y-123402626D01*
X179760238Y-123541844D01*
X179641844Y-123660238D01*
X179502626Y-123753260D01*
X179502625Y-123753261D01*
X179502624Y-123753261D01*
X179347935Y-123817336D01*
X179183719Y-123850000D01*
X179016281Y-123850000D01*
X178852065Y-123817336D01*
X178697376Y-123753261D01*
X178697375Y-123753261D01*
X178697374Y-123753260D01*
X178558156Y-123660238D01*
X178439762Y-123541844D01*
X178346740Y-123402626D01*
X178346739Y-123402624D01*
X178282664Y-123247935D01*
X178250000Y-123083719D01*
X178250000Y-122916281D01*
X178282664Y-122752065D01*
X178346739Y-122597376D01*
X178346740Y-122597374D01*
X178439762Y-122458156D01*
X178558156Y-122339762D01*
X178697374Y-122246740D01*
X178699969Y-122245665D01*
X178852065Y-122182664D01*
X179016281Y-122150000D01*
X179183719Y-122150000D01*
X179347935Y-122182664D01*
G37*
G36*
X181887935Y-122182664D02*
G01*
X182040031Y-122245665D01*
X182042626Y-122246740D01*
X182181844Y-122339762D01*
X182300238Y-122458156D01*
X182393260Y-122597374D01*
X182393261Y-122597376D01*
X182457336Y-122752065D01*
X182490000Y-122916281D01*
X182490000Y-123083719D01*
X182457336Y-123247935D01*
X182393261Y-123402624D01*
X182393260Y-123402626D01*
X182300238Y-123541844D01*
X182181844Y-123660238D01*
X182042626Y-123753260D01*
X182042625Y-123753261D01*
X182042624Y-123753261D01*
X181887935Y-123817336D01*
X181723719Y-123850000D01*
X181556281Y-123850000D01*
X181392065Y-123817336D01*
X181237376Y-123753261D01*
X181237375Y-123753261D01*
X181237374Y-123753260D01*
X181098156Y-123660238D01*
X180979762Y-123541844D01*
X180886740Y-123402626D01*
X180886739Y-123402624D01*
X180822664Y-123247935D01*
X180790000Y-123083719D01*
X180790000Y-122916281D01*
X180822664Y-122752065D01*
X180886739Y-122597376D01*
X180886740Y-122597374D01*
X180979762Y-122458156D01*
X181098156Y-122339762D01*
X181237374Y-122246740D01*
X181239969Y-122245665D01*
X181392065Y-122182664D01*
X181556281Y-122150000D01*
X181723719Y-122150000D01*
X181887935Y-122182664D01*
G37*
G36*
X161567935Y-122182664D02*
G01*
X161720031Y-122245665D01*
X161722626Y-122246740D01*
X161861844Y-122339762D01*
X161980238Y-122458156D01*
X162073260Y-122597374D01*
X162073261Y-122597376D01*
X162137336Y-122752065D01*
X162170000Y-122916281D01*
X162170000Y-123083719D01*
X162137336Y-123247935D01*
X162073261Y-123402624D01*
X162073260Y-123402626D01*
X161980238Y-123541844D01*
X161861844Y-123660238D01*
X161722626Y-123753260D01*
X161722625Y-123753261D01*
X161722624Y-123753261D01*
X161567935Y-123817336D01*
X161403719Y-123850000D01*
X161236281Y-123850000D01*
X161072065Y-123817336D01*
X160917376Y-123753261D01*
X160917375Y-123753261D01*
X160917374Y-123753260D01*
X160778156Y-123660238D01*
X160659762Y-123541844D01*
X160566740Y-123402626D01*
X160566739Y-123402624D01*
X160502664Y-123247935D01*
X160470000Y-123083719D01*
X160470000Y-122916281D01*
X160502664Y-122752065D01*
X160566739Y-122597376D01*
X160566740Y-122597374D01*
X160659762Y-122458156D01*
X160778156Y-122339762D01*
X160917374Y-122246740D01*
X160919969Y-122245665D01*
X161072065Y-122182664D01*
X161236281Y-122150000D01*
X161403719Y-122150000D01*
X161567935Y-122182664D01*
G37*
G36*
X195573935Y-119705664D02*
G01*
X195728624Y-119769739D01*
X195728626Y-119769740D01*
X195867844Y-119862762D01*
X195986238Y-119981156D01*
X196037166Y-120057376D01*
X196079261Y-120120376D01*
X196143336Y-120275065D01*
X196176000Y-120439281D01*
X196176000Y-120606719D01*
X196143336Y-120770935D01*
X196105356Y-120862626D01*
X196079260Y-120925626D01*
X195986238Y-121064844D01*
X195867844Y-121183238D01*
X195728626Y-121276260D01*
X195728625Y-121276261D01*
X195728624Y-121276261D01*
X195573935Y-121340336D01*
X195409719Y-121373000D01*
X195242281Y-121373000D01*
X195078065Y-121340336D01*
X194923376Y-121276261D01*
X194923375Y-121276261D01*
X194923374Y-121276260D01*
X194784156Y-121183238D01*
X194665762Y-121064844D01*
X194572740Y-120925626D01*
X194546644Y-120862626D01*
X194508664Y-120770935D01*
X194476000Y-120606719D01*
X194476000Y-120439281D01*
X194508664Y-120275065D01*
X194572739Y-120120376D01*
X194614834Y-120057376D01*
X194665762Y-119981156D01*
X194784156Y-119862762D01*
X194923374Y-119769740D01*
X194923376Y-119769739D01*
X195078065Y-119705664D01*
X195242281Y-119673000D01*
X195409719Y-119673000D01*
X195573935Y-119705664D01*
G37*
G36*
X187953935Y-119705664D02*
G01*
X188108624Y-119769739D01*
X188108626Y-119769740D01*
X188247844Y-119862762D01*
X188366238Y-119981156D01*
X188417166Y-120057376D01*
X188459261Y-120120376D01*
X188523336Y-120275065D01*
X188556000Y-120439281D01*
X188556000Y-120606719D01*
X188523336Y-120770935D01*
X188485356Y-120862626D01*
X188459260Y-120925626D01*
X188366238Y-121064844D01*
X188247844Y-121183238D01*
X188108626Y-121276260D01*
X188108625Y-121276261D01*
X188108624Y-121276261D01*
X187953935Y-121340336D01*
X187789719Y-121373000D01*
X187622281Y-121373000D01*
X187458065Y-121340336D01*
X187303376Y-121276261D01*
X187303375Y-121276261D01*
X187303374Y-121276260D01*
X187164156Y-121183238D01*
X187045762Y-121064844D01*
X186952740Y-120925626D01*
X186926644Y-120862626D01*
X186888664Y-120770935D01*
X186856000Y-120606719D01*
X186856000Y-120439281D01*
X186888664Y-120275065D01*
X186952739Y-120120376D01*
X186994834Y-120057376D01*
X187045762Y-119981156D01*
X187164156Y-119862762D01*
X187303374Y-119769740D01*
X187303376Y-119769739D01*
X187458065Y-119705664D01*
X187622281Y-119673000D01*
X187789719Y-119673000D01*
X187953935Y-119705664D01*
G37*
G36*
X190493935Y-119705664D02*
G01*
X190648624Y-119769739D01*
X190648626Y-119769740D01*
X190787844Y-119862762D01*
X190906238Y-119981156D01*
X190957166Y-120057376D01*
X190999261Y-120120376D01*
X191063336Y-120275065D01*
X191096000Y-120439281D01*
X191096000Y-120606719D01*
X191063336Y-120770935D01*
X191025356Y-120862626D01*
X190999260Y-120925626D01*
X190906238Y-121064844D01*
X190787844Y-121183238D01*
X190648626Y-121276260D01*
X190648625Y-121276261D01*
X190648624Y-121276261D01*
X190493935Y-121340336D01*
X190329719Y-121373000D01*
X190162281Y-121373000D01*
X189998065Y-121340336D01*
X189843376Y-121276261D01*
X189843375Y-121276261D01*
X189843374Y-121276260D01*
X189704156Y-121183238D01*
X189585762Y-121064844D01*
X189492740Y-120925626D01*
X189466644Y-120862626D01*
X189428664Y-120770935D01*
X189396000Y-120606719D01*
X189396000Y-120439281D01*
X189428664Y-120275065D01*
X189492739Y-120120376D01*
X189534834Y-120057376D01*
X189585762Y-119981156D01*
X189704156Y-119862762D01*
X189843374Y-119769740D01*
X189843376Y-119769739D01*
X189998065Y-119705664D01*
X190162281Y-119673000D01*
X190329719Y-119673000D01*
X190493935Y-119705664D01*
G37*
G36*
X198113935Y-119705664D02*
G01*
X198268624Y-119769739D01*
X198268626Y-119769740D01*
X198407844Y-119862762D01*
X198526238Y-119981156D01*
X198577166Y-120057376D01*
X198619261Y-120120376D01*
X198683336Y-120275065D01*
X198716000Y-120439281D01*
X198716000Y-120606719D01*
X198683336Y-120770935D01*
X198645356Y-120862626D01*
X198619260Y-120925626D01*
X198526238Y-121064844D01*
X198407844Y-121183238D01*
X198268626Y-121276260D01*
X198268625Y-121276261D01*
X198268624Y-121276261D01*
X198113935Y-121340336D01*
X197949719Y-121373000D01*
X197782281Y-121373000D01*
X197618065Y-121340336D01*
X197463376Y-121276261D01*
X197463375Y-121276261D01*
X197463374Y-121276260D01*
X197324156Y-121183238D01*
X197205762Y-121064844D01*
X197112740Y-120925626D01*
X197086644Y-120862626D01*
X197048664Y-120770935D01*
X197016000Y-120606719D01*
X197016000Y-120439281D01*
X197048664Y-120275065D01*
X197112739Y-120120376D01*
X197154834Y-120057376D01*
X197205762Y-119981156D01*
X197324156Y-119862762D01*
X197463374Y-119769740D01*
X197463376Y-119769739D01*
X197618065Y-119705664D01*
X197782281Y-119673000D01*
X197949719Y-119673000D01*
X198113935Y-119705664D01*
G37*
G36*
X193033935Y-119705664D02*
G01*
X193188624Y-119769739D01*
X193188626Y-119769740D01*
X193327844Y-119862762D01*
X193446238Y-119981156D01*
X193497166Y-120057376D01*
X193539261Y-120120376D01*
X193603336Y-120275065D01*
X193636000Y-120439281D01*
X193636000Y-120606719D01*
X193603336Y-120770935D01*
X193565356Y-120862626D01*
X193539260Y-120925626D01*
X193446238Y-121064844D01*
X193327844Y-121183238D01*
X193188626Y-121276260D01*
X193188625Y-121276261D01*
X193188624Y-121276261D01*
X193033935Y-121340336D01*
X192869719Y-121373000D01*
X192702281Y-121373000D01*
X192538065Y-121340336D01*
X192383376Y-121276261D01*
X192383375Y-121276261D01*
X192383374Y-121276260D01*
X192244156Y-121183238D01*
X192125762Y-121064844D01*
X192032740Y-120925626D01*
X192006644Y-120862626D01*
X191968664Y-120770935D01*
X191936000Y-120606719D01*
X191936000Y-120439281D01*
X191968664Y-120275065D01*
X192032739Y-120120376D01*
X192074834Y-120057376D01*
X192125762Y-119981156D01*
X192244156Y-119862762D01*
X192383374Y-119769740D01*
X192383376Y-119769739D01*
X192538065Y-119705664D01*
X192702281Y-119673000D01*
X192869719Y-119673000D01*
X193033935Y-119705664D01*
G37*
G36*
X181887935Y-119642664D02*
G01*
X182040031Y-119705665D01*
X182042626Y-119706740D01*
X182181844Y-119799762D01*
X182300238Y-119918156D01*
X182393260Y-120057374D01*
X182393261Y-120057376D01*
X182457336Y-120212065D01*
X182490000Y-120376281D01*
X182490000Y-120543719D01*
X182457336Y-120707935D01*
X182393261Y-120862624D01*
X182393260Y-120862626D01*
X182300238Y-121001844D01*
X182181844Y-121120238D01*
X182042626Y-121213260D01*
X182042625Y-121213261D01*
X182042624Y-121213261D01*
X181887935Y-121277336D01*
X181723719Y-121310000D01*
X181556281Y-121310000D01*
X181392065Y-121277336D01*
X181237376Y-121213261D01*
X181237375Y-121213261D01*
X181237374Y-121213260D01*
X181098156Y-121120238D01*
X180979762Y-121001844D01*
X180886740Y-120862626D01*
X180886739Y-120862624D01*
X180822664Y-120707935D01*
X180790000Y-120543719D01*
X180790000Y-120376281D01*
X180822664Y-120212065D01*
X180886739Y-120057376D01*
X180886740Y-120057374D01*
X180979762Y-119918156D01*
X181098156Y-119799762D01*
X181237374Y-119706740D01*
X181239969Y-119705665D01*
X181392065Y-119642664D01*
X181556281Y-119610000D01*
X181723719Y-119610000D01*
X181887935Y-119642664D01*
G37*
G36*
X164107935Y-119642664D02*
G01*
X164260031Y-119705665D01*
X164262626Y-119706740D01*
X164401844Y-119799762D01*
X164520238Y-119918156D01*
X164613260Y-120057374D01*
X164613261Y-120057376D01*
X164677336Y-120212065D01*
X164710000Y-120376281D01*
X164710000Y-120543719D01*
X164677336Y-120707935D01*
X164613261Y-120862624D01*
X164613260Y-120862626D01*
X164520238Y-121001844D01*
X164401844Y-121120238D01*
X164262626Y-121213260D01*
X164262625Y-121213261D01*
X164262624Y-121213261D01*
X164107935Y-121277336D01*
X163943719Y-121310000D01*
X163776281Y-121310000D01*
X163612065Y-121277336D01*
X163457376Y-121213261D01*
X163457375Y-121213261D01*
X163457374Y-121213260D01*
X163318156Y-121120238D01*
X163199762Y-121001844D01*
X163106740Y-120862626D01*
X163106739Y-120862624D01*
X163042664Y-120707935D01*
X163010000Y-120543719D01*
X163010000Y-120376281D01*
X163042664Y-120212065D01*
X163106739Y-120057376D01*
X163106740Y-120057374D01*
X163199762Y-119918156D01*
X163318156Y-119799762D01*
X163457374Y-119706740D01*
X163459969Y-119705665D01*
X163612065Y-119642664D01*
X163776281Y-119610000D01*
X163943719Y-119610000D01*
X164107935Y-119642664D01*
G37*
G36*
X179347935Y-119642664D02*
G01*
X179500031Y-119705665D01*
X179502626Y-119706740D01*
X179641844Y-119799762D01*
X179760238Y-119918156D01*
X179853260Y-120057374D01*
X179853261Y-120057376D01*
X179917336Y-120212065D01*
X179950000Y-120376281D01*
X179950000Y-120543719D01*
X179917336Y-120707935D01*
X179853261Y-120862624D01*
X179853260Y-120862626D01*
X179760238Y-121001844D01*
X179641844Y-121120238D01*
X179502626Y-121213260D01*
X179502625Y-121213261D01*
X179502624Y-121213261D01*
X179347935Y-121277336D01*
X179183719Y-121310000D01*
X179016281Y-121310000D01*
X178852065Y-121277336D01*
X178697376Y-121213261D01*
X178697375Y-121213261D01*
X178697374Y-121213260D01*
X178558156Y-121120238D01*
X178439762Y-121001844D01*
X178346740Y-120862626D01*
X178346739Y-120862624D01*
X178282664Y-120707935D01*
X178250000Y-120543719D01*
X178250000Y-120376281D01*
X178282664Y-120212065D01*
X178346739Y-120057376D01*
X178346740Y-120057374D01*
X178439762Y-119918156D01*
X178558156Y-119799762D01*
X178697374Y-119706740D01*
X178699969Y-119705665D01*
X178852065Y-119642664D01*
X179016281Y-119610000D01*
X179183719Y-119610000D01*
X179347935Y-119642664D01*
G37*
G36*
X176807935Y-119642664D02*
G01*
X176960031Y-119705665D01*
X176962626Y-119706740D01*
X177101844Y-119799762D01*
X177220238Y-119918156D01*
X177313260Y-120057374D01*
X177313261Y-120057376D01*
X177377336Y-120212065D01*
X177410000Y-120376281D01*
X177410000Y-120543719D01*
X177377336Y-120707935D01*
X177313261Y-120862624D01*
X177313260Y-120862626D01*
X177220238Y-121001844D01*
X177101844Y-121120238D01*
X176962626Y-121213260D01*
X176962625Y-121213261D01*
X176962624Y-121213261D01*
X176807935Y-121277336D01*
X176643719Y-121310000D01*
X176476281Y-121310000D01*
X176312065Y-121277336D01*
X176157376Y-121213261D01*
X176157375Y-121213261D01*
X176157374Y-121213260D01*
X176018156Y-121120238D01*
X175899762Y-121001844D01*
X175806740Y-120862626D01*
X175806739Y-120862624D01*
X175742664Y-120707935D01*
X175710000Y-120543719D01*
X175710000Y-120376281D01*
X175742664Y-120212065D01*
X175806739Y-120057376D01*
X175806740Y-120057374D01*
X175899762Y-119918156D01*
X176018156Y-119799762D01*
X176157374Y-119706740D01*
X176159969Y-119705665D01*
X176312065Y-119642664D01*
X176476281Y-119610000D01*
X176643719Y-119610000D01*
X176807935Y-119642664D01*
G37*
G36*
X174267935Y-119642664D02*
G01*
X174420031Y-119705665D01*
X174422626Y-119706740D01*
X174561844Y-119799762D01*
X174680238Y-119918156D01*
X174773260Y-120057374D01*
X174773261Y-120057376D01*
X174837336Y-120212065D01*
X174870000Y-120376281D01*
X174870000Y-120543719D01*
X174837336Y-120707935D01*
X174773261Y-120862624D01*
X174773260Y-120862626D01*
X174680238Y-121001844D01*
X174561844Y-121120238D01*
X174422626Y-121213260D01*
X174422625Y-121213261D01*
X174422624Y-121213261D01*
X174267935Y-121277336D01*
X174103719Y-121310000D01*
X173936281Y-121310000D01*
X173772065Y-121277336D01*
X173617376Y-121213261D01*
X173617375Y-121213261D01*
X173617374Y-121213260D01*
X173478156Y-121120238D01*
X173359762Y-121001844D01*
X173266740Y-120862626D01*
X173266739Y-120862624D01*
X173202664Y-120707935D01*
X173170000Y-120543719D01*
X173170000Y-120376281D01*
X173202664Y-120212065D01*
X173266739Y-120057376D01*
X173266740Y-120057374D01*
X173359762Y-119918156D01*
X173478156Y-119799762D01*
X173617374Y-119706740D01*
X173619969Y-119705665D01*
X173772065Y-119642664D01*
X173936281Y-119610000D01*
X174103719Y-119610000D01*
X174267935Y-119642664D01*
G37*
G36*
X151407935Y-119642664D02*
G01*
X151560031Y-119705665D01*
X151562626Y-119706740D01*
X151701844Y-119799762D01*
X151820238Y-119918156D01*
X151913260Y-120057374D01*
X151913261Y-120057376D01*
X151977336Y-120212065D01*
X152010000Y-120376281D01*
X152010000Y-120543719D01*
X151977336Y-120707935D01*
X151913261Y-120862624D01*
X151913260Y-120862626D01*
X151820238Y-121001844D01*
X151701844Y-121120238D01*
X151562626Y-121213260D01*
X151562625Y-121213261D01*
X151562624Y-121213261D01*
X151407935Y-121277336D01*
X151243719Y-121310000D01*
X151076281Y-121310000D01*
X150912065Y-121277336D01*
X150757376Y-121213261D01*
X150757375Y-121213261D01*
X150757374Y-121213260D01*
X150618156Y-121120238D01*
X150499762Y-121001844D01*
X150406740Y-120862626D01*
X150406739Y-120862624D01*
X150342664Y-120707935D01*
X150310000Y-120543719D01*
X150310000Y-120376281D01*
X150342664Y-120212065D01*
X150406739Y-120057376D01*
X150406740Y-120057374D01*
X150499762Y-119918156D01*
X150618156Y-119799762D01*
X150757374Y-119706740D01*
X150759969Y-119705665D01*
X150912065Y-119642664D01*
X151076281Y-119610000D01*
X151243719Y-119610000D01*
X151407935Y-119642664D01*
G37*
G36*
X171727935Y-119642664D02*
G01*
X171880031Y-119705665D01*
X171882626Y-119706740D01*
X172021844Y-119799762D01*
X172140238Y-119918156D01*
X172233260Y-120057374D01*
X172233261Y-120057376D01*
X172297336Y-120212065D01*
X172330000Y-120376281D01*
X172330000Y-120543719D01*
X172297336Y-120707935D01*
X172233261Y-120862624D01*
X172233260Y-120862626D01*
X172140238Y-121001844D01*
X172021844Y-121120238D01*
X171882626Y-121213260D01*
X171882625Y-121213261D01*
X171882624Y-121213261D01*
X171727935Y-121277336D01*
X171563719Y-121310000D01*
X171396281Y-121310000D01*
X171232065Y-121277336D01*
X171077376Y-121213261D01*
X171077375Y-121213261D01*
X171077374Y-121213260D01*
X170938156Y-121120238D01*
X170819762Y-121001844D01*
X170726740Y-120862626D01*
X170726739Y-120862624D01*
X170662664Y-120707935D01*
X170630000Y-120543719D01*
X170630000Y-120376281D01*
X170662664Y-120212065D01*
X170726739Y-120057376D01*
X170726740Y-120057374D01*
X170819762Y-119918156D01*
X170938156Y-119799762D01*
X171077374Y-119706740D01*
X171079969Y-119705665D01*
X171232065Y-119642664D01*
X171396281Y-119610000D01*
X171563719Y-119610000D01*
X171727935Y-119642664D01*
G37*
G36*
X153947935Y-119642664D02*
G01*
X154100031Y-119705665D01*
X154102626Y-119706740D01*
X154241844Y-119799762D01*
X154360238Y-119918156D01*
X154453260Y-120057374D01*
X154453261Y-120057376D01*
X154517336Y-120212065D01*
X154550000Y-120376281D01*
X154550000Y-120543719D01*
X154517336Y-120707935D01*
X154453261Y-120862624D01*
X154453260Y-120862626D01*
X154360238Y-121001844D01*
X154241844Y-121120238D01*
X154102626Y-121213260D01*
X154102625Y-121213261D01*
X154102624Y-121213261D01*
X153947935Y-121277336D01*
X153783719Y-121310000D01*
X153616281Y-121310000D01*
X153452065Y-121277336D01*
X153297376Y-121213261D01*
X153297375Y-121213261D01*
X153297374Y-121213260D01*
X153158156Y-121120238D01*
X153039762Y-121001844D01*
X152946740Y-120862626D01*
X152946739Y-120862624D01*
X152882664Y-120707935D01*
X152850000Y-120543719D01*
X152850000Y-120376281D01*
X152882664Y-120212065D01*
X152946739Y-120057376D01*
X152946740Y-120057374D01*
X153039762Y-119918156D01*
X153158156Y-119799762D01*
X153297374Y-119706740D01*
X153299969Y-119705665D01*
X153452065Y-119642664D01*
X153616281Y-119610000D01*
X153783719Y-119610000D01*
X153947935Y-119642664D01*
G37*
G36*
X169187935Y-119642664D02*
G01*
X169340031Y-119705665D01*
X169342626Y-119706740D01*
X169481844Y-119799762D01*
X169600238Y-119918156D01*
X169693260Y-120057374D01*
X169693261Y-120057376D01*
X169757336Y-120212065D01*
X169790000Y-120376281D01*
X169790000Y-120543719D01*
X169757336Y-120707935D01*
X169693261Y-120862624D01*
X169693260Y-120862626D01*
X169600238Y-121001844D01*
X169481844Y-121120238D01*
X169342626Y-121213260D01*
X169342625Y-121213261D01*
X169342624Y-121213261D01*
X169187935Y-121277336D01*
X169023719Y-121310000D01*
X168856281Y-121310000D01*
X168692065Y-121277336D01*
X168537376Y-121213261D01*
X168537375Y-121213261D01*
X168537374Y-121213260D01*
X168398156Y-121120238D01*
X168279762Y-121001844D01*
X168186740Y-120862626D01*
X168186739Y-120862624D01*
X168122664Y-120707935D01*
X168090000Y-120543719D01*
X168090000Y-120376281D01*
X168122664Y-120212065D01*
X168186739Y-120057376D01*
X168186740Y-120057374D01*
X168279762Y-119918156D01*
X168398156Y-119799762D01*
X168537374Y-119706740D01*
X168539969Y-119705665D01*
X168692065Y-119642664D01*
X168856281Y-119610000D01*
X169023719Y-119610000D01*
X169187935Y-119642664D01*
G37*
G36*
X156487935Y-119642664D02*
G01*
X156640031Y-119705665D01*
X156642626Y-119706740D01*
X156781844Y-119799762D01*
X156900238Y-119918156D01*
X156993260Y-120057374D01*
X156993261Y-120057376D01*
X157057336Y-120212065D01*
X157090000Y-120376281D01*
X157090000Y-120543719D01*
X157057336Y-120707935D01*
X156993261Y-120862624D01*
X156993260Y-120862626D01*
X156900238Y-121001844D01*
X156781844Y-121120238D01*
X156642626Y-121213260D01*
X156642625Y-121213261D01*
X156642624Y-121213261D01*
X156487935Y-121277336D01*
X156323719Y-121310000D01*
X156156281Y-121310000D01*
X155992065Y-121277336D01*
X155837376Y-121213261D01*
X155837375Y-121213261D01*
X155837374Y-121213260D01*
X155698156Y-121120238D01*
X155579762Y-121001844D01*
X155486740Y-120862626D01*
X155486739Y-120862624D01*
X155422664Y-120707935D01*
X155390000Y-120543719D01*
X155390000Y-120376281D01*
X155422664Y-120212065D01*
X155486739Y-120057376D01*
X155486740Y-120057374D01*
X155579762Y-119918156D01*
X155698156Y-119799762D01*
X155837374Y-119706740D01*
X155839969Y-119705665D01*
X155992065Y-119642664D01*
X156156281Y-119610000D01*
X156323719Y-119610000D01*
X156487935Y-119642664D01*
G37*
G36*
X159027935Y-119642664D02*
G01*
X159180031Y-119705665D01*
X159182626Y-119706740D01*
X159321844Y-119799762D01*
X159440238Y-119918156D01*
X159533260Y-120057374D01*
X159533261Y-120057376D01*
X159597336Y-120212065D01*
X159630000Y-120376281D01*
X159630000Y-120543719D01*
X159597336Y-120707935D01*
X159533261Y-120862624D01*
X159533260Y-120862626D01*
X159440238Y-121001844D01*
X159321844Y-121120238D01*
X159182626Y-121213260D01*
X159182625Y-121213261D01*
X159182624Y-121213261D01*
X159027935Y-121277336D01*
X158863719Y-121310000D01*
X158696281Y-121310000D01*
X158532065Y-121277336D01*
X158377376Y-121213261D01*
X158377375Y-121213261D01*
X158377374Y-121213260D01*
X158238156Y-121120238D01*
X158119762Y-121001844D01*
X158026740Y-120862626D01*
X158026739Y-120862624D01*
X157962664Y-120707935D01*
X157930000Y-120543719D01*
X157930000Y-120376281D01*
X157962664Y-120212065D01*
X158026739Y-120057376D01*
X158026740Y-120057374D01*
X158119762Y-119918156D01*
X158238156Y-119799762D01*
X158377374Y-119706740D01*
X158379969Y-119705665D01*
X158532065Y-119642664D01*
X158696281Y-119610000D01*
X158863719Y-119610000D01*
X159027935Y-119642664D01*
G37*
G36*
X166647935Y-119642664D02*
G01*
X166800031Y-119705665D01*
X166802626Y-119706740D01*
X166941844Y-119799762D01*
X167060238Y-119918156D01*
X167153260Y-120057374D01*
X167153261Y-120057376D01*
X167217336Y-120212065D01*
X167250000Y-120376281D01*
X167250000Y-120543719D01*
X167217336Y-120707935D01*
X167153261Y-120862624D01*
X167153260Y-120862626D01*
X167060238Y-121001844D01*
X166941844Y-121120238D01*
X166802626Y-121213260D01*
X166802625Y-121213261D01*
X166802624Y-121213261D01*
X166647935Y-121277336D01*
X166483719Y-121310000D01*
X166316281Y-121310000D01*
X166152065Y-121277336D01*
X165997376Y-121213261D01*
X165997375Y-121213261D01*
X165997374Y-121213260D01*
X165858156Y-121120238D01*
X165739762Y-121001844D01*
X165646740Y-120862626D01*
X165646739Y-120862624D01*
X165582664Y-120707935D01*
X165550000Y-120543719D01*
X165550000Y-120376281D01*
X165582664Y-120212065D01*
X165646739Y-120057376D01*
X165646740Y-120057374D01*
X165739762Y-119918156D01*
X165858156Y-119799762D01*
X165997374Y-119706740D01*
X165999969Y-119705665D01*
X166152065Y-119642664D01*
X166316281Y-119610000D01*
X166483719Y-119610000D01*
X166647935Y-119642664D01*
G37*
G36*
X143787935Y-119642664D02*
G01*
X143940031Y-119705665D01*
X143942626Y-119706740D01*
X144081844Y-119799762D01*
X144200238Y-119918156D01*
X144293260Y-120057374D01*
X144293261Y-120057376D01*
X144357336Y-120212065D01*
X144390000Y-120376281D01*
X144390000Y-120543719D01*
X144357336Y-120707935D01*
X144293261Y-120862624D01*
X144293260Y-120862626D01*
X144200238Y-121001844D01*
X144081844Y-121120238D01*
X143942626Y-121213260D01*
X143942625Y-121213261D01*
X143942624Y-121213261D01*
X143787935Y-121277336D01*
X143623719Y-121310000D01*
X143456281Y-121310000D01*
X143292065Y-121277336D01*
X143137376Y-121213261D01*
X143137375Y-121213261D01*
X143137374Y-121213260D01*
X142998156Y-121120238D01*
X142879762Y-121001844D01*
X142786740Y-120862626D01*
X142786739Y-120862624D01*
X142722664Y-120707935D01*
X142690000Y-120543719D01*
X142690000Y-120376281D01*
X142722664Y-120212065D01*
X142786739Y-120057376D01*
X142786740Y-120057374D01*
X142879762Y-119918156D01*
X142998156Y-119799762D01*
X143137374Y-119706740D01*
X143139969Y-119705665D01*
X143292065Y-119642664D01*
X143456281Y-119610000D01*
X143623719Y-119610000D01*
X143787935Y-119642664D01*
G37*
G36*
X161567935Y-119642664D02*
G01*
X161720031Y-119705665D01*
X161722626Y-119706740D01*
X161861844Y-119799762D01*
X161980238Y-119918156D01*
X162073260Y-120057374D01*
X162073261Y-120057376D01*
X162137336Y-120212065D01*
X162170000Y-120376281D01*
X162170000Y-120543719D01*
X162137336Y-120707935D01*
X162073261Y-120862624D01*
X162073260Y-120862626D01*
X161980238Y-121001844D01*
X161861844Y-121120238D01*
X161722626Y-121213260D01*
X161722625Y-121213261D01*
X161722624Y-121213261D01*
X161567935Y-121277336D01*
X161403719Y-121310000D01*
X161236281Y-121310000D01*
X161072065Y-121277336D01*
X160917376Y-121213261D01*
X160917375Y-121213261D01*
X160917374Y-121213260D01*
X160778156Y-121120238D01*
X160659762Y-121001844D01*
X160566740Y-120862626D01*
X160566739Y-120862624D01*
X160502664Y-120707935D01*
X160470000Y-120543719D01*
X160470000Y-120376281D01*
X160502664Y-120212065D01*
X160566739Y-120057376D01*
X160566740Y-120057374D01*
X160659762Y-119918156D01*
X160778156Y-119799762D01*
X160917374Y-119706740D01*
X160919969Y-119705665D01*
X161072065Y-119642664D01*
X161236281Y-119610000D01*
X161403719Y-119610000D01*
X161567935Y-119642664D01*
G37*
G36*
X141247935Y-119642664D02*
G01*
X141400031Y-119705665D01*
X141402626Y-119706740D01*
X141541844Y-119799762D01*
X141660238Y-119918156D01*
X141753260Y-120057374D01*
X141753261Y-120057376D01*
X141817336Y-120212065D01*
X141850000Y-120376281D01*
X141850000Y-120543719D01*
X141817336Y-120707935D01*
X141753261Y-120862624D01*
X141753260Y-120862626D01*
X141660238Y-121001844D01*
X141541844Y-121120238D01*
X141402626Y-121213260D01*
X141402625Y-121213261D01*
X141402624Y-121213261D01*
X141247935Y-121277336D01*
X141083719Y-121310000D01*
X140916281Y-121310000D01*
X140752065Y-121277336D01*
X140597376Y-121213261D01*
X140597375Y-121213261D01*
X140597374Y-121213260D01*
X140458156Y-121120238D01*
X140339762Y-121001844D01*
X140246740Y-120862626D01*
X140246739Y-120862624D01*
X140182664Y-120707935D01*
X140150000Y-120543719D01*
X140150000Y-120376281D01*
X140182664Y-120212065D01*
X140246739Y-120057376D01*
X140246740Y-120057374D01*
X140339762Y-119918156D01*
X140458156Y-119799762D01*
X140597374Y-119706740D01*
X140599969Y-119705665D01*
X140752065Y-119642664D01*
X140916281Y-119610000D01*
X141083719Y-119610000D01*
X141247935Y-119642664D01*
G37*
G36*
X148867935Y-119642664D02*
G01*
X149020031Y-119705665D01*
X149022626Y-119706740D01*
X149161844Y-119799762D01*
X149280238Y-119918156D01*
X149373260Y-120057374D01*
X149373261Y-120057376D01*
X149437336Y-120212065D01*
X149470000Y-120376281D01*
X149470000Y-120543719D01*
X149437336Y-120707935D01*
X149373261Y-120862624D01*
X149373260Y-120862626D01*
X149280238Y-121001844D01*
X149161844Y-121120238D01*
X149022626Y-121213260D01*
X149022625Y-121213261D01*
X149022624Y-121213261D01*
X148867935Y-121277336D01*
X148703719Y-121310000D01*
X148536281Y-121310000D01*
X148372065Y-121277336D01*
X148217376Y-121213261D01*
X148217375Y-121213261D01*
X148217374Y-121213260D01*
X148078156Y-121120238D01*
X147959762Y-121001844D01*
X147866740Y-120862626D01*
X147866739Y-120862624D01*
X147802664Y-120707935D01*
X147770000Y-120543719D01*
X147770000Y-120376281D01*
X147802664Y-120212065D01*
X147866739Y-120057376D01*
X147866740Y-120057374D01*
X147959762Y-119918156D01*
X148078156Y-119799762D01*
X148217374Y-119706740D01*
X148219969Y-119705665D01*
X148372065Y-119642664D01*
X148536281Y-119610000D01*
X148703719Y-119610000D01*
X148867935Y-119642664D01*
G37*
G36*
X146327935Y-119642664D02*
G01*
X146480031Y-119705665D01*
X146482626Y-119706740D01*
X146621844Y-119799762D01*
X146740238Y-119918156D01*
X146833260Y-120057374D01*
X146833261Y-120057376D01*
X146897336Y-120212065D01*
X146930000Y-120376281D01*
X146930000Y-120543719D01*
X146897336Y-120707935D01*
X146833261Y-120862624D01*
X146833260Y-120862626D01*
X146740238Y-121001844D01*
X146621844Y-121120238D01*
X146482626Y-121213260D01*
X146482625Y-121213261D01*
X146482624Y-121213261D01*
X146327935Y-121277336D01*
X146163719Y-121310000D01*
X145996281Y-121310000D01*
X145832065Y-121277336D01*
X145677376Y-121213261D01*
X145677375Y-121213261D01*
X145677374Y-121213260D01*
X145538156Y-121120238D01*
X145419762Y-121001844D01*
X145326740Y-120862626D01*
X145326739Y-120862624D01*
X145262664Y-120707935D01*
X145230000Y-120543719D01*
X145230000Y-120376281D01*
X145262664Y-120212065D01*
X145326739Y-120057376D01*
X145326740Y-120057374D01*
X145419762Y-119918156D01*
X145538156Y-119799762D01*
X145677374Y-119706740D01*
X145679969Y-119705665D01*
X145832065Y-119642664D01*
X145996281Y-119610000D01*
X146163719Y-119610000D01*
X146327935Y-119642664D01*
G37*
G36*
X181984935Y-115895664D02*
G01*
X182139624Y-115959739D01*
X182139626Y-115959740D01*
X182278844Y-116052762D01*
X182397238Y-116171156D01*
X182490260Y-116310374D01*
X182490261Y-116310376D01*
X182554336Y-116465065D01*
X182587000Y-116629281D01*
X182587000Y-116796719D01*
X182554336Y-116960935D01*
X182490261Y-117115624D01*
X182490260Y-117115626D01*
X182397238Y-117254844D01*
X182278844Y-117373238D01*
X182139626Y-117466260D01*
X182139625Y-117466261D01*
X182139624Y-117466261D01*
X181984935Y-117530336D01*
X181820719Y-117563000D01*
X181653281Y-117563000D01*
X181489065Y-117530336D01*
X181334376Y-117466261D01*
X181334375Y-117466261D01*
X181334374Y-117466260D01*
X181195156Y-117373238D01*
X181076762Y-117254844D01*
X180983740Y-117115626D01*
X180983739Y-117115624D01*
X180919664Y-116960935D01*
X180887000Y-116796719D01*
X180887000Y-116629281D01*
X180919664Y-116465065D01*
X180983739Y-116310376D01*
X180983740Y-116310374D01*
X181076762Y-116171156D01*
X181195156Y-116052762D01*
X181334374Y-115959740D01*
X181334376Y-115959739D01*
X181489065Y-115895664D01*
X181653281Y-115863000D01*
X181820719Y-115863000D01*
X181984935Y-115895664D01*
G37*
G36*
X185127000Y-117563000D02*
G01*
X183427000Y-117563000D01*
X183427000Y-115863000D01*
X185127000Y-115863000D01*
X185127000Y-117563000D01*
G37*
G36*
X192525935Y-115260664D02*
G01*
X192680624Y-115324739D01*
X192680626Y-115324740D01*
X192819844Y-115417762D01*
X192938238Y-115536156D01*
X193022413Y-115662134D01*
X193031261Y-115675376D01*
X193095336Y-115830065D01*
X193128000Y-115994281D01*
X193128000Y-116161719D01*
X193095336Y-116325935D01*
X193037706Y-116465064D01*
X193031260Y-116480626D01*
X192938238Y-116619844D01*
X192819844Y-116738238D01*
X192680626Y-116831260D01*
X192680625Y-116831261D01*
X192680624Y-116831261D01*
X192525935Y-116895336D01*
X192361719Y-116928000D01*
X192194281Y-116928000D01*
X192030065Y-116895336D01*
X191875376Y-116831261D01*
X191875375Y-116831261D01*
X191875374Y-116831260D01*
X191736156Y-116738238D01*
X191617762Y-116619844D01*
X191524740Y-116480626D01*
X191518294Y-116465064D01*
X191460664Y-116325935D01*
X191428000Y-116161719D01*
X191428000Y-115994281D01*
X191460664Y-115830065D01*
X191524739Y-115675376D01*
X191533587Y-115662134D01*
X191617762Y-115536156D01*
X191736156Y-115417762D01*
X191875374Y-115324740D01*
X191875376Y-115324739D01*
X192030065Y-115260664D01*
X192194281Y-115228000D01*
X192361719Y-115228000D01*
X192525935Y-115260664D01*
G37*
G36*
X196208935Y-115260664D02*
G01*
X196363624Y-115324739D01*
X196363626Y-115324740D01*
X196502844Y-115417762D01*
X196621238Y-115536156D01*
X196705413Y-115662134D01*
X196714261Y-115675376D01*
X196778336Y-115830065D01*
X196811000Y-115994281D01*
X196811000Y-116161719D01*
X196778336Y-116325935D01*
X196720706Y-116465064D01*
X196714260Y-116480626D01*
X196621238Y-116619844D01*
X196502844Y-116738238D01*
X196363626Y-116831260D01*
X196363625Y-116831261D01*
X196363624Y-116831261D01*
X196208935Y-116895336D01*
X196044719Y-116928000D01*
X195877281Y-116928000D01*
X195713065Y-116895336D01*
X195558376Y-116831261D01*
X195558375Y-116831261D01*
X195558374Y-116831260D01*
X195419156Y-116738238D01*
X195300762Y-116619844D01*
X195207740Y-116480626D01*
X195201294Y-116465064D01*
X195143664Y-116325935D01*
X195111000Y-116161719D01*
X195111000Y-115994281D01*
X195143664Y-115830065D01*
X195207739Y-115675376D01*
X195216587Y-115662134D01*
X195300762Y-115536156D01*
X195419156Y-115417762D01*
X195558374Y-115324740D01*
X195558376Y-115324739D01*
X195713065Y-115260664D01*
X195877281Y-115228000D01*
X196044719Y-115228000D01*
X196208935Y-115260664D01*
G37*
G36*
X142248000Y-116718500D02*
G01*
X141748000Y-116718500D01*
X141748000Y-115818500D01*
X142248000Y-115818500D01*
X142248000Y-116718500D01*
G37*
G36*
X143748000Y-116718500D02*
G01*
X143248000Y-116718500D01*
X143248000Y-115818500D01*
X143748000Y-115818500D01*
X143748000Y-116718500D01*
G37*
G36*
X145739000Y-116424000D02*
G01*
X144839000Y-116424000D01*
X144839000Y-115224000D01*
X145739000Y-115224000D01*
X145739000Y-116424000D01*
G37*
G36*
X149039000Y-116424000D02*
G01*
X148139000Y-116424000D01*
X148139000Y-115224000D01*
X149039000Y-115224000D01*
X149039000Y-116424000D01*
G37*
G36*
X178056851Y-114483243D02*
G01*
X178202441Y-114543548D01*
X178333470Y-114631099D01*
X178444901Y-114742530D01*
X178532452Y-114873559D01*
X178592757Y-115019149D01*
X178623500Y-115173706D01*
X178623500Y-115331294D01*
X178592757Y-115485851D01*
X178532452Y-115631441D01*
X178444901Y-115762470D01*
X178333470Y-115873901D01*
X178202441Y-115961452D01*
X178056851Y-116021757D01*
X177902294Y-116052500D01*
X177744706Y-116052500D01*
X177590149Y-116021757D01*
X177444559Y-115961452D01*
X177313530Y-115873901D01*
X177202099Y-115762470D01*
X177114548Y-115631441D01*
X177054243Y-115485851D01*
X177023500Y-115331294D01*
X177023500Y-115173706D01*
X177054243Y-115019149D01*
X177114548Y-114873559D01*
X177202099Y-114742530D01*
X177313530Y-114631099D01*
X177444559Y-114543548D01*
X177590149Y-114483243D01*
X177744706Y-114452500D01*
X177902294Y-114452500D01*
X178056851Y-114483243D01*
G37*
G36*
X176123500Y-116052500D02*
G01*
X174523500Y-116052500D01*
X174523500Y-114452500D01*
X176123500Y-114452500D01*
X176123500Y-116052500D01*
G37*
G36*
X170536919Y-114256096D02*
G01*
X170635880Y-114286116D01*
X170646940Y-114292028D01*
X170727086Y-114334867D01*
X170747909Y-114351956D01*
X170807028Y-114400472D01*
X170841416Y-114442376D01*
X170872633Y-114480414D01*
X170921383Y-114571619D01*
X170934384Y-114614478D01*
X170934384Y-114614479D01*
X170943762Y-114637117D01*
X170957376Y-114657492D01*
X170974703Y-114674819D01*
X170995077Y-114688432D01*
X171017716Y-114697810D01*
X171041749Y-114702590D01*
X171066253Y-114702590D01*
X171090287Y-114697810D01*
X171112925Y-114688432D01*
X171133300Y-114674818D01*
X171150627Y-114657491D01*
X171164240Y-114637117D01*
X171173618Y-114614478D01*
X171179000Y-114578193D01*
X171179000Y-114248500D01*
X172229000Y-114248500D01*
X172229000Y-115748500D01*
X171179000Y-115748500D01*
X171179000Y-115418807D01*
X171176598Y-115394421D01*
X171169485Y-115370972D01*
X171157934Y-115349361D01*
X171142389Y-115330419D01*
X171123447Y-115314874D01*
X171101836Y-115303323D01*
X171078387Y-115296210D01*
X171054001Y-115293808D01*
X171029615Y-115296210D01*
X171006166Y-115303323D01*
X170984555Y-115314874D01*
X170965613Y-115330419D01*
X170950068Y-115349361D01*
X170934385Y-115382519D01*
X170921383Y-115425381D01*
X170872633Y-115516586D01*
X170856572Y-115536156D01*
X170807028Y-115596527D01*
X170778286Y-115620114D01*
X170727086Y-115662133D01*
X170675593Y-115689656D01*
X170635879Y-115710884D01*
X170536918Y-115740904D01*
X170434000Y-115751040D01*
X170331081Y-115740904D01*
X170232120Y-115710884D01*
X170140916Y-115662134D01*
X170140914Y-115662133D01*
X170103516Y-115631441D01*
X170060973Y-115596528D01*
X170011429Y-115536157D01*
X169995367Y-115516586D01*
X169967844Y-115465093D01*
X169946616Y-115425379D01*
X169918616Y-115333076D01*
X169909239Y-115310437D01*
X169895625Y-115290063D01*
X169878298Y-115272736D01*
X169857924Y-115259122D01*
X169835285Y-115249745D01*
X169811252Y-115244965D01*
X169786747Y-115244965D01*
X169762714Y-115249746D01*
X169740075Y-115259123D01*
X169719701Y-115272737D01*
X169702374Y-115290064D01*
X169688760Y-115310438D01*
X169679383Y-115333076D01*
X169651383Y-115425381D01*
X169602633Y-115516586D01*
X169586572Y-115536156D01*
X169537028Y-115596527D01*
X169508286Y-115620114D01*
X169457086Y-115662133D01*
X169405593Y-115689656D01*
X169365879Y-115710884D01*
X169266918Y-115740904D01*
X169164000Y-115751040D01*
X169061081Y-115740904D01*
X168962120Y-115710884D01*
X168870916Y-115662134D01*
X168870914Y-115662133D01*
X168833516Y-115631441D01*
X168790973Y-115596528D01*
X168741429Y-115536157D01*
X168725367Y-115516586D01*
X168697844Y-115465093D01*
X168676616Y-115425379D01*
X168646596Y-115326418D01*
X168639000Y-115249291D01*
X168639000Y-114747708D01*
X168646596Y-114670581D01*
X168676616Y-114571620D01*
X168725366Y-114480416D01*
X168790973Y-114400473D01*
X168835848Y-114363646D01*
X168870915Y-114334867D01*
X168951061Y-114292028D01*
X168962121Y-114286116D01*
X169061082Y-114256096D01*
X169164000Y-114245960D01*
X169266919Y-114256096D01*
X169365880Y-114286116D01*
X169376940Y-114292028D01*
X169457086Y-114334867D01*
X169477909Y-114351956D01*
X169537028Y-114400472D01*
X169571416Y-114442376D01*
X169602633Y-114480414D01*
X169602634Y-114480416D01*
X169651384Y-114571620D01*
X169679384Y-114663923D01*
X169688761Y-114686562D01*
X169702375Y-114706936D01*
X169719702Y-114724263D01*
X169740076Y-114737877D01*
X169762715Y-114747254D01*
X169786748Y-114752034D01*
X169811253Y-114752034D01*
X169835286Y-114747253D01*
X169857925Y-114737876D01*
X169878299Y-114724262D01*
X169895626Y-114706935D01*
X169909240Y-114686561D01*
X169918616Y-114663923D01*
X169946616Y-114571620D01*
X169995366Y-114480416D01*
X170060973Y-114400473D01*
X170105848Y-114363646D01*
X170140915Y-114334867D01*
X170221061Y-114292028D01*
X170232121Y-114286116D01*
X170331082Y-114256096D01*
X170434000Y-114245960D01*
X170536919Y-114256096D01*
G37*
G36*
X165745419Y-112131596D02*
G01*
X165844380Y-112161616D01*
X165923807Y-112204071D01*
X165935586Y-112210367D01*
X165956409Y-112227456D01*
X166015528Y-112275972D01*
X166064044Y-112335091D01*
X166081133Y-112355914D01*
X166081134Y-112355916D01*
X166129884Y-112447120D01*
X166159904Y-112546081D01*
X166170040Y-112649000D01*
X166159904Y-112751919D01*
X166129884Y-112850880D01*
X166129883Y-112850881D01*
X166081133Y-112942086D01*
X166064044Y-112962909D01*
X166015528Y-113022028D01*
X165956409Y-113070544D01*
X165935586Y-113087633D01*
X165935584Y-113087634D01*
X165844380Y-113136384D01*
X165752077Y-113164384D01*
X165729438Y-113173761D01*
X165709064Y-113187375D01*
X165691737Y-113204702D01*
X165678123Y-113225076D01*
X165668746Y-113247715D01*
X165663966Y-113271748D01*
X165663966Y-113296253D01*
X165668747Y-113320286D01*
X165678124Y-113342925D01*
X165691738Y-113363299D01*
X165709065Y-113380626D01*
X165729439Y-113394240D01*
X165752077Y-113403616D01*
X165844380Y-113431616D01*
X165923807Y-113474071D01*
X165935586Y-113480367D01*
X165956409Y-113497456D01*
X166015528Y-113545972D01*
X166064044Y-113605091D01*
X166081133Y-113625914D01*
X166081134Y-113625916D01*
X166129884Y-113717120D01*
X166159904Y-113816081D01*
X166170040Y-113919000D01*
X166159904Y-114021919D01*
X166129884Y-114120880D01*
X166129883Y-114120881D01*
X166081133Y-114212086D01*
X166064044Y-114232909D01*
X166015528Y-114292028D01*
X165956409Y-114340544D01*
X165935586Y-114357633D01*
X165844381Y-114406383D01*
X165801517Y-114419385D01*
X165778883Y-114428762D01*
X165758508Y-114442376D01*
X165741181Y-114459703D01*
X165727568Y-114480077D01*
X165718190Y-114502716D01*
X165713410Y-114526749D01*
X165713410Y-114551253D01*
X165718190Y-114575287D01*
X165727568Y-114597925D01*
X165741182Y-114618300D01*
X165758509Y-114635627D01*
X165778883Y-114649240D01*
X165801522Y-114658618D01*
X165837807Y-114664000D01*
X166167500Y-114664000D01*
X166167500Y-115714000D01*
X164667500Y-115714000D01*
X164667500Y-114664000D01*
X164997193Y-114664000D01*
X165021579Y-114661598D01*
X165045028Y-114654485D01*
X165066639Y-114642934D01*
X165085581Y-114627389D01*
X165101126Y-114608447D01*
X165112677Y-114586836D01*
X165119790Y-114563387D01*
X165122192Y-114539001D01*
X165119790Y-114514615D01*
X165112677Y-114491166D01*
X165101126Y-114469555D01*
X165085581Y-114450613D01*
X165066639Y-114435068D01*
X165033481Y-114419385D01*
X164990619Y-114406383D01*
X164899414Y-114357633D01*
X164878591Y-114340544D01*
X164819472Y-114292028D01*
X164770956Y-114232909D01*
X164753867Y-114212086D01*
X164705117Y-114120881D01*
X164705116Y-114120880D01*
X164675096Y-114021919D01*
X164664960Y-113919000D01*
X164675096Y-113816081D01*
X164705116Y-113717120D01*
X164753866Y-113625916D01*
X164753867Y-113625914D01*
X164770956Y-113605091D01*
X164819472Y-113545972D01*
X164878591Y-113497456D01*
X164899414Y-113480367D01*
X164911193Y-113474071D01*
X164990620Y-113431616D01*
X165082923Y-113403616D01*
X165105562Y-113394239D01*
X165125936Y-113380625D01*
X165143263Y-113363298D01*
X165156877Y-113342924D01*
X165166254Y-113320285D01*
X165171034Y-113296252D01*
X165171034Y-113271747D01*
X165166253Y-113247714D01*
X165156876Y-113225075D01*
X165143262Y-113204701D01*
X165125935Y-113187374D01*
X165105561Y-113173760D01*
X165082923Y-113164384D01*
X164990620Y-113136384D01*
X164899416Y-113087634D01*
X164899414Y-113087633D01*
X164878591Y-113070544D01*
X164819472Y-113022028D01*
X164770956Y-112962909D01*
X164753867Y-112942086D01*
X164705117Y-112850881D01*
X164705116Y-112850880D01*
X164675096Y-112751919D01*
X164664960Y-112649000D01*
X164675096Y-112546081D01*
X164705116Y-112447120D01*
X164753866Y-112355916D01*
X164753867Y-112355914D01*
X164770956Y-112335091D01*
X164819472Y-112275972D01*
X164878591Y-112227456D01*
X164899414Y-112210367D01*
X164911193Y-112204071D01*
X164990620Y-112161616D01*
X165089581Y-112131596D01*
X165166708Y-112124000D01*
X165668292Y-112124000D01*
X165745419Y-112131596D01*
G37*
G36*
X153278500Y-114697500D02*
G01*
X152378500Y-114697500D01*
X152378500Y-113897500D01*
X153278500Y-113897500D01*
X153278500Y-114697500D01*
G37*
G36*
X193128000Y-114388000D02*
G01*
X191428000Y-114388000D01*
X191428000Y-112688000D01*
X193128000Y-112688000D01*
X193128000Y-114388000D01*
G37*
G36*
X196811000Y-114388000D02*
G01*
X195111000Y-114388000D01*
X195111000Y-112688000D01*
X196811000Y-112688000D01*
X196811000Y-114388000D01*
G37*
G36*
X185127000Y-113880000D02*
G01*
X183427000Y-113880000D01*
X183427000Y-112180000D01*
X185127000Y-112180000D01*
X185127000Y-113880000D01*
G37*
G36*
X181984935Y-112212664D02*
G01*
X182139624Y-112276739D01*
X182139626Y-112276740D01*
X182278844Y-112369762D01*
X182397238Y-112488156D01*
X182451590Y-112569500D01*
X182490261Y-112627376D01*
X182554336Y-112782065D01*
X182587000Y-112946281D01*
X182587000Y-113113719D01*
X182554336Y-113277935D01*
X182490678Y-113431617D01*
X182490260Y-113432626D01*
X182397238Y-113571844D01*
X182278844Y-113690238D01*
X182139626Y-113783260D01*
X182139625Y-113783261D01*
X182139624Y-113783261D01*
X181984935Y-113847336D01*
X181820719Y-113880000D01*
X181653281Y-113880000D01*
X181489065Y-113847336D01*
X181334376Y-113783261D01*
X181334375Y-113783261D01*
X181334374Y-113783260D01*
X181195156Y-113690238D01*
X181076762Y-113571844D01*
X180983740Y-113432626D01*
X180983322Y-113431617D01*
X180919664Y-113277935D01*
X180887000Y-113113719D01*
X180887000Y-112946281D01*
X180919664Y-112782065D01*
X180983739Y-112627376D01*
X181022410Y-112569500D01*
X181076762Y-112488156D01*
X181195156Y-112369762D01*
X181334374Y-112276740D01*
X181334376Y-112276739D01*
X181489065Y-112212664D01*
X181653281Y-112180000D01*
X181820719Y-112180000D01*
X181984935Y-112212664D01*
G37*
G36*
X151278500Y-113747500D02*
G01*
X150378500Y-113747500D01*
X150378500Y-112947500D01*
X151278500Y-112947500D01*
X151278500Y-113747500D01*
G37*
G36*
X147373000Y-113618000D02*
G01*
X146473000Y-113618000D01*
X146473000Y-112818000D01*
X147373000Y-112818000D01*
X147373000Y-113618000D01*
G37*
G36*
X142944000Y-113585500D02*
G01*
X142044000Y-113585500D01*
X142044000Y-113085500D01*
X142944000Y-113085500D01*
X142944000Y-113585500D01*
G37*
G36*
X140509500Y-112972000D02*
G01*
X140009500Y-112972000D01*
X140009500Y-112072000D01*
X140509500Y-112072000D01*
X140509500Y-112972000D01*
G37*
G36*
X139009500Y-112972000D02*
G01*
X138509500Y-112972000D01*
X138509500Y-112072000D01*
X139009500Y-112072000D01*
X139009500Y-112972000D01*
G37*
G36*
X153278500Y-112797500D02*
G01*
X152378500Y-112797500D01*
X152378500Y-111997500D01*
X153278500Y-111997500D01*
X153278500Y-112797500D01*
G37*
G36*
X145373000Y-112668000D02*
G01*
X144473000Y-112668000D01*
X144473000Y-111868000D01*
X145373000Y-111868000D01*
X145373000Y-112668000D01*
G37*
G36*
X149421000Y-112569500D02*
G01*
X148521000Y-112569500D01*
X148521000Y-112069500D01*
X149421000Y-112069500D01*
X149421000Y-112569500D01*
G37*
G36*
X142944000Y-112085500D02*
G01*
X142044000Y-112085500D01*
X142044000Y-111585500D01*
X142944000Y-111585500D01*
X142944000Y-112085500D01*
G37*
G36*
X147373000Y-111718000D02*
G01*
X146473000Y-111718000D01*
X146473000Y-110918000D01*
X147373000Y-110918000D01*
X147373000Y-111718000D01*
G37*
G36*
X159660500Y-111395500D02*
G01*
X158760500Y-111395500D01*
X158760500Y-110595500D01*
X159660500Y-110595500D01*
X159660500Y-111395500D01*
G37*
G36*
X149421000Y-111069500D02*
G01*
X148521000Y-111069500D01*
X148521000Y-110569500D01*
X149421000Y-110569500D01*
X149421000Y-111069500D01*
G37*
G36*
X165552500Y-110622500D02*
G01*
X165052500Y-110622500D01*
X165052500Y-109722500D01*
X165552500Y-109722500D01*
X165552500Y-110622500D01*
G37*
G36*
X167052500Y-110622500D02*
G01*
X166552500Y-110622500D01*
X166552500Y-109722500D01*
X167052500Y-109722500D01*
X167052500Y-110622500D01*
G37*
G36*
X161660500Y-110445500D02*
G01*
X160760500Y-110445500D01*
X160760500Y-109645500D01*
X161660500Y-109645500D01*
X161660500Y-110445500D01*
G37*
G36*
X141991500Y-109775500D02*
G01*
X141091500Y-109775500D01*
X141091500Y-109275500D01*
X141991500Y-109275500D01*
X141991500Y-109775500D01*
G37*
G36*
X177169500Y-109756500D02*
G01*
X176269500Y-109756500D01*
X176269500Y-108556500D01*
X177169500Y-108556500D01*
X177169500Y-109756500D01*
G37*
G36*
X173869500Y-109756500D02*
G01*
X172969500Y-109756500D01*
X172969500Y-108556500D01*
X173869500Y-108556500D01*
X173869500Y-109756500D01*
G37*
G36*
X158057000Y-109585000D02*
G01*
X157157000Y-109585000D01*
X157157000Y-109085000D01*
X158057000Y-109085000D01*
X158057000Y-109585000D01*
G37*
G36*
X159660500Y-109495500D02*
G01*
X158760500Y-109495500D01*
X158760500Y-108695500D01*
X159660500Y-108695500D01*
X159660500Y-109495500D01*
G37*
G36*
X140065000Y-109416000D02*
G01*
X139565000Y-109416000D01*
X139565000Y-108516000D01*
X140065000Y-108516000D01*
X140065000Y-109416000D01*
G37*
G36*
X138565000Y-109416000D02*
G01*
X138065000Y-109416000D01*
X138065000Y-108516000D01*
X138565000Y-108516000D01*
X138565000Y-109416000D01*
G37*
G36*
X145976000Y-109363500D02*
G01*
X145076000Y-109363500D01*
X145076000Y-108563500D01*
X145976000Y-108563500D01*
X145976000Y-109363500D01*
G37*
G36*
X187128877Y-105176358D02*
G01*
X187492853Y-105327122D01*
X187492855Y-105327123D01*
X187657751Y-105437303D01*
X187820425Y-105545998D01*
X188099002Y-105824575D01*
X188317878Y-106152147D01*
X188468642Y-106516123D01*
X188545500Y-106902516D01*
X188545500Y-107296484D01*
X188468642Y-107682877D01*
X188317878Y-108046853D01*
X188317877Y-108046855D01*
X188099001Y-108374426D01*
X187820426Y-108653001D01*
X187492855Y-108871877D01*
X187492854Y-108871878D01*
X187492853Y-108871878D01*
X187128877Y-109022642D01*
X186742484Y-109099500D01*
X186348516Y-109099500D01*
X185962123Y-109022642D01*
X185598147Y-108871878D01*
X185598146Y-108871878D01*
X185598145Y-108871877D01*
X185270574Y-108653001D01*
X184991999Y-108374426D01*
X184773123Y-108046855D01*
X184773122Y-108046853D01*
X184622358Y-107682877D01*
X184545500Y-107296484D01*
X184545500Y-106902516D01*
X184622358Y-106516123D01*
X184773122Y-106152147D01*
X184991998Y-105824575D01*
X185270575Y-105545998D01*
X185433249Y-105437303D01*
X185598145Y-105327123D01*
X185598147Y-105327122D01*
X185962123Y-105176358D01*
X186348516Y-105099500D01*
X186742484Y-105099500D01*
X187128877Y-105176358D01*
G37*
G36*
X143976000Y-108413500D02*
G01*
X143076000Y-108413500D01*
X143076000Y-107613500D01*
X143976000Y-107613500D01*
X143976000Y-108413500D01*
G37*
G36*
X141991500Y-108275500D02*
G01*
X141091500Y-108275500D01*
X141091500Y-107775500D01*
X141991500Y-107775500D01*
X141991500Y-108275500D01*
G37*
G36*
X158057000Y-108085000D02*
G01*
X157157000Y-108085000D01*
X157157000Y-107585000D01*
X158057000Y-107585000D01*
X158057000Y-108085000D01*
G37*
G36*
X150310000Y-107807000D02*
G01*
X149410000Y-107807000D01*
X149410000Y-107307000D01*
X150310000Y-107307000D01*
X150310000Y-107807000D01*
G37*
G36*
X145976000Y-107463500D02*
G01*
X145076000Y-107463500D01*
X145076000Y-106663500D01*
X145976000Y-106663500D01*
X145976000Y-107463500D01*
G37*
G36*
X150310000Y-106307000D02*
G01*
X149410000Y-106307000D01*
X149410000Y-105807000D01*
X150310000Y-105807000D01*
X150310000Y-106307000D01*
G37*
G36*
X181017851Y-104704243D02*
G01*
X181163441Y-104764548D01*
X181294470Y-104852099D01*
X181405901Y-104963530D01*
X181493452Y-105094559D01*
X181553757Y-105240149D01*
X181584500Y-105394706D01*
X181584500Y-105552294D01*
X181553757Y-105706851D01*
X181493452Y-105852441D01*
X181405901Y-105983470D01*
X181294470Y-106094901D01*
X181163441Y-106182452D01*
X181017851Y-106242757D01*
X180863294Y-106273500D01*
X180705706Y-106273500D01*
X180551149Y-106242757D01*
X180405559Y-106182452D01*
X180274530Y-106094901D01*
X180163099Y-105983470D01*
X180075548Y-105852441D01*
X180015243Y-105706851D01*
X179984500Y-105552294D01*
X179984500Y-105394706D01*
X180015243Y-105240149D01*
X180075548Y-105094559D01*
X180163099Y-104963530D01*
X180274530Y-104852099D01*
X180405559Y-104764548D01*
X180551149Y-104704243D01*
X180705706Y-104673500D01*
X180863294Y-104673500D01*
X181017851Y-104704243D01*
G37*
G36*
X173397851Y-104704243D02*
G01*
X173543441Y-104764548D01*
X173674470Y-104852099D01*
X173785901Y-104963530D01*
X173873452Y-105094559D01*
X173933757Y-105240149D01*
X173964500Y-105394706D01*
X173964500Y-105552294D01*
X173933757Y-105706851D01*
X173873452Y-105852441D01*
X173785901Y-105983470D01*
X173674470Y-106094901D01*
X173543441Y-106182452D01*
X173397851Y-106242757D01*
X173243294Y-106273500D01*
X173085706Y-106273500D01*
X172931149Y-106242757D01*
X172785559Y-106182452D01*
X172654530Y-106094901D01*
X172543099Y-105983470D01*
X172455548Y-105852441D01*
X172395243Y-105706851D01*
X172364500Y-105552294D01*
X172364500Y-105394706D01*
X172395243Y-105240149D01*
X172455548Y-105094559D01*
X172543099Y-104963530D01*
X172654530Y-104852099D01*
X172785559Y-104764548D01*
X172931149Y-104704243D01*
X173085706Y-104673500D01*
X173243294Y-104673500D01*
X173397851Y-104704243D01*
G37*
G36*
X181017851Y-102164243D02*
G01*
X181163441Y-102224548D01*
X181294470Y-102312099D01*
X181405901Y-102423530D01*
X181493452Y-102554559D01*
X181553757Y-102700149D01*
X181584500Y-102854706D01*
X181584500Y-103012294D01*
X181553757Y-103166851D01*
X181493452Y-103312441D01*
X181405901Y-103443470D01*
X181294470Y-103554901D01*
X181163441Y-103642452D01*
X181017851Y-103702757D01*
X180863294Y-103733500D01*
X180705706Y-103733500D01*
X180551149Y-103702757D01*
X180405559Y-103642452D01*
X180274530Y-103554901D01*
X180163099Y-103443470D01*
X180075548Y-103312441D01*
X180015243Y-103166851D01*
X179984500Y-103012294D01*
X179984500Y-102854706D01*
X180015243Y-102700149D01*
X180075548Y-102554559D01*
X180163099Y-102423530D01*
X180274530Y-102312099D01*
X180405559Y-102224548D01*
X180551149Y-102164243D01*
X180705706Y-102133500D01*
X180863294Y-102133500D01*
X181017851Y-102164243D01*
G37*
G36*
X173397851Y-102164243D02*
G01*
X173543441Y-102224548D01*
X173674470Y-102312099D01*
X173785901Y-102423530D01*
X173873452Y-102554559D01*
X173933757Y-102700149D01*
X173964500Y-102854706D01*
X173964500Y-103012294D01*
X173933757Y-103166851D01*
X173873452Y-103312441D01*
X173785901Y-103443470D01*
X173674470Y-103554901D01*
X173543441Y-103642452D01*
X173397851Y-103702757D01*
X173243294Y-103733500D01*
X173085706Y-103733500D01*
X172931149Y-103702757D01*
X172785559Y-103642452D01*
X172654530Y-103554901D01*
X172543099Y-103443470D01*
X172455548Y-103312441D01*
X172395243Y-103166851D01*
X172364500Y-103012294D01*
X172364500Y-102854706D01*
X172395243Y-102700149D01*
X172455548Y-102554559D01*
X172543099Y-102423530D01*
X172654530Y-102312099D01*
X172785559Y-102224548D01*
X172931149Y-102164243D01*
X173085706Y-102133500D01*
X173243294Y-102133500D01*
X173397851Y-102164243D01*
G37*
G36*
X166666851Y-101211743D02*
G01*
X166812441Y-101272048D01*
X166943470Y-101359599D01*
X167054901Y-101471030D01*
X167142452Y-101602059D01*
X167202757Y-101747649D01*
X167233500Y-101902206D01*
X167233500Y-102059794D01*
X167202757Y-102214351D01*
X167142452Y-102359941D01*
X167054901Y-102490970D01*
X166943470Y-102602401D01*
X166812441Y-102689952D01*
X166666851Y-102750257D01*
X166512294Y-102781000D01*
X166354706Y-102781000D01*
X166200149Y-102750257D01*
X166054559Y-102689952D01*
X165923530Y-102602401D01*
X165812099Y-102490970D01*
X165724548Y-102359941D01*
X165664243Y-102214351D01*
X165633500Y-102059794D01*
X165633500Y-101902206D01*
X165664243Y-101747649D01*
X165724548Y-101602059D01*
X165812099Y-101471030D01*
X165923530Y-101359599D01*
X166054559Y-101272048D01*
X166200149Y-101211743D01*
X166354706Y-101181000D01*
X166512294Y-101181000D01*
X166666851Y-101211743D01*
G37*
G36*
X169206851Y-101211743D02*
G01*
X169352441Y-101272048D01*
X169483470Y-101359599D01*
X169594901Y-101471030D01*
X169682452Y-101602059D01*
X169742757Y-101747649D01*
X169773500Y-101902206D01*
X169773500Y-102059794D01*
X169742757Y-102214351D01*
X169682452Y-102359941D01*
X169594901Y-102490970D01*
X169483470Y-102602401D01*
X169352441Y-102689952D01*
X169206851Y-102750257D01*
X169052294Y-102781000D01*
X168894706Y-102781000D01*
X168740149Y-102750257D01*
X168594559Y-102689952D01*
X168463530Y-102602401D01*
X168352099Y-102490970D01*
X168264548Y-102359941D01*
X168204243Y-102214351D01*
X168173500Y-102059794D01*
X168173500Y-101902206D01*
X168204243Y-101747649D01*
X168264548Y-101602059D01*
X168352099Y-101471030D01*
X168463530Y-101359599D01*
X168594559Y-101272048D01*
X168740149Y-101211743D01*
X168894706Y-101181000D01*
X169052294Y-101181000D01*
X169206851Y-101211743D01*
G37*
G36*
X161586851Y-101211743D02*
G01*
X161732441Y-101272048D01*
X161863470Y-101359599D01*
X161974901Y-101471030D01*
X162062452Y-101602059D01*
X162122757Y-101747649D01*
X162153500Y-101902206D01*
X162153500Y-102059794D01*
X162122757Y-102214351D01*
X162062452Y-102359941D01*
X161974901Y-102490970D01*
X161863470Y-102602401D01*
X161732441Y-102689952D01*
X161586851Y-102750257D01*
X161432294Y-102781000D01*
X161274706Y-102781000D01*
X161120149Y-102750257D01*
X160974559Y-102689952D01*
X160843530Y-102602401D01*
X160732099Y-102490970D01*
X160644548Y-102359941D01*
X160584243Y-102214351D01*
X160553500Y-102059794D01*
X160553500Y-101902206D01*
X160584243Y-101747649D01*
X160644548Y-101602059D01*
X160732099Y-101471030D01*
X160843530Y-101359599D01*
X160974559Y-101272048D01*
X161120149Y-101211743D01*
X161274706Y-101181000D01*
X161432294Y-101181000D01*
X161586851Y-101211743D01*
G37*
G36*
X138726851Y-101211743D02*
G01*
X138872441Y-101272048D01*
X139003470Y-101359599D01*
X139114901Y-101471030D01*
X139202452Y-101602059D01*
X139262757Y-101747649D01*
X139293500Y-101902206D01*
X139293500Y-102059794D01*
X139262757Y-102214351D01*
X139202452Y-102359941D01*
X139114901Y-102490970D01*
X139003470Y-102602401D01*
X138872441Y-102689952D01*
X138726851Y-102750257D01*
X138572294Y-102781000D01*
X138414706Y-102781000D01*
X138260149Y-102750257D01*
X138114559Y-102689952D01*
X137983530Y-102602401D01*
X137872099Y-102490970D01*
X137784548Y-102359941D01*
X137724243Y-102214351D01*
X137693500Y-102059794D01*
X137693500Y-101902206D01*
X137724243Y-101747649D01*
X137784548Y-101602059D01*
X137872099Y-101471030D01*
X137983530Y-101359599D01*
X138114559Y-101272048D01*
X138260149Y-101211743D01*
X138414706Y-101181000D01*
X138572294Y-101181000D01*
X138726851Y-101211743D01*
G37*
G36*
X148886851Y-101211743D02*
G01*
X149032441Y-101272048D01*
X149163470Y-101359599D01*
X149274901Y-101471030D01*
X149362452Y-101602059D01*
X149422757Y-101747649D01*
X149453500Y-101902206D01*
X149453500Y-102059794D01*
X149422757Y-102214351D01*
X149362452Y-102359941D01*
X149274901Y-102490970D01*
X149163470Y-102602401D01*
X149032441Y-102689952D01*
X148886851Y-102750257D01*
X148732294Y-102781000D01*
X148574706Y-102781000D01*
X148420149Y-102750257D01*
X148274559Y-102689952D01*
X148143530Y-102602401D01*
X148032099Y-102490970D01*
X147944548Y-102359941D01*
X147884243Y-102214351D01*
X147853500Y-102059794D01*
X147853500Y-101902206D01*
X147884243Y-101747649D01*
X147944548Y-101602059D01*
X148032099Y-101471030D01*
X148143530Y-101359599D01*
X148274559Y-101272048D01*
X148420149Y-101211743D01*
X148574706Y-101181000D01*
X148732294Y-101181000D01*
X148886851Y-101211743D01*
G37*
G36*
X136186851Y-101211743D02*
G01*
X136332441Y-101272048D01*
X136463470Y-101359599D01*
X136574901Y-101471030D01*
X136662452Y-101602059D01*
X136722757Y-101747649D01*
X136753500Y-101902206D01*
X136753500Y-102059794D01*
X136722757Y-102214351D01*
X136662452Y-102359941D01*
X136574901Y-102490970D01*
X136463470Y-102602401D01*
X136332441Y-102689952D01*
X136186851Y-102750257D01*
X136032294Y-102781000D01*
X135874706Y-102781000D01*
X135720149Y-102750257D01*
X135574559Y-102689952D01*
X135443530Y-102602401D01*
X135332099Y-102490970D01*
X135244548Y-102359941D01*
X135184243Y-102214351D01*
X135153500Y-102059794D01*
X135153500Y-101902206D01*
X135184243Y-101747649D01*
X135244548Y-101602059D01*
X135332099Y-101471030D01*
X135443530Y-101359599D01*
X135574559Y-101272048D01*
X135720149Y-101211743D01*
X135874706Y-101181000D01*
X136032294Y-101181000D01*
X136186851Y-101211743D01*
G37*
G36*
X159046851Y-101211743D02*
G01*
X159192441Y-101272048D01*
X159323470Y-101359599D01*
X159434901Y-101471030D01*
X159522452Y-101602059D01*
X159582757Y-101747649D01*
X159613500Y-101902206D01*
X159613500Y-102059794D01*
X159582757Y-102214351D01*
X159522452Y-102359941D01*
X159434901Y-102490970D01*
X159323470Y-102602401D01*
X159192441Y-102689952D01*
X159046851Y-102750257D01*
X158892294Y-102781000D01*
X158734706Y-102781000D01*
X158580149Y-102750257D01*
X158434559Y-102689952D01*
X158303530Y-102602401D01*
X158192099Y-102490970D01*
X158104548Y-102359941D01*
X158044243Y-102214351D01*
X158013500Y-102059794D01*
X158013500Y-101902206D01*
X158044243Y-101747649D01*
X158104548Y-101602059D01*
X158192099Y-101471030D01*
X158303530Y-101359599D01*
X158434559Y-101272048D01*
X158580149Y-101211743D01*
X158734706Y-101181000D01*
X158892294Y-101181000D01*
X159046851Y-101211743D01*
G37*
G36*
X153966851Y-101211743D02*
G01*
X154112441Y-101272048D01*
X154243470Y-101359599D01*
X154354901Y-101471030D01*
X154442452Y-101602059D01*
X154502757Y-101747649D01*
X154533500Y-101902206D01*
X154533500Y-102059794D01*
X154502757Y-102214351D01*
X154442452Y-102359941D01*
X154354901Y-102490970D01*
X154243470Y-102602401D01*
X154112441Y-102689952D01*
X153966851Y-102750257D01*
X153812294Y-102781000D01*
X153654706Y-102781000D01*
X153500149Y-102750257D01*
X153354559Y-102689952D01*
X153223530Y-102602401D01*
X153112099Y-102490970D01*
X153024548Y-102359941D01*
X152964243Y-102214351D01*
X152933500Y-102059794D01*
X152933500Y-101902206D01*
X152964243Y-101747649D01*
X153024548Y-101602059D01*
X153112099Y-101471030D01*
X153223530Y-101359599D01*
X153354559Y-101272048D01*
X153500149Y-101211743D01*
X153654706Y-101181000D01*
X153812294Y-101181000D01*
X153966851Y-101211743D01*
G37*
G36*
X156506851Y-101211743D02*
G01*
X156652441Y-101272048D01*
X156783470Y-101359599D01*
X156894901Y-101471030D01*
X156982452Y-101602059D01*
X157042757Y-101747649D01*
X157073500Y-101902206D01*
X157073500Y-102059794D01*
X157042757Y-102214351D01*
X156982452Y-102359941D01*
X156894901Y-102490970D01*
X156783470Y-102602401D01*
X156652441Y-102689952D01*
X156506851Y-102750257D01*
X156352294Y-102781000D01*
X156194706Y-102781000D01*
X156040149Y-102750257D01*
X155894559Y-102689952D01*
X155763530Y-102602401D01*
X155652099Y-102490970D01*
X155564548Y-102359941D01*
X155504243Y-102214351D01*
X155473500Y-102059794D01*
X155473500Y-101902206D01*
X155504243Y-101747649D01*
X155564548Y-101602059D01*
X155652099Y-101471030D01*
X155763530Y-101359599D01*
X155894559Y-101272048D01*
X156040149Y-101211743D01*
X156194706Y-101181000D01*
X156352294Y-101181000D01*
X156506851Y-101211743D01*
G37*
G36*
X164126851Y-101211743D02*
G01*
X164272441Y-101272048D01*
X164403470Y-101359599D01*
X164514901Y-101471030D01*
X164602452Y-101602059D01*
X164662757Y-101747649D01*
X164693500Y-101902206D01*
X164693500Y-102059794D01*
X164662757Y-102214351D01*
X164602452Y-102359941D01*
X164514901Y-102490970D01*
X164403470Y-102602401D01*
X164272441Y-102689952D01*
X164126851Y-102750257D01*
X163972294Y-102781000D01*
X163814706Y-102781000D01*
X163660149Y-102750257D01*
X163514559Y-102689952D01*
X163383530Y-102602401D01*
X163272099Y-102490970D01*
X163184548Y-102359941D01*
X163124243Y-102214351D01*
X163093500Y-102059794D01*
X163093500Y-101902206D01*
X163124243Y-101747649D01*
X163184548Y-101602059D01*
X163272099Y-101471030D01*
X163383530Y-101359599D01*
X163514559Y-101272048D01*
X163660149Y-101211743D01*
X163814706Y-101181000D01*
X163972294Y-101181000D01*
X164126851Y-101211743D01*
G37*
G36*
X141266851Y-101211743D02*
G01*
X141412441Y-101272048D01*
X141543470Y-101359599D01*
X141654901Y-101471030D01*
X141742452Y-101602059D01*
X141802757Y-101747649D01*
X141833500Y-101902206D01*
X141833500Y-102059794D01*
X141802757Y-102214351D01*
X141742452Y-102359941D01*
X141654901Y-102490970D01*
X141543470Y-102602401D01*
X141412441Y-102689952D01*
X141266851Y-102750257D01*
X141112294Y-102781000D01*
X140954706Y-102781000D01*
X140800149Y-102750257D01*
X140654559Y-102689952D01*
X140523530Y-102602401D01*
X140412099Y-102490970D01*
X140324548Y-102359941D01*
X140264243Y-102214351D01*
X140233500Y-102059794D01*
X140233500Y-101902206D01*
X140264243Y-101747649D01*
X140324548Y-101602059D01*
X140412099Y-101471030D01*
X140523530Y-101359599D01*
X140654559Y-101272048D01*
X140800149Y-101211743D01*
X140954706Y-101181000D01*
X141112294Y-101181000D01*
X141266851Y-101211743D01*
G37*
G36*
X146346851Y-101211743D02*
G01*
X146492441Y-101272048D01*
X146623470Y-101359599D01*
X146734901Y-101471030D01*
X146822452Y-101602059D01*
X146882757Y-101747649D01*
X146913500Y-101902206D01*
X146913500Y-102059794D01*
X146882757Y-102214351D01*
X146822452Y-102359941D01*
X146734901Y-102490970D01*
X146623470Y-102602401D01*
X146492441Y-102689952D01*
X146346851Y-102750257D01*
X146192294Y-102781000D01*
X146034706Y-102781000D01*
X145880149Y-102750257D01*
X145734559Y-102689952D01*
X145603530Y-102602401D01*
X145492099Y-102490970D01*
X145404548Y-102359941D01*
X145344243Y-102214351D01*
X145313500Y-102059794D01*
X145313500Y-101902206D01*
X145344243Y-101747649D01*
X145404548Y-101602059D01*
X145492099Y-101471030D01*
X145603530Y-101359599D01*
X145734559Y-101272048D01*
X145880149Y-101211743D01*
X146034706Y-101181000D01*
X146192294Y-101181000D01*
X146346851Y-101211743D01*
G37*
G36*
X151426851Y-101211743D02*
G01*
X151572441Y-101272048D01*
X151703470Y-101359599D01*
X151814901Y-101471030D01*
X151902452Y-101602059D01*
X151962757Y-101747649D01*
X151993500Y-101902206D01*
X151993500Y-102059794D01*
X151962757Y-102214351D01*
X151902452Y-102359941D01*
X151814901Y-102490970D01*
X151703470Y-102602401D01*
X151572441Y-102689952D01*
X151426851Y-102750257D01*
X151272294Y-102781000D01*
X151114706Y-102781000D01*
X150960149Y-102750257D01*
X150814559Y-102689952D01*
X150683530Y-102602401D01*
X150572099Y-102490970D01*
X150484548Y-102359941D01*
X150424243Y-102214351D01*
X150393500Y-102059794D01*
X150393500Y-101902206D01*
X150424243Y-101747649D01*
X150484548Y-101602059D01*
X150572099Y-101471030D01*
X150683530Y-101359599D01*
X150814559Y-101272048D01*
X150960149Y-101211743D01*
X151114706Y-101181000D01*
X151272294Y-101181000D01*
X151426851Y-101211743D01*
G37*
G36*
X143806851Y-101211743D02*
G01*
X143952441Y-101272048D01*
X144083470Y-101359599D01*
X144194901Y-101471030D01*
X144282452Y-101602059D01*
X144342757Y-101747649D01*
X144373500Y-101902206D01*
X144373500Y-102059794D01*
X144342757Y-102214351D01*
X144282452Y-102359941D01*
X144194901Y-102490970D01*
X144083470Y-102602401D01*
X143952441Y-102689952D01*
X143806851Y-102750257D01*
X143652294Y-102781000D01*
X143494706Y-102781000D01*
X143340149Y-102750257D01*
X143194559Y-102689952D01*
X143063530Y-102602401D01*
X142952099Y-102490970D01*
X142864548Y-102359941D01*
X142804243Y-102214351D01*
X142773500Y-102059794D01*
X142773500Y-101902206D01*
X142804243Y-101747649D01*
X142864548Y-101602059D01*
X142952099Y-101471030D01*
X143063530Y-101359599D01*
X143194559Y-101272048D01*
X143340149Y-101211743D01*
X143494706Y-101181000D01*
X143652294Y-101181000D01*
X143806851Y-101211743D01*
G37*
G36*
X181017851Y-99624243D02*
G01*
X181163441Y-99684548D01*
X181294470Y-99772099D01*
X181405901Y-99883530D01*
X181493452Y-100014559D01*
X181553757Y-100160149D01*
X181584500Y-100314706D01*
X181584500Y-100472294D01*
X181553757Y-100626851D01*
X181493452Y-100772441D01*
X181405901Y-100903470D01*
X181294470Y-101014901D01*
X181163441Y-101102452D01*
X181017851Y-101162757D01*
X180863294Y-101193500D01*
X180705706Y-101193500D01*
X180551149Y-101162757D01*
X180405559Y-101102452D01*
X180274530Y-101014901D01*
X180163099Y-100903470D01*
X180075548Y-100772441D01*
X180015243Y-100626851D01*
X179984500Y-100472294D01*
X179984500Y-100314706D01*
X180015243Y-100160149D01*
X180075548Y-100014559D01*
X180163099Y-99883530D01*
X180274530Y-99772099D01*
X180405559Y-99684548D01*
X180551149Y-99624243D01*
X180705706Y-99593500D01*
X180863294Y-99593500D01*
X181017851Y-99624243D01*
G37*
G36*
X173397851Y-99624243D02*
G01*
X173543441Y-99684548D01*
X173674470Y-99772099D01*
X173785901Y-99883530D01*
X173873452Y-100014559D01*
X173933757Y-100160149D01*
X173964500Y-100314706D01*
X173964500Y-100472294D01*
X173933757Y-100626851D01*
X173873452Y-100772441D01*
X173785901Y-100903470D01*
X173674470Y-101014901D01*
X173543441Y-101102452D01*
X173397851Y-101162757D01*
X173243294Y-101193500D01*
X173085706Y-101193500D01*
X172931149Y-101162757D01*
X172785559Y-101102452D01*
X172654530Y-101014901D01*
X172543099Y-100903470D01*
X172455548Y-100772441D01*
X172395243Y-100626851D01*
X172364500Y-100472294D01*
X172364500Y-100314706D01*
X172395243Y-100160149D01*
X172455548Y-100014559D01*
X172543099Y-99883530D01*
X172654530Y-99772099D01*
X172785559Y-99684548D01*
X172931149Y-99624243D01*
X173085706Y-99593500D01*
X173243294Y-99593500D01*
X173397851Y-99624243D01*
G37*
G36*
X187045500Y-100939500D02*
G01*
X185445500Y-100939500D01*
X185445500Y-99339500D01*
X187045500Y-99339500D01*
X187045500Y-100939500D01*
G37*
G36*
X189318851Y-97985243D02*
G01*
X189464441Y-98045548D01*
X189595470Y-98133099D01*
X189706901Y-98244530D01*
X189794452Y-98375559D01*
X189854757Y-98521149D01*
X189885500Y-98675706D01*
X189885500Y-98833294D01*
X189854757Y-98987851D01*
X189794452Y-99133441D01*
X189706901Y-99264470D01*
X189595470Y-99375901D01*
X189464441Y-99463452D01*
X189318851Y-99523757D01*
X189164294Y-99554500D01*
X189006706Y-99554500D01*
X188852149Y-99523757D01*
X188706559Y-99463452D01*
X188575530Y-99375901D01*
X188464099Y-99264470D01*
X188376548Y-99133441D01*
X188316243Y-98987851D01*
X188285500Y-98833294D01*
X188285500Y-98675706D01*
X188316243Y-98521149D01*
X188376548Y-98375559D01*
X188464099Y-98244530D01*
X188575530Y-98133099D01*
X188706559Y-98045548D01*
X188852149Y-97985243D01*
X189006706Y-97954500D01*
X189164294Y-97954500D01*
X189318851Y-97985243D01*
G37*
G36*
X181017851Y-97084243D02*
G01*
X181163441Y-97144548D01*
X181294470Y-97232099D01*
X181405901Y-97343530D01*
X181493452Y-97474559D01*
X181553757Y-97620149D01*
X181584500Y-97774706D01*
X181584500Y-97932294D01*
X181553757Y-98086851D01*
X181493452Y-98232441D01*
X181405901Y-98363470D01*
X181294470Y-98474901D01*
X181163441Y-98562452D01*
X181017851Y-98622757D01*
X180863294Y-98653500D01*
X180705706Y-98653500D01*
X180551149Y-98622757D01*
X180405559Y-98562452D01*
X180274530Y-98474901D01*
X180163099Y-98363470D01*
X180075548Y-98232441D01*
X180015243Y-98086851D01*
X179984500Y-97932294D01*
X179984500Y-97774706D01*
X180015243Y-97620149D01*
X180075548Y-97474559D01*
X180163099Y-97343530D01*
X180274530Y-97232099D01*
X180405559Y-97144548D01*
X180551149Y-97084243D01*
X180705706Y-97053500D01*
X180863294Y-97053500D01*
X181017851Y-97084243D01*
G37*
G36*
X173964500Y-98653500D02*
G01*
X172364500Y-98653500D01*
X172364500Y-97053500D01*
X173964500Y-97053500D01*
X173964500Y-98653500D01*
G37*
G36*
X186478851Y-96600243D02*
G01*
X186624441Y-96660548D01*
X186755470Y-96748099D01*
X186866901Y-96859530D01*
X186954452Y-96990559D01*
X187014757Y-97136149D01*
X187045500Y-97290706D01*
X187045500Y-97448294D01*
X187014757Y-97602851D01*
X186954452Y-97748441D01*
X186866901Y-97879470D01*
X186755470Y-97990901D01*
X186624441Y-98078452D01*
X186478851Y-98138757D01*
X186324294Y-98169500D01*
X186166706Y-98169500D01*
X186012149Y-98138757D01*
X185866559Y-98078452D01*
X185735530Y-97990901D01*
X185624099Y-97879470D01*
X185536548Y-97748441D01*
X185476243Y-97602851D01*
X185445500Y-97448294D01*
X185445500Y-97290706D01*
X185476243Y-97136149D01*
X185536548Y-96990559D01*
X185624099Y-96859530D01*
X185735530Y-96748099D01*
X185866559Y-96660548D01*
X186012149Y-96600243D01*
X186166706Y-96569500D01*
X186324294Y-96569500D01*
X186478851Y-96600243D01*
G37*
G36*
X189318851Y-95215243D02*
G01*
X189464441Y-95275548D01*
X189595470Y-95363099D01*
X189706901Y-95474530D01*
X189794452Y-95605559D01*
X189854757Y-95751149D01*
X189885500Y-95905706D01*
X189885500Y-96063294D01*
X189854757Y-96217851D01*
X189794452Y-96363441D01*
X189706901Y-96494470D01*
X189595470Y-96605901D01*
X189464441Y-96693452D01*
X189318851Y-96753757D01*
X189164294Y-96784500D01*
X189006706Y-96784500D01*
X188852149Y-96753757D01*
X188706559Y-96693452D01*
X188575530Y-96605901D01*
X188464099Y-96494470D01*
X188376548Y-96363441D01*
X188316243Y-96217851D01*
X188285500Y-96063294D01*
X188285500Y-95905706D01*
X188316243Y-95751149D01*
X188376548Y-95605559D01*
X188464099Y-95474530D01*
X188575530Y-95363099D01*
X188706559Y-95275548D01*
X188852149Y-95215243D01*
X189006706Y-95184500D01*
X189164294Y-95184500D01*
X189318851Y-95215243D01*
G37*
G36*
X186478851Y-93830243D02*
G01*
X186624441Y-93890548D01*
X186755470Y-93978099D01*
X186866901Y-94089530D01*
X186954452Y-94220559D01*
X187014757Y-94366149D01*
X187045500Y-94520706D01*
X187045500Y-94678294D01*
X187014757Y-94832851D01*
X186954452Y-94978441D01*
X186866901Y-95109470D01*
X186755470Y-95220901D01*
X186624441Y-95308452D01*
X186478851Y-95368757D01*
X186324294Y-95399500D01*
X186166706Y-95399500D01*
X186012149Y-95368757D01*
X185866559Y-95308452D01*
X185735530Y-95220901D01*
X185624099Y-95109470D01*
X185536548Y-94978441D01*
X185476243Y-94832851D01*
X185445500Y-94678294D01*
X185445500Y-94520706D01*
X185476243Y-94366149D01*
X185536548Y-94220559D01*
X185624099Y-94089530D01*
X185735530Y-93978099D01*
X185866559Y-93890548D01*
X186012149Y-93830243D01*
X186166706Y-93799500D01*
X186324294Y-93799500D01*
X186478851Y-93830243D01*
G37*
G36*
X136186851Y-93591743D02*
G01*
X136332441Y-93652048D01*
X136463470Y-93739599D01*
X136574901Y-93851030D01*
X136662452Y-93982059D01*
X136722757Y-94127649D01*
X136753500Y-94282206D01*
X136753500Y-94439794D01*
X136722757Y-94594351D01*
X136662452Y-94739941D01*
X136574901Y-94870970D01*
X136463470Y-94982401D01*
X136332441Y-95069952D01*
X136186851Y-95130257D01*
X136032294Y-95161000D01*
X135874706Y-95161000D01*
X135720149Y-95130257D01*
X135574559Y-95069952D01*
X135443530Y-94982401D01*
X135332099Y-94870970D01*
X135244548Y-94739941D01*
X135184243Y-94594351D01*
X135153500Y-94439794D01*
X135153500Y-94282206D01*
X135184243Y-94127649D01*
X135244548Y-93982059D01*
X135332099Y-93851030D01*
X135443530Y-93739599D01*
X135574559Y-93652048D01*
X135720149Y-93591743D01*
X135874706Y-93561000D01*
X136032294Y-93561000D01*
X136186851Y-93591743D01*
G37*
G36*
X161586851Y-93591743D02*
G01*
X161732441Y-93652048D01*
X161863470Y-93739599D01*
X161974901Y-93851030D01*
X162062452Y-93982059D01*
X162122757Y-94127649D01*
X162153500Y-94282206D01*
X162153500Y-94439794D01*
X162122757Y-94594351D01*
X162062452Y-94739941D01*
X161974901Y-94870970D01*
X161863470Y-94982401D01*
X161732441Y-95069952D01*
X161586851Y-95130257D01*
X161432294Y-95161000D01*
X161274706Y-95161000D01*
X161120149Y-95130257D01*
X160974559Y-95069952D01*
X160843530Y-94982401D01*
X160732099Y-94870970D01*
X160644548Y-94739941D01*
X160584243Y-94594351D01*
X160553500Y-94439794D01*
X160553500Y-94282206D01*
X160584243Y-94127649D01*
X160644548Y-93982059D01*
X160732099Y-93851030D01*
X160843530Y-93739599D01*
X160974559Y-93652048D01*
X161120149Y-93591743D01*
X161274706Y-93561000D01*
X161432294Y-93561000D01*
X161586851Y-93591743D01*
G37*
G36*
X159046851Y-93591743D02*
G01*
X159192441Y-93652048D01*
X159323470Y-93739599D01*
X159434901Y-93851030D01*
X159522452Y-93982059D01*
X159582757Y-94127649D01*
X159613500Y-94282206D01*
X159613500Y-94439794D01*
X159582757Y-94594351D01*
X159522452Y-94739941D01*
X159434901Y-94870970D01*
X159323470Y-94982401D01*
X159192441Y-95069952D01*
X159046851Y-95130257D01*
X158892294Y-95161000D01*
X158734706Y-95161000D01*
X158580149Y-95130257D01*
X158434559Y-95069952D01*
X158303530Y-94982401D01*
X158192099Y-94870970D01*
X158104548Y-94739941D01*
X158044243Y-94594351D01*
X158013500Y-94439794D01*
X158013500Y-94282206D01*
X158044243Y-94127649D01*
X158104548Y-93982059D01*
X158192099Y-93851030D01*
X158303530Y-93739599D01*
X158434559Y-93652048D01*
X158580149Y-93591743D01*
X158734706Y-93561000D01*
X158892294Y-93561000D01*
X159046851Y-93591743D01*
G37*
G36*
X153966851Y-93591743D02*
G01*
X154112441Y-93652048D01*
X154243470Y-93739599D01*
X154354901Y-93851030D01*
X154442452Y-93982059D01*
X154502757Y-94127649D01*
X154533500Y-94282206D01*
X154533500Y-94439794D01*
X154502757Y-94594351D01*
X154442452Y-94739941D01*
X154354901Y-94870970D01*
X154243470Y-94982401D01*
X154112441Y-95069952D01*
X153966851Y-95130257D01*
X153812294Y-95161000D01*
X153654706Y-95161000D01*
X153500149Y-95130257D01*
X153354559Y-95069952D01*
X153223530Y-94982401D01*
X153112099Y-94870970D01*
X153024548Y-94739941D01*
X152964243Y-94594351D01*
X152933500Y-94439794D01*
X152933500Y-94282206D01*
X152964243Y-94127649D01*
X153024548Y-93982059D01*
X153112099Y-93851030D01*
X153223530Y-93739599D01*
X153354559Y-93652048D01*
X153500149Y-93591743D01*
X153654706Y-93561000D01*
X153812294Y-93561000D01*
X153966851Y-93591743D01*
G37*
G36*
X151426851Y-93591743D02*
G01*
X151572441Y-93652048D01*
X151703470Y-93739599D01*
X151814901Y-93851030D01*
X151902452Y-93982059D01*
X151962757Y-94127649D01*
X151993500Y-94282206D01*
X151993500Y-94439794D01*
X151962757Y-94594351D01*
X151902452Y-94739941D01*
X151814901Y-94870970D01*
X151703470Y-94982401D01*
X151572441Y-95069952D01*
X151426851Y-95130257D01*
X151272294Y-95161000D01*
X151114706Y-95161000D01*
X150960149Y-95130257D01*
X150814559Y-95069952D01*
X150683530Y-94982401D01*
X150572099Y-94870970D01*
X150484548Y-94739941D01*
X150424243Y-94594351D01*
X150393500Y-94439794D01*
X150393500Y-94282206D01*
X150424243Y-94127649D01*
X150484548Y-93982059D01*
X150572099Y-93851030D01*
X150683530Y-93739599D01*
X150814559Y-93652048D01*
X150960149Y-93591743D01*
X151114706Y-93561000D01*
X151272294Y-93561000D01*
X151426851Y-93591743D01*
G37*
G36*
X148886851Y-93591743D02*
G01*
X149032441Y-93652048D01*
X149163470Y-93739599D01*
X149274901Y-93851030D01*
X149362452Y-93982059D01*
X149422757Y-94127649D01*
X149453500Y-94282206D01*
X149453500Y-94439794D01*
X149422757Y-94594351D01*
X149362452Y-94739941D01*
X149274901Y-94870970D01*
X149163470Y-94982401D01*
X149032441Y-95069952D01*
X148886851Y-95130257D01*
X148732294Y-95161000D01*
X148574706Y-95161000D01*
X148420149Y-95130257D01*
X148274559Y-95069952D01*
X148143530Y-94982401D01*
X148032099Y-94870970D01*
X147944548Y-94739941D01*
X147884243Y-94594351D01*
X147853500Y-94439794D01*
X147853500Y-94282206D01*
X147884243Y-94127649D01*
X147944548Y-93982059D01*
X148032099Y-93851030D01*
X148143530Y-93739599D01*
X148274559Y-93652048D01*
X148420149Y-93591743D01*
X148574706Y-93561000D01*
X148732294Y-93561000D01*
X148886851Y-93591743D01*
G37*
G36*
X164126851Y-93591743D02*
G01*
X164272441Y-93652048D01*
X164403470Y-93739599D01*
X164514901Y-93851030D01*
X164602452Y-93982059D01*
X164662757Y-94127649D01*
X164693500Y-94282206D01*
X164693500Y-94439794D01*
X164662757Y-94594351D01*
X164602452Y-94739941D01*
X164514901Y-94870970D01*
X164403470Y-94982401D01*
X164272441Y-95069952D01*
X164126851Y-95130257D01*
X163972294Y-95161000D01*
X163814706Y-95161000D01*
X163660149Y-95130257D01*
X163514559Y-95069952D01*
X163383530Y-94982401D01*
X163272099Y-94870970D01*
X163184548Y-94739941D01*
X163124243Y-94594351D01*
X163093500Y-94439794D01*
X163093500Y-94282206D01*
X163124243Y-94127649D01*
X163184548Y-93982059D01*
X163272099Y-93851030D01*
X163383530Y-93739599D01*
X163514559Y-93652048D01*
X163660149Y-93591743D01*
X163814706Y-93561000D01*
X163972294Y-93561000D01*
X164126851Y-93591743D01*
G37*
G36*
X143806851Y-93591743D02*
G01*
X143952441Y-93652048D01*
X144083470Y-93739599D01*
X144194901Y-93851030D01*
X144282452Y-93982059D01*
X144342757Y-94127649D01*
X144373500Y-94282206D01*
X144373500Y-94439794D01*
X144342757Y-94594351D01*
X144282452Y-94739941D01*
X144194901Y-94870970D01*
X144083470Y-94982401D01*
X143952441Y-95069952D01*
X143806851Y-95130257D01*
X143652294Y-95161000D01*
X143494706Y-95161000D01*
X143340149Y-95130257D01*
X143194559Y-95069952D01*
X143063530Y-94982401D01*
X142952099Y-94870970D01*
X142864548Y-94739941D01*
X142804243Y-94594351D01*
X142773500Y-94439794D01*
X142773500Y-94282206D01*
X142804243Y-94127649D01*
X142864548Y-93982059D01*
X142952099Y-93851030D01*
X143063530Y-93739599D01*
X143194559Y-93652048D01*
X143340149Y-93591743D01*
X143494706Y-93561000D01*
X143652294Y-93561000D01*
X143806851Y-93591743D01*
G37*
G36*
X169773500Y-95161000D02*
G01*
X168173500Y-95161000D01*
X168173500Y-93561000D01*
X169773500Y-93561000D01*
X169773500Y-95161000D01*
G37*
G36*
X141266851Y-93591743D02*
G01*
X141412441Y-93652048D01*
X141543470Y-93739599D01*
X141654901Y-93851030D01*
X141742452Y-93982059D01*
X141802757Y-94127649D01*
X141833500Y-94282206D01*
X141833500Y-94439794D01*
X141802757Y-94594351D01*
X141742452Y-94739941D01*
X141654901Y-94870970D01*
X141543470Y-94982401D01*
X141412441Y-95069952D01*
X141266851Y-95130257D01*
X141112294Y-95161000D01*
X140954706Y-95161000D01*
X140800149Y-95130257D01*
X140654559Y-95069952D01*
X140523530Y-94982401D01*
X140412099Y-94870970D01*
X140324548Y-94739941D01*
X140264243Y-94594351D01*
X140233500Y-94439794D01*
X140233500Y-94282206D01*
X140264243Y-94127649D01*
X140324548Y-93982059D01*
X140412099Y-93851030D01*
X140523530Y-93739599D01*
X140654559Y-93652048D01*
X140800149Y-93591743D01*
X140954706Y-93561000D01*
X141112294Y-93561000D01*
X141266851Y-93591743D01*
G37*
G36*
X166666851Y-93591743D02*
G01*
X166812441Y-93652048D01*
X166943470Y-93739599D01*
X167054901Y-93851030D01*
X167142452Y-93982059D01*
X167202757Y-94127649D01*
X167233500Y-94282206D01*
X167233500Y-94439794D01*
X167202757Y-94594351D01*
X167142452Y-94739941D01*
X167054901Y-94870970D01*
X166943470Y-94982401D01*
X166812441Y-95069952D01*
X166666851Y-95130257D01*
X166512294Y-95161000D01*
X166354706Y-95161000D01*
X166200149Y-95130257D01*
X166054559Y-95069952D01*
X165923530Y-94982401D01*
X165812099Y-94870970D01*
X165724548Y-94739941D01*
X165664243Y-94594351D01*
X165633500Y-94439794D01*
X165633500Y-94282206D01*
X165664243Y-94127649D01*
X165724548Y-93982059D01*
X165812099Y-93851030D01*
X165923530Y-93739599D01*
X166054559Y-93652048D01*
X166200149Y-93591743D01*
X166354706Y-93561000D01*
X166512294Y-93561000D01*
X166666851Y-93591743D01*
G37*
G36*
X138726851Y-93591743D02*
G01*
X138872441Y-93652048D01*
X139003470Y-93739599D01*
X139114901Y-93851030D01*
X139202452Y-93982059D01*
X139262757Y-94127649D01*
X139293500Y-94282206D01*
X139293500Y-94439794D01*
X139262757Y-94594351D01*
X139202452Y-94739941D01*
X139114901Y-94870970D01*
X139003470Y-94982401D01*
X138872441Y-95069952D01*
X138726851Y-95130257D01*
X138572294Y-95161000D01*
X138414706Y-95161000D01*
X138260149Y-95130257D01*
X138114559Y-95069952D01*
X137983530Y-94982401D01*
X137872099Y-94870970D01*
X137784548Y-94739941D01*
X137724243Y-94594351D01*
X137693500Y-94439794D01*
X137693500Y-94282206D01*
X137724243Y-94127649D01*
X137784548Y-93982059D01*
X137872099Y-93851030D01*
X137983530Y-93739599D01*
X138114559Y-93652048D01*
X138260149Y-93591743D01*
X138414706Y-93561000D01*
X138572294Y-93561000D01*
X138726851Y-93591743D01*
G37*
G36*
X156506851Y-93591743D02*
G01*
X156652441Y-93652048D01*
X156783470Y-93739599D01*
X156894901Y-93851030D01*
X156982452Y-93982059D01*
X157042757Y-94127649D01*
X157073500Y-94282206D01*
X157073500Y-94439794D01*
X157042757Y-94594351D01*
X156982452Y-94739941D01*
X156894901Y-94870970D01*
X156783470Y-94982401D01*
X156652441Y-95069952D01*
X156506851Y-95130257D01*
X156352294Y-95161000D01*
X156194706Y-95161000D01*
X156040149Y-95130257D01*
X155894559Y-95069952D01*
X155763530Y-94982401D01*
X155652099Y-94870970D01*
X155564548Y-94739941D01*
X155504243Y-94594351D01*
X155473500Y-94439794D01*
X155473500Y-94282206D01*
X155504243Y-94127649D01*
X155564548Y-93982059D01*
X155652099Y-93851030D01*
X155763530Y-93739599D01*
X155894559Y-93652048D01*
X156040149Y-93591743D01*
X156194706Y-93561000D01*
X156352294Y-93561000D01*
X156506851Y-93591743D01*
G37*
G36*
X146346851Y-93591743D02*
G01*
X146492441Y-93652048D01*
X146623470Y-93739599D01*
X146734901Y-93851030D01*
X146822452Y-93982059D01*
X146882757Y-94127649D01*
X146913500Y-94282206D01*
X146913500Y-94439794D01*
X146882757Y-94594351D01*
X146822452Y-94739941D01*
X146734901Y-94870970D01*
X146623470Y-94982401D01*
X146492441Y-95069952D01*
X146346851Y-95130257D01*
X146192294Y-95161000D01*
X146034706Y-95161000D01*
X145880149Y-95130257D01*
X145734559Y-95069952D01*
X145603530Y-94982401D01*
X145492099Y-94870970D01*
X145404548Y-94739941D01*
X145344243Y-94594351D01*
X145313500Y-94439794D01*
X145313500Y-94282206D01*
X145344243Y-94127649D01*
X145404548Y-93982059D01*
X145492099Y-93851030D01*
X145603530Y-93739599D01*
X145734559Y-93652048D01*
X145880149Y-93591743D01*
X146034706Y-93561000D01*
X146192294Y-93561000D01*
X146346851Y-93591743D01*
G37*
G36*
X189318851Y-92445243D02*
G01*
X189464441Y-92505548D01*
X189595470Y-92593099D01*
X189706901Y-92704530D01*
X189794452Y-92835559D01*
X189854757Y-92981149D01*
X189885500Y-93135706D01*
X189885500Y-93293294D01*
X189854757Y-93447851D01*
X189794452Y-93593441D01*
X189706901Y-93724470D01*
X189595470Y-93835901D01*
X189464441Y-93923452D01*
X189318851Y-93983757D01*
X189164294Y-94014500D01*
X189006706Y-94014500D01*
X188852149Y-93983757D01*
X188706559Y-93923452D01*
X188575530Y-93835901D01*
X188464099Y-93724470D01*
X188376548Y-93593441D01*
X188316243Y-93447851D01*
X188285500Y-93293294D01*
X188285500Y-93135706D01*
X188316243Y-92981149D01*
X188376548Y-92835559D01*
X188464099Y-92704530D01*
X188575530Y-92593099D01*
X188706559Y-92505548D01*
X188852149Y-92445243D01*
X189006706Y-92414500D01*
X189164294Y-92414500D01*
X189318851Y-92445243D01*
G37*
G36*
X186478851Y-91060243D02*
G01*
X186624441Y-91120548D01*
X186755470Y-91208099D01*
X186866901Y-91319530D01*
X186954452Y-91450559D01*
X187014757Y-91596149D01*
X187045500Y-91750706D01*
X187045500Y-91908294D01*
X187014757Y-92062851D01*
X186954452Y-92208441D01*
X186866901Y-92339470D01*
X186755470Y-92450901D01*
X186624441Y-92538452D01*
X186478851Y-92598757D01*
X186324294Y-92629500D01*
X186166706Y-92629500D01*
X186012149Y-92598757D01*
X185866559Y-92538452D01*
X185735530Y-92450901D01*
X185624099Y-92339470D01*
X185536548Y-92208441D01*
X185476243Y-92062851D01*
X185445500Y-91908294D01*
X185445500Y-91750706D01*
X185476243Y-91596149D01*
X185536548Y-91450559D01*
X185624099Y-91319530D01*
X185735530Y-91208099D01*
X185866559Y-91120548D01*
X186012149Y-91060243D01*
X186166706Y-91029500D01*
X186324294Y-91029500D01*
X186478851Y-91060243D01*
G37*
G36*
X189318851Y-89675243D02*
G01*
X189464441Y-89735548D01*
X189595470Y-89823099D01*
X189706901Y-89934530D01*
X189794452Y-90065559D01*
X189854757Y-90211149D01*
X189885500Y-90365706D01*
X189885500Y-90523294D01*
X189854757Y-90677851D01*
X189794452Y-90823441D01*
X189706901Y-90954470D01*
X189595470Y-91065901D01*
X189464441Y-91153452D01*
X189318851Y-91213757D01*
X189164294Y-91244500D01*
X189006706Y-91244500D01*
X188852149Y-91213757D01*
X188706559Y-91153452D01*
X188575530Y-91065901D01*
X188464099Y-90954470D01*
X188376548Y-90823441D01*
X188316243Y-90677851D01*
X188285500Y-90523294D01*
X188285500Y-90365706D01*
X188316243Y-90211149D01*
X188376548Y-90065559D01*
X188464099Y-89934530D01*
X188575530Y-89823099D01*
X188706559Y-89735548D01*
X188852149Y-89675243D01*
X189006706Y-89644500D01*
X189164294Y-89644500D01*
X189318851Y-89675243D01*
G37*
G36*
X186478851Y-88290243D02*
G01*
X186624441Y-88350548D01*
X186755470Y-88438099D01*
X186866901Y-88549530D01*
X186954452Y-88680559D01*
X187014757Y-88826149D01*
X187045500Y-88980706D01*
X187045500Y-89138294D01*
X187014757Y-89292851D01*
X186954452Y-89438441D01*
X186866901Y-89569470D01*
X186755470Y-89680901D01*
X186624441Y-89768452D01*
X186478851Y-89828757D01*
X186324294Y-89859500D01*
X186166706Y-89859500D01*
X186012149Y-89828757D01*
X185866559Y-89768452D01*
X185735530Y-89680901D01*
X185624099Y-89569470D01*
X185536548Y-89438441D01*
X185476243Y-89292851D01*
X185445500Y-89138294D01*
X185445500Y-88980706D01*
X185476243Y-88826149D01*
X185536548Y-88680559D01*
X185624099Y-88549530D01*
X185735530Y-88438099D01*
X185866559Y-88350548D01*
X186012149Y-88290243D01*
X186166706Y-88259500D01*
X186324294Y-88259500D01*
X186478851Y-88290243D01*
G37*
G36*
X146087766Y-86718321D02*
G01*
X146224257Y-86774858D01*
X146347097Y-86856937D01*
X146451563Y-86961403D01*
X146533642Y-87084243D01*
X146590179Y-87220734D01*
X146619000Y-87365630D01*
X146619000Y-87513370D01*
X146590179Y-87658266D01*
X146533642Y-87794757D01*
X146451563Y-87917597D01*
X146347097Y-88022063D01*
X146224257Y-88104142D01*
X146087766Y-88160679D01*
X145942870Y-88189500D01*
X145795130Y-88189500D01*
X145650234Y-88160679D01*
X145513743Y-88104142D01*
X145390903Y-88022063D01*
X145286437Y-87917597D01*
X145204358Y-87794757D01*
X145147821Y-87658266D01*
X145119000Y-87513370D01*
X145119000Y-87365630D01*
X145147821Y-87220734D01*
X145204358Y-87084243D01*
X145286437Y-86961403D01*
X145390903Y-86856937D01*
X145513743Y-86774858D01*
X145650234Y-86718321D01*
X145795130Y-86689500D01*
X145942870Y-86689500D01*
X146087766Y-86718321D01*
G37*
G36*
X150967766Y-86718321D02*
G01*
X151104257Y-86774858D01*
X151227097Y-86856937D01*
X151331563Y-86961403D01*
X151413642Y-87084243D01*
X151470179Y-87220734D01*
X151499000Y-87365630D01*
X151499000Y-87513370D01*
X151470179Y-87658266D01*
X151413642Y-87794757D01*
X151331563Y-87917597D01*
X151227097Y-88022063D01*
X151104257Y-88104142D01*
X150967766Y-88160679D01*
X150822870Y-88189500D01*
X150675130Y-88189500D01*
X150530234Y-88160679D01*
X150393743Y-88104142D01*
X150270903Y-88022063D01*
X150166437Y-87917597D01*
X150084358Y-87794757D01*
X150027821Y-87658266D01*
X149999000Y-87513370D01*
X149999000Y-87365630D01*
X150027821Y-87220734D01*
X150084358Y-87084243D01*
X150166437Y-86961403D01*
X150270903Y-86856937D01*
X150393743Y-86774858D01*
X150530234Y-86718321D01*
X150675130Y-86689500D01*
X150822870Y-86689500D01*
X150967766Y-86718321D01*
G37*
G36*
X187128877Y-80176358D02*
G01*
X187492853Y-80327122D01*
X187492855Y-80327123D01*
X187657751Y-80437303D01*
X187820425Y-80545998D01*
X188099002Y-80824575D01*
X188317878Y-81152147D01*
X188468642Y-81516123D01*
X188545500Y-81902516D01*
X188545500Y-82296484D01*
X188468642Y-82682877D01*
X188317878Y-83046853D01*
X188317877Y-83046855D01*
X188099001Y-83374426D01*
X187820426Y-83653001D01*
X187492855Y-83871877D01*
X187492854Y-83871878D01*
X187492853Y-83871878D01*
X187128877Y-84022642D01*
X186742484Y-84099500D01*
X186348516Y-84099500D01*
X185962123Y-84022642D01*
X185598147Y-83871878D01*
X185598146Y-83871878D01*
X185598145Y-83871877D01*
X185270574Y-83653001D01*
X184991999Y-83374426D01*
X184773123Y-83046855D01*
X184773122Y-83046853D01*
X184622358Y-82682877D01*
X184545500Y-82296484D01*
X184545500Y-81902516D01*
X184622358Y-81516123D01*
X184773122Y-81152147D01*
X184991998Y-80824575D01*
X185270575Y-80545998D01*
X185433249Y-80437303D01*
X185598145Y-80327123D01*
X185598147Y-80327122D01*
X185962123Y-80176358D01*
X186348516Y-80099500D01*
X186742484Y-80099500D01*
X187128877Y-80176358D01*
G37*
G36*
X170783116Y-70101995D02*
G01*
X170812311Y-70110852D01*
X170839223Y-70125237D01*
X170862808Y-70144592D01*
X170882163Y-70168177D01*
X170896548Y-70195089D01*
X170905405Y-70224284D01*
X170909000Y-70260790D01*
X170909000Y-70811010D01*
X170905405Y-70847516D01*
X170896548Y-70876711D01*
X170882163Y-70903623D01*
X170862808Y-70927208D01*
X170839223Y-70946563D01*
X170812311Y-70960948D01*
X170783116Y-70969805D01*
X170746610Y-70973400D01*
X170121390Y-70973400D01*
X170084884Y-70969805D01*
X170055689Y-70960948D01*
X170028777Y-70946563D01*
X170005192Y-70927208D01*
X169985837Y-70903623D01*
X169971452Y-70876711D01*
X169962595Y-70847516D01*
X169959000Y-70811010D01*
X169959000Y-70260790D01*
X169962595Y-70224284D01*
X169971452Y-70195089D01*
X169985837Y-70168177D01*
X170005192Y-70144592D01*
X170028777Y-70125237D01*
X170055689Y-70110852D01*
X170084884Y-70101995D01*
X170121390Y-70098400D01*
X170746610Y-70098400D01*
X170783116Y-70101995D01*
G37*
G36*
X170783116Y-68526995D02*
G01*
X170812311Y-68535852D01*
X170839223Y-68550237D01*
X170862808Y-68569592D01*
X170882163Y-68593177D01*
X170896548Y-68620089D01*
X170905405Y-68649284D01*
X170909000Y-68685790D01*
X170909000Y-69236010D01*
X170905405Y-69272516D01*
X170896548Y-69301711D01*
X170882163Y-69328623D01*
X170862808Y-69352208D01*
X170839223Y-69371563D01*
X170812311Y-69385948D01*
X170783116Y-69394805D01*
X170746610Y-69398400D01*
X170121390Y-69398400D01*
X170084884Y-69394805D01*
X170055689Y-69385948D01*
X170028777Y-69371563D01*
X170005192Y-69352208D01*
X169985837Y-69328623D01*
X169971452Y-69301711D01*
X169962595Y-69272516D01*
X169959000Y-69236010D01*
X169959000Y-68685790D01*
X169962595Y-68649284D01*
X169971452Y-68620089D01*
X169985837Y-68593177D01*
X170005192Y-68569592D01*
X170028777Y-68550237D01*
X170055689Y-68535852D01*
X170084884Y-68526995D01*
X170121390Y-68523400D01*
X170746610Y-68523400D01*
X170783116Y-68526995D01*
G37*
G36*
X170783116Y-66952395D02*
G01*
X170812311Y-66961252D01*
X170839223Y-66975637D01*
X170862808Y-66994992D01*
X170882163Y-67018577D01*
X170896548Y-67045489D01*
X170905405Y-67074684D01*
X170909000Y-67111190D01*
X170909000Y-67661410D01*
X170905405Y-67697916D01*
X170896548Y-67727111D01*
X170882163Y-67754023D01*
X170862808Y-67777608D01*
X170839223Y-67796963D01*
X170812311Y-67811348D01*
X170783116Y-67820205D01*
X170746610Y-67823800D01*
X170121390Y-67823800D01*
X170084884Y-67820205D01*
X170055689Y-67811348D01*
X170028777Y-67796963D01*
X170005192Y-67777608D01*
X169985837Y-67754023D01*
X169971452Y-67727111D01*
X169962595Y-67697916D01*
X169959000Y-67661410D01*
X169959000Y-67111190D01*
X169962595Y-67074684D01*
X169971452Y-67045489D01*
X169985837Y-67018577D01*
X170005192Y-66994992D01*
X170028777Y-66975637D01*
X170055689Y-66961252D01*
X170084884Y-66952395D01*
X170121390Y-66948800D01*
X170746610Y-66948800D01*
X170783116Y-66952395D01*
G37*
G36*
X170783116Y-65377395D02*
G01*
X170812311Y-65386252D01*
X170839223Y-65400637D01*
X170862808Y-65419992D01*
X170882163Y-65443577D01*
X170896548Y-65470489D01*
X170905405Y-65499684D01*
X170909000Y-65536190D01*
X170909000Y-66086410D01*
X170905405Y-66122916D01*
X170896548Y-66152111D01*
X170882163Y-66179023D01*
X170862808Y-66202608D01*
X170839223Y-66221963D01*
X170812311Y-66236348D01*
X170783116Y-66245205D01*
X170746610Y-66248800D01*
X170121390Y-66248800D01*
X170084884Y-66245205D01*
X170055689Y-66236348D01*
X170028777Y-66221963D01*
X170005192Y-66202608D01*
X169985837Y-66179023D01*
X169971452Y-66152111D01*
X169962595Y-66122916D01*
X169959000Y-66086410D01*
X169959000Y-65536190D01*
X169962595Y-65499684D01*
X169971452Y-65470489D01*
X169985837Y-65443577D01*
X170005192Y-65419992D01*
X170028777Y-65400637D01*
X170055689Y-65386252D01*
X170084884Y-65377395D01*
X170121390Y-65373800D01*
X170746610Y-65373800D01*
X170783116Y-65377395D01*
G37*
G36*
X175148800Y-65217600D02*
G01*
X173948800Y-65217600D01*
X173948800Y-64017600D01*
X175148800Y-64017600D01*
X175148800Y-65217600D01*
G37*
G36*
X173223813Y-64040657D02*
G01*
X173333006Y-64085886D01*
X173431277Y-64151549D01*
X173514851Y-64235123D01*
X173580514Y-64333394D01*
X173625743Y-64442587D01*
X173648800Y-64558504D01*
X173648800Y-64676696D01*
X173625743Y-64792613D01*
X173580514Y-64901806D01*
X173514851Y-65000077D01*
X173431277Y-65083651D01*
X173333006Y-65149314D01*
X173223813Y-65194543D01*
X173107896Y-65217600D01*
X172989704Y-65217600D01*
X172873787Y-65194543D01*
X172764594Y-65149314D01*
X172666323Y-65083651D01*
X172582749Y-65000077D01*
X172517086Y-64901806D01*
X172471857Y-64792613D01*
X172448800Y-64676696D01*
X172448800Y-64558504D01*
X172471857Y-64442587D01*
X172517086Y-64333394D01*
X172582749Y-64235123D01*
X172666323Y-64151549D01*
X172764594Y-64085886D01*
X172873787Y-64040657D01*
X172989704Y-64017600D01*
X173107896Y-64017600D01*
X173223813Y-64040657D01*
G37*
G36*
X168268516Y-63624995D02*
G01*
X168297711Y-63633852D01*
X168324623Y-63648237D01*
X168348208Y-63667592D01*
X168367563Y-63691177D01*
X168381948Y-63718089D01*
X168390805Y-63747284D01*
X168394400Y-63783790D01*
X168394400Y-64334010D01*
X168390805Y-64370516D01*
X168381948Y-64399711D01*
X168367563Y-64426623D01*
X168348208Y-64450208D01*
X168324623Y-64469563D01*
X168297711Y-64483948D01*
X168268516Y-64492805D01*
X168232010Y-64496400D01*
X167606790Y-64496400D01*
X167570284Y-64492805D01*
X167541089Y-64483948D01*
X167514177Y-64469563D01*
X167490592Y-64450208D01*
X167471237Y-64426623D01*
X167456852Y-64399711D01*
X167447995Y-64370516D01*
X167444400Y-64334010D01*
X167444400Y-63783790D01*
X167447995Y-63747284D01*
X167456852Y-63718089D01*
X167471237Y-63691177D01*
X167490592Y-63667592D01*
X167514177Y-63648237D01*
X167541089Y-63633852D01*
X167570284Y-63624995D01*
X167606790Y-63621400D01*
X168232010Y-63621400D01*
X168268516Y-63624995D01*
G37*
G36*
X168268516Y-62049995D02*
G01*
X168297711Y-62058852D01*
X168324623Y-62073237D01*
X168348208Y-62092592D01*
X168367563Y-62116177D01*
X168381948Y-62143089D01*
X168390805Y-62172284D01*
X168394400Y-62208790D01*
X168394400Y-62759010D01*
X168390805Y-62795516D01*
X168381948Y-62824711D01*
X168367563Y-62851623D01*
X168348208Y-62875208D01*
X168324623Y-62894563D01*
X168297711Y-62908948D01*
X168268516Y-62917805D01*
X168232010Y-62921400D01*
X167606790Y-62921400D01*
X167570284Y-62917805D01*
X167541089Y-62908948D01*
X167514177Y-62894563D01*
X167490592Y-62875208D01*
X167471237Y-62851623D01*
X167456852Y-62824711D01*
X167447995Y-62795516D01*
X167444400Y-62759010D01*
X167444400Y-62208790D01*
X167447995Y-62172284D01*
X167456852Y-62143089D01*
X167471237Y-62116177D01*
X167490592Y-62092592D01*
X167514177Y-62073237D01*
X167541089Y-62058852D01*
X167570284Y-62049995D01*
X167606790Y-62046400D01*
X168232010Y-62046400D01*
X168268516Y-62049995D01*
G37*
G36*
X168243116Y-60475395D02*
G01*
X168272311Y-60484252D01*
X168299223Y-60498637D01*
X168322808Y-60517992D01*
X168342163Y-60541577D01*
X168356548Y-60568489D01*
X168365405Y-60597684D01*
X168369000Y-60634190D01*
X168369000Y-61184410D01*
X168365405Y-61220916D01*
X168356548Y-61250111D01*
X168342163Y-61277023D01*
X168322808Y-61300608D01*
X168299223Y-61319963D01*
X168272311Y-61334348D01*
X168243116Y-61343205D01*
X168206610Y-61346800D01*
X167581390Y-61346800D01*
X167544884Y-61343205D01*
X167515689Y-61334348D01*
X167488777Y-61319963D01*
X167465192Y-61300608D01*
X167445837Y-61277023D01*
X167431452Y-61250111D01*
X167422595Y-61220916D01*
X167419000Y-61184410D01*
X167419000Y-60634190D01*
X167422595Y-60597684D01*
X167431452Y-60568489D01*
X167445837Y-60541577D01*
X167465192Y-60517992D01*
X167488777Y-60498637D01*
X167515689Y-60484252D01*
X167544884Y-60475395D01*
X167581390Y-60471800D01*
X168206610Y-60471800D01*
X168243116Y-60475395D01*
G37*
G36*
X168243116Y-58900395D02*
G01*
X168272311Y-58909252D01*
X168299223Y-58923637D01*
X168322808Y-58942992D01*
X168342163Y-58966577D01*
X168356548Y-58993489D01*
X168365405Y-59022684D01*
X168369000Y-59059190D01*
X168369000Y-59609410D01*
X168365405Y-59645916D01*
X168356548Y-59675111D01*
X168342163Y-59702023D01*
X168322808Y-59725608D01*
X168299223Y-59744963D01*
X168272311Y-59759348D01*
X168243116Y-59768205D01*
X168206610Y-59771800D01*
X167581390Y-59771800D01*
X167544884Y-59768205D01*
X167515689Y-59759348D01*
X167488777Y-59744963D01*
X167465192Y-59725608D01*
X167445837Y-59702023D01*
X167431452Y-59675111D01*
X167422595Y-59645916D01*
X167419000Y-59609410D01*
X167419000Y-59059190D01*
X167422595Y-59022684D01*
X167431452Y-58993489D01*
X167445837Y-58966577D01*
X167465192Y-58942992D01*
X167488777Y-58923637D01*
X167515689Y-58909252D01*
X167544884Y-58900395D01*
X167581390Y-58896800D01*
X168206610Y-58896800D01*
X168243116Y-58900395D01*
G37*
G36*
X176674400Y-58894600D02*
G01*
X175674400Y-58894600D01*
X175674400Y-57894600D01*
X176674400Y-57894600D01*
X176674400Y-58894600D01*
G37*
G36*
X178860243Y-57913814D02*
G01*
X178860246Y-57913815D01*
X178860245Y-57913815D01*
X178951239Y-57951506D01*
X178992463Y-57979051D01*
X179033130Y-58006224D01*
X179102776Y-58075870D01*
X179157495Y-58157763D01*
X179195186Y-58248757D01*
X179214400Y-58345353D01*
X179214400Y-58443847D01*
X179195186Y-58540443D01*
X179195185Y-58540445D01*
X179157494Y-58631439D01*
X179102775Y-58713331D01*
X179033131Y-58782975D01*
X178951239Y-58837694D01*
X178951238Y-58837695D01*
X178951237Y-58837695D01*
X178860243Y-58875386D01*
X178763647Y-58894600D01*
X178665153Y-58894600D01*
X178568557Y-58875386D01*
X178477563Y-58837695D01*
X178477562Y-58837695D01*
X178477561Y-58837694D01*
X178395669Y-58782975D01*
X178326025Y-58713331D01*
X178271306Y-58631439D01*
X178233615Y-58540445D01*
X178233614Y-58540443D01*
X178214400Y-58443847D01*
X178214400Y-58345353D01*
X178233614Y-58248757D01*
X178271305Y-58157763D01*
X178326024Y-58075870D01*
X178395670Y-58006224D01*
X178436337Y-57979051D01*
X178477561Y-57951506D01*
X178568555Y-57913815D01*
X178568554Y-57913815D01*
X178568557Y-57913814D01*
X178665153Y-57894600D01*
X178763647Y-57894600D01*
X178860243Y-57913814D01*
G37*
G36*
X177590243Y-57913814D02*
G01*
X177590246Y-57913815D01*
X177590245Y-57913815D01*
X177681239Y-57951506D01*
X177722463Y-57979051D01*
X177763130Y-58006224D01*
X177832776Y-58075870D01*
X177887495Y-58157763D01*
X177925186Y-58248757D01*
X177944400Y-58345353D01*
X177944400Y-58443847D01*
X177925186Y-58540443D01*
X177925185Y-58540445D01*
X177887494Y-58631439D01*
X177832775Y-58713331D01*
X177763131Y-58782975D01*
X177681239Y-58837694D01*
X177681238Y-58837695D01*
X177681237Y-58837695D01*
X177590243Y-58875386D01*
X177493647Y-58894600D01*
X177395153Y-58894600D01*
X177298557Y-58875386D01*
X177207563Y-58837695D01*
X177207562Y-58837695D01*
X177207561Y-58837694D01*
X177125669Y-58782975D01*
X177056025Y-58713331D01*
X177001306Y-58631439D01*
X176963615Y-58540445D01*
X176963614Y-58540443D01*
X176944400Y-58443847D01*
X176944400Y-58345353D01*
X176963614Y-58248757D01*
X177001305Y-58157763D01*
X177056024Y-58075870D01*
X177125670Y-58006224D01*
X177166337Y-57979051D01*
X177207561Y-57951506D01*
X177298555Y-57913815D01*
X177298554Y-57913815D01*
X177298557Y-57913814D01*
X177395153Y-57894600D01*
X177493647Y-57894600D01*
X177590243Y-57913814D01*
G37*
G36*
X151961400Y-58845000D02*
G01*
X151111400Y-58845000D01*
X151111400Y-57995000D01*
X151961400Y-57995000D01*
X151961400Y-58845000D01*
G37*
G36*
X136363476Y-54014616D02*
G01*
X136472150Y-54036233D01*
X136676887Y-54121038D01*
X136861145Y-54244156D01*
X137017844Y-54400855D01*
X137140962Y-54585113D01*
X137225767Y-54789850D01*
X137269000Y-55007197D01*
X137269000Y-55228803D01*
X137233826Y-55405637D01*
X137225767Y-55446149D01*
X137157114Y-55611894D01*
X137140962Y-55650887D01*
X137017844Y-55835145D01*
X136861145Y-55991844D01*
X136676887Y-56114962D01*
X136472150Y-56199767D01*
X136363477Y-56221383D01*
X136254804Y-56243000D01*
X136033196Y-56243000D01*
X135924523Y-56221383D01*
X135815850Y-56199767D01*
X135611113Y-56114962D01*
X135426855Y-55991844D01*
X135270156Y-55835145D01*
X135147038Y-55650887D01*
X135130887Y-55611894D01*
X135062233Y-55446149D01*
X135054175Y-55405637D01*
X135019000Y-55228803D01*
X135019000Y-55007197D01*
X135062233Y-54789850D01*
X135147038Y-54585113D01*
X135270156Y-54400855D01*
X135426855Y-54244156D01*
X135611113Y-54121038D01*
X135815850Y-54036233D01*
X135924524Y-54014616D01*
X136033196Y-53993000D01*
X136254804Y-53993000D01*
X136363476Y-54014616D01*
G37*
G36*
X131283476Y-54014616D02*
G01*
X131392150Y-54036233D01*
X131596887Y-54121038D01*
X131781145Y-54244156D01*
X131937844Y-54400855D01*
X132060962Y-54585113D01*
X132145767Y-54789850D01*
X132189000Y-55007197D01*
X132189000Y-55228803D01*
X132153826Y-55405637D01*
X132145767Y-55446149D01*
X132077114Y-55611894D01*
X132060962Y-55650887D01*
X131937844Y-55835145D01*
X131781145Y-55991844D01*
X131596887Y-56114962D01*
X131392150Y-56199767D01*
X131283477Y-56221383D01*
X131174804Y-56243000D01*
X130953196Y-56243000D01*
X130844523Y-56221383D01*
X130735850Y-56199767D01*
X130531113Y-56114962D01*
X130346855Y-55991844D01*
X130190156Y-55835145D01*
X130067038Y-55650887D01*
X130050887Y-55611894D01*
X129982233Y-55446149D01*
X129974175Y-55405637D01*
X129939000Y-55228803D01*
X129939000Y-55007197D01*
X129982233Y-54789850D01*
X130067038Y-54585113D01*
X130190156Y-54400855D01*
X130346855Y-54244156D01*
X130531113Y-54121038D01*
X130735850Y-54036233D01*
X130844524Y-54014616D01*
X130953196Y-53993000D01*
X131174804Y-53993000D01*
X131283476Y-54014616D01*
G37*
G36*
X177590243Y-54688014D02*
G01*
X177590246Y-54688015D01*
X177590245Y-54688015D01*
X177681239Y-54725706D01*
X177722463Y-54753251D01*
X177763130Y-54780424D01*
X177832776Y-54850070D01*
X177887495Y-54931963D01*
X177925186Y-55022957D01*
X177944400Y-55119553D01*
X177944400Y-55218047D01*
X177925186Y-55314643D01*
X177925185Y-55314645D01*
X177887494Y-55405639D01*
X177832775Y-55487531D01*
X177763131Y-55557175D01*
X177681239Y-55611894D01*
X177681238Y-55611895D01*
X177681237Y-55611895D01*
X177590243Y-55649586D01*
X177493647Y-55668800D01*
X177395153Y-55668800D01*
X177298557Y-55649586D01*
X177207563Y-55611895D01*
X177207562Y-55611895D01*
X177207561Y-55611894D01*
X177125669Y-55557175D01*
X177056025Y-55487531D01*
X177001306Y-55405639D01*
X176963615Y-55314645D01*
X176963614Y-55314643D01*
X176944400Y-55218047D01*
X176944400Y-55119553D01*
X176963614Y-55022957D01*
X177001305Y-54931963D01*
X177056024Y-54850070D01*
X177125670Y-54780424D01*
X177166337Y-54753251D01*
X177207561Y-54725706D01*
X177298555Y-54688015D01*
X177298554Y-54688015D01*
X177298557Y-54688014D01*
X177395153Y-54668800D01*
X177493647Y-54668800D01*
X177590243Y-54688014D01*
G37*
G36*
X176674400Y-55668800D02*
G01*
X175674400Y-55668800D01*
X175674400Y-54668800D01*
X176674400Y-54668800D01*
X176674400Y-55668800D01*
G37*
G36*
X178860243Y-54688014D02*
G01*
X178860246Y-54688015D01*
X178860245Y-54688015D01*
X178951239Y-54725706D01*
X178992463Y-54753251D01*
X179033130Y-54780424D01*
X179102776Y-54850070D01*
X179157495Y-54931963D01*
X179195186Y-55022957D01*
X179214400Y-55119553D01*
X179214400Y-55218047D01*
X179195186Y-55314643D01*
X179195185Y-55314645D01*
X179157494Y-55405639D01*
X179102775Y-55487531D01*
X179033131Y-55557175D01*
X178951239Y-55611894D01*
X178951238Y-55611895D01*
X178951237Y-55611895D01*
X178860243Y-55649586D01*
X178763647Y-55668800D01*
X178665153Y-55668800D01*
X178568557Y-55649586D01*
X178477563Y-55611895D01*
X178477562Y-55611895D01*
X178477561Y-55611894D01*
X178395669Y-55557175D01*
X178326025Y-55487531D01*
X178271306Y-55405639D01*
X178233615Y-55314645D01*
X178233614Y-55314643D01*
X178214400Y-55218047D01*
X178214400Y-55119553D01*
X178233614Y-55022957D01*
X178271305Y-54931963D01*
X178326024Y-54850070D01*
X178395670Y-54780424D01*
X178436337Y-54753251D01*
X178477561Y-54725706D01*
X178568555Y-54688015D01*
X178568554Y-54688015D01*
X178568557Y-54688014D01*
X178665153Y-54668800D01*
X178763647Y-54668800D01*
X178860243Y-54688014D01*
G37*
G36*
X151453400Y-55136600D02*
G01*
X150603400Y-55136600D01*
X150603400Y-54286600D01*
X151453400Y-54286600D01*
X151453400Y-55136600D01*
G37*
G36*
X133770963Y-51566130D02*
G01*
X133902982Y-51592390D01*
X134089520Y-51669656D01*
X134257400Y-51781830D01*
X134400170Y-51924600D01*
X134512344Y-52092480D01*
X134589610Y-52279018D01*
X134629000Y-52477046D01*
X134629000Y-52678954D01*
X134589610Y-52876982D01*
X134512344Y-53063520D01*
X134400170Y-53231400D01*
X134257400Y-53374170D01*
X134089520Y-53486344D01*
X133902982Y-53563610D01*
X133770963Y-53589870D01*
X133704955Y-53603000D01*
X133503045Y-53603000D01*
X133437037Y-53589870D01*
X133305018Y-53563610D01*
X133118480Y-53486344D01*
X132950600Y-53374170D01*
X132807830Y-53231400D01*
X132695656Y-53063520D01*
X132618390Y-52876982D01*
X132579000Y-52678954D01*
X132579000Y-52477046D01*
X132618390Y-52279018D01*
X132695656Y-52092480D01*
X132807830Y-51924600D01*
X132950600Y-51781830D01*
X133118480Y-51669656D01*
X133305018Y-51592390D01*
X133437037Y-51566130D01*
X133503045Y-51553000D01*
X133704955Y-51553000D01*
X133770963Y-51566130D01*
G37*
G36*
X185286935Y-49998664D02*
G01*
X185441624Y-50062739D01*
X185441626Y-50062740D01*
X185580844Y-50155762D01*
X185699238Y-50274156D01*
X185760705Y-50366149D01*
X185792261Y-50413376D01*
X185856336Y-50568065D01*
X185889000Y-50732281D01*
X185889000Y-50899719D01*
X185856336Y-51063935D01*
X185833209Y-51119767D01*
X185792260Y-51218626D01*
X185699238Y-51357844D01*
X185580844Y-51476238D01*
X185441626Y-51569260D01*
X185441625Y-51569261D01*
X185441624Y-51569261D01*
X185286935Y-51633336D01*
X185122719Y-51666000D01*
X184955281Y-51666000D01*
X184791065Y-51633336D01*
X184636376Y-51569261D01*
X184636375Y-51569261D01*
X184636374Y-51569260D01*
X184497156Y-51476238D01*
X184378762Y-51357844D01*
X184285740Y-51218626D01*
X184244791Y-51119767D01*
X184221664Y-51063935D01*
X184189000Y-50899719D01*
X184189000Y-50732281D01*
X184221664Y-50568065D01*
X184285739Y-50413376D01*
X184317295Y-50366149D01*
X184378762Y-50274156D01*
X184497156Y-50155762D01*
X184636374Y-50062740D01*
X184636376Y-50062739D01*
X184791065Y-49998664D01*
X184955281Y-49966000D01*
X185122719Y-49966000D01*
X185286935Y-49998664D01*
G37*
G36*
X147789000Y-51666000D02*
G01*
X146089000Y-51666000D01*
X146089000Y-49966000D01*
X147789000Y-49966000D01*
X147789000Y-51666000D01*
G37*
G36*
X187826935Y-49998664D02*
G01*
X187981624Y-50062739D01*
X187981626Y-50062740D01*
X188120844Y-50155762D01*
X188239238Y-50274156D01*
X188300705Y-50366149D01*
X188332261Y-50413376D01*
X188396336Y-50568065D01*
X188429000Y-50732281D01*
X188429000Y-50899719D01*
X188396336Y-51063935D01*
X188373209Y-51119767D01*
X188332260Y-51218626D01*
X188239238Y-51357844D01*
X188120844Y-51476238D01*
X187981626Y-51569260D01*
X187981625Y-51569261D01*
X187981624Y-51569261D01*
X187826935Y-51633336D01*
X187662719Y-51666000D01*
X187495281Y-51666000D01*
X187331065Y-51633336D01*
X187176376Y-51569261D01*
X187176375Y-51569261D01*
X187176374Y-51569260D01*
X187037156Y-51476238D01*
X186918762Y-51357844D01*
X186825740Y-51218626D01*
X186784791Y-51119767D01*
X186761664Y-51063935D01*
X186729000Y-50899719D01*
X186729000Y-50732281D01*
X186761664Y-50568065D01*
X186825739Y-50413376D01*
X186857295Y-50366149D01*
X186918762Y-50274156D01*
X187037156Y-50155762D01*
X187176374Y-50062740D01*
X187176376Y-50062739D01*
X187331065Y-49998664D01*
X187495281Y-49966000D01*
X187662719Y-49966000D01*
X187826935Y-49998664D01*
G37*
G36*
X164966935Y-49998664D02*
G01*
X165121624Y-50062739D01*
X165121626Y-50062740D01*
X165260844Y-50155762D01*
X165379238Y-50274156D01*
X165440705Y-50366149D01*
X165472261Y-50413376D01*
X165536336Y-50568065D01*
X165569000Y-50732281D01*
X165569000Y-50899719D01*
X165536336Y-51063935D01*
X165513209Y-51119767D01*
X165472260Y-51218626D01*
X165379238Y-51357844D01*
X165260844Y-51476238D01*
X165121626Y-51569260D01*
X165121625Y-51569261D01*
X165121624Y-51569261D01*
X164966935Y-51633336D01*
X164802719Y-51666000D01*
X164635281Y-51666000D01*
X164471065Y-51633336D01*
X164316376Y-51569261D01*
X164316375Y-51569261D01*
X164316374Y-51569260D01*
X164177156Y-51476238D01*
X164058762Y-51357844D01*
X163965740Y-51218626D01*
X163924791Y-51119767D01*
X163901664Y-51063935D01*
X163869000Y-50899719D01*
X163869000Y-50732281D01*
X163901664Y-50568065D01*
X163965739Y-50413376D01*
X163997295Y-50366149D01*
X164058762Y-50274156D01*
X164177156Y-50155762D01*
X164316374Y-50062740D01*
X164316376Y-50062739D01*
X164471065Y-49998664D01*
X164635281Y-49966000D01*
X164802719Y-49966000D01*
X164966935Y-49998664D01*
G37*
G36*
X162426935Y-49998664D02*
G01*
X162581624Y-50062739D01*
X162581626Y-50062740D01*
X162720844Y-50155762D01*
X162839238Y-50274156D01*
X162900705Y-50366149D01*
X162932261Y-50413376D01*
X162996336Y-50568065D01*
X163029000Y-50732281D01*
X163029000Y-50899719D01*
X162996336Y-51063935D01*
X162973209Y-51119767D01*
X162932260Y-51218626D01*
X162839238Y-51357844D01*
X162720844Y-51476238D01*
X162581626Y-51569260D01*
X162581625Y-51569261D01*
X162581624Y-51569261D01*
X162426935Y-51633336D01*
X162262719Y-51666000D01*
X162095281Y-51666000D01*
X161931065Y-51633336D01*
X161776376Y-51569261D01*
X161776375Y-51569261D01*
X161776374Y-51569260D01*
X161637156Y-51476238D01*
X161518762Y-51357844D01*
X161425740Y-51218626D01*
X161384791Y-51119767D01*
X161361664Y-51063935D01*
X161329000Y-50899719D01*
X161329000Y-50732281D01*
X161361664Y-50568065D01*
X161425739Y-50413376D01*
X161457295Y-50366149D01*
X161518762Y-50274156D01*
X161637156Y-50155762D01*
X161776374Y-50062740D01*
X161776376Y-50062739D01*
X161931065Y-49998664D01*
X162095281Y-49966000D01*
X162262719Y-49966000D01*
X162426935Y-49998664D01*
G37*
G36*
X159886935Y-49998664D02*
G01*
X160041624Y-50062739D01*
X160041626Y-50062740D01*
X160180844Y-50155762D01*
X160299238Y-50274156D01*
X160360705Y-50366149D01*
X160392261Y-50413376D01*
X160456336Y-50568065D01*
X160489000Y-50732281D01*
X160489000Y-50899719D01*
X160456336Y-51063935D01*
X160433209Y-51119767D01*
X160392260Y-51218626D01*
X160299238Y-51357844D01*
X160180844Y-51476238D01*
X160041626Y-51569260D01*
X160041625Y-51569261D01*
X160041624Y-51569261D01*
X159886935Y-51633336D01*
X159722719Y-51666000D01*
X159555281Y-51666000D01*
X159391065Y-51633336D01*
X159236376Y-51569261D01*
X159236375Y-51569261D01*
X159236374Y-51569260D01*
X159097156Y-51476238D01*
X158978762Y-51357844D01*
X158885740Y-51218626D01*
X158844791Y-51119767D01*
X158821664Y-51063935D01*
X158789000Y-50899719D01*
X158789000Y-50732281D01*
X158821664Y-50568065D01*
X158885739Y-50413376D01*
X158917295Y-50366149D01*
X158978762Y-50274156D01*
X159097156Y-50155762D01*
X159236374Y-50062740D01*
X159236376Y-50062739D01*
X159391065Y-49998664D01*
X159555281Y-49966000D01*
X159722719Y-49966000D01*
X159886935Y-49998664D01*
G37*
G36*
X157346935Y-49998664D02*
G01*
X157501624Y-50062739D01*
X157501626Y-50062740D01*
X157640844Y-50155762D01*
X157759238Y-50274156D01*
X157820705Y-50366149D01*
X157852261Y-50413376D01*
X157916336Y-50568065D01*
X157949000Y-50732281D01*
X157949000Y-50899719D01*
X157916336Y-51063935D01*
X157893209Y-51119767D01*
X157852260Y-51218626D01*
X157759238Y-51357844D01*
X157640844Y-51476238D01*
X157501626Y-51569260D01*
X157501625Y-51569261D01*
X157501624Y-51569261D01*
X157346935Y-51633336D01*
X157182719Y-51666000D01*
X157015281Y-51666000D01*
X156851065Y-51633336D01*
X156696376Y-51569261D01*
X156696375Y-51569261D01*
X156696374Y-51569260D01*
X156557156Y-51476238D01*
X156438762Y-51357844D01*
X156345740Y-51218626D01*
X156304791Y-51119767D01*
X156281664Y-51063935D01*
X156249000Y-50899719D01*
X156249000Y-50732281D01*
X156281664Y-50568065D01*
X156345739Y-50413376D01*
X156377295Y-50366149D01*
X156438762Y-50274156D01*
X156557156Y-50155762D01*
X156696374Y-50062740D01*
X156696376Y-50062739D01*
X156851065Y-49998664D01*
X157015281Y-49966000D01*
X157182719Y-49966000D01*
X157346935Y-49998664D01*
G37*
G36*
X154806935Y-49998664D02*
G01*
X154961624Y-50062739D01*
X154961626Y-50062740D01*
X155100844Y-50155762D01*
X155219238Y-50274156D01*
X155280705Y-50366149D01*
X155312261Y-50413376D01*
X155376336Y-50568065D01*
X155409000Y-50732281D01*
X155409000Y-50899719D01*
X155376336Y-51063935D01*
X155353209Y-51119767D01*
X155312260Y-51218626D01*
X155219238Y-51357844D01*
X155100844Y-51476238D01*
X154961626Y-51569260D01*
X154961625Y-51569261D01*
X154961624Y-51569261D01*
X154806935Y-51633336D01*
X154642719Y-51666000D01*
X154475281Y-51666000D01*
X154311065Y-51633336D01*
X154156376Y-51569261D01*
X154156375Y-51569261D01*
X154156374Y-51569260D01*
X154017156Y-51476238D01*
X153898762Y-51357844D01*
X153805740Y-51218626D01*
X153764791Y-51119767D01*
X153741664Y-51063935D01*
X153709000Y-50899719D01*
X153709000Y-50732281D01*
X153741664Y-50568065D01*
X153805739Y-50413376D01*
X153837295Y-50366149D01*
X153898762Y-50274156D01*
X154017156Y-50155762D01*
X154156374Y-50062740D01*
X154156376Y-50062739D01*
X154311065Y-49998664D01*
X154475281Y-49966000D01*
X154642719Y-49966000D01*
X154806935Y-49998664D01*
G37*
G36*
X152266935Y-49998664D02*
G01*
X152421624Y-50062739D01*
X152421626Y-50062740D01*
X152560844Y-50155762D01*
X152679238Y-50274156D01*
X152740705Y-50366149D01*
X152772261Y-50413376D01*
X152836336Y-50568065D01*
X152869000Y-50732281D01*
X152869000Y-50899719D01*
X152836336Y-51063935D01*
X152813209Y-51119767D01*
X152772260Y-51218626D01*
X152679238Y-51357844D01*
X152560844Y-51476238D01*
X152421626Y-51569260D01*
X152421625Y-51569261D01*
X152421624Y-51569261D01*
X152266935Y-51633336D01*
X152102719Y-51666000D01*
X151935281Y-51666000D01*
X151771065Y-51633336D01*
X151616376Y-51569261D01*
X151616375Y-51569261D01*
X151616374Y-51569260D01*
X151477156Y-51476238D01*
X151358762Y-51357844D01*
X151265740Y-51218626D01*
X151224791Y-51119767D01*
X151201664Y-51063935D01*
X151169000Y-50899719D01*
X151169000Y-50732281D01*
X151201664Y-50568065D01*
X151265739Y-50413376D01*
X151297295Y-50366149D01*
X151358762Y-50274156D01*
X151477156Y-50155762D01*
X151616374Y-50062740D01*
X151616376Y-50062739D01*
X151771065Y-49998664D01*
X151935281Y-49966000D01*
X152102719Y-49966000D01*
X152266935Y-49998664D01*
G37*
G36*
X190366935Y-49998664D02*
G01*
X190521624Y-50062739D01*
X190521626Y-50062740D01*
X190660844Y-50155762D01*
X190779238Y-50274156D01*
X190840705Y-50366149D01*
X190872261Y-50413376D01*
X190936336Y-50568065D01*
X190969000Y-50732281D01*
X190969000Y-50899719D01*
X190936336Y-51063935D01*
X190913209Y-51119767D01*
X190872260Y-51218626D01*
X190779238Y-51357844D01*
X190660844Y-51476238D01*
X190521626Y-51569260D01*
X190521625Y-51569261D01*
X190521624Y-51569261D01*
X190366935Y-51633336D01*
X190202719Y-51666000D01*
X190035281Y-51666000D01*
X189871065Y-51633336D01*
X189716376Y-51569261D01*
X189716375Y-51569261D01*
X189716374Y-51569260D01*
X189577156Y-51476238D01*
X189458762Y-51357844D01*
X189365740Y-51218626D01*
X189324791Y-51119767D01*
X189301664Y-51063935D01*
X189269000Y-50899719D01*
X189269000Y-50732281D01*
X189301664Y-50568065D01*
X189365739Y-50413376D01*
X189397295Y-50366149D01*
X189458762Y-50274156D01*
X189577156Y-50155762D01*
X189716374Y-50062740D01*
X189716376Y-50062739D01*
X189871065Y-49998664D01*
X190035281Y-49966000D01*
X190202719Y-49966000D01*
X190366935Y-49998664D01*
G37*
G36*
X170046935Y-49998664D02*
G01*
X170201624Y-50062739D01*
X170201626Y-50062740D01*
X170340844Y-50155762D01*
X170459238Y-50274156D01*
X170520705Y-50366149D01*
X170552261Y-50413376D01*
X170616336Y-50568065D01*
X170649000Y-50732281D01*
X170649000Y-50899719D01*
X170616336Y-51063935D01*
X170593209Y-51119767D01*
X170552260Y-51218626D01*
X170459238Y-51357844D01*
X170340844Y-51476238D01*
X170201626Y-51569260D01*
X170201625Y-51569261D01*
X170201624Y-51569261D01*
X170046935Y-51633336D01*
X169882719Y-51666000D01*
X169715281Y-51666000D01*
X169551065Y-51633336D01*
X169396376Y-51569261D01*
X169396375Y-51569261D01*
X169396374Y-51569260D01*
X169257156Y-51476238D01*
X169138762Y-51357844D01*
X169045740Y-51218626D01*
X169004791Y-51119767D01*
X168981664Y-51063935D01*
X168949000Y-50899719D01*
X168949000Y-50732281D01*
X168981664Y-50568065D01*
X169045739Y-50413376D01*
X169077295Y-50366149D01*
X169138762Y-50274156D01*
X169257156Y-50155762D01*
X169396374Y-50062740D01*
X169396376Y-50062739D01*
X169551065Y-49998664D01*
X169715281Y-49966000D01*
X169882719Y-49966000D01*
X170046935Y-49998664D01*
G37*
G36*
X182746935Y-49998664D02*
G01*
X182901624Y-50062739D01*
X182901626Y-50062740D01*
X183040844Y-50155762D01*
X183159238Y-50274156D01*
X183220705Y-50366149D01*
X183252261Y-50413376D01*
X183316336Y-50568065D01*
X183349000Y-50732281D01*
X183349000Y-50899719D01*
X183316336Y-51063935D01*
X183293209Y-51119767D01*
X183252260Y-51218626D01*
X183159238Y-51357844D01*
X183040844Y-51476238D01*
X182901626Y-51569260D01*
X182901625Y-51569261D01*
X182901624Y-51569261D01*
X182746935Y-51633336D01*
X182582719Y-51666000D01*
X182415281Y-51666000D01*
X182251065Y-51633336D01*
X182096376Y-51569261D01*
X182096375Y-51569261D01*
X182096374Y-51569260D01*
X181957156Y-51476238D01*
X181838762Y-51357844D01*
X181745740Y-51218626D01*
X181704791Y-51119767D01*
X181681664Y-51063935D01*
X181649000Y-50899719D01*
X181649000Y-50732281D01*
X181681664Y-50568065D01*
X181745739Y-50413376D01*
X181777295Y-50366149D01*
X181838762Y-50274156D01*
X181957156Y-50155762D01*
X182096374Y-50062740D01*
X182096376Y-50062739D01*
X182251065Y-49998664D01*
X182415281Y-49966000D01*
X182582719Y-49966000D01*
X182746935Y-49998664D01*
G37*
G36*
X180206935Y-49998664D02*
G01*
X180361624Y-50062739D01*
X180361626Y-50062740D01*
X180500844Y-50155762D01*
X180619238Y-50274156D01*
X180680705Y-50366149D01*
X180712261Y-50413376D01*
X180776336Y-50568065D01*
X180809000Y-50732281D01*
X180809000Y-50899719D01*
X180776336Y-51063935D01*
X180753209Y-51119767D01*
X180712260Y-51218626D01*
X180619238Y-51357844D01*
X180500844Y-51476238D01*
X180361626Y-51569260D01*
X180361625Y-51569261D01*
X180361624Y-51569261D01*
X180206935Y-51633336D01*
X180042719Y-51666000D01*
X179875281Y-51666000D01*
X179711065Y-51633336D01*
X179556376Y-51569261D01*
X179556375Y-51569261D01*
X179556374Y-51569260D01*
X179417156Y-51476238D01*
X179298762Y-51357844D01*
X179205740Y-51218626D01*
X179164791Y-51119767D01*
X179141664Y-51063935D01*
X179109000Y-50899719D01*
X179109000Y-50732281D01*
X179141664Y-50568065D01*
X179205739Y-50413376D01*
X179237295Y-50366149D01*
X179298762Y-50274156D01*
X179417156Y-50155762D01*
X179556374Y-50062740D01*
X179556376Y-50062739D01*
X179711065Y-49998664D01*
X179875281Y-49966000D01*
X180042719Y-49966000D01*
X180206935Y-49998664D01*
G37*
G36*
X172586935Y-49998664D02*
G01*
X172741624Y-50062739D01*
X172741626Y-50062740D01*
X172880844Y-50155762D01*
X172999238Y-50274156D01*
X173060705Y-50366149D01*
X173092261Y-50413376D01*
X173156336Y-50568065D01*
X173189000Y-50732281D01*
X173189000Y-50899719D01*
X173156336Y-51063935D01*
X173133209Y-51119767D01*
X173092260Y-51218626D01*
X172999238Y-51357844D01*
X172880844Y-51476238D01*
X172741626Y-51569260D01*
X172741625Y-51569261D01*
X172741624Y-51569261D01*
X172586935Y-51633336D01*
X172422719Y-51666000D01*
X172255281Y-51666000D01*
X172091065Y-51633336D01*
X171936376Y-51569261D01*
X171936375Y-51569261D01*
X171936374Y-51569260D01*
X171797156Y-51476238D01*
X171678762Y-51357844D01*
X171585740Y-51218626D01*
X171544791Y-51119767D01*
X171521664Y-51063935D01*
X171489000Y-50899719D01*
X171489000Y-50732281D01*
X171521664Y-50568065D01*
X171585739Y-50413376D01*
X171617295Y-50366149D01*
X171678762Y-50274156D01*
X171797156Y-50155762D01*
X171936374Y-50062740D01*
X171936376Y-50062739D01*
X172091065Y-49998664D01*
X172255281Y-49966000D01*
X172422719Y-49966000D01*
X172586935Y-49998664D01*
G37*
G36*
X177666935Y-49998664D02*
G01*
X177821624Y-50062739D01*
X177821626Y-50062740D01*
X177960844Y-50155762D01*
X178079238Y-50274156D01*
X178140705Y-50366149D01*
X178172261Y-50413376D01*
X178236336Y-50568065D01*
X178269000Y-50732281D01*
X178269000Y-50899719D01*
X178236336Y-51063935D01*
X178213209Y-51119767D01*
X178172260Y-51218626D01*
X178079238Y-51357844D01*
X177960844Y-51476238D01*
X177821626Y-51569260D01*
X177821625Y-51569261D01*
X177821624Y-51569261D01*
X177666935Y-51633336D01*
X177502719Y-51666000D01*
X177335281Y-51666000D01*
X177171065Y-51633336D01*
X177016376Y-51569261D01*
X177016375Y-51569261D01*
X177016374Y-51569260D01*
X176877156Y-51476238D01*
X176758762Y-51357844D01*
X176665740Y-51218626D01*
X176624791Y-51119767D01*
X176601664Y-51063935D01*
X176569000Y-50899719D01*
X176569000Y-50732281D01*
X176601664Y-50568065D01*
X176665739Y-50413376D01*
X176697295Y-50366149D01*
X176758762Y-50274156D01*
X176877156Y-50155762D01*
X177016374Y-50062740D01*
X177016376Y-50062739D01*
X177171065Y-49998664D01*
X177335281Y-49966000D01*
X177502719Y-49966000D01*
X177666935Y-49998664D01*
G37*
G36*
X195446935Y-49998664D02*
G01*
X195601624Y-50062739D01*
X195601626Y-50062740D01*
X195740844Y-50155762D01*
X195859238Y-50274156D01*
X195920705Y-50366149D01*
X195952261Y-50413376D01*
X196016336Y-50568065D01*
X196049000Y-50732281D01*
X196049000Y-50899719D01*
X196016336Y-51063935D01*
X195993209Y-51119767D01*
X195952260Y-51218626D01*
X195859238Y-51357844D01*
X195740844Y-51476238D01*
X195601626Y-51569260D01*
X195601625Y-51569261D01*
X195601624Y-51569261D01*
X195446935Y-51633336D01*
X195282719Y-51666000D01*
X195115281Y-51666000D01*
X194951065Y-51633336D01*
X194796376Y-51569261D01*
X194796375Y-51569261D01*
X194796374Y-51569260D01*
X194657156Y-51476238D01*
X194538762Y-51357844D01*
X194445740Y-51218626D01*
X194404791Y-51119767D01*
X194381664Y-51063935D01*
X194349000Y-50899719D01*
X194349000Y-50732281D01*
X194381664Y-50568065D01*
X194445739Y-50413376D01*
X194477295Y-50366149D01*
X194538762Y-50274156D01*
X194657156Y-50155762D01*
X194796374Y-50062740D01*
X194796376Y-50062739D01*
X194951065Y-49998664D01*
X195115281Y-49966000D01*
X195282719Y-49966000D01*
X195446935Y-49998664D01*
G37*
G36*
X175126935Y-49998664D02*
G01*
X175281624Y-50062739D01*
X175281626Y-50062740D01*
X175420844Y-50155762D01*
X175539238Y-50274156D01*
X175600705Y-50366149D01*
X175632261Y-50413376D01*
X175696336Y-50568065D01*
X175729000Y-50732281D01*
X175729000Y-50899719D01*
X175696336Y-51063935D01*
X175673209Y-51119767D01*
X175632260Y-51218626D01*
X175539238Y-51357844D01*
X175420844Y-51476238D01*
X175281626Y-51569260D01*
X175281625Y-51569261D01*
X175281624Y-51569261D01*
X175126935Y-51633336D01*
X174962719Y-51666000D01*
X174795281Y-51666000D01*
X174631065Y-51633336D01*
X174476376Y-51569261D01*
X174476375Y-51569261D01*
X174476374Y-51569260D01*
X174337156Y-51476238D01*
X174218762Y-51357844D01*
X174125740Y-51218626D01*
X174084791Y-51119767D01*
X174061664Y-51063935D01*
X174029000Y-50899719D01*
X174029000Y-50732281D01*
X174061664Y-50568065D01*
X174125739Y-50413376D01*
X174157295Y-50366149D01*
X174218762Y-50274156D01*
X174337156Y-50155762D01*
X174476374Y-50062740D01*
X174476376Y-50062739D01*
X174631065Y-49998664D01*
X174795281Y-49966000D01*
X174962719Y-49966000D01*
X175126935Y-49998664D01*
G37*
G36*
X149726935Y-49998664D02*
G01*
X149881624Y-50062739D01*
X149881626Y-50062740D01*
X150020844Y-50155762D01*
X150139238Y-50274156D01*
X150200705Y-50366149D01*
X150232261Y-50413376D01*
X150296336Y-50568065D01*
X150329000Y-50732281D01*
X150329000Y-50899719D01*
X150296336Y-51063935D01*
X150273209Y-51119767D01*
X150232260Y-51218626D01*
X150139238Y-51357844D01*
X150020844Y-51476238D01*
X149881626Y-51569260D01*
X149881625Y-51569261D01*
X149881624Y-51569261D01*
X149726935Y-51633336D01*
X149562719Y-51666000D01*
X149395281Y-51666000D01*
X149231065Y-51633336D01*
X149076376Y-51569261D01*
X149076375Y-51569261D01*
X149076374Y-51569260D01*
X148937156Y-51476238D01*
X148818762Y-51357844D01*
X148725740Y-51218626D01*
X148684791Y-51119767D01*
X148661664Y-51063935D01*
X148629000Y-50899719D01*
X148629000Y-50732281D01*
X148661664Y-50568065D01*
X148725739Y-50413376D01*
X148757295Y-50366149D01*
X148818762Y-50274156D01*
X148937156Y-50155762D01*
X149076374Y-50062740D01*
X149076376Y-50062739D01*
X149231065Y-49998664D01*
X149395281Y-49966000D01*
X149562719Y-49966000D01*
X149726935Y-49998664D01*
G37*
G36*
X192906935Y-49998664D02*
G01*
X193061624Y-50062739D01*
X193061626Y-50062740D01*
X193200844Y-50155762D01*
X193319238Y-50274156D01*
X193380705Y-50366149D01*
X193412261Y-50413376D01*
X193476336Y-50568065D01*
X193509000Y-50732281D01*
X193509000Y-50899719D01*
X193476336Y-51063935D01*
X193453209Y-51119767D01*
X193412260Y-51218626D01*
X193319238Y-51357844D01*
X193200844Y-51476238D01*
X193061626Y-51569260D01*
X193061625Y-51569261D01*
X193061624Y-51569261D01*
X192906935Y-51633336D01*
X192742719Y-51666000D01*
X192575281Y-51666000D01*
X192411065Y-51633336D01*
X192256376Y-51569261D01*
X192256375Y-51569261D01*
X192256374Y-51569260D01*
X192117156Y-51476238D01*
X191998762Y-51357844D01*
X191905740Y-51218626D01*
X191864791Y-51119767D01*
X191841664Y-51063935D01*
X191809000Y-50899719D01*
X191809000Y-50732281D01*
X191841664Y-50568065D01*
X191905739Y-50413376D01*
X191937295Y-50366149D01*
X191998762Y-50274156D01*
X192117156Y-50155762D01*
X192256374Y-50062740D01*
X192256376Y-50062739D01*
X192411065Y-49998664D01*
X192575281Y-49966000D01*
X192742719Y-49966000D01*
X192906935Y-49998664D01*
G37*
G36*
X167506935Y-49998664D02*
G01*
X167661624Y-50062739D01*
X167661626Y-50062740D01*
X167800844Y-50155762D01*
X167919238Y-50274156D01*
X167980705Y-50366149D01*
X168012261Y-50413376D01*
X168076336Y-50568065D01*
X168109000Y-50732281D01*
X168109000Y-50899719D01*
X168076336Y-51063935D01*
X168053209Y-51119767D01*
X168012260Y-51218626D01*
X167919238Y-51357844D01*
X167800844Y-51476238D01*
X167661626Y-51569260D01*
X167661625Y-51569261D01*
X167661624Y-51569261D01*
X167506935Y-51633336D01*
X167342719Y-51666000D01*
X167175281Y-51666000D01*
X167011065Y-51633336D01*
X166856376Y-51569261D01*
X166856375Y-51569261D01*
X166856374Y-51569260D01*
X166717156Y-51476238D01*
X166598762Y-51357844D01*
X166505740Y-51218626D01*
X166464791Y-51119767D01*
X166441664Y-51063935D01*
X166409000Y-50899719D01*
X166409000Y-50732281D01*
X166441664Y-50568065D01*
X166505739Y-50413376D01*
X166537295Y-50366149D01*
X166598762Y-50274156D01*
X166717156Y-50155762D01*
X166856374Y-50062740D01*
X166856376Y-50062739D01*
X167011065Y-49998664D01*
X167175281Y-49966000D01*
X167342719Y-49966000D01*
X167506935Y-49998664D01*
G37*
G36*
X131283477Y-48934617D02*
G01*
X131392150Y-48956233D01*
X131536920Y-49016199D01*
X131568453Y-49029260D01*
X131596887Y-49041038D01*
X131675156Y-49093336D01*
X131781144Y-49164155D01*
X131937845Y-49320856D01*
X132060963Y-49505115D01*
X132145767Y-49709851D01*
X132189000Y-49927196D01*
X132189000Y-50148804D01*
X132145767Y-50366149D01*
X132060963Y-50570885D01*
X131953122Y-50732281D01*
X131937844Y-50755145D01*
X131781145Y-50911844D01*
X131596887Y-51034962D01*
X131392150Y-51119767D01*
X131283477Y-51141383D01*
X131174804Y-51163000D01*
X130953196Y-51163000D01*
X130844523Y-51141383D01*
X130735850Y-51119767D01*
X130531113Y-51034962D01*
X130346855Y-50911844D01*
X130190156Y-50755145D01*
X130174879Y-50732281D01*
X130067037Y-50570885D01*
X129982233Y-50366149D01*
X129939000Y-50148804D01*
X129939000Y-49927196D01*
X129982233Y-49709851D01*
X130067037Y-49505115D01*
X130190155Y-49320856D01*
X130346856Y-49164155D01*
X130452844Y-49093336D01*
X130531113Y-49041038D01*
X130559548Y-49029260D01*
X130591080Y-49016199D01*
X130735850Y-48956233D01*
X130844523Y-48934617D01*
X130953196Y-48913000D01*
X131174804Y-48913000D01*
X131283477Y-48934617D01*
G37*
G36*
X136363477Y-48934617D02*
G01*
X136472150Y-48956233D01*
X136616920Y-49016199D01*
X136648453Y-49029260D01*
X136676887Y-49041038D01*
X136755156Y-49093336D01*
X136861144Y-49164155D01*
X137017845Y-49320856D01*
X137140963Y-49505115D01*
X137225767Y-49709851D01*
X137269000Y-49927196D01*
X137269000Y-50148804D01*
X137225767Y-50366149D01*
X137140963Y-50570885D01*
X137033122Y-50732281D01*
X137017844Y-50755145D01*
X136861145Y-50911844D01*
X136676887Y-51034962D01*
X136472150Y-51119767D01*
X136363477Y-51141383D01*
X136254804Y-51163000D01*
X136033196Y-51163000D01*
X135924523Y-51141383D01*
X135815850Y-51119767D01*
X135611113Y-51034962D01*
X135426855Y-50911844D01*
X135270156Y-50755145D01*
X135254879Y-50732281D01*
X135147037Y-50570885D01*
X135062233Y-50366149D01*
X135019000Y-50148804D01*
X135019000Y-49927196D01*
X135062233Y-49709851D01*
X135147037Y-49505115D01*
X135270155Y-49320856D01*
X135426856Y-49164155D01*
X135532844Y-49093336D01*
X135611113Y-49041038D01*
X135639548Y-49029260D01*
X135671080Y-49016199D01*
X135815850Y-48956233D01*
X135924523Y-48934617D01*
X136033196Y-48913000D01*
X136254804Y-48913000D01*
X136363477Y-48934617D01*
G37*
G36*
X187826935Y-47458664D02*
G01*
X187981624Y-47522739D01*
X187981626Y-47522740D01*
X188120844Y-47615762D01*
X188239238Y-47734156D01*
X188332260Y-47873374D01*
X188332261Y-47873376D01*
X188396336Y-48028065D01*
X188429000Y-48192281D01*
X188429000Y-48359719D01*
X188396336Y-48523935D01*
X188332261Y-48678624D01*
X188332260Y-48678626D01*
X188239238Y-48817844D01*
X188120844Y-48936238D01*
X187981626Y-49029260D01*
X187981625Y-49029261D01*
X187981624Y-49029261D01*
X187826935Y-49093336D01*
X187662719Y-49126000D01*
X187495281Y-49126000D01*
X187331065Y-49093336D01*
X187176376Y-49029261D01*
X187176375Y-49029261D01*
X187176374Y-49029260D01*
X187037156Y-48936238D01*
X186918762Y-48817844D01*
X186825740Y-48678626D01*
X186825739Y-48678624D01*
X186761664Y-48523935D01*
X186729000Y-48359719D01*
X186729000Y-48192281D01*
X186761664Y-48028065D01*
X186825739Y-47873376D01*
X186825740Y-47873374D01*
X186918762Y-47734156D01*
X187037156Y-47615762D01*
X187176374Y-47522740D01*
X187176376Y-47522739D01*
X187331065Y-47458664D01*
X187495281Y-47426000D01*
X187662719Y-47426000D01*
X187826935Y-47458664D01*
G37*
G36*
X185286935Y-47458664D02*
G01*
X185441624Y-47522739D01*
X185441626Y-47522740D01*
X185580844Y-47615762D01*
X185699238Y-47734156D01*
X185792260Y-47873374D01*
X185792261Y-47873376D01*
X185856336Y-48028065D01*
X185889000Y-48192281D01*
X185889000Y-48359719D01*
X185856336Y-48523935D01*
X185792261Y-48678624D01*
X185792260Y-48678626D01*
X185699238Y-48817844D01*
X185580844Y-48936238D01*
X185441626Y-49029260D01*
X185441625Y-49029261D01*
X185441624Y-49029261D01*
X185286935Y-49093336D01*
X185122719Y-49126000D01*
X184955281Y-49126000D01*
X184791065Y-49093336D01*
X184636376Y-49029261D01*
X184636375Y-49029261D01*
X184636374Y-49029260D01*
X184497156Y-48936238D01*
X184378762Y-48817844D01*
X184285740Y-48678626D01*
X184285739Y-48678624D01*
X184221664Y-48523935D01*
X184189000Y-48359719D01*
X184189000Y-48192281D01*
X184221664Y-48028065D01*
X184285739Y-47873376D01*
X184285740Y-47873374D01*
X184378762Y-47734156D01*
X184497156Y-47615762D01*
X184636374Y-47522740D01*
X184636376Y-47522739D01*
X184791065Y-47458664D01*
X184955281Y-47426000D01*
X185122719Y-47426000D01*
X185286935Y-47458664D01*
G37*
G36*
X182746935Y-47458664D02*
G01*
X182901624Y-47522739D01*
X182901626Y-47522740D01*
X183040844Y-47615762D01*
X183159238Y-47734156D01*
X183252260Y-47873374D01*
X183252261Y-47873376D01*
X183316336Y-48028065D01*
X183349000Y-48192281D01*
X183349000Y-48359719D01*
X183316336Y-48523935D01*
X183252261Y-48678624D01*
X183252260Y-48678626D01*
X183159238Y-48817844D01*
X183040844Y-48936238D01*
X182901626Y-49029260D01*
X182901625Y-49029261D01*
X182901624Y-49029261D01*
X182746935Y-49093336D01*
X182582719Y-49126000D01*
X182415281Y-49126000D01*
X182251065Y-49093336D01*
X182096376Y-49029261D01*
X182096375Y-49029261D01*
X182096374Y-49029260D01*
X181957156Y-48936238D01*
X181838762Y-48817844D01*
X181745740Y-48678626D01*
X181745739Y-48678624D01*
X181681664Y-48523935D01*
X181649000Y-48359719D01*
X181649000Y-48192281D01*
X181681664Y-48028065D01*
X181745739Y-47873376D01*
X181745740Y-47873374D01*
X181838762Y-47734156D01*
X181957156Y-47615762D01*
X182096374Y-47522740D01*
X182096376Y-47522739D01*
X182251065Y-47458664D01*
X182415281Y-47426000D01*
X182582719Y-47426000D01*
X182746935Y-47458664D01*
G37*
G36*
X180206935Y-47458664D02*
G01*
X180361624Y-47522739D01*
X180361626Y-47522740D01*
X180500844Y-47615762D01*
X180619238Y-47734156D01*
X180712260Y-47873374D01*
X180712261Y-47873376D01*
X180776336Y-48028065D01*
X180809000Y-48192281D01*
X180809000Y-48359719D01*
X180776336Y-48523935D01*
X180712261Y-48678624D01*
X180712260Y-48678626D01*
X180619238Y-48817844D01*
X180500844Y-48936238D01*
X180361626Y-49029260D01*
X180361625Y-49029261D01*
X180361624Y-49029261D01*
X180206935Y-49093336D01*
X180042719Y-49126000D01*
X179875281Y-49126000D01*
X179711065Y-49093336D01*
X179556376Y-49029261D01*
X179556375Y-49029261D01*
X179556374Y-49029260D01*
X179417156Y-48936238D01*
X179298762Y-48817844D01*
X179205740Y-48678626D01*
X179205739Y-48678624D01*
X179141664Y-48523935D01*
X179109000Y-48359719D01*
X179109000Y-48192281D01*
X179141664Y-48028065D01*
X179205739Y-47873376D01*
X179205740Y-47873374D01*
X179298762Y-47734156D01*
X179417156Y-47615762D01*
X179556374Y-47522740D01*
X179556376Y-47522739D01*
X179711065Y-47458664D01*
X179875281Y-47426000D01*
X180042719Y-47426000D01*
X180206935Y-47458664D01*
G37*
G36*
X177666935Y-47458664D02*
G01*
X177821624Y-47522739D01*
X177821626Y-47522740D01*
X177960844Y-47615762D01*
X178079238Y-47734156D01*
X178172260Y-47873374D01*
X178172261Y-47873376D01*
X178236336Y-48028065D01*
X178269000Y-48192281D01*
X178269000Y-48359719D01*
X178236336Y-48523935D01*
X178172261Y-48678624D01*
X178172260Y-48678626D01*
X178079238Y-48817844D01*
X177960844Y-48936238D01*
X177821626Y-49029260D01*
X177821625Y-49029261D01*
X177821624Y-49029261D01*
X177666935Y-49093336D01*
X177502719Y-49126000D01*
X177335281Y-49126000D01*
X177171065Y-49093336D01*
X177016376Y-49029261D01*
X177016375Y-49029261D01*
X177016374Y-49029260D01*
X176877156Y-48936238D01*
X176758762Y-48817844D01*
X176665740Y-48678626D01*
X176665739Y-48678624D01*
X176601664Y-48523935D01*
X176569000Y-48359719D01*
X176569000Y-48192281D01*
X176601664Y-48028065D01*
X176665739Y-47873376D01*
X176665740Y-47873374D01*
X176758762Y-47734156D01*
X176877156Y-47615762D01*
X177016374Y-47522740D01*
X177016376Y-47522739D01*
X177171065Y-47458664D01*
X177335281Y-47426000D01*
X177502719Y-47426000D01*
X177666935Y-47458664D01*
G37*
G36*
X175126935Y-47458664D02*
G01*
X175281624Y-47522739D01*
X175281626Y-47522740D01*
X175420844Y-47615762D01*
X175539238Y-47734156D01*
X175632260Y-47873374D01*
X175632261Y-47873376D01*
X175696336Y-48028065D01*
X175729000Y-48192281D01*
X175729000Y-48359719D01*
X175696336Y-48523935D01*
X175632261Y-48678624D01*
X175632260Y-48678626D01*
X175539238Y-48817844D01*
X175420844Y-48936238D01*
X175281626Y-49029260D01*
X175281625Y-49029261D01*
X175281624Y-49029261D01*
X175126935Y-49093336D01*
X174962719Y-49126000D01*
X174795281Y-49126000D01*
X174631065Y-49093336D01*
X174476376Y-49029261D01*
X174476375Y-49029261D01*
X174476374Y-49029260D01*
X174337156Y-48936238D01*
X174218762Y-48817844D01*
X174125740Y-48678626D01*
X174125739Y-48678624D01*
X174061664Y-48523935D01*
X174029000Y-48359719D01*
X174029000Y-48192281D01*
X174061664Y-48028065D01*
X174125739Y-47873376D01*
X174125740Y-47873374D01*
X174218762Y-47734156D01*
X174337156Y-47615762D01*
X174476374Y-47522740D01*
X174476376Y-47522739D01*
X174631065Y-47458664D01*
X174795281Y-47426000D01*
X174962719Y-47426000D01*
X175126935Y-47458664D01*
G37*
G36*
X172586935Y-47458664D02*
G01*
X172741624Y-47522739D01*
X172741626Y-47522740D01*
X172880844Y-47615762D01*
X172999238Y-47734156D01*
X173092260Y-47873374D01*
X173092261Y-47873376D01*
X173156336Y-48028065D01*
X173189000Y-48192281D01*
X173189000Y-48359719D01*
X173156336Y-48523935D01*
X173092261Y-48678624D01*
X173092260Y-48678626D01*
X172999238Y-48817844D01*
X172880844Y-48936238D01*
X172741626Y-49029260D01*
X172741625Y-49029261D01*
X172741624Y-49029261D01*
X172586935Y-49093336D01*
X172422719Y-49126000D01*
X172255281Y-49126000D01*
X172091065Y-49093336D01*
X171936376Y-49029261D01*
X171936375Y-49029261D01*
X171936374Y-49029260D01*
X171797156Y-48936238D01*
X171678762Y-48817844D01*
X171585740Y-48678626D01*
X171585739Y-48678624D01*
X171521664Y-48523935D01*
X171489000Y-48359719D01*
X171489000Y-48192281D01*
X171521664Y-48028065D01*
X171585739Y-47873376D01*
X171585740Y-47873374D01*
X171678762Y-47734156D01*
X171797156Y-47615762D01*
X171936374Y-47522740D01*
X171936376Y-47522739D01*
X172091065Y-47458664D01*
X172255281Y-47426000D01*
X172422719Y-47426000D01*
X172586935Y-47458664D01*
G37*
G36*
X170046935Y-47458664D02*
G01*
X170201624Y-47522739D01*
X170201626Y-47522740D01*
X170340844Y-47615762D01*
X170459238Y-47734156D01*
X170552260Y-47873374D01*
X170552261Y-47873376D01*
X170616336Y-48028065D01*
X170649000Y-48192281D01*
X170649000Y-48359719D01*
X170616336Y-48523935D01*
X170552261Y-48678624D01*
X170552260Y-48678626D01*
X170459238Y-48817844D01*
X170340844Y-48936238D01*
X170201626Y-49029260D01*
X170201625Y-49029261D01*
X170201624Y-49029261D01*
X170046935Y-49093336D01*
X169882719Y-49126000D01*
X169715281Y-49126000D01*
X169551065Y-49093336D01*
X169396376Y-49029261D01*
X169396375Y-49029261D01*
X169396374Y-49029260D01*
X169257156Y-48936238D01*
X169138762Y-48817844D01*
X169045740Y-48678626D01*
X169045739Y-48678624D01*
X168981664Y-48523935D01*
X168949000Y-48359719D01*
X168949000Y-48192281D01*
X168981664Y-48028065D01*
X169045739Y-47873376D01*
X169045740Y-47873374D01*
X169138762Y-47734156D01*
X169257156Y-47615762D01*
X169396374Y-47522740D01*
X169396376Y-47522739D01*
X169551065Y-47458664D01*
X169715281Y-47426000D01*
X169882719Y-47426000D01*
X170046935Y-47458664D01*
G37*
G36*
X167506935Y-47458664D02*
G01*
X167661624Y-47522739D01*
X167661626Y-47522740D01*
X167800844Y-47615762D01*
X167919238Y-47734156D01*
X168012260Y-47873374D01*
X168012261Y-47873376D01*
X168076336Y-48028065D01*
X168109000Y-48192281D01*
X168109000Y-48359719D01*
X168076336Y-48523935D01*
X168012261Y-48678624D01*
X168012260Y-48678626D01*
X167919238Y-48817844D01*
X167800844Y-48936238D01*
X167661626Y-49029260D01*
X167661625Y-49029261D01*
X167661624Y-49029261D01*
X167506935Y-49093336D01*
X167342719Y-49126000D01*
X167175281Y-49126000D01*
X167011065Y-49093336D01*
X166856376Y-49029261D01*
X166856375Y-49029261D01*
X166856374Y-49029260D01*
X166717156Y-48936238D01*
X166598762Y-48817844D01*
X166505740Y-48678626D01*
X166505739Y-48678624D01*
X166441664Y-48523935D01*
X166409000Y-48359719D01*
X166409000Y-48192281D01*
X166441664Y-48028065D01*
X166505739Y-47873376D01*
X166505740Y-47873374D01*
X166598762Y-47734156D01*
X166717156Y-47615762D01*
X166856374Y-47522740D01*
X166856376Y-47522739D01*
X167011065Y-47458664D01*
X167175281Y-47426000D01*
X167342719Y-47426000D01*
X167506935Y-47458664D01*
G37*
G36*
X164966935Y-47458664D02*
G01*
X165121624Y-47522739D01*
X165121626Y-47522740D01*
X165260844Y-47615762D01*
X165379238Y-47734156D01*
X165472260Y-47873374D01*
X165472261Y-47873376D01*
X165536336Y-48028065D01*
X165569000Y-48192281D01*
X165569000Y-48359719D01*
X165536336Y-48523935D01*
X165472261Y-48678624D01*
X165472260Y-48678626D01*
X165379238Y-48817844D01*
X165260844Y-48936238D01*
X165121626Y-49029260D01*
X165121625Y-49029261D01*
X165121624Y-49029261D01*
X164966935Y-49093336D01*
X164802719Y-49126000D01*
X164635281Y-49126000D01*
X164471065Y-49093336D01*
X164316376Y-49029261D01*
X164316375Y-49029261D01*
X164316374Y-49029260D01*
X164177156Y-48936238D01*
X164058762Y-48817844D01*
X163965740Y-48678626D01*
X163965739Y-48678624D01*
X163901664Y-48523935D01*
X163869000Y-48359719D01*
X163869000Y-48192281D01*
X163901664Y-48028065D01*
X163965739Y-47873376D01*
X163965740Y-47873374D01*
X164058762Y-47734156D01*
X164177156Y-47615762D01*
X164316374Y-47522740D01*
X164316376Y-47522739D01*
X164471065Y-47458664D01*
X164635281Y-47426000D01*
X164802719Y-47426000D01*
X164966935Y-47458664D01*
G37*
G36*
X157346935Y-47458664D02*
G01*
X157501624Y-47522739D01*
X157501626Y-47522740D01*
X157640844Y-47615762D01*
X157759238Y-47734156D01*
X157852260Y-47873374D01*
X157852261Y-47873376D01*
X157916336Y-48028065D01*
X157949000Y-48192281D01*
X157949000Y-48359719D01*
X157916336Y-48523935D01*
X157852261Y-48678624D01*
X157852260Y-48678626D01*
X157759238Y-48817844D01*
X157640844Y-48936238D01*
X157501626Y-49029260D01*
X157501625Y-49029261D01*
X157501624Y-49029261D01*
X157346935Y-49093336D01*
X157182719Y-49126000D01*
X157015281Y-49126000D01*
X156851065Y-49093336D01*
X156696376Y-49029261D01*
X156696375Y-49029261D01*
X156696374Y-49029260D01*
X156557156Y-48936238D01*
X156438762Y-48817844D01*
X156345740Y-48678626D01*
X156345739Y-48678624D01*
X156281664Y-48523935D01*
X156249000Y-48359719D01*
X156249000Y-48192281D01*
X156281664Y-48028065D01*
X156345739Y-47873376D01*
X156345740Y-47873374D01*
X156438762Y-47734156D01*
X156557156Y-47615762D01*
X156696374Y-47522740D01*
X156696376Y-47522739D01*
X156851065Y-47458664D01*
X157015281Y-47426000D01*
X157182719Y-47426000D01*
X157346935Y-47458664D01*
G37*
G36*
X154806935Y-47458664D02*
G01*
X154961624Y-47522739D01*
X154961626Y-47522740D01*
X155100844Y-47615762D01*
X155219238Y-47734156D01*
X155312260Y-47873374D01*
X155312261Y-47873376D01*
X155376336Y-48028065D01*
X155409000Y-48192281D01*
X155409000Y-48359719D01*
X155376336Y-48523935D01*
X155312261Y-48678624D01*
X155312260Y-48678626D01*
X155219238Y-48817844D01*
X155100844Y-48936238D01*
X154961626Y-49029260D01*
X154961625Y-49029261D01*
X154961624Y-49029261D01*
X154806935Y-49093336D01*
X154642719Y-49126000D01*
X154475281Y-49126000D01*
X154311065Y-49093336D01*
X154156376Y-49029261D01*
X154156375Y-49029261D01*
X154156374Y-49029260D01*
X154017156Y-48936238D01*
X153898762Y-48817844D01*
X153805740Y-48678626D01*
X153805739Y-48678624D01*
X153741664Y-48523935D01*
X153709000Y-48359719D01*
X153709000Y-48192281D01*
X153741664Y-48028065D01*
X153805739Y-47873376D01*
X153805740Y-47873374D01*
X153898762Y-47734156D01*
X154017156Y-47615762D01*
X154156374Y-47522740D01*
X154156376Y-47522739D01*
X154311065Y-47458664D01*
X154475281Y-47426000D01*
X154642719Y-47426000D01*
X154806935Y-47458664D01*
G37*
G36*
X152266935Y-47458664D02*
G01*
X152421624Y-47522739D01*
X152421626Y-47522740D01*
X152560844Y-47615762D01*
X152679238Y-47734156D01*
X152772260Y-47873374D01*
X152772261Y-47873376D01*
X152836336Y-48028065D01*
X152869000Y-48192281D01*
X152869000Y-48359719D01*
X152836336Y-48523935D01*
X152772261Y-48678624D01*
X152772260Y-48678626D01*
X152679238Y-48817844D01*
X152560844Y-48936238D01*
X152421626Y-49029260D01*
X152421625Y-49029261D01*
X152421624Y-49029261D01*
X152266935Y-49093336D01*
X152102719Y-49126000D01*
X151935281Y-49126000D01*
X151771065Y-49093336D01*
X151616376Y-49029261D01*
X151616375Y-49029261D01*
X151616374Y-49029260D01*
X151477156Y-48936238D01*
X151358762Y-48817844D01*
X151265740Y-48678626D01*
X151265739Y-48678624D01*
X151201664Y-48523935D01*
X151169000Y-48359719D01*
X151169000Y-48192281D01*
X151201664Y-48028065D01*
X151265739Y-47873376D01*
X151265740Y-47873374D01*
X151358762Y-47734156D01*
X151477156Y-47615762D01*
X151616374Y-47522740D01*
X151616376Y-47522739D01*
X151771065Y-47458664D01*
X151935281Y-47426000D01*
X152102719Y-47426000D01*
X152266935Y-47458664D01*
G37*
G36*
X149726935Y-47458664D02*
G01*
X149881624Y-47522739D01*
X149881626Y-47522740D01*
X150020844Y-47615762D01*
X150139238Y-47734156D01*
X150232260Y-47873374D01*
X150232261Y-47873376D01*
X150296336Y-48028065D01*
X150329000Y-48192281D01*
X150329000Y-48359719D01*
X150296336Y-48523935D01*
X150232261Y-48678624D01*
X150232260Y-48678626D01*
X150139238Y-48817844D01*
X150020844Y-48936238D01*
X149881626Y-49029260D01*
X149881625Y-49029261D01*
X149881624Y-49029261D01*
X149726935Y-49093336D01*
X149562719Y-49126000D01*
X149395281Y-49126000D01*
X149231065Y-49093336D01*
X149076376Y-49029261D01*
X149076375Y-49029261D01*
X149076374Y-49029260D01*
X148937156Y-48936238D01*
X148818762Y-48817844D01*
X148725740Y-48678626D01*
X148725739Y-48678624D01*
X148661664Y-48523935D01*
X148629000Y-48359719D01*
X148629000Y-48192281D01*
X148661664Y-48028065D01*
X148725739Y-47873376D01*
X148725740Y-47873374D01*
X148818762Y-47734156D01*
X148937156Y-47615762D01*
X149076374Y-47522740D01*
X149076376Y-47522739D01*
X149231065Y-47458664D01*
X149395281Y-47426000D01*
X149562719Y-47426000D01*
X149726935Y-47458664D01*
G37*
G36*
X147186935Y-47458664D02*
G01*
X147341624Y-47522739D01*
X147341626Y-47522740D01*
X147480844Y-47615762D01*
X147599238Y-47734156D01*
X147692260Y-47873374D01*
X147692261Y-47873376D01*
X147756336Y-48028065D01*
X147789000Y-48192281D01*
X147789000Y-48359719D01*
X147756336Y-48523935D01*
X147692261Y-48678624D01*
X147692260Y-48678626D01*
X147599238Y-48817844D01*
X147480844Y-48936238D01*
X147341626Y-49029260D01*
X147341625Y-49029261D01*
X147341624Y-49029261D01*
X147186935Y-49093336D01*
X147022719Y-49126000D01*
X146855281Y-49126000D01*
X146691065Y-49093336D01*
X146536376Y-49029261D01*
X146536375Y-49029261D01*
X146536374Y-49029260D01*
X146397156Y-48936238D01*
X146278762Y-48817844D01*
X146185740Y-48678626D01*
X146185739Y-48678624D01*
X146121664Y-48523935D01*
X146089000Y-48359719D01*
X146089000Y-48192281D01*
X146121664Y-48028065D01*
X146185739Y-47873376D01*
X146185740Y-47873374D01*
X146278762Y-47734156D01*
X146397156Y-47615762D01*
X146536374Y-47522740D01*
X146536376Y-47522739D01*
X146691065Y-47458664D01*
X146855281Y-47426000D01*
X147022719Y-47426000D01*
X147186935Y-47458664D01*
G37*
G36*
X190366935Y-47458664D02*
G01*
X190521624Y-47522739D01*
X190521626Y-47522740D01*
X190660844Y-47615762D01*
X190779238Y-47734156D01*
X190872260Y-47873374D01*
X190872261Y-47873376D01*
X190936336Y-48028065D01*
X190969000Y-48192281D01*
X190969000Y-48359719D01*
X190936336Y-48523935D01*
X190872261Y-48678624D01*
X190872260Y-48678626D01*
X190779238Y-48817844D01*
X190660844Y-48936238D01*
X190521626Y-49029260D01*
X190521625Y-49029261D01*
X190521624Y-49029261D01*
X190366935Y-49093336D01*
X190202719Y-49126000D01*
X190035281Y-49126000D01*
X189871065Y-49093336D01*
X189716376Y-49029261D01*
X189716375Y-49029261D01*
X189716374Y-49029260D01*
X189577156Y-48936238D01*
X189458762Y-48817844D01*
X189365740Y-48678626D01*
X189365739Y-48678624D01*
X189301664Y-48523935D01*
X189269000Y-48359719D01*
X189269000Y-48192281D01*
X189301664Y-48028065D01*
X189365739Y-47873376D01*
X189365740Y-47873374D01*
X189458762Y-47734156D01*
X189577156Y-47615762D01*
X189716374Y-47522740D01*
X189716376Y-47522739D01*
X189871065Y-47458664D01*
X190035281Y-47426000D01*
X190202719Y-47426000D01*
X190366935Y-47458664D01*
G37*
G36*
X192906935Y-47458664D02*
G01*
X193061624Y-47522739D01*
X193061626Y-47522740D01*
X193200844Y-47615762D01*
X193319238Y-47734156D01*
X193412260Y-47873374D01*
X193412261Y-47873376D01*
X193476336Y-48028065D01*
X193509000Y-48192281D01*
X193509000Y-48359719D01*
X193476336Y-48523935D01*
X193412261Y-48678624D01*
X193412260Y-48678626D01*
X193319238Y-48817844D01*
X193200844Y-48936238D01*
X193061626Y-49029260D01*
X193061625Y-49029261D01*
X193061624Y-49029261D01*
X192906935Y-49093336D01*
X192742719Y-49126000D01*
X192575281Y-49126000D01*
X192411065Y-49093336D01*
X192256376Y-49029261D01*
X192256375Y-49029261D01*
X192256374Y-49029260D01*
X192117156Y-48936238D01*
X191998762Y-48817844D01*
X191905740Y-48678626D01*
X191905739Y-48678624D01*
X191841664Y-48523935D01*
X191809000Y-48359719D01*
X191809000Y-48192281D01*
X191841664Y-48028065D01*
X191905739Y-47873376D01*
X191905740Y-47873374D01*
X191998762Y-47734156D01*
X192117156Y-47615762D01*
X192256374Y-47522740D01*
X192256376Y-47522739D01*
X192411065Y-47458664D01*
X192575281Y-47426000D01*
X192742719Y-47426000D01*
X192906935Y-47458664D01*
G37*
G36*
X195446935Y-47458664D02*
G01*
X195601624Y-47522739D01*
X195601626Y-47522740D01*
X195740844Y-47615762D01*
X195859238Y-47734156D01*
X195952260Y-47873374D01*
X195952261Y-47873376D01*
X196016336Y-48028065D01*
X196049000Y-48192281D01*
X196049000Y-48359719D01*
X196016336Y-48523935D01*
X195952261Y-48678624D01*
X195952260Y-48678626D01*
X195859238Y-48817844D01*
X195740844Y-48936238D01*
X195601626Y-49029260D01*
X195601625Y-49029261D01*
X195601624Y-49029261D01*
X195446935Y-49093336D01*
X195282719Y-49126000D01*
X195115281Y-49126000D01*
X194951065Y-49093336D01*
X194796376Y-49029261D01*
X194796375Y-49029261D01*
X194796374Y-49029260D01*
X194657156Y-48936238D01*
X194538762Y-48817844D01*
X194445740Y-48678626D01*
X194445739Y-48678624D01*
X194381664Y-48523935D01*
X194349000Y-48359719D01*
X194349000Y-48192281D01*
X194381664Y-48028065D01*
X194445739Y-47873376D01*
X194445740Y-47873374D01*
X194538762Y-47734156D01*
X194657156Y-47615762D01*
X194796374Y-47522740D01*
X194796376Y-47522739D01*
X194951065Y-47458664D01*
X195115281Y-47426000D01*
X195282719Y-47426000D01*
X195446935Y-47458664D01*
G37*
G36*
X162426935Y-47458664D02*
G01*
X162581624Y-47522739D01*
X162581626Y-47522740D01*
X162720844Y-47615762D01*
X162839238Y-47734156D01*
X162932260Y-47873374D01*
X162932261Y-47873376D01*
X162996336Y-48028065D01*
X163029000Y-48192281D01*
X163029000Y-48359719D01*
X162996336Y-48523935D01*
X162932261Y-48678624D01*
X162932260Y-48678626D01*
X162839238Y-48817844D01*
X162720844Y-48936238D01*
X162581626Y-49029260D01*
X162581625Y-49029261D01*
X162581624Y-49029261D01*
X162426935Y-49093336D01*
X162262719Y-49126000D01*
X162095281Y-49126000D01*
X161931065Y-49093336D01*
X161776376Y-49029261D01*
X161776375Y-49029261D01*
X161776374Y-49029260D01*
X161637156Y-48936238D01*
X161518762Y-48817844D01*
X161425740Y-48678626D01*
X161425739Y-48678624D01*
X161361664Y-48523935D01*
X161329000Y-48359719D01*
X161329000Y-48192281D01*
X161361664Y-48028065D01*
X161425739Y-47873376D01*
X161425740Y-47873374D01*
X161518762Y-47734156D01*
X161637156Y-47615762D01*
X161776374Y-47522740D01*
X161776376Y-47522739D01*
X161931065Y-47458664D01*
X162095281Y-47426000D01*
X162262719Y-47426000D01*
X162426935Y-47458664D01*
G37*
G36*
X159886935Y-47458664D02*
G01*
X160041624Y-47522739D01*
X160041626Y-47522740D01*
X160180844Y-47615762D01*
X160299238Y-47734156D01*
X160392260Y-47873374D01*
X160392261Y-47873376D01*
X160456336Y-48028065D01*
X160489000Y-48192281D01*
X160489000Y-48359719D01*
X160456336Y-48523935D01*
X160392261Y-48678624D01*
X160392260Y-48678626D01*
X160299238Y-48817844D01*
X160180844Y-48936238D01*
X160041626Y-49029260D01*
X160041625Y-49029261D01*
X160041624Y-49029261D01*
X159886935Y-49093336D01*
X159722719Y-49126000D01*
X159555281Y-49126000D01*
X159391065Y-49093336D01*
X159236376Y-49029261D01*
X159236375Y-49029261D01*
X159236374Y-49029260D01*
X159097156Y-48936238D01*
X158978762Y-48817844D01*
X158885740Y-48678626D01*
X158885739Y-48678624D01*
X158821664Y-48523935D01*
X158789000Y-48359719D01*
X158789000Y-48192281D01*
X158821664Y-48028065D01*
X158885739Y-47873376D01*
X158885740Y-47873374D01*
X158978762Y-47734156D01*
X159097156Y-47615762D01*
X159236374Y-47522740D01*
X159236376Y-47522739D01*
X159391065Y-47458664D01*
X159555281Y-47426000D01*
X159722719Y-47426000D01*
X159886935Y-47458664D01*
G37*
M02*
