G04 #@! TF.GenerationSoftware,KiCad,Pcbnew,(5.1.5)-3*
G04 #@! TF.CreationDate,2020-05-03T22:11:19-07:00*
G04 #@! TF.ProjectId,DashSight-Mezzanine-Card,44617368-5369-4676-9874-2d4d657a7a61,rev?*
G04 #@! TF.SameCoordinates,Original*
G04 #@! TF.FileFunction,Paste,Bot*
G04 #@! TF.FilePolarity,Positive*
%FSLAX46Y46*%
G04 Gerber Fmt 4.6, Leading zero omitted, Abs format (unit mm)*
G04 Created by KiCad (PCBNEW (5.1.5)-3) date 2020-05-03 22:11:19*
%MOMM*%
%LPD*%
G04 APERTURE LIST*
%ADD10C,0.100000*%
%ADD11R,0.900000X0.800000*%
%ADD12R,0.900000X0.500000*%
%ADD13R,0.900000X1.200000*%
%ADD14R,0.500000X0.900000*%
G04 APERTURE END LIST*
D10*
G36*
X189710891Y-57551653D02*
G01*
X189732126Y-57554803D01*
X189752950Y-57560019D01*
X189773162Y-57567251D01*
X189792568Y-57576430D01*
X189810981Y-57587466D01*
X189828224Y-57600254D01*
X189844130Y-57614670D01*
X189858546Y-57630576D01*
X189871334Y-57647819D01*
X189882370Y-57666232D01*
X189891549Y-57685638D01*
X189898781Y-57705850D01*
X189903997Y-57726674D01*
X189907147Y-57747909D01*
X189908200Y-57769350D01*
X189908200Y-58206850D01*
X189907147Y-58228291D01*
X189903997Y-58249526D01*
X189898781Y-58270350D01*
X189891549Y-58290562D01*
X189882370Y-58309968D01*
X189871334Y-58328381D01*
X189858546Y-58345624D01*
X189844130Y-58361530D01*
X189828224Y-58375946D01*
X189810981Y-58388734D01*
X189792568Y-58399770D01*
X189773162Y-58408949D01*
X189752950Y-58416181D01*
X189732126Y-58421397D01*
X189710891Y-58424547D01*
X189689450Y-58425600D01*
X189176950Y-58425600D01*
X189155509Y-58424547D01*
X189134274Y-58421397D01*
X189113450Y-58416181D01*
X189093238Y-58408949D01*
X189073832Y-58399770D01*
X189055419Y-58388734D01*
X189038176Y-58375946D01*
X189022270Y-58361530D01*
X189007854Y-58345624D01*
X188995066Y-58328381D01*
X188984030Y-58309968D01*
X188974851Y-58290562D01*
X188967619Y-58270350D01*
X188962403Y-58249526D01*
X188959253Y-58228291D01*
X188958200Y-58206850D01*
X188958200Y-57769350D01*
X188959253Y-57747909D01*
X188962403Y-57726674D01*
X188967619Y-57705850D01*
X188974851Y-57685638D01*
X188984030Y-57666232D01*
X188995066Y-57647819D01*
X189007854Y-57630576D01*
X189022270Y-57614670D01*
X189038176Y-57600254D01*
X189055419Y-57587466D01*
X189073832Y-57576430D01*
X189093238Y-57567251D01*
X189113450Y-57560019D01*
X189134274Y-57554803D01*
X189155509Y-57551653D01*
X189176950Y-57550600D01*
X189689450Y-57550600D01*
X189710891Y-57551653D01*
G37*
G36*
X189710891Y-59126653D02*
G01*
X189732126Y-59129803D01*
X189752950Y-59135019D01*
X189773162Y-59142251D01*
X189792568Y-59151430D01*
X189810981Y-59162466D01*
X189828224Y-59175254D01*
X189844130Y-59189670D01*
X189858546Y-59205576D01*
X189871334Y-59222819D01*
X189882370Y-59241232D01*
X189891549Y-59260638D01*
X189898781Y-59280850D01*
X189903997Y-59301674D01*
X189907147Y-59322909D01*
X189908200Y-59344350D01*
X189908200Y-59781850D01*
X189907147Y-59803291D01*
X189903997Y-59824526D01*
X189898781Y-59845350D01*
X189891549Y-59865562D01*
X189882370Y-59884968D01*
X189871334Y-59903381D01*
X189858546Y-59920624D01*
X189844130Y-59936530D01*
X189828224Y-59950946D01*
X189810981Y-59963734D01*
X189792568Y-59974770D01*
X189773162Y-59983949D01*
X189752950Y-59991181D01*
X189732126Y-59996397D01*
X189710891Y-59999547D01*
X189689450Y-60000600D01*
X189176950Y-60000600D01*
X189155509Y-59999547D01*
X189134274Y-59996397D01*
X189113450Y-59991181D01*
X189093238Y-59983949D01*
X189073832Y-59974770D01*
X189055419Y-59963734D01*
X189038176Y-59950946D01*
X189022270Y-59936530D01*
X189007854Y-59920624D01*
X188995066Y-59903381D01*
X188984030Y-59884968D01*
X188974851Y-59865562D01*
X188967619Y-59845350D01*
X188962403Y-59824526D01*
X188959253Y-59803291D01*
X188958200Y-59781850D01*
X188958200Y-59344350D01*
X188959253Y-59322909D01*
X188962403Y-59301674D01*
X188967619Y-59280850D01*
X188974851Y-59260638D01*
X188984030Y-59241232D01*
X188995066Y-59222819D01*
X189007854Y-59205576D01*
X189022270Y-59189670D01*
X189038176Y-59175254D01*
X189055419Y-59162466D01*
X189073832Y-59151430D01*
X189093238Y-59142251D01*
X189113450Y-59135019D01*
X189134274Y-59129803D01*
X189155509Y-59126653D01*
X189176950Y-59125600D01*
X189689450Y-59125600D01*
X189710891Y-59126653D01*
G37*
G36*
X188999691Y-74417253D02*
G01*
X189020926Y-74420403D01*
X189041750Y-74425619D01*
X189061962Y-74432851D01*
X189081368Y-74442030D01*
X189099781Y-74453066D01*
X189117024Y-74465854D01*
X189132930Y-74480270D01*
X189147346Y-74496176D01*
X189160134Y-74513419D01*
X189171170Y-74531832D01*
X189180349Y-74551238D01*
X189187581Y-74571450D01*
X189192797Y-74592274D01*
X189195947Y-74613509D01*
X189197000Y-74634950D01*
X189197000Y-75072450D01*
X189195947Y-75093891D01*
X189192797Y-75115126D01*
X189187581Y-75135950D01*
X189180349Y-75156162D01*
X189171170Y-75175568D01*
X189160134Y-75193981D01*
X189147346Y-75211224D01*
X189132930Y-75227130D01*
X189117024Y-75241546D01*
X189099781Y-75254334D01*
X189081368Y-75265370D01*
X189061962Y-75274549D01*
X189041750Y-75281781D01*
X189020926Y-75286997D01*
X188999691Y-75290147D01*
X188978250Y-75291200D01*
X188465750Y-75291200D01*
X188444309Y-75290147D01*
X188423074Y-75286997D01*
X188402250Y-75281781D01*
X188382038Y-75274549D01*
X188362632Y-75265370D01*
X188344219Y-75254334D01*
X188326976Y-75241546D01*
X188311070Y-75227130D01*
X188296654Y-75211224D01*
X188283866Y-75193981D01*
X188272830Y-75175568D01*
X188263651Y-75156162D01*
X188256419Y-75135950D01*
X188251203Y-75115126D01*
X188248053Y-75093891D01*
X188247000Y-75072450D01*
X188247000Y-74634950D01*
X188248053Y-74613509D01*
X188251203Y-74592274D01*
X188256419Y-74571450D01*
X188263651Y-74551238D01*
X188272830Y-74531832D01*
X188283866Y-74513419D01*
X188296654Y-74496176D01*
X188311070Y-74480270D01*
X188326976Y-74465854D01*
X188344219Y-74453066D01*
X188362632Y-74442030D01*
X188382038Y-74432851D01*
X188402250Y-74425619D01*
X188423074Y-74420403D01*
X188444309Y-74417253D01*
X188465750Y-74416200D01*
X188978250Y-74416200D01*
X188999691Y-74417253D01*
G37*
G36*
X188999691Y-75992253D02*
G01*
X189020926Y-75995403D01*
X189041750Y-76000619D01*
X189061962Y-76007851D01*
X189081368Y-76017030D01*
X189099781Y-76028066D01*
X189117024Y-76040854D01*
X189132930Y-76055270D01*
X189147346Y-76071176D01*
X189160134Y-76088419D01*
X189171170Y-76106832D01*
X189180349Y-76126238D01*
X189187581Y-76146450D01*
X189192797Y-76167274D01*
X189195947Y-76188509D01*
X189197000Y-76209950D01*
X189197000Y-76647450D01*
X189195947Y-76668891D01*
X189192797Y-76690126D01*
X189187581Y-76710950D01*
X189180349Y-76731162D01*
X189171170Y-76750568D01*
X189160134Y-76768981D01*
X189147346Y-76786224D01*
X189132930Y-76802130D01*
X189117024Y-76816546D01*
X189099781Y-76829334D01*
X189081368Y-76840370D01*
X189061962Y-76849549D01*
X189041750Y-76856781D01*
X189020926Y-76861997D01*
X188999691Y-76865147D01*
X188978250Y-76866200D01*
X188465750Y-76866200D01*
X188444309Y-76865147D01*
X188423074Y-76861997D01*
X188402250Y-76856781D01*
X188382038Y-76849549D01*
X188362632Y-76840370D01*
X188344219Y-76829334D01*
X188326976Y-76816546D01*
X188311070Y-76802130D01*
X188296654Y-76786224D01*
X188283866Y-76768981D01*
X188272830Y-76750568D01*
X188263651Y-76731162D01*
X188256419Y-76710950D01*
X188251203Y-76690126D01*
X188248053Y-76668891D01*
X188247000Y-76647450D01*
X188247000Y-76209950D01*
X188248053Y-76188509D01*
X188251203Y-76167274D01*
X188256419Y-76146450D01*
X188263651Y-76126238D01*
X188272830Y-76106832D01*
X188283866Y-76088419D01*
X188296654Y-76071176D01*
X188311070Y-76055270D01*
X188326976Y-76040854D01*
X188344219Y-76028066D01*
X188362632Y-76017030D01*
X188382038Y-76007851D01*
X188402250Y-76000619D01*
X188423074Y-75995403D01*
X188444309Y-75992253D01*
X188465750Y-75991200D01*
X188978250Y-75991200D01*
X188999691Y-75992253D01*
G37*
D11*
X161210500Y-110045500D03*
X159210500Y-109095500D03*
X159210500Y-110995500D03*
X143526000Y-108013500D03*
X145526000Y-108963500D03*
X145526000Y-107063500D03*
X144923000Y-112268000D03*
X146923000Y-113218000D03*
X146923000Y-111318000D03*
X150828500Y-113347500D03*
X152828500Y-114297500D03*
X152828500Y-112397500D03*
D12*
X142494000Y-113335500D03*
X142494000Y-111835500D03*
D13*
X176719500Y-109156500D03*
X173419500Y-109156500D03*
X148589000Y-115824000D03*
X145289000Y-115824000D03*
D14*
X166802500Y-110172500D03*
X165302500Y-110172500D03*
X138315000Y-108966000D03*
X139815000Y-108966000D03*
X138759500Y-112522000D03*
X140259500Y-112522000D03*
D12*
X141541500Y-109525500D03*
X141541500Y-108025500D03*
X157607000Y-107835000D03*
X157607000Y-109335000D03*
D14*
X141998000Y-116268500D03*
X143498000Y-116268500D03*
D12*
X148971000Y-112319500D03*
X148971000Y-110819500D03*
X149860000Y-107557000D03*
X149860000Y-106057000D03*
M02*
