G04 #@! TF.GenerationSoftware,KiCad,Pcbnew,(5.1.5)-3*
G04 #@! TF.CreationDate,2020-04-29T23:57:10-07:00*
G04 #@! TF.ProjectId,DashSight-Mezzanine-Card,44617368-5369-4676-9874-2d4d657a7a61,rev?*
G04 #@! TF.SameCoordinates,Original*
G04 #@! TF.FileFunction,Paste,Top*
G04 #@! TF.FilePolarity,Positive*
%FSLAX46Y46*%
G04 Gerber Fmt 4.6, Leading zero omitted, Abs format (unit mm)*
G04 Created by KiCad (PCBNEW (5.1.5)-3) date 2020-04-29 23:57:10*
%MOMM*%
%LPD*%
G04 APERTURE LIST*
%ADD10C,0.100000*%
%ADD11R,0.230000X0.350000*%
%ADD12R,0.350000X0.230000*%
%ADD13R,1.998980X1.198880*%
%ADD14R,1.348740X0.599440*%
%ADD15R,0.800000X0.900000*%
%ADD16R,0.800000X1.800000*%
%ADD17R,0.900000X0.800000*%
%ADD18R,0.800000X0.750000*%
%ADD19R,4.000000X4.000000*%
%ADD20R,5.100000X1.800000*%
%ADD21R,2.500000X1.800000*%
%ADD22R,0.500000X0.900000*%
%ADD23R,0.600000X0.500000*%
%ADD24R,0.900000X0.500000*%
G04 APERTURE END LIST*
D10*
G36*
X138187691Y-75726053D02*
G01*
X138208926Y-75729203D01*
X138229750Y-75734419D01*
X138249962Y-75741651D01*
X138269368Y-75750830D01*
X138287781Y-75761866D01*
X138305024Y-75774654D01*
X138320930Y-75789070D01*
X138335346Y-75804976D01*
X138348134Y-75822219D01*
X138359170Y-75840632D01*
X138368349Y-75860038D01*
X138375581Y-75880250D01*
X138380797Y-75901074D01*
X138383947Y-75922309D01*
X138385000Y-75943750D01*
X138385000Y-76456250D01*
X138383947Y-76477691D01*
X138380797Y-76498926D01*
X138375581Y-76519750D01*
X138368349Y-76539962D01*
X138359170Y-76559368D01*
X138348134Y-76577781D01*
X138335346Y-76595024D01*
X138320930Y-76610930D01*
X138305024Y-76625346D01*
X138287781Y-76638134D01*
X138269368Y-76649170D01*
X138249962Y-76658349D01*
X138229750Y-76665581D01*
X138208926Y-76670797D01*
X138187691Y-76673947D01*
X138166250Y-76675000D01*
X137728750Y-76675000D01*
X137707309Y-76673947D01*
X137686074Y-76670797D01*
X137665250Y-76665581D01*
X137645038Y-76658349D01*
X137625632Y-76649170D01*
X137607219Y-76638134D01*
X137589976Y-76625346D01*
X137574070Y-76610930D01*
X137559654Y-76595024D01*
X137546866Y-76577781D01*
X137535830Y-76559368D01*
X137526651Y-76539962D01*
X137519419Y-76519750D01*
X137514203Y-76498926D01*
X137511053Y-76477691D01*
X137510000Y-76456250D01*
X137510000Y-75943750D01*
X137511053Y-75922309D01*
X137514203Y-75901074D01*
X137519419Y-75880250D01*
X137526651Y-75860038D01*
X137535830Y-75840632D01*
X137546866Y-75822219D01*
X137559654Y-75804976D01*
X137574070Y-75789070D01*
X137589976Y-75774654D01*
X137607219Y-75761866D01*
X137625632Y-75750830D01*
X137645038Y-75741651D01*
X137665250Y-75734419D01*
X137686074Y-75729203D01*
X137707309Y-75726053D01*
X137728750Y-75725000D01*
X138166250Y-75725000D01*
X138187691Y-75726053D01*
G37*
G36*
X136612691Y-75726053D02*
G01*
X136633926Y-75729203D01*
X136654750Y-75734419D01*
X136674962Y-75741651D01*
X136694368Y-75750830D01*
X136712781Y-75761866D01*
X136730024Y-75774654D01*
X136745930Y-75789070D01*
X136760346Y-75804976D01*
X136773134Y-75822219D01*
X136784170Y-75840632D01*
X136793349Y-75860038D01*
X136800581Y-75880250D01*
X136805797Y-75901074D01*
X136808947Y-75922309D01*
X136810000Y-75943750D01*
X136810000Y-76456250D01*
X136808947Y-76477691D01*
X136805797Y-76498926D01*
X136800581Y-76519750D01*
X136793349Y-76539962D01*
X136784170Y-76559368D01*
X136773134Y-76577781D01*
X136760346Y-76595024D01*
X136745930Y-76610930D01*
X136730024Y-76625346D01*
X136712781Y-76638134D01*
X136694368Y-76649170D01*
X136674962Y-76658349D01*
X136654750Y-76665581D01*
X136633926Y-76670797D01*
X136612691Y-76673947D01*
X136591250Y-76675000D01*
X136153750Y-76675000D01*
X136132309Y-76673947D01*
X136111074Y-76670797D01*
X136090250Y-76665581D01*
X136070038Y-76658349D01*
X136050632Y-76649170D01*
X136032219Y-76638134D01*
X136014976Y-76625346D01*
X135999070Y-76610930D01*
X135984654Y-76595024D01*
X135971866Y-76577781D01*
X135960830Y-76559368D01*
X135951651Y-76539962D01*
X135944419Y-76519750D01*
X135939203Y-76498926D01*
X135936053Y-76477691D01*
X135935000Y-76456250D01*
X135935000Y-75943750D01*
X135936053Y-75922309D01*
X135939203Y-75901074D01*
X135944419Y-75880250D01*
X135951651Y-75860038D01*
X135960830Y-75840632D01*
X135971866Y-75822219D01*
X135984654Y-75804976D01*
X135999070Y-75789070D01*
X136014976Y-75774654D01*
X136032219Y-75761866D01*
X136050632Y-75750830D01*
X136070038Y-75741651D01*
X136090250Y-75734419D01*
X136111074Y-75729203D01*
X136132309Y-75726053D01*
X136153750Y-75725000D01*
X136591250Y-75725000D01*
X136612691Y-75726053D01*
G37*
G36*
X151421703Y-115546722D02*
G01*
X151436264Y-115548882D01*
X151450543Y-115552459D01*
X151464403Y-115557418D01*
X151477710Y-115563712D01*
X151490336Y-115571280D01*
X151502159Y-115580048D01*
X151513066Y-115589934D01*
X151522952Y-115600841D01*
X151531720Y-115612664D01*
X151539288Y-115625290D01*
X151545582Y-115638597D01*
X151550541Y-115652457D01*
X151554118Y-115666736D01*
X151556278Y-115681297D01*
X151557000Y-115696000D01*
X151557000Y-117346000D01*
X151556278Y-117360703D01*
X151554118Y-117375264D01*
X151550541Y-117389543D01*
X151545582Y-117403403D01*
X151539288Y-117416710D01*
X151531720Y-117429336D01*
X151522952Y-117441159D01*
X151513066Y-117452066D01*
X151502159Y-117461952D01*
X151490336Y-117470720D01*
X151477710Y-117478288D01*
X151464403Y-117484582D01*
X151450543Y-117489541D01*
X151436264Y-117493118D01*
X151421703Y-117495278D01*
X151407000Y-117496000D01*
X151107000Y-117496000D01*
X151092297Y-117495278D01*
X151077736Y-117493118D01*
X151063457Y-117489541D01*
X151049597Y-117484582D01*
X151036290Y-117478288D01*
X151023664Y-117470720D01*
X151011841Y-117461952D01*
X151000934Y-117452066D01*
X150991048Y-117441159D01*
X150982280Y-117429336D01*
X150974712Y-117416710D01*
X150968418Y-117403403D01*
X150963459Y-117389543D01*
X150959882Y-117375264D01*
X150957722Y-117360703D01*
X150957000Y-117346000D01*
X150957000Y-115696000D01*
X150957722Y-115681297D01*
X150959882Y-115666736D01*
X150963459Y-115652457D01*
X150968418Y-115638597D01*
X150974712Y-115625290D01*
X150982280Y-115612664D01*
X150991048Y-115600841D01*
X151000934Y-115589934D01*
X151011841Y-115580048D01*
X151023664Y-115571280D01*
X151036290Y-115563712D01*
X151049597Y-115557418D01*
X151063457Y-115552459D01*
X151077736Y-115548882D01*
X151092297Y-115546722D01*
X151107000Y-115546000D01*
X151407000Y-115546000D01*
X151421703Y-115546722D01*
G37*
G36*
X150151703Y-115546722D02*
G01*
X150166264Y-115548882D01*
X150180543Y-115552459D01*
X150194403Y-115557418D01*
X150207710Y-115563712D01*
X150220336Y-115571280D01*
X150232159Y-115580048D01*
X150243066Y-115589934D01*
X150252952Y-115600841D01*
X150261720Y-115612664D01*
X150269288Y-115625290D01*
X150275582Y-115638597D01*
X150280541Y-115652457D01*
X150284118Y-115666736D01*
X150286278Y-115681297D01*
X150287000Y-115696000D01*
X150287000Y-117346000D01*
X150286278Y-117360703D01*
X150284118Y-117375264D01*
X150280541Y-117389543D01*
X150275582Y-117403403D01*
X150269288Y-117416710D01*
X150261720Y-117429336D01*
X150252952Y-117441159D01*
X150243066Y-117452066D01*
X150232159Y-117461952D01*
X150220336Y-117470720D01*
X150207710Y-117478288D01*
X150194403Y-117484582D01*
X150180543Y-117489541D01*
X150166264Y-117493118D01*
X150151703Y-117495278D01*
X150137000Y-117496000D01*
X149837000Y-117496000D01*
X149822297Y-117495278D01*
X149807736Y-117493118D01*
X149793457Y-117489541D01*
X149779597Y-117484582D01*
X149766290Y-117478288D01*
X149753664Y-117470720D01*
X149741841Y-117461952D01*
X149730934Y-117452066D01*
X149721048Y-117441159D01*
X149712280Y-117429336D01*
X149704712Y-117416710D01*
X149698418Y-117403403D01*
X149693459Y-117389543D01*
X149689882Y-117375264D01*
X149687722Y-117360703D01*
X149687000Y-117346000D01*
X149687000Y-115696000D01*
X149687722Y-115681297D01*
X149689882Y-115666736D01*
X149693459Y-115652457D01*
X149698418Y-115638597D01*
X149704712Y-115625290D01*
X149712280Y-115612664D01*
X149721048Y-115600841D01*
X149730934Y-115589934D01*
X149741841Y-115580048D01*
X149753664Y-115571280D01*
X149766290Y-115563712D01*
X149779597Y-115557418D01*
X149793457Y-115552459D01*
X149807736Y-115548882D01*
X149822297Y-115546722D01*
X149837000Y-115546000D01*
X150137000Y-115546000D01*
X150151703Y-115546722D01*
G37*
G36*
X148881703Y-115546722D02*
G01*
X148896264Y-115548882D01*
X148910543Y-115552459D01*
X148924403Y-115557418D01*
X148937710Y-115563712D01*
X148950336Y-115571280D01*
X148962159Y-115580048D01*
X148973066Y-115589934D01*
X148982952Y-115600841D01*
X148991720Y-115612664D01*
X148999288Y-115625290D01*
X149005582Y-115638597D01*
X149010541Y-115652457D01*
X149014118Y-115666736D01*
X149016278Y-115681297D01*
X149017000Y-115696000D01*
X149017000Y-117346000D01*
X149016278Y-117360703D01*
X149014118Y-117375264D01*
X149010541Y-117389543D01*
X149005582Y-117403403D01*
X148999288Y-117416710D01*
X148991720Y-117429336D01*
X148982952Y-117441159D01*
X148973066Y-117452066D01*
X148962159Y-117461952D01*
X148950336Y-117470720D01*
X148937710Y-117478288D01*
X148924403Y-117484582D01*
X148910543Y-117489541D01*
X148896264Y-117493118D01*
X148881703Y-117495278D01*
X148867000Y-117496000D01*
X148567000Y-117496000D01*
X148552297Y-117495278D01*
X148537736Y-117493118D01*
X148523457Y-117489541D01*
X148509597Y-117484582D01*
X148496290Y-117478288D01*
X148483664Y-117470720D01*
X148471841Y-117461952D01*
X148460934Y-117452066D01*
X148451048Y-117441159D01*
X148442280Y-117429336D01*
X148434712Y-117416710D01*
X148428418Y-117403403D01*
X148423459Y-117389543D01*
X148419882Y-117375264D01*
X148417722Y-117360703D01*
X148417000Y-117346000D01*
X148417000Y-115696000D01*
X148417722Y-115681297D01*
X148419882Y-115666736D01*
X148423459Y-115652457D01*
X148428418Y-115638597D01*
X148434712Y-115625290D01*
X148442280Y-115612664D01*
X148451048Y-115600841D01*
X148460934Y-115589934D01*
X148471841Y-115580048D01*
X148483664Y-115571280D01*
X148496290Y-115563712D01*
X148509597Y-115557418D01*
X148523457Y-115552459D01*
X148537736Y-115548882D01*
X148552297Y-115546722D01*
X148567000Y-115546000D01*
X148867000Y-115546000D01*
X148881703Y-115546722D01*
G37*
G36*
X147611703Y-115546722D02*
G01*
X147626264Y-115548882D01*
X147640543Y-115552459D01*
X147654403Y-115557418D01*
X147667710Y-115563712D01*
X147680336Y-115571280D01*
X147692159Y-115580048D01*
X147703066Y-115589934D01*
X147712952Y-115600841D01*
X147721720Y-115612664D01*
X147729288Y-115625290D01*
X147735582Y-115638597D01*
X147740541Y-115652457D01*
X147744118Y-115666736D01*
X147746278Y-115681297D01*
X147747000Y-115696000D01*
X147747000Y-117346000D01*
X147746278Y-117360703D01*
X147744118Y-117375264D01*
X147740541Y-117389543D01*
X147735582Y-117403403D01*
X147729288Y-117416710D01*
X147721720Y-117429336D01*
X147712952Y-117441159D01*
X147703066Y-117452066D01*
X147692159Y-117461952D01*
X147680336Y-117470720D01*
X147667710Y-117478288D01*
X147654403Y-117484582D01*
X147640543Y-117489541D01*
X147626264Y-117493118D01*
X147611703Y-117495278D01*
X147597000Y-117496000D01*
X147297000Y-117496000D01*
X147282297Y-117495278D01*
X147267736Y-117493118D01*
X147253457Y-117489541D01*
X147239597Y-117484582D01*
X147226290Y-117478288D01*
X147213664Y-117470720D01*
X147201841Y-117461952D01*
X147190934Y-117452066D01*
X147181048Y-117441159D01*
X147172280Y-117429336D01*
X147164712Y-117416710D01*
X147158418Y-117403403D01*
X147153459Y-117389543D01*
X147149882Y-117375264D01*
X147147722Y-117360703D01*
X147147000Y-117346000D01*
X147147000Y-115696000D01*
X147147722Y-115681297D01*
X147149882Y-115666736D01*
X147153459Y-115652457D01*
X147158418Y-115638597D01*
X147164712Y-115625290D01*
X147172280Y-115612664D01*
X147181048Y-115600841D01*
X147190934Y-115589934D01*
X147201841Y-115580048D01*
X147213664Y-115571280D01*
X147226290Y-115563712D01*
X147239597Y-115557418D01*
X147253457Y-115552459D01*
X147267736Y-115548882D01*
X147282297Y-115546722D01*
X147297000Y-115546000D01*
X147597000Y-115546000D01*
X147611703Y-115546722D01*
G37*
G36*
X147611703Y-110596722D02*
G01*
X147626264Y-110598882D01*
X147640543Y-110602459D01*
X147654403Y-110607418D01*
X147667710Y-110613712D01*
X147680336Y-110621280D01*
X147692159Y-110630048D01*
X147703066Y-110639934D01*
X147712952Y-110650841D01*
X147721720Y-110662664D01*
X147729288Y-110675290D01*
X147735582Y-110688597D01*
X147740541Y-110702457D01*
X147744118Y-110716736D01*
X147746278Y-110731297D01*
X147747000Y-110746000D01*
X147747000Y-112396000D01*
X147746278Y-112410703D01*
X147744118Y-112425264D01*
X147740541Y-112439543D01*
X147735582Y-112453403D01*
X147729288Y-112466710D01*
X147721720Y-112479336D01*
X147712952Y-112491159D01*
X147703066Y-112502066D01*
X147692159Y-112511952D01*
X147680336Y-112520720D01*
X147667710Y-112528288D01*
X147654403Y-112534582D01*
X147640543Y-112539541D01*
X147626264Y-112543118D01*
X147611703Y-112545278D01*
X147597000Y-112546000D01*
X147297000Y-112546000D01*
X147282297Y-112545278D01*
X147267736Y-112543118D01*
X147253457Y-112539541D01*
X147239597Y-112534582D01*
X147226290Y-112528288D01*
X147213664Y-112520720D01*
X147201841Y-112511952D01*
X147190934Y-112502066D01*
X147181048Y-112491159D01*
X147172280Y-112479336D01*
X147164712Y-112466710D01*
X147158418Y-112453403D01*
X147153459Y-112439543D01*
X147149882Y-112425264D01*
X147147722Y-112410703D01*
X147147000Y-112396000D01*
X147147000Y-110746000D01*
X147147722Y-110731297D01*
X147149882Y-110716736D01*
X147153459Y-110702457D01*
X147158418Y-110688597D01*
X147164712Y-110675290D01*
X147172280Y-110662664D01*
X147181048Y-110650841D01*
X147190934Y-110639934D01*
X147201841Y-110630048D01*
X147213664Y-110621280D01*
X147226290Y-110613712D01*
X147239597Y-110607418D01*
X147253457Y-110602459D01*
X147267736Y-110598882D01*
X147282297Y-110596722D01*
X147297000Y-110596000D01*
X147597000Y-110596000D01*
X147611703Y-110596722D01*
G37*
G36*
X148881703Y-110596722D02*
G01*
X148896264Y-110598882D01*
X148910543Y-110602459D01*
X148924403Y-110607418D01*
X148937710Y-110613712D01*
X148950336Y-110621280D01*
X148962159Y-110630048D01*
X148973066Y-110639934D01*
X148982952Y-110650841D01*
X148991720Y-110662664D01*
X148999288Y-110675290D01*
X149005582Y-110688597D01*
X149010541Y-110702457D01*
X149014118Y-110716736D01*
X149016278Y-110731297D01*
X149017000Y-110746000D01*
X149017000Y-112396000D01*
X149016278Y-112410703D01*
X149014118Y-112425264D01*
X149010541Y-112439543D01*
X149005582Y-112453403D01*
X148999288Y-112466710D01*
X148991720Y-112479336D01*
X148982952Y-112491159D01*
X148973066Y-112502066D01*
X148962159Y-112511952D01*
X148950336Y-112520720D01*
X148937710Y-112528288D01*
X148924403Y-112534582D01*
X148910543Y-112539541D01*
X148896264Y-112543118D01*
X148881703Y-112545278D01*
X148867000Y-112546000D01*
X148567000Y-112546000D01*
X148552297Y-112545278D01*
X148537736Y-112543118D01*
X148523457Y-112539541D01*
X148509597Y-112534582D01*
X148496290Y-112528288D01*
X148483664Y-112520720D01*
X148471841Y-112511952D01*
X148460934Y-112502066D01*
X148451048Y-112491159D01*
X148442280Y-112479336D01*
X148434712Y-112466710D01*
X148428418Y-112453403D01*
X148423459Y-112439543D01*
X148419882Y-112425264D01*
X148417722Y-112410703D01*
X148417000Y-112396000D01*
X148417000Y-110746000D01*
X148417722Y-110731297D01*
X148419882Y-110716736D01*
X148423459Y-110702457D01*
X148428418Y-110688597D01*
X148434712Y-110675290D01*
X148442280Y-110662664D01*
X148451048Y-110650841D01*
X148460934Y-110639934D01*
X148471841Y-110630048D01*
X148483664Y-110621280D01*
X148496290Y-110613712D01*
X148509597Y-110607418D01*
X148523457Y-110602459D01*
X148537736Y-110598882D01*
X148552297Y-110596722D01*
X148567000Y-110596000D01*
X148867000Y-110596000D01*
X148881703Y-110596722D01*
G37*
G36*
X150151703Y-110596722D02*
G01*
X150166264Y-110598882D01*
X150180543Y-110602459D01*
X150194403Y-110607418D01*
X150207710Y-110613712D01*
X150220336Y-110621280D01*
X150232159Y-110630048D01*
X150243066Y-110639934D01*
X150252952Y-110650841D01*
X150261720Y-110662664D01*
X150269288Y-110675290D01*
X150275582Y-110688597D01*
X150280541Y-110702457D01*
X150284118Y-110716736D01*
X150286278Y-110731297D01*
X150287000Y-110746000D01*
X150287000Y-112396000D01*
X150286278Y-112410703D01*
X150284118Y-112425264D01*
X150280541Y-112439543D01*
X150275582Y-112453403D01*
X150269288Y-112466710D01*
X150261720Y-112479336D01*
X150252952Y-112491159D01*
X150243066Y-112502066D01*
X150232159Y-112511952D01*
X150220336Y-112520720D01*
X150207710Y-112528288D01*
X150194403Y-112534582D01*
X150180543Y-112539541D01*
X150166264Y-112543118D01*
X150151703Y-112545278D01*
X150137000Y-112546000D01*
X149837000Y-112546000D01*
X149822297Y-112545278D01*
X149807736Y-112543118D01*
X149793457Y-112539541D01*
X149779597Y-112534582D01*
X149766290Y-112528288D01*
X149753664Y-112520720D01*
X149741841Y-112511952D01*
X149730934Y-112502066D01*
X149721048Y-112491159D01*
X149712280Y-112479336D01*
X149704712Y-112466710D01*
X149698418Y-112453403D01*
X149693459Y-112439543D01*
X149689882Y-112425264D01*
X149687722Y-112410703D01*
X149687000Y-112396000D01*
X149687000Y-110746000D01*
X149687722Y-110731297D01*
X149689882Y-110716736D01*
X149693459Y-110702457D01*
X149698418Y-110688597D01*
X149704712Y-110675290D01*
X149712280Y-110662664D01*
X149721048Y-110650841D01*
X149730934Y-110639934D01*
X149741841Y-110630048D01*
X149753664Y-110621280D01*
X149766290Y-110613712D01*
X149779597Y-110607418D01*
X149793457Y-110602459D01*
X149807736Y-110598882D01*
X149822297Y-110596722D01*
X149837000Y-110596000D01*
X150137000Y-110596000D01*
X150151703Y-110596722D01*
G37*
G36*
X151421703Y-110596722D02*
G01*
X151436264Y-110598882D01*
X151450543Y-110602459D01*
X151464403Y-110607418D01*
X151477710Y-110613712D01*
X151490336Y-110621280D01*
X151502159Y-110630048D01*
X151513066Y-110639934D01*
X151522952Y-110650841D01*
X151531720Y-110662664D01*
X151539288Y-110675290D01*
X151545582Y-110688597D01*
X151550541Y-110702457D01*
X151554118Y-110716736D01*
X151556278Y-110731297D01*
X151557000Y-110746000D01*
X151557000Y-112396000D01*
X151556278Y-112410703D01*
X151554118Y-112425264D01*
X151550541Y-112439543D01*
X151545582Y-112453403D01*
X151539288Y-112466710D01*
X151531720Y-112479336D01*
X151522952Y-112491159D01*
X151513066Y-112502066D01*
X151502159Y-112511952D01*
X151490336Y-112520720D01*
X151477710Y-112528288D01*
X151464403Y-112534582D01*
X151450543Y-112539541D01*
X151436264Y-112543118D01*
X151421703Y-112545278D01*
X151407000Y-112546000D01*
X151107000Y-112546000D01*
X151092297Y-112545278D01*
X151077736Y-112543118D01*
X151063457Y-112539541D01*
X151049597Y-112534582D01*
X151036290Y-112528288D01*
X151023664Y-112520720D01*
X151011841Y-112511952D01*
X151000934Y-112502066D01*
X150991048Y-112491159D01*
X150982280Y-112479336D01*
X150974712Y-112466710D01*
X150968418Y-112453403D01*
X150963459Y-112439543D01*
X150959882Y-112425264D01*
X150957722Y-112410703D01*
X150957000Y-112396000D01*
X150957000Y-110746000D01*
X150957722Y-110731297D01*
X150959882Y-110716736D01*
X150963459Y-110702457D01*
X150968418Y-110688597D01*
X150974712Y-110675290D01*
X150982280Y-110662664D01*
X150991048Y-110650841D01*
X151000934Y-110639934D01*
X151011841Y-110630048D01*
X151023664Y-110621280D01*
X151036290Y-110613712D01*
X151049597Y-110607418D01*
X151063457Y-110602459D01*
X151077736Y-110598882D01*
X151092297Y-110596722D01*
X151107000Y-110596000D01*
X151407000Y-110596000D01*
X151421703Y-110596722D01*
G37*
D11*
X179152600Y-71125800D03*
X178722600Y-71125800D03*
X178292600Y-71125800D03*
X177862600Y-71125800D03*
X177432600Y-71125800D03*
X177002600Y-71125800D03*
X176572600Y-71125800D03*
X176142600Y-71125800D03*
X179152600Y-68675800D03*
X178722600Y-68675800D03*
X178292600Y-68675800D03*
X177862600Y-68675800D03*
X177432600Y-68675800D03*
X177002600Y-68675800D03*
X176572600Y-68675800D03*
D12*
X179122600Y-70545800D03*
X176172600Y-70545800D03*
X179122600Y-70115800D03*
X176172600Y-70115800D03*
X179122600Y-69685800D03*
X176172600Y-69685800D03*
X179122600Y-69255800D03*
X176172600Y-69255800D03*
D11*
X176142600Y-68675800D03*
D13*
X198236840Y-77068680D03*
X198236840Y-71470520D03*
D14*
X194564000Y-72771000D03*
X194564000Y-73771760D03*
X194564000Y-74767440D03*
X194564000Y-75768200D03*
D13*
X198389240Y-68839080D03*
X198389240Y-63240920D03*
D14*
X194716400Y-64541400D03*
X194716400Y-65542160D03*
X194716400Y-66537840D03*
X194716400Y-67538600D03*
D13*
X198338440Y-60863480D03*
X198338440Y-55265320D03*
D14*
X194665600Y-56565800D03*
X194665600Y-57566560D03*
X194665600Y-58562240D03*
X194665600Y-59563000D03*
D10*
G36*
X174470891Y-73858453D02*
G01*
X174492126Y-73861603D01*
X174512950Y-73866819D01*
X174533162Y-73874051D01*
X174552568Y-73883230D01*
X174570981Y-73894266D01*
X174588224Y-73907054D01*
X174604130Y-73921470D01*
X174618546Y-73937376D01*
X174631334Y-73954619D01*
X174642370Y-73973032D01*
X174651549Y-73992438D01*
X174658781Y-74012650D01*
X174663997Y-74033474D01*
X174667147Y-74054709D01*
X174668200Y-74076150D01*
X174668200Y-74513650D01*
X174667147Y-74535091D01*
X174663997Y-74556326D01*
X174658781Y-74577150D01*
X174651549Y-74597362D01*
X174642370Y-74616768D01*
X174631334Y-74635181D01*
X174618546Y-74652424D01*
X174604130Y-74668330D01*
X174588224Y-74682746D01*
X174570981Y-74695534D01*
X174552568Y-74706570D01*
X174533162Y-74715749D01*
X174512950Y-74722981D01*
X174492126Y-74728197D01*
X174470891Y-74731347D01*
X174449450Y-74732400D01*
X173936950Y-74732400D01*
X173915509Y-74731347D01*
X173894274Y-74728197D01*
X173873450Y-74722981D01*
X173853238Y-74715749D01*
X173833832Y-74706570D01*
X173815419Y-74695534D01*
X173798176Y-74682746D01*
X173782270Y-74668330D01*
X173767854Y-74652424D01*
X173755066Y-74635181D01*
X173744030Y-74616768D01*
X173734851Y-74597362D01*
X173727619Y-74577150D01*
X173722403Y-74556326D01*
X173719253Y-74535091D01*
X173718200Y-74513650D01*
X173718200Y-74076150D01*
X173719253Y-74054709D01*
X173722403Y-74033474D01*
X173727619Y-74012650D01*
X173734851Y-73992438D01*
X173744030Y-73973032D01*
X173755066Y-73954619D01*
X173767854Y-73937376D01*
X173782270Y-73921470D01*
X173798176Y-73907054D01*
X173815419Y-73894266D01*
X173833832Y-73883230D01*
X173853238Y-73874051D01*
X173873450Y-73866819D01*
X173894274Y-73861603D01*
X173915509Y-73858453D01*
X173936950Y-73857400D01*
X174449450Y-73857400D01*
X174470891Y-73858453D01*
G37*
G36*
X174470891Y-75433453D02*
G01*
X174492126Y-75436603D01*
X174512950Y-75441819D01*
X174533162Y-75449051D01*
X174552568Y-75458230D01*
X174570981Y-75469266D01*
X174588224Y-75482054D01*
X174604130Y-75496470D01*
X174618546Y-75512376D01*
X174631334Y-75529619D01*
X174642370Y-75548032D01*
X174651549Y-75567438D01*
X174658781Y-75587650D01*
X174663997Y-75608474D01*
X174667147Y-75629709D01*
X174668200Y-75651150D01*
X174668200Y-76088650D01*
X174667147Y-76110091D01*
X174663997Y-76131326D01*
X174658781Y-76152150D01*
X174651549Y-76172362D01*
X174642370Y-76191768D01*
X174631334Y-76210181D01*
X174618546Y-76227424D01*
X174604130Y-76243330D01*
X174588224Y-76257746D01*
X174570981Y-76270534D01*
X174552568Y-76281570D01*
X174533162Y-76290749D01*
X174512950Y-76297981D01*
X174492126Y-76303197D01*
X174470891Y-76306347D01*
X174449450Y-76307400D01*
X173936950Y-76307400D01*
X173915509Y-76306347D01*
X173894274Y-76303197D01*
X173873450Y-76297981D01*
X173853238Y-76290749D01*
X173833832Y-76281570D01*
X173815419Y-76270534D01*
X173798176Y-76257746D01*
X173782270Y-76243330D01*
X173767854Y-76227424D01*
X173755066Y-76210181D01*
X173744030Y-76191768D01*
X173734851Y-76172362D01*
X173727619Y-76152150D01*
X173722403Y-76131326D01*
X173719253Y-76110091D01*
X173718200Y-76088650D01*
X173718200Y-75651150D01*
X173719253Y-75629709D01*
X173722403Y-75608474D01*
X173727619Y-75587650D01*
X173734851Y-75567438D01*
X173744030Y-75548032D01*
X173755066Y-75529619D01*
X173767854Y-75512376D01*
X173782270Y-75496470D01*
X173798176Y-75482054D01*
X173815419Y-75469266D01*
X173833832Y-75458230D01*
X173853238Y-75449051D01*
X173873450Y-75441819D01*
X173894274Y-75436603D01*
X173915509Y-75433453D01*
X173936950Y-75432400D01*
X174449450Y-75432400D01*
X174470891Y-75433453D01*
G37*
G36*
X177620491Y-73858453D02*
G01*
X177641726Y-73861603D01*
X177662550Y-73866819D01*
X177682762Y-73874051D01*
X177702168Y-73883230D01*
X177720581Y-73894266D01*
X177737824Y-73907054D01*
X177753730Y-73921470D01*
X177768146Y-73937376D01*
X177780934Y-73954619D01*
X177791970Y-73973032D01*
X177801149Y-73992438D01*
X177808381Y-74012650D01*
X177813597Y-74033474D01*
X177816747Y-74054709D01*
X177817800Y-74076150D01*
X177817800Y-74513650D01*
X177816747Y-74535091D01*
X177813597Y-74556326D01*
X177808381Y-74577150D01*
X177801149Y-74597362D01*
X177791970Y-74616768D01*
X177780934Y-74635181D01*
X177768146Y-74652424D01*
X177753730Y-74668330D01*
X177737824Y-74682746D01*
X177720581Y-74695534D01*
X177702168Y-74706570D01*
X177682762Y-74715749D01*
X177662550Y-74722981D01*
X177641726Y-74728197D01*
X177620491Y-74731347D01*
X177599050Y-74732400D01*
X177086550Y-74732400D01*
X177065109Y-74731347D01*
X177043874Y-74728197D01*
X177023050Y-74722981D01*
X177002838Y-74715749D01*
X176983432Y-74706570D01*
X176965019Y-74695534D01*
X176947776Y-74682746D01*
X176931870Y-74668330D01*
X176917454Y-74652424D01*
X176904666Y-74635181D01*
X176893630Y-74616768D01*
X176884451Y-74597362D01*
X176877219Y-74577150D01*
X176872003Y-74556326D01*
X176868853Y-74535091D01*
X176867800Y-74513650D01*
X176867800Y-74076150D01*
X176868853Y-74054709D01*
X176872003Y-74033474D01*
X176877219Y-74012650D01*
X176884451Y-73992438D01*
X176893630Y-73973032D01*
X176904666Y-73954619D01*
X176917454Y-73937376D01*
X176931870Y-73921470D01*
X176947776Y-73907054D01*
X176965019Y-73894266D01*
X176983432Y-73883230D01*
X177002838Y-73874051D01*
X177023050Y-73866819D01*
X177043874Y-73861603D01*
X177065109Y-73858453D01*
X177086550Y-73857400D01*
X177599050Y-73857400D01*
X177620491Y-73858453D01*
G37*
G36*
X177620491Y-75433453D02*
G01*
X177641726Y-75436603D01*
X177662550Y-75441819D01*
X177682762Y-75449051D01*
X177702168Y-75458230D01*
X177720581Y-75469266D01*
X177737824Y-75482054D01*
X177753730Y-75496470D01*
X177768146Y-75512376D01*
X177780934Y-75529619D01*
X177791970Y-75548032D01*
X177801149Y-75567438D01*
X177808381Y-75587650D01*
X177813597Y-75608474D01*
X177816747Y-75629709D01*
X177817800Y-75651150D01*
X177817800Y-76088650D01*
X177816747Y-76110091D01*
X177813597Y-76131326D01*
X177808381Y-76152150D01*
X177801149Y-76172362D01*
X177791970Y-76191768D01*
X177780934Y-76210181D01*
X177768146Y-76227424D01*
X177753730Y-76243330D01*
X177737824Y-76257746D01*
X177720581Y-76270534D01*
X177702168Y-76281570D01*
X177682762Y-76290749D01*
X177662550Y-76297981D01*
X177641726Y-76303197D01*
X177620491Y-76306347D01*
X177599050Y-76307400D01*
X177086550Y-76307400D01*
X177065109Y-76306347D01*
X177043874Y-76303197D01*
X177023050Y-76297981D01*
X177002838Y-76290749D01*
X176983432Y-76281570D01*
X176965019Y-76270534D01*
X176947776Y-76257746D01*
X176931870Y-76243330D01*
X176917454Y-76227424D01*
X176904666Y-76210181D01*
X176893630Y-76191768D01*
X176884451Y-76172362D01*
X176877219Y-76152150D01*
X176872003Y-76131326D01*
X176868853Y-76110091D01*
X176867800Y-76088650D01*
X176867800Y-75651150D01*
X176868853Y-75629709D01*
X176872003Y-75608474D01*
X176877219Y-75587650D01*
X176884451Y-75567438D01*
X176893630Y-75548032D01*
X176904666Y-75529619D01*
X176917454Y-75512376D01*
X176931870Y-75496470D01*
X176947776Y-75482054D01*
X176965019Y-75469266D01*
X176983432Y-75458230D01*
X177002838Y-75449051D01*
X177023050Y-75441819D01*
X177043874Y-75436603D01*
X177065109Y-75433453D01*
X177086550Y-75432400D01*
X177599050Y-75432400D01*
X177620491Y-75433453D01*
G37*
G36*
X176045691Y-73858453D02*
G01*
X176066926Y-73861603D01*
X176087750Y-73866819D01*
X176107962Y-73874051D01*
X176127368Y-73883230D01*
X176145781Y-73894266D01*
X176163024Y-73907054D01*
X176178930Y-73921470D01*
X176193346Y-73937376D01*
X176206134Y-73954619D01*
X176217170Y-73973032D01*
X176226349Y-73992438D01*
X176233581Y-74012650D01*
X176238797Y-74033474D01*
X176241947Y-74054709D01*
X176243000Y-74076150D01*
X176243000Y-74513650D01*
X176241947Y-74535091D01*
X176238797Y-74556326D01*
X176233581Y-74577150D01*
X176226349Y-74597362D01*
X176217170Y-74616768D01*
X176206134Y-74635181D01*
X176193346Y-74652424D01*
X176178930Y-74668330D01*
X176163024Y-74682746D01*
X176145781Y-74695534D01*
X176127368Y-74706570D01*
X176107962Y-74715749D01*
X176087750Y-74722981D01*
X176066926Y-74728197D01*
X176045691Y-74731347D01*
X176024250Y-74732400D01*
X175511750Y-74732400D01*
X175490309Y-74731347D01*
X175469074Y-74728197D01*
X175448250Y-74722981D01*
X175428038Y-74715749D01*
X175408632Y-74706570D01*
X175390219Y-74695534D01*
X175372976Y-74682746D01*
X175357070Y-74668330D01*
X175342654Y-74652424D01*
X175329866Y-74635181D01*
X175318830Y-74616768D01*
X175309651Y-74597362D01*
X175302419Y-74577150D01*
X175297203Y-74556326D01*
X175294053Y-74535091D01*
X175293000Y-74513650D01*
X175293000Y-74076150D01*
X175294053Y-74054709D01*
X175297203Y-74033474D01*
X175302419Y-74012650D01*
X175309651Y-73992438D01*
X175318830Y-73973032D01*
X175329866Y-73954619D01*
X175342654Y-73937376D01*
X175357070Y-73921470D01*
X175372976Y-73907054D01*
X175390219Y-73894266D01*
X175408632Y-73883230D01*
X175428038Y-73874051D01*
X175448250Y-73866819D01*
X175469074Y-73861603D01*
X175490309Y-73858453D01*
X175511750Y-73857400D01*
X176024250Y-73857400D01*
X176045691Y-73858453D01*
G37*
G36*
X176045691Y-75433453D02*
G01*
X176066926Y-75436603D01*
X176087750Y-75441819D01*
X176107962Y-75449051D01*
X176127368Y-75458230D01*
X176145781Y-75469266D01*
X176163024Y-75482054D01*
X176178930Y-75496470D01*
X176193346Y-75512376D01*
X176206134Y-75529619D01*
X176217170Y-75548032D01*
X176226349Y-75567438D01*
X176233581Y-75587650D01*
X176238797Y-75608474D01*
X176241947Y-75629709D01*
X176243000Y-75651150D01*
X176243000Y-76088650D01*
X176241947Y-76110091D01*
X176238797Y-76131326D01*
X176233581Y-76152150D01*
X176226349Y-76172362D01*
X176217170Y-76191768D01*
X176206134Y-76210181D01*
X176193346Y-76227424D01*
X176178930Y-76243330D01*
X176163024Y-76257746D01*
X176145781Y-76270534D01*
X176127368Y-76281570D01*
X176107962Y-76290749D01*
X176087750Y-76297981D01*
X176066926Y-76303197D01*
X176045691Y-76306347D01*
X176024250Y-76307400D01*
X175511750Y-76307400D01*
X175490309Y-76306347D01*
X175469074Y-76303197D01*
X175448250Y-76297981D01*
X175428038Y-76290749D01*
X175408632Y-76281570D01*
X175390219Y-76270534D01*
X175372976Y-76257746D01*
X175357070Y-76243330D01*
X175342654Y-76227424D01*
X175329866Y-76210181D01*
X175318830Y-76191768D01*
X175309651Y-76172362D01*
X175302419Y-76152150D01*
X175297203Y-76131326D01*
X175294053Y-76110091D01*
X175293000Y-76088650D01*
X175293000Y-75651150D01*
X175294053Y-75629709D01*
X175297203Y-75608474D01*
X175302419Y-75587650D01*
X175309651Y-75567438D01*
X175318830Y-75548032D01*
X175329866Y-75529619D01*
X175342654Y-75512376D01*
X175357070Y-75496470D01*
X175372976Y-75482054D01*
X175390219Y-75469266D01*
X175408632Y-75458230D01*
X175428038Y-75449051D01*
X175448250Y-75441819D01*
X175469074Y-75436603D01*
X175490309Y-75433453D01*
X175511750Y-75432400D01*
X176024250Y-75432400D01*
X176045691Y-75433453D01*
G37*
G36*
X172071291Y-70900053D02*
G01*
X172092526Y-70903203D01*
X172113350Y-70908419D01*
X172133562Y-70915651D01*
X172152968Y-70924830D01*
X172171381Y-70935866D01*
X172188624Y-70948654D01*
X172204530Y-70963070D01*
X172218946Y-70978976D01*
X172231734Y-70996219D01*
X172242770Y-71014632D01*
X172251949Y-71034038D01*
X172259181Y-71054250D01*
X172264397Y-71075074D01*
X172267547Y-71096309D01*
X172268600Y-71117750D01*
X172268600Y-71630250D01*
X172267547Y-71651691D01*
X172264397Y-71672926D01*
X172259181Y-71693750D01*
X172251949Y-71713962D01*
X172242770Y-71733368D01*
X172231734Y-71751781D01*
X172218946Y-71769024D01*
X172204530Y-71784930D01*
X172188624Y-71799346D01*
X172171381Y-71812134D01*
X172152968Y-71823170D01*
X172133562Y-71832349D01*
X172113350Y-71839581D01*
X172092526Y-71844797D01*
X172071291Y-71847947D01*
X172049850Y-71849000D01*
X171612350Y-71849000D01*
X171590909Y-71847947D01*
X171569674Y-71844797D01*
X171548850Y-71839581D01*
X171528638Y-71832349D01*
X171509232Y-71823170D01*
X171490819Y-71812134D01*
X171473576Y-71799346D01*
X171457670Y-71784930D01*
X171443254Y-71769024D01*
X171430466Y-71751781D01*
X171419430Y-71733368D01*
X171410251Y-71713962D01*
X171403019Y-71693750D01*
X171397803Y-71672926D01*
X171394653Y-71651691D01*
X171393600Y-71630250D01*
X171393600Y-71117750D01*
X171394653Y-71096309D01*
X171397803Y-71075074D01*
X171403019Y-71054250D01*
X171410251Y-71034038D01*
X171419430Y-71014632D01*
X171430466Y-70996219D01*
X171443254Y-70978976D01*
X171457670Y-70963070D01*
X171473576Y-70948654D01*
X171490819Y-70935866D01*
X171509232Y-70924830D01*
X171528638Y-70915651D01*
X171548850Y-70908419D01*
X171569674Y-70903203D01*
X171590909Y-70900053D01*
X171612350Y-70899000D01*
X172049850Y-70899000D01*
X172071291Y-70900053D01*
G37*
G36*
X170496291Y-70900053D02*
G01*
X170517526Y-70903203D01*
X170538350Y-70908419D01*
X170558562Y-70915651D01*
X170577968Y-70924830D01*
X170596381Y-70935866D01*
X170613624Y-70948654D01*
X170629530Y-70963070D01*
X170643946Y-70978976D01*
X170656734Y-70996219D01*
X170667770Y-71014632D01*
X170676949Y-71034038D01*
X170684181Y-71054250D01*
X170689397Y-71075074D01*
X170692547Y-71096309D01*
X170693600Y-71117750D01*
X170693600Y-71630250D01*
X170692547Y-71651691D01*
X170689397Y-71672926D01*
X170684181Y-71693750D01*
X170676949Y-71713962D01*
X170667770Y-71733368D01*
X170656734Y-71751781D01*
X170643946Y-71769024D01*
X170629530Y-71784930D01*
X170613624Y-71799346D01*
X170596381Y-71812134D01*
X170577968Y-71823170D01*
X170558562Y-71832349D01*
X170538350Y-71839581D01*
X170517526Y-71844797D01*
X170496291Y-71847947D01*
X170474850Y-71849000D01*
X170037350Y-71849000D01*
X170015909Y-71847947D01*
X169994674Y-71844797D01*
X169973850Y-71839581D01*
X169953638Y-71832349D01*
X169934232Y-71823170D01*
X169915819Y-71812134D01*
X169898576Y-71799346D01*
X169882670Y-71784930D01*
X169868254Y-71769024D01*
X169855466Y-71751781D01*
X169844430Y-71733368D01*
X169835251Y-71713962D01*
X169828019Y-71693750D01*
X169822803Y-71672926D01*
X169819653Y-71651691D01*
X169818600Y-71630250D01*
X169818600Y-71117750D01*
X169819653Y-71096309D01*
X169822803Y-71075074D01*
X169828019Y-71054250D01*
X169835251Y-71034038D01*
X169844430Y-71014632D01*
X169855466Y-70996219D01*
X169868254Y-70978976D01*
X169882670Y-70963070D01*
X169898576Y-70948654D01*
X169915819Y-70935866D01*
X169934232Y-70924830D01*
X169953638Y-70915651D01*
X169973850Y-70908419D01*
X169994674Y-70903203D01*
X170015909Y-70900053D01*
X170037350Y-70899000D01*
X170474850Y-70899000D01*
X170496291Y-70900053D01*
G37*
G36*
X171080691Y-89035653D02*
G01*
X171101926Y-89038803D01*
X171122750Y-89044019D01*
X171142962Y-89051251D01*
X171162368Y-89060430D01*
X171180781Y-89071466D01*
X171198024Y-89084254D01*
X171213930Y-89098670D01*
X171228346Y-89114576D01*
X171241134Y-89131819D01*
X171252170Y-89150232D01*
X171261349Y-89169638D01*
X171268581Y-89189850D01*
X171273797Y-89210674D01*
X171276947Y-89231909D01*
X171278000Y-89253350D01*
X171278000Y-89765850D01*
X171276947Y-89787291D01*
X171273797Y-89808526D01*
X171268581Y-89829350D01*
X171261349Y-89849562D01*
X171252170Y-89868968D01*
X171241134Y-89887381D01*
X171228346Y-89904624D01*
X171213930Y-89920530D01*
X171198024Y-89934946D01*
X171180781Y-89947734D01*
X171162368Y-89958770D01*
X171142962Y-89967949D01*
X171122750Y-89975181D01*
X171101926Y-89980397D01*
X171080691Y-89983547D01*
X171059250Y-89984600D01*
X170621750Y-89984600D01*
X170600309Y-89983547D01*
X170579074Y-89980397D01*
X170558250Y-89975181D01*
X170538038Y-89967949D01*
X170518632Y-89958770D01*
X170500219Y-89947734D01*
X170482976Y-89934946D01*
X170467070Y-89920530D01*
X170452654Y-89904624D01*
X170439866Y-89887381D01*
X170428830Y-89868968D01*
X170419651Y-89849562D01*
X170412419Y-89829350D01*
X170407203Y-89808526D01*
X170404053Y-89787291D01*
X170403000Y-89765850D01*
X170403000Y-89253350D01*
X170404053Y-89231909D01*
X170407203Y-89210674D01*
X170412419Y-89189850D01*
X170419651Y-89169638D01*
X170428830Y-89150232D01*
X170439866Y-89131819D01*
X170452654Y-89114576D01*
X170467070Y-89098670D01*
X170482976Y-89084254D01*
X170500219Y-89071466D01*
X170518632Y-89060430D01*
X170538038Y-89051251D01*
X170558250Y-89044019D01*
X170579074Y-89038803D01*
X170600309Y-89035653D01*
X170621750Y-89034600D01*
X171059250Y-89034600D01*
X171080691Y-89035653D01*
G37*
G36*
X169505691Y-89035653D02*
G01*
X169526926Y-89038803D01*
X169547750Y-89044019D01*
X169567962Y-89051251D01*
X169587368Y-89060430D01*
X169605781Y-89071466D01*
X169623024Y-89084254D01*
X169638930Y-89098670D01*
X169653346Y-89114576D01*
X169666134Y-89131819D01*
X169677170Y-89150232D01*
X169686349Y-89169638D01*
X169693581Y-89189850D01*
X169698797Y-89210674D01*
X169701947Y-89231909D01*
X169703000Y-89253350D01*
X169703000Y-89765850D01*
X169701947Y-89787291D01*
X169698797Y-89808526D01*
X169693581Y-89829350D01*
X169686349Y-89849562D01*
X169677170Y-89868968D01*
X169666134Y-89887381D01*
X169653346Y-89904624D01*
X169638930Y-89920530D01*
X169623024Y-89934946D01*
X169605781Y-89947734D01*
X169587368Y-89958770D01*
X169567962Y-89967949D01*
X169547750Y-89975181D01*
X169526926Y-89980397D01*
X169505691Y-89983547D01*
X169484250Y-89984600D01*
X169046750Y-89984600D01*
X169025309Y-89983547D01*
X169004074Y-89980397D01*
X168983250Y-89975181D01*
X168963038Y-89967949D01*
X168943632Y-89958770D01*
X168925219Y-89947734D01*
X168907976Y-89934946D01*
X168892070Y-89920530D01*
X168877654Y-89904624D01*
X168864866Y-89887381D01*
X168853830Y-89868968D01*
X168844651Y-89849562D01*
X168837419Y-89829350D01*
X168832203Y-89808526D01*
X168829053Y-89787291D01*
X168828000Y-89765850D01*
X168828000Y-89253350D01*
X168829053Y-89231909D01*
X168832203Y-89210674D01*
X168837419Y-89189850D01*
X168844651Y-89169638D01*
X168853830Y-89150232D01*
X168864866Y-89131819D01*
X168877654Y-89114576D01*
X168892070Y-89098670D01*
X168907976Y-89084254D01*
X168925219Y-89071466D01*
X168943632Y-89060430D01*
X168963038Y-89051251D01*
X168983250Y-89044019D01*
X169004074Y-89038803D01*
X169025309Y-89035653D01*
X169046750Y-89034600D01*
X169484250Y-89034600D01*
X169505691Y-89035653D01*
G37*
G36*
X174022558Y-67143110D02*
G01*
X174036876Y-67145234D01*
X174050917Y-67148751D01*
X174064546Y-67153628D01*
X174077631Y-67159817D01*
X174090047Y-67167258D01*
X174101673Y-67175881D01*
X174112398Y-67185602D01*
X174122119Y-67196327D01*
X174130742Y-67207953D01*
X174138183Y-67220369D01*
X174144372Y-67233454D01*
X174149249Y-67247083D01*
X174152766Y-67261124D01*
X174154890Y-67275442D01*
X174155600Y-67289900D01*
X174155600Y-67634900D01*
X174154890Y-67649358D01*
X174152766Y-67663676D01*
X174149249Y-67677717D01*
X174144372Y-67691346D01*
X174138183Y-67704431D01*
X174130742Y-67716847D01*
X174122119Y-67728473D01*
X174112398Y-67739198D01*
X174101673Y-67748919D01*
X174090047Y-67757542D01*
X174077631Y-67764983D01*
X174064546Y-67771172D01*
X174050917Y-67776049D01*
X174036876Y-67779566D01*
X174022558Y-67781690D01*
X174008100Y-67782400D01*
X173713100Y-67782400D01*
X173698642Y-67781690D01*
X173684324Y-67779566D01*
X173670283Y-67776049D01*
X173656654Y-67771172D01*
X173643569Y-67764983D01*
X173631153Y-67757542D01*
X173619527Y-67748919D01*
X173608802Y-67739198D01*
X173599081Y-67728473D01*
X173590458Y-67716847D01*
X173583017Y-67704431D01*
X173576828Y-67691346D01*
X173571951Y-67677717D01*
X173568434Y-67663676D01*
X173566310Y-67649358D01*
X173565600Y-67634900D01*
X173565600Y-67289900D01*
X173566310Y-67275442D01*
X173568434Y-67261124D01*
X173571951Y-67247083D01*
X173576828Y-67233454D01*
X173583017Y-67220369D01*
X173590458Y-67207953D01*
X173599081Y-67196327D01*
X173608802Y-67185602D01*
X173619527Y-67175881D01*
X173631153Y-67167258D01*
X173643569Y-67159817D01*
X173656654Y-67153628D01*
X173670283Y-67148751D01*
X173684324Y-67145234D01*
X173698642Y-67143110D01*
X173713100Y-67142400D01*
X174008100Y-67142400D01*
X174022558Y-67143110D01*
G37*
G36*
X174992558Y-67143110D02*
G01*
X175006876Y-67145234D01*
X175020917Y-67148751D01*
X175034546Y-67153628D01*
X175047631Y-67159817D01*
X175060047Y-67167258D01*
X175071673Y-67175881D01*
X175082398Y-67185602D01*
X175092119Y-67196327D01*
X175100742Y-67207953D01*
X175108183Y-67220369D01*
X175114372Y-67233454D01*
X175119249Y-67247083D01*
X175122766Y-67261124D01*
X175124890Y-67275442D01*
X175125600Y-67289900D01*
X175125600Y-67634900D01*
X175124890Y-67649358D01*
X175122766Y-67663676D01*
X175119249Y-67677717D01*
X175114372Y-67691346D01*
X175108183Y-67704431D01*
X175100742Y-67716847D01*
X175092119Y-67728473D01*
X175082398Y-67739198D01*
X175071673Y-67748919D01*
X175060047Y-67757542D01*
X175047631Y-67764983D01*
X175034546Y-67771172D01*
X175020917Y-67776049D01*
X175006876Y-67779566D01*
X174992558Y-67781690D01*
X174978100Y-67782400D01*
X174683100Y-67782400D01*
X174668642Y-67781690D01*
X174654324Y-67779566D01*
X174640283Y-67776049D01*
X174626654Y-67771172D01*
X174613569Y-67764983D01*
X174601153Y-67757542D01*
X174589527Y-67748919D01*
X174578802Y-67739198D01*
X174569081Y-67728473D01*
X174560458Y-67716847D01*
X174553017Y-67704431D01*
X174546828Y-67691346D01*
X174541951Y-67677717D01*
X174538434Y-67663676D01*
X174536310Y-67649358D01*
X174535600Y-67634900D01*
X174535600Y-67289900D01*
X174536310Y-67275442D01*
X174538434Y-67261124D01*
X174541951Y-67247083D01*
X174546828Y-67233454D01*
X174553017Y-67220369D01*
X174560458Y-67207953D01*
X174569081Y-67196327D01*
X174578802Y-67185602D01*
X174589527Y-67175881D01*
X174601153Y-67167258D01*
X174613569Y-67159817D01*
X174626654Y-67153628D01*
X174640283Y-67148751D01*
X174654324Y-67145234D01*
X174668642Y-67143110D01*
X174683100Y-67142400D01*
X174978100Y-67142400D01*
X174992558Y-67143110D01*
G37*
G36*
X177529758Y-65362310D02*
G01*
X177544076Y-65364434D01*
X177558117Y-65367951D01*
X177571746Y-65372828D01*
X177584831Y-65379017D01*
X177597247Y-65386458D01*
X177608873Y-65395081D01*
X177619598Y-65404802D01*
X177629319Y-65415527D01*
X177637942Y-65427153D01*
X177645383Y-65439569D01*
X177651572Y-65452654D01*
X177656449Y-65466283D01*
X177659966Y-65480324D01*
X177662090Y-65494642D01*
X177662800Y-65509100D01*
X177662800Y-65804100D01*
X177662090Y-65818558D01*
X177659966Y-65832876D01*
X177656449Y-65846917D01*
X177651572Y-65860546D01*
X177645383Y-65873631D01*
X177637942Y-65886047D01*
X177629319Y-65897673D01*
X177619598Y-65908398D01*
X177608873Y-65918119D01*
X177597247Y-65926742D01*
X177584831Y-65934183D01*
X177571746Y-65940372D01*
X177558117Y-65945249D01*
X177544076Y-65948766D01*
X177529758Y-65950890D01*
X177515300Y-65951600D01*
X177170300Y-65951600D01*
X177155842Y-65950890D01*
X177141524Y-65948766D01*
X177127483Y-65945249D01*
X177113854Y-65940372D01*
X177100769Y-65934183D01*
X177088353Y-65926742D01*
X177076727Y-65918119D01*
X177066002Y-65908398D01*
X177056281Y-65897673D01*
X177047658Y-65886047D01*
X177040217Y-65873631D01*
X177034028Y-65860546D01*
X177029151Y-65846917D01*
X177025634Y-65832876D01*
X177023510Y-65818558D01*
X177022800Y-65804100D01*
X177022800Y-65509100D01*
X177023510Y-65494642D01*
X177025634Y-65480324D01*
X177029151Y-65466283D01*
X177034028Y-65452654D01*
X177040217Y-65439569D01*
X177047658Y-65427153D01*
X177056281Y-65415527D01*
X177066002Y-65404802D01*
X177076727Y-65395081D01*
X177088353Y-65386458D01*
X177100769Y-65379017D01*
X177113854Y-65372828D01*
X177127483Y-65367951D01*
X177141524Y-65364434D01*
X177155842Y-65362310D01*
X177170300Y-65361600D01*
X177515300Y-65361600D01*
X177529758Y-65362310D01*
G37*
G36*
X177529758Y-66332310D02*
G01*
X177544076Y-66334434D01*
X177558117Y-66337951D01*
X177571746Y-66342828D01*
X177584831Y-66349017D01*
X177597247Y-66356458D01*
X177608873Y-66365081D01*
X177619598Y-66374802D01*
X177629319Y-66385527D01*
X177637942Y-66397153D01*
X177645383Y-66409569D01*
X177651572Y-66422654D01*
X177656449Y-66436283D01*
X177659966Y-66450324D01*
X177662090Y-66464642D01*
X177662800Y-66479100D01*
X177662800Y-66774100D01*
X177662090Y-66788558D01*
X177659966Y-66802876D01*
X177656449Y-66816917D01*
X177651572Y-66830546D01*
X177645383Y-66843631D01*
X177637942Y-66856047D01*
X177629319Y-66867673D01*
X177619598Y-66878398D01*
X177608873Y-66888119D01*
X177597247Y-66896742D01*
X177584831Y-66904183D01*
X177571746Y-66910372D01*
X177558117Y-66915249D01*
X177544076Y-66918766D01*
X177529758Y-66920890D01*
X177515300Y-66921600D01*
X177170300Y-66921600D01*
X177155842Y-66920890D01*
X177141524Y-66918766D01*
X177127483Y-66915249D01*
X177113854Y-66910372D01*
X177100769Y-66904183D01*
X177088353Y-66896742D01*
X177076727Y-66888119D01*
X177066002Y-66878398D01*
X177056281Y-66867673D01*
X177047658Y-66856047D01*
X177040217Y-66843631D01*
X177034028Y-66830546D01*
X177029151Y-66816917D01*
X177025634Y-66802876D01*
X177023510Y-66788558D01*
X177022800Y-66774100D01*
X177022800Y-66479100D01*
X177023510Y-66464642D01*
X177025634Y-66450324D01*
X177029151Y-66436283D01*
X177034028Y-66422654D01*
X177040217Y-66409569D01*
X177047658Y-66397153D01*
X177056281Y-66385527D01*
X177066002Y-66374802D01*
X177076727Y-66365081D01*
X177088353Y-66356458D01*
X177100769Y-66349017D01*
X177113854Y-66342828D01*
X177127483Y-66337951D01*
X177141524Y-66334434D01*
X177155842Y-66332310D01*
X177170300Y-66331600D01*
X177515300Y-66331600D01*
X177529758Y-66332310D01*
G37*
G36*
X176462958Y-66124310D02*
G01*
X176477276Y-66126434D01*
X176491317Y-66129951D01*
X176504946Y-66134828D01*
X176518031Y-66141017D01*
X176530447Y-66148458D01*
X176542073Y-66157081D01*
X176552798Y-66166802D01*
X176562519Y-66177527D01*
X176571142Y-66189153D01*
X176578583Y-66201569D01*
X176584772Y-66214654D01*
X176589649Y-66228283D01*
X176593166Y-66242324D01*
X176595290Y-66256642D01*
X176596000Y-66271100D01*
X176596000Y-66566100D01*
X176595290Y-66580558D01*
X176593166Y-66594876D01*
X176589649Y-66608917D01*
X176584772Y-66622546D01*
X176578583Y-66635631D01*
X176571142Y-66648047D01*
X176562519Y-66659673D01*
X176552798Y-66670398D01*
X176542073Y-66680119D01*
X176530447Y-66688742D01*
X176518031Y-66696183D01*
X176504946Y-66702372D01*
X176491317Y-66707249D01*
X176477276Y-66710766D01*
X176462958Y-66712890D01*
X176448500Y-66713600D01*
X176103500Y-66713600D01*
X176089042Y-66712890D01*
X176074724Y-66710766D01*
X176060683Y-66707249D01*
X176047054Y-66702372D01*
X176033969Y-66696183D01*
X176021553Y-66688742D01*
X176009927Y-66680119D01*
X175999202Y-66670398D01*
X175989481Y-66659673D01*
X175980858Y-66648047D01*
X175973417Y-66635631D01*
X175967228Y-66622546D01*
X175962351Y-66608917D01*
X175958834Y-66594876D01*
X175956710Y-66580558D01*
X175956000Y-66566100D01*
X175956000Y-66271100D01*
X175956710Y-66256642D01*
X175958834Y-66242324D01*
X175962351Y-66228283D01*
X175967228Y-66214654D01*
X175973417Y-66201569D01*
X175980858Y-66189153D01*
X175989481Y-66177527D01*
X175999202Y-66166802D01*
X176009927Y-66157081D01*
X176021553Y-66148458D01*
X176033969Y-66141017D01*
X176047054Y-66134828D01*
X176060683Y-66129951D01*
X176074724Y-66126434D01*
X176089042Y-66124310D01*
X176103500Y-66123600D01*
X176448500Y-66123600D01*
X176462958Y-66124310D01*
G37*
G36*
X176462958Y-67094310D02*
G01*
X176477276Y-67096434D01*
X176491317Y-67099951D01*
X176504946Y-67104828D01*
X176518031Y-67111017D01*
X176530447Y-67118458D01*
X176542073Y-67127081D01*
X176552798Y-67136802D01*
X176562519Y-67147527D01*
X176571142Y-67159153D01*
X176578583Y-67171569D01*
X176584772Y-67184654D01*
X176589649Y-67198283D01*
X176593166Y-67212324D01*
X176595290Y-67226642D01*
X176596000Y-67241100D01*
X176596000Y-67536100D01*
X176595290Y-67550558D01*
X176593166Y-67564876D01*
X176589649Y-67578917D01*
X176584772Y-67592546D01*
X176578583Y-67605631D01*
X176571142Y-67618047D01*
X176562519Y-67629673D01*
X176552798Y-67640398D01*
X176542073Y-67650119D01*
X176530447Y-67658742D01*
X176518031Y-67666183D01*
X176504946Y-67672372D01*
X176491317Y-67677249D01*
X176477276Y-67680766D01*
X176462958Y-67682890D01*
X176448500Y-67683600D01*
X176103500Y-67683600D01*
X176089042Y-67682890D01*
X176074724Y-67680766D01*
X176060683Y-67677249D01*
X176047054Y-67672372D01*
X176033969Y-67666183D01*
X176021553Y-67658742D01*
X176009927Y-67650119D01*
X175999202Y-67640398D01*
X175989481Y-67629673D01*
X175980858Y-67618047D01*
X175973417Y-67605631D01*
X175967228Y-67592546D01*
X175962351Y-67578917D01*
X175958834Y-67564876D01*
X175956710Y-67550558D01*
X175956000Y-67536100D01*
X175956000Y-67241100D01*
X175956710Y-67226642D01*
X175958834Y-67212324D01*
X175962351Y-67198283D01*
X175967228Y-67184654D01*
X175973417Y-67171569D01*
X175980858Y-67159153D01*
X175989481Y-67147527D01*
X175999202Y-67136802D01*
X176009927Y-67127081D01*
X176021553Y-67118458D01*
X176033969Y-67111017D01*
X176047054Y-67104828D01*
X176060683Y-67099951D01*
X176074724Y-67096434D01*
X176089042Y-67094310D01*
X176103500Y-67093600D01*
X176448500Y-67093600D01*
X176462958Y-67094310D01*
G37*
G36*
X178748958Y-66022710D02*
G01*
X178763276Y-66024834D01*
X178777317Y-66028351D01*
X178790946Y-66033228D01*
X178804031Y-66039417D01*
X178816447Y-66046858D01*
X178828073Y-66055481D01*
X178838798Y-66065202D01*
X178848519Y-66075927D01*
X178857142Y-66087553D01*
X178864583Y-66099969D01*
X178870772Y-66113054D01*
X178875649Y-66126683D01*
X178879166Y-66140724D01*
X178881290Y-66155042D01*
X178882000Y-66169500D01*
X178882000Y-66464500D01*
X178881290Y-66478958D01*
X178879166Y-66493276D01*
X178875649Y-66507317D01*
X178870772Y-66520946D01*
X178864583Y-66534031D01*
X178857142Y-66546447D01*
X178848519Y-66558073D01*
X178838798Y-66568798D01*
X178828073Y-66578519D01*
X178816447Y-66587142D01*
X178804031Y-66594583D01*
X178790946Y-66600772D01*
X178777317Y-66605649D01*
X178763276Y-66609166D01*
X178748958Y-66611290D01*
X178734500Y-66612000D01*
X178389500Y-66612000D01*
X178375042Y-66611290D01*
X178360724Y-66609166D01*
X178346683Y-66605649D01*
X178333054Y-66600772D01*
X178319969Y-66594583D01*
X178307553Y-66587142D01*
X178295927Y-66578519D01*
X178285202Y-66568798D01*
X178275481Y-66558073D01*
X178266858Y-66546447D01*
X178259417Y-66534031D01*
X178253228Y-66520946D01*
X178248351Y-66507317D01*
X178244834Y-66493276D01*
X178242710Y-66478958D01*
X178242000Y-66464500D01*
X178242000Y-66169500D01*
X178242710Y-66155042D01*
X178244834Y-66140724D01*
X178248351Y-66126683D01*
X178253228Y-66113054D01*
X178259417Y-66099969D01*
X178266858Y-66087553D01*
X178275481Y-66075927D01*
X178285202Y-66065202D01*
X178295927Y-66055481D01*
X178307553Y-66046858D01*
X178319969Y-66039417D01*
X178333054Y-66033228D01*
X178346683Y-66028351D01*
X178360724Y-66024834D01*
X178375042Y-66022710D01*
X178389500Y-66022000D01*
X178734500Y-66022000D01*
X178748958Y-66022710D01*
G37*
G36*
X178748958Y-66992710D02*
G01*
X178763276Y-66994834D01*
X178777317Y-66998351D01*
X178790946Y-67003228D01*
X178804031Y-67009417D01*
X178816447Y-67016858D01*
X178828073Y-67025481D01*
X178838798Y-67035202D01*
X178848519Y-67045927D01*
X178857142Y-67057553D01*
X178864583Y-67069969D01*
X178870772Y-67083054D01*
X178875649Y-67096683D01*
X178879166Y-67110724D01*
X178881290Y-67125042D01*
X178882000Y-67139500D01*
X178882000Y-67434500D01*
X178881290Y-67448958D01*
X178879166Y-67463276D01*
X178875649Y-67477317D01*
X178870772Y-67490946D01*
X178864583Y-67504031D01*
X178857142Y-67516447D01*
X178848519Y-67528073D01*
X178838798Y-67538798D01*
X178828073Y-67548519D01*
X178816447Y-67557142D01*
X178804031Y-67564583D01*
X178790946Y-67570772D01*
X178777317Y-67575649D01*
X178763276Y-67579166D01*
X178748958Y-67581290D01*
X178734500Y-67582000D01*
X178389500Y-67582000D01*
X178375042Y-67581290D01*
X178360724Y-67579166D01*
X178346683Y-67575649D01*
X178333054Y-67570772D01*
X178319969Y-67564583D01*
X178307553Y-67557142D01*
X178295927Y-67548519D01*
X178285202Y-67538798D01*
X178275481Y-67528073D01*
X178266858Y-67516447D01*
X178259417Y-67504031D01*
X178253228Y-67490946D01*
X178248351Y-67477317D01*
X178244834Y-67463276D01*
X178242710Y-67448958D01*
X178242000Y-67434500D01*
X178242000Y-67139500D01*
X178242710Y-67125042D01*
X178244834Y-67110724D01*
X178248351Y-67096683D01*
X178253228Y-67083054D01*
X178259417Y-67069969D01*
X178266858Y-67057553D01*
X178275481Y-67045927D01*
X178285202Y-67035202D01*
X178295927Y-67025481D01*
X178307553Y-67016858D01*
X178319969Y-67009417D01*
X178333054Y-67003228D01*
X178346683Y-66998351D01*
X178360724Y-66994834D01*
X178375042Y-66992710D01*
X178389500Y-66992000D01*
X178734500Y-66992000D01*
X178748958Y-66992710D01*
G37*
D15*
X177609500Y-88154000D03*
X178559500Y-90154000D03*
X176659500Y-90154000D03*
D10*
G36*
X188987958Y-112710710D02*
G01*
X189002276Y-112712834D01*
X189016317Y-112716351D01*
X189029946Y-112721228D01*
X189043031Y-112727417D01*
X189055447Y-112734858D01*
X189067073Y-112743481D01*
X189077798Y-112753202D01*
X189087519Y-112763927D01*
X189096142Y-112775553D01*
X189103583Y-112787969D01*
X189109772Y-112801054D01*
X189114649Y-112814683D01*
X189118166Y-112828724D01*
X189120290Y-112843042D01*
X189121000Y-112857500D01*
X189121000Y-113202500D01*
X189120290Y-113216958D01*
X189118166Y-113231276D01*
X189114649Y-113245317D01*
X189109772Y-113258946D01*
X189103583Y-113272031D01*
X189096142Y-113284447D01*
X189087519Y-113296073D01*
X189077798Y-113306798D01*
X189067073Y-113316519D01*
X189055447Y-113325142D01*
X189043031Y-113332583D01*
X189029946Y-113338772D01*
X189016317Y-113343649D01*
X189002276Y-113347166D01*
X188987958Y-113349290D01*
X188973500Y-113350000D01*
X188678500Y-113350000D01*
X188664042Y-113349290D01*
X188649724Y-113347166D01*
X188635683Y-113343649D01*
X188622054Y-113338772D01*
X188608969Y-113332583D01*
X188596553Y-113325142D01*
X188584927Y-113316519D01*
X188574202Y-113306798D01*
X188564481Y-113296073D01*
X188555858Y-113284447D01*
X188548417Y-113272031D01*
X188542228Y-113258946D01*
X188537351Y-113245317D01*
X188533834Y-113231276D01*
X188531710Y-113216958D01*
X188531000Y-113202500D01*
X188531000Y-112857500D01*
X188531710Y-112843042D01*
X188533834Y-112828724D01*
X188537351Y-112814683D01*
X188542228Y-112801054D01*
X188548417Y-112787969D01*
X188555858Y-112775553D01*
X188564481Y-112763927D01*
X188574202Y-112753202D01*
X188584927Y-112743481D01*
X188596553Y-112734858D01*
X188608969Y-112727417D01*
X188622054Y-112721228D01*
X188635683Y-112716351D01*
X188649724Y-112712834D01*
X188664042Y-112710710D01*
X188678500Y-112710000D01*
X188973500Y-112710000D01*
X188987958Y-112710710D01*
G37*
G36*
X188017958Y-112710710D02*
G01*
X188032276Y-112712834D01*
X188046317Y-112716351D01*
X188059946Y-112721228D01*
X188073031Y-112727417D01*
X188085447Y-112734858D01*
X188097073Y-112743481D01*
X188107798Y-112753202D01*
X188117519Y-112763927D01*
X188126142Y-112775553D01*
X188133583Y-112787969D01*
X188139772Y-112801054D01*
X188144649Y-112814683D01*
X188148166Y-112828724D01*
X188150290Y-112843042D01*
X188151000Y-112857500D01*
X188151000Y-113202500D01*
X188150290Y-113216958D01*
X188148166Y-113231276D01*
X188144649Y-113245317D01*
X188139772Y-113258946D01*
X188133583Y-113272031D01*
X188126142Y-113284447D01*
X188117519Y-113296073D01*
X188107798Y-113306798D01*
X188097073Y-113316519D01*
X188085447Y-113325142D01*
X188073031Y-113332583D01*
X188059946Y-113338772D01*
X188046317Y-113343649D01*
X188032276Y-113347166D01*
X188017958Y-113349290D01*
X188003500Y-113350000D01*
X187708500Y-113350000D01*
X187694042Y-113349290D01*
X187679724Y-113347166D01*
X187665683Y-113343649D01*
X187652054Y-113338772D01*
X187638969Y-113332583D01*
X187626553Y-113325142D01*
X187614927Y-113316519D01*
X187604202Y-113306798D01*
X187594481Y-113296073D01*
X187585858Y-113284447D01*
X187578417Y-113272031D01*
X187572228Y-113258946D01*
X187567351Y-113245317D01*
X187563834Y-113231276D01*
X187561710Y-113216958D01*
X187561000Y-113202500D01*
X187561000Y-112857500D01*
X187561710Y-112843042D01*
X187563834Y-112828724D01*
X187567351Y-112814683D01*
X187572228Y-112801054D01*
X187578417Y-112787969D01*
X187585858Y-112775553D01*
X187594481Y-112763927D01*
X187604202Y-112753202D01*
X187614927Y-112743481D01*
X187626553Y-112734858D01*
X187638969Y-112727417D01*
X187652054Y-112721228D01*
X187665683Y-112716351D01*
X187679724Y-112712834D01*
X187694042Y-112710710D01*
X187708500Y-112710000D01*
X188003500Y-112710000D01*
X188017958Y-112710710D01*
G37*
G36*
X170382458Y-111504210D02*
G01*
X170396776Y-111506334D01*
X170410817Y-111509851D01*
X170424446Y-111514728D01*
X170437531Y-111520917D01*
X170449947Y-111528358D01*
X170461573Y-111536981D01*
X170472298Y-111546702D01*
X170482019Y-111557427D01*
X170490642Y-111569053D01*
X170498083Y-111581469D01*
X170504272Y-111594554D01*
X170509149Y-111608183D01*
X170512666Y-111622224D01*
X170514790Y-111636542D01*
X170515500Y-111651000D01*
X170515500Y-111996000D01*
X170514790Y-112010458D01*
X170512666Y-112024776D01*
X170509149Y-112038817D01*
X170504272Y-112052446D01*
X170498083Y-112065531D01*
X170490642Y-112077947D01*
X170482019Y-112089573D01*
X170472298Y-112100298D01*
X170461573Y-112110019D01*
X170449947Y-112118642D01*
X170437531Y-112126083D01*
X170424446Y-112132272D01*
X170410817Y-112137149D01*
X170396776Y-112140666D01*
X170382458Y-112142790D01*
X170368000Y-112143500D01*
X170073000Y-112143500D01*
X170058542Y-112142790D01*
X170044224Y-112140666D01*
X170030183Y-112137149D01*
X170016554Y-112132272D01*
X170003469Y-112126083D01*
X169991053Y-112118642D01*
X169979427Y-112110019D01*
X169968702Y-112100298D01*
X169958981Y-112089573D01*
X169950358Y-112077947D01*
X169942917Y-112065531D01*
X169936728Y-112052446D01*
X169931851Y-112038817D01*
X169928334Y-112024776D01*
X169926210Y-112010458D01*
X169925500Y-111996000D01*
X169925500Y-111651000D01*
X169926210Y-111636542D01*
X169928334Y-111622224D01*
X169931851Y-111608183D01*
X169936728Y-111594554D01*
X169942917Y-111581469D01*
X169950358Y-111569053D01*
X169958981Y-111557427D01*
X169968702Y-111546702D01*
X169979427Y-111536981D01*
X169991053Y-111528358D01*
X170003469Y-111520917D01*
X170016554Y-111514728D01*
X170030183Y-111509851D01*
X170044224Y-111506334D01*
X170058542Y-111504210D01*
X170073000Y-111503500D01*
X170368000Y-111503500D01*
X170382458Y-111504210D01*
G37*
G36*
X169412458Y-111504210D02*
G01*
X169426776Y-111506334D01*
X169440817Y-111509851D01*
X169454446Y-111514728D01*
X169467531Y-111520917D01*
X169479947Y-111528358D01*
X169491573Y-111536981D01*
X169502298Y-111546702D01*
X169512019Y-111557427D01*
X169520642Y-111569053D01*
X169528083Y-111581469D01*
X169534272Y-111594554D01*
X169539149Y-111608183D01*
X169542666Y-111622224D01*
X169544790Y-111636542D01*
X169545500Y-111651000D01*
X169545500Y-111996000D01*
X169544790Y-112010458D01*
X169542666Y-112024776D01*
X169539149Y-112038817D01*
X169534272Y-112052446D01*
X169528083Y-112065531D01*
X169520642Y-112077947D01*
X169512019Y-112089573D01*
X169502298Y-112100298D01*
X169491573Y-112110019D01*
X169479947Y-112118642D01*
X169467531Y-112126083D01*
X169454446Y-112132272D01*
X169440817Y-112137149D01*
X169426776Y-112140666D01*
X169412458Y-112142790D01*
X169398000Y-112143500D01*
X169103000Y-112143500D01*
X169088542Y-112142790D01*
X169074224Y-112140666D01*
X169060183Y-112137149D01*
X169046554Y-112132272D01*
X169033469Y-112126083D01*
X169021053Y-112118642D01*
X169009427Y-112110019D01*
X168998702Y-112100298D01*
X168988981Y-112089573D01*
X168980358Y-112077947D01*
X168972917Y-112065531D01*
X168966728Y-112052446D01*
X168961851Y-112038817D01*
X168958334Y-112024776D01*
X168956210Y-112010458D01*
X168955500Y-111996000D01*
X168955500Y-111651000D01*
X168956210Y-111636542D01*
X168958334Y-111622224D01*
X168961851Y-111608183D01*
X168966728Y-111594554D01*
X168972917Y-111581469D01*
X168980358Y-111569053D01*
X168988981Y-111557427D01*
X168998702Y-111546702D01*
X169009427Y-111536981D01*
X169021053Y-111528358D01*
X169033469Y-111520917D01*
X169046554Y-111514728D01*
X169060183Y-111509851D01*
X169074224Y-111506334D01*
X169088542Y-111504210D01*
X169103000Y-111503500D01*
X169398000Y-111503500D01*
X169412458Y-111504210D01*
G37*
G36*
X147839958Y-72324710D02*
G01*
X147854276Y-72326834D01*
X147868317Y-72330351D01*
X147881946Y-72335228D01*
X147895031Y-72341417D01*
X147907447Y-72348858D01*
X147919073Y-72357481D01*
X147929798Y-72367202D01*
X147939519Y-72377927D01*
X147948142Y-72389553D01*
X147955583Y-72401969D01*
X147961772Y-72415054D01*
X147966649Y-72428683D01*
X147970166Y-72442724D01*
X147972290Y-72457042D01*
X147973000Y-72471500D01*
X147973000Y-72816500D01*
X147972290Y-72830958D01*
X147970166Y-72845276D01*
X147966649Y-72859317D01*
X147961772Y-72872946D01*
X147955583Y-72886031D01*
X147948142Y-72898447D01*
X147939519Y-72910073D01*
X147929798Y-72920798D01*
X147919073Y-72930519D01*
X147907447Y-72939142D01*
X147895031Y-72946583D01*
X147881946Y-72952772D01*
X147868317Y-72957649D01*
X147854276Y-72961166D01*
X147839958Y-72963290D01*
X147825500Y-72964000D01*
X147530500Y-72964000D01*
X147516042Y-72963290D01*
X147501724Y-72961166D01*
X147487683Y-72957649D01*
X147474054Y-72952772D01*
X147460969Y-72946583D01*
X147448553Y-72939142D01*
X147436927Y-72930519D01*
X147426202Y-72920798D01*
X147416481Y-72910073D01*
X147407858Y-72898447D01*
X147400417Y-72886031D01*
X147394228Y-72872946D01*
X147389351Y-72859317D01*
X147385834Y-72845276D01*
X147383710Y-72830958D01*
X147383000Y-72816500D01*
X147383000Y-72471500D01*
X147383710Y-72457042D01*
X147385834Y-72442724D01*
X147389351Y-72428683D01*
X147394228Y-72415054D01*
X147400417Y-72401969D01*
X147407858Y-72389553D01*
X147416481Y-72377927D01*
X147426202Y-72367202D01*
X147436927Y-72357481D01*
X147448553Y-72348858D01*
X147460969Y-72341417D01*
X147474054Y-72335228D01*
X147487683Y-72330351D01*
X147501724Y-72326834D01*
X147516042Y-72324710D01*
X147530500Y-72324000D01*
X147825500Y-72324000D01*
X147839958Y-72324710D01*
G37*
G36*
X146869958Y-72324710D02*
G01*
X146884276Y-72326834D01*
X146898317Y-72330351D01*
X146911946Y-72335228D01*
X146925031Y-72341417D01*
X146937447Y-72348858D01*
X146949073Y-72357481D01*
X146959798Y-72367202D01*
X146969519Y-72377927D01*
X146978142Y-72389553D01*
X146985583Y-72401969D01*
X146991772Y-72415054D01*
X146996649Y-72428683D01*
X147000166Y-72442724D01*
X147002290Y-72457042D01*
X147003000Y-72471500D01*
X147003000Y-72816500D01*
X147002290Y-72830958D01*
X147000166Y-72845276D01*
X146996649Y-72859317D01*
X146991772Y-72872946D01*
X146985583Y-72886031D01*
X146978142Y-72898447D01*
X146969519Y-72910073D01*
X146959798Y-72920798D01*
X146949073Y-72930519D01*
X146937447Y-72939142D01*
X146925031Y-72946583D01*
X146911946Y-72952772D01*
X146898317Y-72957649D01*
X146884276Y-72961166D01*
X146869958Y-72963290D01*
X146855500Y-72964000D01*
X146560500Y-72964000D01*
X146546042Y-72963290D01*
X146531724Y-72961166D01*
X146517683Y-72957649D01*
X146504054Y-72952772D01*
X146490969Y-72946583D01*
X146478553Y-72939142D01*
X146466927Y-72930519D01*
X146456202Y-72920798D01*
X146446481Y-72910073D01*
X146437858Y-72898447D01*
X146430417Y-72886031D01*
X146424228Y-72872946D01*
X146419351Y-72859317D01*
X146415834Y-72845276D01*
X146413710Y-72830958D01*
X146413000Y-72816500D01*
X146413000Y-72471500D01*
X146413710Y-72457042D01*
X146415834Y-72442724D01*
X146419351Y-72428683D01*
X146424228Y-72415054D01*
X146430417Y-72401969D01*
X146437858Y-72389553D01*
X146446481Y-72377927D01*
X146456202Y-72367202D01*
X146466927Y-72357481D01*
X146478553Y-72348858D01*
X146490969Y-72341417D01*
X146504054Y-72335228D01*
X146517683Y-72330351D01*
X146531724Y-72326834D01*
X146546042Y-72324710D01*
X146560500Y-72324000D01*
X146855500Y-72324000D01*
X146869958Y-72324710D01*
G37*
G36*
X133854458Y-105029210D02*
G01*
X133868776Y-105031334D01*
X133882817Y-105034851D01*
X133896446Y-105039728D01*
X133909531Y-105045917D01*
X133921947Y-105053358D01*
X133933573Y-105061981D01*
X133944298Y-105071702D01*
X133954019Y-105082427D01*
X133962642Y-105094053D01*
X133970083Y-105106469D01*
X133976272Y-105119554D01*
X133981149Y-105133183D01*
X133984666Y-105147224D01*
X133986790Y-105161542D01*
X133987500Y-105176000D01*
X133987500Y-105471000D01*
X133986790Y-105485458D01*
X133984666Y-105499776D01*
X133981149Y-105513817D01*
X133976272Y-105527446D01*
X133970083Y-105540531D01*
X133962642Y-105552947D01*
X133954019Y-105564573D01*
X133944298Y-105575298D01*
X133933573Y-105585019D01*
X133921947Y-105593642D01*
X133909531Y-105601083D01*
X133896446Y-105607272D01*
X133882817Y-105612149D01*
X133868776Y-105615666D01*
X133854458Y-105617790D01*
X133840000Y-105618500D01*
X133495000Y-105618500D01*
X133480542Y-105617790D01*
X133466224Y-105615666D01*
X133452183Y-105612149D01*
X133438554Y-105607272D01*
X133425469Y-105601083D01*
X133413053Y-105593642D01*
X133401427Y-105585019D01*
X133390702Y-105575298D01*
X133380981Y-105564573D01*
X133372358Y-105552947D01*
X133364917Y-105540531D01*
X133358728Y-105527446D01*
X133353851Y-105513817D01*
X133350334Y-105499776D01*
X133348210Y-105485458D01*
X133347500Y-105471000D01*
X133347500Y-105176000D01*
X133348210Y-105161542D01*
X133350334Y-105147224D01*
X133353851Y-105133183D01*
X133358728Y-105119554D01*
X133364917Y-105106469D01*
X133372358Y-105094053D01*
X133380981Y-105082427D01*
X133390702Y-105071702D01*
X133401427Y-105061981D01*
X133413053Y-105053358D01*
X133425469Y-105045917D01*
X133438554Y-105039728D01*
X133452183Y-105034851D01*
X133466224Y-105031334D01*
X133480542Y-105029210D01*
X133495000Y-105028500D01*
X133840000Y-105028500D01*
X133854458Y-105029210D01*
G37*
G36*
X133854458Y-104059210D02*
G01*
X133868776Y-104061334D01*
X133882817Y-104064851D01*
X133896446Y-104069728D01*
X133909531Y-104075917D01*
X133921947Y-104083358D01*
X133933573Y-104091981D01*
X133944298Y-104101702D01*
X133954019Y-104112427D01*
X133962642Y-104124053D01*
X133970083Y-104136469D01*
X133976272Y-104149554D01*
X133981149Y-104163183D01*
X133984666Y-104177224D01*
X133986790Y-104191542D01*
X133987500Y-104206000D01*
X133987500Y-104501000D01*
X133986790Y-104515458D01*
X133984666Y-104529776D01*
X133981149Y-104543817D01*
X133976272Y-104557446D01*
X133970083Y-104570531D01*
X133962642Y-104582947D01*
X133954019Y-104594573D01*
X133944298Y-104605298D01*
X133933573Y-104615019D01*
X133921947Y-104623642D01*
X133909531Y-104631083D01*
X133896446Y-104637272D01*
X133882817Y-104642149D01*
X133868776Y-104645666D01*
X133854458Y-104647790D01*
X133840000Y-104648500D01*
X133495000Y-104648500D01*
X133480542Y-104647790D01*
X133466224Y-104645666D01*
X133452183Y-104642149D01*
X133438554Y-104637272D01*
X133425469Y-104631083D01*
X133413053Y-104623642D01*
X133401427Y-104615019D01*
X133390702Y-104605298D01*
X133380981Y-104594573D01*
X133372358Y-104582947D01*
X133364917Y-104570531D01*
X133358728Y-104557446D01*
X133353851Y-104543817D01*
X133350334Y-104529776D01*
X133348210Y-104515458D01*
X133347500Y-104501000D01*
X133347500Y-104206000D01*
X133348210Y-104191542D01*
X133350334Y-104177224D01*
X133353851Y-104163183D01*
X133358728Y-104149554D01*
X133364917Y-104136469D01*
X133372358Y-104124053D01*
X133380981Y-104112427D01*
X133390702Y-104101702D01*
X133401427Y-104091981D01*
X133413053Y-104083358D01*
X133425469Y-104075917D01*
X133438554Y-104069728D01*
X133452183Y-104064851D01*
X133466224Y-104061334D01*
X133480542Y-104059210D01*
X133495000Y-104058500D01*
X133840000Y-104058500D01*
X133854458Y-104059210D01*
G37*
D16*
X146700000Y-70770000D03*
X144500000Y-70770000D03*
X143400000Y-70770000D03*
X142300000Y-70770000D03*
X141200000Y-70770000D03*
X140100000Y-70770000D03*
X137100000Y-70770000D03*
X136000000Y-70770000D03*
X134900000Y-70770000D03*
X133800000Y-70770000D03*
X132700000Y-70770000D03*
X132700000Y-58770000D03*
X133800000Y-58770000D03*
X134900000Y-58770000D03*
X136000000Y-58770000D03*
X137100000Y-58770000D03*
X140100000Y-58770000D03*
X141200000Y-58770000D03*
X142300000Y-58770000D03*
X143400000Y-58770000D03*
X144500000Y-58770000D03*
X145600000Y-58770000D03*
X146700000Y-58770000D03*
D10*
G36*
X140561142Y-55696174D02*
G01*
X140584803Y-55699684D01*
X140608007Y-55705496D01*
X140630529Y-55713554D01*
X140652153Y-55723782D01*
X140672670Y-55736079D01*
X140691883Y-55750329D01*
X140709607Y-55766393D01*
X140725671Y-55784117D01*
X140739921Y-55803330D01*
X140752218Y-55823847D01*
X140762446Y-55845471D01*
X140770504Y-55867993D01*
X140776316Y-55891197D01*
X140779826Y-55914858D01*
X140781000Y-55938750D01*
X140781000Y-56426250D01*
X140779826Y-56450142D01*
X140776316Y-56473803D01*
X140770504Y-56497007D01*
X140762446Y-56519529D01*
X140752218Y-56541153D01*
X140739921Y-56561670D01*
X140725671Y-56580883D01*
X140709607Y-56598607D01*
X140691883Y-56614671D01*
X140672670Y-56628921D01*
X140652153Y-56641218D01*
X140630529Y-56651446D01*
X140608007Y-56659504D01*
X140584803Y-56665316D01*
X140561142Y-56668826D01*
X140537250Y-56670000D01*
X139624750Y-56670000D01*
X139600858Y-56668826D01*
X139577197Y-56665316D01*
X139553993Y-56659504D01*
X139531471Y-56651446D01*
X139509847Y-56641218D01*
X139489330Y-56628921D01*
X139470117Y-56614671D01*
X139452393Y-56598607D01*
X139436329Y-56580883D01*
X139422079Y-56561670D01*
X139409782Y-56541153D01*
X139399554Y-56519529D01*
X139391496Y-56497007D01*
X139385684Y-56473803D01*
X139382174Y-56450142D01*
X139381000Y-56426250D01*
X139381000Y-55938750D01*
X139382174Y-55914858D01*
X139385684Y-55891197D01*
X139391496Y-55867993D01*
X139399554Y-55845471D01*
X139409782Y-55823847D01*
X139422079Y-55803330D01*
X139436329Y-55784117D01*
X139452393Y-55766393D01*
X139470117Y-55750329D01*
X139489330Y-55736079D01*
X139509847Y-55723782D01*
X139531471Y-55713554D01*
X139553993Y-55705496D01*
X139577197Y-55699684D01*
X139600858Y-55696174D01*
X139624750Y-55695000D01*
X140537250Y-55695000D01*
X140561142Y-55696174D01*
G37*
G36*
X140561142Y-53821174D02*
G01*
X140584803Y-53824684D01*
X140608007Y-53830496D01*
X140630529Y-53838554D01*
X140652153Y-53848782D01*
X140672670Y-53861079D01*
X140691883Y-53875329D01*
X140709607Y-53891393D01*
X140725671Y-53909117D01*
X140739921Y-53928330D01*
X140752218Y-53948847D01*
X140762446Y-53970471D01*
X140770504Y-53992993D01*
X140776316Y-54016197D01*
X140779826Y-54039858D01*
X140781000Y-54063750D01*
X140781000Y-54551250D01*
X140779826Y-54575142D01*
X140776316Y-54598803D01*
X140770504Y-54622007D01*
X140762446Y-54644529D01*
X140752218Y-54666153D01*
X140739921Y-54686670D01*
X140725671Y-54705883D01*
X140709607Y-54723607D01*
X140691883Y-54739671D01*
X140672670Y-54753921D01*
X140652153Y-54766218D01*
X140630529Y-54776446D01*
X140608007Y-54784504D01*
X140584803Y-54790316D01*
X140561142Y-54793826D01*
X140537250Y-54795000D01*
X139624750Y-54795000D01*
X139600858Y-54793826D01*
X139577197Y-54790316D01*
X139553993Y-54784504D01*
X139531471Y-54776446D01*
X139509847Y-54766218D01*
X139489330Y-54753921D01*
X139470117Y-54739671D01*
X139452393Y-54723607D01*
X139436329Y-54705883D01*
X139422079Y-54686670D01*
X139409782Y-54666153D01*
X139399554Y-54644529D01*
X139391496Y-54622007D01*
X139385684Y-54598803D01*
X139382174Y-54575142D01*
X139381000Y-54551250D01*
X139381000Y-54063750D01*
X139382174Y-54039858D01*
X139385684Y-54016197D01*
X139391496Y-53992993D01*
X139399554Y-53970471D01*
X139409782Y-53948847D01*
X139422079Y-53928330D01*
X139436329Y-53909117D01*
X139452393Y-53891393D01*
X139470117Y-53875329D01*
X139489330Y-53861079D01*
X139509847Y-53848782D01*
X139531471Y-53838554D01*
X139553993Y-53830496D01*
X139577197Y-53824684D01*
X139600858Y-53821174D01*
X139624750Y-53820000D01*
X140537250Y-53820000D01*
X140561142Y-53821174D01*
G37*
D15*
X156464000Y-108950000D03*
X155514000Y-106950000D03*
X157414000Y-106950000D03*
D17*
X159337500Y-111696500D03*
X161337500Y-110746500D03*
X161337500Y-112646500D03*
D10*
G36*
X140600691Y-51723053D02*
G01*
X140621926Y-51726203D01*
X140642750Y-51731419D01*
X140662962Y-51738651D01*
X140682368Y-51747830D01*
X140700781Y-51758866D01*
X140718024Y-51771654D01*
X140733930Y-51786070D01*
X140748346Y-51801976D01*
X140761134Y-51819219D01*
X140772170Y-51837632D01*
X140781349Y-51857038D01*
X140788581Y-51877250D01*
X140793797Y-51898074D01*
X140796947Y-51919309D01*
X140798000Y-51940750D01*
X140798000Y-52453250D01*
X140796947Y-52474691D01*
X140793797Y-52495926D01*
X140788581Y-52516750D01*
X140781349Y-52536962D01*
X140772170Y-52556368D01*
X140761134Y-52574781D01*
X140748346Y-52592024D01*
X140733930Y-52607930D01*
X140718024Y-52622346D01*
X140700781Y-52635134D01*
X140682368Y-52646170D01*
X140662962Y-52655349D01*
X140642750Y-52662581D01*
X140621926Y-52667797D01*
X140600691Y-52670947D01*
X140579250Y-52672000D01*
X140141750Y-52672000D01*
X140120309Y-52670947D01*
X140099074Y-52667797D01*
X140078250Y-52662581D01*
X140058038Y-52655349D01*
X140038632Y-52646170D01*
X140020219Y-52635134D01*
X140002976Y-52622346D01*
X139987070Y-52607930D01*
X139972654Y-52592024D01*
X139959866Y-52574781D01*
X139948830Y-52556368D01*
X139939651Y-52536962D01*
X139932419Y-52516750D01*
X139927203Y-52495926D01*
X139924053Y-52474691D01*
X139923000Y-52453250D01*
X139923000Y-51940750D01*
X139924053Y-51919309D01*
X139927203Y-51898074D01*
X139932419Y-51877250D01*
X139939651Y-51857038D01*
X139948830Y-51837632D01*
X139959866Y-51819219D01*
X139972654Y-51801976D01*
X139987070Y-51786070D01*
X140002976Y-51771654D01*
X140020219Y-51758866D01*
X140038632Y-51747830D01*
X140058038Y-51738651D01*
X140078250Y-51731419D01*
X140099074Y-51726203D01*
X140120309Y-51723053D01*
X140141750Y-51722000D01*
X140579250Y-51722000D01*
X140600691Y-51723053D01*
G37*
G36*
X139025691Y-51723053D02*
G01*
X139046926Y-51726203D01*
X139067750Y-51731419D01*
X139087962Y-51738651D01*
X139107368Y-51747830D01*
X139125781Y-51758866D01*
X139143024Y-51771654D01*
X139158930Y-51786070D01*
X139173346Y-51801976D01*
X139186134Y-51819219D01*
X139197170Y-51837632D01*
X139206349Y-51857038D01*
X139213581Y-51877250D01*
X139218797Y-51898074D01*
X139221947Y-51919309D01*
X139223000Y-51940750D01*
X139223000Y-52453250D01*
X139221947Y-52474691D01*
X139218797Y-52495926D01*
X139213581Y-52516750D01*
X139206349Y-52536962D01*
X139197170Y-52556368D01*
X139186134Y-52574781D01*
X139173346Y-52592024D01*
X139158930Y-52607930D01*
X139143024Y-52622346D01*
X139125781Y-52635134D01*
X139107368Y-52646170D01*
X139087962Y-52655349D01*
X139067750Y-52662581D01*
X139046926Y-52667797D01*
X139025691Y-52670947D01*
X139004250Y-52672000D01*
X138566750Y-52672000D01*
X138545309Y-52670947D01*
X138524074Y-52667797D01*
X138503250Y-52662581D01*
X138483038Y-52655349D01*
X138463632Y-52646170D01*
X138445219Y-52635134D01*
X138427976Y-52622346D01*
X138412070Y-52607930D01*
X138397654Y-52592024D01*
X138384866Y-52574781D01*
X138373830Y-52556368D01*
X138364651Y-52536962D01*
X138357419Y-52516750D01*
X138352203Y-52495926D01*
X138349053Y-52474691D01*
X138348000Y-52453250D01*
X138348000Y-51940750D01*
X138349053Y-51919309D01*
X138352203Y-51898074D01*
X138357419Y-51877250D01*
X138364651Y-51857038D01*
X138373830Y-51837632D01*
X138384866Y-51819219D01*
X138397654Y-51801976D01*
X138412070Y-51786070D01*
X138427976Y-51771654D01*
X138445219Y-51758866D01*
X138463632Y-51747830D01*
X138483038Y-51738651D01*
X138503250Y-51731419D01*
X138524074Y-51726203D01*
X138545309Y-51723053D01*
X138566750Y-51722000D01*
X139004250Y-51722000D01*
X139025691Y-51723053D01*
G37*
G36*
X144156691Y-52739053D02*
G01*
X144177926Y-52742203D01*
X144198750Y-52747419D01*
X144218962Y-52754651D01*
X144238368Y-52763830D01*
X144256781Y-52774866D01*
X144274024Y-52787654D01*
X144289930Y-52802070D01*
X144304346Y-52817976D01*
X144317134Y-52835219D01*
X144328170Y-52853632D01*
X144337349Y-52873038D01*
X144344581Y-52893250D01*
X144349797Y-52914074D01*
X144352947Y-52935309D01*
X144354000Y-52956750D01*
X144354000Y-53469250D01*
X144352947Y-53490691D01*
X144349797Y-53511926D01*
X144344581Y-53532750D01*
X144337349Y-53552962D01*
X144328170Y-53572368D01*
X144317134Y-53590781D01*
X144304346Y-53608024D01*
X144289930Y-53623930D01*
X144274024Y-53638346D01*
X144256781Y-53651134D01*
X144238368Y-53662170D01*
X144218962Y-53671349D01*
X144198750Y-53678581D01*
X144177926Y-53683797D01*
X144156691Y-53686947D01*
X144135250Y-53688000D01*
X143697750Y-53688000D01*
X143676309Y-53686947D01*
X143655074Y-53683797D01*
X143634250Y-53678581D01*
X143614038Y-53671349D01*
X143594632Y-53662170D01*
X143576219Y-53651134D01*
X143558976Y-53638346D01*
X143543070Y-53623930D01*
X143528654Y-53608024D01*
X143515866Y-53590781D01*
X143504830Y-53572368D01*
X143495651Y-53552962D01*
X143488419Y-53532750D01*
X143483203Y-53511926D01*
X143480053Y-53490691D01*
X143479000Y-53469250D01*
X143479000Y-52956750D01*
X143480053Y-52935309D01*
X143483203Y-52914074D01*
X143488419Y-52893250D01*
X143495651Y-52873038D01*
X143504830Y-52853632D01*
X143515866Y-52835219D01*
X143528654Y-52817976D01*
X143543070Y-52802070D01*
X143558976Y-52787654D01*
X143576219Y-52774866D01*
X143594632Y-52763830D01*
X143614038Y-52754651D01*
X143634250Y-52747419D01*
X143655074Y-52742203D01*
X143676309Y-52739053D01*
X143697750Y-52738000D01*
X144135250Y-52738000D01*
X144156691Y-52739053D01*
G37*
G36*
X142581691Y-52739053D02*
G01*
X142602926Y-52742203D01*
X142623750Y-52747419D01*
X142643962Y-52754651D01*
X142663368Y-52763830D01*
X142681781Y-52774866D01*
X142699024Y-52787654D01*
X142714930Y-52802070D01*
X142729346Y-52817976D01*
X142742134Y-52835219D01*
X142753170Y-52853632D01*
X142762349Y-52873038D01*
X142769581Y-52893250D01*
X142774797Y-52914074D01*
X142777947Y-52935309D01*
X142779000Y-52956750D01*
X142779000Y-53469250D01*
X142777947Y-53490691D01*
X142774797Y-53511926D01*
X142769581Y-53532750D01*
X142762349Y-53552962D01*
X142753170Y-53572368D01*
X142742134Y-53590781D01*
X142729346Y-53608024D01*
X142714930Y-53623930D01*
X142699024Y-53638346D01*
X142681781Y-53651134D01*
X142663368Y-53662170D01*
X142643962Y-53671349D01*
X142623750Y-53678581D01*
X142602926Y-53683797D01*
X142581691Y-53686947D01*
X142560250Y-53688000D01*
X142122750Y-53688000D01*
X142101309Y-53686947D01*
X142080074Y-53683797D01*
X142059250Y-53678581D01*
X142039038Y-53671349D01*
X142019632Y-53662170D01*
X142001219Y-53651134D01*
X141983976Y-53638346D01*
X141968070Y-53623930D01*
X141953654Y-53608024D01*
X141940866Y-53590781D01*
X141929830Y-53572368D01*
X141920651Y-53552962D01*
X141913419Y-53532750D01*
X141908203Y-53511926D01*
X141905053Y-53490691D01*
X141904000Y-53469250D01*
X141904000Y-52956750D01*
X141905053Y-52935309D01*
X141908203Y-52914074D01*
X141913419Y-52893250D01*
X141920651Y-52873038D01*
X141929830Y-52853632D01*
X141940866Y-52835219D01*
X141953654Y-52817976D01*
X141968070Y-52802070D01*
X141983976Y-52787654D01*
X142001219Y-52774866D01*
X142019632Y-52763830D01*
X142039038Y-52754651D01*
X142059250Y-52747419D01*
X142080074Y-52742203D01*
X142101309Y-52739053D01*
X142122750Y-52738000D01*
X142560250Y-52738000D01*
X142581691Y-52739053D01*
G37*
G36*
X188376642Y-114527174D02*
G01*
X188400303Y-114530684D01*
X188423507Y-114536496D01*
X188446029Y-114544554D01*
X188467653Y-114554782D01*
X188488170Y-114567079D01*
X188507383Y-114581329D01*
X188525107Y-114597393D01*
X188541171Y-114615117D01*
X188555421Y-114634330D01*
X188567718Y-114654847D01*
X188577946Y-114676471D01*
X188586004Y-114698993D01*
X188591816Y-114722197D01*
X188595326Y-114745858D01*
X188596500Y-114769750D01*
X188596500Y-115257250D01*
X188595326Y-115281142D01*
X188591816Y-115304803D01*
X188586004Y-115328007D01*
X188577946Y-115350529D01*
X188567718Y-115372153D01*
X188555421Y-115392670D01*
X188541171Y-115411883D01*
X188525107Y-115429607D01*
X188507383Y-115445671D01*
X188488170Y-115459921D01*
X188467653Y-115472218D01*
X188446029Y-115482446D01*
X188423507Y-115490504D01*
X188400303Y-115496316D01*
X188376642Y-115499826D01*
X188352750Y-115501000D01*
X187440250Y-115501000D01*
X187416358Y-115499826D01*
X187392697Y-115496316D01*
X187369493Y-115490504D01*
X187346971Y-115482446D01*
X187325347Y-115472218D01*
X187304830Y-115459921D01*
X187285617Y-115445671D01*
X187267893Y-115429607D01*
X187251829Y-115411883D01*
X187237579Y-115392670D01*
X187225282Y-115372153D01*
X187215054Y-115350529D01*
X187206996Y-115328007D01*
X187201184Y-115304803D01*
X187197674Y-115281142D01*
X187196500Y-115257250D01*
X187196500Y-114769750D01*
X187197674Y-114745858D01*
X187201184Y-114722197D01*
X187206996Y-114698993D01*
X187215054Y-114676471D01*
X187225282Y-114654847D01*
X187237579Y-114634330D01*
X187251829Y-114615117D01*
X187267893Y-114597393D01*
X187285617Y-114581329D01*
X187304830Y-114567079D01*
X187325347Y-114554782D01*
X187346971Y-114544554D01*
X187369493Y-114536496D01*
X187392697Y-114530684D01*
X187416358Y-114527174D01*
X187440250Y-114526000D01*
X188352750Y-114526000D01*
X188376642Y-114527174D01*
G37*
G36*
X188376642Y-116402174D02*
G01*
X188400303Y-116405684D01*
X188423507Y-116411496D01*
X188446029Y-116419554D01*
X188467653Y-116429782D01*
X188488170Y-116442079D01*
X188507383Y-116456329D01*
X188525107Y-116472393D01*
X188541171Y-116490117D01*
X188555421Y-116509330D01*
X188567718Y-116529847D01*
X188577946Y-116551471D01*
X188586004Y-116573993D01*
X188591816Y-116597197D01*
X188595326Y-116620858D01*
X188596500Y-116644750D01*
X188596500Y-117132250D01*
X188595326Y-117156142D01*
X188591816Y-117179803D01*
X188586004Y-117203007D01*
X188577946Y-117225529D01*
X188567718Y-117247153D01*
X188555421Y-117267670D01*
X188541171Y-117286883D01*
X188525107Y-117304607D01*
X188507383Y-117320671D01*
X188488170Y-117334921D01*
X188467653Y-117347218D01*
X188446029Y-117357446D01*
X188423507Y-117365504D01*
X188400303Y-117371316D01*
X188376642Y-117374826D01*
X188352750Y-117376000D01*
X187440250Y-117376000D01*
X187416358Y-117374826D01*
X187392697Y-117371316D01*
X187369493Y-117365504D01*
X187346971Y-117357446D01*
X187325347Y-117347218D01*
X187304830Y-117334921D01*
X187285617Y-117320671D01*
X187267893Y-117304607D01*
X187251829Y-117286883D01*
X187237579Y-117267670D01*
X187225282Y-117247153D01*
X187215054Y-117225529D01*
X187206996Y-117203007D01*
X187201184Y-117179803D01*
X187197674Y-117156142D01*
X187196500Y-117132250D01*
X187196500Y-116644750D01*
X187197674Y-116620858D01*
X187201184Y-116597197D01*
X187206996Y-116573993D01*
X187215054Y-116551471D01*
X187225282Y-116529847D01*
X187237579Y-116509330D01*
X187251829Y-116490117D01*
X187267893Y-116472393D01*
X187285617Y-116456329D01*
X187304830Y-116442079D01*
X187325347Y-116429782D01*
X187346971Y-116419554D01*
X187369493Y-116411496D01*
X187392697Y-116405684D01*
X187416358Y-116402174D01*
X187440250Y-116401000D01*
X188352750Y-116401000D01*
X188376642Y-116402174D01*
G37*
D18*
X176327500Y-93091000D03*
X174827500Y-93091000D03*
X136537000Y-73660000D03*
X138037000Y-73660000D03*
D19*
X133096000Y-117856000D03*
D20*
X133096000Y-112256000D03*
X133096000Y-123456000D03*
D21*
X173069500Y-110299500D03*
X177069500Y-110299500D03*
D22*
X163627500Y-109093000D03*
X162127500Y-109093000D03*
D23*
X169439500Y-90741500D03*
X170539500Y-90741500D03*
D18*
X179018500Y-94932500D03*
X180518500Y-94932500D03*
X151054500Y-91567000D03*
X149554500Y-91567000D03*
X144792000Y-91567000D03*
X146292000Y-91567000D03*
D22*
X162750500Y-90487500D03*
X164250500Y-90487500D03*
X164262500Y-88392000D03*
X162762500Y-88392000D03*
D24*
X159829500Y-88594500D03*
X159829500Y-90094500D03*
D22*
X132981000Y-75184000D03*
X134481000Y-75184000D03*
X170803000Y-87020400D03*
X169303000Y-87020400D03*
X157341000Y-105156000D03*
X155841000Y-105156000D03*
D24*
X153289000Y-63361000D03*
X153289000Y-61861000D03*
D22*
X136029000Y-104902000D03*
X137529000Y-104902000D03*
D24*
X163576000Y-105803000D03*
X163576000Y-107303000D03*
X160147000Y-104215500D03*
X160147000Y-105715500D03*
D22*
X168263000Y-106489500D03*
X166763000Y-106489500D03*
D24*
X161798000Y-107303000D03*
X161798000Y-105803000D03*
D22*
X170739500Y-92075000D03*
X169239500Y-92075000D03*
X176200500Y-94869000D03*
X174700500Y-94869000D03*
X180391500Y-93091000D03*
X178891500Y-93091000D03*
D24*
X155321000Y-63361000D03*
X155321000Y-61861000D03*
D22*
X160516000Y-108966000D03*
X159016000Y-108966000D03*
D24*
X161734500Y-114629500D03*
X161734500Y-116129500D03*
M02*
