G04 #@! TF.GenerationSoftware,KiCad,Pcbnew,(5.1.5)-3*
G04 #@! TF.CreationDate,2020-04-29T23:57:10-07:00*
G04 #@! TF.ProjectId,DashSight-Mezzanine-Card,44617368-5369-4676-9874-2d4d657a7a61,rev?*
G04 #@! TF.SameCoordinates,Original*
G04 #@! TF.FileFunction,Legend,Bot*
G04 #@! TF.FilePolarity,Positive*
%FSLAX46Y46*%
G04 Gerber Fmt 4.6, Leading zero omitted, Abs format (unit mm)*
G04 Created by KiCad (PCBNEW (5.1.5)-3) date 2020-04-29 23:57:10*
%MOMM*%
%LPD*%
G04 APERTURE LIST*
%ADD10C,0.120000*%
%ADD11C,0.150000*%
G04 APERTURE END LIST*
D10*
X186376000Y-123063000D02*
X186376000Y-124393000D01*
X186376000Y-124393000D02*
X187706000Y-124393000D01*
X186376000Y-121793000D02*
X188976000Y-121793000D01*
X188976000Y-121793000D02*
X188976000Y-124393000D01*
X188976000Y-124393000D02*
X199196000Y-124393000D01*
X199196000Y-119193000D02*
X199196000Y-124393000D01*
X186376000Y-119193000D02*
X199196000Y-119193000D01*
X186376000Y-119193000D02*
X186376000Y-121793000D01*
X139670000Y-123000000D02*
X139670000Y-124330000D01*
X139670000Y-124330000D02*
X141000000Y-124330000D01*
X139670000Y-121730000D02*
X142270000Y-121730000D01*
X142270000Y-121730000D02*
X142270000Y-124330000D01*
X142270000Y-124330000D02*
X182970000Y-124330000D01*
X182970000Y-119130000D02*
X182970000Y-124330000D01*
X139670000Y-119130000D02*
X182970000Y-119130000D01*
X139670000Y-119130000D02*
X139670000Y-121730000D01*
X145609000Y-50816000D02*
X145609000Y-52146000D01*
X145609000Y-52146000D02*
X146939000Y-52146000D01*
X145609000Y-49546000D02*
X148209000Y-49546000D01*
X148209000Y-49546000D02*
X148209000Y-52146000D01*
X148209000Y-52146000D02*
X196529000Y-52146000D01*
X196529000Y-46946000D02*
X196529000Y-52146000D01*
X145609000Y-46946000D02*
X196529000Y-46946000D01*
X145609000Y-46946000D02*
X145609000Y-49546000D01*
X167409400Y-63434179D02*
X167409400Y-63108621D01*
X168429400Y-63434179D02*
X168429400Y-63108621D01*
X168404000Y-59959021D02*
X168404000Y-60284579D01*
X167384000Y-59959021D02*
X167384000Y-60284579D01*
X169924000Y-69911179D02*
X169924000Y-69585621D01*
X170944000Y-69911179D02*
X170944000Y-69585621D01*
X169924000Y-66761579D02*
X169924000Y-66436021D01*
X170944000Y-66761579D02*
X170944000Y-66436021D01*
X160970500Y-108465500D02*
X159510500Y-108465500D01*
X160970500Y-111625500D02*
X158810500Y-111625500D01*
X160970500Y-111625500D02*
X160970500Y-110695500D01*
X160970500Y-108465500D02*
X160970500Y-109395500D01*
X143766000Y-109593500D02*
X145226000Y-109593500D01*
X143766000Y-106433500D02*
X145926000Y-106433500D01*
X143766000Y-106433500D02*
X143766000Y-107363500D01*
X143766000Y-109593500D02*
X143766000Y-108663500D01*
X145163000Y-113848000D02*
X146623000Y-113848000D01*
X145163000Y-110688000D02*
X147323000Y-110688000D01*
X145163000Y-110688000D02*
X145163000Y-111618000D01*
X145163000Y-113848000D02*
X145163000Y-112918000D01*
X151068500Y-114927500D02*
X152528500Y-114927500D01*
X151068500Y-111767500D02*
X153228500Y-111767500D01*
X151068500Y-111767500D02*
X151068500Y-112697500D01*
X151068500Y-114927500D02*
X151068500Y-113997500D01*
X141814000Y-112085500D02*
X141814000Y-113085500D01*
X143174000Y-113085500D02*
X143174000Y-112085500D01*
X177319500Y-108156500D02*
X177319500Y-110156500D01*
X177319500Y-110156500D02*
X173419500Y-110156500D01*
X177319500Y-108156500D02*
X173419500Y-108156500D01*
X149189000Y-114824000D02*
X149189000Y-116824000D01*
X149189000Y-116824000D02*
X145289000Y-116824000D01*
X149189000Y-114824000D02*
X145289000Y-114824000D01*
X165552500Y-110852500D02*
X166552500Y-110852500D01*
X166552500Y-109492500D02*
X165552500Y-109492500D01*
X139565000Y-108286000D02*
X138565000Y-108286000D01*
X138565000Y-109646000D02*
X139565000Y-109646000D01*
X140009500Y-111842000D02*
X139009500Y-111842000D01*
X139009500Y-113202000D02*
X140009500Y-113202000D01*
X140861500Y-108275500D02*
X140861500Y-109275500D01*
X142221500Y-109275500D02*
X142221500Y-108275500D01*
X158287000Y-109085000D02*
X158287000Y-108085000D01*
X156927000Y-108085000D02*
X156927000Y-109085000D01*
X143248000Y-115588500D02*
X142248000Y-115588500D01*
X142248000Y-116948500D02*
X143248000Y-116948500D01*
X148291000Y-111069500D02*
X148291000Y-112069500D01*
X149651000Y-112069500D02*
X149651000Y-111069500D01*
X149180000Y-106307000D02*
X149180000Y-107307000D01*
X150540000Y-107307000D02*
X150540000Y-106307000D01*
D11*
X184388380Y-121459666D02*
X185102666Y-121459666D01*
X185245523Y-121412047D01*
X185340761Y-121316809D01*
X185388380Y-121173952D01*
X185388380Y-121078714D01*
X184388380Y-122412047D02*
X184388380Y-121935857D01*
X184864571Y-121888238D01*
X184816952Y-121935857D01*
X184769333Y-122031095D01*
X184769333Y-122269190D01*
X184816952Y-122364428D01*
X184864571Y-122412047D01*
X184959809Y-122459666D01*
X185197904Y-122459666D01*
X185293142Y-122412047D01*
X185340761Y-122364428D01*
X185388380Y-122269190D01*
X185388380Y-122031095D01*
X185340761Y-121935857D01*
X185293142Y-121888238D01*
X137682380Y-121396666D02*
X138396666Y-121396666D01*
X138539523Y-121349047D01*
X138634761Y-121253809D01*
X138682380Y-121110952D01*
X138682380Y-121015714D01*
X137777619Y-121825238D02*
X137730000Y-121872857D01*
X137682380Y-121968095D01*
X137682380Y-122206190D01*
X137730000Y-122301428D01*
X137777619Y-122349047D01*
X137872857Y-122396666D01*
X137968095Y-122396666D01*
X138110952Y-122349047D01*
X138682380Y-121777619D01*
X138682380Y-122396666D01*
X143621380Y-49212666D02*
X144335666Y-49212666D01*
X144478523Y-49165047D01*
X144573761Y-49069809D01*
X144621380Y-48926952D01*
X144621380Y-48831714D01*
X144621380Y-50212666D02*
X144621380Y-49641238D01*
X144621380Y-49926952D02*
X143621380Y-49926952D01*
X143764238Y-49831714D01*
X143859476Y-49736476D01*
X143907095Y-49641238D01*
X169801780Y-62628542D02*
X169325590Y-62295209D01*
X169801780Y-62057114D02*
X168801780Y-62057114D01*
X168801780Y-62438066D01*
X168849400Y-62533304D01*
X168897019Y-62580923D01*
X168992257Y-62628542D01*
X169135114Y-62628542D01*
X169230352Y-62580923D01*
X169277971Y-62533304D01*
X169325590Y-62438066D01*
X169325590Y-62057114D01*
X168801780Y-62961876D02*
X168801780Y-63580923D01*
X169182733Y-63247590D01*
X169182733Y-63390447D01*
X169230352Y-63485685D01*
X169277971Y-63533304D01*
X169373209Y-63580923D01*
X169611304Y-63580923D01*
X169706542Y-63533304D01*
X169754161Y-63485685D01*
X169801780Y-63390447D01*
X169801780Y-63104733D01*
X169754161Y-63009495D01*
X169706542Y-62961876D01*
X169230352Y-64152352D02*
X169182733Y-64057114D01*
X169135114Y-64009495D01*
X169039876Y-63961876D01*
X168992257Y-63961876D01*
X168897019Y-64009495D01*
X168849400Y-64057114D01*
X168801780Y-64152352D01*
X168801780Y-64342828D01*
X168849400Y-64438066D01*
X168897019Y-64485685D01*
X168992257Y-64533304D01*
X169039876Y-64533304D01*
X169135114Y-64485685D01*
X169182733Y-64438066D01*
X169230352Y-64342828D01*
X169230352Y-64152352D01*
X169277971Y-64057114D01*
X169325590Y-64009495D01*
X169420828Y-63961876D01*
X169611304Y-63961876D01*
X169706542Y-64009495D01*
X169754161Y-64057114D01*
X169801780Y-64152352D01*
X169801780Y-64342828D01*
X169754161Y-64438066D01*
X169706542Y-64485685D01*
X169611304Y-64533304D01*
X169420828Y-64533304D01*
X169325590Y-64485685D01*
X169277971Y-64438066D01*
X169230352Y-64342828D01*
X166916380Y-59478942D02*
X166440190Y-59145609D01*
X166916380Y-58907514D02*
X165916380Y-58907514D01*
X165916380Y-59288466D01*
X165964000Y-59383704D01*
X166011619Y-59431323D01*
X166106857Y-59478942D01*
X166249714Y-59478942D01*
X166344952Y-59431323D01*
X166392571Y-59383704D01*
X166440190Y-59288466D01*
X166440190Y-58907514D01*
X165916380Y-59812276D02*
X165916380Y-60431323D01*
X166297333Y-60097990D01*
X166297333Y-60240847D01*
X166344952Y-60336085D01*
X166392571Y-60383704D01*
X166487809Y-60431323D01*
X166725904Y-60431323D01*
X166821142Y-60383704D01*
X166868761Y-60336085D01*
X166916380Y-60240847D01*
X166916380Y-59955133D01*
X166868761Y-59859895D01*
X166821142Y-59812276D01*
X165916380Y-60764657D02*
X165916380Y-61431323D01*
X166916380Y-61002752D01*
X172316380Y-69105542D02*
X171840190Y-68772209D01*
X172316380Y-68534114D02*
X171316380Y-68534114D01*
X171316380Y-68915066D01*
X171364000Y-69010304D01*
X171411619Y-69057923D01*
X171506857Y-69105542D01*
X171649714Y-69105542D01*
X171744952Y-69057923D01*
X171792571Y-69010304D01*
X171840190Y-68915066D01*
X171840190Y-68534114D01*
X171316380Y-69438876D02*
X171316380Y-70057923D01*
X171697333Y-69724590D01*
X171697333Y-69867447D01*
X171744952Y-69962685D01*
X171792571Y-70010304D01*
X171887809Y-70057923D01*
X172125904Y-70057923D01*
X172221142Y-70010304D01*
X172268761Y-69962685D01*
X172316380Y-69867447D01*
X172316380Y-69581733D01*
X172268761Y-69486495D01*
X172221142Y-69438876D01*
X171649714Y-70915066D02*
X172316380Y-70915066D01*
X171268761Y-70676971D02*
X171983047Y-70438876D01*
X171983047Y-71057923D01*
X172316380Y-65955942D02*
X171840190Y-65622609D01*
X172316380Y-65384514D02*
X171316380Y-65384514D01*
X171316380Y-65765466D01*
X171364000Y-65860704D01*
X171411619Y-65908323D01*
X171506857Y-65955942D01*
X171649714Y-65955942D01*
X171744952Y-65908323D01*
X171792571Y-65860704D01*
X171840190Y-65765466D01*
X171840190Y-65384514D01*
X171316380Y-66289276D02*
X171316380Y-66908323D01*
X171697333Y-66574990D01*
X171697333Y-66717847D01*
X171744952Y-66813085D01*
X171792571Y-66860704D01*
X171887809Y-66908323D01*
X172125904Y-66908323D01*
X172221142Y-66860704D01*
X172268761Y-66813085D01*
X172316380Y-66717847D01*
X172316380Y-66432133D01*
X172268761Y-66336895D01*
X172221142Y-66289276D01*
X171316380Y-67241657D02*
X171316380Y-67860704D01*
X171697333Y-67527371D01*
X171697333Y-67670228D01*
X171744952Y-67765466D01*
X171792571Y-67813085D01*
X171887809Y-67860704D01*
X172125904Y-67860704D01*
X172221142Y-67813085D01*
X172268761Y-67765466D01*
X172316380Y-67670228D01*
X172316380Y-67384514D01*
X172268761Y-67289276D01*
X172221142Y-67241657D01*
X160305738Y-113093119D02*
X160400976Y-113045500D01*
X160496214Y-112950261D01*
X160639071Y-112807404D01*
X160734309Y-112759785D01*
X160829547Y-112759785D01*
X160781928Y-112997880D02*
X160877166Y-112950261D01*
X160972404Y-112855023D01*
X161020023Y-112664547D01*
X161020023Y-112331214D01*
X160972404Y-112140738D01*
X160877166Y-112045500D01*
X160781928Y-111997880D01*
X160591452Y-111997880D01*
X160496214Y-112045500D01*
X160400976Y-112140738D01*
X160353357Y-112331214D01*
X160353357Y-112664547D01*
X160400976Y-112855023D01*
X160496214Y-112950261D01*
X160591452Y-112997880D01*
X160781928Y-112997880D01*
X159496214Y-111997880D02*
X159686690Y-111997880D01*
X159781928Y-112045500D01*
X159829547Y-112093119D01*
X159924785Y-112235976D01*
X159972404Y-112426452D01*
X159972404Y-112807404D01*
X159924785Y-112902642D01*
X159877166Y-112950261D01*
X159781928Y-112997880D01*
X159591452Y-112997880D01*
X159496214Y-112950261D01*
X159448595Y-112902642D01*
X159400976Y-112807404D01*
X159400976Y-112569309D01*
X159448595Y-112474071D01*
X159496214Y-112426452D01*
X159591452Y-112378833D01*
X159781928Y-112378833D01*
X159877166Y-112426452D01*
X159924785Y-112474071D01*
X159972404Y-112569309D01*
X144621238Y-106061119D02*
X144716476Y-106013500D01*
X144811714Y-105918261D01*
X144954571Y-105775404D01*
X145049809Y-105727785D01*
X145145047Y-105727785D01*
X145097428Y-105965880D02*
X145192666Y-105918261D01*
X145287904Y-105823023D01*
X145335523Y-105632547D01*
X145335523Y-105299214D01*
X145287904Y-105108738D01*
X145192666Y-105013500D01*
X145097428Y-104965880D01*
X144906952Y-104965880D01*
X144811714Y-105013500D01*
X144716476Y-105108738D01*
X144668857Y-105299214D01*
X144668857Y-105632547D01*
X144716476Y-105823023D01*
X144811714Y-105918261D01*
X144906952Y-105965880D01*
X145097428Y-105965880D01*
X143764095Y-104965880D02*
X144240285Y-104965880D01*
X144287904Y-105442071D01*
X144240285Y-105394452D01*
X144145047Y-105346833D01*
X143906952Y-105346833D01*
X143811714Y-105394452D01*
X143764095Y-105442071D01*
X143716476Y-105537309D01*
X143716476Y-105775404D01*
X143764095Y-105870642D01*
X143811714Y-105918261D01*
X143906952Y-105965880D01*
X144145047Y-105965880D01*
X144240285Y-105918261D01*
X144287904Y-105870642D01*
X146018238Y-110315619D02*
X146113476Y-110268000D01*
X146208714Y-110172761D01*
X146351571Y-110029904D01*
X146446809Y-109982285D01*
X146542047Y-109982285D01*
X146494428Y-110220380D02*
X146589666Y-110172761D01*
X146684904Y-110077523D01*
X146732523Y-109887047D01*
X146732523Y-109553714D01*
X146684904Y-109363238D01*
X146589666Y-109268000D01*
X146494428Y-109220380D01*
X146303952Y-109220380D01*
X146208714Y-109268000D01*
X146113476Y-109363238D01*
X146065857Y-109553714D01*
X146065857Y-109887047D01*
X146113476Y-110077523D01*
X146208714Y-110172761D01*
X146303952Y-110220380D01*
X146494428Y-110220380D01*
X145732523Y-109220380D02*
X145113476Y-109220380D01*
X145446809Y-109601333D01*
X145303952Y-109601333D01*
X145208714Y-109648952D01*
X145161095Y-109696571D01*
X145113476Y-109791809D01*
X145113476Y-110029904D01*
X145161095Y-110125142D01*
X145208714Y-110172761D01*
X145303952Y-110220380D01*
X145589666Y-110220380D01*
X145684904Y-110172761D01*
X145732523Y-110125142D01*
X151923738Y-111395119D02*
X152018976Y-111347500D01*
X152114214Y-111252261D01*
X152257071Y-111109404D01*
X152352309Y-111061785D01*
X152447547Y-111061785D01*
X152399928Y-111299880D02*
X152495166Y-111252261D01*
X152590404Y-111157023D01*
X152638023Y-110966547D01*
X152638023Y-110633214D01*
X152590404Y-110442738D01*
X152495166Y-110347500D01*
X152399928Y-110299880D01*
X152209452Y-110299880D01*
X152114214Y-110347500D01*
X152018976Y-110442738D01*
X151971357Y-110633214D01*
X151971357Y-110966547D01*
X152018976Y-111157023D01*
X152114214Y-111252261D01*
X152209452Y-111299880D01*
X152399928Y-111299880D01*
X151018976Y-111299880D02*
X151590404Y-111299880D01*
X151304690Y-111299880D02*
X151304690Y-110299880D01*
X151399928Y-110442738D01*
X151495166Y-110537976D01*
X151590404Y-110585595D01*
X144396380Y-111942642D02*
X143920190Y-111609309D01*
X144396380Y-111371214D02*
X143396380Y-111371214D01*
X143396380Y-111752166D01*
X143444000Y-111847404D01*
X143491619Y-111895023D01*
X143586857Y-111942642D01*
X143729714Y-111942642D01*
X143824952Y-111895023D01*
X143872571Y-111847404D01*
X143920190Y-111752166D01*
X143920190Y-111371214D01*
X144396380Y-112895023D02*
X144396380Y-112323595D01*
X144396380Y-112609309D02*
X143396380Y-112609309D01*
X143539238Y-112514071D01*
X143634476Y-112418833D01*
X143682095Y-112323595D01*
X144396380Y-113371214D02*
X144396380Y-113561690D01*
X144348761Y-113656928D01*
X144301142Y-113704547D01*
X144158285Y-113799785D01*
X143967809Y-113847404D01*
X143586857Y-113847404D01*
X143491619Y-113799785D01*
X143444000Y-113752166D01*
X143396380Y-113656928D01*
X143396380Y-113466452D01*
X143444000Y-113371214D01*
X143491619Y-113323595D01*
X143586857Y-113275976D01*
X143824952Y-113275976D01*
X143920190Y-113323595D01*
X143967809Y-113371214D01*
X144015428Y-113466452D01*
X144015428Y-113656928D01*
X143967809Y-113752166D01*
X143920190Y-113799785D01*
X143824952Y-113847404D01*
X175807595Y-107608880D02*
X175807595Y-106608880D01*
X175569500Y-106608880D01*
X175426642Y-106656500D01*
X175331404Y-106751738D01*
X175283785Y-106846976D01*
X175236166Y-107037452D01*
X175236166Y-107180309D01*
X175283785Y-107370785D01*
X175331404Y-107466023D01*
X175426642Y-107561261D01*
X175569500Y-107608880D01*
X175807595Y-107608880D01*
X174283785Y-107608880D02*
X174855214Y-107608880D01*
X174569500Y-107608880D02*
X174569500Y-106608880D01*
X174664738Y-106751738D01*
X174759976Y-106846976D01*
X174855214Y-106894595D01*
X147677095Y-114276380D02*
X147677095Y-113276380D01*
X147439000Y-113276380D01*
X147296142Y-113324000D01*
X147200904Y-113419238D01*
X147153285Y-113514476D01*
X147105666Y-113704952D01*
X147105666Y-113847809D01*
X147153285Y-114038285D01*
X147200904Y-114133523D01*
X147296142Y-114228761D01*
X147439000Y-114276380D01*
X147677095Y-114276380D01*
X146724714Y-113371619D02*
X146677095Y-113324000D01*
X146581857Y-113276380D01*
X146343761Y-113276380D01*
X146248523Y-113324000D01*
X146200904Y-113371619D01*
X146153285Y-113466857D01*
X146153285Y-113562095D01*
X146200904Y-113704952D01*
X146772333Y-114276380D01*
X146153285Y-114276380D01*
X166695357Y-109174880D02*
X167028690Y-108698690D01*
X167266785Y-109174880D02*
X167266785Y-108174880D01*
X166885833Y-108174880D01*
X166790595Y-108222500D01*
X166742976Y-108270119D01*
X166695357Y-108365357D01*
X166695357Y-108508214D01*
X166742976Y-108603452D01*
X166790595Y-108651071D01*
X166885833Y-108698690D01*
X167266785Y-108698690D01*
X166314404Y-108270119D02*
X166266785Y-108222500D01*
X166171547Y-108174880D01*
X165933452Y-108174880D01*
X165838214Y-108222500D01*
X165790595Y-108270119D01*
X165742976Y-108365357D01*
X165742976Y-108460595D01*
X165790595Y-108603452D01*
X166362023Y-109174880D01*
X165742976Y-109174880D01*
X165266785Y-109174880D02*
X165076309Y-109174880D01*
X164981071Y-109127261D01*
X164933452Y-109079642D01*
X164838214Y-108936785D01*
X164790595Y-108746309D01*
X164790595Y-108365357D01*
X164838214Y-108270119D01*
X164885833Y-108222500D01*
X164981071Y-108174880D01*
X165171547Y-108174880D01*
X165266785Y-108222500D01*
X165314404Y-108270119D01*
X165362023Y-108365357D01*
X165362023Y-108603452D01*
X165314404Y-108698690D01*
X165266785Y-108746309D01*
X165171547Y-108793928D01*
X164981071Y-108793928D01*
X164885833Y-108746309D01*
X164838214Y-108698690D01*
X164790595Y-108603452D01*
X139707857Y-110868380D02*
X140041190Y-110392190D01*
X140279285Y-110868380D02*
X140279285Y-109868380D01*
X139898333Y-109868380D01*
X139803095Y-109916000D01*
X139755476Y-109963619D01*
X139707857Y-110058857D01*
X139707857Y-110201714D01*
X139755476Y-110296952D01*
X139803095Y-110344571D01*
X139898333Y-110392190D01*
X140279285Y-110392190D01*
X139326904Y-109963619D02*
X139279285Y-109916000D01*
X139184047Y-109868380D01*
X138945952Y-109868380D01*
X138850714Y-109916000D01*
X138803095Y-109963619D01*
X138755476Y-110058857D01*
X138755476Y-110154095D01*
X138803095Y-110296952D01*
X139374523Y-110868380D01*
X138755476Y-110868380D01*
X138422142Y-109868380D02*
X137803095Y-109868380D01*
X138136428Y-110249333D01*
X137993571Y-110249333D01*
X137898333Y-110296952D01*
X137850714Y-110344571D01*
X137803095Y-110439809D01*
X137803095Y-110677904D01*
X137850714Y-110773142D01*
X137898333Y-110820761D01*
X137993571Y-110868380D01*
X138279285Y-110868380D01*
X138374523Y-110820761D01*
X138422142Y-110773142D01*
X140152357Y-114424380D02*
X140485690Y-113948190D01*
X140723785Y-114424380D02*
X140723785Y-113424380D01*
X140342833Y-113424380D01*
X140247595Y-113472000D01*
X140199976Y-113519619D01*
X140152357Y-113614857D01*
X140152357Y-113757714D01*
X140199976Y-113852952D01*
X140247595Y-113900571D01*
X140342833Y-113948190D01*
X140723785Y-113948190D01*
X139771404Y-113519619D02*
X139723785Y-113472000D01*
X139628547Y-113424380D01*
X139390452Y-113424380D01*
X139295214Y-113472000D01*
X139247595Y-113519619D01*
X139199976Y-113614857D01*
X139199976Y-113710095D01*
X139247595Y-113852952D01*
X139819023Y-114424380D01*
X139199976Y-114424380D01*
X138247595Y-114424380D02*
X138819023Y-114424380D01*
X138533309Y-114424380D02*
X138533309Y-113424380D01*
X138628547Y-113567238D01*
X138723785Y-113662476D01*
X138819023Y-113710095D01*
X143443880Y-108132642D02*
X142967690Y-107799309D01*
X143443880Y-107561214D02*
X142443880Y-107561214D01*
X142443880Y-107942166D01*
X142491500Y-108037404D01*
X142539119Y-108085023D01*
X142634357Y-108132642D01*
X142777214Y-108132642D01*
X142872452Y-108085023D01*
X142920071Y-108037404D01*
X142967690Y-107942166D01*
X142967690Y-107561214D01*
X143443880Y-109085023D02*
X143443880Y-108513595D01*
X143443880Y-108799309D02*
X142443880Y-108799309D01*
X142586738Y-108704071D01*
X142681976Y-108608833D01*
X142729595Y-108513595D01*
X142872452Y-109656452D02*
X142824833Y-109561214D01*
X142777214Y-109513595D01*
X142681976Y-109465976D01*
X142634357Y-109465976D01*
X142539119Y-109513595D01*
X142491500Y-109561214D01*
X142443880Y-109656452D01*
X142443880Y-109846928D01*
X142491500Y-109942166D01*
X142539119Y-109989785D01*
X142634357Y-110037404D01*
X142681976Y-110037404D01*
X142777214Y-109989785D01*
X142824833Y-109942166D01*
X142872452Y-109846928D01*
X142872452Y-109656452D01*
X142920071Y-109561214D01*
X142967690Y-109513595D01*
X143062928Y-109465976D01*
X143253404Y-109465976D01*
X143348642Y-109513595D01*
X143396261Y-109561214D01*
X143443880Y-109656452D01*
X143443880Y-109846928D01*
X143396261Y-109942166D01*
X143348642Y-109989785D01*
X143253404Y-110037404D01*
X143062928Y-110037404D01*
X142967690Y-109989785D01*
X142920071Y-109942166D01*
X142872452Y-109846928D01*
X156609380Y-107942142D02*
X156133190Y-107608809D01*
X156609380Y-107370714D02*
X155609380Y-107370714D01*
X155609380Y-107751666D01*
X155657000Y-107846904D01*
X155704619Y-107894523D01*
X155799857Y-107942142D01*
X155942714Y-107942142D01*
X156037952Y-107894523D01*
X156085571Y-107846904D01*
X156133190Y-107751666D01*
X156133190Y-107370714D01*
X155704619Y-108323095D02*
X155657000Y-108370714D01*
X155609380Y-108465952D01*
X155609380Y-108704047D01*
X155657000Y-108799285D01*
X155704619Y-108846904D01*
X155799857Y-108894523D01*
X155895095Y-108894523D01*
X156037952Y-108846904D01*
X156609380Y-108275476D01*
X156609380Y-108894523D01*
X155942714Y-109751666D02*
X156609380Y-109751666D01*
X155561761Y-109513571D02*
X156276047Y-109275476D01*
X156276047Y-109894523D01*
X143390857Y-118170880D02*
X143724190Y-117694690D01*
X143962285Y-118170880D02*
X143962285Y-117170880D01*
X143581333Y-117170880D01*
X143486095Y-117218500D01*
X143438476Y-117266119D01*
X143390857Y-117361357D01*
X143390857Y-117504214D01*
X143438476Y-117599452D01*
X143486095Y-117647071D01*
X143581333Y-117694690D01*
X143962285Y-117694690D01*
X142438476Y-118170880D02*
X143009904Y-118170880D01*
X142724190Y-118170880D02*
X142724190Y-117170880D01*
X142819428Y-117313738D01*
X142914666Y-117408976D01*
X143009904Y-117456595D01*
X141819428Y-117170880D02*
X141724190Y-117170880D01*
X141628952Y-117218500D01*
X141581333Y-117266119D01*
X141533714Y-117361357D01*
X141486095Y-117551833D01*
X141486095Y-117789928D01*
X141533714Y-117980404D01*
X141581333Y-118075642D01*
X141628952Y-118123261D01*
X141724190Y-118170880D01*
X141819428Y-118170880D01*
X141914666Y-118123261D01*
X141962285Y-118075642D01*
X142009904Y-117980404D01*
X142057523Y-117789928D01*
X142057523Y-117551833D01*
X142009904Y-117361357D01*
X141962285Y-117266119D01*
X141914666Y-117218500D01*
X141819428Y-117170880D01*
X150873380Y-110926642D02*
X150397190Y-110593309D01*
X150873380Y-110355214D02*
X149873380Y-110355214D01*
X149873380Y-110736166D01*
X149921000Y-110831404D01*
X149968619Y-110879023D01*
X150063857Y-110926642D01*
X150206714Y-110926642D01*
X150301952Y-110879023D01*
X150349571Y-110831404D01*
X150397190Y-110736166D01*
X150397190Y-110355214D01*
X150873380Y-111879023D02*
X150873380Y-111307595D01*
X150873380Y-111593309D02*
X149873380Y-111593309D01*
X150016238Y-111498071D01*
X150111476Y-111402833D01*
X150159095Y-111307595D01*
X150206714Y-112736166D02*
X150873380Y-112736166D01*
X149825761Y-112498071D02*
X150540047Y-112259976D01*
X150540047Y-112879023D01*
X151762380Y-106640333D02*
X151286190Y-106307000D01*
X151762380Y-106068904D02*
X150762380Y-106068904D01*
X150762380Y-106449857D01*
X150810000Y-106545095D01*
X150857619Y-106592714D01*
X150952857Y-106640333D01*
X151095714Y-106640333D01*
X151190952Y-106592714D01*
X151238571Y-106545095D01*
X151286190Y-106449857D01*
X151286190Y-106068904D01*
X150762380Y-106973666D02*
X150762380Y-107640333D01*
X151762380Y-107211761D01*
M02*
