G04 #@! TF.GenerationSoftware,KiCad,Pcbnew,(5.1.5)-3*
G04 #@! TF.CreationDate,2020-04-30T00:21:43-07:00*
G04 #@! TF.ProjectId,DashSight-Mezzanine-Card,44617368-5369-4676-9874-2d4d657a7a61,rev?*
G04 #@! TF.SameCoordinates,Original*
G04 #@! TF.FileFunction,Copper,L3,Inr*
G04 #@! TF.FilePolarity,Positive*
%FSLAX46Y46*%
G04 Gerber Fmt 4.6, Leading zero omitted, Abs format (unit mm)*
G04 Created by KiCad (PCBNEW (5.1.5)-3) date 2020-04-30 00:21:43*
%MOMM*%
%LPD*%
G04 APERTURE LIST*
%ADD10C,1.500000*%
%ADD11R,1.500000X1.050000*%
%ADD12O,1.500000X1.050000*%
%ADD13O,1.600000X1.600000*%
%ADD14R,1.600000X1.600000*%
%ADD15O,1.700000X1.700000*%
%ADD16R,1.700000X1.700000*%
%ADD17C,2.250000*%
%ADD18C,2.050000*%
%ADD19O,1.000000X1.000000*%
%ADD20R,1.000000X1.000000*%
%ADD21R,0.850000X0.850000*%
%ADD22C,1.200000*%
%ADD23R,1.200000X1.200000*%
%ADD24R,1.050000X1.500000*%
%ADD25O,1.050000X1.500000*%
%ADD26C,1.600000*%
%ADD27C,4.000000*%
%ADD28C,0.600000*%
%ADD29C,0.800000*%
%ADD30C,1.000000*%
%ADD31C,0.254000*%
G04 APERTURE END LIST*
D10*
X145869000Y-87439500D03*
X150749000Y-87439500D03*
D11*
X165417500Y-115189000D03*
D12*
X165417500Y-112649000D03*
X165417500Y-113919000D03*
D13*
X180784500Y-97853500D03*
X173164500Y-105473500D03*
X180784500Y-100393500D03*
X173164500Y-102933500D03*
X180784500Y-102933500D03*
X173164500Y-100393500D03*
X180784500Y-105473500D03*
D14*
X173164500Y-97853500D03*
D15*
X181737000Y-113030000D03*
D16*
X184277000Y-113030000D03*
D15*
X181737000Y-116713000D03*
D16*
X184277000Y-116713000D03*
D15*
X197866000Y-120523000D03*
X197866000Y-123063000D03*
X195326000Y-120523000D03*
X195326000Y-123063000D03*
X192786000Y-120523000D03*
X192786000Y-123063000D03*
X190246000Y-120523000D03*
X190246000Y-123063000D03*
X187706000Y-120523000D03*
D16*
X187706000Y-123063000D03*
D17*
X131064000Y-55118000D03*
X131064000Y-50038000D03*
X136144000Y-50038000D03*
X136144000Y-55118000D03*
D18*
X133604000Y-52578000D03*
D15*
X181640000Y-120460000D03*
X181640000Y-123000000D03*
X179100000Y-120460000D03*
X179100000Y-123000000D03*
X176560000Y-120460000D03*
X176560000Y-123000000D03*
X174020000Y-120460000D03*
X174020000Y-123000000D03*
X171480000Y-120460000D03*
X171480000Y-123000000D03*
X168940000Y-120460000D03*
X168940000Y-123000000D03*
X166400000Y-120460000D03*
X166400000Y-123000000D03*
X163860000Y-120460000D03*
X163860000Y-123000000D03*
X161320000Y-120460000D03*
X161320000Y-123000000D03*
X158780000Y-120460000D03*
X158780000Y-123000000D03*
X156240000Y-120460000D03*
X156240000Y-123000000D03*
X153700000Y-120460000D03*
X153700000Y-123000000D03*
X151160000Y-120460000D03*
X151160000Y-123000000D03*
X148620000Y-120460000D03*
X148620000Y-123000000D03*
X146080000Y-120460000D03*
X146080000Y-123000000D03*
X143540000Y-120460000D03*
X143540000Y-123000000D03*
X141000000Y-120460000D03*
D16*
X141000000Y-123000000D03*
D15*
X195199000Y-48276000D03*
X195199000Y-50816000D03*
X192659000Y-48276000D03*
X192659000Y-50816000D03*
X190119000Y-48276000D03*
X190119000Y-50816000D03*
X187579000Y-48276000D03*
X187579000Y-50816000D03*
X185039000Y-48276000D03*
X185039000Y-50816000D03*
X182499000Y-48276000D03*
X182499000Y-50816000D03*
X179959000Y-48276000D03*
X179959000Y-50816000D03*
X177419000Y-48276000D03*
X177419000Y-50816000D03*
X174879000Y-48276000D03*
X174879000Y-50816000D03*
X172339000Y-48276000D03*
X172339000Y-50816000D03*
X169799000Y-48276000D03*
X169799000Y-50816000D03*
X167259000Y-48276000D03*
X167259000Y-50816000D03*
X164719000Y-48276000D03*
X164719000Y-50816000D03*
X162179000Y-48276000D03*
X162179000Y-50816000D03*
X159639000Y-48276000D03*
X159639000Y-50816000D03*
X157099000Y-48276000D03*
X157099000Y-50816000D03*
X154559000Y-48276000D03*
X154559000Y-50816000D03*
X152019000Y-48276000D03*
X152019000Y-50816000D03*
X149479000Y-48276000D03*
X149479000Y-50816000D03*
X146939000Y-48276000D03*
D16*
X146939000Y-50816000D03*
D19*
X178714400Y-55168800D03*
X177444400Y-55168800D03*
D20*
X176174400Y-55168800D03*
D19*
X178714400Y-58394600D03*
X177444400Y-58394600D03*
D20*
X176174400Y-58394600D03*
D21*
X151028400Y-54711600D03*
X151536400Y-58420000D03*
D22*
X173048800Y-64617600D03*
D23*
X174548800Y-64617600D03*
D24*
X171704000Y-114998500D03*
D25*
X169164000Y-114998500D03*
X170434000Y-114998500D03*
D26*
X177823500Y-115252500D03*
D14*
X175323500Y-115252500D03*
D15*
X192278000Y-116078000D03*
D16*
X192278000Y-113538000D03*
D15*
X195961000Y-116078000D03*
D16*
X195961000Y-113538000D03*
D27*
X186545500Y-82099500D03*
X186545500Y-107099500D03*
D26*
X189085500Y-90444500D03*
X189085500Y-93214500D03*
X189085500Y-95984500D03*
X189085500Y-98754500D03*
X186245500Y-89059500D03*
X186245500Y-91829500D03*
X186245500Y-94599500D03*
X186245500Y-97369500D03*
D14*
X186245500Y-100139500D03*
X168973500Y-94361000D03*
D13*
X135953500Y-101981000D03*
X166433500Y-94361000D03*
X138493500Y-101981000D03*
X163893500Y-94361000D03*
X141033500Y-101981000D03*
X161353500Y-94361000D03*
X143573500Y-101981000D03*
X158813500Y-94361000D03*
X146113500Y-101981000D03*
X156273500Y-94361000D03*
X148653500Y-101981000D03*
X153733500Y-94361000D03*
X151193500Y-101981000D03*
X151193500Y-94361000D03*
X153733500Y-101981000D03*
X148653500Y-94361000D03*
X156273500Y-101981000D03*
X146113500Y-94361000D03*
X158813500Y-101981000D03*
X143573500Y-94361000D03*
X161353500Y-101981000D03*
X141033500Y-94361000D03*
X163893500Y-101981000D03*
X138493500Y-94361000D03*
X166433500Y-101981000D03*
X135953500Y-94361000D03*
X168973500Y-101981000D03*
D28*
X149313900Y-53276500D03*
X138480800Y-55422800D03*
D29*
X193090800Y-59740800D03*
X193090800Y-67691000D03*
X193014600Y-75869800D03*
X179781200Y-67462400D03*
D30*
X180441600Y-69850000D03*
X177342800Y-64566800D03*
D22*
X171119800Y-53340000D03*
D28*
X149720300Y-56984900D03*
X149720300Y-58013600D03*
X149771100Y-59778900D03*
X149313900Y-54495700D03*
X151091900Y-53124100D03*
X152552400Y-54508400D03*
X152615900Y-56426100D03*
X151498300Y-59880500D03*
D22*
X163576000Y-53695600D03*
D29*
X143065500Y-105473500D03*
X143002000Y-110553500D03*
X165163500Y-107378500D03*
X153289000Y-109918500D03*
X142748000Y-91567000D03*
X133667500Y-106934000D03*
X172085000Y-90233500D03*
X177546000Y-94615000D03*
D28*
X144589500Y-74549000D03*
X147574000Y-74549000D03*
X149923500Y-73469500D03*
X151828500Y-71501000D03*
X154051000Y-69215000D03*
X155956000Y-66230500D03*
X156718000Y-62547500D03*
X142557500Y-73469500D03*
D30*
X137922000Y-115443000D03*
X137795000Y-119761000D03*
X133731000Y-73279000D03*
D29*
X138620500Y-58356500D03*
D28*
X135128000Y-57277000D03*
X131953000Y-57150000D03*
D30*
X144018000Y-51054000D03*
D28*
X137795000Y-51562000D03*
X137795000Y-52832000D03*
X138684000Y-51054000D03*
X138684000Y-53340000D03*
X132715000Y-48133000D03*
X134493000Y-48133000D03*
X129159000Y-51308000D03*
X129159000Y-53340000D03*
X132715000Y-60198000D03*
X133858000Y-60198000D03*
X134874000Y-60198000D03*
X134366000Y-56769000D03*
X132842000Y-56769000D03*
X131826000Y-57912000D03*
X131826000Y-59309000D03*
D30*
X148590000Y-71755000D03*
D28*
X155956000Y-54800500D03*
X156019500Y-59372500D03*
D29*
X142049500Y-106680000D03*
X182435500Y-109093000D03*
X193090800Y-58445400D03*
X193141600Y-66344800D03*
X192989200Y-74599800D03*
D22*
X167195500Y-53733700D03*
D29*
X175768000Y-77165200D03*
X167944800Y-65328800D03*
X171653200Y-67868800D03*
X177241200Y-67564000D03*
D30*
X139446000Y-117195600D03*
X147878800Y-54305200D03*
X145999200Y-54305200D03*
X194564000Y-108394500D03*
D29*
X152844500Y-116840000D03*
D30*
X139192000Y-75692000D03*
X145542000Y-72644000D03*
X145796000Y-56896000D03*
X192214500Y-108458000D03*
D29*
X157797500Y-112966500D03*
X190779400Y-73812400D03*
X173786800Y-70408800D03*
X191643000Y-56565800D03*
X173837600Y-68986400D03*
D31*
G36*
X137198972Y-53558262D02*
G01*
X137352111Y-53660586D01*
X137522271Y-53731068D01*
X137702911Y-53767000D01*
X137848833Y-53767000D01*
X137855414Y-53782889D01*
X137957738Y-53936028D01*
X138087972Y-54066262D01*
X138241111Y-54168586D01*
X138411271Y-54239068D01*
X138591911Y-54275000D01*
X138776089Y-54275000D01*
X138956729Y-54239068D01*
X139126889Y-54168586D01*
X139280028Y-54066262D01*
X139410262Y-53936028D01*
X139512586Y-53782889D01*
X139583068Y-53612729D01*
X139612056Y-53467000D01*
X148398475Y-53467000D01*
X148414832Y-53549229D01*
X148485314Y-53719389D01*
X148587638Y-53872528D01*
X148601210Y-53886100D01*
X148587638Y-53899672D01*
X148485314Y-54052811D01*
X148414832Y-54222971D01*
X148378900Y-54403611D01*
X148378900Y-54587789D01*
X148414832Y-54768429D01*
X148485314Y-54938589D01*
X148587638Y-55091728D01*
X148717872Y-55221962D01*
X148871011Y-55324286D01*
X149041171Y-55394768D01*
X149221811Y-55430700D01*
X149405989Y-55430700D01*
X149586629Y-55394768D01*
X149756789Y-55324286D01*
X149909928Y-55221962D01*
X149968014Y-55163876D01*
X149977588Y-55261082D01*
X150013898Y-55380780D01*
X150072863Y-55491094D01*
X150152215Y-55587785D01*
X150248906Y-55667137D01*
X150359220Y-55726102D01*
X150478918Y-55762412D01*
X150603400Y-55774672D01*
X151453400Y-55774672D01*
X151577882Y-55762412D01*
X151697580Y-55726102D01*
X151807894Y-55667137D01*
X151904585Y-55587785D01*
X151983937Y-55491094D01*
X152042902Y-55380780D01*
X152065174Y-55307361D01*
X152109511Y-55336986D01*
X152279671Y-55407468D01*
X152460311Y-55443400D01*
X152644489Y-55443400D01*
X152825129Y-55407468D01*
X152995289Y-55336986D01*
X153148428Y-55234662D01*
X153278662Y-55104428D01*
X153380986Y-54951289D01*
X153451468Y-54781129D01*
X153465932Y-54708411D01*
X155021000Y-54708411D01*
X155021000Y-54892589D01*
X155056932Y-55073229D01*
X155127414Y-55243389D01*
X155229738Y-55396528D01*
X155359972Y-55526762D01*
X155513111Y-55629086D01*
X155683271Y-55699568D01*
X155863911Y-55735500D01*
X156048089Y-55735500D01*
X156228729Y-55699568D01*
X156398889Y-55629086D01*
X156552028Y-55526762D01*
X156682262Y-55396528D01*
X156784586Y-55243389D01*
X156855068Y-55073229D01*
X156891000Y-54892589D01*
X156891000Y-54708411D01*
X156855068Y-54527771D01*
X156784586Y-54357611D01*
X156682262Y-54204472D01*
X156552028Y-54074238D01*
X156398889Y-53971914D01*
X156228729Y-53901432D01*
X156048089Y-53865500D01*
X155863911Y-53865500D01*
X155683271Y-53901432D01*
X155513111Y-53971914D01*
X155359972Y-54074238D01*
X155229738Y-54204472D01*
X155127414Y-54357611D01*
X155056932Y-54527771D01*
X155021000Y-54708411D01*
X153465932Y-54708411D01*
X153487400Y-54600489D01*
X153487400Y-54416311D01*
X153451468Y-54235671D01*
X153380986Y-54065511D01*
X153278662Y-53912372D01*
X153148428Y-53782138D01*
X152995289Y-53679814D01*
X152825129Y-53609332D01*
X152644489Y-53573400D01*
X152460311Y-53573400D01*
X152279671Y-53609332D01*
X152109511Y-53679814D01*
X151956372Y-53782138D01*
X151903767Y-53834743D01*
X151807894Y-53756063D01*
X151791168Y-53747122D01*
X151818162Y-53720128D01*
X151920486Y-53566989D01*
X151961902Y-53467000D01*
X162362276Y-53467000D01*
X162341000Y-53573963D01*
X162341000Y-53817237D01*
X162388460Y-54055836D01*
X162481557Y-54280592D01*
X162616713Y-54482867D01*
X162788733Y-54654887D01*
X162991008Y-54790043D01*
X163215764Y-54883140D01*
X163454363Y-54930600D01*
X163697637Y-54930600D01*
X163936236Y-54883140D01*
X164160992Y-54790043D01*
X164342444Y-54668800D01*
X175036328Y-54668800D01*
X175036328Y-55668800D01*
X175048588Y-55793282D01*
X175084898Y-55912980D01*
X175143863Y-56023294D01*
X175223215Y-56119985D01*
X175319906Y-56199337D01*
X175430220Y-56258302D01*
X175549918Y-56294612D01*
X175674400Y-56306872D01*
X176674400Y-56306872D01*
X176798882Y-56294612D01*
X176918580Y-56258302D01*
X177001626Y-56213912D01*
X177113333Y-56260183D01*
X177332612Y-56303800D01*
X177556188Y-56303800D01*
X177775467Y-56260183D01*
X177982024Y-56174624D01*
X178084058Y-56106447D01*
X178154194Y-56155923D01*
X178357536Y-56246246D01*
X178412526Y-56262919D01*
X178587400Y-56136754D01*
X178587400Y-55295800D01*
X178841400Y-55295800D01*
X178841400Y-56136754D01*
X179016274Y-56262919D01*
X179071264Y-56246246D01*
X179274606Y-56155923D01*
X179456420Y-56027665D01*
X179609718Y-55866401D01*
X179728610Y-55678329D01*
X179808526Y-55470676D01*
X179683529Y-55295800D01*
X178841400Y-55295800D01*
X178587400Y-55295800D01*
X178576374Y-55295800D01*
X178579400Y-55280588D01*
X178579400Y-55057012D01*
X178576374Y-55041800D01*
X178587400Y-55041800D01*
X178587400Y-54200846D01*
X178841400Y-54200846D01*
X178841400Y-55041800D01*
X179683529Y-55041800D01*
X179808526Y-54866924D01*
X179728610Y-54659271D01*
X179609718Y-54471199D01*
X179456420Y-54309935D01*
X179274606Y-54181677D01*
X179071264Y-54091354D01*
X179016274Y-54074681D01*
X178841400Y-54200846D01*
X178587400Y-54200846D01*
X178412526Y-54074681D01*
X178357536Y-54091354D01*
X178154194Y-54181677D01*
X178084058Y-54231153D01*
X177982024Y-54162976D01*
X177775467Y-54077417D01*
X177556188Y-54033800D01*
X177332612Y-54033800D01*
X177113333Y-54077417D01*
X177001626Y-54123688D01*
X176918580Y-54079298D01*
X176798882Y-54042988D01*
X176674400Y-54030728D01*
X175674400Y-54030728D01*
X175549918Y-54042988D01*
X175430220Y-54079298D01*
X175319906Y-54138263D01*
X175223215Y-54217615D01*
X175143863Y-54314306D01*
X175084898Y-54424620D01*
X175048588Y-54544318D01*
X175036328Y-54668800D01*
X164342444Y-54668800D01*
X164363267Y-54654887D01*
X164535287Y-54482867D01*
X164670443Y-54280592D01*
X164763540Y-54055836D01*
X164811000Y-53817237D01*
X164811000Y-53573963D01*
X164789724Y-53467000D01*
X169885867Y-53467000D01*
X169932260Y-53700236D01*
X170025357Y-53924992D01*
X170160513Y-54127267D01*
X170332533Y-54299287D01*
X170534808Y-54434443D01*
X170759564Y-54527540D01*
X170998163Y-54575000D01*
X171241437Y-54575000D01*
X171480036Y-54527540D01*
X171704792Y-54434443D01*
X171907067Y-54299287D01*
X172079087Y-54127267D01*
X172214243Y-53924992D01*
X172307340Y-53700236D01*
X172353733Y-53467000D01*
X196723000Y-53467000D01*
X196723000Y-112050407D01*
X196246750Y-112053000D01*
X196088000Y-112211750D01*
X196088000Y-113411000D01*
X196108000Y-113411000D01*
X196108000Y-113665000D01*
X196088000Y-113665000D01*
X196088000Y-113685000D01*
X195834000Y-113685000D01*
X195834000Y-113665000D01*
X194634750Y-113665000D01*
X194476000Y-113823750D01*
X194472928Y-114388000D01*
X194485188Y-114512482D01*
X194521498Y-114632180D01*
X194580463Y-114742494D01*
X194659815Y-114839185D01*
X194756506Y-114918537D01*
X194866820Y-114977502D01*
X194939380Y-114999513D01*
X194807525Y-115131368D01*
X194645010Y-115374589D01*
X194533068Y-115644842D01*
X194476000Y-115931740D01*
X194476000Y-116224260D01*
X194533068Y-116511158D01*
X194645010Y-116781411D01*
X194807525Y-117024632D01*
X195014368Y-117231475D01*
X195257589Y-117393990D01*
X195527842Y-117505932D01*
X195814740Y-117563000D01*
X196107260Y-117563000D01*
X196394158Y-117505932D01*
X196664411Y-117393990D01*
X196723000Y-117354842D01*
X196723000Y-117983000D01*
X185603778Y-117983000D01*
X185657537Y-117917494D01*
X185716502Y-117807180D01*
X185752812Y-117687482D01*
X185765072Y-117563000D01*
X185765072Y-115863000D01*
X185752812Y-115738518D01*
X185716502Y-115618820D01*
X185657537Y-115508506D01*
X185578185Y-115411815D01*
X185481494Y-115332463D01*
X185371180Y-115273498D01*
X185251482Y-115237188D01*
X185127000Y-115224928D01*
X183427000Y-115224928D01*
X183302518Y-115237188D01*
X183182820Y-115273498D01*
X183072506Y-115332463D01*
X182975815Y-115411815D01*
X182896463Y-115508506D01*
X182837498Y-115618820D01*
X182815487Y-115691380D01*
X182683632Y-115559525D01*
X182440411Y-115397010D01*
X182170158Y-115285068D01*
X181883260Y-115228000D01*
X181590740Y-115228000D01*
X181303842Y-115285068D01*
X181033589Y-115397010D01*
X180790368Y-115559525D01*
X180583525Y-115766368D01*
X180421010Y-116009589D01*
X180309068Y-116279842D01*
X180252000Y-116566740D01*
X180252000Y-116859260D01*
X180309068Y-117146158D01*
X180421010Y-117416411D01*
X180583525Y-117659632D01*
X180790368Y-117866475D01*
X180964760Y-117983000D01*
X130937000Y-117983000D01*
X130937000Y-115331212D01*
X136787000Y-115331212D01*
X136787000Y-115554788D01*
X136830617Y-115774067D01*
X136916176Y-115980624D01*
X137040388Y-116166520D01*
X137198480Y-116324612D01*
X137384376Y-116448824D01*
X137590933Y-116534383D01*
X137810212Y-116578000D01*
X138033788Y-116578000D01*
X138253067Y-116534383D01*
X138459624Y-116448824D01*
X138645520Y-116324612D01*
X138803612Y-116166520D01*
X138927824Y-115980624D01*
X139013383Y-115774067D01*
X139057000Y-115554788D01*
X139057000Y-115331212D01*
X139013383Y-115111933D01*
X138927824Y-114905376D01*
X138803612Y-114719480D01*
X138645520Y-114561388D01*
X138459624Y-114437176D01*
X138253067Y-114351617D01*
X138033788Y-114308000D01*
X137810212Y-114308000D01*
X137590933Y-114351617D01*
X137384376Y-114437176D01*
X137198480Y-114561388D01*
X137040388Y-114719480D01*
X136916176Y-114905376D01*
X136830617Y-115111933D01*
X136787000Y-115331212D01*
X130937000Y-115331212D01*
X130937000Y-112864561D01*
X156762500Y-112864561D01*
X156762500Y-113068439D01*
X156802274Y-113268398D01*
X156880295Y-113456756D01*
X156993563Y-113626274D01*
X157137726Y-113770437D01*
X157307244Y-113883705D01*
X157495602Y-113961726D01*
X157695561Y-114001500D01*
X157899439Y-114001500D01*
X158099398Y-113961726D01*
X158287756Y-113883705D01*
X158457274Y-113770437D01*
X158601437Y-113626274D01*
X158714705Y-113456756D01*
X158792726Y-113268398D01*
X158832500Y-113068439D01*
X158832500Y-112864561D01*
X158792726Y-112664602D01*
X158786264Y-112649000D01*
X164026888Y-112649000D01*
X164049285Y-112876400D01*
X164115615Y-113095060D01*
X164216605Y-113284000D01*
X164115615Y-113472940D01*
X164049285Y-113691600D01*
X164026888Y-113919000D01*
X164049285Y-114146400D01*
X164112593Y-114355098D01*
X164077998Y-114419820D01*
X164041688Y-114539518D01*
X164029428Y-114664000D01*
X164029428Y-115714000D01*
X164041688Y-115838482D01*
X164077998Y-115958180D01*
X164136963Y-116068494D01*
X164216315Y-116165185D01*
X164313006Y-116244537D01*
X164423320Y-116303502D01*
X164543018Y-116339812D01*
X164667500Y-116352072D01*
X166167500Y-116352072D01*
X166291982Y-116339812D01*
X166411680Y-116303502D01*
X166521994Y-116244537D01*
X166618685Y-116165185D01*
X166698037Y-116068494D01*
X166757002Y-115958180D01*
X166793312Y-115838482D01*
X166805572Y-115714000D01*
X166805572Y-114716521D01*
X168004000Y-114716521D01*
X168004000Y-115280478D01*
X168020785Y-115450899D01*
X168087115Y-115669559D01*
X168194829Y-115871078D01*
X168339788Y-116047712D01*
X168516421Y-116192671D01*
X168717940Y-116300385D01*
X168936600Y-116366715D01*
X169164000Y-116389112D01*
X169391399Y-116366715D01*
X169610059Y-116300385D01*
X169799000Y-116199394D01*
X169987940Y-116300385D01*
X170206600Y-116366715D01*
X170434000Y-116389112D01*
X170661399Y-116366715D01*
X170870098Y-116303407D01*
X170934820Y-116338002D01*
X171054518Y-116374312D01*
X171179000Y-116386572D01*
X172229000Y-116386572D01*
X172353482Y-116374312D01*
X172473180Y-116338002D01*
X172583494Y-116279037D01*
X172680185Y-116199685D01*
X172759537Y-116102994D01*
X172818502Y-115992680D01*
X172854812Y-115872982D01*
X172867072Y-115748500D01*
X172867072Y-114452500D01*
X173885428Y-114452500D01*
X173885428Y-116052500D01*
X173897688Y-116176982D01*
X173933998Y-116296680D01*
X173992963Y-116406994D01*
X174072315Y-116503685D01*
X174169006Y-116583037D01*
X174279320Y-116642002D01*
X174399018Y-116678312D01*
X174523500Y-116690572D01*
X176123500Y-116690572D01*
X176247982Y-116678312D01*
X176367680Y-116642002D01*
X176477994Y-116583037D01*
X176574685Y-116503685D01*
X176654037Y-116406994D01*
X176713002Y-116296680D01*
X176742161Y-116200557D01*
X176908741Y-116367137D01*
X177143773Y-116524180D01*
X177404926Y-116632353D01*
X177682165Y-116687500D01*
X177964835Y-116687500D01*
X178242074Y-116632353D01*
X178503227Y-116524180D01*
X178738259Y-116367137D01*
X178938137Y-116167259D01*
X179095180Y-115932227D01*
X179203353Y-115671074D01*
X179258500Y-115393835D01*
X179258500Y-115111165D01*
X179203353Y-114833926D01*
X179095180Y-114572773D01*
X178938137Y-114337741D01*
X178738259Y-114137863D01*
X178503227Y-113980820D01*
X178242074Y-113872647D01*
X177964835Y-113817500D01*
X177682165Y-113817500D01*
X177404926Y-113872647D01*
X177143773Y-113980820D01*
X176908741Y-114137863D01*
X176742161Y-114304443D01*
X176713002Y-114208320D01*
X176654037Y-114098006D01*
X176574685Y-114001315D01*
X176477994Y-113921963D01*
X176367680Y-113862998D01*
X176247982Y-113826688D01*
X176123500Y-113814428D01*
X174523500Y-113814428D01*
X174399018Y-113826688D01*
X174279320Y-113862998D01*
X174169006Y-113921963D01*
X174072315Y-114001315D01*
X173992963Y-114098006D01*
X173933998Y-114208320D01*
X173897688Y-114328018D01*
X173885428Y-114452500D01*
X172867072Y-114452500D01*
X172867072Y-114248500D01*
X172854812Y-114124018D01*
X172818502Y-114004320D01*
X172759537Y-113894006D01*
X172680185Y-113797315D01*
X172583494Y-113717963D01*
X172473180Y-113658998D01*
X172353482Y-113622688D01*
X172229000Y-113610428D01*
X171179000Y-113610428D01*
X171054518Y-113622688D01*
X170934820Y-113658998D01*
X170870098Y-113693593D01*
X170661400Y-113630285D01*
X170434000Y-113607888D01*
X170206601Y-113630285D01*
X169987941Y-113696615D01*
X169799001Y-113797606D01*
X169610060Y-113696615D01*
X169391400Y-113630285D01*
X169164000Y-113607888D01*
X168936601Y-113630285D01*
X168717941Y-113696615D01*
X168516422Y-113804329D01*
X168339789Y-113949288D01*
X168194830Y-114125921D01*
X168087115Y-114327440D01*
X168020785Y-114546100D01*
X168004000Y-114716521D01*
X166805572Y-114716521D01*
X166805572Y-114664000D01*
X166793312Y-114539518D01*
X166757002Y-114419820D01*
X166722407Y-114355098D01*
X166785715Y-114146400D01*
X166808112Y-113919000D01*
X166785715Y-113691600D01*
X166719385Y-113472940D01*
X166618395Y-113284000D01*
X166719385Y-113095060D01*
X166783488Y-112883740D01*
X180252000Y-112883740D01*
X180252000Y-113176260D01*
X180309068Y-113463158D01*
X180421010Y-113733411D01*
X180583525Y-113976632D01*
X180790368Y-114183475D01*
X181033589Y-114345990D01*
X181303842Y-114457932D01*
X181590740Y-114515000D01*
X181883260Y-114515000D01*
X182170158Y-114457932D01*
X182440411Y-114345990D01*
X182683632Y-114183475D01*
X182815487Y-114051620D01*
X182837498Y-114124180D01*
X182896463Y-114234494D01*
X182975815Y-114331185D01*
X183072506Y-114410537D01*
X183182820Y-114469502D01*
X183302518Y-114505812D01*
X183427000Y-114518072D01*
X185127000Y-114518072D01*
X185251482Y-114505812D01*
X185371180Y-114469502D01*
X185481494Y-114410537D01*
X185578185Y-114331185D01*
X185657537Y-114234494D01*
X185716502Y-114124180D01*
X185752812Y-114004482D01*
X185765072Y-113880000D01*
X185765072Y-112688000D01*
X190789928Y-112688000D01*
X190789928Y-114388000D01*
X190802188Y-114512482D01*
X190838498Y-114632180D01*
X190897463Y-114742494D01*
X190976815Y-114839185D01*
X191073506Y-114918537D01*
X191183820Y-114977502D01*
X191256380Y-114999513D01*
X191124525Y-115131368D01*
X190962010Y-115374589D01*
X190850068Y-115644842D01*
X190793000Y-115931740D01*
X190793000Y-116224260D01*
X190850068Y-116511158D01*
X190962010Y-116781411D01*
X191124525Y-117024632D01*
X191331368Y-117231475D01*
X191574589Y-117393990D01*
X191844842Y-117505932D01*
X192131740Y-117563000D01*
X192424260Y-117563000D01*
X192711158Y-117505932D01*
X192981411Y-117393990D01*
X193224632Y-117231475D01*
X193431475Y-117024632D01*
X193593990Y-116781411D01*
X193705932Y-116511158D01*
X193763000Y-116224260D01*
X193763000Y-115931740D01*
X193705932Y-115644842D01*
X193593990Y-115374589D01*
X193431475Y-115131368D01*
X193299620Y-114999513D01*
X193372180Y-114977502D01*
X193482494Y-114918537D01*
X193579185Y-114839185D01*
X193658537Y-114742494D01*
X193717502Y-114632180D01*
X193753812Y-114512482D01*
X193766072Y-114388000D01*
X193766072Y-112688000D01*
X194472928Y-112688000D01*
X194476000Y-113252250D01*
X194634750Y-113411000D01*
X195834000Y-113411000D01*
X195834000Y-112211750D01*
X195675250Y-112053000D01*
X195111000Y-112049928D01*
X194986518Y-112062188D01*
X194866820Y-112098498D01*
X194756506Y-112157463D01*
X194659815Y-112236815D01*
X194580463Y-112333506D01*
X194521498Y-112443820D01*
X194485188Y-112563518D01*
X194472928Y-112688000D01*
X193766072Y-112688000D01*
X193753812Y-112563518D01*
X193717502Y-112443820D01*
X193658537Y-112333506D01*
X193579185Y-112236815D01*
X193482494Y-112157463D01*
X193372180Y-112098498D01*
X193252482Y-112062188D01*
X193128000Y-112049928D01*
X191428000Y-112049928D01*
X191303518Y-112062188D01*
X191183820Y-112098498D01*
X191073506Y-112157463D01*
X190976815Y-112236815D01*
X190897463Y-112333506D01*
X190838498Y-112443820D01*
X190802188Y-112563518D01*
X190789928Y-112688000D01*
X185765072Y-112688000D01*
X185765072Y-112180000D01*
X185752812Y-112055518D01*
X185716502Y-111935820D01*
X185657537Y-111825506D01*
X185578185Y-111728815D01*
X185481494Y-111649463D01*
X185371180Y-111590498D01*
X185251482Y-111554188D01*
X185127000Y-111541928D01*
X183427000Y-111541928D01*
X183302518Y-111554188D01*
X183182820Y-111590498D01*
X183072506Y-111649463D01*
X182975815Y-111728815D01*
X182896463Y-111825506D01*
X182837498Y-111935820D01*
X182815487Y-112008380D01*
X182683632Y-111876525D01*
X182440411Y-111714010D01*
X182170158Y-111602068D01*
X181883260Y-111545000D01*
X181590740Y-111545000D01*
X181303842Y-111602068D01*
X181033589Y-111714010D01*
X180790368Y-111876525D01*
X180583525Y-112083368D01*
X180421010Y-112326589D01*
X180309068Y-112596842D01*
X180252000Y-112883740D01*
X166783488Y-112883740D01*
X166785715Y-112876400D01*
X166808112Y-112649000D01*
X166785715Y-112421600D01*
X166719385Y-112202940D01*
X166611671Y-112001421D01*
X166466712Y-111824788D01*
X166290079Y-111679829D01*
X166088560Y-111572115D01*
X165869900Y-111505785D01*
X165699479Y-111489000D01*
X165135521Y-111489000D01*
X164965100Y-111505785D01*
X164746440Y-111572115D01*
X164544921Y-111679829D01*
X164368288Y-111824788D01*
X164223329Y-112001421D01*
X164115615Y-112202940D01*
X164049285Y-112421600D01*
X164026888Y-112649000D01*
X158786264Y-112649000D01*
X158714705Y-112476244D01*
X158601437Y-112306726D01*
X158457274Y-112162563D01*
X158287756Y-112049295D01*
X158099398Y-111971274D01*
X157899439Y-111931500D01*
X157695561Y-111931500D01*
X157495602Y-111971274D01*
X157307244Y-112049295D01*
X157137726Y-112162563D01*
X156993563Y-112306726D01*
X156880295Y-112476244D01*
X156802274Y-112664602D01*
X156762500Y-112864561D01*
X130937000Y-112864561D01*
X130937000Y-110451561D01*
X141967000Y-110451561D01*
X141967000Y-110655439D01*
X142006774Y-110855398D01*
X142084795Y-111043756D01*
X142198063Y-111213274D01*
X142342226Y-111357437D01*
X142511744Y-111470705D01*
X142700102Y-111548726D01*
X142900061Y-111588500D01*
X143103939Y-111588500D01*
X143303898Y-111548726D01*
X143492256Y-111470705D01*
X143661774Y-111357437D01*
X143805937Y-111213274D01*
X143919205Y-111043756D01*
X143997226Y-110855398D01*
X144037000Y-110655439D01*
X144037000Y-110451561D01*
X143997226Y-110251602D01*
X143919205Y-110063244D01*
X143805937Y-109893726D01*
X143728772Y-109816561D01*
X152254000Y-109816561D01*
X152254000Y-110020439D01*
X152293774Y-110220398D01*
X152371795Y-110408756D01*
X152485063Y-110578274D01*
X152629226Y-110722437D01*
X152798744Y-110835705D01*
X152987102Y-110913726D01*
X153187061Y-110953500D01*
X153390939Y-110953500D01*
X153590898Y-110913726D01*
X153779256Y-110835705D01*
X153948774Y-110722437D01*
X154092937Y-110578274D01*
X154206205Y-110408756D01*
X154284226Y-110220398D01*
X154324000Y-110020439D01*
X154324000Y-109816561D01*
X154284226Y-109616602D01*
X154206205Y-109428244D01*
X154092937Y-109258726D01*
X153948774Y-109114563D01*
X153779256Y-109001295D01*
X153754550Y-108991061D01*
X181400500Y-108991061D01*
X181400500Y-109194939D01*
X181440274Y-109394898D01*
X181518295Y-109583256D01*
X181631563Y-109752774D01*
X181775726Y-109896937D01*
X181945244Y-110010205D01*
X182133602Y-110088226D01*
X182333561Y-110128000D01*
X182537439Y-110128000D01*
X182737398Y-110088226D01*
X182925756Y-110010205D01*
X183095274Y-109896937D01*
X183239437Y-109752774D01*
X183352705Y-109583256D01*
X183430726Y-109394898D01*
X183470500Y-109194939D01*
X183470500Y-108991061D01*
X183430726Y-108791102D01*
X183352705Y-108602744D01*
X183239437Y-108433226D01*
X183095274Y-108289063D01*
X182925756Y-108175795D01*
X182737398Y-108097774D01*
X182537439Y-108058000D01*
X182333561Y-108058000D01*
X182133602Y-108097774D01*
X181945244Y-108175795D01*
X181775726Y-108289063D01*
X181631563Y-108433226D01*
X181518295Y-108602744D01*
X181440274Y-108791102D01*
X181400500Y-108991061D01*
X153754550Y-108991061D01*
X153590898Y-108923274D01*
X153390939Y-108883500D01*
X153187061Y-108883500D01*
X152987102Y-108923274D01*
X152798744Y-109001295D01*
X152629226Y-109114563D01*
X152485063Y-109258726D01*
X152371795Y-109428244D01*
X152293774Y-109616602D01*
X152254000Y-109816561D01*
X143728772Y-109816561D01*
X143661774Y-109749563D01*
X143492256Y-109636295D01*
X143303898Y-109558274D01*
X143103939Y-109518500D01*
X142900061Y-109518500D01*
X142700102Y-109558274D01*
X142511744Y-109636295D01*
X142342226Y-109749563D01*
X142198063Y-109893726D01*
X142084795Y-110063244D01*
X142006774Y-110251602D01*
X141967000Y-110451561D01*
X130937000Y-110451561D01*
X130937000Y-106832061D01*
X132632500Y-106832061D01*
X132632500Y-107035939D01*
X132672274Y-107235898D01*
X132750295Y-107424256D01*
X132863563Y-107593774D01*
X133007726Y-107737937D01*
X133177244Y-107851205D01*
X133365602Y-107929226D01*
X133565561Y-107969000D01*
X133769439Y-107969000D01*
X133969398Y-107929226D01*
X134157756Y-107851205D01*
X134327274Y-107737937D01*
X134471437Y-107593774D01*
X134584705Y-107424256D01*
X134662726Y-107235898D01*
X134702500Y-107035939D01*
X134702500Y-106832061D01*
X134662726Y-106632102D01*
X134640342Y-106578061D01*
X141014500Y-106578061D01*
X141014500Y-106781939D01*
X141054274Y-106981898D01*
X141132295Y-107170256D01*
X141245563Y-107339774D01*
X141389726Y-107483937D01*
X141559244Y-107597205D01*
X141747602Y-107675226D01*
X141947561Y-107715000D01*
X142151439Y-107715000D01*
X142351398Y-107675226D01*
X142539756Y-107597205D01*
X142709274Y-107483937D01*
X142853437Y-107339774D01*
X142895674Y-107276561D01*
X164128500Y-107276561D01*
X164128500Y-107480439D01*
X164168274Y-107680398D01*
X164246295Y-107868756D01*
X164359563Y-108038274D01*
X164503726Y-108182437D01*
X164673244Y-108295705D01*
X164861602Y-108373726D01*
X165061561Y-108413500D01*
X165265439Y-108413500D01*
X165465398Y-108373726D01*
X165653756Y-108295705D01*
X165823274Y-108182437D01*
X165967437Y-108038274D01*
X166080705Y-107868756D01*
X166158726Y-107680398D01*
X166198500Y-107480439D01*
X166198500Y-107276561D01*
X166158726Y-107076602D01*
X166080705Y-106888244D01*
X165967437Y-106718726D01*
X165823274Y-106574563D01*
X165653756Y-106461295D01*
X165465398Y-106383274D01*
X165265439Y-106343500D01*
X165061561Y-106343500D01*
X164861602Y-106383274D01*
X164673244Y-106461295D01*
X164503726Y-106574563D01*
X164359563Y-106718726D01*
X164246295Y-106888244D01*
X164168274Y-107076602D01*
X164128500Y-107276561D01*
X142895674Y-107276561D01*
X142966705Y-107170256D01*
X143044726Y-106981898D01*
X143084500Y-106781939D01*
X143084500Y-106578061D01*
X143070664Y-106508500D01*
X143167439Y-106508500D01*
X143367398Y-106468726D01*
X143555756Y-106390705D01*
X143725274Y-106277437D01*
X143869437Y-106133274D01*
X143982705Y-105963756D01*
X144060726Y-105775398D01*
X144100500Y-105575439D01*
X144100500Y-105371561D01*
X144060726Y-105171602D01*
X143982705Y-104983244D01*
X143869437Y-104813726D01*
X143725274Y-104669563D01*
X143555756Y-104556295D01*
X143367398Y-104478274D01*
X143167439Y-104438500D01*
X142963561Y-104438500D01*
X142763602Y-104478274D01*
X142575244Y-104556295D01*
X142405726Y-104669563D01*
X142261563Y-104813726D01*
X142148295Y-104983244D01*
X142070274Y-105171602D01*
X142030500Y-105371561D01*
X142030500Y-105575439D01*
X142044336Y-105645000D01*
X141947561Y-105645000D01*
X141747602Y-105684774D01*
X141559244Y-105762795D01*
X141389726Y-105876063D01*
X141245563Y-106020226D01*
X141132295Y-106189744D01*
X141054274Y-106378102D01*
X141014500Y-106578061D01*
X134640342Y-106578061D01*
X134584705Y-106443744D01*
X134471437Y-106274226D01*
X134327274Y-106130063D01*
X134157756Y-106016795D01*
X133969398Y-105938774D01*
X133769439Y-105899000D01*
X133565561Y-105899000D01*
X133365602Y-105938774D01*
X133177244Y-106016795D01*
X133007726Y-106130063D01*
X132863563Y-106274226D01*
X132750295Y-106443744D01*
X132672274Y-106632102D01*
X132632500Y-106832061D01*
X130937000Y-106832061D01*
X130937000Y-101839665D01*
X134518500Y-101839665D01*
X134518500Y-102122335D01*
X134573647Y-102399574D01*
X134681820Y-102660727D01*
X134838863Y-102895759D01*
X135038741Y-103095637D01*
X135273773Y-103252680D01*
X135534926Y-103360853D01*
X135812165Y-103416000D01*
X136094835Y-103416000D01*
X136372074Y-103360853D01*
X136633227Y-103252680D01*
X136868259Y-103095637D01*
X137068137Y-102895759D01*
X137223500Y-102663241D01*
X137378863Y-102895759D01*
X137578741Y-103095637D01*
X137813773Y-103252680D01*
X138074926Y-103360853D01*
X138352165Y-103416000D01*
X138634835Y-103416000D01*
X138912074Y-103360853D01*
X139173227Y-103252680D01*
X139408259Y-103095637D01*
X139608137Y-102895759D01*
X139763500Y-102663241D01*
X139918863Y-102895759D01*
X140118741Y-103095637D01*
X140353773Y-103252680D01*
X140614926Y-103360853D01*
X140892165Y-103416000D01*
X141174835Y-103416000D01*
X141452074Y-103360853D01*
X141713227Y-103252680D01*
X141948259Y-103095637D01*
X142148137Y-102895759D01*
X142303500Y-102663241D01*
X142458863Y-102895759D01*
X142658741Y-103095637D01*
X142893773Y-103252680D01*
X143154926Y-103360853D01*
X143432165Y-103416000D01*
X143714835Y-103416000D01*
X143992074Y-103360853D01*
X144253227Y-103252680D01*
X144488259Y-103095637D01*
X144688137Y-102895759D01*
X144843500Y-102663241D01*
X144998863Y-102895759D01*
X145198741Y-103095637D01*
X145433773Y-103252680D01*
X145694926Y-103360853D01*
X145972165Y-103416000D01*
X146254835Y-103416000D01*
X146532074Y-103360853D01*
X146793227Y-103252680D01*
X147028259Y-103095637D01*
X147228137Y-102895759D01*
X147383500Y-102663241D01*
X147538863Y-102895759D01*
X147738741Y-103095637D01*
X147973773Y-103252680D01*
X148234926Y-103360853D01*
X148512165Y-103416000D01*
X148794835Y-103416000D01*
X149072074Y-103360853D01*
X149333227Y-103252680D01*
X149568259Y-103095637D01*
X149768137Y-102895759D01*
X149923500Y-102663241D01*
X150078863Y-102895759D01*
X150278741Y-103095637D01*
X150513773Y-103252680D01*
X150774926Y-103360853D01*
X151052165Y-103416000D01*
X151334835Y-103416000D01*
X151612074Y-103360853D01*
X151873227Y-103252680D01*
X152108259Y-103095637D01*
X152308137Y-102895759D01*
X152463500Y-102663241D01*
X152618863Y-102895759D01*
X152818741Y-103095637D01*
X153053773Y-103252680D01*
X153314926Y-103360853D01*
X153592165Y-103416000D01*
X153874835Y-103416000D01*
X154152074Y-103360853D01*
X154413227Y-103252680D01*
X154648259Y-103095637D01*
X154848137Y-102895759D01*
X155003500Y-102663241D01*
X155158863Y-102895759D01*
X155358741Y-103095637D01*
X155593773Y-103252680D01*
X155854926Y-103360853D01*
X156132165Y-103416000D01*
X156414835Y-103416000D01*
X156692074Y-103360853D01*
X156953227Y-103252680D01*
X157188259Y-103095637D01*
X157388137Y-102895759D01*
X157543500Y-102663241D01*
X157698863Y-102895759D01*
X157898741Y-103095637D01*
X158133773Y-103252680D01*
X158394926Y-103360853D01*
X158672165Y-103416000D01*
X158954835Y-103416000D01*
X159232074Y-103360853D01*
X159493227Y-103252680D01*
X159728259Y-103095637D01*
X159928137Y-102895759D01*
X160083500Y-102663241D01*
X160238863Y-102895759D01*
X160438741Y-103095637D01*
X160673773Y-103252680D01*
X160934926Y-103360853D01*
X161212165Y-103416000D01*
X161494835Y-103416000D01*
X161772074Y-103360853D01*
X162033227Y-103252680D01*
X162268259Y-103095637D01*
X162468137Y-102895759D01*
X162623500Y-102663241D01*
X162778863Y-102895759D01*
X162978741Y-103095637D01*
X163213773Y-103252680D01*
X163474926Y-103360853D01*
X163752165Y-103416000D01*
X164034835Y-103416000D01*
X164312074Y-103360853D01*
X164573227Y-103252680D01*
X164808259Y-103095637D01*
X165008137Y-102895759D01*
X165163500Y-102663241D01*
X165318863Y-102895759D01*
X165518741Y-103095637D01*
X165753773Y-103252680D01*
X166014926Y-103360853D01*
X166292165Y-103416000D01*
X166574835Y-103416000D01*
X166852074Y-103360853D01*
X167113227Y-103252680D01*
X167348259Y-103095637D01*
X167548137Y-102895759D01*
X167703500Y-102663241D01*
X167858863Y-102895759D01*
X168058741Y-103095637D01*
X168293773Y-103252680D01*
X168554926Y-103360853D01*
X168832165Y-103416000D01*
X169114835Y-103416000D01*
X169392074Y-103360853D01*
X169653227Y-103252680D01*
X169888259Y-103095637D01*
X170088137Y-102895759D01*
X170245180Y-102660727D01*
X170353353Y-102399574D01*
X170408500Y-102122335D01*
X170408500Y-101839665D01*
X170353353Y-101562426D01*
X170245180Y-101301273D01*
X170088137Y-101066241D01*
X169888259Y-100866363D01*
X169653227Y-100709320D01*
X169392074Y-100601147D01*
X169114835Y-100546000D01*
X168832165Y-100546000D01*
X168554926Y-100601147D01*
X168293773Y-100709320D01*
X168058741Y-100866363D01*
X167858863Y-101066241D01*
X167703500Y-101298759D01*
X167548137Y-101066241D01*
X167348259Y-100866363D01*
X167113227Y-100709320D01*
X166852074Y-100601147D01*
X166574835Y-100546000D01*
X166292165Y-100546000D01*
X166014926Y-100601147D01*
X165753773Y-100709320D01*
X165518741Y-100866363D01*
X165318863Y-101066241D01*
X165163500Y-101298759D01*
X165008137Y-101066241D01*
X164808259Y-100866363D01*
X164573227Y-100709320D01*
X164312074Y-100601147D01*
X164034835Y-100546000D01*
X163752165Y-100546000D01*
X163474926Y-100601147D01*
X163213773Y-100709320D01*
X162978741Y-100866363D01*
X162778863Y-101066241D01*
X162623500Y-101298759D01*
X162468137Y-101066241D01*
X162268259Y-100866363D01*
X162033227Y-100709320D01*
X161772074Y-100601147D01*
X161494835Y-100546000D01*
X161212165Y-100546000D01*
X160934926Y-100601147D01*
X160673773Y-100709320D01*
X160438741Y-100866363D01*
X160238863Y-101066241D01*
X160083500Y-101298759D01*
X159928137Y-101066241D01*
X159728259Y-100866363D01*
X159493227Y-100709320D01*
X159232074Y-100601147D01*
X158954835Y-100546000D01*
X158672165Y-100546000D01*
X158394926Y-100601147D01*
X158133773Y-100709320D01*
X157898741Y-100866363D01*
X157698863Y-101066241D01*
X157543500Y-101298759D01*
X157388137Y-101066241D01*
X157188259Y-100866363D01*
X156953227Y-100709320D01*
X156692074Y-100601147D01*
X156414835Y-100546000D01*
X156132165Y-100546000D01*
X155854926Y-100601147D01*
X155593773Y-100709320D01*
X155358741Y-100866363D01*
X155158863Y-101066241D01*
X155003500Y-101298759D01*
X154848137Y-101066241D01*
X154648259Y-100866363D01*
X154413227Y-100709320D01*
X154152074Y-100601147D01*
X153874835Y-100546000D01*
X153592165Y-100546000D01*
X153314926Y-100601147D01*
X153053773Y-100709320D01*
X152818741Y-100866363D01*
X152618863Y-101066241D01*
X152463500Y-101298759D01*
X152308137Y-101066241D01*
X152108259Y-100866363D01*
X151873227Y-100709320D01*
X151612074Y-100601147D01*
X151334835Y-100546000D01*
X151052165Y-100546000D01*
X150774926Y-100601147D01*
X150513773Y-100709320D01*
X150278741Y-100866363D01*
X150078863Y-101066241D01*
X149923500Y-101298759D01*
X149768137Y-101066241D01*
X149568259Y-100866363D01*
X149333227Y-100709320D01*
X149072074Y-100601147D01*
X148794835Y-100546000D01*
X148512165Y-100546000D01*
X148234926Y-100601147D01*
X147973773Y-100709320D01*
X147738741Y-100866363D01*
X147538863Y-101066241D01*
X147383500Y-101298759D01*
X147228137Y-101066241D01*
X147028259Y-100866363D01*
X146793227Y-100709320D01*
X146532074Y-100601147D01*
X146254835Y-100546000D01*
X145972165Y-100546000D01*
X145694926Y-100601147D01*
X145433773Y-100709320D01*
X145198741Y-100866363D01*
X144998863Y-101066241D01*
X144843500Y-101298759D01*
X144688137Y-101066241D01*
X144488259Y-100866363D01*
X144253227Y-100709320D01*
X143992074Y-100601147D01*
X143714835Y-100546000D01*
X143432165Y-100546000D01*
X143154926Y-100601147D01*
X142893773Y-100709320D01*
X142658741Y-100866363D01*
X142458863Y-101066241D01*
X142303500Y-101298759D01*
X142148137Y-101066241D01*
X141948259Y-100866363D01*
X141713227Y-100709320D01*
X141452074Y-100601147D01*
X141174835Y-100546000D01*
X140892165Y-100546000D01*
X140614926Y-100601147D01*
X140353773Y-100709320D01*
X140118741Y-100866363D01*
X139918863Y-101066241D01*
X139763500Y-101298759D01*
X139608137Y-101066241D01*
X139408259Y-100866363D01*
X139173227Y-100709320D01*
X138912074Y-100601147D01*
X138634835Y-100546000D01*
X138352165Y-100546000D01*
X138074926Y-100601147D01*
X137813773Y-100709320D01*
X137578741Y-100866363D01*
X137378863Y-101066241D01*
X137223500Y-101298759D01*
X137068137Y-101066241D01*
X136868259Y-100866363D01*
X136633227Y-100709320D01*
X136372074Y-100601147D01*
X136094835Y-100546000D01*
X135812165Y-100546000D01*
X135534926Y-100601147D01*
X135273773Y-100709320D01*
X135038741Y-100866363D01*
X134838863Y-101066241D01*
X134681820Y-101301273D01*
X134573647Y-101562426D01*
X134518500Y-101839665D01*
X130937000Y-101839665D01*
X130937000Y-97053500D01*
X171726428Y-97053500D01*
X171726428Y-98653500D01*
X171738688Y-98777982D01*
X171774998Y-98897680D01*
X171833963Y-99007994D01*
X171913315Y-99104685D01*
X172010006Y-99184037D01*
X172120320Y-99243002D01*
X172240018Y-99279312D01*
X172248461Y-99280143D01*
X172049863Y-99478741D01*
X171892820Y-99713773D01*
X171784647Y-99974926D01*
X171729500Y-100252165D01*
X171729500Y-100534835D01*
X171784647Y-100812074D01*
X171892820Y-101073227D01*
X172049863Y-101308259D01*
X172249741Y-101508137D01*
X172482259Y-101663500D01*
X172249741Y-101818863D01*
X172049863Y-102018741D01*
X171892820Y-102253773D01*
X171784647Y-102514926D01*
X171729500Y-102792165D01*
X171729500Y-103074835D01*
X171784647Y-103352074D01*
X171892820Y-103613227D01*
X172049863Y-103848259D01*
X172249741Y-104048137D01*
X172482259Y-104203500D01*
X172249741Y-104358863D01*
X172049863Y-104558741D01*
X171892820Y-104793773D01*
X171784647Y-105054926D01*
X171729500Y-105332165D01*
X171729500Y-105614835D01*
X171784647Y-105892074D01*
X171892820Y-106153227D01*
X172049863Y-106388259D01*
X172249741Y-106588137D01*
X172484773Y-106745180D01*
X172745926Y-106853353D01*
X173023165Y-106908500D01*
X173305835Y-106908500D01*
X173583074Y-106853353D01*
X173844227Y-106745180D01*
X174079259Y-106588137D01*
X174279137Y-106388259D01*
X174436180Y-106153227D01*
X174544353Y-105892074D01*
X174599500Y-105614835D01*
X174599500Y-105332165D01*
X174544353Y-105054926D01*
X174436180Y-104793773D01*
X174279137Y-104558741D01*
X174079259Y-104358863D01*
X173846741Y-104203500D01*
X174079259Y-104048137D01*
X174279137Y-103848259D01*
X174436180Y-103613227D01*
X174544353Y-103352074D01*
X174599500Y-103074835D01*
X174599500Y-102792165D01*
X174544353Y-102514926D01*
X174436180Y-102253773D01*
X174279137Y-102018741D01*
X174079259Y-101818863D01*
X173846741Y-101663500D01*
X174079259Y-101508137D01*
X174279137Y-101308259D01*
X174436180Y-101073227D01*
X174544353Y-100812074D01*
X174599500Y-100534835D01*
X174599500Y-100252165D01*
X174544353Y-99974926D01*
X174436180Y-99713773D01*
X174279137Y-99478741D01*
X174080539Y-99280143D01*
X174088982Y-99279312D01*
X174208680Y-99243002D01*
X174318994Y-99184037D01*
X174415685Y-99104685D01*
X174495037Y-99007994D01*
X174554002Y-98897680D01*
X174590312Y-98777982D01*
X174602572Y-98653500D01*
X174602572Y-97712165D01*
X179349500Y-97712165D01*
X179349500Y-97994835D01*
X179404647Y-98272074D01*
X179512820Y-98533227D01*
X179669863Y-98768259D01*
X179869741Y-98968137D01*
X180102259Y-99123500D01*
X179869741Y-99278863D01*
X179669863Y-99478741D01*
X179512820Y-99713773D01*
X179404647Y-99974926D01*
X179349500Y-100252165D01*
X179349500Y-100534835D01*
X179404647Y-100812074D01*
X179512820Y-101073227D01*
X179669863Y-101308259D01*
X179869741Y-101508137D01*
X180102259Y-101663500D01*
X179869741Y-101818863D01*
X179669863Y-102018741D01*
X179512820Y-102253773D01*
X179404647Y-102514926D01*
X179349500Y-102792165D01*
X179349500Y-103074835D01*
X179404647Y-103352074D01*
X179512820Y-103613227D01*
X179669863Y-103848259D01*
X179869741Y-104048137D01*
X180102259Y-104203500D01*
X179869741Y-104358863D01*
X179669863Y-104558741D01*
X179512820Y-104793773D01*
X179404647Y-105054926D01*
X179349500Y-105332165D01*
X179349500Y-105614835D01*
X179404647Y-105892074D01*
X179512820Y-106153227D01*
X179669863Y-106388259D01*
X179869741Y-106588137D01*
X180104773Y-106745180D01*
X180365926Y-106853353D01*
X180643165Y-106908500D01*
X180925835Y-106908500D01*
X181203074Y-106853353D01*
X181235371Y-106839975D01*
X183910500Y-106839975D01*
X183910500Y-107359025D01*
X184011761Y-107868101D01*
X184210393Y-108347641D01*
X184498762Y-108779215D01*
X184865785Y-109146238D01*
X185297359Y-109434607D01*
X185776899Y-109633239D01*
X186285975Y-109734500D01*
X186805025Y-109734500D01*
X187314101Y-109633239D01*
X187793641Y-109434607D01*
X188225215Y-109146238D01*
X188592238Y-108779215D01*
X188880607Y-108347641D01*
X189079239Y-107868101D01*
X189180500Y-107359025D01*
X189180500Y-106839975D01*
X189079239Y-106330899D01*
X188880607Y-105851359D01*
X188592238Y-105419785D01*
X188225215Y-105052762D01*
X187793641Y-104764393D01*
X187314101Y-104565761D01*
X186805025Y-104464500D01*
X186285975Y-104464500D01*
X185776899Y-104565761D01*
X185297359Y-104764393D01*
X184865785Y-105052762D01*
X184498762Y-105419785D01*
X184210393Y-105851359D01*
X184011761Y-106330899D01*
X183910500Y-106839975D01*
X181235371Y-106839975D01*
X181464227Y-106745180D01*
X181699259Y-106588137D01*
X181899137Y-106388259D01*
X182056180Y-106153227D01*
X182164353Y-105892074D01*
X182219500Y-105614835D01*
X182219500Y-105332165D01*
X182164353Y-105054926D01*
X182056180Y-104793773D01*
X181899137Y-104558741D01*
X181699259Y-104358863D01*
X181466741Y-104203500D01*
X181699259Y-104048137D01*
X181899137Y-103848259D01*
X182056180Y-103613227D01*
X182164353Y-103352074D01*
X182219500Y-103074835D01*
X182219500Y-102792165D01*
X182164353Y-102514926D01*
X182056180Y-102253773D01*
X181899137Y-102018741D01*
X181699259Y-101818863D01*
X181466741Y-101663500D01*
X181699259Y-101508137D01*
X181899137Y-101308259D01*
X182056180Y-101073227D01*
X182164353Y-100812074D01*
X182219500Y-100534835D01*
X182219500Y-100252165D01*
X182164353Y-99974926D01*
X182056180Y-99713773D01*
X181899137Y-99478741D01*
X181759896Y-99339500D01*
X184807428Y-99339500D01*
X184807428Y-100939500D01*
X184819688Y-101063982D01*
X184855998Y-101183680D01*
X184914963Y-101293994D01*
X184994315Y-101390685D01*
X185091006Y-101470037D01*
X185201320Y-101529002D01*
X185321018Y-101565312D01*
X185445500Y-101577572D01*
X187045500Y-101577572D01*
X187169982Y-101565312D01*
X187289680Y-101529002D01*
X187399994Y-101470037D01*
X187496685Y-101390685D01*
X187576037Y-101293994D01*
X187635002Y-101183680D01*
X187671312Y-101063982D01*
X187683572Y-100939500D01*
X187683572Y-99339500D01*
X187671312Y-99215018D01*
X187635002Y-99095320D01*
X187576037Y-98985006D01*
X187496685Y-98888315D01*
X187399994Y-98808963D01*
X187289680Y-98749998D01*
X187169982Y-98713688D01*
X187045500Y-98701428D01*
X186779775Y-98701428D01*
X186925227Y-98641180D01*
X187160259Y-98484137D01*
X187360137Y-98284259D01*
X187517180Y-98049227D01*
X187625353Y-97788074D01*
X187680500Y-97510835D01*
X187680500Y-97228165D01*
X187625353Y-96950926D01*
X187517180Y-96689773D01*
X187360137Y-96454741D01*
X187160259Y-96254863D01*
X186925227Y-96097820D01*
X186664074Y-95989647D01*
X186638199Y-95984500D01*
X186664074Y-95979353D01*
X186925227Y-95871180D01*
X187160259Y-95714137D01*
X187360137Y-95514259D01*
X187517180Y-95279227D01*
X187625353Y-95018074D01*
X187680500Y-94740835D01*
X187680500Y-94458165D01*
X187625353Y-94180926D01*
X187517180Y-93919773D01*
X187360137Y-93684741D01*
X187160259Y-93484863D01*
X186925227Y-93327820D01*
X186664074Y-93219647D01*
X186638199Y-93214500D01*
X186664074Y-93209353D01*
X186925227Y-93101180D01*
X187160259Y-92944137D01*
X187360137Y-92744259D01*
X187517180Y-92509227D01*
X187625353Y-92248074D01*
X187680500Y-91970835D01*
X187680500Y-91688165D01*
X187625353Y-91410926D01*
X187517180Y-91149773D01*
X187360137Y-90914741D01*
X187160259Y-90714863D01*
X186925227Y-90557820D01*
X186664074Y-90449647D01*
X186638199Y-90444500D01*
X186664074Y-90439353D01*
X186925227Y-90331180D01*
X186967154Y-90303165D01*
X187650500Y-90303165D01*
X187650500Y-90585835D01*
X187705647Y-90863074D01*
X187813820Y-91124227D01*
X187970863Y-91359259D01*
X188170741Y-91559137D01*
X188405773Y-91716180D01*
X188666926Y-91824353D01*
X188692801Y-91829500D01*
X188666926Y-91834647D01*
X188405773Y-91942820D01*
X188170741Y-92099863D01*
X187970863Y-92299741D01*
X187813820Y-92534773D01*
X187705647Y-92795926D01*
X187650500Y-93073165D01*
X187650500Y-93355835D01*
X187705647Y-93633074D01*
X187813820Y-93894227D01*
X187970863Y-94129259D01*
X188170741Y-94329137D01*
X188405773Y-94486180D01*
X188666926Y-94594353D01*
X188692801Y-94599500D01*
X188666926Y-94604647D01*
X188405773Y-94712820D01*
X188170741Y-94869863D01*
X187970863Y-95069741D01*
X187813820Y-95304773D01*
X187705647Y-95565926D01*
X187650500Y-95843165D01*
X187650500Y-96125835D01*
X187705647Y-96403074D01*
X187813820Y-96664227D01*
X187970863Y-96899259D01*
X188170741Y-97099137D01*
X188405773Y-97256180D01*
X188666926Y-97364353D01*
X188692801Y-97369500D01*
X188666926Y-97374647D01*
X188405773Y-97482820D01*
X188170741Y-97639863D01*
X187970863Y-97839741D01*
X187813820Y-98074773D01*
X187705647Y-98335926D01*
X187650500Y-98613165D01*
X187650500Y-98895835D01*
X187705647Y-99173074D01*
X187813820Y-99434227D01*
X187970863Y-99669259D01*
X188170741Y-99869137D01*
X188405773Y-100026180D01*
X188666926Y-100134353D01*
X188944165Y-100189500D01*
X189226835Y-100189500D01*
X189504074Y-100134353D01*
X189765227Y-100026180D01*
X190000259Y-99869137D01*
X190200137Y-99669259D01*
X190357180Y-99434227D01*
X190465353Y-99173074D01*
X190520500Y-98895835D01*
X190520500Y-98613165D01*
X190465353Y-98335926D01*
X190357180Y-98074773D01*
X190200137Y-97839741D01*
X190000259Y-97639863D01*
X189765227Y-97482820D01*
X189504074Y-97374647D01*
X189478199Y-97369500D01*
X189504074Y-97364353D01*
X189765227Y-97256180D01*
X190000259Y-97099137D01*
X190200137Y-96899259D01*
X190357180Y-96664227D01*
X190465353Y-96403074D01*
X190520500Y-96125835D01*
X190520500Y-95843165D01*
X190465353Y-95565926D01*
X190357180Y-95304773D01*
X190200137Y-95069741D01*
X190000259Y-94869863D01*
X189765227Y-94712820D01*
X189504074Y-94604647D01*
X189478199Y-94599500D01*
X189504074Y-94594353D01*
X189765227Y-94486180D01*
X190000259Y-94329137D01*
X190200137Y-94129259D01*
X190357180Y-93894227D01*
X190465353Y-93633074D01*
X190520500Y-93355835D01*
X190520500Y-93073165D01*
X190465353Y-92795926D01*
X190357180Y-92534773D01*
X190200137Y-92299741D01*
X190000259Y-92099863D01*
X189765227Y-91942820D01*
X189504074Y-91834647D01*
X189478199Y-91829500D01*
X189504074Y-91824353D01*
X189765227Y-91716180D01*
X190000259Y-91559137D01*
X190200137Y-91359259D01*
X190357180Y-91124227D01*
X190465353Y-90863074D01*
X190520500Y-90585835D01*
X190520500Y-90303165D01*
X190465353Y-90025926D01*
X190357180Y-89764773D01*
X190200137Y-89529741D01*
X190000259Y-89329863D01*
X189765227Y-89172820D01*
X189504074Y-89064647D01*
X189226835Y-89009500D01*
X188944165Y-89009500D01*
X188666926Y-89064647D01*
X188405773Y-89172820D01*
X188170741Y-89329863D01*
X187970863Y-89529741D01*
X187813820Y-89764773D01*
X187705647Y-90025926D01*
X187650500Y-90303165D01*
X186967154Y-90303165D01*
X187160259Y-90174137D01*
X187360137Y-89974259D01*
X187517180Y-89739227D01*
X187625353Y-89478074D01*
X187680500Y-89200835D01*
X187680500Y-88918165D01*
X187625353Y-88640926D01*
X187517180Y-88379773D01*
X187360137Y-88144741D01*
X187160259Y-87944863D01*
X186925227Y-87787820D01*
X186664074Y-87679647D01*
X186386835Y-87624500D01*
X186104165Y-87624500D01*
X185826926Y-87679647D01*
X185565773Y-87787820D01*
X185330741Y-87944863D01*
X185130863Y-88144741D01*
X184973820Y-88379773D01*
X184865647Y-88640926D01*
X184810500Y-88918165D01*
X184810500Y-89200835D01*
X184865647Y-89478074D01*
X184973820Y-89739227D01*
X185130863Y-89974259D01*
X185330741Y-90174137D01*
X185565773Y-90331180D01*
X185826926Y-90439353D01*
X185852801Y-90444500D01*
X185826926Y-90449647D01*
X185565773Y-90557820D01*
X185330741Y-90714863D01*
X185130863Y-90914741D01*
X184973820Y-91149773D01*
X184865647Y-91410926D01*
X184810500Y-91688165D01*
X184810500Y-91970835D01*
X184865647Y-92248074D01*
X184973820Y-92509227D01*
X185130863Y-92744259D01*
X185330741Y-92944137D01*
X185565773Y-93101180D01*
X185826926Y-93209353D01*
X185852801Y-93214500D01*
X185826926Y-93219647D01*
X185565773Y-93327820D01*
X185330741Y-93484863D01*
X185130863Y-93684741D01*
X184973820Y-93919773D01*
X184865647Y-94180926D01*
X184810500Y-94458165D01*
X184810500Y-94740835D01*
X184865647Y-95018074D01*
X184973820Y-95279227D01*
X185130863Y-95514259D01*
X185330741Y-95714137D01*
X185565773Y-95871180D01*
X185826926Y-95979353D01*
X185852801Y-95984500D01*
X185826926Y-95989647D01*
X185565773Y-96097820D01*
X185330741Y-96254863D01*
X185130863Y-96454741D01*
X184973820Y-96689773D01*
X184865647Y-96950926D01*
X184810500Y-97228165D01*
X184810500Y-97510835D01*
X184865647Y-97788074D01*
X184973820Y-98049227D01*
X185130863Y-98284259D01*
X185330741Y-98484137D01*
X185565773Y-98641180D01*
X185711225Y-98701428D01*
X185445500Y-98701428D01*
X185321018Y-98713688D01*
X185201320Y-98749998D01*
X185091006Y-98808963D01*
X184994315Y-98888315D01*
X184914963Y-98985006D01*
X184855998Y-99095320D01*
X184819688Y-99215018D01*
X184807428Y-99339500D01*
X181759896Y-99339500D01*
X181699259Y-99278863D01*
X181466741Y-99123500D01*
X181699259Y-98968137D01*
X181899137Y-98768259D01*
X182056180Y-98533227D01*
X182164353Y-98272074D01*
X182219500Y-97994835D01*
X182219500Y-97712165D01*
X182164353Y-97434926D01*
X182056180Y-97173773D01*
X181899137Y-96938741D01*
X181699259Y-96738863D01*
X181464227Y-96581820D01*
X181203074Y-96473647D01*
X180925835Y-96418500D01*
X180643165Y-96418500D01*
X180365926Y-96473647D01*
X180104773Y-96581820D01*
X179869741Y-96738863D01*
X179669863Y-96938741D01*
X179512820Y-97173773D01*
X179404647Y-97434926D01*
X179349500Y-97712165D01*
X174602572Y-97712165D01*
X174602572Y-97053500D01*
X174590312Y-96929018D01*
X174554002Y-96809320D01*
X174495037Y-96699006D01*
X174415685Y-96602315D01*
X174318994Y-96522963D01*
X174208680Y-96463998D01*
X174088982Y-96427688D01*
X173964500Y-96415428D01*
X172364500Y-96415428D01*
X172240018Y-96427688D01*
X172120320Y-96463998D01*
X172010006Y-96522963D01*
X171913315Y-96602315D01*
X171833963Y-96699006D01*
X171774998Y-96809320D01*
X171738688Y-96929018D01*
X171726428Y-97053500D01*
X130937000Y-97053500D01*
X130937000Y-94219665D01*
X134518500Y-94219665D01*
X134518500Y-94502335D01*
X134573647Y-94779574D01*
X134681820Y-95040727D01*
X134838863Y-95275759D01*
X135038741Y-95475637D01*
X135273773Y-95632680D01*
X135534926Y-95740853D01*
X135812165Y-95796000D01*
X136094835Y-95796000D01*
X136372074Y-95740853D01*
X136633227Y-95632680D01*
X136868259Y-95475637D01*
X137068137Y-95275759D01*
X137223500Y-95043241D01*
X137378863Y-95275759D01*
X137578741Y-95475637D01*
X137813773Y-95632680D01*
X138074926Y-95740853D01*
X138352165Y-95796000D01*
X138634835Y-95796000D01*
X138912074Y-95740853D01*
X139173227Y-95632680D01*
X139408259Y-95475637D01*
X139608137Y-95275759D01*
X139763500Y-95043241D01*
X139918863Y-95275759D01*
X140118741Y-95475637D01*
X140353773Y-95632680D01*
X140614926Y-95740853D01*
X140892165Y-95796000D01*
X141174835Y-95796000D01*
X141452074Y-95740853D01*
X141713227Y-95632680D01*
X141948259Y-95475637D01*
X142148137Y-95275759D01*
X142303500Y-95043241D01*
X142458863Y-95275759D01*
X142658741Y-95475637D01*
X142893773Y-95632680D01*
X143154926Y-95740853D01*
X143432165Y-95796000D01*
X143714835Y-95796000D01*
X143992074Y-95740853D01*
X144253227Y-95632680D01*
X144488259Y-95475637D01*
X144688137Y-95275759D01*
X144843500Y-95043241D01*
X144998863Y-95275759D01*
X145198741Y-95475637D01*
X145433773Y-95632680D01*
X145694926Y-95740853D01*
X145972165Y-95796000D01*
X146254835Y-95796000D01*
X146532074Y-95740853D01*
X146793227Y-95632680D01*
X147028259Y-95475637D01*
X147228137Y-95275759D01*
X147383500Y-95043241D01*
X147538863Y-95275759D01*
X147738741Y-95475637D01*
X147973773Y-95632680D01*
X148234926Y-95740853D01*
X148512165Y-95796000D01*
X148794835Y-95796000D01*
X149072074Y-95740853D01*
X149333227Y-95632680D01*
X149568259Y-95475637D01*
X149768137Y-95275759D01*
X149923500Y-95043241D01*
X150078863Y-95275759D01*
X150278741Y-95475637D01*
X150513773Y-95632680D01*
X150774926Y-95740853D01*
X151052165Y-95796000D01*
X151334835Y-95796000D01*
X151612074Y-95740853D01*
X151873227Y-95632680D01*
X152108259Y-95475637D01*
X152308137Y-95275759D01*
X152463500Y-95043241D01*
X152618863Y-95275759D01*
X152818741Y-95475637D01*
X153053773Y-95632680D01*
X153314926Y-95740853D01*
X153592165Y-95796000D01*
X153874835Y-95796000D01*
X154152074Y-95740853D01*
X154413227Y-95632680D01*
X154648259Y-95475637D01*
X154848137Y-95275759D01*
X155003500Y-95043241D01*
X155158863Y-95275759D01*
X155358741Y-95475637D01*
X155593773Y-95632680D01*
X155854926Y-95740853D01*
X156132165Y-95796000D01*
X156414835Y-95796000D01*
X156692074Y-95740853D01*
X156953227Y-95632680D01*
X157188259Y-95475637D01*
X157388137Y-95275759D01*
X157543500Y-95043241D01*
X157698863Y-95275759D01*
X157898741Y-95475637D01*
X158133773Y-95632680D01*
X158394926Y-95740853D01*
X158672165Y-95796000D01*
X158954835Y-95796000D01*
X159232074Y-95740853D01*
X159493227Y-95632680D01*
X159728259Y-95475637D01*
X159928137Y-95275759D01*
X160083500Y-95043241D01*
X160238863Y-95275759D01*
X160438741Y-95475637D01*
X160673773Y-95632680D01*
X160934926Y-95740853D01*
X161212165Y-95796000D01*
X161494835Y-95796000D01*
X161772074Y-95740853D01*
X162033227Y-95632680D01*
X162268259Y-95475637D01*
X162468137Y-95275759D01*
X162623500Y-95043241D01*
X162778863Y-95275759D01*
X162978741Y-95475637D01*
X163213773Y-95632680D01*
X163474926Y-95740853D01*
X163752165Y-95796000D01*
X164034835Y-95796000D01*
X164312074Y-95740853D01*
X164573227Y-95632680D01*
X164808259Y-95475637D01*
X165008137Y-95275759D01*
X165163500Y-95043241D01*
X165318863Y-95275759D01*
X165518741Y-95475637D01*
X165753773Y-95632680D01*
X166014926Y-95740853D01*
X166292165Y-95796000D01*
X166574835Y-95796000D01*
X166852074Y-95740853D01*
X167113227Y-95632680D01*
X167348259Y-95475637D01*
X167546857Y-95277039D01*
X167547688Y-95285482D01*
X167583998Y-95405180D01*
X167642963Y-95515494D01*
X167722315Y-95612185D01*
X167819006Y-95691537D01*
X167929320Y-95750502D01*
X168049018Y-95786812D01*
X168173500Y-95799072D01*
X169773500Y-95799072D01*
X169897982Y-95786812D01*
X170017680Y-95750502D01*
X170127994Y-95691537D01*
X170224685Y-95612185D01*
X170304037Y-95515494D01*
X170363002Y-95405180D01*
X170399312Y-95285482D01*
X170411572Y-95161000D01*
X170411572Y-94513061D01*
X176511000Y-94513061D01*
X176511000Y-94716939D01*
X176550774Y-94916898D01*
X176628795Y-95105256D01*
X176742063Y-95274774D01*
X176886226Y-95418937D01*
X177055744Y-95532205D01*
X177244102Y-95610226D01*
X177444061Y-95650000D01*
X177647939Y-95650000D01*
X177847898Y-95610226D01*
X178036256Y-95532205D01*
X178205774Y-95418937D01*
X178349937Y-95274774D01*
X178463205Y-95105256D01*
X178541226Y-94916898D01*
X178581000Y-94716939D01*
X178581000Y-94513061D01*
X178541226Y-94313102D01*
X178463205Y-94124744D01*
X178349937Y-93955226D01*
X178205774Y-93811063D01*
X178036256Y-93697795D01*
X177847898Y-93619774D01*
X177647939Y-93580000D01*
X177444061Y-93580000D01*
X177244102Y-93619774D01*
X177055744Y-93697795D01*
X176886226Y-93811063D01*
X176742063Y-93955226D01*
X176628795Y-94124744D01*
X176550774Y-94313102D01*
X176511000Y-94513061D01*
X170411572Y-94513061D01*
X170411572Y-93561000D01*
X170399312Y-93436518D01*
X170363002Y-93316820D01*
X170304037Y-93206506D01*
X170224685Y-93109815D01*
X170127994Y-93030463D01*
X170017680Y-92971498D01*
X169897982Y-92935188D01*
X169773500Y-92922928D01*
X168173500Y-92922928D01*
X168049018Y-92935188D01*
X167929320Y-92971498D01*
X167819006Y-93030463D01*
X167722315Y-93109815D01*
X167642963Y-93206506D01*
X167583998Y-93316820D01*
X167547688Y-93436518D01*
X167546857Y-93444961D01*
X167348259Y-93246363D01*
X167113227Y-93089320D01*
X166852074Y-92981147D01*
X166574835Y-92926000D01*
X166292165Y-92926000D01*
X166014926Y-92981147D01*
X165753773Y-93089320D01*
X165518741Y-93246363D01*
X165318863Y-93446241D01*
X165163500Y-93678759D01*
X165008137Y-93446241D01*
X164808259Y-93246363D01*
X164573227Y-93089320D01*
X164312074Y-92981147D01*
X164034835Y-92926000D01*
X163752165Y-92926000D01*
X163474926Y-92981147D01*
X163213773Y-93089320D01*
X162978741Y-93246363D01*
X162778863Y-93446241D01*
X162623500Y-93678759D01*
X162468137Y-93446241D01*
X162268259Y-93246363D01*
X162033227Y-93089320D01*
X161772074Y-92981147D01*
X161494835Y-92926000D01*
X161212165Y-92926000D01*
X160934926Y-92981147D01*
X160673773Y-93089320D01*
X160438741Y-93246363D01*
X160238863Y-93446241D01*
X160083500Y-93678759D01*
X159928137Y-93446241D01*
X159728259Y-93246363D01*
X159493227Y-93089320D01*
X159232074Y-92981147D01*
X158954835Y-92926000D01*
X158672165Y-92926000D01*
X158394926Y-92981147D01*
X158133773Y-93089320D01*
X157898741Y-93246363D01*
X157698863Y-93446241D01*
X157543500Y-93678759D01*
X157388137Y-93446241D01*
X157188259Y-93246363D01*
X156953227Y-93089320D01*
X156692074Y-92981147D01*
X156414835Y-92926000D01*
X156132165Y-92926000D01*
X155854926Y-92981147D01*
X155593773Y-93089320D01*
X155358741Y-93246363D01*
X155158863Y-93446241D01*
X155003500Y-93678759D01*
X154848137Y-93446241D01*
X154648259Y-93246363D01*
X154413227Y-93089320D01*
X154152074Y-92981147D01*
X153874835Y-92926000D01*
X153592165Y-92926000D01*
X153314926Y-92981147D01*
X153053773Y-93089320D01*
X152818741Y-93246363D01*
X152618863Y-93446241D01*
X152463500Y-93678759D01*
X152308137Y-93446241D01*
X152108259Y-93246363D01*
X151873227Y-93089320D01*
X151612074Y-92981147D01*
X151334835Y-92926000D01*
X151052165Y-92926000D01*
X150774926Y-92981147D01*
X150513773Y-93089320D01*
X150278741Y-93246363D01*
X150078863Y-93446241D01*
X149923500Y-93678759D01*
X149768137Y-93446241D01*
X149568259Y-93246363D01*
X149333227Y-93089320D01*
X149072074Y-92981147D01*
X148794835Y-92926000D01*
X148512165Y-92926000D01*
X148234926Y-92981147D01*
X147973773Y-93089320D01*
X147738741Y-93246363D01*
X147538863Y-93446241D01*
X147383500Y-93678759D01*
X147228137Y-93446241D01*
X147028259Y-93246363D01*
X146793227Y-93089320D01*
X146532074Y-92981147D01*
X146254835Y-92926000D01*
X145972165Y-92926000D01*
X145694926Y-92981147D01*
X145433773Y-93089320D01*
X145198741Y-93246363D01*
X144998863Y-93446241D01*
X144843500Y-93678759D01*
X144688137Y-93446241D01*
X144488259Y-93246363D01*
X144253227Y-93089320D01*
X143992074Y-92981147D01*
X143714835Y-92926000D01*
X143432165Y-92926000D01*
X143154926Y-92981147D01*
X142893773Y-93089320D01*
X142658741Y-93246363D01*
X142458863Y-93446241D01*
X142303500Y-93678759D01*
X142148137Y-93446241D01*
X141948259Y-93246363D01*
X141713227Y-93089320D01*
X141452074Y-92981147D01*
X141174835Y-92926000D01*
X140892165Y-92926000D01*
X140614926Y-92981147D01*
X140353773Y-93089320D01*
X140118741Y-93246363D01*
X139918863Y-93446241D01*
X139763500Y-93678759D01*
X139608137Y-93446241D01*
X139408259Y-93246363D01*
X139173227Y-93089320D01*
X138912074Y-92981147D01*
X138634835Y-92926000D01*
X138352165Y-92926000D01*
X138074926Y-92981147D01*
X137813773Y-93089320D01*
X137578741Y-93246363D01*
X137378863Y-93446241D01*
X137223500Y-93678759D01*
X137068137Y-93446241D01*
X136868259Y-93246363D01*
X136633227Y-93089320D01*
X136372074Y-92981147D01*
X136094835Y-92926000D01*
X135812165Y-92926000D01*
X135534926Y-92981147D01*
X135273773Y-93089320D01*
X135038741Y-93246363D01*
X134838863Y-93446241D01*
X134681820Y-93681273D01*
X134573647Y-93942426D01*
X134518500Y-94219665D01*
X130937000Y-94219665D01*
X130937000Y-91465061D01*
X141713000Y-91465061D01*
X141713000Y-91668939D01*
X141752774Y-91868898D01*
X141830795Y-92057256D01*
X141944063Y-92226774D01*
X142088226Y-92370937D01*
X142257744Y-92484205D01*
X142446102Y-92562226D01*
X142646061Y-92602000D01*
X142849939Y-92602000D01*
X143049898Y-92562226D01*
X143238256Y-92484205D01*
X143407774Y-92370937D01*
X143551937Y-92226774D01*
X143665205Y-92057256D01*
X143743226Y-91868898D01*
X143783000Y-91668939D01*
X143783000Y-91465061D01*
X143743226Y-91265102D01*
X143665205Y-91076744D01*
X143551937Y-90907226D01*
X143407774Y-90763063D01*
X143238256Y-90649795D01*
X143049898Y-90571774D01*
X142849939Y-90532000D01*
X142646061Y-90532000D01*
X142446102Y-90571774D01*
X142257744Y-90649795D01*
X142088226Y-90763063D01*
X141944063Y-90907226D01*
X141830795Y-91076744D01*
X141752774Y-91265102D01*
X141713000Y-91465061D01*
X130937000Y-91465061D01*
X130937000Y-90131561D01*
X171050000Y-90131561D01*
X171050000Y-90335439D01*
X171089774Y-90535398D01*
X171167795Y-90723756D01*
X171281063Y-90893274D01*
X171425226Y-91037437D01*
X171594744Y-91150705D01*
X171783102Y-91228726D01*
X171983061Y-91268500D01*
X172186939Y-91268500D01*
X172386898Y-91228726D01*
X172575256Y-91150705D01*
X172744774Y-91037437D01*
X172888937Y-90893274D01*
X173002205Y-90723756D01*
X173080226Y-90535398D01*
X173120000Y-90335439D01*
X173120000Y-90131561D01*
X173080226Y-89931602D01*
X173002205Y-89743244D01*
X172888937Y-89573726D01*
X172744774Y-89429563D01*
X172575256Y-89316295D01*
X172386898Y-89238274D01*
X172186939Y-89198500D01*
X171983061Y-89198500D01*
X171783102Y-89238274D01*
X171594744Y-89316295D01*
X171425226Y-89429563D01*
X171281063Y-89573726D01*
X171167795Y-89743244D01*
X171089774Y-89931602D01*
X171050000Y-90131561D01*
X130937000Y-90131561D01*
X130937000Y-87303089D01*
X144484000Y-87303089D01*
X144484000Y-87575911D01*
X144537225Y-87843489D01*
X144641629Y-88095543D01*
X144793201Y-88322386D01*
X144986114Y-88515299D01*
X145212957Y-88666871D01*
X145465011Y-88771275D01*
X145732589Y-88824500D01*
X146005411Y-88824500D01*
X146272989Y-88771275D01*
X146525043Y-88666871D01*
X146751886Y-88515299D01*
X146944799Y-88322386D01*
X147096371Y-88095543D01*
X147200775Y-87843489D01*
X147254000Y-87575911D01*
X147254000Y-87303089D01*
X149364000Y-87303089D01*
X149364000Y-87575911D01*
X149417225Y-87843489D01*
X149521629Y-88095543D01*
X149673201Y-88322386D01*
X149866114Y-88515299D01*
X150092957Y-88666871D01*
X150345011Y-88771275D01*
X150612589Y-88824500D01*
X150885411Y-88824500D01*
X151152989Y-88771275D01*
X151405043Y-88666871D01*
X151631886Y-88515299D01*
X151824799Y-88322386D01*
X151976371Y-88095543D01*
X152080775Y-87843489D01*
X152134000Y-87575911D01*
X152134000Y-87303089D01*
X152080775Y-87035511D01*
X151976371Y-86783457D01*
X151824799Y-86556614D01*
X151631886Y-86363701D01*
X151405043Y-86212129D01*
X151152989Y-86107725D01*
X150885411Y-86054500D01*
X150612589Y-86054500D01*
X150345011Y-86107725D01*
X150092957Y-86212129D01*
X149866114Y-86363701D01*
X149673201Y-86556614D01*
X149521629Y-86783457D01*
X149417225Y-87035511D01*
X149364000Y-87303089D01*
X147254000Y-87303089D01*
X147200775Y-87035511D01*
X147096371Y-86783457D01*
X146944799Y-86556614D01*
X146751886Y-86363701D01*
X146525043Y-86212129D01*
X146272989Y-86107725D01*
X146005411Y-86054500D01*
X145732589Y-86054500D01*
X145465011Y-86107725D01*
X145212957Y-86212129D01*
X144986114Y-86363701D01*
X144793201Y-86556614D01*
X144641629Y-86783457D01*
X144537225Y-87035511D01*
X144484000Y-87303089D01*
X130937000Y-87303089D01*
X130937000Y-81839975D01*
X183910500Y-81839975D01*
X183910500Y-82359025D01*
X184011761Y-82868101D01*
X184210393Y-83347641D01*
X184498762Y-83779215D01*
X184865785Y-84146238D01*
X185297359Y-84434607D01*
X185776899Y-84633239D01*
X186285975Y-84734500D01*
X186805025Y-84734500D01*
X187314101Y-84633239D01*
X187793641Y-84434607D01*
X188225215Y-84146238D01*
X188592238Y-83779215D01*
X188880607Y-83347641D01*
X189079239Y-82868101D01*
X189180500Y-82359025D01*
X189180500Y-81839975D01*
X189079239Y-81330899D01*
X188880607Y-80851359D01*
X188592238Y-80419785D01*
X188225215Y-80052762D01*
X187793641Y-79764393D01*
X187314101Y-79565761D01*
X186805025Y-79464500D01*
X186285975Y-79464500D01*
X185776899Y-79565761D01*
X185297359Y-79764393D01*
X184865785Y-80052762D01*
X184498762Y-80419785D01*
X184210393Y-80851359D01*
X184011761Y-81330899D01*
X183910500Y-81839975D01*
X130937000Y-81839975D01*
X130937000Y-75767861D01*
X191979600Y-75767861D01*
X191979600Y-75971739D01*
X192019374Y-76171698D01*
X192097395Y-76360056D01*
X192210663Y-76529574D01*
X192354826Y-76673737D01*
X192524344Y-76787005D01*
X192712702Y-76865026D01*
X192912661Y-76904800D01*
X193116539Y-76904800D01*
X193316498Y-76865026D01*
X193504856Y-76787005D01*
X193674374Y-76673737D01*
X193818537Y-76529574D01*
X193931805Y-76360056D01*
X194009826Y-76171698D01*
X194049600Y-75971739D01*
X194049600Y-75767861D01*
X194009826Y-75567902D01*
X193931805Y-75379544D01*
X193818537Y-75210026D01*
X193674374Y-75065863D01*
X193504856Y-74952595D01*
X193316498Y-74874574D01*
X193116539Y-74834800D01*
X192912661Y-74834800D01*
X192712702Y-74874574D01*
X192524344Y-74952595D01*
X192354826Y-75065863D01*
X192210663Y-75210026D01*
X192097395Y-75379544D01*
X192019374Y-75567902D01*
X191979600Y-75767861D01*
X130937000Y-75767861D01*
X130937000Y-74456911D01*
X143654500Y-74456911D01*
X143654500Y-74641089D01*
X143690432Y-74821729D01*
X143760914Y-74991889D01*
X143863238Y-75145028D01*
X143993472Y-75275262D01*
X144146611Y-75377586D01*
X144316771Y-75448068D01*
X144497411Y-75484000D01*
X144681589Y-75484000D01*
X144862229Y-75448068D01*
X145032389Y-75377586D01*
X145185528Y-75275262D01*
X145315762Y-75145028D01*
X145418086Y-74991889D01*
X145488568Y-74821729D01*
X145524500Y-74641089D01*
X145524500Y-74456911D01*
X146639000Y-74456911D01*
X146639000Y-74641089D01*
X146674932Y-74821729D01*
X146745414Y-74991889D01*
X146847738Y-75145028D01*
X146977972Y-75275262D01*
X147131111Y-75377586D01*
X147301271Y-75448068D01*
X147481911Y-75484000D01*
X147666089Y-75484000D01*
X147846729Y-75448068D01*
X148016889Y-75377586D01*
X148170028Y-75275262D01*
X148300262Y-75145028D01*
X148402586Y-74991889D01*
X148473068Y-74821729D01*
X148509000Y-74641089D01*
X148509000Y-74456911D01*
X148473068Y-74276271D01*
X148402586Y-74106111D01*
X148300262Y-73952972D01*
X148170028Y-73822738D01*
X148016889Y-73720414D01*
X147846729Y-73649932D01*
X147666089Y-73614000D01*
X147481911Y-73614000D01*
X147301271Y-73649932D01*
X147131111Y-73720414D01*
X146977972Y-73822738D01*
X146847738Y-73952972D01*
X146745414Y-74106111D01*
X146674932Y-74276271D01*
X146639000Y-74456911D01*
X145524500Y-74456911D01*
X145488568Y-74276271D01*
X145418086Y-74106111D01*
X145315762Y-73952972D01*
X145185528Y-73822738D01*
X145032389Y-73720414D01*
X144862229Y-73649932D01*
X144681589Y-73614000D01*
X144497411Y-73614000D01*
X144316771Y-73649932D01*
X144146611Y-73720414D01*
X143993472Y-73822738D01*
X143863238Y-73952972D01*
X143760914Y-74106111D01*
X143690432Y-74276271D01*
X143654500Y-74456911D01*
X130937000Y-74456911D01*
X130937000Y-73167212D01*
X132596000Y-73167212D01*
X132596000Y-73390788D01*
X132639617Y-73610067D01*
X132725176Y-73816624D01*
X132849388Y-74002520D01*
X133007480Y-74160612D01*
X133193376Y-74284824D01*
X133399933Y-74370383D01*
X133619212Y-74414000D01*
X133842788Y-74414000D01*
X134062067Y-74370383D01*
X134268624Y-74284824D01*
X134454520Y-74160612D01*
X134612612Y-74002520D01*
X134736824Y-73816624D01*
X134822383Y-73610067D01*
X134866000Y-73390788D01*
X134866000Y-73377411D01*
X141622500Y-73377411D01*
X141622500Y-73561589D01*
X141658432Y-73742229D01*
X141728914Y-73912389D01*
X141831238Y-74065528D01*
X141961472Y-74195762D01*
X142114611Y-74298086D01*
X142284771Y-74368568D01*
X142465411Y-74404500D01*
X142649589Y-74404500D01*
X142830229Y-74368568D01*
X143000389Y-74298086D01*
X143153528Y-74195762D01*
X143283762Y-74065528D01*
X143386086Y-73912389D01*
X143456568Y-73742229D01*
X143492500Y-73561589D01*
X143492500Y-73377411D01*
X148988500Y-73377411D01*
X148988500Y-73561589D01*
X149024432Y-73742229D01*
X149094914Y-73912389D01*
X149197238Y-74065528D01*
X149327472Y-74195762D01*
X149480611Y-74298086D01*
X149650771Y-74368568D01*
X149831411Y-74404500D01*
X150015589Y-74404500D01*
X150196229Y-74368568D01*
X150366389Y-74298086D01*
X150519528Y-74195762D01*
X150649762Y-74065528D01*
X150752086Y-73912389D01*
X150822568Y-73742229D01*
X150828887Y-73710461D01*
X189744400Y-73710461D01*
X189744400Y-73914339D01*
X189784174Y-74114298D01*
X189862195Y-74302656D01*
X189975463Y-74472174D01*
X190119626Y-74616337D01*
X190289144Y-74729605D01*
X190477502Y-74807626D01*
X190677461Y-74847400D01*
X190881339Y-74847400D01*
X191081298Y-74807626D01*
X191269656Y-74729605D01*
X191439174Y-74616337D01*
X191583337Y-74472174D01*
X191696605Y-74302656D01*
X191774626Y-74114298D01*
X191814400Y-73914339D01*
X191814400Y-73710461D01*
X191774626Y-73510502D01*
X191696605Y-73322144D01*
X191583337Y-73152626D01*
X191439174Y-73008463D01*
X191269656Y-72895195D01*
X191081298Y-72817174D01*
X190881339Y-72777400D01*
X190677461Y-72777400D01*
X190477502Y-72817174D01*
X190289144Y-72895195D01*
X190119626Y-73008463D01*
X189975463Y-73152626D01*
X189862195Y-73322144D01*
X189784174Y-73510502D01*
X189744400Y-73710461D01*
X150828887Y-73710461D01*
X150858500Y-73561589D01*
X150858500Y-73377411D01*
X150822568Y-73196771D01*
X150752086Y-73026611D01*
X150649762Y-72873472D01*
X150519528Y-72743238D01*
X150366389Y-72640914D01*
X150196229Y-72570432D01*
X150015589Y-72534500D01*
X149831411Y-72534500D01*
X149650771Y-72570432D01*
X149480611Y-72640914D01*
X149327472Y-72743238D01*
X149197238Y-72873472D01*
X149094914Y-73026611D01*
X149024432Y-73196771D01*
X148988500Y-73377411D01*
X143492500Y-73377411D01*
X143456568Y-73196771D01*
X143386086Y-73026611D01*
X143283762Y-72873472D01*
X143153528Y-72743238D01*
X143000389Y-72640914D01*
X142830229Y-72570432D01*
X142649589Y-72534500D01*
X142465411Y-72534500D01*
X142284771Y-72570432D01*
X142114611Y-72640914D01*
X141961472Y-72743238D01*
X141831238Y-72873472D01*
X141728914Y-73026611D01*
X141658432Y-73196771D01*
X141622500Y-73377411D01*
X134866000Y-73377411D01*
X134866000Y-73167212D01*
X134822383Y-72947933D01*
X134736824Y-72741376D01*
X134612612Y-72555480D01*
X134454520Y-72397388D01*
X134268624Y-72273176D01*
X134062067Y-72187617D01*
X133842788Y-72144000D01*
X133619212Y-72144000D01*
X133399933Y-72187617D01*
X133193376Y-72273176D01*
X133007480Y-72397388D01*
X132849388Y-72555480D01*
X132725176Y-72741376D01*
X132639617Y-72947933D01*
X132596000Y-73167212D01*
X130937000Y-73167212D01*
X130937000Y-71643212D01*
X147455000Y-71643212D01*
X147455000Y-71866788D01*
X147498617Y-72086067D01*
X147584176Y-72292624D01*
X147708388Y-72478520D01*
X147866480Y-72636612D01*
X148052376Y-72760824D01*
X148258933Y-72846383D01*
X148478212Y-72890000D01*
X148701788Y-72890000D01*
X148921067Y-72846383D01*
X149127624Y-72760824D01*
X149313520Y-72636612D01*
X149471612Y-72478520D01*
X149595824Y-72292624D01*
X149681383Y-72086067D01*
X149725000Y-71866788D01*
X149725000Y-71643212D01*
X149681383Y-71423933D01*
X149675161Y-71408911D01*
X150893500Y-71408911D01*
X150893500Y-71593089D01*
X150929432Y-71773729D01*
X150999914Y-71943889D01*
X151102238Y-72097028D01*
X151232472Y-72227262D01*
X151385611Y-72329586D01*
X151555771Y-72400068D01*
X151736411Y-72436000D01*
X151920589Y-72436000D01*
X152101229Y-72400068D01*
X152271389Y-72329586D01*
X152424528Y-72227262D01*
X152554762Y-72097028D01*
X152657086Y-71943889D01*
X152727568Y-71773729D01*
X152763500Y-71593089D01*
X152763500Y-71408911D01*
X152727568Y-71228271D01*
X152657086Y-71058111D01*
X152554762Y-70904972D01*
X152424528Y-70774738D01*
X152271389Y-70672414D01*
X152101229Y-70601932D01*
X151920589Y-70566000D01*
X151736411Y-70566000D01*
X151555771Y-70601932D01*
X151385611Y-70672414D01*
X151232472Y-70774738D01*
X151102238Y-70904972D01*
X150999914Y-71058111D01*
X150929432Y-71228271D01*
X150893500Y-71408911D01*
X149675161Y-71408911D01*
X149595824Y-71217376D01*
X149471612Y-71031480D01*
X149313520Y-70873388D01*
X149127624Y-70749176D01*
X148921067Y-70663617D01*
X148701788Y-70620000D01*
X148478212Y-70620000D01*
X148258933Y-70663617D01*
X148052376Y-70749176D01*
X147866480Y-70873388D01*
X147708388Y-71031480D01*
X147584176Y-71217376D01*
X147498617Y-71423933D01*
X147455000Y-71643212D01*
X130937000Y-71643212D01*
X130937000Y-70306861D01*
X172751800Y-70306861D01*
X172751800Y-70510739D01*
X172791574Y-70710698D01*
X172869595Y-70899056D01*
X172982863Y-71068574D01*
X173127026Y-71212737D01*
X173296544Y-71326005D01*
X173484902Y-71404026D01*
X173684861Y-71443800D01*
X173888739Y-71443800D01*
X174088698Y-71404026D01*
X174277056Y-71326005D01*
X174446574Y-71212737D01*
X174590737Y-71068574D01*
X174704005Y-70899056D01*
X174782026Y-70710698D01*
X174821800Y-70510739D01*
X174821800Y-70306861D01*
X174782026Y-70106902D01*
X174704005Y-69918544D01*
X174590737Y-69749026D01*
X174579923Y-69738212D01*
X179306600Y-69738212D01*
X179306600Y-69961788D01*
X179350217Y-70181067D01*
X179435776Y-70387624D01*
X179559988Y-70573520D01*
X179718080Y-70731612D01*
X179903976Y-70855824D01*
X180110533Y-70941383D01*
X180329812Y-70985000D01*
X180553388Y-70985000D01*
X180772667Y-70941383D01*
X180979224Y-70855824D01*
X181165120Y-70731612D01*
X181323212Y-70573520D01*
X181447424Y-70387624D01*
X181532983Y-70181067D01*
X181576600Y-69961788D01*
X181576600Y-69738212D01*
X181532983Y-69518933D01*
X181447424Y-69312376D01*
X181323212Y-69126480D01*
X181165120Y-68968388D01*
X180979224Y-68844176D01*
X180772667Y-68758617D01*
X180553388Y-68715000D01*
X180329812Y-68715000D01*
X180110533Y-68758617D01*
X179903976Y-68844176D01*
X179718080Y-68968388D01*
X179559988Y-69126480D01*
X179435776Y-69312376D01*
X179350217Y-69518933D01*
X179306600Y-69738212D01*
X174579923Y-69738212D01*
X174564711Y-69723000D01*
X174641537Y-69646174D01*
X174754805Y-69476656D01*
X174832826Y-69288298D01*
X174872600Y-69088339D01*
X174872600Y-68884461D01*
X174832826Y-68684502D01*
X174754805Y-68496144D01*
X174641537Y-68326626D01*
X174497374Y-68182463D01*
X174327856Y-68069195D01*
X174139498Y-67991174D01*
X173939539Y-67951400D01*
X173735661Y-67951400D01*
X173535702Y-67991174D01*
X173347344Y-68069195D01*
X173177826Y-68182463D01*
X173033663Y-68326626D01*
X172920395Y-68496144D01*
X172842374Y-68684502D01*
X172802600Y-68884461D01*
X172802600Y-69088339D01*
X172842374Y-69288298D01*
X172920395Y-69476656D01*
X173033663Y-69646174D01*
X173059689Y-69672200D01*
X172982863Y-69749026D01*
X172869595Y-69918544D01*
X172791574Y-70106902D01*
X172751800Y-70306861D01*
X130937000Y-70306861D01*
X130937000Y-69122911D01*
X153116000Y-69122911D01*
X153116000Y-69307089D01*
X153151932Y-69487729D01*
X153222414Y-69657889D01*
X153324738Y-69811028D01*
X153454972Y-69941262D01*
X153608111Y-70043586D01*
X153778271Y-70114068D01*
X153958911Y-70150000D01*
X154143089Y-70150000D01*
X154323729Y-70114068D01*
X154493889Y-70043586D01*
X154647028Y-69941262D01*
X154777262Y-69811028D01*
X154879586Y-69657889D01*
X154950068Y-69487729D01*
X154986000Y-69307089D01*
X154986000Y-69122911D01*
X154950068Y-68942271D01*
X154879586Y-68772111D01*
X154777262Y-68618972D01*
X154647028Y-68488738D01*
X154493889Y-68386414D01*
X154323729Y-68315932D01*
X154143089Y-68280000D01*
X153958911Y-68280000D01*
X153778271Y-68315932D01*
X153608111Y-68386414D01*
X153454972Y-68488738D01*
X153324738Y-68618972D01*
X153222414Y-68772111D01*
X153151932Y-68942271D01*
X153116000Y-69122911D01*
X130937000Y-69122911D01*
X130937000Y-67360461D01*
X178746200Y-67360461D01*
X178746200Y-67564339D01*
X178785974Y-67764298D01*
X178863995Y-67952656D01*
X178977263Y-68122174D01*
X179121426Y-68266337D01*
X179290944Y-68379605D01*
X179479302Y-68457626D01*
X179679261Y-68497400D01*
X179883139Y-68497400D01*
X180083098Y-68457626D01*
X180271456Y-68379605D01*
X180440974Y-68266337D01*
X180585137Y-68122174D01*
X180698405Y-67952656D01*
X180776426Y-67764298D01*
X180811282Y-67589061D01*
X192055800Y-67589061D01*
X192055800Y-67792939D01*
X192095574Y-67992898D01*
X192173595Y-68181256D01*
X192286863Y-68350774D01*
X192431026Y-68494937D01*
X192600544Y-68608205D01*
X192788902Y-68686226D01*
X192988861Y-68726000D01*
X193192739Y-68726000D01*
X193392698Y-68686226D01*
X193581056Y-68608205D01*
X193750574Y-68494937D01*
X193894737Y-68350774D01*
X194008005Y-68181256D01*
X194086026Y-67992898D01*
X194125800Y-67792939D01*
X194125800Y-67589061D01*
X194086026Y-67389102D01*
X194008005Y-67200744D01*
X193894737Y-67031226D01*
X193750574Y-66887063D01*
X193581056Y-66773795D01*
X193392698Y-66695774D01*
X193192739Y-66656000D01*
X192988861Y-66656000D01*
X192788902Y-66695774D01*
X192600544Y-66773795D01*
X192431026Y-66887063D01*
X192286863Y-67031226D01*
X192173595Y-67200744D01*
X192095574Y-67389102D01*
X192055800Y-67589061D01*
X180811282Y-67589061D01*
X180816200Y-67564339D01*
X180816200Y-67360461D01*
X180776426Y-67160502D01*
X180698405Y-66972144D01*
X180585137Y-66802626D01*
X180440974Y-66658463D01*
X180271456Y-66545195D01*
X180083098Y-66467174D01*
X179883139Y-66427400D01*
X179679261Y-66427400D01*
X179479302Y-66467174D01*
X179290944Y-66545195D01*
X179121426Y-66658463D01*
X178977263Y-66802626D01*
X178863995Y-66972144D01*
X178785974Y-67160502D01*
X178746200Y-67360461D01*
X130937000Y-67360461D01*
X130937000Y-66138411D01*
X155021000Y-66138411D01*
X155021000Y-66322589D01*
X155056932Y-66503229D01*
X155127414Y-66673389D01*
X155229738Y-66826528D01*
X155359972Y-66956762D01*
X155513111Y-67059086D01*
X155683271Y-67129568D01*
X155863911Y-67165500D01*
X156048089Y-67165500D01*
X156228729Y-67129568D01*
X156398889Y-67059086D01*
X156552028Y-66956762D01*
X156682262Y-66826528D01*
X156784586Y-66673389D01*
X156855068Y-66503229D01*
X156891000Y-66322589D01*
X156891000Y-66138411D01*
X156855068Y-65957771D01*
X156784586Y-65787611D01*
X156682262Y-65634472D01*
X156552028Y-65504238D01*
X156398889Y-65401914D01*
X156228729Y-65331432D01*
X156048089Y-65295500D01*
X155863911Y-65295500D01*
X155683271Y-65331432D01*
X155513111Y-65401914D01*
X155359972Y-65504238D01*
X155229738Y-65634472D01*
X155127414Y-65787611D01*
X155056932Y-65957771D01*
X155021000Y-66138411D01*
X130937000Y-66138411D01*
X130937000Y-64495963D01*
X171813800Y-64495963D01*
X171813800Y-64739237D01*
X171861260Y-64977836D01*
X171954357Y-65202592D01*
X172089513Y-65404867D01*
X172261533Y-65576887D01*
X172463808Y-65712043D01*
X172688564Y-65805140D01*
X172927163Y-65852600D01*
X173170437Y-65852600D01*
X173409036Y-65805140D01*
X173578322Y-65735019D01*
X173594306Y-65748137D01*
X173704620Y-65807102D01*
X173824318Y-65843412D01*
X173948800Y-65855672D01*
X174263050Y-65852600D01*
X174421800Y-65693850D01*
X174421800Y-64744600D01*
X174675800Y-64744600D01*
X174675800Y-65693850D01*
X174834550Y-65852600D01*
X175148800Y-65855672D01*
X175273282Y-65843412D01*
X175392980Y-65807102D01*
X175503294Y-65748137D01*
X175599985Y-65668785D01*
X175679337Y-65572094D01*
X175738302Y-65461780D01*
X175774612Y-65342082D01*
X175786872Y-65217600D01*
X175783800Y-64903350D01*
X175625050Y-64744600D01*
X174675800Y-64744600D01*
X174421800Y-64744600D01*
X174401800Y-64744600D01*
X174401800Y-64490600D01*
X174421800Y-64490600D01*
X174421800Y-63541350D01*
X174675800Y-63541350D01*
X174675800Y-64490600D01*
X175625050Y-64490600D01*
X175660638Y-64455012D01*
X176207800Y-64455012D01*
X176207800Y-64678588D01*
X176251417Y-64897867D01*
X176336976Y-65104424D01*
X176461188Y-65290320D01*
X176619280Y-65448412D01*
X176805176Y-65572624D01*
X177011733Y-65658183D01*
X177231012Y-65701800D01*
X177454588Y-65701800D01*
X177673867Y-65658183D01*
X177880424Y-65572624D01*
X178066320Y-65448412D01*
X178224412Y-65290320D01*
X178348624Y-65104424D01*
X178434183Y-64897867D01*
X178477800Y-64678588D01*
X178477800Y-64455012D01*
X178434183Y-64235733D01*
X178348624Y-64029176D01*
X178224412Y-63843280D01*
X178066320Y-63685188D01*
X177880424Y-63560976D01*
X177673867Y-63475417D01*
X177454588Y-63431800D01*
X177231012Y-63431800D01*
X177011733Y-63475417D01*
X176805176Y-63560976D01*
X176619280Y-63685188D01*
X176461188Y-63843280D01*
X176336976Y-64029176D01*
X176251417Y-64235733D01*
X176207800Y-64455012D01*
X175660638Y-64455012D01*
X175783800Y-64331850D01*
X175786872Y-64017600D01*
X175774612Y-63893118D01*
X175738302Y-63773420D01*
X175679337Y-63663106D01*
X175599985Y-63566415D01*
X175503294Y-63487063D01*
X175392980Y-63428098D01*
X175273282Y-63391788D01*
X175148800Y-63379528D01*
X174834550Y-63382600D01*
X174675800Y-63541350D01*
X174421800Y-63541350D01*
X174263050Y-63382600D01*
X173948800Y-63379528D01*
X173824318Y-63391788D01*
X173704620Y-63428098D01*
X173594306Y-63487063D01*
X173578322Y-63500181D01*
X173409036Y-63430060D01*
X173170437Y-63382600D01*
X172927163Y-63382600D01*
X172688564Y-63430060D01*
X172463808Y-63523157D01*
X172261533Y-63658313D01*
X172089513Y-63830333D01*
X171954357Y-64032608D01*
X171861260Y-64257364D01*
X171813800Y-64495963D01*
X130937000Y-64495963D01*
X130937000Y-62455411D01*
X155783000Y-62455411D01*
X155783000Y-62639589D01*
X155818932Y-62820229D01*
X155889414Y-62990389D01*
X155991738Y-63143528D01*
X156121972Y-63273762D01*
X156275111Y-63376086D01*
X156445271Y-63446568D01*
X156625911Y-63482500D01*
X156810089Y-63482500D01*
X156990729Y-63446568D01*
X157160889Y-63376086D01*
X157314028Y-63273762D01*
X157444262Y-63143528D01*
X157546586Y-62990389D01*
X157617068Y-62820229D01*
X157653000Y-62639589D01*
X157653000Y-62455411D01*
X157617068Y-62274771D01*
X157546586Y-62104611D01*
X157444262Y-61951472D01*
X157314028Y-61821238D01*
X157160889Y-61718914D01*
X156990729Y-61648432D01*
X156810089Y-61612500D01*
X156625911Y-61612500D01*
X156445271Y-61648432D01*
X156275111Y-61718914D01*
X156121972Y-61821238D01*
X155991738Y-61951472D01*
X155889414Y-62104611D01*
X155818932Y-62274771D01*
X155783000Y-62455411D01*
X130937000Y-62455411D01*
X130937000Y-59606036D01*
X130997414Y-59751889D01*
X131099738Y-59905028D01*
X131229972Y-60035262D01*
X131383111Y-60137586D01*
X131553271Y-60208068D01*
X131733911Y-60244000D01*
X131780000Y-60244000D01*
X131780000Y-60290089D01*
X131815932Y-60470729D01*
X131886414Y-60640889D01*
X131988738Y-60794028D01*
X132118972Y-60924262D01*
X132272111Y-61026586D01*
X132442271Y-61097068D01*
X132622911Y-61133000D01*
X132807089Y-61133000D01*
X132987729Y-61097068D01*
X133157889Y-61026586D01*
X133286500Y-60940651D01*
X133415111Y-61026586D01*
X133585271Y-61097068D01*
X133765911Y-61133000D01*
X133950089Y-61133000D01*
X134130729Y-61097068D01*
X134300889Y-61026586D01*
X134366000Y-60983080D01*
X134431111Y-61026586D01*
X134601271Y-61097068D01*
X134781911Y-61133000D01*
X134966089Y-61133000D01*
X135146729Y-61097068D01*
X135316889Y-61026586D01*
X135470028Y-60924262D01*
X135600262Y-60794028D01*
X135702586Y-60640889D01*
X135773068Y-60470729D01*
X135809000Y-60290089D01*
X135809000Y-60105911D01*
X135773068Y-59925271D01*
X135702586Y-59755111D01*
X135600262Y-59601972D01*
X135470028Y-59471738D01*
X135316889Y-59369414D01*
X135146729Y-59298932D01*
X134966089Y-59263000D01*
X134781911Y-59263000D01*
X134601271Y-59298932D01*
X134431111Y-59369414D01*
X134366000Y-59412920D01*
X134300889Y-59369414D01*
X134130729Y-59298932D01*
X133950089Y-59263000D01*
X133765911Y-59263000D01*
X133585271Y-59298932D01*
X133415111Y-59369414D01*
X133286500Y-59455349D01*
X133157889Y-59369414D01*
X132987729Y-59298932D01*
X132807089Y-59263000D01*
X132761000Y-59263000D01*
X132761000Y-59216911D01*
X132725068Y-59036271D01*
X132654586Y-58866111D01*
X132552262Y-58712972D01*
X132449790Y-58610500D01*
X132552262Y-58508028D01*
X132654586Y-58354889D01*
X132696142Y-58254561D01*
X137585500Y-58254561D01*
X137585500Y-58458439D01*
X137625274Y-58658398D01*
X137703295Y-58846756D01*
X137816563Y-59016274D01*
X137960726Y-59160437D01*
X138130244Y-59273705D01*
X138318602Y-59351726D01*
X138518561Y-59391500D01*
X138722439Y-59391500D01*
X138922398Y-59351726D01*
X139110756Y-59273705D01*
X139280274Y-59160437D01*
X139424437Y-59016274D01*
X139537705Y-58846756D01*
X139615726Y-58658398D01*
X139655500Y-58458439D01*
X139655500Y-58254561D01*
X139615726Y-58054602D01*
X139537705Y-57866244D01*
X139424437Y-57696726D01*
X139280274Y-57552563D01*
X139110756Y-57439295D01*
X138922398Y-57361274D01*
X138722439Y-57321500D01*
X138518561Y-57321500D01*
X138318602Y-57361274D01*
X138130244Y-57439295D01*
X137960726Y-57552563D01*
X137816563Y-57696726D01*
X137703295Y-57866244D01*
X137625274Y-58054602D01*
X137585500Y-58254561D01*
X132696142Y-58254561D01*
X132725068Y-58184729D01*
X132761000Y-58004089D01*
X132761000Y-57819911D01*
X132737451Y-57701521D01*
X132749911Y-57704000D01*
X132934089Y-57704000D01*
X133114729Y-57668068D01*
X133284889Y-57597586D01*
X133438028Y-57495262D01*
X133568262Y-57365028D01*
X133604000Y-57311542D01*
X133639738Y-57365028D01*
X133769972Y-57495262D01*
X133923111Y-57597586D01*
X134093271Y-57668068D01*
X134273911Y-57704000D01*
X134292833Y-57704000D01*
X134299414Y-57719889D01*
X134401738Y-57873028D01*
X134531972Y-58003262D01*
X134685111Y-58105586D01*
X134855271Y-58176068D01*
X135035911Y-58212000D01*
X135220089Y-58212000D01*
X135400729Y-58176068D01*
X135570889Y-58105586D01*
X135724028Y-58003262D01*
X135854262Y-57873028D01*
X135956586Y-57719889D01*
X136027068Y-57549729D01*
X136063000Y-57369089D01*
X136063000Y-57184911D01*
X136027068Y-57004271D01*
X135980900Y-56892811D01*
X148785300Y-56892811D01*
X148785300Y-57076989D01*
X148821232Y-57257629D01*
X148891714Y-57427789D01*
X148939463Y-57499250D01*
X148891714Y-57570711D01*
X148821232Y-57740871D01*
X148785300Y-57921511D01*
X148785300Y-58105689D01*
X148821232Y-58286329D01*
X148891714Y-58456489D01*
X148994038Y-58609628D01*
X149124272Y-58739862D01*
X149277411Y-58842186D01*
X149433334Y-58906771D01*
X149328211Y-58950314D01*
X149175072Y-59052638D01*
X149044838Y-59182872D01*
X148942514Y-59336011D01*
X148872032Y-59506171D01*
X148836100Y-59686811D01*
X148836100Y-59870989D01*
X148872032Y-60051629D01*
X148942514Y-60221789D01*
X149044838Y-60374928D01*
X149175072Y-60505162D01*
X149328211Y-60607486D01*
X149498371Y-60677968D01*
X149679011Y-60713900D01*
X149863189Y-60713900D01*
X150043829Y-60677968D01*
X150213989Y-60607486D01*
X150367128Y-60505162D01*
X150497362Y-60374928D01*
X150599686Y-60221789D01*
X150613658Y-60188057D01*
X150669714Y-60323389D01*
X150772038Y-60476528D01*
X150902272Y-60606762D01*
X151055411Y-60709086D01*
X151225571Y-60779568D01*
X151406211Y-60815500D01*
X151590389Y-60815500D01*
X151771029Y-60779568D01*
X151941189Y-60709086D01*
X152094328Y-60606762D01*
X152224562Y-60476528D01*
X152326886Y-60323389D01*
X152397368Y-60153229D01*
X152433300Y-59972589D01*
X152433300Y-59788411D01*
X152397368Y-59607771D01*
X152326886Y-59437611D01*
X152293432Y-59387543D01*
X152315894Y-59375537D01*
X152412585Y-59296185D01*
X152425530Y-59280411D01*
X155084500Y-59280411D01*
X155084500Y-59464589D01*
X155120432Y-59645229D01*
X155190914Y-59815389D01*
X155293238Y-59968528D01*
X155423472Y-60098762D01*
X155576611Y-60201086D01*
X155746771Y-60271568D01*
X155927411Y-60307500D01*
X156111589Y-60307500D01*
X156292229Y-60271568D01*
X156462389Y-60201086D01*
X156615528Y-60098762D01*
X156745762Y-59968528D01*
X156848086Y-59815389D01*
X156918568Y-59645229D01*
X156919834Y-59638861D01*
X192055800Y-59638861D01*
X192055800Y-59842739D01*
X192095574Y-60042698D01*
X192173595Y-60231056D01*
X192286863Y-60400574D01*
X192431026Y-60544737D01*
X192600544Y-60658005D01*
X192788902Y-60736026D01*
X192988861Y-60775800D01*
X193192739Y-60775800D01*
X193392698Y-60736026D01*
X193581056Y-60658005D01*
X193750574Y-60544737D01*
X193894737Y-60400574D01*
X194008005Y-60231056D01*
X194086026Y-60042698D01*
X194125800Y-59842739D01*
X194125800Y-59638861D01*
X194086026Y-59438902D01*
X194008005Y-59250544D01*
X193894737Y-59081026D01*
X193750574Y-58936863D01*
X193581056Y-58823595D01*
X193392698Y-58745574D01*
X193192739Y-58705800D01*
X192988861Y-58705800D01*
X192788902Y-58745574D01*
X192600544Y-58823595D01*
X192431026Y-58936863D01*
X192286863Y-59081026D01*
X192173595Y-59250544D01*
X192095574Y-59438902D01*
X192055800Y-59638861D01*
X156919834Y-59638861D01*
X156954500Y-59464589D01*
X156954500Y-59280411D01*
X156918568Y-59099771D01*
X156848086Y-58929611D01*
X156745762Y-58776472D01*
X156615528Y-58646238D01*
X156462389Y-58543914D01*
X156292229Y-58473432D01*
X156111589Y-58437500D01*
X155927411Y-58437500D01*
X155746771Y-58473432D01*
X155576611Y-58543914D01*
X155423472Y-58646238D01*
X155293238Y-58776472D01*
X155190914Y-58929611D01*
X155120432Y-59099771D01*
X155084500Y-59280411D01*
X152425530Y-59280411D01*
X152491937Y-59199494D01*
X152550902Y-59089180D01*
X152587212Y-58969482D01*
X152599472Y-58845000D01*
X152599472Y-57995000D01*
X152589584Y-57894600D01*
X175036328Y-57894600D01*
X175036328Y-58894600D01*
X175048588Y-59019082D01*
X175084898Y-59138780D01*
X175143863Y-59249094D01*
X175223215Y-59345785D01*
X175319906Y-59425137D01*
X175430220Y-59484102D01*
X175549918Y-59520412D01*
X175674400Y-59532672D01*
X176674400Y-59532672D01*
X176798882Y-59520412D01*
X176918580Y-59484102D01*
X177001626Y-59439712D01*
X177113333Y-59485983D01*
X177332612Y-59529600D01*
X177556188Y-59529600D01*
X177775467Y-59485983D01*
X177982024Y-59400424D01*
X178084058Y-59332247D01*
X178154194Y-59381723D01*
X178357536Y-59472046D01*
X178412526Y-59488719D01*
X178587400Y-59362554D01*
X178587400Y-58521600D01*
X178841400Y-58521600D01*
X178841400Y-59362554D01*
X179016274Y-59488719D01*
X179071264Y-59472046D01*
X179274606Y-59381723D01*
X179456420Y-59253465D01*
X179609718Y-59092201D01*
X179728610Y-58904129D01*
X179808526Y-58696476D01*
X179683529Y-58521600D01*
X178841400Y-58521600D01*
X178587400Y-58521600D01*
X178576374Y-58521600D01*
X178579400Y-58506388D01*
X178579400Y-58282812D01*
X178576374Y-58267600D01*
X178587400Y-58267600D01*
X178587400Y-57426646D01*
X178841400Y-57426646D01*
X178841400Y-58267600D01*
X179683529Y-58267600D01*
X179808526Y-58092724D01*
X179728610Y-57885071D01*
X179609718Y-57696999D01*
X179456420Y-57535735D01*
X179274606Y-57407477D01*
X179071264Y-57317154D01*
X179016274Y-57300481D01*
X178841400Y-57426646D01*
X178587400Y-57426646D01*
X178412526Y-57300481D01*
X178357536Y-57317154D01*
X178154194Y-57407477D01*
X178084058Y-57456953D01*
X177982024Y-57388776D01*
X177775467Y-57303217D01*
X177556188Y-57259600D01*
X177332612Y-57259600D01*
X177113333Y-57303217D01*
X177001626Y-57349488D01*
X176918580Y-57305098D01*
X176798882Y-57268788D01*
X176674400Y-57256528D01*
X175674400Y-57256528D01*
X175549918Y-57268788D01*
X175430220Y-57305098D01*
X175319906Y-57364063D01*
X175223215Y-57443415D01*
X175143863Y-57540106D01*
X175084898Y-57650420D01*
X175048588Y-57770118D01*
X175036328Y-57894600D01*
X152589584Y-57894600D01*
X152587212Y-57870518D01*
X152550902Y-57750820D01*
X152491937Y-57640506D01*
X152412585Y-57543815D01*
X152315894Y-57464463D01*
X152205580Y-57405498D01*
X152085882Y-57369188D01*
X151961400Y-57356928D01*
X151111400Y-57356928D01*
X150986918Y-57369188D01*
X150867220Y-57405498D01*
X150756906Y-57464463D01*
X150660215Y-57543815D01*
X150580863Y-57640506D01*
X150579135Y-57643739D01*
X150548886Y-57570711D01*
X150501137Y-57499250D01*
X150548886Y-57427789D01*
X150619368Y-57257629D01*
X150655300Y-57076989D01*
X150655300Y-56892811D01*
X150619368Y-56712171D01*
X150548886Y-56542011D01*
X150446562Y-56388872D01*
X150391701Y-56334011D01*
X151680900Y-56334011D01*
X151680900Y-56518189D01*
X151716832Y-56698829D01*
X151787314Y-56868989D01*
X151889638Y-57022128D01*
X152019872Y-57152362D01*
X152173011Y-57254686D01*
X152343171Y-57325168D01*
X152523811Y-57361100D01*
X152707989Y-57361100D01*
X152888629Y-57325168D01*
X153058789Y-57254686D01*
X153211928Y-57152362D01*
X153342162Y-57022128D01*
X153444486Y-56868989D01*
X153514968Y-56698829D01*
X153550900Y-56518189D01*
X153550900Y-56463861D01*
X190608000Y-56463861D01*
X190608000Y-56667739D01*
X190647774Y-56867698D01*
X190725795Y-57056056D01*
X190839063Y-57225574D01*
X190983226Y-57369737D01*
X191152744Y-57483005D01*
X191341102Y-57561026D01*
X191541061Y-57600800D01*
X191744939Y-57600800D01*
X191944898Y-57561026D01*
X192133256Y-57483005D01*
X192302774Y-57369737D01*
X192446937Y-57225574D01*
X192560205Y-57056056D01*
X192638226Y-56867698D01*
X192678000Y-56667739D01*
X192678000Y-56463861D01*
X192638226Y-56263902D01*
X192560205Y-56075544D01*
X192446937Y-55906026D01*
X192302774Y-55761863D01*
X192133256Y-55648595D01*
X191944898Y-55570574D01*
X191744939Y-55530800D01*
X191541061Y-55530800D01*
X191341102Y-55570574D01*
X191152744Y-55648595D01*
X190983226Y-55761863D01*
X190839063Y-55906026D01*
X190725795Y-56075544D01*
X190647774Y-56263902D01*
X190608000Y-56463861D01*
X153550900Y-56463861D01*
X153550900Y-56334011D01*
X153514968Y-56153371D01*
X153444486Y-55983211D01*
X153342162Y-55830072D01*
X153211928Y-55699838D01*
X153058789Y-55597514D01*
X152888629Y-55527032D01*
X152707989Y-55491100D01*
X152523811Y-55491100D01*
X152343171Y-55527032D01*
X152173011Y-55597514D01*
X152019872Y-55699838D01*
X151889638Y-55830072D01*
X151787314Y-55983211D01*
X151716832Y-56153371D01*
X151680900Y-56334011D01*
X150391701Y-56334011D01*
X150316328Y-56258638D01*
X150163189Y-56156314D01*
X149993029Y-56085832D01*
X149812389Y-56049900D01*
X149628211Y-56049900D01*
X149447571Y-56085832D01*
X149277411Y-56156314D01*
X149124272Y-56258638D01*
X148994038Y-56388872D01*
X148891714Y-56542011D01*
X148821232Y-56712171D01*
X148785300Y-56892811D01*
X135980900Y-56892811D01*
X135974765Y-56878000D01*
X136317345Y-56878000D01*
X136657373Y-56810364D01*
X136977673Y-56677692D01*
X137265935Y-56485081D01*
X137511081Y-56239935D01*
X137703692Y-55951673D01*
X137705978Y-55946153D01*
X137754538Y-56018828D01*
X137884772Y-56149062D01*
X138037911Y-56251386D01*
X138208071Y-56321868D01*
X138388711Y-56357800D01*
X138572889Y-56357800D01*
X138753529Y-56321868D01*
X138923689Y-56251386D01*
X139076828Y-56149062D01*
X139207062Y-56018828D01*
X139309386Y-55865689D01*
X139379868Y-55695529D01*
X139415800Y-55514889D01*
X139415800Y-55330711D01*
X139379868Y-55150071D01*
X139309386Y-54979911D01*
X139207062Y-54826772D01*
X139076828Y-54696538D01*
X138923689Y-54594214D01*
X138753529Y-54523732D01*
X138572889Y-54487800D01*
X138388711Y-54487800D01*
X138208071Y-54523732D01*
X138037911Y-54594214D01*
X137884772Y-54696538D01*
X137859644Y-54721666D01*
X137836364Y-54604627D01*
X137703692Y-54284327D01*
X137511081Y-53996065D01*
X137265935Y-53750919D01*
X136977673Y-53558308D01*
X136757235Y-53467000D01*
X137107710Y-53467000D01*
X137198972Y-53558262D01*
G37*
X137198972Y-53558262D02*
X137352111Y-53660586D01*
X137522271Y-53731068D01*
X137702911Y-53767000D01*
X137848833Y-53767000D01*
X137855414Y-53782889D01*
X137957738Y-53936028D01*
X138087972Y-54066262D01*
X138241111Y-54168586D01*
X138411271Y-54239068D01*
X138591911Y-54275000D01*
X138776089Y-54275000D01*
X138956729Y-54239068D01*
X139126889Y-54168586D01*
X139280028Y-54066262D01*
X139410262Y-53936028D01*
X139512586Y-53782889D01*
X139583068Y-53612729D01*
X139612056Y-53467000D01*
X148398475Y-53467000D01*
X148414832Y-53549229D01*
X148485314Y-53719389D01*
X148587638Y-53872528D01*
X148601210Y-53886100D01*
X148587638Y-53899672D01*
X148485314Y-54052811D01*
X148414832Y-54222971D01*
X148378900Y-54403611D01*
X148378900Y-54587789D01*
X148414832Y-54768429D01*
X148485314Y-54938589D01*
X148587638Y-55091728D01*
X148717872Y-55221962D01*
X148871011Y-55324286D01*
X149041171Y-55394768D01*
X149221811Y-55430700D01*
X149405989Y-55430700D01*
X149586629Y-55394768D01*
X149756789Y-55324286D01*
X149909928Y-55221962D01*
X149968014Y-55163876D01*
X149977588Y-55261082D01*
X150013898Y-55380780D01*
X150072863Y-55491094D01*
X150152215Y-55587785D01*
X150248906Y-55667137D01*
X150359220Y-55726102D01*
X150478918Y-55762412D01*
X150603400Y-55774672D01*
X151453400Y-55774672D01*
X151577882Y-55762412D01*
X151697580Y-55726102D01*
X151807894Y-55667137D01*
X151904585Y-55587785D01*
X151983937Y-55491094D01*
X152042902Y-55380780D01*
X152065174Y-55307361D01*
X152109511Y-55336986D01*
X152279671Y-55407468D01*
X152460311Y-55443400D01*
X152644489Y-55443400D01*
X152825129Y-55407468D01*
X152995289Y-55336986D01*
X153148428Y-55234662D01*
X153278662Y-55104428D01*
X153380986Y-54951289D01*
X153451468Y-54781129D01*
X153465932Y-54708411D01*
X155021000Y-54708411D01*
X155021000Y-54892589D01*
X155056932Y-55073229D01*
X155127414Y-55243389D01*
X155229738Y-55396528D01*
X155359972Y-55526762D01*
X155513111Y-55629086D01*
X155683271Y-55699568D01*
X155863911Y-55735500D01*
X156048089Y-55735500D01*
X156228729Y-55699568D01*
X156398889Y-55629086D01*
X156552028Y-55526762D01*
X156682262Y-55396528D01*
X156784586Y-55243389D01*
X156855068Y-55073229D01*
X156891000Y-54892589D01*
X156891000Y-54708411D01*
X156855068Y-54527771D01*
X156784586Y-54357611D01*
X156682262Y-54204472D01*
X156552028Y-54074238D01*
X156398889Y-53971914D01*
X156228729Y-53901432D01*
X156048089Y-53865500D01*
X155863911Y-53865500D01*
X155683271Y-53901432D01*
X155513111Y-53971914D01*
X155359972Y-54074238D01*
X155229738Y-54204472D01*
X155127414Y-54357611D01*
X155056932Y-54527771D01*
X155021000Y-54708411D01*
X153465932Y-54708411D01*
X153487400Y-54600489D01*
X153487400Y-54416311D01*
X153451468Y-54235671D01*
X153380986Y-54065511D01*
X153278662Y-53912372D01*
X153148428Y-53782138D01*
X152995289Y-53679814D01*
X152825129Y-53609332D01*
X152644489Y-53573400D01*
X152460311Y-53573400D01*
X152279671Y-53609332D01*
X152109511Y-53679814D01*
X151956372Y-53782138D01*
X151903767Y-53834743D01*
X151807894Y-53756063D01*
X151791168Y-53747122D01*
X151818162Y-53720128D01*
X151920486Y-53566989D01*
X151961902Y-53467000D01*
X162362276Y-53467000D01*
X162341000Y-53573963D01*
X162341000Y-53817237D01*
X162388460Y-54055836D01*
X162481557Y-54280592D01*
X162616713Y-54482867D01*
X162788733Y-54654887D01*
X162991008Y-54790043D01*
X163215764Y-54883140D01*
X163454363Y-54930600D01*
X163697637Y-54930600D01*
X163936236Y-54883140D01*
X164160992Y-54790043D01*
X164342444Y-54668800D01*
X175036328Y-54668800D01*
X175036328Y-55668800D01*
X175048588Y-55793282D01*
X175084898Y-55912980D01*
X175143863Y-56023294D01*
X175223215Y-56119985D01*
X175319906Y-56199337D01*
X175430220Y-56258302D01*
X175549918Y-56294612D01*
X175674400Y-56306872D01*
X176674400Y-56306872D01*
X176798882Y-56294612D01*
X176918580Y-56258302D01*
X177001626Y-56213912D01*
X177113333Y-56260183D01*
X177332612Y-56303800D01*
X177556188Y-56303800D01*
X177775467Y-56260183D01*
X177982024Y-56174624D01*
X178084058Y-56106447D01*
X178154194Y-56155923D01*
X178357536Y-56246246D01*
X178412526Y-56262919D01*
X178587400Y-56136754D01*
X178587400Y-55295800D01*
X178841400Y-55295800D01*
X178841400Y-56136754D01*
X179016274Y-56262919D01*
X179071264Y-56246246D01*
X179274606Y-56155923D01*
X179456420Y-56027665D01*
X179609718Y-55866401D01*
X179728610Y-55678329D01*
X179808526Y-55470676D01*
X179683529Y-55295800D01*
X178841400Y-55295800D01*
X178587400Y-55295800D01*
X178576374Y-55295800D01*
X178579400Y-55280588D01*
X178579400Y-55057012D01*
X178576374Y-55041800D01*
X178587400Y-55041800D01*
X178587400Y-54200846D01*
X178841400Y-54200846D01*
X178841400Y-55041800D01*
X179683529Y-55041800D01*
X179808526Y-54866924D01*
X179728610Y-54659271D01*
X179609718Y-54471199D01*
X179456420Y-54309935D01*
X179274606Y-54181677D01*
X179071264Y-54091354D01*
X179016274Y-54074681D01*
X178841400Y-54200846D01*
X178587400Y-54200846D01*
X178412526Y-54074681D01*
X178357536Y-54091354D01*
X178154194Y-54181677D01*
X178084058Y-54231153D01*
X177982024Y-54162976D01*
X177775467Y-54077417D01*
X177556188Y-54033800D01*
X177332612Y-54033800D01*
X177113333Y-54077417D01*
X177001626Y-54123688D01*
X176918580Y-54079298D01*
X176798882Y-54042988D01*
X176674400Y-54030728D01*
X175674400Y-54030728D01*
X175549918Y-54042988D01*
X175430220Y-54079298D01*
X175319906Y-54138263D01*
X175223215Y-54217615D01*
X175143863Y-54314306D01*
X175084898Y-54424620D01*
X175048588Y-54544318D01*
X175036328Y-54668800D01*
X164342444Y-54668800D01*
X164363267Y-54654887D01*
X164535287Y-54482867D01*
X164670443Y-54280592D01*
X164763540Y-54055836D01*
X164811000Y-53817237D01*
X164811000Y-53573963D01*
X164789724Y-53467000D01*
X169885867Y-53467000D01*
X169932260Y-53700236D01*
X170025357Y-53924992D01*
X170160513Y-54127267D01*
X170332533Y-54299287D01*
X170534808Y-54434443D01*
X170759564Y-54527540D01*
X170998163Y-54575000D01*
X171241437Y-54575000D01*
X171480036Y-54527540D01*
X171704792Y-54434443D01*
X171907067Y-54299287D01*
X172079087Y-54127267D01*
X172214243Y-53924992D01*
X172307340Y-53700236D01*
X172353733Y-53467000D01*
X196723000Y-53467000D01*
X196723000Y-112050407D01*
X196246750Y-112053000D01*
X196088000Y-112211750D01*
X196088000Y-113411000D01*
X196108000Y-113411000D01*
X196108000Y-113665000D01*
X196088000Y-113665000D01*
X196088000Y-113685000D01*
X195834000Y-113685000D01*
X195834000Y-113665000D01*
X194634750Y-113665000D01*
X194476000Y-113823750D01*
X194472928Y-114388000D01*
X194485188Y-114512482D01*
X194521498Y-114632180D01*
X194580463Y-114742494D01*
X194659815Y-114839185D01*
X194756506Y-114918537D01*
X194866820Y-114977502D01*
X194939380Y-114999513D01*
X194807525Y-115131368D01*
X194645010Y-115374589D01*
X194533068Y-115644842D01*
X194476000Y-115931740D01*
X194476000Y-116224260D01*
X194533068Y-116511158D01*
X194645010Y-116781411D01*
X194807525Y-117024632D01*
X195014368Y-117231475D01*
X195257589Y-117393990D01*
X195527842Y-117505932D01*
X195814740Y-117563000D01*
X196107260Y-117563000D01*
X196394158Y-117505932D01*
X196664411Y-117393990D01*
X196723000Y-117354842D01*
X196723000Y-117983000D01*
X185603778Y-117983000D01*
X185657537Y-117917494D01*
X185716502Y-117807180D01*
X185752812Y-117687482D01*
X185765072Y-117563000D01*
X185765072Y-115863000D01*
X185752812Y-115738518D01*
X185716502Y-115618820D01*
X185657537Y-115508506D01*
X185578185Y-115411815D01*
X185481494Y-115332463D01*
X185371180Y-115273498D01*
X185251482Y-115237188D01*
X185127000Y-115224928D01*
X183427000Y-115224928D01*
X183302518Y-115237188D01*
X183182820Y-115273498D01*
X183072506Y-115332463D01*
X182975815Y-115411815D01*
X182896463Y-115508506D01*
X182837498Y-115618820D01*
X182815487Y-115691380D01*
X182683632Y-115559525D01*
X182440411Y-115397010D01*
X182170158Y-115285068D01*
X181883260Y-115228000D01*
X181590740Y-115228000D01*
X181303842Y-115285068D01*
X181033589Y-115397010D01*
X180790368Y-115559525D01*
X180583525Y-115766368D01*
X180421010Y-116009589D01*
X180309068Y-116279842D01*
X180252000Y-116566740D01*
X180252000Y-116859260D01*
X180309068Y-117146158D01*
X180421010Y-117416411D01*
X180583525Y-117659632D01*
X180790368Y-117866475D01*
X180964760Y-117983000D01*
X130937000Y-117983000D01*
X130937000Y-115331212D01*
X136787000Y-115331212D01*
X136787000Y-115554788D01*
X136830617Y-115774067D01*
X136916176Y-115980624D01*
X137040388Y-116166520D01*
X137198480Y-116324612D01*
X137384376Y-116448824D01*
X137590933Y-116534383D01*
X137810212Y-116578000D01*
X138033788Y-116578000D01*
X138253067Y-116534383D01*
X138459624Y-116448824D01*
X138645520Y-116324612D01*
X138803612Y-116166520D01*
X138927824Y-115980624D01*
X139013383Y-115774067D01*
X139057000Y-115554788D01*
X139057000Y-115331212D01*
X139013383Y-115111933D01*
X138927824Y-114905376D01*
X138803612Y-114719480D01*
X138645520Y-114561388D01*
X138459624Y-114437176D01*
X138253067Y-114351617D01*
X138033788Y-114308000D01*
X137810212Y-114308000D01*
X137590933Y-114351617D01*
X137384376Y-114437176D01*
X137198480Y-114561388D01*
X137040388Y-114719480D01*
X136916176Y-114905376D01*
X136830617Y-115111933D01*
X136787000Y-115331212D01*
X130937000Y-115331212D01*
X130937000Y-112864561D01*
X156762500Y-112864561D01*
X156762500Y-113068439D01*
X156802274Y-113268398D01*
X156880295Y-113456756D01*
X156993563Y-113626274D01*
X157137726Y-113770437D01*
X157307244Y-113883705D01*
X157495602Y-113961726D01*
X157695561Y-114001500D01*
X157899439Y-114001500D01*
X158099398Y-113961726D01*
X158287756Y-113883705D01*
X158457274Y-113770437D01*
X158601437Y-113626274D01*
X158714705Y-113456756D01*
X158792726Y-113268398D01*
X158832500Y-113068439D01*
X158832500Y-112864561D01*
X158792726Y-112664602D01*
X158786264Y-112649000D01*
X164026888Y-112649000D01*
X164049285Y-112876400D01*
X164115615Y-113095060D01*
X164216605Y-113284000D01*
X164115615Y-113472940D01*
X164049285Y-113691600D01*
X164026888Y-113919000D01*
X164049285Y-114146400D01*
X164112593Y-114355098D01*
X164077998Y-114419820D01*
X164041688Y-114539518D01*
X164029428Y-114664000D01*
X164029428Y-115714000D01*
X164041688Y-115838482D01*
X164077998Y-115958180D01*
X164136963Y-116068494D01*
X164216315Y-116165185D01*
X164313006Y-116244537D01*
X164423320Y-116303502D01*
X164543018Y-116339812D01*
X164667500Y-116352072D01*
X166167500Y-116352072D01*
X166291982Y-116339812D01*
X166411680Y-116303502D01*
X166521994Y-116244537D01*
X166618685Y-116165185D01*
X166698037Y-116068494D01*
X166757002Y-115958180D01*
X166793312Y-115838482D01*
X166805572Y-115714000D01*
X166805572Y-114716521D01*
X168004000Y-114716521D01*
X168004000Y-115280478D01*
X168020785Y-115450899D01*
X168087115Y-115669559D01*
X168194829Y-115871078D01*
X168339788Y-116047712D01*
X168516421Y-116192671D01*
X168717940Y-116300385D01*
X168936600Y-116366715D01*
X169164000Y-116389112D01*
X169391399Y-116366715D01*
X169610059Y-116300385D01*
X169799000Y-116199394D01*
X169987940Y-116300385D01*
X170206600Y-116366715D01*
X170434000Y-116389112D01*
X170661399Y-116366715D01*
X170870098Y-116303407D01*
X170934820Y-116338002D01*
X171054518Y-116374312D01*
X171179000Y-116386572D01*
X172229000Y-116386572D01*
X172353482Y-116374312D01*
X172473180Y-116338002D01*
X172583494Y-116279037D01*
X172680185Y-116199685D01*
X172759537Y-116102994D01*
X172818502Y-115992680D01*
X172854812Y-115872982D01*
X172867072Y-115748500D01*
X172867072Y-114452500D01*
X173885428Y-114452500D01*
X173885428Y-116052500D01*
X173897688Y-116176982D01*
X173933998Y-116296680D01*
X173992963Y-116406994D01*
X174072315Y-116503685D01*
X174169006Y-116583037D01*
X174279320Y-116642002D01*
X174399018Y-116678312D01*
X174523500Y-116690572D01*
X176123500Y-116690572D01*
X176247982Y-116678312D01*
X176367680Y-116642002D01*
X176477994Y-116583037D01*
X176574685Y-116503685D01*
X176654037Y-116406994D01*
X176713002Y-116296680D01*
X176742161Y-116200557D01*
X176908741Y-116367137D01*
X177143773Y-116524180D01*
X177404926Y-116632353D01*
X177682165Y-116687500D01*
X177964835Y-116687500D01*
X178242074Y-116632353D01*
X178503227Y-116524180D01*
X178738259Y-116367137D01*
X178938137Y-116167259D01*
X179095180Y-115932227D01*
X179203353Y-115671074D01*
X179258500Y-115393835D01*
X179258500Y-115111165D01*
X179203353Y-114833926D01*
X179095180Y-114572773D01*
X178938137Y-114337741D01*
X178738259Y-114137863D01*
X178503227Y-113980820D01*
X178242074Y-113872647D01*
X177964835Y-113817500D01*
X177682165Y-113817500D01*
X177404926Y-113872647D01*
X177143773Y-113980820D01*
X176908741Y-114137863D01*
X176742161Y-114304443D01*
X176713002Y-114208320D01*
X176654037Y-114098006D01*
X176574685Y-114001315D01*
X176477994Y-113921963D01*
X176367680Y-113862998D01*
X176247982Y-113826688D01*
X176123500Y-113814428D01*
X174523500Y-113814428D01*
X174399018Y-113826688D01*
X174279320Y-113862998D01*
X174169006Y-113921963D01*
X174072315Y-114001315D01*
X173992963Y-114098006D01*
X173933998Y-114208320D01*
X173897688Y-114328018D01*
X173885428Y-114452500D01*
X172867072Y-114452500D01*
X172867072Y-114248500D01*
X172854812Y-114124018D01*
X172818502Y-114004320D01*
X172759537Y-113894006D01*
X172680185Y-113797315D01*
X172583494Y-113717963D01*
X172473180Y-113658998D01*
X172353482Y-113622688D01*
X172229000Y-113610428D01*
X171179000Y-113610428D01*
X171054518Y-113622688D01*
X170934820Y-113658998D01*
X170870098Y-113693593D01*
X170661400Y-113630285D01*
X170434000Y-113607888D01*
X170206601Y-113630285D01*
X169987941Y-113696615D01*
X169799001Y-113797606D01*
X169610060Y-113696615D01*
X169391400Y-113630285D01*
X169164000Y-113607888D01*
X168936601Y-113630285D01*
X168717941Y-113696615D01*
X168516422Y-113804329D01*
X168339789Y-113949288D01*
X168194830Y-114125921D01*
X168087115Y-114327440D01*
X168020785Y-114546100D01*
X168004000Y-114716521D01*
X166805572Y-114716521D01*
X166805572Y-114664000D01*
X166793312Y-114539518D01*
X166757002Y-114419820D01*
X166722407Y-114355098D01*
X166785715Y-114146400D01*
X166808112Y-113919000D01*
X166785715Y-113691600D01*
X166719385Y-113472940D01*
X166618395Y-113284000D01*
X166719385Y-113095060D01*
X166783488Y-112883740D01*
X180252000Y-112883740D01*
X180252000Y-113176260D01*
X180309068Y-113463158D01*
X180421010Y-113733411D01*
X180583525Y-113976632D01*
X180790368Y-114183475D01*
X181033589Y-114345990D01*
X181303842Y-114457932D01*
X181590740Y-114515000D01*
X181883260Y-114515000D01*
X182170158Y-114457932D01*
X182440411Y-114345990D01*
X182683632Y-114183475D01*
X182815487Y-114051620D01*
X182837498Y-114124180D01*
X182896463Y-114234494D01*
X182975815Y-114331185D01*
X183072506Y-114410537D01*
X183182820Y-114469502D01*
X183302518Y-114505812D01*
X183427000Y-114518072D01*
X185127000Y-114518072D01*
X185251482Y-114505812D01*
X185371180Y-114469502D01*
X185481494Y-114410537D01*
X185578185Y-114331185D01*
X185657537Y-114234494D01*
X185716502Y-114124180D01*
X185752812Y-114004482D01*
X185765072Y-113880000D01*
X185765072Y-112688000D01*
X190789928Y-112688000D01*
X190789928Y-114388000D01*
X190802188Y-114512482D01*
X190838498Y-114632180D01*
X190897463Y-114742494D01*
X190976815Y-114839185D01*
X191073506Y-114918537D01*
X191183820Y-114977502D01*
X191256380Y-114999513D01*
X191124525Y-115131368D01*
X190962010Y-115374589D01*
X190850068Y-115644842D01*
X190793000Y-115931740D01*
X190793000Y-116224260D01*
X190850068Y-116511158D01*
X190962010Y-116781411D01*
X191124525Y-117024632D01*
X191331368Y-117231475D01*
X191574589Y-117393990D01*
X191844842Y-117505932D01*
X192131740Y-117563000D01*
X192424260Y-117563000D01*
X192711158Y-117505932D01*
X192981411Y-117393990D01*
X193224632Y-117231475D01*
X193431475Y-117024632D01*
X193593990Y-116781411D01*
X193705932Y-116511158D01*
X193763000Y-116224260D01*
X193763000Y-115931740D01*
X193705932Y-115644842D01*
X193593990Y-115374589D01*
X193431475Y-115131368D01*
X193299620Y-114999513D01*
X193372180Y-114977502D01*
X193482494Y-114918537D01*
X193579185Y-114839185D01*
X193658537Y-114742494D01*
X193717502Y-114632180D01*
X193753812Y-114512482D01*
X193766072Y-114388000D01*
X193766072Y-112688000D01*
X194472928Y-112688000D01*
X194476000Y-113252250D01*
X194634750Y-113411000D01*
X195834000Y-113411000D01*
X195834000Y-112211750D01*
X195675250Y-112053000D01*
X195111000Y-112049928D01*
X194986518Y-112062188D01*
X194866820Y-112098498D01*
X194756506Y-112157463D01*
X194659815Y-112236815D01*
X194580463Y-112333506D01*
X194521498Y-112443820D01*
X194485188Y-112563518D01*
X194472928Y-112688000D01*
X193766072Y-112688000D01*
X193753812Y-112563518D01*
X193717502Y-112443820D01*
X193658537Y-112333506D01*
X193579185Y-112236815D01*
X193482494Y-112157463D01*
X193372180Y-112098498D01*
X193252482Y-112062188D01*
X193128000Y-112049928D01*
X191428000Y-112049928D01*
X191303518Y-112062188D01*
X191183820Y-112098498D01*
X191073506Y-112157463D01*
X190976815Y-112236815D01*
X190897463Y-112333506D01*
X190838498Y-112443820D01*
X190802188Y-112563518D01*
X190789928Y-112688000D01*
X185765072Y-112688000D01*
X185765072Y-112180000D01*
X185752812Y-112055518D01*
X185716502Y-111935820D01*
X185657537Y-111825506D01*
X185578185Y-111728815D01*
X185481494Y-111649463D01*
X185371180Y-111590498D01*
X185251482Y-111554188D01*
X185127000Y-111541928D01*
X183427000Y-111541928D01*
X183302518Y-111554188D01*
X183182820Y-111590498D01*
X183072506Y-111649463D01*
X182975815Y-111728815D01*
X182896463Y-111825506D01*
X182837498Y-111935820D01*
X182815487Y-112008380D01*
X182683632Y-111876525D01*
X182440411Y-111714010D01*
X182170158Y-111602068D01*
X181883260Y-111545000D01*
X181590740Y-111545000D01*
X181303842Y-111602068D01*
X181033589Y-111714010D01*
X180790368Y-111876525D01*
X180583525Y-112083368D01*
X180421010Y-112326589D01*
X180309068Y-112596842D01*
X180252000Y-112883740D01*
X166783488Y-112883740D01*
X166785715Y-112876400D01*
X166808112Y-112649000D01*
X166785715Y-112421600D01*
X166719385Y-112202940D01*
X166611671Y-112001421D01*
X166466712Y-111824788D01*
X166290079Y-111679829D01*
X166088560Y-111572115D01*
X165869900Y-111505785D01*
X165699479Y-111489000D01*
X165135521Y-111489000D01*
X164965100Y-111505785D01*
X164746440Y-111572115D01*
X164544921Y-111679829D01*
X164368288Y-111824788D01*
X164223329Y-112001421D01*
X164115615Y-112202940D01*
X164049285Y-112421600D01*
X164026888Y-112649000D01*
X158786264Y-112649000D01*
X158714705Y-112476244D01*
X158601437Y-112306726D01*
X158457274Y-112162563D01*
X158287756Y-112049295D01*
X158099398Y-111971274D01*
X157899439Y-111931500D01*
X157695561Y-111931500D01*
X157495602Y-111971274D01*
X157307244Y-112049295D01*
X157137726Y-112162563D01*
X156993563Y-112306726D01*
X156880295Y-112476244D01*
X156802274Y-112664602D01*
X156762500Y-112864561D01*
X130937000Y-112864561D01*
X130937000Y-110451561D01*
X141967000Y-110451561D01*
X141967000Y-110655439D01*
X142006774Y-110855398D01*
X142084795Y-111043756D01*
X142198063Y-111213274D01*
X142342226Y-111357437D01*
X142511744Y-111470705D01*
X142700102Y-111548726D01*
X142900061Y-111588500D01*
X143103939Y-111588500D01*
X143303898Y-111548726D01*
X143492256Y-111470705D01*
X143661774Y-111357437D01*
X143805937Y-111213274D01*
X143919205Y-111043756D01*
X143997226Y-110855398D01*
X144037000Y-110655439D01*
X144037000Y-110451561D01*
X143997226Y-110251602D01*
X143919205Y-110063244D01*
X143805937Y-109893726D01*
X143728772Y-109816561D01*
X152254000Y-109816561D01*
X152254000Y-110020439D01*
X152293774Y-110220398D01*
X152371795Y-110408756D01*
X152485063Y-110578274D01*
X152629226Y-110722437D01*
X152798744Y-110835705D01*
X152987102Y-110913726D01*
X153187061Y-110953500D01*
X153390939Y-110953500D01*
X153590898Y-110913726D01*
X153779256Y-110835705D01*
X153948774Y-110722437D01*
X154092937Y-110578274D01*
X154206205Y-110408756D01*
X154284226Y-110220398D01*
X154324000Y-110020439D01*
X154324000Y-109816561D01*
X154284226Y-109616602D01*
X154206205Y-109428244D01*
X154092937Y-109258726D01*
X153948774Y-109114563D01*
X153779256Y-109001295D01*
X153754550Y-108991061D01*
X181400500Y-108991061D01*
X181400500Y-109194939D01*
X181440274Y-109394898D01*
X181518295Y-109583256D01*
X181631563Y-109752774D01*
X181775726Y-109896937D01*
X181945244Y-110010205D01*
X182133602Y-110088226D01*
X182333561Y-110128000D01*
X182537439Y-110128000D01*
X182737398Y-110088226D01*
X182925756Y-110010205D01*
X183095274Y-109896937D01*
X183239437Y-109752774D01*
X183352705Y-109583256D01*
X183430726Y-109394898D01*
X183470500Y-109194939D01*
X183470500Y-108991061D01*
X183430726Y-108791102D01*
X183352705Y-108602744D01*
X183239437Y-108433226D01*
X183095274Y-108289063D01*
X182925756Y-108175795D01*
X182737398Y-108097774D01*
X182537439Y-108058000D01*
X182333561Y-108058000D01*
X182133602Y-108097774D01*
X181945244Y-108175795D01*
X181775726Y-108289063D01*
X181631563Y-108433226D01*
X181518295Y-108602744D01*
X181440274Y-108791102D01*
X181400500Y-108991061D01*
X153754550Y-108991061D01*
X153590898Y-108923274D01*
X153390939Y-108883500D01*
X153187061Y-108883500D01*
X152987102Y-108923274D01*
X152798744Y-109001295D01*
X152629226Y-109114563D01*
X152485063Y-109258726D01*
X152371795Y-109428244D01*
X152293774Y-109616602D01*
X152254000Y-109816561D01*
X143728772Y-109816561D01*
X143661774Y-109749563D01*
X143492256Y-109636295D01*
X143303898Y-109558274D01*
X143103939Y-109518500D01*
X142900061Y-109518500D01*
X142700102Y-109558274D01*
X142511744Y-109636295D01*
X142342226Y-109749563D01*
X142198063Y-109893726D01*
X142084795Y-110063244D01*
X142006774Y-110251602D01*
X141967000Y-110451561D01*
X130937000Y-110451561D01*
X130937000Y-106832061D01*
X132632500Y-106832061D01*
X132632500Y-107035939D01*
X132672274Y-107235898D01*
X132750295Y-107424256D01*
X132863563Y-107593774D01*
X133007726Y-107737937D01*
X133177244Y-107851205D01*
X133365602Y-107929226D01*
X133565561Y-107969000D01*
X133769439Y-107969000D01*
X133969398Y-107929226D01*
X134157756Y-107851205D01*
X134327274Y-107737937D01*
X134471437Y-107593774D01*
X134584705Y-107424256D01*
X134662726Y-107235898D01*
X134702500Y-107035939D01*
X134702500Y-106832061D01*
X134662726Y-106632102D01*
X134640342Y-106578061D01*
X141014500Y-106578061D01*
X141014500Y-106781939D01*
X141054274Y-106981898D01*
X141132295Y-107170256D01*
X141245563Y-107339774D01*
X141389726Y-107483937D01*
X141559244Y-107597205D01*
X141747602Y-107675226D01*
X141947561Y-107715000D01*
X142151439Y-107715000D01*
X142351398Y-107675226D01*
X142539756Y-107597205D01*
X142709274Y-107483937D01*
X142853437Y-107339774D01*
X142895674Y-107276561D01*
X164128500Y-107276561D01*
X164128500Y-107480439D01*
X164168274Y-107680398D01*
X164246295Y-107868756D01*
X164359563Y-108038274D01*
X164503726Y-108182437D01*
X164673244Y-108295705D01*
X164861602Y-108373726D01*
X165061561Y-108413500D01*
X165265439Y-108413500D01*
X165465398Y-108373726D01*
X165653756Y-108295705D01*
X165823274Y-108182437D01*
X165967437Y-108038274D01*
X166080705Y-107868756D01*
X166158726Y-107680398D01*
X166198500Y-107480439D01*
X166198500Y-107276561D01*
X166158726Y-107076602D01*
X166080705Y-106888244D01*
X165967437Y-106718726D01*
X165823274Y-106574563D01*
X165653756Y-106461295D01*
X165465398Y-106383274D01*
X165265439Y-106343500D01*
X165061561Y-106343500D01*
X164861602Y-106383274D01*
X164673244Y-106461295D01*
X164503726Y-106574563D01*
X164359563Y-106718726D01*
X164246295Y-106888244D01*
X164168274Y-107076602D01*
X164128500Y-107276561D01*
X142895674Y-107276561D01*
X142966705Y-107170256D01*
X143044726Y-106981898D01*
X143084500Y-106781939D01*
X143084500Y-106578061D01*
X143070664Y-106508500D01*
X143167439Y-106508500D01*
X143367398Y-106468726D01*
X143555756Y-106390705D01*
X143725274Y-106277437D01*
X143869437Y-106133274D01*
X143982705Y-105963756D01*
X144060726Y-105775398D01*
X144100500Y-105575439D01*
X144100500Y-105371561D01*
X144060726Y-105171602D01*
X143982705Y-104983244D01*
X143869437Y-104813726D01*
X143725274Y-104669563D01*
X143555756Y-104556295D01*
X143367398Y-104478274D01*
X143167439Y-104438500D01*
X142963561Y-104438500D01*
X142763602Y-104478274D01*
X142575244Y-104556295D01*
X142405726Y-104669563D01*
X142261563Y-104813726D01*
X142148295Y-104983244D01*
X142070274Y-105171602D01*
X142030500Y-105371561D01*
X142030500Y-105575439D01*
X142044336Y-105645000D01*
X141947561Y-105645000D01*
X141747602Y-105684774D01*
X141559244Y-105762795D01*
X141389726Y-105876063D01*
X141245563Y-106020226D01*
X141132295Y-106189744D01*
X141054274Y-106378102D01*
X141014500Y-106578061D01*
X134640342Y-106578061D01*
X134584705Y-106443744D01*
X134471437Y-106274226D01*
X134327274Y-106130063D01*
X134157756Y-106016795D01*
X133969398Y-105938774D01*
X133769439Y-105899000D01*
X133565561Y-105899000D01*
X133365602Y-105938774D01*
X133177244Y-106016795D01*
X133007726Y-106130063D01*
X132863563Y-106274226D01*
X132750295Y-106443744D01*
X132672274Y-106632102D01*
X132632500Y-106832061D01*
X130937000Y-106832061D01*
X130937000Y-101839665D01*
X134518500Y-101839665D01*
X134518500Y-102122335D01*
X134573647Y-102399574D01*
X134681820Y-102660727D01*
X134838863Y-102895759D01*
X135038741Y-103095637D01*
X135273773Y-103252680D01*
X135534926Y-103360853D01*
X135812165Y-103416000D01*
X136094835Y-103416000D01*
X136372074Y-103360853D01*
X136633227Y-103252680D01*
X136868259Y-103095637D01*
X137068137Y-102895759D01*
X137223500Y-102663241D01*
X137378863Y-102895759D01*
X137578741Y-103095637D01*
X137813773Y-103252680D01*
X138074926Y-103360853D01*
X138352165Y-103416000D01*
X138634835Y-103416000D01*
X138912074Y-103360853D01*
X139173227Y-103252680D01*
X139408259Y-103095637D01*
X139608137Y-102895759D01*
X139763500Y-102663241D01*
X139918863Y-102895759D01*
X140118741Y-103095637D01*
X140353773Y-103252680D01*
X140614926Y-103360853D01*
X140892165Y-103416000D01*
X141174835Y-103416000D01*
X141452074Y-103360853D01*
X141713227Y-103252680D01*
X141948259Y-103095637D01*
X142148137Y-102895759D01*
X142303500Y-102663241D01*
X142458863Y-102895759D01*
X142658741Y-103095637D01*
X142893773Y-103252680D01*
X143154926Y-103360853D01*
X143432165Y-103416000D01*
X143714835Y-103416000D01*
X143992074Y-103360853D01*
X144253227Y-103252680D01*
X144488259Y-103095637D01*
X144688137Y-102895759D01*
X144843500Y-102663241D01*
X144998863Y-102895759D01*
X145198741Y-103095637D01*
X145433773Y-103252680D01*
X145694926Y-103360853D01*
X145972165Y-103416000D01*
X146254835Y-103416000D01*
X146532074Y-103360853D01*
X146793227Y-103252680D01*
X147028259Y-103095637D01*
X147228137Y-102895759D01*
X147383500Y-102663241D01*
X147538863Y-102895759D01*
X147738741Y-103095637D01*
X147973773Y-103252680D01*
X148234926Y-103360853D01*
X148512165Y-103416000D01*
X148794835Y-103416000D01*
X149072074Y-103360853D01*
X149333227Y-103252680D01*
X149568259Y-103095637D01*
X149768137Y-102895759D01*
X149923500Y-102663241D01*
X150078863Y-102895759D01*
X150278741Y-103095637D01*
X150513773Y-103252680D01*
X150774926Y-103360853D01*
X151052165Y-103416000D01*
X151334835Y-103416000D01*
X151612074Y-103360853D01*
X151873227Y-103252680D01*
X152108259Y-103095637D01*
X152308137Y-102895759D01*
X152463500Y-102663241D01*
X152618863Y-102895759D01*
X152818741Y-103095637D01*
X153053773Y-103252680D01*
X153314926Y-103360853D01*
X153592165Y-103416000D01*
X153874835Y-103416000D01*
X154152074Y-103360853D01*
X154413227Y-103252680D01*
X154648259Y-103095637D01*
X154848137Y-102895759D01*
X155003500Y-102663241D01*
X155158863Y-102895759D01*
X155358741Y-103095637D01*
X155593773Y-103252680D01*
X155854926Y-103360853D01*
X156132165Y-103416000D01*
X156414835Y-103416000D01*
X156692074Y-103360853D01*
X156953227Y-103252680D01*
X157188259Y-103095637D01*
X157388137Y-102895759D01*
X157543500Y-102663241D01*
X157698863Y-102895759D01*
X157898741Y-103095637D01*
X158133773Y-103252680D01*
X158394926Y-103360853D01*
X158672165Y-103416000D01*
X158954835Y-103416000D01*
X159232074Y-103360853D01*
X159493227Y-103252680D01*
X159728259Y-103095637D01*
X159928137Y-102895759D01*
X160083500Y-102663241D01*
X160238863Y-102895759D01*
X160438741Y-103095637D01*
X160673773Y-103252680D01*
X160934926Y-103360853D01*
X161212165Y-103416000D01*
X161494835Y-103416000D01*
X161772074Y-103360853D01*
X162033227Y-103252680D01*
X162268259Y-103095637D01*
X162468137Y-102895759D01*
X162623500Y-102663241D01*
X162778863Y-102895759D01*
X162978741Y-103095637D01*
X163213773Y-103252680D01*
X163474926Y-103360853D01*
X163752165Y-103416000D01*
X164034835Y-103416000D01*
X164312074Y-103360853D01*
X164573227Y-103252680D01*
X164808259Y-103095637D01*
X165008137Y-102895759D01*
X165163500Y-102663241D01*
X165318863Y-102895759D01*
X165518741Y-103095637D01*
X165753773Y-103252680D01*
X166014926Y-103360853D01*
X166292165Y-103416000D01*
X166574835Y-103416000D01*
X166852074Y-103360853D01*
X167113227Y-103252680D01*
X167348259Y-103095637D01*
X167548137Y-102895759D01*
X167703500Y-102663241D01*
X167858863Y-102895759D01*
X168058741Y-103095637D01*
X168293773Y-103252680D01*
X168554926Y-103360853D01*
X168832165Y-103416000D01*
X169114835Y-103416000D01*
X169392074Y-103360853D01*
X169653227Y-103252680D01*
X169888259Y-103095637D01*
X170088137Y-102895759D01*
X170245180Y-102660727D01*
X170353353Y-102399574D01*
X170408500Y-102122335D01*
X170408500Y-101839665D01*
X170353353Y-101562426D01*
X170245180Y-101301273D01*
X170088137Y-101066241D01*
X169888259Y-100866363D01*
X169653227Y-100709320D01*
X169392074Y-100601147D01*
X169114835Y-100546000D01*
X168832165Y-100546000D01*
X168554926Y-100601147D01*
X168293773Y-100709320D01*
X168058741Y-100866363D01*
X167858863Y-101066241D01*
X167703500Y-101298759D01*
X167548137Y-101066241D01*
X167348259Y-100866363D01*
X167113227Y-100709320D01*
X166852074Y-100601147D01*
X166574835Y-100546000D01*
X166292165Y-100546000D01*
X166014926Y-100601147D01*
X165753773Y-100709320D01*
X165518741Y-100866363D01*
X165318863Y-101066241D01*
X165163500Y-101298759D01*
X165008137Y-101066241D01*
X164808259Y-100866363D01*
X164573227Y-100709320D01*
X164312074Y-100601147D01*
X164034835Y-100546000D01*
X163752165Y-100546000D01*
X163474926Y-100601147D01*
X163213773Y-100709320D01*
X162978741Y-100866363D01*
X162778863Y-101066241D01*
X162623500Y-101298759D01*
X162468137Y-101066241D01*
X162268259Y-100866363D01*
X162033227Y-100709320D01*
X161772074Y-100601147D01*
X161494835Y-100546000D01*
X161212165Y-100546000D01*
X160934926Y-100601147D01*
X160673773Y-100709320D01*
X160438741Y-100866363D01*
X160238863Y-101066241D01*
X160083500Y-101298759D01*
X159928137Y-101066241D01*
X159728259Y-100866363D01*
X159493227Y-100709320D01*
X159232074Y-100601147D01*
X158954835Y-100546000D01*
X158672165Y-100546000D01*
X158394926Y-100601147D01*
X158133773Y-100709320D01*
X157898741Y-100866363D01*
X157698863Y-101066241D01*
X157543500Y-101298759D01*
X157388137Y-101066241D01*
X157188259Y-100866363D01*
X156953227Y-100709320D01*
X156692074Y-100601147D01*
X156414835Y-100546000D01*
X156132165Y-100546000D01*
X155854926Y-100601147D01*
X155593773Y-100709320D01*
X155358741Y-100866363D01*
X155158863Y-101066241D01*
X155003500Y-101298759D01*
X154848137Y-101066241D01*
X154648259Y-100866363D01*
X154413227Y-100709320D01*
X154152074Y-100601147D01*
X153874835Y-100546000D01*
X153592165Y-100546000D01*
X153314926Y-100601147D01*
X153053773Y-100709320D01*
X152818741Y-100866363D01*
X152618863Y-101066241D01*
X152463500Y-101298759D01*
X152308137Y-101066241D01*
X152108259Y-100866363D01*
X151873227Y-100709320D01*
X151612074Y-100601147D01*
X151334835Y-100546000D01*
X151052165Y-100546000D01*
X150774926Y-100601147D01*
X150513773Y-100709320D01*
X150278741Y-100866363D01*
X150078863Y-101066241D01*
X149923500Y-101298759D01*
X149768137Y-101066241D01*
X149568259Y-100866363D01*
X149333227Y-100709320D01*
X149072074Y-100601147D01*
X148794835Y-100546000D01*
X148512165Y-100546000D01*
X148234926Y-100601147D01*
X147973773Y-100709320D01*
X147738741Y-100866363D01*
X147538863Y-101066241D01*
X147383500Y-101298759D01*
X147228137Y-101066241D01*
X147028259Y-100866363D01*
X146793227Y-100709320D01*
X146532074Y-100601147D01*
X146254835Y-100546000D01*
X145972165Y-100546000D01*
X145694926Y-100601147D01*
X145433773Y-100709320D01*
X145198741Y-100866363D01*
X144998863Y-101066241D01*
X144843500Y-101298759D01*
X144688137Y-101066241D01*
X144488259Y-100866363D01*
X144253227Y-100709320D01*
X143992074Y-100601147D01*
X143714835Y-100546000D01*
X143432165Y-100546000D01*
X143154926Y-100601147D01*
X142893773Y-100709320D01*
X142658741Y-100866363D01*
X142458863Y-101066241D01*
X142303500Y-101298759D01*
X142148137Y-101066241D01*
X141948259Y-100866363D01*
X141713227Y-100709320D01*
X141452074Y-100601147D01*
X141174835Y-100546000D01*
X140892165Y-100546000D01*
X140614926Y-100601147D01*
X140353773Y-100709320D01*
X140118741Y-100866363D01*
X139918863Y-101066241D01*
X139763500Y-101298759D01*
X139608137Y-101066241D01*
X139408259Y-100866363D01*
X139173227Y-100709320D01*
X138912074Y-100601147D01*
X138634835Y-100546000D01*
X138352165Y-100546000D01*
X138074926Y-100601147D01*
X137813773Y-100709320D01*
X137578741Y-100866363D01*
X137378863Y-101066241D01*
X137223500Y-101298759D01*
X137068137Y-101066241D01*
X136868259Y-100866363D01*
X136633227Y-100709320D01*
X136372074Y-100601147D01*
X136094835Y-100546000D01*
X135812165Y-100546000D01*
X135534926Y-100601147D01*
X135273773Y-100709320D01*
X135038741Y-100866363D01*
X134838863Y-101066241D01*
X134681820Y-101301273D01*
X134573647Y-101562426D01*
X134518500Y-101839665D01*
X130937000Y-101839665D01*
X130937000Y-97053500D01*
X171726428Y-97053500D01*
X171726428Y-98653500D01*
X171738688Y-98777982D01*
X171774998Y-98897680D01*
X171833963Y-99007994D01*
X171913315Y-99104685D01*
X172010006Y-99184037D01*
X172120320Y-99243002D01*
X172240018Y-99279312D01*
X172248461Y-99280143D01*
X172049863Y-99478741D01*
X171892820Y-99713773D01*
X171784647Y-99974926D01*
X171729500Y-100252165D01*
X171729500Y-100534835D01*
X171784647Y-100812074D01*
X171892820Y-101073227D01*
X172049863Y-101308259D01*
X172249741Y-101508137D01*
X172482259Y-101663500D01*
X172249741Y-101818863D01*
X172049863Y-102018741D01*
X171892820Y-102253773D01*
X171784647Y-102514926D01*
X171729500Y-102792165D01*
X171729500Y-103074835D01*
X171784647Y-103352074D01*
X171892820Y-103613227D01*
X172049863Y-103848259D01*
X172249741Y-104048137D01*
X172482259Y-104203500D01*
X172249741Y-104358863D01*
X172049863Y-104558741D01*
X171892820Y-104793773D01*
X171784647Y-105054926D01*
X171729500Y-105332165D01*
X171729500Y-105614835D01*
X171784647Y-105892074D01*
X171892820Y-106153227D01*
X172049863Y-106388259D01*
X172249741Y-106588137D01*
X172484773Y-106745180D01*
X172745926Y-106853353D01*
X173023165Y-106908500D01*
X173305835Y-106908500D01*
X173583074Y-106853353D01*
X173844227Y-106745180D01*
X174079259Y-106588137D01*
X174279137Y-106388259D01*
X174436180Y-106153227D01*
X174544353Y-105892074D01*
X174599500Y-105614835D01*
X174599500Y-105332165D01*
X174544353Y-105054926D01*
X174436180Y-104793773D01*
X174279137Y-104558741D01*
X174079259Y-104358863D01*
X173846741Y-104203500D01*
X174079259Y-104048137D01*
X174279137Y-103848259D01*
X174436180Y-103613227D01*
X174544353Y-103352074D01*
X174599500Y-103074835D01*
X174599500Y-102792165D01*
X174544353Y-102514926D01*
X174436180Y-102253773D01*
X174279137Y-102018741D01*
X174079259Y-101818863D01*
X173846741Y-101663500D01*
X174079259Y-101508137D01*
X174279137Y-101308259D01*
X174436180Y-101073227D01*
X174544353Y-100812074D01*
X174599500Y-100534835D01*
X174599500Y-100252165D01*
X174544353Y-99974926D01*
X174436180Y-99713773D01*
X174279137Y-99478741D01*
X174080539Y-99280143D01*
X174088982Y-99279312D01*
X174208680Y-99243002D01*
X174318994Y-99184037D01*
X174415685Y-99104685D01*
X174495037Y-99007994D01*
X174554002Y-98897680D01*
X174590312Y-98777982D01*
X174602572Y-98653500D01*
X174602572Y-97712165D01*
X179349500Y-97712165D01*
X179349500Y-97994835D01*
X179404647Y-98272074D01*
X179512820Y-98533227D01*
X179669863Y-98768259D01*
X179869741Y-98968137D01*
X180102259Y-99123500D01*
X179869741Y-99278863D01*
X179669863Y-99478741D01*
X179512820Y-99713773D01*
X179404647Y-99974926D01*
X179349500Y-100252165D01*
X179349500Y-100534835D01*
X179404647Y-100812074D01*
X179512820Y-101073227D01*
X179669863Y-101308259D01*
X179869741Y-101508137D01*
X180102259Y-101663500D01*
X179869741Y-101818863D01*
X179669863Y-102018741D01*
X179512820Y-102253773D01*
X179404647Y-102514926D01*
X179349500Y-102792165D01*
X179349500Y-103074835D01*
X179404647Y-103352074D01*
X179512820Y-103613227D01*
X179669863Y-103848259D01*
X179869741Y-104048137D01*
X180102259Y-104203500D01*
X179869741Y-104358863D01*
X179669863Y-104558741D01*
X179512820Y-104793773D01*
X179404647Y-105054926D01*
X179349500Y-105332165D01*
X179349500Y-105614835D01*
X179404647Y-105892074D01*
X179512820Y-106153227D01*
X179669863Y-106388259D01*
X179869741Y-106588137D01*
X180104773Y-106745180D01*
X180365926Y-106853353D01*
X180643165Y-106908500D01*
X180925835Y-106908500D01*
X181203074Y-106853353D01*
X181235371Y-106839975D01*
X183910500Y-106839975D01*
X183910500Y-107359025D01*
X184011761Y-107868101D01*
X184210393Y-108347641D01*
X184498762Y-108779215D01*
X184865785Y-109146238D01*
X185297359Y-109434607D01*
X185776899Y-109633239D01*
X186285975Y-109734500D01*
X186805025Y-109734500D01*
X187314101Y-109633239D01*
X187793641Y-109434607D01*
X188225215Y-109146238D01*
X188592238Y-108779215D01*
X188880607Y-108347641D01*
X189079239Y-107868101D01*
X189180500Y-107359025D01*
X189180500Y-106839975D01*
X189079239Y-106330899D01*
X188880607Y-105851359D01*
X188592238Y-105419785D01*
X188225215Y-105052762D01*
X187793641Y-104764393D01*
X187314101Y-104565761D01*
X186805025Y-104464500D01*
X186285975Y-104464500D01*
X185776899Y-104565761D01*
X185297359Y-104764393D01*
X184865785Y-105052762D01*
X184498762Y-105419785D01*
X184210393Y-105851359D01*
X184011761Y-106330899D01*
X183910500Y-106839975D01*
X181235371Y-106839975D01*
X181464227Y-106745180D01*
X181699259Y-106588137D01*
X181899137Y-106388259D01*
X182056180Y-106153227D01*
X182164353Y-105892074D01*
X182219500Y-105614835D01*
X182219500Y-105332165D01*
X182164353Y-105054926D01*
X182056180Y-104793773D01*
X181899137Y-104558741D01*
X181699259Y-104358863D01*
X181466741Y-104203500D01*
X181699259Y-104048137D01*
X181899137Y-103848259D01*
X182056180Y-103613227D01*
X182164353Y-103352074D01*
X182219500Y-103074835D01*
X182219500Y-102792165D01*
X182164353Y-102514926D01*
X182056180Y-102253773D01*
X181899137Y-102018741D01*
X181699259Y-101818863D01*
X181466741Y-101663500D01*
X181699259Y-101508137D01*
X181899137Y-101308259D01*
X182056180Y-101073227D01*
X182164353Y-100812074D01*
X182219500Y-100534835D01*
X182219500Y-100252165D01*
X182164353Y-99974926D01*
X182056180Y-99713773D01*
X181899137Y-99478741D01*
X181759896Y-99339500D01*
X184807428Y-99339500D01*
X184807428Y-100939500D01*
X184819688Y-101063982D01*
X184855998Y-101183680D01*
X184914963Y-101293994D01*
X184994315Y-101390685D01*
X185091006Y-101470037D01*
X185201320Y-101529002D01*
X185321018Y-101565312D01*
X185445500Y-101577572D01*
X187045500Y-101577572D01*
X187169982Y-101565312D01*
X187289680Y-101529002D01*
X187399994Y-101470037D01*
X187496685Y-101390685D01*
X187576037Y-101293994D01*
X187635002Y-101183680D01*
X187671312Y-101063982D01*
X187683572Y-100939500D01*
X187683572Y-99339500D01*
X187671312Y-99215018D01*
X187635002Y-99095320D01*
X187576037Y-98985006D01*
X187496685Y-98888315D01*
X187399994Y-98808963D01*
X187289680Y-98749998D01*
X187169982Y-98713688D01*
X187045500Y-98701428D01*
X186779775Y-98701428D01*
X186925227Y-98641180D01*
X187160259Y-98484137D01*
X187360137Y-98284259D01*
X187517180Y-98049227D01*
X187625353Y-97788074D01*
X187680500Y-97510835D01*
X187680500Y-97228165D01*
X187625353Y-96950926D01*
X187517180Y-96689773D01*
X187360137Y-96454741D01*
X187160259Y-96254863D01*
X186925227Y-96097820D01*
X186664074Y-95989647D01*
X186638199Y-95984500D01*
X186664074Y-95979353D01*
X186925227Y-95871180D01*
X187160259Y-95714137D01*
X187360137Y-95514259D01*
X187517180Y-95279227D01*
X187625353Y-95018074D01*
X187680500Y-94740835D01*
X187680500Y-94458165D01*
X187625353Y-94180926D01*
X187517180Y-93919773D01*
X187360137Y-93684741D01*
X187160259Y-93484863D01*
X186925227Y-93327820D01*
X186664074Y-93219647D01*
X186638199Y-93214500D01*
X186664074Y-93209353D01*
X186925227Y-93101180D01*
X187160259Y-92944137D01*
X187360137Y-92744259D01*
X187517180Y-92509227D01*
X187625353Y-92248074D01*
X187680500Y-91970835D01*
X187680500Y-91688165D01*
X187625353Y-91410926D01*
X187517180Y-91149773D01*
X187360137Y-90914741D01*
X187160259Y-90714863D01*
X186925227Y-90557820D01*
X186664074Y-90449647D01*
X186638199Y-90444500D01*
X186664074Y-90439353D01*
X186925227Y-90331180D01*
X186967154Y-90303165D01*
X187650500Y-90303165D01*
X187650500Y-90585835D01*
X187705647Y-90863074D01*
X187813820Y-91124227D01*
X187970863Y-91359259D01*
X188170741Y-91559137D01*
X188405773Y-91716180D01*
X188666926Y-91824353D01*
X188692801Y-91829500D01*
X188666926Y-91834647D01*
X188405773Y-91942820D01*
X188170741Y-92099863D01*
X187970863Y-92299741D01*
X187813820Y-92534773D01*
X187705647Y-92795926D01*
X187650500Y-93073165D01*
X187650500Y-93355835D01*
X187705647Y-93633074D01*
X187813820Y-93894227D01*
X187970863Y-94129259D01*
X188170741Y-94329137D01*
X188405773Y-94486180D01*
X188666926Y-94594353D01*
X188692801Y-94599500D01*
X188666926Y-94604647D01*
X188405773Y-94712820D01*
X188170741Y-94869863D01*
X187970863Y-95069741D01*
X187813820Y-95304773D01*
X187705647Y-95565926D01*
X187650500Y-95843165D01*
X187650500Y-96125835D01*
X187705647Y-96403074D01*
X187813820Y-96664227D01*
X187970863Y-96899259D01*
X188170741Y-97099137D01*
X188405773Y-97256180D01*
X188666926Y-97364353D01*
X188692801Y-97369500D01*
X188666926Y-97374647D01*
X188405773Y-97482820D01*
X188170741Y-97639863D01*
X187970863Y-97839741D01*
X187813820Y-98074773D01*
X187705647Y-98335926D01*
X187650500Y-98613165D01*
X187650500Y-98895835D01*
X187705647Y-99173074D01*
X187813820Y-99434227D01*
X187970863Y-99669259D01*
X188170741Y-99869137D01*
X188405773Y-100026180D01*
X188666926Y-100134353D01*
X188944165Y-100189500D01*
X189226835Y-100189500D01*
X189504074Y-100134353D01*
X189765227Y-100026180D01*
X190000259Y-99869137D01*
X190200137Y-99669259D01*
X190357180Y-99434227D01*
X190465353Y-99173074D01*
X190520500Y-98895835D01*
X190520500Y-98613165D01*
X190465353Y-98335926D01*
X190357180Y-98074773D01*
X190200137Y-97839741D01*
X190000259Y-97639863D01*
X189765227Y-97482820D01*
X189504074Y-97374647D01*
X189478199Y-97369500D01*
X189504074Y-97364353D01*
X189765227Y-97256180D01*
X190000259Y-97099137D01*
X190200137Y-96899259D01*
X190357180Y-96664227D01*
X190465353Y-96403074D01*
X190520500Y-96125835D01*
X190520500Y-95843165D01*
X190465353Y-95565926D01*
X190357180Y-95304773D01*
X190200137Y-95069741D01*
X190000259Y-94869863D01*
X189765227Y-94712820D01*
X189504074Y-94604647D01*
X189478199Y-94599500D01*
X189504074Y-94594353D01*
X189765227Y-94486180D01*
X190000259Y-94329137D01*
X190200137Y-94129259D01*
X190357180Y-93894227D01*
X190465353Y-93633074D01*
X190520500Y-93355835D01*
X190520500Y-93073165D01*
X190465353Y-92795926D01*
X190357180Y-92534773D01*
X190200137Y-92299741D01*
X190000259Y-92099863D01*
X189765227Y-91942820D01*
X189504074Y-91834647D01*
X189478199Y-91829500D01*
X189504074Y-91824353D01*
X189765227Y-91716180D01*
X190000259Y-91559137D01*
X190200137Y-91359259D01*
X190357180Y-91124227D01*
X190465353Y-90863074D01*
X190520500Y-90585835D01*
X190520500Y-90303165D01*
X190465353Y-90025926D01*
X190357180Y-89764773D01*
X190200137Y-89529741D01*
X190000259Y-89329863D01*
X189765227Y-89172820D01*
X189504074Y-89064647D01*
X189226835Y-89009500D01*
X188944165Y-89009500D01*
X188666926Y-89064647D01*
X188405773Y-89172820D01*
X188170741Y-89329863D01*
X187970863Y-89529741D01*
X187813820Y-89764773D01*
X187705647Y-90025926D01*
X187650500Y-90303165D01*
X186967154Y-90303165D01*
X187160259Y-90174137D01*
X187360137Y-89974259D01*
X187517180Y-89739227D01*
X187625353Y-89478074D01*
X187680500Y-89200835D01*
X187680500Y-88918165D01*
X187625353Y-88640926D01*
X187517180Y-88379773D01*
X187360137Y-88144741D01*
X187160259Y-87944863D01*
X186925227Y-87787820D01*
X186664074Y-87679647D01*
X186386835Y-87624500D01*
X186104165Y-87624500D01*
X185826926Y-87679647D01*
X185565773Y-87787820D01*
X185330741Y-87944863D01*
X185130863Y-88144741D01*
X184973820Y-88379773D01*
X184865647Y-88640926D01*
X184810500Y-88918165D01*
X184810500Y-89200835D01*
X184865647Y-89478074D01*
X184973820Y-89739227D01*
X185130863Y-89974259D01*
X185330741Y-90174137D01*
X185565773Y-90331180D01*
X185826926Y-90439353D01*
X185852801Y-90444500D01*
X185826926Y-90449647D01*
X185565773Y-90557820D01*
X185330741Y-90714863D01*
X185130863Y-90914741D01*
X184973820Y-91149773D01*
X184865647Y-91410926D01*
X184810500Y-91688165D01*
X184810500Y-91970835D01*
X184865647Y-92248074D01*
X184973820Y-92509227D01*
X185130863Y-92744259D01*
X185330741Y-92944137D01*
X185565773Y-93101180D01*
X185826926Y-93209353D01*
X185852801Y-93214500D01*
X185826926Y-93219647D01*
X185565773Y-93327820D01*
X185330741Y-93484863D01*
X185130863Y-93684741D01*
X184973820Y-93919773D01*
X184865647Y-94180926D01*
X184810500Y-94458165D01*
X184810500Y-94740835D01*
X184865647Y-95018074D01*
X184973820Y-95279227D01*
X185130863Y-95514259D01*
X185330741Y-95714137D01*
X185565773Y-95871180D01*
X185826926Y-95979353D01*
X185852801Y-95984500D01*
X185826926Y-95989647D01*
X185565773Y-96097820D01*
X185330741Y-96254863D01*
X185130863Y-96454741D01*
X184973820Y-96689773D01*
X184865647Y-96950926D01*
X184810500Y-97228165D01*
X184810500Y-97510835D01*
X184865647Y-97788074D01*
X184973820Y-98049227D01*
X185130863Y-98284259D01*
X185330741Y-98484137D01*
X185565773Y-98641180D01*
X185711225Y-98701428D01*
X185445500Y-98701428D01*
X185321018Y-98713688D01*
X185201320Y-98749998D01*
X185091006Y-98808963D01*
X184994315Y-98888315D01*
X184914963Y-98985006D01*
X184855998Y-99095320D01*
X184819688Y-99215018D01*
X184807428Y-99339500D01*
X181759896Y-99339500D01*
X181699259Y-99278863D01*
X181466741Y-99123500D01*
X181699259Y-98968137D01*
X181899137Y-98768259D01*
X182056180Y-98533227D01*
X182164353Y-98272074D01*
X182219500Y-97994835D01*
X182219500Y-97712165D01*
X182164353Y-97434926D01*
X182056180Y-97173773D01*
X181899137Y-96938741D01*
X181699259Y-96738863D01*
X181464227Y-96581820D01*
X181203074Y-96473647D01*
X180925835Y-96418500D01*
X180643165Y-96418500D01*
X180365926Y-96473647D01*
X180104773Y-96581820D01*
X179869741Y-96738863D01*
X179669863Y-96938741D01*
X179512820Y-97173773D01*
X179404647Y-97434926D01*
X179349500Y-97712165D01*
X174602572Y-97712165D01*
X174602572Y-97053500D01*
X174590312Y-96929018D01*
X174554002Y-96809320D01*
X174495037Y-96699006D01*
X174415685Y-96602315D01*
X174318994Y-96522963D01*
X174208680Y-96463998D01*
X174088982Y-96427688D01*
X173964500Y-96415428D01*
X172364500Y-96415428D01*
X172240018Y-96427688D01*
X172120320Y-96463998D01*
X172010006Y-96522963D01*
X171913315Y-96602315D01*
X171833963Y-96699006D01*
X171774998Y-96809320D01*
X171738688Y-96929018D01*
X171726428Y-97053500D01*
X130937000Y-97053500D01*
X130937000Y-94219665D01*
X134518500Y-94219665D01*
X134518500Y-94502335D01*
X134573647Y-94779574D01*
X134681820Y-95040727D01*
X134838863Y-95275759D01*
X135038741Y-95475637D01*
X135273773Y-95632680D01*
X135534926Y-95740853D01*
X135812165Y-95796000D01*
X136094835Y-95796000D01*
X136372074Y-95740853D01*
X136633227Y-95632680D01*
X136868259Y-95475637D01*
X137068137Y-95275759D01*
X137223500Y-95043241D01*
X137378863Y-95275759D01*
X137578741Y-95475637D01*
X137813773Y-95632680D01*
X138074926Y-95740853D01*
X138352165Y-95796000D01*
X138634835Y-95796000D01*
X138912074Y-95740853D01*
X139173227Y-95632680D01*
X139408259Y-95475637D01*
X139608137Y-95275759D01*
X139763500Y-95043241D01*
X139918863Y-95275759D01*
X140118741Y-95475637D01*
X140353773Y-95632680D01*
X140614926Y-95740853D01*
X140892165Y-95796000D01*
X141174835Y-95796000D01*
X141452074Y-95740853D01*
X141713227Y-95632680D01*
X141948259Y-95475637D01*
X142148137Y-95275759D01*
X142303500Y-95043241D01*
X142458863Y-95275759D01*
X142658741Y-95475637D01*
X142893773Y-95632680D01*
X143154926Y-95740853D01*
X143432165Y-95796000D01*
X143714835Y-95796000D01*
X143992074Y-95740853D01*
X144253227Y-95632680D01*
X144488259Y-95475637D01*
X144688137Y-95275759D01*
X144843500Y-95043241D01*
X144998863Y-95275759D01*
X145198741Y-95475637D01*
X145433773Y-95632680D01*
X145694926Y-95740853D01*
X145972165Y-95796000D01*
X146254835Y-95796000D01*
X146532074Y-95740853D01*
X146793227Y-95632680D01*
X147028259Y-95475637D01*
X147228137Y-95275759D01*
X147383500Y-95043241D01*
X147538863Y-95275759D01*
X147738741Y-95475637D01*
X147973773Y-95632680D01*
X148234926Y-95740853D01*
X148512165Y-95796000D01*
X148794835Y-95796000D01*
X149072074Y-95740853D01*
X149333227Y-95632680D01*
X149568259Y-95475637D01*
X149768137Y-95275759D01*
X149923500Y-95043241D01*
X150078863Y-95275759D01*
X150278741Y-95475637D01*
X150513773Y-95632680D01*
X150774926Y-95740853D01*
X151052165Y-95796000D01*
X151334835Y-95796000D01*
X151612074Y-95740853D01*
X151873227Y-95632680D01*
X152108259Y-95475637D01*
X152308137Y-95275759D01*
X152463500Y-95043241D01*
X152618863Y-95275759D01*
X152818741Y-95475637D01*
X153053773Y-95632680D01*
X153314926Y-95740853D01*
X153592165Y-95796000D01*
X153874835Y-95796000D01*
X154152074Y-95740853D01*
X154413227Y-95632680D01*
X154648259Y-95475637D01*
X154848137Y-95275759D01*
X155003500Y-95043241D01*
X155158863Y-95275759D01*
X155358741Y-95475637D01*
X155593773Y-95632680D01*
X155854926Y-95740853D01*
X156132165Y-95796000D01*
X156414835Y-95796000D01*
X156692074Y-95740853D01*
X156953227Y-95632680D01*
X157188259Y-95475637D01*
X157388137Y-95275759D01*
X157543500Y-95043241D01*
X157698863Y-95275759D01*
X157898741Y-95475637D01*
X158133773Y-95632680D01*
X158394926Y-95740853D01*
X158672165Y-95796000D01*
X158954835Y-95796000D01*
X159232074Y-95740853D01*
X159493227Y-95632680D01*
X159728259Y-95475637D01*
X159928137Y-95275759D01*
X160083500Y-95043241D01*
X160238863Y-95275759D01*
X160438741Y-95475637D01*
X160673773Y-95632680D01*
X160934926Y-95740853D01*
X161212165Y-95796000D01*
X161494835Y-95796000D01*
X161772074Y-95740853D01*
X162033227Y-95632680D01*
X162268259Y-95475637D01*
X162468137Y-95275759D01*
X162623500Y-95043241D01*
X162778863Y-95275759D01*
X162978741Y-95475637D01*
X163213773Y-95632680D01*
X163474926Y-95740853D01*
X163752165Y-95796000D01*
X164034835Y-95796000D01*
X164312074Y-95740853D01*
X164573227Y-95632680D01*
X164808259Y-95475637D01*
X165008137Y-95275759D01*
X165163500Y-95043241D01*
X165318863Y-95275759D01*
X165518741Y-95475637D01*
X165753773Y-95632680D01*
X166014926Y-95740853D01*
X166292165Y-95796000D01*
X166574835Y-95796000D01*
X166852074Y-95740853D01*
X167113227Y-95632680D01*
X167348259Y-95475637D01*
X167546857Y-95277039D01*
X167547688Y-95285482D01*
X167583998Y-95405180D01*
X167642963Y-95515494D01*
X167722315Y-95612185D01*
X167819006Y-95691537D01*
X167929320Y-95750502D01*
X168049018Y-95786812D01*
X168173500Y-95799072D01*
X169773500Y-95799072D01*
X169897982Y-95786812D01*
X170017680Y-95750502D01*
X170127994Y-95691537D01*
X170224685Y-95612185D01*
X170304037Y-95515494D01*
X170363002Y-95405180D01*
X170399312Y-95285482D01*
X170411572Y-95161000D01*
X170411572Y-94513061D01*
X176511000Y-94513061D01*
X176511000Y-94716939D01*
X176550774Y-94916898D01*
X176628795Y-95105256D01*
X176742063Y-95274774D01*
X176886226Y-95418937D01*
X177055744Y-95532205D01*
X177244102Y-95610226D01*
X177444061Y-95650000D01*
X177647939Y-95650000D01*
X177847898Y-95610226D01*
X178036256Y-95532205D01*
X178205774Y-95418937D01*
X178349937Y-95274774D01*
X178463205Y-95105256D01*
X178541226Y-94916898D01*
X178581000Y-94716939D01*
X178581000Y-94513061D01*
X178541226Y-94313102D01*
X178463205Y-94124744D01*
X178349937Y-93955226D01*
X178205774Y-93811063D01*
X178036256Y-93697795D01*
X177847898Y-93619774D01*
X177647939Y-93580000D01*
X177444061Y-93580000D01*
X177244102Y-93619774D01*
X177055744Y-93697795D01*
X176886226Y-93811063D01*
X176742063Y-93955226D01*
X176628795Y-94124744D01*
X176550774Y-94313102D01*
X176511000Y-94513061D01*
X170411572Y-94513061D01*
X170411572Y-93561000D01*
X170399312Y-93436518D01*
X170363002Y-93316820D01*
X170304037Y-93206506D01*
X170224685Y-93109815D01*
X170127994Y-93030463D01*
X170017680Y-92971498D01*
X169897982Y-92935188D01*
X169773500Y-92922928D01*
X168173500Y-92922928D01*
X168049018Y-92935188D01*
X167929320Y-92971498D01*
X167819006Y-93030463D01*
X167722315Y-93109815D01*
X167642963Y-93206506D01*
X167583998Y-93316820D01*
X167547688Y-93436518D01*
X167546857Y-93444961D01*
X167348259Y-93246363D01*
X167113227Y-93089320D01*
X166852074Y-92981147D01*
X166574835Y-92926000D01*
X166292165Y-92926000D01*
X166014926Y-92981147D01*
X165753773Y-93089320D01*
X165518741Y-93246363D01*
X165318863Y-93446241D01*
X165163500Y-93678759D01*
X165008137Y-93446241D01*
X164808259Y-93246363D01*
X164573227Y-93089320D01*
X164312074Y-92981147D01*
X164034835Y-92926000D01*
X163752165Y-92926000D01*
X163474926Y-92981147D01*
X163213773Y-93089320D01*
X162978741Y-93246363D01*
X162778863Y-93446241D01*
X162623500Y-93678759D01*
X162468137Y-93446241D01*
X162268259Y-93246363D01*
X162033227Y-93089320D01*
X161772074Y-92981147D01*
X161494835Y-92926000D01*
X161212165Y-92926000D01*
X160934926Y-92981147D01*
X160673773Y-93089320D01*
X160438741Y-93246363D01*
X160238863Y-93446241D01*
X160083500Y-93678759D01*
X159928137Y-93446241D01*
X159728259Y-93246363D01*
X159493227Y-93089320D01*
X159232074Y-92981147D01*
X158954835Y-92926000D01*
X158672165Y-92926000D01*
X158394926Y-92981147D01*
X158133773Y-93089320D01*
X157898741Y-93246363D01*
X157698863Y-93446241D01*
X157543500Y-93678759D01*
X157388137Y-93446241D01*
X157188259Y-93246363D01*
X156953227Y-93089320D01*
X156692074Y-92981147D01*
X156414835Y-92926000D01*
X156132165Y-92926000D01*
X155854926Y-92981147D01*
X155593773Y-93089320D01*
X155358741Y-93246363D01*
X155158863Y-93446241D01*
X155003500Y-93678759D01*
X154848137Y-93446241D01*
X154648259Y-93246363D01*
X154413227Y-93089320D01*
X154152074Y-92981147D01*
X153874835Y-92926000D01*
X153592165Y-92926000D01*
X153314926Y-92981147D01*
X153053773Y-93089320D01*
X152818741Y-93246363D01*
X152618863Y-93446241D01*
X152463500Y-93678759D01*
X152308137Y-93446241D01*
X152108259Y-93246363D01*
X151873227Y-93089320D01*
X151612074Y-92981147D01*
X151334835Y-92926000D01*
X151052165Y-92926000D01*
X150774926Y-92981147D01*
X150513773Y-93089320D01*
X150278741Y-93246363D01*
X150078863Y-93446241D01*
X149923500Y-93678759D01*
X149768137Y-93446241D01*
X149568259Y-93246363D01*
X149333227Y-93089320D01*
X149072074Y-92981147D01*
X148794835Y-92926000D01*
X148512165Y-92926000D01*
X148234926Y-92981147D01*
X147973773Y-93089320D01*
X147738741Y-93246363D01*
X147538863Y-93446241D01*
X147383500Y-93678759D01*
X147228137Y-93446241D01*
X147028259Y-93246363D01*
X146793227Y-93089320D01*
X146532074Y-92981147D01*
X146254835Y-92926000D01*
X145972165Y-92926000D01*
X145694926Y-92981147D01*
X145433773Y-93089320D01*
X145198741Y-93246363D01*
X144998863Y-93446241D01*
X144843500Y-93678759D01*
X144688137Y-93446241D01*
X144488259Y-93246363D01*
X144253227Y-93089320D01*
X143992074Y-92981147D01*
X143714835Y-92926000D01*
X143432165Y-92926000D01*
X143154926Y-92981147D01*
X142893773Y-93089320D01*
X142658741Y-93246363D01*
X142458863Y-93446241D01*
X142303500Y-93678759D01*
X142148137Y-93446241D01*
X141948259Y-93246363D01*
X141713227Y-93089320D01*
X141452074Y-92981147D01*
X141174835Y-92926000D01*
X140892165Y-92926000D01*
X140614926Y-92981147D01*
X140353773Y-93089320D01*
X140118741Y-93246363D01*
X139918863Y-93446241D01*
X139763500Y-93678759D01*
X139608137Y-93446241D01*
X139408259Y-93246363D01*
X139173227Y-93089320D01*
X138912074Y-92981147D01*
X138634835Y-92926000D01*
X138352165Y-92926000D01*
X138074926Y-92981147D01*
X137813773Y-93089320D01*
X137578741Y-93246363D01*
X137378863Y-93446241D01*
X137223500Y-93678759D01*
X137068137Y-93446241D01*
X136868259Y-93246363D01*
X136633227Y-93089320D01*
X136372074Y-92981147D01*
X136094835Y-92926000D01*
X135812165Y-92926000D01*
X135534926Y-92981147D01*
X135273773Y-93089320D01*
X135038741Y-93246363D01*
X134838863Y-93446241D01*
X134681820Y-93681273D01*
X134573647Y-93942426D01*
X134518500Y-94219665D01*
X130937000Y-94219665D01*
X130937000Y-91465061D01*
X141713000Y-91465061D01*
X141713000Y-91668939D01*
X141752774Y-91868898D01*
X141830795Y-92057256D01*
X141944063Y-92226774D01*
X142088226Y-92370937D01*
X142257744Y-92484205D01*
X142446102Y-92562226D01*
X142646061Y-92602000D01*
X142849939Y-92602000D01*
X143049898Y-92562226D01*
X143238256Y-92484205D01*
X143407774Y-92370937D01*
X143551937Y-92226774D01*
X143665205Y-92057256D01*
X143743226Y-91868898D01*
X143783000Y-91668939D01*
X143783000Y-91465061D01*
X143743226Y-91265102D01*
X143665205Y-91076744D01*
X143551937Y-90907226D01*
X143407774Y-90763063D01*
X143238256Y-90649795D01*
X143049898Y-90571774D01*
X142849939Y-90532000D01*
X142646061Y-90532000D01*
X142446102Y-90571774D01*
X142257744Y-90649795D01*
X142088226Y-90763063D01*
X141944063Y-90907226D01*
X141830795Y-91076744D01*
X141752774Y-91265102D01*
X141713000Y-91465061D01*
X130937000Y-91465061D01*
X130937000Y-90131561D01*
X171050000Y-90131561D01*
X171050000Y-90335439D01*
X171089774Y-90535398D01*
X171167795Y-90723756D01*
X171281063Y-90893274D01*
X171425226Y-91037437D01*
X171594744Y-91150705D01*
X171783102Y-91228726D01*
X171983061Y-91268500D01*
X172186939Y-91268500D01*
X172386898Y-91228726D01*
X172575256Y-91150705D01*
X172744774Y-91037437D01*
X172888937Y-90893274D01*
X173002205Y-90723756D01*
X173080226Y-90535398D01*
X173120000Y-90335439D01*
X173120000Y-90131561D01*
X173080226Y-89931602D01*
X173002205Y-89743244D01*
X172888937Y-89573726D01*
X172744774Y-89429563D01*
X172575256Y-89316295D01*
X172386898Y-89238274D01*
X172186939Y-89198500D01*
X171983061Y-89198500D01*
X171783102Y-89238274D01*
X171594744Y-89316295D01*
X171425226Y-89429563D01*
X171281063Y-89573726D01*
X171167795Y-89743244D01*
X171089774Y-89931602D01*
X171050000Y-90131561D01*
X130937000Y-90131561D01*
X130937000Y-87303089D01*
X144484000Y-87303089D01*
X144484000Y-87575911D01*
X144537225Y-87843489D01*
X144641629Y-88095543D01*
X144793201Y-88322386D01*
X144986114Y-88515299D01*
X145212957Y-88666871D01*
X145465011Y-88771275D01*
X145732589Y-88824500D01*
X146005411Y-88824500D01*
X146272989Y-88771275D01*
X146525043Y-88666871D01*
X146751886Y-88515299D01*
X146944799Y-88322386D01*
X147096371Y-88095543D01*
X147200775Y-87843489D01*
X147254000Y-87575911D01*
X147254000Y-87303089D01*
X149364000Y-87303089D01*
X149364000Y-87575911D01*
X149417225Y-87843489D01*
X149521629Y-88095543D01*
X149673201Y-88322386D01*
X149866114Y-88515299D01*
X150092957Y-88666871D01*
X150345011Y-88771275D01*
X150612589Y-88824500D01*
X150885411Y-88824500D01*
X151152989Y-88771275D01*
X151405043Y-88666871D01*
X151631886Y-88515299D01*
X151824799Y-88322386D01*
X151976371Y-88095543D01*
X152080775Y-87843489D01*
X152134000Y-87575911D01*
X152134000Y-87303089D01*
X152080775Y-87035511D01*
X151976371Y-86783457D01*
X151824799Y-86556614D01*
X151631886Y-86363701D01*
X151405043Y-86212129D01*
X151152989Y-86107725D01*
X150885411Y-86054500D01*
X150612589Y-86054500D01*
X150345011Y-86107725D01*
X150092957Y-86212129D01*
X149866114Y-86363701D01*
X149673201Y-86556614D01*
X149521629Y-86783457D01*
X149417225Y-87035511D01*
X149364000Y-87303089D01*
X147254000Y-87303089D01*
X147200775Y-87035511D01*
X147096371Y-86783457D01*
X146944799Y-86556614D01*
X146751886Y-86363701D01*
X146525043Y-86212129D01*
X146272989Y-86107725D01*
X146005411Y-86054500D01*
X145732589Y-86054500D01*
X145465011Y-86107725D01*
X145212957Y-86212129D01*
X144986114Y-86363701D01*
X144793201Y-86556614D01*
X144641629Y-86783457D01*
X144537225Y-87035511D01*
X144484000Y-87303089D01*
X130937000Y-87303089D01*
X130937000Y-81839975D01*
X183910500Y-81839975D01*
X183910500Y-82359025D01*
X184011761Y-82868101D01*
X184210393Y-83347641D01*
X184498762Y-83779215D01*
X184865785Y-84146238D01*
X185297359Y-84434607D01*
X185776899Y-84633239D01*
X186285975Y-84734500D01*
X186805025Y-84734500D01*
X187314101Y-84633239D01*
X187793641Y-84434607D01*
X188225215Y-84146238D01*
X188592238Y-83779215D01*
X188880607Y-83347641D01*
X189079239Y-82868101D01*
X189180500Y-82359025D01*
X189180500Y-81839975D01*
X189079239Y-81330899D01*
X188880607Y-80851359D01*
X188592238Y-80419785D01*
X188225215Y-80052762D01*
X187793641Y-79764393D01*
X187314101Y-79565761D01*
X186805025Y-79464500D01*
X186285975Y-79464500D01*
X185776899Y-79565761D01*
X185297359Y-79764393D01*
X184865785Y-80052762D01*
X184498762Y-80419785D01*
X184210393Y-80851359D01*
X184011761Y-81330899D01*
X183910500Y-81839975D01*
X130937000Y-81839975D01*
X130937000Y-75767861D01*
X191979600Y-75767861D01*
X191979600Y-75971739D01*
X192019374Y-76171698D01*
X192097395Y-76360056D01*
X192210663Y-76529574D01*
X192354826Y-76673737D01*
X192524344Y-76787005D01*
X192712702Y-76865026D01*
X192912661Y-76904800D01*
X193116539Y-76904800D01*
X193316498Y-76865026D01*
X193504856Y-76787005D01*
X193674374Y-76673737D01*
X193818537Y-76529574D01*
X193931805Y-76360056D01*
X194009826Y-76171698D01*
X194049600Y-75971739D01*
X194049600Y-75767861D01*
X194009826Y-75567902D01*
X193931805Y-75379544D01*
X193818537Y-75210026D01*
X193674374Y-75065863D01*
X193504856Y-74952595D01*
X193316498Y-74874574D01*
X193116539Y-74834800D01*
X192912661Y-74834800D01*
X192712702Y-74874574D01*
X192524344Y-74952595D01*
X192354826Y-75065863D01*
X192210663Y-75210026D01*
X192097395Y-75379544D01*
X192019374Y-75567902D01*
X191979600Y-75767861D01*
X130937000Y-75767861D01*
X130937000Y-74456911D01*
X143654500Y-74456911D01*
X143654500Y-74641089D01*
X143690432Y-74821729D01*
X143760914Y-74991889D01*
X143863238Y-75145028D01*
X143993472Y-75275262D01*
X144146611Y-75377586D01*
X144316771Y-75448068D01*
X144497411Y-75484000D01*
X144681589Y-75484000D01*
X144862229Y-75448068D01*
X145032389Y-75377586D01*
X145185528Y-75275262D01*
X145315762Y-75145028D01*
X145418086Y-74991889D01*
X145488568Y-74821729D01*
X145524500Y-74641089D01*
X145524500Y-74456911D01*
X146639000Y-74456911D01*
X146639000Y-74641089D01*
X146674932Y-74821729D01*
X146745414Y-74991889D01*
X146847738Y-75145028D01*
X146977972Y-75275262D01*
X147131111Y-75377586D01*
X147301271Y-75448068D01*
X147481911Y-75484000D01*
X147666089Y-75484000D01*
X147846729Y-75448068D01*
X148016889Y-75377586D01*
X148170028Y-75275262D01*
X148300262Y-75145028D01*
X148402586Y-74991889D01*
X148473068Y-74821729D01*
X148509000Y-74641089D01*
X148509000Y-74456911D01*
X148473068Y-74276271D01*
X148402586Y-74106111D01*
X148300262Y-73952972D01*
X148170028Y-73822738D01*
X148016889Y-73720414D01*
X147846729Y-73649932D01*
X147666089Y-73614000D01*
X147481911Y-73614000D01*
X147301271Y-73649932D01*
X147131111Y-73720414D01*
X146977972Y-73822738D01*
X146847738Y-73952972D01*
X146745414Y-74106111D01*
X146674932Y-74276271D01*
X146639000Y-74456911D01*
X145524500Y-74456911D01*
X145488568Y-74276271D01*
X145418086Y-74106111D01*
X145315762Y-73952972D01*
X145185528Y-73822738D01*
X145032389Y-73720414D01*
X144862229Y-73649932D01*
X144681589Y-73614000D01*
X144497411Y-73614000D01*
X144316771Y-73649932D01*
X144146611Y-73720414D01*
X143993472Y-73822738D01*
X143863238Y-73952972D01*
X143760914Y-74106111D01*
X143690432Y-74276271D01*
X143654500Y-74456911D01*
X130937000Y-74456911D01*
X130937000Y-73167212D01*
X132596000Y-73167212D01*
X132596000Y-73390788D01*
X132639617Y-73610067D01*
X132725176Y-73816624D01*
X132849388Y-74002520D01*
X133007480Y-74160612D01*
X133193376Y-74284824D01*
X133399933Y-74370383D01*
X133619212Y-74414000D01*
X133842788Y-74414000D01*
X134062067Y-74370383D01*
X134268624Y-74284824D01*
X134454520Y-74160612D01*
X134612612Y-74002520D01*
X134736824Y-73816624D01*
X134822383Y-73610067D01*
X134866000Y-73390788D01*
X134866000Y-73377411D01*
X141622500Y-73377411D01*
X141622500Y-73561589D01*
X141658432Y-73742229D01*
X141728914Y-73912389D01*
X141831238Y-74065528D01*
X141961472Y-74195762D01*
X142114611Y-74298086D01*
X142284771Y-74368568D01*
X142465411Y-74404500D01*
X142649589Y-74404500D01*
X142830229Y-74368568D01*
X143000389Y-74298086D01*
X143153528Y-74195762D01*
X143283762Y-74065528D01*
X143386086Y-73912389D01*
X143456568Y-73742229D01*
X143492500Y-73561589D01*
X143492500Y-73377411D01*
X148988500Y-73377411D01*
X148988500Y-73561589D01*
X149024432Y-73742229D01*
X149094914Y-73912389D01*
X149197238Y-74065528D01*
X149327472Y-74195762D01*
X149480611Y-74298086D01*
X149650771Y-74368568D01*
X149831411Y-74404500D01*
X150015589Y-74404500D01*
X150196229Y-74368568D01*
X150366389Y-74298086D01*
X150519528Y-74195762D01*
X150649762Y-74065528D01*
X150752086Y-73912389D01*
X150822568Y-73742229D01*
X150828887Y-73710461D01*
X189744400Y-73710461D01*
X189744400Y-73914339D01*
X189784174Y-74114298D01*
X189862195Y-74302656D01*
X189975463Y-74472174D01*
X190119626Y-74616337D01*
X190289144Y-74729605D01*
X190477502Y-74807626D01*
X190677461Y-74847400D01*
X190881339Y-74847400D01*
X191081298Y-74807626D01*
X191269656Y-74729605D01*
X191439174Y-74616337D01*
X191583337Y-74472174D01*
X191696605Y-74302656D01*
X191774626Y-74114298D01*
X191814400Y-73914339D01*
X191814400Y-73710461D01*
X191774626Y-73510502D01*
X191696605Y-73322144D01*
X191583337Y-73152626D01*
X191439174Y-73008463D01*
X191269656Y-72895195D01*
X191081298Y-72817174D01*
X190881339Y-72777400D01*
X190677461Y-72777400D01*
X190477502Y-72817174D01*
X190289144Y-72895195D01*
X190119626Y-73008463D01*
X189975463Y-73152626D01*
X189862195Y-73322144D01*
X189784174Y-73510502D01*
X189744400Y-73710461D01*
X150828887Y-73710461D01*
X150858500Y-73561589D01*
X150858500Y-73377411D01*
X150822568Y-73196771D01*
X150752086Y-73026611D01*
X150649762Y-72873472D01*
X150519528Y-72743238D01*
X150366389Y-72640914D01*
X150196229Y-72570432D01*
X150015589Y-72534500D01*
X149831411Y-72534500D01*
X149650771Y-72570432D01*
X149480611Y-72640914D01*
X149327472Y-72743238D01*
X149197238Y-72873472D01*
X149094914Y-73026611D01*
X149024432Y-73196771D01*
X148988500Y-73377411D01*
X143492500Y-73377411D01*
X143456568Y-73196771D01*
X143386086Y-73026611D01*
X143283762Y-72873472D01*
X143153528Y-72743238D01*
X143000389Y-72640914D01*
X142830229Y-72570432D01*
X142649589Y-72534500D01*
X142465411Y-72534500D01*
X142284771Y-72570432D01*
X142114611Y-72640914D01*
X141961472Y-72743238D01*
X141831238Y-72873472D01*
X141728914Y-73026611D01*
X141658432Y-73196771D01*
X141622500Y-73377411D01*
X134866000Y-73377411D01*
X134866000Y-73167212D01*
X134822383Y-72947933D01*
X134736824Y-72741376D01*
X134612612Y-72555480D01*
X134454520Y-72397388D01*
X134268624Y-72273176D01*
X134062067Y-72187617D01*
X133842788Y-72144000D01*
X133619212Y-72144000D01*
X133399933Y-72187617D01*
X133193376Y-72273176D01*
X133007480Y-72397388D01*
X132849388Y-72555480D01*
X132725176Y-72741376D01*
X132639617Y-72947933D01*
X132596000Y-73167212D01*
X130937000Y-73167212D01*
X130937000Y-71643212D01*
X147455000Y-71643212D01*
X147455000Y-71866788D01*
X147498617Y-72086067D01*
X147584176Y-72292624D01*
X147708388Y-72478520D01*
X147866480Y-72636612D01*
X148052376Y-72760824D01*
X148258933Y-72846383D01*
X148478212Y-72890000D01*
X148701788Y-72890000D01*
X148921067Y-72846383D01*
X149127624Y-72760824D01*
X149313520Y-72636612D01*
X149471612Y-72478520D01*
X149595824Y-72292624D01*
X149681383Y-72086067D01*
X149725000Y-71866788D01*
X149725000Y-71643212D01*
X149681383Y-71423933D01*
X149675161Y-71408911D01*
X150893500Y-71408911D01*
X150893500Y-71593089D01*
X150929432Y-71773729D01*
X150999914Y-71943889D01*
X151102238Y-72097028D01*
X151232472Y-72227262D01*
X151385611Y-72329586D01*
X151555771Y-72400068D01*
X151736411Y-72436000D01*
X151920589Y-72436000D01*
X152101229Y-72400068D01*
X152271389Y-72329586D01*
X152424528Y-72227262D01*
X152554762Y-72097028D01*
X152657086Y-71943889D01*
X152727568Y-71773729D01*
X152763500Y-71593089D01*
X152763500Y-71408911D01*
X152727568Y-71228271D01*
X152657086Y-71058111D01*
X152554762Y-70904972D01*
X152424528Y-70774738D01*
X152271389Y-70672414D01*
X152101229Y-70601932D01*
X151920589Y-70566000D01*
X151736411Y-70566000D01*
X151555771Y-70601932D01*
X151385611Y-70672414D01*
X151232472Y-70774738D01*
X151102238Y-70904972D01*
X150999914Y-71058111D01*
X150929432Y-71228271D01*
X150893500Y-71408911D01*
X149675161Y-71408911D01*
X149595824Y-71217376D01*
X149471612Y-71031480D01*
X149313520Y-70873388D01*
X149127624Y-70749176D01*
X148921067Y-70663617D01*
X148701788Y-70620000D01*
X148478212Y-70620000D01*
X148258933Y-70663617D01*
X148052376Y-70749176D01*
X147866480Y-70873388D01*
X147708388Y-71031480D01*
X147584176Y-71217376D01*
X147498617Y-71423933D01*
X147455000Y-71643212D01*
X130937000Y-71643212D01*
X130937000Y-70306861D01*
X172751800Y-70306861D01*
X172751800Y-70510739D01*
X172791574Y-70710698D01*
X172869595Y-70899056D01*
X172982863Y-71068574D01*
X173127026Y-71212737D01*
X173296544Y-71326005D01*
X173484902Y-71404026D01*
X173684861Y-71443800D01*
X173888739Y-71443800D01*
X174088698Y-71404026D01*
X174277056Y-71326005D01*
X174446574Y-71212737D01*
X174590737Y-71068574D01*
X174704005Y-70899056D01*
X174782026Y-70710698D01*
X174821800Y-70510739D01*
X174821800Y-70306861D01*
X174782026Y-70106902D01*
X174704005Y-69918544D01*
X174590737Y-69749026D01*
X174579923Y-69738212D01*
X179306600Y-69738212D01*
X179306600Y-69961788D01*
X179350217Y-70181067D01*
X179435776Y-70387624D01*
X179559988Y-70573520D01*
X179718080Y-70731612D01*
X179903976Y-70855824D01*
X180110533Y-70941383D01*
X180329812Y-70985000D01*
X180553388Y-70985000D01*
X180772667Y-70941383D01*
X180979224Y-70855824D01*
X181165120Y-70731612D01*
X181323212Y-70573520D01*
X181447424Y-70387624D01*
X181532983Y-70181067D01*
X181576600Y-69961788D01*
X181576600Y-69738212D01*
X181532983Y-69518933D01*
X181447424Y-69312376D01*
X181323212Y-69126480D01*
X181165120Y-68968388D01*
X180979224Y-68844176D01*
X180772667Y-68758617D01*
X180553388Y-68715000D01*
X180329812Y-68715000D01*
X180110533Y-68758617D01*
X179903976Y-68844176D01*
X179718080Y-68968388D01*
X179559988Y-69126480D01*
X179435776Y-69312376D01*
X179350217Y-69518933D01*
X179306600Y-69738212D01*
X174579923Y-69738212D01*
X174564711Y-69723000D01*
X174641537Y-69646174D01*
X174754805Y-69476656D01*
X174832826Y-69288298D01*
X174872600Y-69088339D01*
X174872600Y-68884461D01*
X174832826Y-68684502D01*
X174754805Y-68496144D01*
X174641537Y-68326626D01*
X174497374Y-68182463D01*
X174327856Y-68069195D01*
X174139498Y-67991174D01*
X173939539Y-67951400D01*
X173735661Y-67951400D01*
X173535702Y-67991174D01*
X173347344Y-68069195D01*
X173177826Y-68182463D01*
X173033663Y-68326626D01*
X172920395Y-68496144D01*
X172842374Y-68684502D01*
X172802600Y-68884461D01*
X172802600Y-69088339D01*
X172842374Y-69288298D01*
X172920395Y-69476656D01*
X173033663Y-69646174D01*
X173059689Y-69672200D01*
X172982863Y-69749026D01*
X172869595Y-69918544D01*
X172791574Y-70106902D01*
X172751800Y-70306861D01*
X130937000Y-70306861D01*
X130937000Y-69122911D01*
X153116000Y-69122911D01*
X153116000Y-69307089D01*
X153151932Y-69487729D01*
X153222414Y-69657889D01*
X153324738Y-69811028D01*
X153454972Y-69941262D01*
X153608111Y-70043586D01*
X153778271Y-70114068D01*
X153958911Y-70150000D01*
X154143089Y-70150000D01*
X154323729Y-70114068D01*
X154493889Y-70043586D01*
X154647028Y-69941262D01*
X154777262Y-69811028D01*
X154879586Y-69657889D01*
X154950068Y-69487729D01*
X154986000Y-69307089D01*
X154986000Y-69122911D01*
X154950068Y-68942271D01*
X154879586Y-68772111D01*
X154777262Y-68618972D01*
X154647028Y-68488738D01*
X154493889Y-68386414D01*
X154323729Y-68315932D01*
X154143089Y-68280000D01*
X153958911Y-68280000D01*
X153778271Y-68315932D01*
X153608111Y-68386414D01*
X153454972Y-68488738D01*
X153324738Y-68618972D01*
X153222414Y-68772111D01*
X153151932Y-68942271D01*
X153116000Y-69122911D01*
X130937000Y-69122911D01*
X130937000Y-67360461D01*
X178746200Y-67360461D01*
X178746200Y-67564339D01*
X178785974Y-67764298D01*
X178863995Y-67952656D01*
X178977263Y-68122174D01*
X179121426Y-68266337D01*
X179290944Y-68379605D01*
X179479302Y-68457626D01*
X179679261Y-68497400D01*
X179883139Y-68497400D01*
X180083098Y-68457626D01*
X180271456Y-68379605D01*
X180440974Y-68266337D01*
X180585137Y-68122174D01*
X180698405Y-67952656D01*
X180776426Y-67764298D01*
X180811282Y-67589061D01*
X192055800Y-67589061D01*
X192055800Y-67792939D01*
X192095574Y-67992898D01*
X192173595Y-68181256D01*
X192286863Y-68350774D01*
X192431026Y-68494937D01*
X192600544Y-68608205D01*
X192788902Y-68686226D01*
X192988861Y-68726000D01*
X193192739Y-68726000D01*
X193392698Y-68686226D01*
X193581056Y-68608205D01*
X193750574Y-68494937D01*
X193894737Y-68350774D01*
X194008005Y-68181256D01*
X194086026Y-67992898D01*
X194125800Y-67792939D01*
X194125800Y-67589061D01*
X194086026Y-67389102D01*
X194008005Y-67200744D01*
X193894737Y-67031226D01*
X193750574Y-66887063D01*
X193581056Y-66773795D01*
X193392698Y-66695774D01*
X193192739Y-66656000D01*
X192988861Y-66656000D01*
X192788902Y-66695774D01*
X192600544Y-66773795D01*
X192431026Y-66887063D01*
X192286863Y-67031226D01*
X192173595Y-67200744D01*
X192095574Y-67389102D01*
X192055800Y-67589061D01*
X180811282Y-67589061D01*
X180816200Y-67564339D01*
X180816200Y-67360461D01*
X180776426Y-67160502D01*
X180698405Y-66972144D01*
X180585137Y-66802626D01*
X180440974Y-66658463D01*
X180271456Y-66545195D01*
X180083098Y-66467174D01*
X179883139Y-66427400D01*
X179679261Y-66427400D01*
X179479302Y-66467174D01*
X179290944Y-66545195D01*
X179121426Y-66658463D01*
X178977263Y-66802626D01*
X178863995Y-66972144D01*
X178785974Y-67160502D01*
X178746200Y-67360461D01*
X130937000Y-67360461D01*
X130937000Y-66138411D01*
X155021000Y-66138411D01*
X155021000Y-66322589D01*
X155056932Y-66503229D01*
X155127414Y-66673389D01*
X155229738Y-66826528D01*
X155359972Y-66956762D01*
X155513111Y-67059086D01*
X155683271Y-67129568D01*
X155863911Y-67165500D01*
X156048089Y-67165500D01*
X156228729Y-67129568D01*
X156398889Y-67059086D01*
X156552028Y-66956762D01*
X156682262Y-66826528D01*
X156784586Y-66673389D01*
X156855068Y-66503229D01*
X156891000Y-66322589D01*
X156891000Y-66138411D01*
X156855068Y-65957771D01*
X156784586Y-65787611D01*
X156682262Y-65634472D01*
X156552028Y-65504238D01*
X156398889Y-65401914D01*
X156228729Y-65331432D01*
X156048089Y-65295500D01*
X155863911Y-65295500D01*
X155683271Y-65331432D01*
X155513111Y-65401914D01*
X155359972Y-65504238D01*
X155229738Y-65634472D01*
X155127414Y-65787611D01*
X155056932Y-65957771D01*
X155021000Y-66138411D01*
X130937000Y-66138411D01*
X130937000Y-64495963D01*
X171813800Y-64495963D01*
X171813800Y-64739237D01*
X171861260Y-64977836D01*
X171954357Y-65202592D01*
X172089513Y-65404867D01*
X172261533Y-65576887D01*
X172463808Y-65712043D01*
X172688564Y-65805140D01*
X172927163Y-65852600D01*
X173170437Y-65852600D01*
X173409036Y-65805140D01*
X173578322Y-65735019D01*
X173594306Y-65748137D01*
X173704620Y-65807102D01*
X173824318Y-65843412D01*
X173948800Y-65855672D01*
X174263050Y-65852600D01*
X174421800Y-65693850D01*
X174421800Y-64744600D01*
X174675800Y-64744600D01*
X174675800Y-65693850D01*
X174834550Y-65852600D01*
X175148800Y-65855672D01*
X175273282Y-65843412D01*
X175392980Y-65807102D01*
X175503294Y-65748137D01*
X175599985Y-65668785D01*
X175679337Y-65572094D01*
X175738302Y-65461780D01*
X175774612Y-65342082D01*
X175786872Y-65217600D01*
X175783800Y-64903350D01*
X175625050Y-64744600D01*
X174675800Y-64744600D01*
X174421800Y-64744600D01*
X174401800Y-64744600D01*
X174401800Y-64490600D01*
X174421800Y-64490600D01*
X174421800Y-63541350D01*
X174675800Y-63541350D01*
X174675800Y-64490600D01*
X175625050Y-64490600D01*
X175660638Y-64455012D01*
X176207800Y-64455012D01*
X176207800Y-64678588D01*
X176251417Y-64897867D01*
X176336976Y-65104424D01*
X176461188Y-65290320D01*
X176619280Y-65448412D01*
X176805176Y-65572624D01*
X177011733Y-65658183D01*
X177231012Y-65701800D01*
X177454588Y-65701800D01*
X177673867Y-65658183D01*
X177880424Y-65572624D01*
X178066320Y-65448412D01*
X178224412Y-65290320D01*
X178348624Y-65104424D01*
X178434183Y-64897867D01*
X178477800Y-64678588D01*
X178477800Y-64455012D01*
X178434183Y-64235733D01*
X178348624Y-64029176D01*
X178224412Y-63843280D01*
X178066320Y-63685188D01*
X177880424Y-63560976D01*
X177673867Y-63475417D01*
X177454588Y-63431800D01*
X177231012Y-63431800D01*
X177011733Y-63475417D01*
X176805176Y-63560976D01*
X176619280Y-63685188D01*
X176461188Y-63843280D01*
X176336976Y-64029176D01*
X176251417Y-64235733D01*
X176207800Y-64455012D01*
X175660638Y-64455012D01*
X175783800Y-64331850D01*
X175786872Y-64017600D01*
X175774612Y-63893118D01*
X175738302Y-63773420D01*
X175679337Y-63663106D01*
X175599985Y-63566415D01*
X175503294Y-63487063D01*
X175392980Y-63428098D01*
X175273282Y-63391788D01*
X175148800Y-63379528D01*
X174834550Y-63382600D01*
X174675800Y-63541350D01*
X174421800Y-63541350D01*
X174263050Y-63382600D01*
X173948800Y-63379528D01*
X173824318Y-63391788D01*
X173704620Y-63428098D01*
X173594306Y-63487063D01*
X173578322Y-63500181D01*
X173409036Y-63430060D01*
X173170437Y-63382600D01*
X172927163Y-63382600D01*
X172688564Y-63430060D01*
X172463808Y-63523157D01*
X172261533Y-63658313D01*
X172089513Y-63830333D01*
X171954357Y-64032608D01*
X171861260Y-64257364D01*
X171813800Y-64495963D01*
X130937000Y-64495963D01*
X130937000Y-62455411D01*
X155783000Y-62455411D01*
X155783000Y-62639589D01*
X155818932Y-62820229D01*
X155889414Y-62990389D01*
X155991738Y-63143528D01*
X156121972Y-63273762D01*
X156275111Y-63376086D01*
X156445271Y-63446568D01*
X156625911Y-63482500D01*
X156810089Y-63482500D01*
X156990729Y-63446568D01*
X157160889Y-63376086D01*
X157314028Y-63273762D01*
X157444262Y-63143528D01*
X157546586Y-62990389D01*
X157617068Y-62820229D01*
X157653000Y-62639589D01*
X157653000Y-62455411D01*
X157617068Y-62274771D01*
X157546586Y-62104611D01*
X157444262Y-61951472D01*
X157314028Y-61821238D01*
X157160889Y-61718914D01*
X156990729Y-61648432D01*
X156810089Y-61612500D01*
X156625911Y-61612500D01*
X156445271Y-61648432D01*
X156275111Y-61718914D01*
X156121972Y-61821238D01*
X155991738Y-61951472D01*
X155889414Y-62104611D01*
X155818932Y-62274771D01*
X155783000Y-62455411D01*
X130937000Y-62455411D01*
X130937000Y-59606036D01*
X130997414Y-59751889D01*
X131099738Y-59905028D01*
X131229972Y-60035262D01*
X131383111Y-60137586D01*
X131553271Y-60208068D01*
X131733911Y-60244000D01*
X131780000Y-60244000D01*
X131780000Y-60290089D01*
X131815932Y-60470729D01*
X131886414Y-60640889D01*
X131988738Y-60794028D01*
X132118972Y-60924262D01*
X132272111Y-61026586D01*
X132442271Y-61097068D01*
X132622911Y-61133000D01*
X132807089Y-61133000D01*
X132987729Y-61097068D01*
X133157889Y-61026586D01*
X133286500Y-60940651D01*
X133415111Y-61026586D01*
X133585271Y-61097068D01*
X133765911Y-61133000D01*
X133950089Y-61133000D01*
X134130729Y-61097068D01*
X134300889Y-61026586D01*
X134366000Y-60983080D01*
X134431111Y-61026586D01*
X134601271Y-61097068D01*
X134781911Y-61133000D01*
X134966089Y-61133000D01*
X135146729Y-61097068D01*
X135316889Y-61026586D01*
X135470028Y-60924262D01*
X135600262Y-60794028D01*
X135702586Y-60640889D01*
X135773068Y-60470729D01*
X135809000Y-60290089D01*
X135809000Y-60105911D01*
X135773068Y-59925271D01*
X135702586Y-59755111D01*
X135600262Y-59601972D01*
X135470028Y-59471738D01*
X135316889Y-59369414D01*
X135146729Y-59298932D01*
X134966089Y-59263000D01*
X134781911Y-59263000D01*
X134601271Y-59298932D01*
X134431111Y-59369414D01*
X134366000Y-59412920D01*
X134300889Y-59369414D01*
X134130729Y-59298932D01*
X133950089Y-59263000D01*
X133765911Y-59263000D01*
X133585271Y-59298932D01*
X133415111Y-59369414D01*
X133286500Y-59455349D01*
X133157889Y-59369414D01*
X132987729Y-59298932D01*
X132807089Y-59263000D01*
X132761000Y-59263000D01*
X132761000Y-59216911D01*
X132725068Y-59036271D01*
X132654586Y-58866111D01*
X132552262Y-58712972D01*
X132449790Y-58610500D01*
X132552262Y-58508028D01*
X132654586Y-58354889D01*
X132696142Y-58254561D01*
X137585500Y-58254561D01*
X137585500Y-58458439D01*
X137625274Y-58658398D01*
X137703295Y-58846756D01*
X137816563Y-59016274D01*
X137960726Y-59160437D01*
X138130244Y-59273705D01*
X138318602Y-59351726D01*
X138518561Y-59391500D01*
X138722439Y-59391500D01*
X138922398Y-59351726D01*
X139110756Y-59273705D01*
X139280274Y-59160437D01*
X139424437Y-59016274D01*
X139537705Y-58846756D01*
X139615726Y-58658398D01*
X139655500Y-58458439D01*
X139655500Y-58254561D01*
X139615726Y-58054602D01*
X139537705Y-57866244D01*
X139424437Y-57696726D01*
X139280274Y-57552563D01*
X139110756Y-57439295D01*
X138922398Y-57361274D01*
X138722439Y-57321500D01*
X138518561Y-57321500D01*
X138318602Y-57361274D01*
X138130244Y-57439295D01*
X137960726Y-57552563D01*
X137816563Y-57696726D01*
X137703295Y-57866244D01*
X137625274Y-58054602D01*
X137585500Y-58254561D01*
X132696142Y-58254561D01*
X132725068Y-58184729D01*
X132761000Y-58004089D01*
X132761000Y-57819911D01*
X132737451Y-57701521D01*
X132749911Y-57704000D01*
X132934089Y-57704000D01*
X133114729Y-57668068D01*
X133284889Y-57597586D01*
X133438028Y-57495262D01*
X133568262Y-57365028D01*
X133604000Y-57311542D01*
X133639738Y-57365028D01*
X133769972Y-57495262D01*
X133923111Y-57597586D01*
X134093271Y-57668068D01*
X134273911Y-57704000D01*
X134292833Y-57704000D01*
X134299414Y-57719889D01*
X134401738Y-57873028D01*
X134531972Y-58003262D01*
X134685111Y-58105586D01*
X134855271Y-58176068D01*
X135035911Y-58212000D01*
X135220089Y-58212000D01*
X135400729Y-58176068D01*
X135570889Y-58105586D01*
X135724028Y-58003262D01*
X135854262Y-57873028D01*
X135956586Y-57719889D01*
X136027068Y-57549729D01*
X136063000Y-57369089D01*
X136063000Y-57184911D01*
X136027068Y-57004271D01*
X135980900Y-56892811D01*
X148785300Y-56892811D01*
X148785300Y-57076989D01*
X148821232Y-57257629D01*
X148891714Y-57427789D01*
X148939463Y-57499250D01*
X148891714Y-57570711D01*
X148821232Y-57740871D01*
X148785300Y-57921511D01*
X148785300Y-58105689D01*
X148821232Y-58286329D01*
X148891714Y-58456489D01*
X148994038Y-58609628D01*
X149124272Y-58739862D01*
X149277411Y-58842186D01*
X149433334Y-58906771D01*
X149328211Y-58950314D01*
X149175072Y-59052638D01*
X149044838Y-59182872D01*
X148942514Y-59336011D01*
X148872032Y-59506171D01*
X148836100Y-59686811D01*
X148836100Y-59870989D01*
X148872032Y-60051629D01*
X148942514Y-60221789D01*
X149044838Y-60374928D01*
X149175072Y-60505162D01*
X149328211Y-60607486D01*
X149498371Y-60677968D01*
X149679011Y-60713900D01*
X149863189Y-60713900D01*
X150043829Y-60677968D01*
X150213989Y-60607486D01*
X150367128Y-60505162D01*
X150497362Y-60374928D01*
X150599686Y-60221789D01*
X150613658Y-60188057D01*
X150669714Y-60323389D01*
X150772038Y-60476528D01*
X150902272Y-60606762D01*
X151055411Y-60709086D01*
X151225571Y-60779568D01*
X151406211Y-60815500D01*
X151590389Y-60815500D01*
X151771029Y-60779568D01*
X151941189Y-60709086D01*
X152094328Y-60606762D01*
X152224562Y-60476528D01*
X152326886Y-60323389D01*
X152397368Y-60153229D01*
X152433300Y-59972589D01*
X152433300Y-59788411D01*
X152397368Y-59607771D01*
X152326886Y-59437611D01*
X152293432Y-59387543D01*
X152315894Y-59375537D01*
X152412585Y-59296185D01*
X152425530Y-59280411D01*
X155084500Y-59280411D01*
X155084500Y-59464589D01*
X155120432Y-59645229D01*
X155190914Y-59815389D01*
X155293238Y-59968528D01*
X155423472Y-60098762D01*
X155576611Y-60201086D01*
X155746771Y-60271568D01*
X155927411Y-60307500D01*
X156111589Y-60307500D01*
X156292229Y-60271568D01*
X156462389Y-60201086D01*
X156615528Y-60098762D01*
X156745762Y-59968528D01*
X156848086Y-59815389D01*
X156918568Y-59645229D01*
X156919834Y-59638861D01*
X192055800Y-59638861D01*
X192055800Y-59842739D01*
X192095574Y-60042698D01*
X192173595Y-60231056D01*
X192286863Y-60400574D01*
X192431026Y-60544737D01*
X192600544Y-60658005D01*
X192788902Y-60736026D01*
X192988861Y-60775800D01*
X193192739Y-60775800D01*
X193392698Y-60736026D01*
X193581056Y-60658005D01*
X193750574Y-60544737D01*
X193894737Y-60400574D01*
X194008005Y-60231056D01*
X194086026Y-60042698D01*
X194125800Y-59842739D01*
X194125800Y-59638861D01*
X194086026Y-59438902D01*
X194008005Y-59250544D01*
X193894737Y-59081026D01*
X193750574Y-58936863D01*
X193581056Y-58823595D01*
X193392698Y-58745574D01*
X193192739Y-58705800D01*
X192988861Y-58705800D01*
X192788902Y-58745574D01*
X192600544Y-58823595D01*
X192431026Y-58936863D01*
X192286863Y-59081026D01*
X192173595Y-59250544D01*
X192095574Y-59438902D01*
X192055800Y-59638861D01*
X156919834Y-59638861D01*
X156954500Y-59464589D01*
X156954500Y-59280411D01*
X156918568Y-59099771D01*
X156848086Y-58929611D01*
X156745762Y-58776472D01*
X156615528Y-58646238D01*
X156462389Y-58543914D01*
X156292229Y-58473432D01*
X156111589Y-58437500D01*
X155927411Y-58437500D01*
X155746771Y-58473432D01*
X155576611Y-58543914D01*
X155423472Y-58646238D01*
X155293238Y-58776472D01*
X155190914Y-58929611D01*
X155120432Y-59099771D01*
X155084500Y-59280411D01*
X152425530Y-59280411D01*
X152491937Y-59199494D01*
X152550902Y-59089180D01*
X152587212Y-58969482D01*
X152599472Y-58845000D01*
X152599472Y-57995000D01*
X152589584Y-57894600D01*
X175036328Y-57894600D01*
X175036328Y-58894600D01*
X175048588Y-59019082D01*
X175084898Y-59138780D01*
X175143863Y-59249094D01*
X175223215Y-59345785D01*
X175319906Y-59425137D01*
X175430220Y-59484102D01*
X175549918Y-59520412D01*
X175674400Y-59532672D01*
X176674400Y-59532672D01*
X176798882Y-59520412D01*
X176918580Y-59484102D01*
X177001626Y-59439712D01*
X177113333Y-59485983D01*
X177332612Y-59529600D01*
X177556188Y-59529600D01*
X177775467Y-59485983D01*
X177982024Y-59400424D01*
X178084058Y-59332247D01*
X178154194Y-59381723D01*
X178357536Y-59472046D01*
X178412526Y-59488719D01*
X178587400Y-59362554D01*
X178587400Y-58521600D01*
X178841400Y-58521600D01*
X178841400Y-59362554D01*
X179016274Y-59488719D01*
X179071264Y-59472046D01*
X179274606Y-59381723D01*
X179456420Y-59253465D01*
X179609718Y-59092201D01*
X179728610Y-58904129D01*
X179808526Y-58696476D01*
X179683529Y-58521600D01*
X178841400Y-58521600D01*
X178587400Y-58521600D01*
X178576374Y-58521600D01*
X178579400Y-58506388D01*
X178579400Y-58282812D01*
X178576374Y-58267600D01*
X178587400Y-58267600D01*
X178587400Y-57426646D01*
X178841400Y-57426646D01*
X178841400Y-58267600D01*
X179683529Y-58267600D01*
X179808526Y-58092724D01*
X179728610Y-57885071D01*
X179609718Y-57696999D01*
X179456420Y-57535735D01*
X179274606Y-57407477D01*
X179071264Y-57317154D01*
X179016274Y-57300481D01*
X178841400Y-57426646D01*
X178587400Y-57426646D01*
X178412526Y-57300481D01*
X178357536Y-57317154D01*
X178154194Y-57407477D01*
X178084058Y-57456953D01*
X177982024Y-57388776D01*
X177775467Y-57303217D01*
X177556188Y-57259600D01*
X177332612Y-57259600D01*
X177113333Y-57303217D01*
X177001626Y-57349488D01*
X176918580Y-57305098D01*
X176798882Y-57268788D01*
X176674400Y-57256528D01*
X175674400Y-57256528D01*
X175549918Y-57268788D01*
X175430220Y-57305098D01*
X175319906Y-57364063D01*
X175223215Y-57443415D01*
X175143863Y-57540106D01*
X175084898Y-57650420D01*
X175048588Y-57770118D01*
X175036328Y-57894600D01*
X152589584Y-57894600D01*
X152587212Y-57870518D01*
X152550902Y-57750820D01*
X152491937Y-57640506D01*
X152412585Y-57543815D01*
X152315894Y-57464463D01*
X152205580Y-57405498D01*
X152085882Y-57369188D01*
X151961400Y-57356928D01*
X151111400Y-57356928D01*
X150986918Y-57369188D01*
X150867220Y-57405498D01*
X150756906Y-57464463D01*
X150660215Y-57543815D01*
X150580863Y-57640506D01*
X150579135Y-57643739D01*
X150548886Y-57570711D01*
X150501137Y-57499250D01*
X150548886Y-57427789D01*
X150619368Y-57257629D01*
X150655300Y-57076989D01*
X150655300Y-56892811D01*
X150619368Y-56712171D01*
X150548886Y-56542011D01*
X150446562Y-56388872D01*
X150391701Y-56334011D01*
X151680900Y-56334011D01*
X151680900Y-56518189D01*
X151716832Y-56698829D01*
X151787314Y-56868989D01*
X151889638Y-57022128D01*
X152019872Y-57152362D01*
X152173011Y-57254686D01*
X152343171Y-57325168D01*
X152523811Y-57361100D01*
X152707989Y-57361100D01*
X152888629Y-57325168D01*
X153058789Y-57254686D01*
X153211928Y-57152362D01*
X153342162Y-57022128D01*
X153444486Y-56868989D01*
X153514968Y-56698829D01*
X153550900Y-56518189D01*
X153550900Y-56463861D01*
X190608000Y-56463861D01*
X190608000Y-56667739D01*
X190647774Y-56867698D01*
X190725795Y-57056056D01*
X190839063Y-57225574D01*
X190983226Y-57369737D01*
X191152744Y-57483005D01*
X191341102Y-57561026D01*
X191541061Y-57600800D01*
X191744939Y-57600800D01*
X191944898Y-57561026D01*
X192133256Y-57483005D01*
X192302774Y-57369737D01*
X192446937Y-57225574D01*
X192560205Y-57056056D01*
X192638226Y-56867698D01*
X192678000Y-56667739D01*
X192678000Y-56463861D01*
X192638226Y-56263902D01*
X192560205Y-56075544D01*
X192446937Y-55906026D01*
X192302774Y-55761863D01*
X192133256Y-55648595D01*
X191944898Y-55570574D01*
X191744939Y-55530800D01*
X191541061Y-55530800D01*
X191341102Y-55570574D01*
X191152744Y-55648595D01*
X190983226Y-55761863D01*
X190839063Y-55906026D01*
X190725795Y-56075544D01*
X190647774Y-56263902D01*
X190608000Y-56463861D01*
X153550900Y-56463861D01*
X153550900Y-56334011D01*
X153514968Y-56153371D01*
X153444486Y-55983211D01*
X153342162Y-55830072D01*
X153211928Y-55699838D01*
X153058789Y-55597514D01*
X152888629Y-55527032D01*
X152707989Y-55491100D01*
X152523811Y-55491100D01*
X152343171Y-55527032D01*
X152173011Y-55597514D01*
X152019872Y-55699838D01*
X151889638Y-55830072D01*
X151787314Y-55983211D01*
X151716832Y-56153371D01*
X151680900Y-56334011D01*
X150391701Y-56334011D01*
X150316328Y-56258638D01*
X150163189Y-56156314D01*
X149993029Y-56085832D01*
X149812389Y-56049900D01*
X149628211Y-56049900D01*
X149447571Y-56085832D01*
X149277411Y-56156314D01*
X149124272Y-56258638D01*
X148994038Y-56388872D01*
X148891714Y-56542011D01*
X148821232Y-56712171D01*
X148785300Y-56892811D01*
X135980900Y-56892811D01*
X135974765Y-56878000D01*
X136317345Y-56878000D01*
X136657373Y-56810364D01*
X136977673Y-56677692D01*
X137265935Y-56485081D01*
X137511081Y-56239935D01*
X137703692Y-55951673D01*
X137705978Y-55946153D01*
X137754538Y-56018828D01*
X137884772Y-56149062D01*
X138037911Y-56251386D01*
X138208071Y-56321868D01*
X138388711Y-56357800D01*
X138572889Y-56357800D01*
X138753529Y-56321868D01*
X138923689Y-56251386D01*
X139076828Y-56149062D01*
X139207062Y-56018828D01*
X139309386Y-55865689D01*
X139379868Y-55695529D01*
X139415800Y-55514889D01*
X139415800Y-55330711D01*
X139379868Y-55150071D01*
X139309386Y-54979911D01*
X139207062Y-54826772D01*
X139076828Y-54696538D01*
X138923689Y-54594214D01*
X138753529Y-54523732D01*
X138572889Y-54487800D01*
X138388711Y-54487800D01*
X138208071Y-54523732D01*
X138037911Y-54594214D01*
X137884772Y-54696538D01*
X137859644Y-54721666D01*
X137836364Y-54604627D01*
X137703692Y-54284327D01*
X137511081Y-53996065D01*
X137265935Y-53750919D01*
X136977673Y-53558308D01*
X136757235Y-53467000D01*
X137107710Y-53467000D01*
X137198972Y-53558262D01*
M02*
