G04 #@! TF.GenerationSoftware,KiCad,Pcbnew,(5.0.1)-3*
G04 #@! TF.CreationDate,2018-11-25T11:45:11-08:00*
G04 #@! TF.ProjectId,DashSight-Mezzanine-Card,4461736853696768742D4D657A7A616E,rev?*
G04 #@! TF.SameCoordinates,Original*
G04 #@! TF.FileFunction,Legend,Top*
G04 #@! TF.FilePolarity,Positive*
%FSLAX46Y46*%
G04 Gerber Fmt 4.6, Leading zero omitted, Abs format (unit mm)*
G04 Created by KiCad (PCBNEW (5.0.1)-3) date 25/11/2018 11:45:11 AM*
%MOMM*%
%LPD*%
G01*
G04 APERTURE LIST*
%ADD10C,0.120000*%
%ADD11C,0.150000*%
G04 APERTURE END LIST*
D10*
G04 #@! TO.C,J4*
X189778675Y-105000000D02*
X189345662Y-105250000D01*
X189345662Y-104750000D02*
X189778675Y-105000000D01*
X189345662Y-105250000D02*
X189345662Y-104750000D01*
X190240000Y-83975000D02*
X199400000Y-84100000D01*
X190240000Y-114945000D02*
X190240000Y-83975000D01*
X199600000Y-114900000D02*
X190240000Y-114945000D01*
D11*
G04 #@! TO.C,IC1*
X136623607Y-70600000D02*
G75*
G03X136623607Y-70600000I-223607J0D01*
G01*
X136000000Y-61000000D02*
X136000000Y-71000000D01*
X146000000Y-61000000D02*
X136000000Y-61000000D01*
X146000000Y-71000000D02*
X146000000Y-61000000D01*
X136000000Y-71000000D02*
X146000000Y-71000000D01*
D10*
G04 #@! TO.C,IC2*
X170330000Y-83810000D02*
G75*
G02X170330000Y-81810000I0J1000000D01*
G01*
X170330000Y-81810000D02*
X170330000Y-80160000D01*
X170330000Y-80160000D02*
X134650000Y-80160000D01*
X134650000Y-80160000D02*
X134650000Y-85460000D01*
X134650000Y-85460000D02*
X170330000Y-85460000D01*
X170330000Y-85460000D02*
X170330000Y-83810000D01*
G04 #@! TO.C,C2*
X134530000Y-114750000D02*
X134530000Y-115250000D01*
X135470000Y-115250000D02*
X135470000Y-114750000D01*
G04 #@! TO.C,C8*
X185250000Y-65530000D02*
X184750000Y-65530000D01*
X184750000Y-66470000D02*
X185250000Y-66470000D01*
G04 #@! TO.C,C3*
X195600000Y-59650000D02*
X195600000Y-60350000D01*
X194400000Y-60350000D02*
X194400000Y-59650000D01*
G04 #@! TO.C,C4*
X190600000Y-61650000D02*
X190600000Y-62350000D01*
X189400000Y-62350000D02*
X189400000Y-61650000D01*
G04 #@! TO.C,C5*
X128900000Y-63400000D02*
X129600000Y-63400000D01*
X129600000Y-64600000D02*
X128900000Y-64600000D01*
G04 #@! TO.C,C6*
X165400000Y-68350000D02*
X165400000Y-67650000D01*
X166600000Y-67650000D02*
X166600000Y-68350000D01*
G04 #@! TO.C,C7*
X166600000Y-61650000D02*
X166600000Y-62350000D01*
X165400000Y-62350000D02*
X165400000Y-61650000D01*
G04 #@! TO.C,J3*
X129000000Y-51700000D02*
X131000000Y-51700000D01*
X129000000Y-58300000D02*
X131000000Y-58300000D01*
X133300000Y-54000000D02*
X133300000Y-56000000D01*
X126700000Y-54000000D02*
X126700000Y-56000000D01*
G04 #@! TO.C,Y1*
X170475000Y-68685000D02*
X170475000Y-62435000D01*
X175525000Y-68685000D02*
X175525000Y-62435000D01*
X175525000Y-68685000D02*
G75*
G02X170475000Y-68685000I-2525000J0D01*
G01*
X175525000Y-62435000D02*
G75*
G03X170475000Y-62435000I-2525000J0D01*
G01*
G04 #@! TO.C,D2*
X146350000Y-116400000D02*
X149650000Y-116400000D01*
X149650000Y-116400000D02*
X149650000Y-111000000D01*
X146350000Y-116400000D02*
X146350000Y-111000000D01*
G04 #@! TO.C,D3*
X165350000Y-104400000D02*
X168650000Y-104400000D01*
X168650000Y-104400000D02*
X168650000Y-99000000D01*
X165350000Y-104400000D02*
X165350000Y-99000000D01*
G04 #@! TO.C,U1*
X184810000Y-77670000D02*
G75*
G02X182810000Y-77670000I-1000000J0D01*
G01*
X182810000Y-77670000D02*
X181160000Y-77670000D01*
X181160000Y-77670000D02*
X181160000Y-87950000D01*
X181160000Y-87950000D02*
X186460000Y-87950000D01*
X186460000Y-87950000D02*
X186460000Y-77670000D01*
X186460000Y-77670000D02*
X184810000Y-77670000D01*
G04 #@! TO.C,L1*
X138500000Y-53680000D02*
X137500000Y-53680000D01*
X137500000Y-52320000D02*
X138500000Y-52320000D01*
G04 #@! TO.C,J2*
X182970000Y-124330000D02*
X182970000Y-119130000D01*
X142270000Y-124330000D02*
X182970000Y-124330000D01*
X139670000Y-119130000D02*
X182970000Y-119130000D01*
X142270000Y-124330000D02*
X142270000Y-121730000D01*
X142270000Y-121730000D02*
X139670000Y-121730000D01*
X139670000Y-121730000D02*
X139670000Y-119130000D01*
X141000000Y-124330000D02*
X139670000Y-124330000D01*
X139670000Y-124330000D02*
X139670000Y-123000000D01*
G04 #@! TO.C,J1*
X196590000Y-55580000D02*
X196590000Y-50380000D01*
X148270000Y-55580000D02*
X196590000Y-55580000D01*
X145670000Y-50380000D02*
X196590000Y-50380000D01*
X148270000Y-55580000D02*
X148270000Y-52980000D01*
X148270000Y-52980000D02*
X145670000Y-52980000D01*
X145670000Y-52980000D02*
X145670000Y-50380000D01*
X147000000Y-55580000D02*
X145670000Y-55580000D01*
X145670000Y-55580000D02*
X145670000Y-54250000D01*
G04 #@! TO.C,R25*
X151320000Y-96750000D02*
X151320000Y-95750000D01*
X152680000Y-95750000D02*
X152680000Y-96750000D01*
G04 #@! TO.C,R26*
X151320000Y-100500000D02*
X151320000Y-99500000D01*
X152680000Y-99500000D02*
X152680000Y-100500000D01*
G04 #@! TO.C,R27*
X145500000Y-91320000D02*
X146500000Y-91320000D01*
X146500000Y-92680000D02*
X145500000Y-92680000D01*
G04 #@! TO.C,R28*
X139500000Y-89320000D02*
X140500000Y-89320000D01*
X140500000Y-90680000D02*
X139500000Y-90680000D01*
G04 #@! TO.C,R29*
X162680000Y-94250000D02*
X162680000Y-95250000D01*
X161320000Y-95250000D02*
X161320000Y-94250000D01*
G04 #@! TO.C,R30*
X161500000Y-98320000D02*
X162500000Y-98320000D01*
X162500000Y-99680000D02*
X161500000Y-99680000D01*
G04 #@! TO.C,R1*
X143320000Y-57500000D02*
X143320000Y-56500000D01*
X144680000Y-56500000D02*
X144680000Y-57500000D01*
G04 #@! TO.C,R23*
X131250000Y-98680000D02*
X130250000Y-98680000D01*
X130250000Y-97320000D02*
X131250000Y-97320000D01*
G04 #@! TO.C,R21*
X131750000Y-104680000D02*
X130750000Y-104680000D01*
X130750000Y-103320000D02*
X131750000Y-103320000D01*
G04 #@! TO.C,R19*
X134320000Y-110500000D02*
X134320000Y-109500000D01*
X135680000Y-109500000D02*
X135680000Y-110500000D01*
G04 #@! TO.C,R2*
X142500000Y-73320000D02*
X143500000Y-73320000D01*
X143500000Y-74680000D02*
X142500000Y-74680000D01*
G04 #@! TO.C,R18*
X147320000Y-103500000D02*
X147320000Y-102500000D01*
X148680000Y-102500000D02*
X148680000Y-103500000D01*
G04 #@! TO.C,R24*
X151320000Y-92750000D02*
X151320000Y-91750000D01*
X152680000Y-91750000D02*
X152680000Y-92750000D01*
G04 #@! TO.C,R16*
X161680000Y-71500000D02*
X161680000Y-72500000D01*
X160320000Y-72500000D02*
X160320000Y-71500000D01*
G04 #@! TO.C,R15*
X166680000Y-72500000D02*
X166680000Y-73500000D01*
X165320000Y-73500000D02*
X165320000Y-72500000D01*
G04 #@! TO.C,R3*
X174500000Y-83320000D02*
X175500000Y-83320000D01*
X175500000Y-84680000D02*
X174500000Y-84680000D01*
G04 #@! TO.C,R12*
X185500000Y-61680000D02*
X184500000Y-61680000D01*
X184500000Y-60320000D02*
X185500000Y-60320000D01*
G04 #@! TO.C,R11*
X187680000Y-71250000D02*
X187680000Y-72250000D01*
X186320000Y-72250000D02*
X186320000Y-71250000D01*
G04 #@! TO.C,R10*
X186320000Y-102500000D02*
X186320000Y-101500000D01*
X187680000Y-101500000D02*
X187680000Y-102500000D01*
G04 #@! TO.C,R6*
X190680000Y-66500000D02*
X190680000Y-67500000D01*
X189320000Y-67500000D02*
X189320000Y-66500000D01*
G04 #@! TO.C,R5*
X195680000Y-64500000D02*
X195680000Y-65500000D01*
X194320000Y-65500000D02*
X194320000Y-64500000D01*
G04 #@! TO.C,R4*
X157320000Y-60500000D02*
X157320000Y-59500000D01*
X158680000Y-59500000D02*
X158680000Y-60500000D01*
G04 #@! TO.C,R14*
X148680000Y-106500000D02*
X148680000Y-107500000D01*
X147320000Y-107500000D02*
X147320000Y-106500000D01*
G04 #@! TO.C,R8*
X159320000Y-110500000D02*
X159320000Y-109500000D01*
X160680000Y-109500000D02*
X160680000Y-110500000D01*
G04 #@! TO.C,U2*
X168850000Y-111070000D02*
X168850000Y-107470000D01*
X168838478Y-111108478D02*
G75*
G02X164400000Y-109270000I-1838478J1838478D01*
G01*
X168838478Y-107431522D02*
G75*
G03X164400000Y-109270000I-1838478J-1838478D01*
G01*
G04 #@! TO.C,Q6*
X155470000Y-94850000D02*
X159070000Y-94850000D01*
X155431522Y-94838478D02*
G75*
G02X157270000Y-90400000I1838478J1838478D01*
G01*
X159108478Y-94838478D02*
G75*
G03X157270000Y-90400000I-1838478J1838478D01*
G01*
G04 #@! TO.C,Q7*
X155470000Y-102850000D02*
X159070000Y-102850000D01*
X155431522Y-102838478D02*
G75*
G02X157270000Y-98400000I1838478J1838478D01*
G01*
X159108478Y-102838478D02*
G75*
G03X157270000Y-98400000I-1838478J1838478D01*
G01*
G04 #@! TO.C,Q1*
X152470000Y-115850000D02*
X156070000Y-115850000D01*
X152431522Y-115838478D02*
G75*
G02X154270000Y-111400000I1838478J1838478D01*
G01*
X156108478Y-115838478D02*
G75*
G03X154270000Y-111400000I-1838478J1838478D01*
G01*
G04 #@! TO.C,Q2*
X183150000Y-106470000D02*
X183150000Y-110070000D01*
X183161522Y-106431522D02*
G75*
G02X187600000Y-108270000I1838478J-1838478D01*
G01*
X183161522Y-110108478D02*
G75*
G03X187600000Y-108270000I1838478J1838478D01*
G01*
G04 #@! TO.C,Q3*
X142530000Y-107150000D02*
X138930000Y-107150000D01*
X142568478Y-107161522D02*
G75*
G02X140730000Y-111600000I-1838478J-1838478D01*
G01*
X138891522Y-107161522D02*
G75*
G03X140730000Y-111600000I1838478J-1838478D01*
G01*
G04 #@! TO.C,Q4*
X182530000Y-99150000D02*
X178930000Y-99150000D01*
X182568478Y-99161522D02*
G75*
G02X180730000Y-103600000I-1838478J-1838478D01*
G01*
X178891522Y-99161522D02*
G75*
G03X180730000Y-103600000I1838478J-1838478D01*
G01*
G04 #@! TO.C,Q5*
X138470000Y-102850000D02*
X142070000Y-102850000D01*
X138431522Y-102838478D02*
G75*
G02X140270000Y-98400000I1838478J1838478D01*
G01*
X142108478Y-102838478D02*
G75*
G03X140270000Y-98400000I-1838478J1838478D01*
G01*
G04 #@! TO.C,J4*
D11*
X188752380Y-99793333D02*
X189466666Y-99793333D01*
X189609523Y-99840952D01*
X189704761Y-99936190D01*
X189752380Y-100079047D01*
X189752380Y-100174285D01*
X189085714Y-98888571D02*
X189752380Y-98888571D01*
X188704761Y-99126666D02*
X189419047Y-99364761D01*
X189419047Y-98745714D01*
G04 #@! TO.C,IC1*
X135452380Y-66976190D02*
X134452380Y-66976190D01*
X135357142Y-65928571D02*
X135404761Y-65976190D01*
X135452380Y-66119047D01*
X135452380Y-66214285D01*
X135404761Y-66357142D01*
X135309523Y-66452380D01*
X135214285Y-66500000D01*
X135023809Y-66547619D01*
X134880952Y-66547619D01*
X134690476Y-66500000D01*
X134595238Y-66452380D01*
X134500000Y-66357142D01*
X134452380Y-66214285D01*
X134452380Y-66119047D01*
X134500000Y-65976190D01*
X134547619Y-65928571D01*
X135452380Y-64976190D02*
X135452380Y-65547619D01*
X135452380Y-65261904D02*
X134452380Y-65261904D01*
X134595238Y-65357142D01*
X134690476Y-65452380D01*
X134738095Y-65547619D01*
G04 #@! TO.C,IC2*
X171782380Y-83786190D02*
X170782380Y-83786190D01*
X171687142Y-82738571D02*
X171734761Y-82786190D01*
X171782380Y-82929047D01*
X171782380Y-83024285D01*
X171734761Y-83167142D01*
X171639523Y-83262380D01*
X171544285Y-83310000D01*
X171353809Y-83357619D01*
X171210952Y-83357619D01*
X171020476Y-83310000D01*
X170925238Y-83262380D01*
X170830000Y-83167142D01*
X170782380Y-83024285D01*
X170782380Y-82929047D01*
X170830000Y-82786190D01*
X170877619Y-82738571D01*
X170877619Y-82357619D02*
X170830000Y-82310000D01*
X170782380Y-82214761D01*
X170782380Y-81976666D01*
X170830000Y-81881428D01*
X170877619Y-81833809D01*
X170972857Y-81786190D01*
X171068095Y-81786190D01*
X171210952Y-81833809D01*
X171782380Y-82405238D01*
X171782380Y-81786190D01*
G04 #@! TO.C,C2*
X134087142Y-115166666D02*
X134134761Y-115214285D01*
X134182380Y-115357142D01*
X134182380Y-115452380D01*
X134134761Y-115595238D01*
X134039523Y-115690476D01*
X133944285Y-115738095D01*
X133753809Y-115785714D01*
X133610952Y-115785714D01*
X133420476Y-115738095D01*
X133325238Y-115690476D01*
X133230000Y-115595238D01*
X133182380Y-115452380D01*
X133182380Y-115357142D01*
X133230000Y-115214285D01*
X133277619Y-115166666D01*
X133277619Y-114785714D02*
X133230000Y-114738095D01*
X133182380Y-114642857D01*
X133182380Y-114404761D01*
X133230000Y-114309523D01*
X133277619Y-114261904D01*
X133372857Y-114214285D01*
X133468095Y-114214285D01*
X133610952Y-114261904D01*
X134182380Y-114833333D01*
X134182380Y-114214285D01*
G04 #@! TO.C,C8*
X184833333Y-65087142D02*
X184785714Y-65134761D01*
X184642857Y-65182380D01*
X184547619Y-65182380D01*
X184404761Y-65134761D01*
X184309523Y-65039523D01*
X184261904Y-64944285D01*
X184214285Y-64753809D01*
X184214285Y-64610952D01*
X184261904Y-64420476D01*
X184309523Y-64325238D01*
X184404761Y-64230000D01*
X184547619Y-64182380D01*
X184642857Y-64182380D01*
X184785714Y-64230000D01*
X184833333Y-64277619D01*
X185404761Y-64610952D02*
X185309523Y-64563333D01*
X185261904Y-64515714D01*
X185214285Y-64420476D01*
X185214285Y-64372857D01*
X185261904Y-64277619D01*
X185309523Y-64230000D01*
X185404761Y-64182380D01*
X185595238Y-64182380D01*
X185690476Y-64230000D01*
X185738095Y-64277619D01*
X185785714Y-64372857D01*
X185785714Y-64420476D01*
X185738095Y-64515714D01*
X185690476Y-64563333D01*
X185595238Y-64610952D01*
X185404761Y-64610952D01*
X185309523Y-64658571D01*
X185261904Y-64706190D01*
X185214285Y-64801428D01*
X185214285Y-64991904D01*
X185261904Y-65087142D01*
X185309523Y-65134761D01*
X185404761Y-65182380D01*
X185595238Y-65182380D01*
X185690476Y-65134761D01*
X185738095Y-65087142D01*
X185785714Y-64991904D01*
X185785714Y-64801428D01*
X185738095Y-64706190D01*
X185690476Y-64658571D01*
X185595238Y-64610952D01*
G04 #@! TO.C,C3*
X193857142Y-60166666D02*
X193904761Y-60214285D01*
X193952380Y-60357142D01*
X193952380Y-60452380D01*
X193904761Y-60595238D01*
X193809523Y-60690476D01*
X193714285Y-60738095D01*
X193523809Y-60785714D01*
X193380952Y-60785714D01*
X193190476Y-60738095D01*
X193095238Y-60690476D01*
X193000000Y-60595238D01*
X192952380Y-60452380D01*
X192952380Y-60357142D01*
X193000000Y-60214285D01*
X193047619Y-60166666D01*
X192952380Y-59833333D02*
X192952380Y-59214285D01*
X193333333Y-59547619D01*
X193333333Y-59404761D01*
X193380952Y-59309523D01*
X193428571Y-59261904D01*
X193523809Y-59214285D01*
X193761904Y-59214285D01*
X193857142Y-59261904D01*
X193904761Y-59309523D01*
X193952380Y-59404761D01*
X193952380Y-59690476D01*
X193904761Y-59785714D01*
X193857142Y-59833333D01*
G04 #@! TO.C,C4*
X188857142Y-62166666D02*
X188904761Y-62214285D01*
X188952380Y-62357142D01*
X188952380Y-62452380D01*
X188904761Y-62595238D01*
X188809523Y-62690476D01*
X188714285Y-62738095D01*
X188523809Y-62785714D01*
X188380952Y-62785714D01*
X188190476Y-62738095D01*
X188095238Y-62690476D01*
X188000000Y-62595238D01*
X187952380Y-62452380D01*
X187952380Y-62357142D01*
X188000000Y-62214285D01*
X188047619Y-62166666D01*
X188285714Y-61309523D02*
X188952380Y-61309523D01*
X187904761Y-61547619D02*
X188619047Y-61785714D01*
X188619047Y-61166666D01*
G04 #@! TO.C,C5*
X129083333Y-65857142D02*
X129035714Y-65904761D01*
X128892857Y-65952380D01*
X128797619Y-65952380D01*
X128654761Y-65904761D01*
X128559523Y-65809523D01*
X128511904Y-65714285D01*
X128464285Y-65523809D01*
X128464285Y-65380952D01*
X128511904Y-65190476D01*
X128559523Y-65095238D01*
X128654761Y-65000000D01*
X128797619Y-64952380D01*
X128892857Y-64952380D01*
X129035714Y-65000000D01*
X129083333Y-65047619D01*
X129988095Y-64952380D02*
X129511904Y-64952380D01*
X129464285Y-65428571D01*
X129511904Y-65380952D01*
X129607142Y-65333333D01*
X129845238Y-65333333D01*
X129940476Y-65380952D01*
X129988095Y-65428571D01*
X130035714Y-65523809D01*
X130035714Y-65761904D01*
X129988095Y-65857142D01*
X129940476Y-65904761D01*
X129845238Y-65952380D01*
X129607142Y-65952380D01*
X129511904Y-65904761D01*
X129464285Y-65857142D01*
G04 #@! TO.C,C6*
X167857142Y-68166666D02*
X167904761Y-68214285D01*
X167952380Y-68357142D01*
X167952380Y-68452380D01*
X167904761Y-68595238D01*
X167809523Y-68690476D01*
X167714285Y-68738095D01*
X167523809Y-68785714D01*
X167380952Y-68785714D01*
X167190476Y-68738095D01*
X167095238Y-68690476D01*
X167000000Y-68595238D01*
X166952380Y-68452380D01*
X166952380Y-68357142D01*
X167000000Y-68214285D01*
X167047619Y-68166666D01*
X166952380Y-67309523D02*
X166952380Y-67500000D01*
X167000000Y-67595238D01*
X167047619Y-67642857D01*
X167190476Y-67738095D01*
X167380952Y-67785714D01*
X167761904Y-67785714D01*
X167857142Y-67738095D01*
X167904761Y-67690476D01*
X167952380Y-67595238D01*
X167952380Y-67404761D01*
X167904761Y-67309523D01*
X167857142Y-67261904D01*
X167761904Y-67214285D01*
X167523809Y-67214285D01*
X167428571Y-67261904D01*
X167380952Y-67309523D01*
X167333333Y-67404761D01*
X167333333Y-67595238D01*
X167380952Y-67690476D01*
X167428571Y-67738095D01*
X167523809Y-67785714D01*
G04 #@! TO.C,C7*
X164857142Y-62166666D02*
X164904761Y-62214285D01*
X164952380Y-62357142D01*
X164952380Y-62452380D01*
X164904761Y-62595238D01*
X164809523Y-62690476D01*
X164714285Y-62738095D01*
X164523809Y-62785714D01*
X164380952Y-62785714D01*
X164190476Y-62738095D01*
X164095238Y-62690476D01*
X164000000Y-62595238D01*
X163952380Y-62452380D01*
X163952380Y-62357142D01*
X164000000Y-62214285D01*
X164047619Y-62166666D01*
X163952380Y-61833333D02*
X163952380Y-61166666D01*
X164952380Y-61595238D01*
G04 #@! TO.C,J3*
X129666666Y-57452380D02*
X129666666Y-58166666D01*
X129619047Y-58309523D01*
X129523809Y-58404761D01*
X129380952Y-58452380D01*
X129285714Y-58452380D01*
X130047619Y-57452380D02*
X130666666Y-57452380D01*
X130333333Y-57833333D01*
X130476190Y-57833333D01*
X130571428Y-57880952D01*
X130619047Y-57928571D01*
X130666666Y-58023809D01*
X130666666Y-58261904D01*
X130619047Y-58357142D01*
X130571428Y-58404761D01*
X130476190Y-58452380D01*
X130190476Y-58452380D01*
X130095238Y-58404761D01*
X130047619Y-58357142D01*
G04 #@! TO.C,Y1*
X169451190Y-66036190D02*
X169927380Y-66036190D01*
X168927380Y-66369523D02*
X169451190Y-66036190D01*
X168927380Y-65702857D01*
X169927380Y-64845714D02*
X169927380Y-65417142D01*
X169927380Y-65131428D02*
X168927380Y-65131428D01*
X169070238Y-65226666D01*
X169165476Y-65321904D01*
X169213095Y-65417142D01*
G04 #@! TO.C,D2*
X145952380Y-113738095D02*
X144952380Y-113738095D01*
X144952380Y-113500000D01*
X145000000Y-113357142D01*
X145095238Y-113261904D01*
X145190476Y-113214285D01*
X145380952Y-113166666D01*
X145523809Y-113166666D01*
X145714285Y-113214285D01*
X145809523Y-113261904D01*
X145904761Y-113357142D01*
X145952380Y-113500000D01*
X145952380Y-113738095D01*
X145047619Y-112785714D02*
X145000000Y-112738095D01*
X144952380Y-112642857D01*
X144952380Y-112404761D01*
X145000000Y-112309523D01*
X145047619Y-112261904D01*
X145142857Y-112214285D01*
X145238095Y-112214285D01*
X145380952Y-112261904D01*
X145952380Y-112833333D01*
X145952380Y-112214285D01*
G04 #@! TO.C,D3*
X164952380Y-101738095D02*
X163952380Y-101738095D01*
X163952380Y-101500000D01*
X164000000Y-101357142D01*
X164095238Y-101261904D01*
X164190476Y-101214285D01*
X164380952Y-101166666D01*
X164523809Y-101166666D01*
X164714285Y-101214285D01*
X164809523Y-101261904D01*
X164904761Y-101357142D01*
X164952380Y-101500000D01*
X164952380Y-101738095D01*
X163952380Y-100833333D02*
X163952380Y-100214285D01*
X164333333Y-100547619D01*
X164333333Y-100404761D01*
X164380952Y-100309523D01*
X164428571Y-100261904D01*
X164523809Y-100214285D01*
X164761904Y-100214285D01*
X164857142Y-100261904D01*
X164904761Y-100309523D01*
X164952380Y-100404761D01*
X164952380Y-100690476D01*
X164904761Y-100785714D01*
X164857142Y-100833333D01*
G04 #@! TO.C,U1*
X183048095Y-76122380D02*
X183048095Y-76931904D01*
X183095714Y-77027142D01*
X183143333Y-77074761D01*
X183238571Y-77122380D01*
X183429047Y-77122380D01*
X183524285Y-77074761D01*
X183571904Y-77027142D01*
X183619523Y-76931904D01*
X183619523Y-76122380D01*
X184619523Y-77122380D02*
X184048095Y-77122380D01*
X184333809Y-77122380D02*
X184333809Y-76122380D01*
X184238571Y-76265238D01*
X184143333Y-76360476D01*
X184048095Y-76408095D01*
G04 #@! TO.C,L1*
X137833333Y-51552380D02*
X137357142Y-51552380D01*
X137357142Y-50552380D01*
X138690476Y-51552380D02*
X138119047Y-51552380D01*
X138404761Y-51552380D02*
X138404761Y-50552380D01*
X138309523Y-50695238D01*
X138214285Y-50790476D01*
X138119047Y-50838095D01*
G04 #@! TO.C,J2*
X138122380Y-122063333D02*
X138836666Y-122063333D01*
X138979523Y-122110952D01*
X139074761Y-122206190D01*
X139122380Y-122349047D01*
X139122380Y-122444285D01*
X138217619Y-121634761D02*
X138170000Y-121587142D01*
X138122380Y-121491904D01*
X138122380Y-121253809D01*
X138170000Y-121158571D01*
X138217619Y-121110952D01*
X138312857Y-121063333D01*
X138408095Y-121063333D01*
X138550952Y-121110952D01*
X139122380Y-121682380D01*
X139122380Y-121063333D01*
G04 #@! TO.C,J1*
X144122380Y-53313333D02*
X144836666Y-53313333D01*
X144979523Y-53360952D01*
X145074761Y-53456190D01*
X145122380Y-53599047D01*
X145122380Y-53694285D01*
X145122380Y-52313333D02*
X145122380Y-52884761D01*
X145122380Y-52599047D02*
X144122380Y-52599047D01*
X144265238Y-52694285D01*
X144360476Y-52789523D01*
X144408095Y-52884761D01*
G04 #@! TO.C,R25*
X153902380Y-96892857D02*
X153426190Y-97226190D01*
X153902380Y-97464285D02*
X152902380Y-97464285D01*
X152902380Y-97083333D01*
X152950000Y-96988095D01*
X152997619Y-96940476D01*
X153092857Y-96892857D01*
X153235714Y-96892857D01*
X153330952Y-96940476D01*
X153378571Y-96988095D01*
X153426190Y-97083333D01*
X153426190Y-97464285D01*
X152997619Y-96511904D02*
X152950000Y-96464285D01*
X152902380Y-96369047D01*
X152902380Y-96130952D01*
X152950000Y-96035714D01*
X152997619Y-95988095D01*
X153092857Y-95940476D01*
X153188095Y-95940476D01*
X153330952Y-95988095D01*
X153902380Y-96559523D01*
X153902380Y-95940476D01*
X152902380Y-95035714D02*
X152902380Y-95511904D01*
X153378571Y-95559523D01*
X153330952Y-95511904D01*
X153283333Y-95416666D01*
X153283333Y-95178571D01*
X153330952Y-95083333D01*
X153378571Y-95035714D01*
X153473809Y-94988095D01*
X153711904Y-94988095D01*
X153807142Y-95035714D01*
X153854761Y-95083333D01*
X153902380Y-95178571D01*
X153902380Y-95416666D01*
X153854761Y-95511904D01*
X153807142Y-95559523D01*
G04 #@! TO.C,R26*
X153902380Y-100642857D02*
X153426190Y-100976190D01*
X153902380Y-101214285D02*
X152902380Y-101214285D01*
X152902380Y-100833333D01*
X152950000Y-100738095D01*
X152997619Y-100690476D01*
X153092857Y-100642857D01*
X153235714Y-100642857D01*
X153330952Y-100690476D01*
X153378571Y-100738095D01*
X153426190Y-100833333D01*
X153426190Y-101214285D01*
X152997619Y-100261904D02*
X152950000Y-100214285D01*
X152902380Y-100119047D01*
X152902380Y-99880952D01*
X152950000Y-99785714D01*
X152997619Y-99738095D01*
X153092857Y-99690476D01*
X153188095Y-99690476D01*
X153330952Y-99738095D01*
X153902380Y-100309523D01*
X153902380Y-99690476D01*
X152902380Y-98833333D02*
X152902380Y-99023809D01*
X152950000Y-99119047D01*
X152997619Y-99166666D01*
X153140476Y-99261904D01*
X153330952Y-99309523D01*
X153711904Y-99309523D01*
X153807142Y-99261904D01*
X153854761Y-99214285D01*
X153902380Y-99119047D01*
X153902380Y-98928571D01*
X153854761Y-98833333D01*
X153807142Y-98785714D01*
X153711904Y-98738095D01*
X153473809Y-98738095D01*
X153378571Y-98785714D01*
X153330952Y-98833333D01*
X153283333Y-98928571D01*
X153283333Y-99119047D01*
X153330952Y-99214285D01*
X153378571Y-99261904D01*
X153473809Y-99309523D01*
G04 #@! TO.C,R27*
X145357142Y-93902380D02*
X145023809Y-93426190D01*
X144785714Y-93902380D02*
X144785714Y-92902380D01*
X145166666Y-92902380D01*
X145261904Y-92950000D01*
X145309523Y-92997619D01*
X145357142Y-93092857D01*
X145357142Y-93235714D01*
X145309523Y-93330952D01*
X145261904Y-93378571D01*
X145166666Y-93426190D01*
X144785714Y-93426190D01*
X145738095Y-92997619D02*
X145785714Y-92950000D01*
X145880952Y-92902380D01*
X146119047Y-92902380D01*
X146214285Y-92950000D01*
X146261904Y-92997619D01*
X146309523Y-93092857D01*
X146309523Y-93188095D01*
X146261904Y-93330952D01*
X145690476Y-93902380D01*
X146309523Y-93902380D01*
X146642857Y-92902380D02*
X147309523Y-92902380D01*
X146880952Y-93902380D01*
G04 #@! TO.C,R28*
X139357142Y-91902380D02*
X139023809Y-91426190D01*
X138785714Y-91902380D02*
X138785714Y-90902380D01*
X139166666Y-90902380D01*
X139261904Y-90950000D01*
X139309523Y-90997619D01*
X139357142Y-91092857D01*
X139357142Y-91235714D01*
X139309523Y-91330952D01*
X139261904Y-91378571D01*
X139166666Y-91426190D01*
X138785714Y-91426190D01*
X139738095Y-90997619D02*
X139785714Y-90950000D01*
X139880952Y-90902380D01*
X140119047Y-90902380D01*
X140214285Y-90950000D01*
X140261904Y-90997619D01*
X140309523Y-91092857D01*
X140309523Y-91188095D01*
X140261904Y-91330952D01*
X139690476Y-91902380D01*
X140309523Y-91902380D01*
X140880952Y-91330952D02*
X140785714Y-91283333D01*
X140738095Y-91235714D01*
X140690476Y-91140476D01*
X140690476Y-91092857D01*
X140738095Y-90997619D01*
X140785714Y-90950000D01*
X140880952Y-90902380D01*
X141071428Y-90902380D01*
X141166666Y-90950000D01*
X141214285Y-90997619D01*
X141261904Y-91092857D01*
X141261904Y-91140476D01*
X141214285Y-91235714D01*
X141166666Y-91283333D01*
X141071428Y-91330952D01*
X140880952Y-91330952D01*
X140785714Y-91378571D01*
X140738095Y-91426190D01*
X140690476Y-91521428D01*
X140690476Y-91711904D01*
X140738095Y-91807142D01*
X140785714Y-91854761D01*
X140880952Y-91902380D01*
X141071428Y-91902380D01*
X141166666Y-91854761D01*
X141214285Y-91807142D01*
X141261904Y-91711904D01*
X141261904Y-91521428D01*
X141214285Y-91426190D01*
X141166666Y-91378571D01*
X141071428Y-91330952D01*
G04 #@! TO.C,R29*
X161002380Y-95392857D02*
X160526190Y-95726190D01*
X161002380Y-95964285D02*
X160002380Y-95964285D01*
X160002380Y-95583333D01*
X160050000Y-95488095D01*
X160097619Y-95440476D01*
X160192857Y-95392857D01*
X160335714Y-95392857D01*
X160430952Y-95440476D01*
X160478571Y-95488095D01*
X160526190Y-95583333D01*
X160526190Y-95964285D01*
X160097619Y-95011904D02*
X160050000Y-94964285D01*
X160002380Y-94869047D01*
X160002380Y-94630952D01*
X160050000Y-94535714D01*
X160097619Y-94488095D01*
X160192857Y-94440476D01*
X160288095Y-94440476D01*
X160430952Y-94488095D01*
X161002380Y-95059523D01*
X161002380Y-94440476D01*
X161002380Y-93964285D02*
X161002380Y-93773809D01*
X160954761Y-93678571D01*
X160907142Y-93630952D01*
X160764285Y-93535714D01*
X160573809Y-93488095D01*
X160192857Y-93488095D01*
X160097619Y-93535714D01*
X160050000Y-93583333D01*
X160002380Y-93678571D01*
X160002380Y-93869047D01*
X160050000Y-93964285D01*
X160097619Y-94011904D01*
X160192857Y-94059523D01*
X160430952Y-94059523D01*
X160526190Y-94011904D01*
X160573809Y-93964285D01*
X160621428Y-93869047D01*
X160621428Y-93678571D01*
X160573809Y-93583333D01*
X160526190Y-93535714D01*
X160430952Y-93488095D01*
G04 #@! TO.C,R30*
X161357142Y-100902380D02*
X161023809Y-100426190D01*
X160785714Y-100902380D02*
X160785714Y-99902380D01*
X161166666Y-99902380D01*
X161261904Y-99950000D01*
X161309523Y-99997619D01*
X161357142Y-100092857D01*
X161357142Y-100235714D01*
X161309523Y-100330952D01*
X161261904Y-100378571D01*
X161166666Y-100426190D01*
X160785714Y-100426190D01*
X161690476Y-99902380D02*
X162309523Y-99902380D01*
X161976190Y-100283333D01*
X162119047Y-100283333D01*
X162214285Y-100330952D01*
X162261904Y-100378571D01*
X162309523Y-100473809D01*
X162309523Y-100711904D01*
X162261904Y-100807142D01*
X162214285Y-100854761D01*
X162119047Y-100902380D01*
X161833333Y-100902380D01*
X161738095Y-100854761D01*
X161690476Y-100807142D01*
X162928571Y-99902380D02*
X163023809Y-99902380D01*
X163119047Y-99950000D01*
X163166666Y-99997619D01*
X163214285Y-100092857D01*
X163261904Y-100283333D01*
X163261904Y-100521428D01*
X163214285Y-100711904D01*
X163166666Y-100807142D01*
X163119047Y-100854761D01*
X163023809Y-100902380D01*
X162928571Y-100902380D01*
X162833333Y-100854761D01*
X162785714Y-100807142D01*
X162738095Y-100711904D01*
X162690476Y-100521428D01*
X162690476Y-100283333D01*
X162738095Y-100092857D01*
X162785714Y-99997619D01*
X162833333Y-99950000D01*
X162928571Y-99902380D01*
G04 #@! TO.C,R1*
X145902380Y-57166666D02*
X145426190Y-57500000D01*
X145902380Y-57738095D02*
X144902380Y-57738095D01*
X144902380Y-57357142D01*
X144950000Y-57261904D01*
X144997619Y-57214285D01*
X145092857Y-57166666D01*
X145235714Y-57166666D01*
X145330952Y-57214285D01*
X145378571Y-57261904D01*
X145426190Y-57357142D01*
X145426190Y-57738095D01*
X145902380Y-56214285D02*
X145902380Y-56785714D01*
X145902380Y-56500000D02*
X144902380Y-56500000D01*
X145045238Y-56595238D01*
X145140476Y-56690476D01*
X145188095Y-56785714D01*
G04 #@! TO.C,R23*
X130107142Y-97002380D02*
X129773809Y-96526190D01*
X129535714Y-97002380D02*
X129535714Y-96002380D01*
X129916666Y-96002380D01*
X130011904Y-96050000D01*
X130059523Y-96097619D01*
X130107142Y-96192857D01*
X130107142Y-96335714D01*
X130059523Y-96430952D01*
X130011904Y-96478571D01*
X129916666Y-96526190D01*
X129535714Y-96526190D01*
X130488095Y-96097619D02*
X130535714Y-96050000D01*
X130630952Y-96002380D01*
X130869047Y-96002380D01*
X130964285Y-96050000D01*
X131011904Y-96097619D01*
X131059523Y-96192857D01*
X131059523Y-96288095D01*
X131011904Y-96430952D01*
X130440476Y-97002380D01*
X131059523Y-97002380D01*
X131392857Y-96002380D02*
X132011904Y-96002380D01*
X131678571Y-96383333D01*
X131821428Y-96383333D01*
X131916666Y-96430952D01*
X131964285Y-96478571D01*
X132011904Y-96573809D01*
X132011904Y-96811904D01*
X131964285Y-96907142D01*
X131916666Y-96954761D01*
X131821428Y-97002380D01*
X131535714Y-97002380D01*
X131440476Y-96954761D01*
X131392857Y-96907142D01*
G04 #@! TO.C,R21*
X130607142Y-103002380D02*
X130273809Y-102526190D01*
X130035714Y-103002380D02*
X130035714Y-102002380D01*
X130416666Y-102002380D01*
X130511904Y-102050000D01*
X130559523Y-102097619D01*
X130607142Y-102192857D01*
X130607142Y-102335714D01*
X130559523Y-102430952D01*
X130511904Y-102478571D01*
X130416666Y-102526190D01*
X130035714Y-102526190D01*
X130988095Y-102097619D02*
X131035714Y-102050000D01*
X131130952Y-102002380D01*
X131369047Y-102002380D01*
X131464285Y-102050000D01*
X131511904Y-102097619D01*
X131559523Y-102192857D01*
X131559523Y-102288095D01*
X131511904Y-102430952D01*
X130940476Y-103002380D01*
X131559523Y-103002380D01*
X132511904Y-103002380D02*
X131940476Y-103002380D01*
X132226190Y-103002380D02*
X132226190Y-102002380D01*
X132130952Y-102145238D01*
X132035714Y-102240476D01*
X131940476Y-102288095D01*
G04 #@! TO.C,R19*
X136902380Y-110642857D02*
X136426190Y-110976190D01*
X136902380Y-111214285D02*
X135902380Y-111214285D01*
X135902380Y-110833333D01*
X135950000Y-110738095D01*
X135997619Y-110690476D01*
X136092857Y-110642857D01*
X136235714Y-110642857D01*
X136330952Y-110690476D01*
X136378571Y-110738095D01*
X136426190Y-110833333D01*
X136426190Y-111214285D01*
X136902380Y-109690476D02*
X136902380Y-110261904D01*
X136902380Y-109976190D02*
X135902380Y-109976190D01*
X136045238Y-110071428D01*
X136140476Y-110166666D01*
X136188095Y-110261904D01*
X136902380Y-109214285D02*
X136902380Y-109023809D01*
X136854761Y-108928571D01*
X136807142Y-108880952D01*
X136664285Y-108785714D01*
X136473809Y-108738095D01*
X136092857Y-108738095D01*
X135997619Y-108785714D01*
X135950000Y-108833333D01*
X135902380Y-108928571D01*
X135902380Y-109119047D01*
X135950000Y-109214285D01*
X135997619Y-109261904D01*
X136092857Y-109309523D01*
X136330952Y-109309523D01*
X136426190Y-109261904D01*
X136473809Y-109214285D01*
X136521428Y-109119047D01*
X136521428Y-108928571D01*
X136473809Y-108833333D01*
X136426190Y-108785714D01*
X136330952Y-108738095D01*
G04 #@! TO.C,R2*
X142833333Y-75902380D02*
X142500000Y-75426190D01*
X142261904Y-75902380D02*
X142261904Y-74902380D01*
X142642857Y-74902380D01*
X142738095Y-74950000D01*
X142785714Y-74997619D01*
X142833333Y-75092857D01*
X142833333Y-75235714D01*
X142785714Y-75330952D01*
X142738095Y-75378571D01*
X142642857Y-75426190D01*
X142261904Y-75426190D01*
X143214285Y-74997619D02*
X143261904Y-74950000D01*
X143357142Y-74902380D01*
X143595238Y-74902380D01*
X143690476Y-74950000D01*
X143738095Y-74997619D01*
X143785714Y-75092857D01*
X143785714Y-75188095D01*
X143738095Y-75330952D01*
X143166666Y-75902380D01*
X143785714Y-75902380D01*
G04 #@! TO.C,R18*
X149902380Y-103642857D02*
X149426190Y-103976190D01*
X149902380Y-104214285D02*
X148902380Y-104214285D01*
X148902380Y-103833333D01*
X148950000Y-103738095D01*
X148997619Y-103690476D01*
X149092857Y-103642857D01*
X149235714Y-103642857D01*
X149330952Y-103690476D01*
X149378571Y-103738095D01*
X149426190Y-103833333D01*
X149426190Y-104214285D01*
X149902380Y-102690476D02*
X149902380Y-103261904D01*
X149902380Y-102976190D02*
X148902380Y-102976190D01*
X149045238Y-103071428D01*
X149140476Y-103166666D01*
X149188095Y-103261904D01*
X149330952Y-102119047D02*
X149283333Y-102214285D01*
X149235714Y-102261904D01*
X149140476Y-102309523D01*
X149092857Y-102309523D01*
X148997619Y-102261904D01*
X148950000Y-102214285D01*
X148902380Y-102119047D01*
X148902380Y-101928571D01*
X148950000Y-101833333D01*
X148997619Y-101785714D01*
X149092857Y-101738095D01*
X149140476Y-101738095D01*
X149235714Y-101785714D01*
X149283333Y-101833333D01*
X149330952Y-101928571D01*
X149330952Y-102119047D01*
X149378571Y-102214285D01*
X149426190Y-102261904D01*
X149521428Y-102309523D01*
X149711904Y-102309523D01*
X149807142Y-102261904D01*
X149854761Y-102214285D01*
X149902380Y-102119047D01*
X149902380Y-101928571D01*
X149854761Y-101833333D01*
X149807142Y-101785714D01*
X149711904Y-101738095D01*
X149521428Y-101738095D01*
X149426190Y-101785714D01*
X149378571Y-101833333D01*
X149330952Y-101928571D01*
G04 #@! TO.C,R24*
X153902380Y-92892857D02*
X153426190Y-93226190D01*
X153902380Y-93464285D02*
X152902380Y-93464285D01*
X152902380Y-93083333D01*
X152950000Y-92988095D01*
X152997619Y-92940476D01*
X153092857Y-92892857D01*
X153235714Y-92892857D01*
X153330952Y-92940476D01*
X153378571Y-92988095D01*
X153426190Y-93083333D01*
X153426190Y-93464285D01*
X152997619Y-92511904D02*
X152950000Y-92464285D01*
X152902380Y-92369047D01*
X152902380Y-92130952D01*
X152950000Y-92035714D01*
X152997619Y-91988095D01*
X153092857Y-91940476D01*
X153188095Y-91940476D01*
X153330952Y-91988095D01*
X153902380Y-92559523D01*
X153902380Y-91940476D01*
X153235714Y-91083333D02*
X153902380Y-91083333D01*
X152854761Y-91321428D02*
X153569047Y-91559523D01*
X153569047Y-90940476D01*
G04 #@! TO.C,R16*
X160002380Y-72642857D02*
X159526190Y-72976190D01*
X160002380Y-73214285D02*
X159002380Y-73214285D01*
X159002380Y-72833333D01*
X159050000Y-72738095D01*
X159097619Y-72690476D01*
X159192857Y-72642857D01*
X159335714Y-72642857D01*
X159430952Y-72690476D01*
X159478571Y-72738095D01*
X159526190Y-72833333D01*
X159526190Y-73214285D01*
X160002380Y-71690476D02*
X160002380Y-72261904D01*
X160002380Y-71976190D02*
X159002380Y-71976190D01*
X159145238Y-72071428D01*
X159240476Y-72166666D01*
X159288095Y-72261904D01*
X159002380Y-70833333D02*
X159002380Y-71023809D01*
X159050000Y-71119047D01*
X159097619Y-71166666D01*
X159240476Y-71261904D01*
X159430952Y-71309523D01*
X159811904Y-71309523D01*
X159907142Y-71261904D01*
X159954761Y-71214285D01*
X160002380Y-71119047D01*
X160002380Y-70928571D01*
X159954761Y-70833333D01*
X159907142Y-70785714D01*
X159811904Y-70738095D01*
X159573809Y-70738095D01*
X159478571Y-70785714D01*
X159430952Y-70833333D01*
X159383333Y-70928571D01*
X159383333Y-71119047D01*
X159430952Y-71214285D01*
X159478571Y-71261904D01*
X159573809Y-71309523D01*
G04 #@! TO.C,R15*
X165002380Y-73642857D02*
X164526190Y-73976190D01*
X165002380Y-74214285D02*
X164002380Y-74214285D01*
X164002380Y-73833333D01*
X164050000Y-73738095D01*
X164097619Y-73690476D01*
X164192857Y-73642857D01*
X164335714Y-73642857D01*
X164430952Y-73690476D01*
X164478571Y-73738095D01*
X164526190Y-73833333D01*
X164526190Y-74214285D01*
X165002380Y-72690476D02*
X165002380Y-73261904D01*
X165002380Y-72976190D02*
X164002380Y-72976190D01*
X164145238Y-73071428D01*
X164240476Y-73166666D01*
X164288095Y-73261904D01*
X164002380Y-71785714D02*
X164002380Y-72261904D01*
X164478571Y-72309523D01*
X164430952Y-72261904D01*
X164383333Y-72166666D01*
X164383333Y-71928571D01*
X164430952Y-71833333D01*
X164478571Y-71785714D01*
X164573809Y-71738095D01*
X164811904Y-71738095D01*
X164907142Y-71785714D01*
X164954761Y-71833333D01*
X165002380Y-71928571D01*
X165002380Y-72166666D01*
X164954761Y-72261904D01*
X164907142Y-72309523D01*
G04 #@! TO.C,R3*
X174833333Y-85902380D02*
X174500000Y-85426190D01*
X174261904Y-85902380D02*
X174261904Y-84902380D01*
X174642857Y-84902380D01*
X174738095Y-84950000D01*
X174785714Y-84997619D01*
X174833333Y-85092857D01*
X174833333Y-85235714D01*
X174785714Y-85330952D01*
X174738095Y-85378571D01*
X174642857Y-85426190D01*
X174261904Y-85426190D01*
X175166666Y-84902380D02*
X175785714Y-84902380D01*
X175452380Y-85283333D01*
X175595238Y-85283333D01*
X175690476Y-85330952D01*
X175738095Y-85378571D01*
X175785714Y-85473809D01*
X175785714Y-85711904D01*
X175738095Y-85807142D01*
X175690476Y-85854761D01*
X175595238Y-85902380D01*
X175309523Y-85902380D01*
X175214285Y-85854761D01*
X175166666Y-85807142D01*
G04 #@! TO.C,R12*
X184357142Y-60002380D02*
X184023809Y-59526190D01*
X183785714Y-60002380D02*
X183785714Y-59002380D01*
X184166666Y-59002380D01*
X184261904Y-59050000D01*
X184309523Y-59097619D01*
X184357142Y-59192857D01*
X184357142Y-59335714D01*
X184309523Y-59430952D01*
X184261904Y-59478571D01*
X184166666Y-59526190D01*
X183785714Y-59526190D01*
X185309523Y-60002380D02*
X184738095Y-60002380D01*
X185023809Y-60002380D02*
X185023809Y-59002380D01*
X184928571Y-59145238D01*
X184833333Y-59240476D01*
X184738095Y-59288095D01*
X185690476Y-59097619D02*
X185738095Y-59050000D01*
X185833333Y-59002380D01*
X186071428Y-59002380D01*
X186166666Y-59050000D01*
X186214285Y-59097619D01*
X186261904Y-59192857D01*
X186261904Y-59288095D01*
X186214285Y-59430952D01*
X185642857Y-60002380D01*
X186261904Y-60002380D01*
G04 #@! TO.C,R11*
X186002380Y-72392857D02*
X185526190Y-72726190D01*
X186002380Y-72964285D02*
X185002380Y-72964285D01*
X185002380Y-72583333D01*
X185050000Y-72488095D01*
X185097619Y-72440476D01*
X185192857Y-72392857D01*
X185335714Y-72392857D01*
X185430952Y-72440476D01*
X185478571Y-72488095D01*
X185526190Y-72583333D01*
X185526190Y-72964285D01*
X186002380Y-71440476D02*
X186002380Y-72011904D01*
X186002380Y-71726190D02*
X185002380Y-71726190D01*
X185145238Y-71821428D01*
X185240476Y-71916666D01*
X185288095Y-72011904D01*
X186002380Y-70488095D02*
X186002380Y-71059523D01*
X186002380Y-70773809D02*
X185002380Y-70773809D01*
X185145238Y-70869047D01*
X185240476Y-70964285D01*
X185288095Y-71059523D01*
G04 #@! TO.C,R10*
X188902380Y-102642857D02*
X188426190Y-102976190D01*
X188902380Y-103214285D02*
X187902380Y-103214285D01*
X187902380Y-102833333D01*
X187950000Y-102738095D01*
X187997619Y-102690476D01*
X188092857Y-102642857D01*
X188235714Y-102642857D01*
X188330952Y-102690476D01*
X188378571Y-102738095D01*
X188426190Y-102833333D01*
X188426190Y-103214285D01*
X188902380Y-101690476D02*
X188902380Y-102261904D01*
X188902380Y-101976190D02*
X187902380Y-101976190D01*
X188045238Y-102071428D01*
X188140476Y-102166666D01*
X188188095Y-102261904D01*
X187902380Y-101071428D02*
X187902380Y-100976190D01*
X187950000Y-100880952D01*
X187997619Y-100833333D01*
X188092857Y-100785714D01*
X188283333Y-100738095D01*
X188521428Y-100738095D01*
X188711904Y-100785714D01*
X188807142Y-100833333D01*
X188854761Y-100880952D01*
X188902380Y-100976190D01*
X188902380Y-101071428D01*
X188854761Y-101166666D01*
X188807142Y-101214285D01*
X188711904Y-101261904D01*
X188521428Y-101309523D01*
X188283333Y-101309523D01*
X188092857Y-101261904D01*
X187997619Y-101214285D01*
X187950000Y-101166666D01*
X187902380Y-101071428D01*
G04 #@! TO.C,R6*
X189002380Y-67166666D02*
X188526190Y-67500000D01*
X189002380Y-67738095D02*
X188002380Y-67738095D01*
X188002380Y-67357142D01*
X188050000Y-67261904D01*
X188097619Y-67214285D01*
X188192857Y-67166666D01*
X188335714Y-67166666D01*
X188430952Y-67214285D01*
X188478571Y-67261904D01*
X188526190Y-67357142D01*
X188526190Y-67738095D01*
X188002380Y-66309523D02*
X188002380Y-66500000D01*
X188050000Y-66595238D01*
X188097619Y-66642857D01*
X188240476Y-66738095D01*
X188430952Y-66785714D01*
X188811904Y-66785714D01*
X188907142Y-66738095D01*
X188954761Y-66690476D01*
X189002380Y-66595238D01*
X189002380Y-66404761D01*
X188954761Y-66309523D01*
X188907142Y-66261904D01*
X188811904Y-66214285D01*
X188573809Y-66214285D01*
X188478571Y-66261904D01*
X188430952Y-66309523D01*
X188383333Y-66404761D01*
X188383333Y-66595238D01*
X188430952Y-66690476D01*
X188478571Y-66738095D01*
X188573809Y-66785714D01*
G04 #@! TO.C,R5*
X194002380Y-65166666D02*
X193526190Y-65500000D01*
X194002380Y-65738095D02*
X193002380Y-65738095D01*
X193002380Y-65357142D01*
X193050000Y-65261904D01*
X193097619Y-65214285D01*
X193192857Y-65166666D01*
X193335714Y-65166666D01*
X193430952Y-65214285D01*
X193478571Y-65261904D01*
X193526190Y-65357142D01*
X193526190Y-65738095D01*
X193002380Y-64261904D02*
X193002380Y-64738095D01*
X193478571Y-64785714D01*
X193430952Y-64738095D01*
X193383333Y-64642857D01*
X193383333Y-64404761D01*
X193430952Y-64309523D01*
X193478571Y-64261904D01*
X193573809Y-64214285D01*
X193811904Y-64214285D01*
X193907142Y-64261904D01*
X193954761Y-64309523D01*
X194002380Y-64404761D01*
X194002380Y-64642857D01*
X193954761Y-64738095D01*
X193907142Y-64785714D01*
G04 #@! TO.C,R4*
X159902380Y-60166666D02*
X159426190Y-60500000D01*
X159902380Y-60738095D02*
X158902380Y-60738095D01*
X158902380Y-60357142D01*
X158950000Y-60261904D01*
X158997619Y-60214285D01*
X159092857Y-60166666D01*
X159235714Y-60166666D01*
X159330952Y-60214285D01*
X159378571Y-60261904D01*
X159426190Y-60357142D01*
X159426190Y-60738095D01*
X159235714Y-59309523D02*
X159902380Y-59309523D01*
X158854761Y-59547619D02*
X159569047Y-59785714D01*
X159569047Y-59166666D01*
G04 #@! TO.C,R14*
X147002380Y-107642857D02*
X146526190Y-107976190D01*
X147002380Y-108214285D02*
X146002380Y-108214285D01*
X146002380Y-107833333D01*
X146050000Y-107738095D01*
X146097619Y-107690476D01*
X146192857Y-107642857D01*
X146335714Y-107642857D01*
X146430952Y-107690476D01*
X146478571Y-107738095D01*
X146526190Y-107833333D01*
X146526190Y-108214285D01*
X147002380Y-106690476D02*
X147002380Y-107261904D01*
X147002380Y-106976190D02*
X146002380Y-106976190D01*
X146145238Y-107071428D01*
X146240476Y-107166666D01*
X146288095Y-107261904D01*
X146335714Y-105833333D02*
X147002380Y-105833333D01*
X145954761Y-106071428D02*
X146669047Y-106309523D01*
X146669047Y-105690476D01*
G04 #@! TO.C,R8*
X161902380Y-110166666D02*
X161426190Y-110500000D01*
X161902380Y-110738095D02*
X160902380Y-110738095D01*
X160902380Y-110357142D01*
X160950000Y-110261904D01*
X160997619Y-110214285D01*
X161092857Y-110166666D01*
X161235714Y-110166666D01*
X161330952Y-110214285D01*
X161378571Y-110261904D01*
X161426190Y-110357142D01*
X161426190Y-110738095D01*
X161330952Y-109595238D02*
X161283333Y-109690476D01*
X161235714Y-109738095D01*
X161140476Y-109785714D01*
X161092857Y-109785714D01*
X160997619Y-109738095D01*
X160950000Y-109690476D01*
X160902380Y-109595238D01*
X160902380Y-109404761D01*
X160950000Y-109309523D01*
X160997619Y-109261904D01*
X161092857Y-109214285D01*
X161140476Y-109214285D01*
X161235714Y-109261904D01*
X161283333Y-109309523D01*
X161330952Y-109404761D01*
X161330952Y-109595238D01*
X161378571Y-109690476D01*
X161426190Y-109738095D01*
X161521428Y-109785714D01*
X161711904Y-109785714D01*
X161807142Y-109738095D01*
X161854761Y-109690476D01*
X161902380Y-109595238D01*
X161902380Y-109404761D01*
X161854761Y-109309523D01*
X161807142Y-109261904D01*
X161711904Y-109214285D01*
X161521428Y-109214285D01*
X161426190Y-109261904D01*
X161378571Y-109309523D01*
X161330952Y-109404761D01*
G04 #@! TO.C,U2*
X162892380Y-110031904D02*
X163701904Y-110031904D01*
X163797142Y-109984285D01*
X163844761Y-109936666D01*
X163892380Y-109841428D01*
X163892380Y-109650952D01*
X163844761Y-109555714D01*
X163797142Y-109508095D01*
X163701904Y-109460476D01*
X162892380Y-109460476D01*
X162987619Y-109031904D02*
X162940000Y-108984285D01*
X162892380Y-108889047D01*
X162892380Y-108650952D01*
X162940000Y-108555714D01*
X162987619Y-108508095D01*
X163082857Y-108460476D01*
X163178095Y-108460476D01*
X163320952Y-108508095D01*
X163892380Y-109079523D01*
X163892380Y-108460476D01*
G04 #@! TO.C,Q6*
X157174761Y-89987619D02*
X157079523Y-89940000D01*
X156984285Y-89844761D01*
X156841428Y-89701904D01*
X156746190Y-89654285D01*
X156650952Y-89654285D01*
X156698571Y-89892380D02*
X156603333Y-89844761D01*
X156508095Y-89749523D01*
X156460476Y-89559047D01*
X156460476Y-89225714D01*
X156508095Y-89035238D01*
X156603333Y-88940000D01*
X156698571Y-88892380D01*
X156889047Y-88892380D01*
X156984285Y-88940000D01*
X157079523Y-89035238D01*
X157127142Y-89225714D01*
X157127142Y-89559047D01*
X157079523Y-89749523D01*
X156984285Y-89844761D01*
X156889047Y-89892380D01*
X156698571Y-89892380D01*
X157984285Y-88892380D02*
X157793809Y-88892380D01*
X157698571Y-88940000D01*
X157650952Y-88987619D01*
X157555714Y-89130476D01*
X157508095Y-89320952D01*
X157508095Y-89701904D01*
X157555714Y-89797142D01*
X157603333Y-89844761D01*
X157698571Y-89892380D01*
X157889047Y-89892380D01*
X157984285Y-89844761D01*
X158031904Y-89797142D01*
X158079523Y-89701904D01*
X158079523Y-89463809D01*
X158031904Y-89368571D01*
X157984285Y-89320952D01*
X157889047Y-89273333D01*
X157698571Y-89273333D01*
X157603333Y-89320952D01*
X157555714Y-89368571D01*
X157508095Y-89463809D01*
G04 #@! TO.C,Q7*
X157174761Y-97987619D02*
X157079523Y-97940000D01*
X156984285Y-97844761D01*
X156841428Y-97701904D01*
X156746190Y-97654285D01*
X156650952Y-97654285D01*
X156698571Y-97892380D02*
X156603333Y-97844761D01*
X156508095Y-97749523D01*
X156460476Y-97559047D01*
X156460476Y-97225714D01*
X156508095Y-97035238D01*
X156603333Y-96940000D01*
X156698571Y-96892380D01*
X156889047Y-96892380D01*
X156984285Y-96940000D01*
X157079523Y-97035238D01*
X157127142Y-97225714D01*
X157127142Y-97559047D01*
X157079523Y-97749523D01*
X156984285Y-97844761D01*
X156889047Y-97892380D01*
X156698571Y-97892380D01*
X157460476Y-96892380D02*
X158127142Y-96892380D01*
X157698571Y-97892380D01*
G04 #@! TO.C,Q1*
X154174761Y-110987619D02*
X154079523Y-110940000D01*
X153984285Y-110844761D01*
X153841428Y-110701904D01*
X153746190Y-110654285D01*
X153650952Y-110654285D01*
X153698571Y-110892380D02*
X153603333Y-110844761D01*
X153508095Y-110749523D01*
X153460476Y-110559047D01*
X153460476Y-110225714D01*
X153508095Y-110035238D01*
X153603333Y-109940000D01*
X153698571Y-109892380D01*
X153889047Y-109892380D01*
X153984285Y-109940000D01*
X154079523Y-110035238D01*
X154127142Y-110225714D01*
X154127142Y-110559047D01*
X154079523Y-110749523D01*
X153984285Y-110844761D01*
X153889047Y-110892380D01*
X153698571Y-110892380D01*
X155079523Y-110892380D02*
X154508095Y-110892380D01*
X154793809Y-110892380D02*
X154793809Y-109892380D01*
X154698571Y-110035238D01*
X154603333Y-110130476D01*
X154508095Y-110178095D01*
G04 #@! TO.C,Q2*
X189107619Y-108365238D02*
X189060000Y-108460476D01*
X188964761Y-108555714D01*
X188821904Y-108698571D01*
X188774285Y-108793809D01*
X188774285Y-108889047D01*
X189012380Y-108841428D02*
X188964761Y-108936666D01*
X188869523Y-109031904D01*
X188679047Y-109079523D01*
X188345714Y-109079523D01*
X188155238Y-109031904D01*
X188060000Y-108936666D01*
X188012380Y-108841428D01*
X188012380Y-108650952D01*
X188060000Y-108555714D01*
X188155238Y-108460476D01*
X188345714Y-108412857D01*
X188679047Y-108412857D01*
X188869523Y-108460476D01*
X188964761Y-108555714D01*
X189012380Y-108650952D01*
X189012380Y-108841428D01*
X188107619Y-108031904D02*
X188060000Y-107984285D01*
X188012380Y-107889047D01*
X188012380Y-107650952D01*
X188060000Y-107555714D01*
X188107619Y-107508095D01*
X188202857Y-107460476D01*
X188298095Y-107460476D01*
X188440952Y-107508095D01*
X189012380Y-108079523D01*
X189012380Y-107460476D01*
G04 #@! TO.C,Q3*
X140634761Y-113107619D02*
X140539523Y-113060000D01*
X140444285Y-112964761D01*
X140301428Y-112821904D01*
X140206190Y-112774285D01*
X140110952Y-112774285D01*
X140158571Y-113012380D02*
X140063333Y-112964761D01*
X139968095Y-112869523D01*
X139920476Y-112679047D01*
X139920476Y-112345714D01*
X139968095Y-112155238D01*
X140063333Y-112060000D01*
X140158571Y-112012380D01*
X140349047Y-112012380D01*
X140444285Y-112060000D01*
X140539523Y-112155238D01*
X140587142Y-112345714D01*
X140587142Y-112679047D01*
X140539523Y-112869523D01*
X140444285Y-112964761D01*
X140349047Y-113012380D01*
X140158571Y-113012380D01*
X140920476Y-112012380D02*
X141539523Y-112012380D01*
X141206190Y-112393333D01*
X141349047Y-112393333D01*
X141444285Y-112440952D01*
X141491904Y-112488571D01*
X141539523Y-112583809D01*
X141539523Y-112821904D01*
X141491904Y-112917142D01*
X141444285Y-112964761D01*
X141349047Y-113012380D01*
X141063333Y-113012380D01*
X140968095Y-112964761D01*
X140920476Y-112917142D01*
G04 #@! TO.C,Q4*
X180634761Y-105107619D02*
X180539523Y-105060000D01*
X180444285Y-104964761D01*
X180301428Y-104821904D01*
X180206190Y-104774285D01*
X180110952Y-104774285D01*
X180158571Y-105012380D02*
X180063333Y-104964761D01*
X179968095Y-104869523D01*
X179920476Y-104679047D01*
X179920476Y-104345714D01*
X179968095Y-104155238D01*
X180063333Y-104060000D01*
X180158571Y-104012380D01*
X180349047Y-104012380D01*
X180444285Y-104060000D01*
X180539523Y-104155238D01*
X180587142Y-104345714D01*
X180587142Y-104679047D01*
X180539523Y-104869523D01*
X180444285Y-104964761D01*
X180349047Y-105012380D01*
X180158571Y-105012380D01*
X181444285Y-104345714D02*
X181444285Y-105012380D01*
X181206190Y-103964761D02*
X180968095Y-104679047D01*
X181587142Y-104679047D01*
G04 #@! TO.C,Q5*
X140174761Y-97987619D02*
X140079523Y-97940000D01*
X139984285Y-97844761D01*
X139841428Y-97701904D01*
X139746190Y-97654285D01*
X139650952Y-97654285D01*
X139698571Y-97892380D02*
X139603333Y-97844761D01*
X139508095Y-97749523D01*
X139460476Y-97559047D01*
X139460476Y-97225714D01*
X139508095Y-97035238D01*
X139603333Y-96940000D01*
X139698571Y-96892380D01*
X139889047Y-96892380D01*
X139984285Y-96940000D01*
X140079523Y-97035238D01*
X140127142Y-97225714D01*
X140127142Y-97559047D01*
X140079523Y-97749523D01*
X139984285Y-97844761D01*
X139889047Y-97892380D01*
X139698571Y-97892380D01*
X141031904Y-96892380D02*
X140555714Y-96892380D01*
X140508095Y-97368571D01*
X140555714Y-97320952D01*
X140650952Y-97273333D01*
X140889047Y-97273333D01*
X140984285Y-97320952D01*
X141031904Y-97368571D01*
X141079523Y-97463809D01*
X141079523Y-97701904D01*
X141031904Y-97797142D01*
X140984285Y-97844761D01*
X140889047Y-97892380D01*
X140650952Y-97892380D01*
X140555714Y-97844761D01*
X140508095Y-97797142D01*
G04 #@! TD*
M02*
