M48
; DRILL file {KiCad (5.1.2)-1} date 25/07/2019 9:08:07 PM
; FORMAT={-:-/ absolute / metric / decimal}
; #@! TF.CreationDate,2019-07-25T21:08:07-07:00
; #@! TF.GenerationSoftware,Kicad,Pcbnew,(5.1.2)-1
; #@! TF.FileFunction,Plated,1,2,PTH
FMAT,2
METRIC
T1C0.400
T2C0.600
T3C0.800
T4C1.000
T5C1.200
T6C1.500
T7C1.700
T8C3.200
%
G90
G05
T1
X130.429Y-67.183
X131.255Y-78.232
X133.35Y-116.332
X133.35Y-119.38
X135.89Y-60.452
X135.89Y-62.992
X135.89Y-65.532
X136.906Y-111.76
X138.43Y-60.452
X138.43Y-65.532
X140.97Y-60.452
X140.97Y-62.992
X140.97Y-65.532
X149.0Y-90.0
X158.75Y-55.88
X158.75Y-59.69
X163.83Y-55.88
X163.83Y-59.69
X170.688Y-98.742
X173.228Y-75.946
X173.799Y-110.045
X174.0Y-79.0
T2
X139.46Y-109.0
X140.73Y-110.27
X142.0Y-109.0
X156.0Y-101.0
X157.27Y-99.73
X158.54Y-101.0
X185.0Y-107.0
X185.0Y-109.54
X186.27Y-108.27
X167.0Y-108.0
X167.0Y-109.27
X167.0Y-110.54
X139.0Y-101.0
X140.27Y-99.73
X141.54Y-101.0
X156.0Y-93.0
X157.27Y-91.73
X158.54Y-93.0
X179.46Y-101.0
X180.73Y-102.27
X182.0Y-101.0
X153.0Y-114.0
X154.27Y-112.73
X155.54Y-114.0
T3
X135.98Y-79.0
X135.98Y-86.62
X138.52Y-79.0
X138.52Y-86.62
X141.06Y-79.0
X141.06Y-86.62
X143.6Y-79.0
X143.6Y-86.62
X146.14Y-79.0
X146.14Y-86.62
X148.68Y-79.0
X148.68Y-86.62
X151.22Y-79.0
X151.22Y-86.62
X153.76Y-79.0
X153.76Y-86.62
X156.3Y-79.0
X156.3Y-86.62
X158.84Y-79.0
X158.84Y-86.62
X161.38Y-79.0
X161.38Y-86.62
X163.92Y-79.0
X163.92Y-86.62
X166.46Y-79.0
X166.46Y-86.62
X169.0Y-79.0
X169.0Y-86.62
X173.0Y-63.12
X173.0Y-68.0
X180.0Y-79.0
X180.0Y-81.54
X180.0Y-84.08
X180.0Y-86.62
X187.62Y-79.0
X187.62Y-81.54
X187.62Y-84.08
X187.62Y-86.62
T4
X180.848Y-91.694
X183.388Y-91.694
X146.939Y-48.276
X146.939Y-50.816
X149.479Y-48.276
X149.479Y-50.816
X152.019Y-48.276
X152.019Y-50.816
X154.559Y-48.276
X154.559Y-50.816
X157.099Y-48.276
X157.099Y-50.816
X159.639Y-48.276
X159.639Y-50.816
X162.179Y-48.276
X162.179Y-50.816
X164.719Y-48.276
X164.719Y-50.816
X167.259Y-48.276
X167.259Y-50.816
X169.799Y-48.276
X169.799Y-50.816
X172.339Y-48.276
X172.339Y-50.816
X174.879Y-48.276
X174.879Y-50.816
X177.419Y-48.276
X177.419Y-50.816
X179.959Y-48.276
X179.959Y-50.816
X182.499Y-48.276
X182.499Y-50.816
X185.039Y-48.276
X185.039Y-50.816
X187.579Y-48.276
X187.579Y-50.816
X190.119Y-48.276
X190.119Y-50.816
X192.659Y-48.276
X192.659Y-50.816
X195.199Y-48.276
X195.199Y-50.816
X169.1Y-115.125
X171.641Y-115.125
X141.0Y-120.46
X141.0Y-123.0
X143.54Y-120.46
X143.54Y-123.0
X146.08Y-120.46
X146.08Y-123.0
X148.62Y-120.46
X148.62Y-123.0
X151.16Y-120.46
X151.16Y-123.0
X153.7Y-120.46
X153.7Y-123.0
X156.24Y-120.46
X156.24Y-123.0
X158.78Y-120.46
X158.78Y-123.0
X161.32Y-120.46
X161.32Y-123.0
X163.86Y-120.46
X163.86Y-123.0
X166.4Y-120.46
X166.4Y-123.0
X168.94Y-120.46
X168.94Y-123.0
X171.48Y-120.46
X171.48Y-123.0
X174.02Y-120.46
X174.02Y-123.0
X176.56Y-120.46
X176.56Y-123.0
X179.1Y-120.46
X179.1Y-123.0
X181.64Y-120.46
X181.64Y-123.0
X193.0Y-93.92
X193.0Y-96.69
X193.0Y-99.46
X193.0Y-102.23
X193.0Y-105.0
X195.84Y-95.305
X195.84Y-98.075
X195.84Y-100.845
X195.84Y-103.615
T5
X181.102Y-115.824
X183.642Y-115.824
X186.182Y-115.824
T6
X130.048Y-52.578
T7
X127.508Y-50.038
X127.508Y-55.118
X132.588Y-50.038
X132.588Y-55.118
T8
X193.3Y-86.96
X193.3Y-111.96
T0
M30
