G04 #@! TF.GenerationSoftware,KiCad,Pcbnew,(5.1.5)-2*
G04 #@! TF.CreationDate,2019-12-22T19:38:14-08:00*
G04 #@! TF.ProjectId,DashSight-Mezzanine-Card,44617368-5369-4676-9874-2d4d657a7a61,rev?*
G04 #@! TF.SameCoordinates,Original*
G04 #@! TF.FileFunction,Legend,Top*
G04 #@! TF.FilePolarity,Positive*
%FSLAX46Y46*%
G04 Gerber Fmt 4.6, Leading zero omitted, Abs format (unit mm)*
G04 Created by KiCad (PCBNEW (5.1.5)-2) date 2019-12-22 19:38:14*
%MOMM*%
%LPD*%
G04 APERTURE LIST*
%ADD10C,0.120000*%
%ADD11C,0.150000*%
G04 APERTURE END LIST*
D10*
X142923000Y-58519000D02*
X142923000Y-59519000D01*
X133683000Y-67989000D02*
X134683000Y-67989000D01*
X133683000Y-66989000D02*
X133683000Y-67989000D01*
X133683000Y-58249000D02*
X134683000Y-58249000D01*
X133683000Y-59249000D02*
X133683000Y-58249000D01*
X142923000Y-67989000D02*
X141923000Y-67989000D01*
X142923000Y-66989000D02*
X142923000Y-67989000D01*
X185493000Y-112656000D02*
X185493000Y-114674000D01*
X181792000Y-112656000D02*
X181792000Y-114674000D01*
X187285000Y-115416000D02*
X188892000Y-115416000D01*
X184745000Y-115416000D02*
X185080000Y-115416000D01*
X182205000Y-115416000D02*
X182540000Y-115416000D01*
X178392000Y-115416000D02*
X179999000Y-115416000D01*
X188892000Y-112656000D02*
X188892000Y-117597000D01*
X178392000Y-112656000D02*
X178392000Y-117597000D01*
X178392000Y-117597000D02*
X188892000Y-117597000D01*
X178392000Y-112656000D02*
X188892000Y-112656000D01*
X188466000Y-120258721D02*
X188466000Y-120584279D01*
X189486000Y-120258721D02*
X189486000Y-120584279D01*
X184964000Y-120137422D02*
X184964000Y-120654578D01*
X186384000Y-120137422D02*
X186384000Y-120654578D01*
X134448000Y-108958000D02*
X134448000Y-107958000D01*
X135808000Y-107958000D02*
X135808000Y-108958000D01*
X130687000Y-70891500D02*
X131187000Y-70891500D01*
X131187000Y-69951500D02*
X130687000Y-69951500D01*
X190600000Y-61650000D02*
X190600000Y-62350000D01*
X189400000Y-62350000D02*
X189400000Y-61650000D01*
X128108000Y-59848000D02*
X128108000Y-60548000D01*
X126908000Y-60548000D02*
X126908000Y-59848000D01*
X127920000Y-63154000D02*
X128620000Y-63154000D01*
X128620000Y-64354000D02*
X127920000Y-64354000D01*
X126293100Y-115054554D02*
G75*
G02X126294000Y-120656000I-4499100J-2801446D01*
G01*
X126294000Y-115056000D02*
G75*
G02X126278337Y-113752277I386922J656604D01*
G01*
X134294000Y-119856000D02*
X132294000Y-121956000D01*
X134294000Y-115856000D02*
X132294000Y-113756000D01*
X134294000Y-119856000D02*
X134294000Y-115856000D01*
X126294000Y-121956000D02*
G75*
G02X126278337Y-120652277I386922J656604D01*
G01*
X126294000Y-113756000D02*
X132294000Y-113756000D01*
X126294000Y-121956000D02*
X132294000Y-121956000D01*
X165350000Y-104400000D02*
X168650000Y-104400000D01*
X168650000Y-104400000D02*
X168650000Y-99000000D01*
X165350000Y-104400000D02*
X165350000Y-99000000D01*
X129028000Y-77702000D02*
X128528000Y-77702000D01*
X128528000Y-78762000D02*
X129028000Y-78762000D01*
X141132000Y-50134000D02*
X141132000Y-49434000D01*
X142332000Y-49434000D02*
X142332000Y-50134000D01*
X167770500Y-113795500D02*
X167770500Y-116455500D01*
X170370500Y-113795500D02*
X167770500Y-113795500D01*
X170370500Y-116455500D02*
X167770500Y-116455500D01*
X170370500Y-113795500D02*
X170370500Y-116455500D01*
X171640500Y-113795500D02*
X172970500Y-113795500D01*
X172970500Y-113795500D02*
X172970500Y-115125500D01*
X184718000Y-90364000D02*
X184718000Y-91694000D01*
X183388000Y-90364000D02*
X184718000Y-90364000D01*
X182118000Y-90364000D02*
X182118000Y-93024000D01*
X182118000Y-93024000D02*
X179518000Y-93024000D01*
X182118000Y-90364000D02*
X179518000Y-90364000D01*
X179518000Y-90364000D02*
X179518000Y-93024000D01*
X147000000Y-115250000D02*
X149000000Y-115250000D01*
X149000000Y-115250000D02*
X149000000Y-111350000D01*
X147000000Y-115250000D02*
X147000000Y-111350000D01*
X133608000Y-70888000D02*
X134108000Y-70888000D01*
X134108000Y-69828000D02*
X133608000Y-69828000D01*
X189778675Y-105000000D02*
X189345662Y-105250000D01*
X189345662Y-104750000D02*
X189778675Y-105000000D01*
X189345662Y-105250000D02*
X189345662Y-104750000D01*
X190240000Y-83975000D02*
X199400000Y-84100000D01*
X190240000Y-114945000D02*
X190240000Y-83975000D01*
X199600000Y-114900000D02*
X190240000Y-114945000D01*
X170330000Y-83810000D02*
G75*
G02X170330000Y-81810000I0J1000000D01*
G01*
X170330000Y-81810000D02*
X170330000Y-80160000D01*
X170330000Y-80160000D02*
X134650000Y-80160000D01*
X134650000Y-80160000D02*
X134650000Y-85460000D01*
X134650000Y-85460000D02*
X170330000Y-85460000D01*
X170330000Y-85460000D02*
X170330000Y-83810000D01*
X134912000Y-111214000D02*
X134912000Y-111714000D01*
X135852000Y-111714000D02*
X135852000Y-111214000D01*
X185250000Y-65530000D02*
X184750000Y-65530000D01*
X184750000Y-66470000D02*
X185250000Y-66470000D01*
X195600000Y-59650000D02*
X195600000Y-60350000D01*
X194400000Y-60350000D02*
X194400000Y-59650000D01*
X165400000Y-68350000D02*
X165400000Y-67650000D01*
X166600000Y-67650000D02*
X166600000Y-68350000D01*
X166600000Y-61650000D02*
X166600000Y-62350000D01*
X165400000Y-62350000D02*
X165400000Y-61650000D01*
X129048000Y-49278000D02*
X131048000Y-49278000D01*
X129048000Y-55878000D02*
X131048000Y-55878000D01*
X133348000Y-51578000D02*
X133348000Y-53578000D01*
X126748000Y-51578000D02*
X126748000Y-53578000D01*
X170475000Y-68685000D02*
X170475000Y-62435000D01*
X175525000Y-68685000D02*
X175525000Y-62435000D01*
X175525000Y-68685000D02*
G75*
G02X170475000Y-68685000I-2525000J0D01*
G01*
X175525000Y-62435000D02*
G75*
G03X170475000Y-62435000I-2525000J0D01*
G01*
X184810000Y-77670000D02*
G75*
G02X182810000Y-77670000I-1000000J0D01*
G01*
X182810000Y-77670000D02*
X181160000Y-77670000D01*
X181160000Y-77670000D02*
X181160000Y-87950000D01*
X181160000Y-87950000D02*
X186460000Y-87950000D01*
X186460000Y-87950000D02*
X186460000Y-77670000D01*
X186460000Y-77670000D02*
X184810000Y-77670000D01*
X139110000Y-49284000D02*
X139110000Y-50284000D01*
X137750000Y-50284000D02*
X137750000Y-49284000D01*
X182970000Y-124330000D02*
X182970000Y-119130000D01*
X142270000Y-124330000D02*
X182970000Y-124330000D01*
X139670000Y-119130000D02*
X182970000Y-119130000D01*
X142270000Y-124330000D02*
X142270000Y-121730000D01*
X142270000Y-121730000D02*
X139670000Y-121730000D01*
X139670000Y-121730000D02*
X139670000Y-119130000D01*
X141000000Y-124330000D02*
X139670000Y-124330000D01*
X139670000Y-124330000D02*
X139670000Y-123000000D01*
X196529000Y-52146000D02*
X196529000Y-46946000D01*
X148209000Y-52146000D02*
X196529000Y-52146000D01*
X145609000Y-46946000D02*
X196529000Y-46946000D01*
X148209000Y-52146000D02*
X148209000Y-49546000D01*
X148209000Y-49546000D02*
X145609000Y-49546000D01*
X145609000Y-49546000D02*
X145609000Y-46946000D01*
X146939000Y-52146000D02*
X145609000Y-52146000D01*
X145609000Y-52146000D02*
X145609000Y-50816000D01*
X151320000Y-96750000D02*
X151320000Y-95750000D01*
X152680000Y-95750000D02*
X152680000Y-96750000D01*
X152680000Y-99500000D02*
X152680000Y-100500000D01*
X151320000Y-100500000D02*
X151320000Y-99500000D01*
X145500000Y-91320000D02*
X146500000Y-91320000D01*
X146500000Y-92680000D02*
X145500000Y-92680000D01*
X126881000Y-79457000D02*
X127881000Y-79457000D01*
X127881000Y-80817000D02*
X126881000Y-80817000D01*
X162680000Y-94250000D02*
X162680000Y-95250000D01*
X161320000Y-95250000D02*
X161320000Y-94250000D01*
X161500000Y-98320000D02*
X162500000Y-98320000D01*
X162500000Y-99680000D02*
X161500000Y-99680000D01*
X150051000Y-59659000D02*
X150051000Y-58659000D01*
X151411000Y-58659000D02*
X151411000Y-59659000D01*
X131250000Y-98680000D02*
X130250000Y-98680000D01*
X130250000Y-97320000D02*
X131250000Y-97320000D01*
X131750000Y-104680000D02*
X130750000Y-104680000D01*
X130750000Y-103320000D02*
X131750000Y-103320000D01*
X152609000Y-62222000D02*
X152609000Y-61222000D01*
X153969000Y-61222000D02*
X153969000Y-62222000D01*
X147320000Y-103500000D02*
X147320000Y-102500000D01*
X148680000Y-102500000D02*
X148680000Y-103500000D01*
X151320000Y-92750000D02*
X151320000Y-91750000D01*
X152680000Y-91750000D02*
X152680000Y-92750000D01*
X161680000Y-71500000D02*
X161680000Y-72500000D01*
X160320000Y-72500000D02*
X160320000Y-71500000D01*
X166680000Y-72500000D02*
X166680000Y-73500000D01*
X165320000Y-73500000D02*
X165320000Y-72500000D01*
X174500000Y-83320000D02*
X175500000Y-83320000D01*
X175500000Y-84680000D02*
X174500000Y-84680000D01*
X185500000Y-61680000D02*
X184500000Y-61680000D01*
X184500000Y-60320000D02*
X185500000Y-60320000D01*
X187680000Y-71250000D02*
X187680000Y-72250000D01*
X186320000Y-72250000D02*
X186320000Y-71250000D01*
X186320000Y-102500000D02*
X186320000Y-101500000D01*
X187680000Y-101500000D02*
X187680000Y-102500000D01*
X190680000Y-66500000D02*
X190680000Y-67500000D01*
X189320000Y-67500000D02*
X189320000Y-66500000D01*
X195680000Y-64500000D02*
X195680000Y-65500000D01*
X194320000Y-65500000D02*
X194320000Y-64500000D01*
X155149000Y-62222000D02*
X155149000Y-61222000D01*
X156509000Y-61222000D02*
X156509000Y-62222000D01*
X148680000Y-106500000D02*
X148680000Y-107500000D01*
X147320000Y-107500000D02*
X147320000Y-106500000D01*
X159320000Y-110500000D02*
X159320000Y-109500000D01*
X160680000Y-109500000D02*
X160680000Y-110500000D01*
X168850000Y-111070000D02*
X168850000Y-107470000D01*
X168838478Y-111108478D02*
G75*
G02X164400000Y-109270000I-1838478J1838478D01*
G01*
X168838478Y-107431522D02*
G75*
G03X164400000Y-109270000I-1838478J-1838478D01*
G01*
X155470000Y-94850000D02*
X159070000Y-94850000D01*
X155431522Y-94838478D02*
G75*
G02X157270000Y-90400000I1838478J1838478D01*
G01*
X159108478Y-94838478D02*
G75*
G03X157270000Y-90400000I-1838478J1838478D01*
G01*
X155470000Y-102850000D02*
X159070000Y-102850000D01*
X155431522Y-102838478D02*
G75*
G02X157270000Y-98400000I1838478J1838478D01*
G01*
X159108478Y-102838478D02*
G75*
G03X157270000Y-98400000I-1838478J1838478D01*
G01*
X152470000Y-115850000D02*
X156070000Y-115850000D01*
X152431522Y-115838478D02*
G75*
G02X154270000Y-111400000I1838478J1838478D01*
G01*
X156108478Y-115838478D02*
G75*
G03X154270000Y-111400000I-1838478J1838478D01*
G01*
X183150000Y-106470000D02*
X183150000Y-110070000D01*
X183161522Y-106431522D02*
G75*
G02X187600000Y-108270000I1838478J-1838478D01*
G01*
X183161522Y-110108478D02*
G75*
G03X187600000Y-108270000I1838478J1838478D01*
G01*
X142530000Y-107150000D02*
X138930000Y-107150000D01*
X142568478Y-107161522D02*
G75*
G02X140730000Y-111600000I-1838478J-1838478D01*
G01*
X138891522Y-107161522D02*
G75*
G03X140730000Y-111600000I1838478J-1838478D01*
G01*
X182530000Y-99150000D02*
X178930000Y-99150000D01*
X182568478Y-99161522D02*
G75*
G02X180730000Y-103600000I-1838478J-1838478D01*
G01*
X178891522Y-99161522D02*
G75*
G03X180730000Y-103600000I1838478J-1838478D01*
G01*
X138470000Y-102850000D02*
X142070000Y-102850000D01*
X138431522Y-102838478D02*
G75*
G02X140270000Y-98400000I1838478J1838478D01*
G01*
X142108478Y-102838478D02*
G75*
G03X140270000Y-98400000I-1838478J1838478D01*
G01*
D11*
X145305380Y-60995190D02*
X144305380Y-60995190D01*
X145210142Y-59947571D02*
X145257761Y-59995190D01*
X145305380Y-60138047D01*
X145305380Y-60233285D01*
X145257761Y-60376142D01*
X145162523Y-60471380D01*
X145067285Y-60519000D01*
X144876809Y-60566619D01*
X144733952Y-60566619D01*
X144543476Y-60519000D01*
X144448238Y-60471380D01*
X144353000Y-60376142D01*
X144305380Y-60233285D01*
X144305380Y-60138047D01*
X144353000Y-59995190D01*
X144400619Y-59947571D01*
X145305380Y-58995190D02*
X145305380Y-59566619D01*
X145305380Y-59280904D02*
X144305380Y-59280904D01*
X144448238Y-59376142D01*
X144543476Y-59471380D01*
X144591095Y-59566619D01*
X182880095Y-111108880D02*
X182880095Y-111918404D01*
X182927714Y-112013642D01*
X182975333Y-112061261D01*
X183070571Y-112108880D01*
X183261047Y-112108880D01*
X183356285Y-112061261D01*
X183403904Y-112013642D01*
X183451523Y-111918404D01*
X183451523Y-111108880D01*
X183832476Y-111108880D02*
X184451523Y-111108880D01*
X184118190Y-111489833D01*
X184261047Y-111489833D01*
X184356285Y-111537452D01*
X184403904Y-111585071D01*
X184451523Y-111680309D01*
X184451523Y-111918404D01*
X184403904Y-112013642D01*
X184356285Y-112061261D01*
X184261047Y-112108880D01*
X183975333Y-112108880D01*
X183880095Y-112061261D01*
X183832476Y-112013642D01*
X190763142Y-121064357D02*
X190810761Y-121111976D01*
X190858380Y-121254833D01*
X190858380Y-121350071D01*
X190810761Y-121492928D01*
X190715523Y-121588166D01*
X190620285Y-121635785D01*
X190429809Y-121683404D01*
X190286952Y-121683404D01*
X190096476Y-121635785D01*
X190001238Y-121588166D01*
X189906000Y-121492928D01*
X189858380Y-121350071D01*
X189858380Y-121254833D01*
X189906000Y-121111976D01*
X189953619Y-121064357D01*
X190858380Y-120111976D02*
X190858380Y-120683404D01*
X190858380Y-120397690D02*
X189858380Y-120397690D01*
X190001238Y-120492928D01*
X190096476Y-120588166D01*
X190144095Y-120683404D01*
X190858380Y-119159595D02*
X190858380Y-119731023D01*
X190858380Y-119445309D02*
X189858380Y-119445309D01*
X190001238Y-119540547D01*
X190096476Y-119635785D01*
X190144095Y-119731023D01*
X187681142Y-121038857D02*
X187728761Y-121086476D01*
X187776380Y-121229333D01*
X187776380Y-121324571D01*
X187728761Y-121467428D01*
X187633523Y-121562666D01*
X187538285Y-121610285D01*
X187347809Y-121657904D01*
X187204952Y-121657904D01*
X187014476Y-121610285D01*
X186919238Y-121562666D01*
X186824000Y-121467428D01*
X186776380Y-121324571D01*
X186776380Y-121229333D01*
X186824000Y-121086476D01*
X186871619Y-121038857D01*
X187776380Y-120086476D02*
X187776380Y-120657904D01*
X187776380Y-120372190D02*
X186776380Y-120372190D01*
X186919238Y-120467428D01*
X187014476Y-120562666D01*
X187062095Y-120657904D01*
X186776380Y-119467428D02*
X186776380Y-119372190D01*
X186824000Y-119276952D01*
X186871619Y-119229333D01*
X186966857Y-119181714D01*
X187157333Y-119134095D01*
X187395428Y-119134095D01*
X187585904Y-119181714D01*
X187681142Y-119229333D01*
X187728761Y-119276952D01*
X187776380Y-119372190D01*
X187776380Y-119467428D01*
X187728761Y-119562666D01*
X187681142Y-119610285D01*
X187585904Y-119657904D01*
X187395428Y-119705523D01*
X187157333Y-119705523D01*
X186966857Y-119657904D01*
X186871619Y-119610285D01*
X186824000Y-119562666D01*
X186776380Y-119467428D01*
X137030380Y-109100857D02*
X136554190Y-109434190D01*
X137030380Y-109672285D02*
X136030380Y-109672285D01*
X136030380Y-109291333D01*
X136078000Y-109196095D01*
X136125619Y-109148476D01*
X136220857Y-109100857D01*
X136363714Y-109100857D01*
X136458952Y-109148476D01*
X136506571Y-109196095D01*
X136554190Y-109291333D01*
X136554190Y-109672285D01*
X137030380Y-108148476D02*
X137030380Y-108719904D01*
X137030380Y-108434190D02*
X136030380Y-108434190D01*
X136173238Y-108529428D01*
X136268476Y-108624666D01*
X136316095Y-108719904D01*
X137030380Y-107672285D02*
X137030380Y-107481809D01*
X136982761Y-107386571D01*
X136935142Y-107338952D01*
X136792285Y-107243714D01*
X136601809Y-107196095D01*
X136220857Y-107196095D01*
X136125619Y-107243714D01*
X136078000Y-107291333D01*
X136030380Y-107386571D01*
X136030380Y-107577047D01*
X136078000Y-107672285D01*
X136125619Y-107719904D01*
X136220857Y-107767523D01*
X136458952Y-107767523D01*
X136554190Y-107719904D01*
X136601809Y-107672285D01*
X136649428Y-107577047D01*
X136649428Y-107386571D01*
X136601809Y-107291333D01*
X136554190Y-107243714D01*
X136458952Y-107196095D01*
X130770333Y-72048642D02*
X130722714Y-72096261D01*
X130579857Y-72143880D01*
X130484619Y-72143880D01*
X130341761Y-72096261D01*
X130246523Y-72001023D01*
X130198904Y-71905785D01*
X130151285Y-71715309D01*
X130151285Y-71572452D01*
X130198904Y-71381976D01*
X130246523Y-71286738D01*
X130341761Y-71191500D01*
X130484619Y-71143880D01*
X130579857Y-71143880D01*
X130722714Y-71191500D01*
X130770333Y-71239119D01*
X131675095Y-71143880D02*
X131198904Y-71143880D01*
X131151285Y-71620071D01*
X131198904Y-71572452D01*
X131294142Y-71524833D01*
X131532238Y-71524833D01*
X131627476Y-71572452D01*
X131675095Y-71620071D01*
X131722714Y-71715309D01*
X131722714Y-71953404D01*
X131675095Y-72048642D01*
X131627476Y-72096261D01*
X131532238Y-72143880D01*
X131294142Y-72143880D01*
X131198904Y-72096261D01*
X131151285Y-72048642D01*
X188857142Y-62166666D02*
X188904761Y-62214285D01*
X188952380Y-62357142D01*
X188952380Y-62452380D01*
X188904761Y-62595238D01*
X188809523Y-62690476D01*
X188714285Y-62738095D01*
X188523809Y-62785714D01*
X188380952Y-62785714D01*
X188190476Y-62738095D01*
X188095238Y-62690476D01*
X188000000Y-62595238D01*
X187952380Y-62452380D01*
X187952380Y-62357142D01*
X188000000Y-62214285D01*
X188047619Y-62166666D01*
X188285714Y-61309523D02*
X188952380Y-61309523D01*
X187904761Y-61547619D02*
X188619047Y-61785714D01*
X188619047Y-61166666D01*
X126365142Y-60364666D02*
X126412761Y-60412285D01*
X126460380Y-60555142D01*
X126460380Y-60650380D01*
X126412761Y-60793238D01*
X126317523Y-60888476D01*
X126222285Y-60936095D01*
X126031809Y-60983714D01*
X125888952Y-60983714D01*
X125698476Y-60936095D01*
X125603238Y-60888476D01*
X125508000Y-60793238D01*
X125460380Y-60650380D01*
X125460380Y-60555142D01*
X125508000Y-60412285D01*
X125555619Y-60364666D01*
X126460380Y-59888476D02*
X126460380Y-59698000D01*
X126412761Y-59602761D01*
X126365142Y-59555142D01*
X126222285Y-59459904D01*
X126031809Y-59412285D01*
X125650857Y-59412285D01*
X125555619Y-59459904D01*
X125508000Y-59507523D01*
X125460380Y-59602761D01*
X125460380Y-59793238D01*
X125508000Y-59888476D01*
X125555619Y-59936095D01*
X125650857Y-59983714D01*
X125888952Y-59983714D01*
X125984190Y-59936095D01*
X126031809Y-59888476D01*
X126079428Y-59793238D01*
X126079428Y-59602761D01*
X126031809Y-59507523D01*
X125984190Y-59459904D01*
X125888952Y-59412285D01*
X127627142Y-65611142D02*
X127579523Y-65658761D01*
X127436666Y-65706380D01*
X127341428Y-65706380D01*
X127198571Y-65658761D01*
X127103333Y-65563523D01*
X127055714Y-65468285D01*
X127008095Y-65277809D01*
X127008095Y-65134952D01*
X127055714Y-64944476D01*
X127103333Y-64849238D01*
X127198571Y-64754000D01*
X127341428Y-64706380D01*
X127436666Y-64706380D01*
X127579523Y-64754000D01*
X127627142Y-64801619D01*
X128579523Y-65706380D02*
X128008095Y-65706380D01*
X128293809Y-65706380D02*
X128293809Y-64706380D01*
X128198571Y-64849238D01*
X128103333Y-64944476D01*
X128008095Y-64992095D01*
X129436666Y-65039714D02*
X129436666Y-65706380D01*
X129198571Y-64658761D02*
X128960476Y-65373047D01*
X129579523Y-65373047D01*
X125522571Y-118641714D02*
X125570190Y-118498857D01*
X125617809Y-118451238D01*
X125713047Y-118403619D01*
X125855904Y-118403619D01*
X125951142Y-118451238D01*
X125998761Y-118498857D01*
X126046380Y-118594095D01*
X126046380Y-118975047D01*
X125046380Y-118975047D01*
X125046380Y-118641714D01*
X125094000Y-118546476D01*
X125141619Y-118498857D01*
X125236857Y-118451238D01*
X125332095Y-118451238D01*
X125427333Y-118498857D01*
X125474952Y-118546476D01*
X125522571Y-118641714D01*
X125522571Y-118975047D01*
X125046380Y-118117904D02*
X125046380Y-117546476D01*
X126046380Y-117832190D02*
X125046380Y-117832190D01*
X126046380Y-116689333D02*
X126046380Y-117260761D01*
X126046380Y-116975047D02*
X125046380Y-116975047D01*
X125189238Y-117070285D01*
X125284476Y-117165523D01*
X125332095Y-117260761D01*
X164952380Y-101738095D02*
X163952380Y-101738095D01*
X163952380Y-101500000D01*
X164000000Y-101357142D01*
X164095238Y-101261904D01*
X164190476Y-101214285D01*
X164380952Y-101166666D01*
X164523809Y-101166666D01*
X164714285Y-101214285D01*
X164809523Y-101261904D01*
X164904761Y-101357142D01*
X164952380Y-101500000D01*
X164952380Y-101738095D01*
X163952380Y-100833333D02*
X163952380Y-100214285D01*
X164333333Y-100547619D01*
X164333333Y-100404761D01*
X164380952Y-100309523D01*
X164428571Y-100261904D01*
X164523809Y-100214285D01*
X164761904Y-100214285D01*
X164857142Y-100261904D01*
X164904761Y-100309523D01*
X164952380Y-100404761D01*
X164952380Y-100690476D01*
X164904761Y-100785714D01*
X164857142Y-100833333D01*
X128039904Y-77334380D02*
X128039904Y-76334380D01*
X128278000Y-76334380D01*
X128420857Y-76382000D01*
X128516095Y-76477238D01*
X128563714Y-76572476D01*
X128611333Y-76762952D01*
X128611333Y-76905809D01*
X128563714Y-77096285D01*
X128516095Y-77191523D01*
X128420857Y-77286761D01*
X128278000Y-77334380D01*
X128039904Y-77334380D01*
X129468476Y-76667714D02*
X129468476Y-77334380D01*
X129230380Y-76286761D02*
X128992285Y-77001047D01*
X129611333Y-77001047D01*
X143589142Y-49950666D02*
X143636761Y-49998285D01*
X143684380Y-50141142D01*
X143684380Y-50236380D01*
X143636761Y-50379238D01*
X143541523Y-50474476D01*
X143446285Y-50522095D01*
X143255809Y-50569714D01*
X143112952Y-50569714D01*
X142922476Y-50522095D01*
X142827238Y-50474476D01*
X142732000Y-50379238D01*
X142684380Y-50236380D01*
X142684380Y-50141142D01*
X142732000Y-49998285D01*
X142779619Y-49950666D01*
X143684380Y-48998285D02*
X143684380Y-49569714D01*
X143684380Y-49284000D02*
X142684380Y-49284000D01*
X142827238Y-49379238D01*
X142922476Y-49474476D01*
X142970095Y-49569714D01*
X173422880Y-115958833D02*
X174137166Y-115958833D01*
X174280023Y-116006452D01*
X174375261Y-116101690D01*
X174422880Y-116244547D01*
X174422880Y-116339785D01*
X174422880Y-115482642D02*
X173422880Y-115482642D01*
X173422880Y-115101690D01*
X173470500Y-115006452D01*
X173518119Y-114958833D01*
X173613357Y-114911214D01*
X173756214Y-114911214D01*
X173851452Y-114958833D01*
X173899071Y-115006452D01*
X173946690Y-115101690D01*
X173946690Y-115482642D01*
X174422880Y-113958833D02*
X174422880Y-114530261D01*
X174422880Y-114244547D02*
X173422880Y-114244547D01*
X173565738Y-114339785D01*
X173660976Y-114435023D01*
X173708595Y-114530261D01*
X185170380Y-92527333D02*
X185884666Y-92527333D01*
X186027523Y-92574952D01*
X186122761Y-92670190D01*
X186170380Y-92813047D01*
X186170380Y-92908285D01*
X186170380Y-92051142D02*
X185170380Y-92051142D01*
X185170380Y-91670190D01*
X185218000Y-91574952D01*
X185265619Y-91527333D01*
X185360857Y-91479714D01*
X185503714Y-91479714D01*
X185598952Y-91527333D01*
X185646571Y-91574952D01*
X185694190Y-91670190D01*
X185694190Y-92051142D01*
X185265619Y-91098761D02*
X185218000Y-91051142D01*
X185170380Y-90955904D01*
X185170380Y-90717809D01*
X185218000Y-90622571D01*
X185265619Y-90574952D01*
X185360857Y-90527333D01*
X185456095Y-90527333D01*
X185598952Y-90574952D01*
X186170380Y-91146380D01*
X186170380Y-90527333D01*
X146452380Y-113738095D02*
X145452380Y-113738095D01*
X145452380Y-113500000D01*
X145500000Y-113357142D01*
X145595238Y-113261904D01*
X145690476Y-113214285D01*
X145880952Y-113166666D01*
X146023809Y-113166666D01*
X146214285Y-113214285D01*
X146309523Y-113261904D01*
X146404761Y-113357142D01*
X146452380Y-113500000D01*
X146452380Y-113738095D01*
X145547619Y-112785714D02*
X145500000Y-112738095D01*
X145452380Y-112642857D01*
X145452380Y-112404761D01*
X145500000Y-112309523D01*
X145547619Y-112261904D01*
X145642857Y-112214285D01*
X145738095Y-112214285D01*
X145880952Y-112261904D01*
X146452380Y-112833333D01*
X146452380Y-112214285D01*
X133024666Y-72086571D02*
X132691333Y-72086571D01*
X132691333Y-72610380D02*
X132691333Y-71610380D01*
X133167523Y-71610380D01*
X133881809Y-72086571D02*
X134024666Y-72134190D01*
X134072285Y-72181809D01*
X134119904Y-72277047D01*
X134119904Y-72419904D01*
X134072285Y-72515142D01*
X134024666Y-72562761D01*
X133929428Y-72610380D01*
X133548476Y-72610380D01*
X133548476Y-71610380D01*
X133881809Y-71610380D01*
X133977047Y-71658000D01*
X134024666Y-71705619D01*
X134072285Y-71800857D01*
X134072285Y-71896095D01*
X134024666Y-71991333D01*
X133977047Y-72038952D01*
X133881809Y-72086571D01*
X133548476Y-72086571D01*
X135072285Y-72610380D02*
X134500857Y-72610380D01*
X134786571Y-72610380D02*
X134786571Y-71610380D01*
X134691333Y-71753238D01*
X134596095Y-71848476D01*
X134500857Y-71896095D01*
X188752380Y-99793333D02*
X189466666Y-99793333D01*
X189609523Y-99840952D01*
X189704761Y-99936190D01*
X189752380Y-100079047D01*
X189752380Y-100174285D01*
X189085714Y-98888571D02*
X189752380Y-98888571D01*
X188704761Y-99126666D02*
X189419047Y-99364761D01*
X189419047Y-98745714D01*
X171782380Y-83786190D02*
X170782380Y-83786190D01*
X171687142Y-82738571D02*
X171734761Y-82786190D01*
X171782380Y-82929047D01*
X171782380Y-83024285D01*
X171734761Y-83167142D01*
X171639523Y-83262380D01*
X171544285Y-83310000D01*
X171353809Y-83357619D01*
X171210952Y-83357619D01*
X171020476Y-83310000D01*
X170925238Y-83262380D01*
X170830000Y-83167142D01*
X170782380Y-83024285D01*
X170782380Y-82929047D01*
X170830000Y-82786190D01*
X170877619Y-82738571D01*
X170877619Y-82357619D02*
X170830000Y-82310000D01*
X170782380Y-82214761D01*
X170782380Y-81976666D01*
X170830000Y-81881428D01*
X170877619Y-81833809D01*
X170972857Y-81786190D01*
X171068095Y-81786190D01*
X171210952Y-81833809D01*
X171782380Y-82405238D01*
X171782380Y-81786190D01*
X134469142Y-111630666D02*
X134516761Y-111678285D01*
X134564380Y-111821142D01*
X134564380Y-111916380D01*
X134516761Y-112059238D01*
X134421523Y-112154476D01*
X134326285Y-112202095D01*
X134135809Y-112249714D01*
X133992952Y-112249714D01*
X133802476Y-112202095D01*
X133707238Y-112154476D01*
X133612000Y-112059238D01*
X133564380Y-111916380D01*
X133564380Y-111821142D01*
X133612000Y-111678285D01*
X133659619Y-111630666D01*
X133659619Y-111249714D02*
X133612000Y-111202095D01*
X133564380Y-111106857D01*
X133564380Y-110868761D01*
X133612000Y-110773523D01*
X133659619Y-110725904D01*
X133754857Y-110678285D01*
X133850095Y-110678285D01*
X133992952Y-110725904D01*
X134564380Y-111297333D01*
X134564380Y-110678285D01*
X184833333Y-65087142D02*
X184785714Y-65134761D01*
X184642857Y-65182380D01*
X184547619Y-65182380D01*
X184404761Y-65134761D01*
X184309523Y-65039523D01*
X184261904Y-64944285D01*
X184214285Y-64753809D01*
X184214285Y-64610952D01*
X184261904Y-64420476D01*
X184309523Y-64325238D01*
X184404761Y-64230000D01*
X184547619Y-64182380D01*
X184642857Y-64182380D01*
X184785714Y-64230000D01*
X184833333Y-64277619D01*
X185404761Y-64610952D02*
X185309523Y-64563333D01*
X185261904Y-64515714D01*
X185214285Y-64420476D01*
X185214285Y-64372857D01*
X185261904Y-64277619D01*
X185309523Y-64230000D01*
X185404761Y-64182380D01*
X185595238Y-64182380D01*
X185690476Y-64230000D01*
X185738095Y-64277619D01*
X185785714Y-64372857D01*
X185785714Y-64420476D01*
X185738095Y-64515714D01*
X185690476Y-64563333D01*
X185595238Y-64610952D01*
X185404761Y-64610952D01*
X185309523Y-64658571D01*
X185261904Y-64706190D01*
X185214285Y-64801428D01*
X185214285Y-64991904D01*
X185261904Y-65087142D01*
X185309523Y-65134761D01*
X185404761Y-65182380D01*
X185595238Y-65182380D01*
X185690476Y-65134761D01*
X185738095Y-65087142D01*
X185785714Y-64991904D01*
X185785714Y-64801428D01*
X185738095Y-64706190D01*
X185690476Y-64658571D01*
X185595238Y-64610952D01*
X193857142Y-60166666D02*
X193904761Y-60214285D01*
X193952380Y-60357142D01*
X193952380Y-60452380D01*
X193904761Y-60595238D01*
X193809523Y-60690476D01*
X193714285Y-60738095D01*
X193523809Y-60785714D01*
X193380952Y-60785714D01*
X193190476Y-60738095D01*
X193095238Y-60690476D01*
X193000000Y-60595238D01*
X192952380Y-60452380D01*
X192952380Y-60357142D01*
X193000000Y-60214285D01*
X193047619Y-60166666D01*
X192952380Y-59833333D02*
X192952380Y-59214285D01*
X193333333Y-59547619D01*
X193333333Y-59404761D01*
X193380952Y-59309523D01*
X193428571Y-59261904D01*
X193523809Y-59214285D01*
X193761904Y-59214285D01*
X193857142Y-59261904D01*
X193904761Y-59309523D01*
X193952380Y-59404761D01*
X193952380Y-59690476D01*
X193904761Y-59785714D01*
X193857142Y-59833333D01*
X167857142Y-68166666D02*
X167904761Y-68214285D01*
X167952380Y-68357142D01*
X167952380Y-68452380D01*
X167904761Y-68595238D01*
X167809523Y-68690476D01*
X167714285Y-68738095D01*
X167523809Y-68785714D01*
X167380952Y-68785714D01*
X167190476Y-68738095D01*
X167095238Y-68690476D01*
X167000000Y-68595238D01*
X166952380Y-68452380D01*
X166952380Y-68357142D01*
X167000000Y-68214285D01*
X167047619Y-68166666D01*
X166952380Y-67309523D02*
X166952380Y-67500000D01*
X167000000Y-67595238D01*
X167047619Y-67642857D01*
X167190476Y-67738095D01*
X167380952Y-67785714D01*
X167761904Y-67785714D01*
X167857142Y-67738095D01*
X167904761Y-67690476D01*
X167952380Y-67595238D01*
X167952380Y-67404761D01*
X167904761Y-67309523D01*
X167857142Y-67261904D01*
X167761904Y-67214285D01*
X167523809Y-67214285D01*
X167428571Y-67261904D01*
X167380952Y-67309523D01*
X167333333Y-67404761D01*
X167333333Y-67595238D01*
X167380952Y-67690476D01*
X167428571Y-67738095D01*
X167523809Y-67785714D01*
X164857142Y-62166666D02*
X164904761Y-62214285D01*
X164952380Y-62357142D01*
X164952380Y-62452380D01*
X164904761Y-62595238D01*
X164809523Y-62690476D01*
X164714285Y-62738095D01*
X164523809Y-62785714D01*
X164380952Y-62785714D01*
X164190476Y-62738095D01*
X164095238Y-62690476D01*
X164000000Y-62595238D01*
X163952380Y-62452380D01*
X163952380Y-62357142D01*
X164000000Y-62214285D01*
X164047619Y-62166666D01*
X163952380Y-61833333D02*
X163952380Y-61166666D01*
X164952380Y-61595238D01*
X129714666Y-55030380D02*
X129714666Y-55744666D01*
X129667047Y-55887523D01*
X129571809Y-55982761D01*
X129428952Y-56030380D01*
X129333714Y-56030380D01*
X130095619Y-55030380D02*
X130714666Y-55030380D01*
X130381333Y-55411333D01*
X130524190Y-55411333D01*
X130619428Y-55458952D01*
X130667047Y-55506571D01*
X130714666Y-55601809D01*
X130714666Y-55839904D01*
X130667047Y-55935142D01*
X130619428Y-55982761D01*
X130524190Y-56030380D01*
X130238476Y-56030380D01*
X130143238Y-55982761D01*
X130095619Y-55935142D01*
X169451190Y-66036190D02*
X169927380Y-66036190D01*
X168927380Y-66369523D02*
X169451190Y-66036190D01*
X168927380Y-65702857D01*
X169927380Y-64845714D02*
X169927380Y-65417142D01*
X169927380Y-65131428D02*
X168927380Y-65131428D01*
X169070238Y-65226666D01*
X169165476Y-65321904D01*
X169213095Y-65417142D01*
X183048095Y-76122380D02*
X183048095Y-76931904D01*
X183095714Y-77027142D01*
X183143333Y-77074761D01*
X183238571Y-77122380D01*
X183429047Y-77122380D01*
X183524285Y-77074761D01*
X183571904Y-77027142D01*
X183619523Y-76931904D01*
X183619523Y-76122380D01*
X184619523Y-77122380D02*
X184048095Y-77122380D01*
X184333809Y-77122380D02*
X184333809Y-76122380D01*
X184238571Y-76265238D01*
X184143333Y-76360476D01*
X184048095Y-76408095D01*
X136982380Y-49950666D02*
X136982380Y-50426857D01*
X135982380Y-50426857D01*
X136982380Y-49093523D02*
X136982380Y-49664952D01*
X136982380Y-49379238D02*
X135982380Y-49379238D01*
X136125238Y-49474476D01*
X136220476Y-49569714D01*
X136268095Y-49664952D01*
X138122380Y-122063333D02*
X138836666Y-122063333D01*
X138979523Y-122110952D01*
X139074761Y-122206190D01*
X139122380Y-122349047D01*
X139122380Y-122444285D01*
X138217619Y-121634761D02*
X138170000Y-121587142D01*
X138122380Y-121491904D01*
X138122380Y-121253809D01*
X138170000Y-121158571D01*
X138217619Y-121110952D01*
X138312857Y-121063333D01*
X138408095Y-121063333D01*
X138550952Y-121110952D01*
X139122380Y-121682380D01*
X139122380Y-121063333D01*
X144061380Y-49879333D02*
X144775666Y-49879333D01*
X144918523Y-49926952D01*
X145013761Y-50022190D01*
X145061380Y-50165047D01*
X145061380Y-50260285D01*
X145061380Y-48879333D02*
X145061380Y-49450761D01*
X145061380Y-49165047D02*
X144061380Y-49165047D01*
X144204238Y-49260285D01*
X144299476Y-49355523D01*
X144347095Y-49450761D01*
X153902380Y-96892857D02*
X153426190Y-97226190D01*
X153902380Y-97464285D02*
X152902380Y-97464285D01*
X152902380Y-97083333D01*
X152950000Y-96988095D01*
X152997619Y-96940476D01*
X153092857Y-96892857D01*
X153235714Y-96892857D01*
X153330952Y-96940476D01*
X153378571Y-96988095D01*
X153426190Y-97083333D01*
X153426190Y-97464285D01*
X152997619Y-96511904D02*
X152950000Y-96464285D01*
X152902380Y-96369047D01*
X152902380Y-96130952D01*
X152950000Y-96035714D01*
X152997619Y-95988095D01*
X153092857Y-95940476D01*
X153188095Y-95940476D01*
X153330952Y-95988095D01*
X153902380Y-96559523D01*
X153902380Y-95940476D01*
X152902380Y-95035714D02*
X152902380Y-95511904D01*
X153378571Y-95559523D01*
X153330952Y-95511904D01*
X153283333Y-95416666D01*
X153283333Y-95178571D01*
X153330952Y-95083333D01*
X153378571Y-95035714D01*
X153473809Y-94988095D01*
X153711904Y-94988095D01*
X153807142Y-95035714D01*
X153854761Y-95083333D01*
X153902380Y-95178571D01*
X153902380Y-95416666D01*
X153854761Y-95511904D01*
X153807142Y-95559523D01*
X151002380Y-100642857D02*
X150526190Y-100976190D01*
X151002380Y-101214285D02*
X150002380Y-101214285D01*
X150002380Y-100833333D01*
X150050000Y-100738095D01*
X150097619Y-100690476D01*
X150192857Y-100642857D01*
X150335714Y-100642857D01*
X150430952Y-100690476D01*
X150478571Y-100738095D01*
X150526190Y-100833333D01*
X150526190Y-101214285D01*
X150097619Y-100261904D02*
X150050000Y-100214285D01*
X150002380Y-100119047D01*
X150002380Y-99880952D01*
X150050000Y-99785714D01*
X150097619Y-99738095D01*
X150192857Y-99690476D01*
X150288095Y-99690476D01*
X150430952Y-99738095D01*
X151002380Y-100309523D01*
X151002380Y-99690476D01*
X150002380Y-98833333D02*
X150002380Y-99023809D01*
X150050000Y-99119047D01*
X150097619Y-99166666D01*
X150240476Y-99261904D01*
X150430952Y-99309523D01*
X150811904Y-99309523D01*
X150907142Y-99261904D01*
X150954761Y-99214285D01*
X151002380Y-99119047D01*
X151002380Y-98928571D01*
X150954761Y-98833333D01*
X150907142Y-98785714D01*
X150811904Y-98738095D01*
X150573809Y-98738095D01*
X150478571Y-98785714D01*
X150430952Y-98833333D01*
X150383333Y-98928571D01*
X150383333Y-99119047D01*
X150430952Y-99214285D01*
X150478571Y-99261904D01*
X150573809Y-99309523D01*
X145357142Y-93902380D02*
X145023809Y-93426190D01*
X144785714Y-93902380D02*
X144785714Y-92902380D01*
X145166666Y-92902380D01*
X145261904Y-92950000D01*
X145309523Y-92997619D01*
X145357142Y-93092857D01*
X145357142Y-93235714D01*
X145309523Y-93330952D01*
X145261904Y-93378571D01*
X145166666Y-93426190D01*
X144785714Y-93426190D01*
X145738095Y-92997619D02*
X145785714Y-92950000D01*
X145880952Y-92902380D01*
X146119047Y-92902380D01*
X146214285Y-92950000D01*
X146261904Y-92997619D01*
X146309523Y-93092857D01*
X146309523Y-93188095D01*
X146261904Y-93330952D01*
X145690476Y-93902380D01*
X146309523Y-93902380D01*
X146642857Y-92902380D02*
X147309523Y-92902380D01*
X146880952Y-93902380D01*
X126738142Y-82039380D02*
X126404809Y-81563190D01*
X126166714Y-82039380D02*
X126166714Y-81039380D01*
X126547666Y-81039380D01*
X126642904Y-81087000D01*
X126690523Y-81134619D01*
X126738142Y-81229857D01*
X126738142Y-81372714D01*
X126690523Y-81467952D01*
X126642904Y-81515571D01*
X126547666Y-81563190D01*
X126166714Y-81563190D01*
X127119095Y-81134619D02*
X127166714Y-81087000D01*
X127261952Y-81039380D01*
X127500047Y-81039380D01*
X127595285Y-81087000D01*
X127642904Y-81134619D01*
X127690523Y-81229857D01*
X127690523Y-81325095D01*
X127642904Y-81467952D01*
X127071476Y-82039380D01*
X127690523Y-82039380D01*
X128261952Y-81467952D02*
X128166714Y-81420333D01*
X128119095Y-81372714D01*
X128071476Y-81277476D01*
X128071476Y-81229857D01*
X128119095Y-81134619D01*
X128166714Y-81087000D01*
X128261952Y-81039380D01*
X128452428Y-81039380D01*
X128547666Y-81087000D01*
X128595285Y-81134619D01*
X128642904Y-81229857D01*
X128642904Y-81277476D01*
X128595285Y-81372714D01*
X128547666Y-81420333D01*
X128452428Y-81467952D01*
X128261952Y-81467952D01*
X128166714Y-81515571D01*
X128119095Y-81563190D01*
X128071476Y-81658428D01*
X128071476Y-81848904D01*
X128119095Y-81944142D01*
X128166714Y-81991761D01*
X128261952Y-82039380D01*
X128452428Y-82039380D01*
X128547666Y-81991761D01*
X128595285Y-81944142D01*
X128642904Y-81848904D01*
X128642904Y-81658428D01*
X128595285Y-81563190D01*
X128547666Y-81515571D01*
X128452428Y-81467952D01*
X161002380Y-95392857D02*
X160526190Y-95726190D01*
X161002380Y-95964285D02*
X160002380Y-95964285D01*
X160002380Y-95583333D01*
X160050000Y-95488095D01*
X160097619Y-95440476D01*
X160192857Y-95392857D01*
X160335714Y-95392857D01*
X160430952Y-95440476D01*
X160478571Y-95488095D01*
X160526190Y-95583333D01*
X160526190Y-95964285D01*
X160097619Y-95011904D02*
X160050000Y-94964285D01*
X160002380Y-94869047D01*
X160002380Y-94630952D01*
X160050000Y-94535714D01*
X160097619Y-94488095D01*
X160192857Y-94440476D01*
X160288095Y-94440476D01*
X160430952Y-94488095D01*
X161002380Y-95059523D01*
X161002380Y-94440476D01*
X161002380Y-93964285D02*
X161002380Y-93773809D01*
X160954761Y-93678571D01*
X160907142Y-93630952D01*
X160764285Y-93535714D01*
X160573809Y-93488095D01*
X160192857Y-93488095D01*
X160097619Y-93535714D01*
X160050000Y-93583333D01*
X160002380Y-93678571D01*
X160002380Y-93869047D01*
X160050000Y-93964285D01*
X160097619Y-94011904D01*
X160192857Y-94059523D01*
X160430952Y-94059523D01*
X160526190Y-94011904D01*
X160573809Y-93964285D01*
X160621428Y-93869047D01*
X160621428Y-93678571D01*
X160573809Y-93583333D01*
X160526190Y-93535714D01*
X160430952Y-93488095D01*
X161357142Y-100902380D02*
X161023809Y-100426190D01*
X160785714Y-100902380D02*
X160785714Y-99902380D01*
X161166666Y-99902380D01*
X161261904Y-99950000D01*
X161309523Y-99997619D01*
X161357142Y-100092857D01*
X161357142Y-100235714D01*
X161309523Y-100330952D01*
X161261904Y-100378571D01*
X161166666Y-100426190D01*
X160785714Y-100426190D01*
X161690476Y-99902380D02*
X162309523Y-99902380D01*
X161976190Y-100283333D01*
X162119047Y-100283333D01*
X162214285Y-100330952D01*
X162261904Y-100378571D01*
X162309523Y-100473809D01*
X162309523Y-100711904D01*
X162261904Y-100807142D01*
X162214285Y-100854761D01*
X162119047Y-100902380D01*
X161833333Y-100902380D01*
X161738095Y-100854761D01*
X161690476Y-100807142D01*
X162928571Y-99902380D02*
X163023809Y-99902380D01*
X163119047Y-99950000D01*
X163166666Y-99997619D01*
X163214285Y-100092857D01*
X163261904Y-100283333D01*
X163261904Y-100521428D01*
X163214285Y-100711904D01*
X163166666Y-100807142D01*
X163119047Y-100854761D01*
X163023809Y-100902380D01*
X162928571Y-100902380D01*
X162833333Y-100854761D01*
X162785714Y-100807142D01*
X162738095Y-100711904D01*
X162690476Y-100521428D01*
X162690476Y-100283333D01*
X162738095Y-100092857D01*
X162785714Y-99997619D01*
X162833333Y-99950000D01*
X162928571Y-99902380D01*
X152633380Y-59325666D02*
X152157190Y-59659000D01*
X152633380Y-59897095D02*
X151633380Y-59897095D01*
X151633380Y-59516142D01*
X151681000Y-59420904D01*
X151728619Y-59373285D01*
X151823857Y-59325666D01*
X151966714Y-59325666D01*
X152061952Y-59373285D01*
X152109571Y-59420904D01*
X152157190Y-59516142D01*
X152157190Y-59897095D01*
X152633380Y-58373285D02*
X152633380Y-58944714D01*
X152633380Y-58659000D02*
X151633380Y-58659000D01*
X151776238Y-58754238D01*
X151871476Y-58849476D01*
X151919095Y-58944714D01*
X130107142Y-97002380D02*
X129773809Y-96526190D01*
X129535714Y-97002380D02*
X129535714Y-96002380D01*
X129916666Y-96002380D01*
X130011904Y-96050000D01*
X130059523Y-96097619D01*
X130107142Y-96192857D01*
X130107142Y-96335714D01*
X130059523Y-96430952D01*
X130011904Y-96478571D01*
X129916666Y-96526190D01*
X129535714Y-96526190D01*
X130488095Y-96097619D02*
X130535714Y-96050000D01*
X130630952Y-96002380D01*
X130869047Y-96002380D01*
X130964285Y-96050000D01*
X131011904Y-96097619D01*
X131059523Y-96192857D01*
X131059523Y-96288095D01*
X131011904Y-96430952D01*
X130440476Y-97002380D01*
X131059523Y-97002380D01*
X131392857Y-96002380D02*
X132011904Y-96002380D01*
X131678571Y-96383333D01*
X131821428Y-96383333D01*
X131916666Y-96430952D01*
X131964285Y-96478571D01*
X132011904Y-96573809D01*
X132011904Y-96811904D01*
X131964285Y-96907142D01*
X131916666Y-96954761D01*
X131821428Y-97002380D01*
X131535714Y-97002380D01*
X131440476Y-96954761D01*
X131392857Y-96907142D01*
X130607142Y-103002380D02*
X130273809Y-102526190D01*
X130035714Y-103002380D02*
X130035714Y-102002380D01*
X130416666Y-102002380D01*
X130511904Y-102050000D01*
X130559523Y-102097619D01*
X130607142Y-102192857D01*
X130607142Y-102335714D01*
X130559523Y-102430952D01*
X130511904Y-102478571D01*
X130416666Y-102526190D01*
X130035714Y-102526190D01*
X130988095Y-102097619D02*
X131035714Y-102050000D01*
X131130952Y-102002380D01*
X131369047Y-102002380D01*
X131464285Y-102050000D01*
X131511904Y-102097619D01*
X131559523Y-102192857D01*
X131559523Y-102288095D01*
X131511904Y-102430952D01*
X130940476Y-103002380D01*
X131559523Y-103002380D01*
X132511904Y-103002380D02*
X131940476Y-103002380D01*
X132226190Y-103002380D02*
X132226190Y-102002380D01*
X132130952Y-102145238D01*
X132035714Y-102240476D01*
X131940476Y-102288095D01*
X155191380Y-61888666D02*
X154715190Y-62222000D01*
X155191380Y-62460095D02*
X154191380Y-62460095D01*
X154191380Y-62079142D01*
X154239000Y-61983904D01*
X154286619Y-61936285D01*
X154381857Y-61888666D01*
X154524714Y-61888666D01*
X154619952Y-61936285D01*
X154667571Y-61983904D01*
X154715190Y-62079142D01*
X154715190Y-62460095D01*
X154286619Y-61507714D02*
X154239000Y-61460095D01*
X154191380Y-61364857D01*
X154191380Y-61126761D01*
X154239000Y-61031523D01*
X154286619Y-60983904D01*
X154381857Y-60936285D01*
X154477095Y-60936285D01*
X154619952Y-60983904D01*
X155191380Y-61555333D01*
X155191380Y-60936285D01*
X149902380Y-103642857D02*
X149426190Y-103976190D01*
X149902380Y-104214285D02*
X148902380Y-104214285D01*
X148902380Y-103833333D01*
X148950000Y-103738095D01*
X148997619Y-103690476D01*
X149092857Y-103642857D01*
X149235714Y-103642857D01*
X149330952Y-103690476D01*
X149378571Y-103738095D01*
X149426190Y-103833333D01*
X149426190Y-104214285D01*
X149902380Y-102690476D02*
X149902380Y-103261904D01*
X149902380Y-102976190D02*
X148902380Y-102976190D01*
X149045238Y-103071428D01*
X149140476Y-103166666D01*
X149188095Y-103261904D01*
X149330952Y-102119047D02*
X149283333Y-102214285D01*
X149235714Y-102261904D01*
X149140476Y-102309523D01*
X149092857Y-102309523D01*
X148997619Y-102261904D01*
X148950000Y-102214285D01*
X148902380Y-102119047D01*
X148902380Y-101928571D01*
X148950000Y-101833333D01*
X148997619Y-101785714D01*
X149092857Y-101738095D01*
X149140476Y-101738095D01*
X149235714Y-101785714D01*
X149283333Y-101833333D01*
X149330952Y-101928571D01*
X149330952Y-102119047D01*
X149378571Y-102214285D01*
X149426190Y-102261904D01*
X149521428Y-102309523D01*
X149711904Y-102309523D01*
X149807142Y-102261904D01*
X149854761Y-102214285D01*
X149902380Y-102119047D01*
X149902380Y-101928571D01*
X149854761Y-101833333D01*
X149807142Y-101785714D01*
X149711904Y-101738095D01*
X149521428Y-101738095D01*
X149426190Y-101785714D01*
X149378571Y-101833333D01*
X149330952Y-101928571D01*
X153902380Y-92892857D02*
X153426190Y-93226190D01*
X153902380Y-93464285D02*
X152902380Y-93464285D01*
X152902380Y-93083333D01*
X152950000Y-92988095D01*
X152997619Y-92940476D01*
X153092857Y-92892857D01*
X153235714Y-92892857D01*
X153330952Y-92940476D01*
X153378571Y-92988095D01*
X153426190Y-93083333D01*
X153426190Y-93464285D01*
X152997619Y-92511904D02*
X152950000Y-92464285D01*
X152902380Y-92369047D01*
X152902380Y-92130952D01*
X152950000Y-92035714D01*
X152997619Y-91988095D01*
X153092857Y-91940476D01*
X153188095Y-91940476D01*
X153330952Y-91988095D01*
X153902380Y-92559523D01*
X153902380Y-91940476D01*
X153235714Y-91083333D02*
X153902380Y-91083333D01*
X152854761Y-91321428D02*
X153569047Y-91559523D01*
X153569047Y-90940476D01*
X160002380Y-72642857D02*
X159526190Y-72976190D01*
X160002380Y-73214285D02*
X159002380Y-73214285D01*
X159002380Y-72833333D01*
X159050000Y-72738095D01*
X159097619Y-72690476D01*
X159192857Y-72642857D01*
X159335714Y-72642857D01*
X159430952Y-72690476D01*
X159478571Y-72738095D01*
X159526190Y-72833333D01*
X159526190Y-73214285D01*
X160002380Y-71690476D02*
X160002380Y-72261904D01*
X160002380Y-71976190D02*
X159002380Y-71976190D01*
X159145238Y-72071428D01*
X159240476Y-72166666D01*
X159288095Y-72261904D01*
X159002380Y-70833333D02*
X159002380Y-71023809D01*
X159050000Y-71119047D01*
X159097619Y-71166666D01*
X159240476Y-71261904D01*
X159430952Y-71309523D01*
X159811904Y-71309523D01*
X159907142Y-71261904D01*
X159954761Y-71214285D01*
X160002380Y-71119047D01*
X160002380Y-70928571D01*
X159954761Y-70833333D01*
X159907142Y-70785714D01*
X159811904Y-70738095D01*
X159573809Y-70738095D01*
X159478571Y-70785714D01*
X159430952Y-70833333D01*
X159383333Y-70928571D01*
X159383333Y-71119047D01*
X159430952Y-71214285D01*
X159478571Y-71261904D01*
X159573809Y-71309523D01*
X165002380Y-73642857D02*
X164526190Y-73976190D01*
X165002380Y-74214285D02*
X164002380Y-74214285D01*
X164002380Y-73833333D01*
X164050000Y-73738095D01*
X164097619Y-73690476D01*
X164192857Y-73642857D01*
X164335714Y-73642857D01*
X164430952Y-73690476D01*
X164478571Y-73738095D01*
X164526190Y-73833333D01*
X164526190Y-74214285D01*
X165002380Y-72690476D02*
X165002380Y-73261904D01*
X165002380Y-72976190D02*
X164002380Y-72976190D01*
X164145238Y-73071428D01*
X164240476Y-73166666D01*
X164288095Y-73261904D01*
X164002380Y-71785714D02*
X164002380Y-72261904D01*
X164478571Y-72309523D01*
X164430952Y-72261904D01*
X164383333Y-72166666D01*
X164383333Y-71928571D01*
X164430952Y-71833333D01*
X164478571Y-71785714D01*
X164573809Y-71738095D01*
X164811904Y-71738095D01*
X164907142Y-71785714D01*
X164954761Y-71833333D01*
X165002380Y-71928571D01*
X165002380Y-72166666D01*
X164954761Y-72261904D01*
X164907142Y-72309523D01*
X174833333Y-85902380D02*
X174500000Y-85426190D01*
X174261904Y-85902380D02*
X174261904Y-84902380D01*
X174642857Y-84902380D01*
X174738095Y-84950000D01*
X174785714Y-84997619D01*
X174833333Y-85092857D01*
X174833333Y-85235714D01*
X174785714Y-85330952D01*
X174738095Y-85378571D01*
X174642857Y-85426190D01*
X174261904Y-85426190D01*
X175166666Y-84902380D02*
X175785714Y-84902380D01*
X175452380Y-85283333D01*
X175595238Y-85283333D01*
X175690476Y-85330952D01*
X175738095Y-85378571D01*
X175785714Y-85473809D01*
X175785714Y-85711904D01*
X175738095Y-85807142D01*
X175690476Y-85854761D01*
X175595238Y-85902380D01*
X175309523Y-85902380D01*
X175214285Y-85854761D01*
X175166666Y-85807142D01*
X184357142Y-60002380D02*
X184023809Y-59526190D01*
X183785714Y-60002380D02*
X183785714Y-59002380D01*
X184166666Y-59002380D01*
X184261904Y-59050000D01*
X184309523Y-59097619D01*
X184357142Y-59192857D01*
X184357142Y-59335714D01*
X184309523Y-59430952D01*
X184261904Y-59478571D01*
X184166666Y-59526190D01*
X183785714Y-59526190D01*
X185309523Y-60002380D02*
X184738095Y-60002380D01*
X185023809Y-60002380D02*
X185023809Y-59002380D01*
X184928571Y-59145238D01*
X184833333Y-59240476D01*
X184738095Y-59288095D01*
X185690476Y-59097619D02*
X185738095Y-59050000D01*
X185833333Y-59002380D01*
X186071428Y-59002380D01*
X186166666Y-59050000D01*
X186214285Y-59097619D01*
X186261904Y-59192857D01*
X186261904Y-59288095D01*
X186214285Y-59430952D01*
X185642857Y-60002380D01*
X186261904Y-60002380D01*
X186002380Y-72392857D02*
X185526190Y-72726190D01*
X186002380Y-72964285D02*
X185002380Y-72964285D01*
X185002380Y-72583333D01*
X185050000Y-72488095D01*
X185097619Y-72440476D01*
X185192857Y-72392857D01*
X185335714Y-72392857D01*
X185430952Y-72440476D01*
X185478571Y-72488095D01*
X185526190Y-72583333D01*
X185526190Y-72964285D01*
X186002380Y-71440476D02*
X186002380Y-72011904D01*
X186002380Y-71726190D02*
X185002380Y-71726190D01*
X185145238Y-71821428D01*
X185240476Y-71916666D01*
X185288095Y-72011904D01*
X186002380Y-70488095D02*
X186002380Y-71059523D01*
X186002380Y-70773809D02*
X185002380Y-70773809D01*
X185145238Y-70869047D01*
X185240476Y-70964285D01*
X185288095Y-71059523D01*
X188902380Y-102642857D02*
X188426190Y-102976190D01*
X188902380Y-103214285D02*
X187902380Y-103214285D01*
X187902380Y-102833333D01*
X187950000Y-102738095D01*
X187997619Y-102690476D01*
X188092857Y-102642857D01*
X188235714Y-102642857D01*
X188330952Y-102690476D01*
X188378571Y-102738095D01*
X188426190Y-102833333D01*
X188426190Y-103214285D01*
X188902380Y-101690476D02*
X188902380Y-102261904D01*
X188902380Y-101976190D02*
X187902380Y-101976190D01*
X188045238Y-102071428D01*
X188140476Y-102166666D01*
X188188095Y-102261904D01*
X187902380Y-101071428D02*
X187902380Y-100976190D01*
X187950000Y-100880952D01*
X187997619Y-100833333D01*
X188092857Y-100785714D01*
X188283333Y-100738095D01*
X188521428Y-100738095D01*
X188711904Y-100785714D01*
X188807142Y-100833333D01*
X188854761Y-100880952D01*
X188902380Y-100976190D01*
X188902380Y-101071428D01*
X188854761Y-101166666D01*
X188807142Y-101214285D01*
X188711904Y-101261904D01*
X188521428Y-101309523D01*
X188283333Y-101309523D01*
X188092857Y-101261904D01*
X187997619Y-101214285D01*
X187950000Y-101166666D01*
X187902380Y-101071428D01*
X189002380Y-67166666D02*
X188526190Y-67500000D01*
X189002380Y-67738095D02*
X188002380Y-67738095D01*
X188002380Y-67357142D01*
X188050000Y-67261904D01*
X188097619Y-67214285D01*
X188192857Y-67166666D01*
X188335714Y-67166666D01*
X188430952Y-67214285D01*
X188478571Y-67261904D01*
X188526190Y-67357142D01*
X188526190Y-67738095D01*
X188002380Y-66309523D02*
X188002380Y-66500000D01*
X188050000Y-66595238D01*
X188097619Y-66642857D01*
X188240476Y-66738095D01*
X188430952Y-66785714D01*
X188811904Y-66785714D01*
X188907142Y-66738095D01*
X188954761Y-66690476D01*
X189002380Y-66595238D01*
X189002380Y-66404761D01*
X188954761Y-66309523D01*
X188907142Y-66261904D01*
X188811904Y-66214285D01*
X188573809Y-66214285D01*
X188478571Y-66261904D01*
X188430952Y-66309523D01*
X188383333Y-66404761D01*
X188383333Y-66595238D01*
X188430952Y-66690476D01*
X188478571Y-66738095D01*
X188573809Y-66785714D01*
X194002380Y-65166666D02*
X193526190Y-65500000D01*
X194002380Y-65738095D02*
X193002380Y-65738095D01*
X193002380Y-65357142D01*
X193050000Y-65261904D01*
X193097619Y-65214285D01*
X193192857Y-65166666D01*
X193335714Y-65166666D01*
X193430952Y-65214285D01*
X193478571Y-65261904D01*
X193526190Y-65357142D01*
X193526190Y-65738095D01*
X193002380Y-64261904D02*
X193002380Y-64738095D01*
X193478571Y-64785714D01*
X193430952Y-64738095D01*
X193383333Y-64642857D01*
X193383333Y-64404761D01*
X193430952Y-64309523D01*
X193478571Y-64261904D01*
X193573809Y-64214285D01*
X193811904Y-64214285D01*
X193907142Y-64261904D01*
X193954761Y-64309523D01*
X194002380Y-64404761D01*
X194002380Y-64642857D01*
X193954761Y-64738095D01*
X193907142Y-64785714D01*
X157731380Y-61888666D02*
X157255190Y-62222000D01*
X157731380Y-62460095D02*
X156731380Y-62460095D01*
X156731380Y-62079142D01*
X156779000Y-61983904D01*
X156826619Y-61936285D01*
X156921857Y-61888666D01*
X157064714Y-61888666D01*
X157159952Y-61936285D01*
X157207571Y-61983904D01*
X157255190Y-62079142D01*
X157255190Y-62460095D01*
X157064714Y-61031523D02*
X157731380Y-61031523D01*
X156683761Y-61269619D02*
X157398047Y-61507714D01*
X157398047Y-60888666D01*
X147002380Y-107642857D02*
X146526190Y-107976190D01*
X147002380Y-108214285D02*
X146002380Y-108214285D01*
X146002380Y-107833333D01*
X146050000Y-107738095D01*
X146097619Y-107690476D01*
X146192857Y-107642857D01*
X146335714Y-107642857D01*
X146430952Y-107690476D01*
X146478571Y-107738095D01*
X146526190Y-107833333D01*
X146526190Y-108214285D01*
X147002380Y-106690476D02*
X147002380Y-107261904D01*
X147002380Y-106976190D02*
X146002380Y-106976190D01*
X146145238Y-107071428D01*
X146240476Y-107166666D01*
X146288095Y-107261904D01*
X146335714Y-105833333D02*
X147002380Y-105833333D01*
X145954761Y-106071428D02*
X146669047Y-106309523D01*
X146669047Y-105690476D01*
X161902380Y-110166666D02*
X161426190Y-110500000D01*
X161902380Y-110738095D02*
X160902380Y-110738095D01*
X160902380Y-110357142D01*
X160950000Y-110261904D01*
X160997619Y-110214285D01*
X161092857Y-110166666D01*
X161235714Y-110166666D01*
X161330952Y-110214285D01*
X161378571Y-110261904D01*
X161426190Y-110357142D01*
X161426190Y-110738095D01*
X161330952Y-109595238D02*
X161283333Y-109690476D01*
X161235714Y-109738095D01*
X161140476Y-109785714D01*
X161092857Y-109785714D01*
X160997619Y-109738095D01*
X160950000Y-109690476D01*
X160902380Y-109595238D01*
X160902380Y-109404761D01*
X160950000Y-109309523D01*
X160997619Y-109261904D01*
X161092857Y-109214285D01*
X161140476Y-109214285D01*
X161235714Y-109261904D01*
X161283333Y-109309523D01*
X161330952Y-109404761D01*
X161330952Y-109595238D01*
X161378571Y-109690476D01*
X161426190Y-109738095D01*
X161521428Y-109785714D01*
X161711904Y-109785714D01*
X161807142Y-109738095D01*
X161854761Y-109690476D01*
X161902380Y-109595238D01*
X161902380Y-109404761D01*
X161854761Y-109309523D01*
X161807142Y-109261904D01*
X161711904Y-109214285D01*
X161521428Y-109214285D01*
X161426190Y-109261904D01*
X161378571Y-109309523D01*
X161330952Y-109404761D01*
X162892380Y-110031904D02*
X163701904Y-110031904D01*
X163797142Y-109984285D01*
X163844761Y-109936666D01*
X163892380Y-109841428D01*
X163892380Y-109650952D01*
X163844761Y-109555714D01*
X163797142Y-109508095D01*
X163701904Y-109460476D01*
X162892380Y-109460476D01*
X162987619Y-109031904D02*
X162940000Y-108984285D01*
X162892380Y-108889047D01*
X162892380Y-108650952D01*
X162940000Y-108555714D01*
X162987619Y-108508095D01*
X163082857Y-108460476D01*
X163178095Y-108460476D01*
X163320952Y-108508095D01*
X163892380Y-109079523D01*
X163892380Y-108460476D01*
X157174761Y-89987619D02*
X157079523Y-89940000D01*
X156984285Y-89844761D01*
X156841428Y-89701904D01*
X156746190Y-89654285D01*
X156650952Y-89654285D01*
X156698571Y-89892380D02*
X156603333Y-89844761D01*
X156508095Y-89749523D01*
X156460476Y-89559047D01*
X156460476Y-89225714D01*
X156508095Y-89035238D01*
X156603333Y-88940000D01*
X156698571Y-88892380D01*
X156889047Y-88892380D01*
X156984285Y-88940000D01*
X157079523Y-89035238D01*
X157127142Y-89225714D01*
X157127142Y-89559047D01*
X157079523Y-89749523D01*
X156984285Y-89844761D01*
X156889047Y-89892380D01*
X156698571Y-89892380D01*
X157984285Y-88892380D02*
X157793809Y-88892380D01*
X157698571Y-88940000D01*
X157650952Y-88987619D01*
X157555714Y-89130476D01*
X157508095Y-89320952D01*
X157508095Y-89701904D01*
X157555714Y-89797142D01*
X157603333Y-89844761D01*
X157698571Y-89892380D01*
X157889047Y-89892380D01*
X157984285Y-89844761D01*
X158031904Y-89797142D01*
X158079523Y-89701904D01*
X158079523Y-89463809D01*
X158031904Y-89368571D01*
X157984285Y-89320952D01*
X157889047Y-89273333D01*
X157698571Y-89273333D01*
X157603333Y-89320952D01*
X157555714Y-89368571D01*
X157508095Y-89463809D01*
X157174761Y-97987619D02*
X157079523Y-97940000D01*
X156984285Y-97844761D01*
X156841428Y-97701904D01*
X156746190Y-97654285D01*
X156650952Y-97654285D01*
X156698571Y-97892380D02*
X156603333Y-97844761D01*
X156508095Y-97749523D01*
X156460476Y-97559047D01*
X156460476Y-97225714D01*
X156508095Y-97035238D01*
X156603333Y-96940000D01*
X156698571Y-96892380D01*
X156889047Y-96892380D01*
X156984285Y-96940000D01*
X157079523Y-97035238D01*
X157127142Y-97225714D01*
X157127142Y-97559047D01*
X157079523Y-97749523D01*
X156984285Y-97844761D01*
X156889047Y-97892380D01*
X156698571Y-97892380D01*
X157460476Y-96892380D02*
X158127142Y-96892380D01*
X157698571Y-97892380D01*
X154174761Y-110987619D02*
X154079523Y-110940000D01*
X153984285Y-110844761D01*
X153841428Y-110701904D01*
X153746190Y-110654285D01*
X153650952Y-110654285D01*
X153698571Y-110892380D02*
X153603333Y-110844761D01*
X153508095Y-110749523D01*
X153460476Y-110559047D01*
X153460476Y-110225714D01*
X153508095Y-110035238D01*
X153603333Y-109940000D01*
X153698571Y-109892380D01*
X153889047Y-109892380D01*
X153984285Y-109940000D01*
X154079523Y-110035238D01*
X154127142Y-110225714D01*
X154127142Y-110559047D01*
X154079523Y-110749523D01*
X153984285Y-110844761D01*
X153889047Y-110892380D01*
X153698571Y-110892380D01*
X155079523Y-110892380D02*
X154508095Y-110892380D01*
X154793809Y-110892380D02*
X154793809Y-109892380D01*
X154698571Y-110035238D01*
X154603333Y-110130476D01*
X154508095Y-110178095D01*
X189107619Y-108365238D02*
X189060000Y-108460476D01*
X188964761Y-108555714D01*
X188821904Y-108698571D01*
X188774285Y-108793809D01*
X188774285Y-108889047D01*
X189012380Y-108841428D02*
X188964761Y-108936666D01*
X188869523Y-109031904D01*
X188679047Y-109079523D01*
X188345714Y-109079523D01*
X188155238Y-109031904D01*
X188060000Y-108936666D01*
X188012380Y-108841428D01*
X188012380Y-108650952D01*
X188060000Y-108555714D01*
X188155238Y-108460476D01*
X188345714Y-108412857D01*
X188679047Y-108412857D01*
X188869523Y-108460476D01*
X188964761Y-108555714D01*
X189012380Y-108650952D01*
X189012380Y-108841428D01*
X188107619Y-108031904D02*
X188060000Y-107984285D01*
X188012380Y-107889047D01*
X188012380Y-107650952D01*
X188060000Y-107555714D01*
X188107619Y-107508095D01*
X188202857Y-107460476D01*
X188298095Y-107460476D01*
X188440952Y-107508095D01*
X189012380Y-108079523D01*
X189012380Y-107460476D01*
X140634761Y-113107619D02*
X140539523Y-113060000D01*
X140444285Y-112964761D01*
X140301428Y-112821904D01*
X140206190Y-112774285D01*
X140110952Y-112774285D01*
X140158571Y-113012380D02*
X140063333Y-112964761D01*
X139968095Y-112869523D01*
X139920476Y-112679047D01*
X139920476Y-112345714D01*
X139968095Y-112155238D01*
X140063333Y-112060000D01*
X140158571Y-112012380D01*
X140349047Y-112012380D01*
X140444285Y-112060000D01*
X140539523Y-112155238D01*
X140587142Y-112345714D01*
X140587142Y-112679047D01*
X140539523Y-112869523D01*
X140444285Y-112964761D01*
X140349047Y-113012380D01*
X140158571Y-113012380D01*
X140920476Y-112012380D02*
X141539523Y-112012380D01*
X141206190Y-112393333D01*
X141349047Y-112393333D01*
X141444285Y-112440952D01*
X141491904Y-112488571D01*
X141539523Y-112583809D01*
X141539523Y-112821904D01*
X141491904Y-112917142D01*
X141444285Y-112964761D01*
X141349047Y-113012380D01*
X141063333Y-113012380D01*
X140968095Y-112964761D01*
X140920476Y-112917142D01*
X180634761Y-105107619D02*
X180539523Y-105060000D01*
X180444285Y-104964761D01*
X180301428Y-104821904D01*
X180206190Y-104774285D01*
X180110952Y-104774285D01*
X180158571Y-105012380D02*
X180063333Y-104964761D01*
X179968095Y-104869523D01*
X179920476Y-104679047D01*
X179920476Y-104345714D01*
X179968095Y-104155238D01*
X180063333Y-104060000D01*
X180158571Y-104012380D01*
X180349047Y-104012380D01*
X180444285Y-104060000D01*
X180539523Y-104155238D01*
X180587142Y-104345714D01*
X180587142Y-104679047D01*
X180539523Y-104869523D01*
X180444285Y-104964761D01*
X180349047Y-105012380D01*
X180158571Y-105012380D01*
X181444285Y-104345714D02*
X181444285Y-105012380D01*
X181206190Y-103964761D02*
X180968095Y-104679047D01*
X181587142Y-104679047D01*
X140174761Y-97987619D02*
X140079523Y-97940000D01*
X139984285Y-97844761D01*
X139841428Y-97701904D01*
X139746190Y-97654285D01*
X139650952Y-97654285D01*
X139698571Y-97892380D02*
X139603333Y-97844761D01*
X139508095Y-97749523D01*
X139460476Y-97559047D01*
X139460476Y-97225714D01*
X139508095Y-97035238D01*
X139603333Y-96940000D01*
X139698571Y-96892380D01*
X139889047Y-96892380D01*
X139984285Y-96940000D01*
X140079523Y-97035238D01*
X140127142Y-97225714D01*
X140127142Y-97559047D01*
X140079523Y-97749523D01*
X139984285Y-97844761D01*
X139889047Y-97892380D01*
X139698571Y-97892380D01*
X141031904Y-96892380D02*
X140555714Y-96892380D01*
X140508095Y-97368571D01*
X140555714Y-97320952D01*
X140650952Y-97273333D01*
X140889047Y-97273333D01*
X140984285Y-97320952D01*
X141031904Y-97368571D01*
X141079523Y-97463809D01*
X141079523Y-97701904D01*
X141031904Y-97797142D01*
X140984285Y-97844761D01*
X140889047Y-97892380D01*
X140650952Y-97892380D01*
X140555714Y-97844761D01*
X140508095Y-97797142D01*
M02*
