G04 #@! TF.GenerationSoftware,KiCad,Pcbnew,(5.1.5)-2*
G04 #@! TF.CreationDate,2019-12-22T19:38:14-08:00*
G04 #@! TF.ProjectId,DashSight-Mezzanine-Card,44617368-5369-4676-9874-2d4d657a7a61,rev?*
G04 #@! TF.SameCoordinates,Original*
G04 #@! TF.FileFunction,Soldermask,Bot*
G04 #@! TF.FilePolarity,Negative*
%FSLAX46Y46*%
G04 Gerber Fmt 4.6, Leading zero omitted, Abs format (unit mm)*
G04 Created by KiCad (PCBNEW (5.1.5)-2) date 2019-12-22 19:38:14*
%MOMM*%
%LPD*%
G04 APERTURE LIST*
%ADD10C,0.100000*%
G04 APERTURE END LIST*
D10*
G36*
X179347935Y-122182664D02*
G01*
X179502624Y-122246739D01*
X179502626Y-122246740D01*
X179641844Y-122339762D01*
X179760238Y-122458156D01*
X179853260Y-122597374D01*
X179853261Y-122597376D01*
X179917336Y-122752065D01*
X179950000Y-122916281D01*
X179950000Y-123083719D01*
X179917336Y-123247935D01*
X179853261Y-123402624D01*
X179853260Y-123402626D01*
X179760238Y-123541844D01*
X179641844Y-123660238D01*
X179502626Y-123753260D01*
X179502625Y-123753261D01*
X179502624Y-123753261D01*
X179347935Y-123817336D01*
X179183719Y-123850000D01*
X179016281Y-123850000D01*
X178852065Y-123817336D01*
X178697376Y-123753261D01*
X178697375Y-123753261D01*
X178697374Y-123753260D01*
X178558156Y-123660238D01*
X178439762Y-123541844D01*
X178346740Y-123402626D01*
X178346739Y-123402624D01*
X178282664Y-123247935D01*
X178250000Y-123083719D01*
X178250000Y-122916281D01*
X178282664Y-122752065D01*
X178346739Y-122597376D01*
X178346740Y-122597374D01*
X178439762Y-122458156D01*
X178558156Y-122339762D01*
X178697374Y-122246740D01*
X178697376Y-122246739D01*
X178852065Y-122182664D01*
X179016281Y-122150000D01*
X179183719Y-122150000D01*
X179347935Y-122182664D01*
G37*
G36*
X159027935Y-122182664D02*
G01*
X159182624Y-122246739D01*
X159182626Y-122246740D01*
X159321844Y-122339762D01*
X159440238Y-122458156D01*
X159533260Y-122597374D01*
X159533261Y-122597376D01*
X159597336Y-122752065D01*
X159630000Y-122916281D01*
X159630000Y-123083719D01*
X159597336Y-123247935D01*
X159533261Y-123402624D01*
X159533260Y-123402626D01*
X159440238Y-123541844D01*
X159321844Y-123660238D01*
X159182626Y-123753260D01*
X159182625Y-123753261D01*
X159182624Y-123753261D01*
X159027935Y-123817336D01*
X158863719Y-123850000D01*
X158696281Y-123850000D01*
X158532065Y-123817336D01*
X158377376Y-123753261D01*
X158377375Y-123753261D01*
X158377374Y-123753260D01*
X158238156Y-123660238D01*
X158119762Y-123541844D01*
X158026740Y-123402626D01*
X158026739Y-123402624D01*
X157962664Y-123247935D01*
X157930000Y-123083719D01*
X157930000Y-122916281D01*
X157962664Y-122752065D01*
X158026739Y-122597376D01*
X158026740Y-122597374D01*
X158119762Y-122458156D01*
X158238156Y-122339762D01*
X158377374Y-122246740D01*
X158377376Y-122246739D01*
X158532065Y-122182664D01*
X158696281Y-122150000D01*
X158863719Y-122150000D01*
X159027935Y-122182664D01*
G37*
G36*
X141850000Y-123850000D02*
G01*
X140150000Y-123850000D01*
X140150000Y-122150000D01*
X141850000Y-122150000D01*
X141850000Y-123850000D01*
G37*
G36*
X143787935Y-122182664D02*
G01*
X143942624Y-122246739D01*
X143942626Y-122246740D01*
X144081844Y-122339762D01*
X144200238Y-122458156D01*
X144293260Y-122597374D01*
X144293261Y-122597376D01*
X144357336Y-122752065D01*
X144390000Y-122916281D01*
X144390000Y-123083719D01*
X144357336Y-123247935D01*
X144293261Y-123402624D01*
X144293260Y-123402626D01*
X144200238Y-123541844D01*
X144081844Y-123660238D01*
X143942626Y-123753260D01*
X143942625Y-123753261D01*
X143942624Y-123753261D01*
X143787935Y-123817336D01*
X143623719Y-123850000D01*
X143456281Y-123850000D01*
X143292065Y-123817336D01*
X143137376Y-123753261D01*
X143137375Y-123753261D01*
X143137374Y-123753260D01*
X142998156Y-123660238D01*
X142879762Y-123541844D01*
X142786740Y-123402626D01*
X142786739Y-123402624D01*
X142722664Y-123247935D01*
X142690000Y-123083719D01*
X142690000Y-122916281D01*
X142722664Y-122752065D01*
X142786739Y-122597376D01*
X142786740Y-122597374D01*
X142879762Y-122458156D01*
X142998156Y-122339762D01*
X143137374Y-122246740D01*
X143137376Y-122246739D01*
X143292065Y-122182664D01*
X143456281Y-122150000D01*
X143623719Y-122150000D01*
X143787935Y-122182664D01*
G37*
G36*
X146327935Y-122182664D02*
G01*
X146482624Y-122246739D01*
X146482626Y-122246740D01*
X146621844Y-122339762D01*
X146740238Y-122458156D01*
X146833260Y-122597374D01*
X146833261Y-122597376D01*
X146897336Y-122752065D01*
X146930000Y-122916281D01*
X146930000Y-123083719D01*
X146897336Y-123247935D01*
X146833261Y-123402624D01*
X146833260Y-123402626D01*
X146740238Y-123541844D01*
X146621844Y-123660238D01*
X146482626Y-123753260D01*
X146482625Y-123753261D01*
X146482624Y-123753261D01*
X146327935Y-123817336D01*
X146163719Y-123850000D01*
X145996281Y-123850000D01*
X145832065Y-123817336D01*
X145677376Y-123753261D01*
X145677375Y-123753261D01*
X145677374Y-123753260D01*
X145538156Y-123660238D01*
X145419762Y-123541844D01*
X145326740Y-123402626D01*
X145326739Y-123402624D01*
X145262664Y-123247935D01*
X145230000Y-123083719D01*
X145230000Y-122916281D01*
X145262664Y-122752065D01*
X145326739Y-122597376D01*
X145326740Y-122597374D01*
X145419762Y-122458156D01*
X145538156Y-122339762D01*
X145677374Y-122246740D01*
X145677376Y-122246739D01*
X145832065Y-122182664D01*
X145996281Y-122150000D01*
X146163719Y-122150000D01*
X146327935Y-122182664D01*
G37*
G36*
X148867935Y-122182664D02*
G01*
X149022624Y-122246739D01*
X149022626Y-122246740D01*
X149161844Y-122339762D01*
X149280238Y-122458156D01*
X149373260Y-122597374D01*
X149373261Y-122597376D01*
X149437336Y-122752065D01*
X149470000Y-122916281D01*
X149470000Y-123083719D01*
X149437336Y-123247935D01*
X149373261Y-123402624D01*
X149373260Y-123402626D01*
X149280238Y-123541844D01*
X149161844Y-123660238D01*
X149022626Y-123753260D01*
X149022625Y-123753261D01*
X149022624Y-123753261D01*
X148867935Y-123817336D01*
X148703719Y-123850000D01*
X148536281Y-123850000D01*
X148372065Y-123817336D01*
X148217376Y-123753261D01*
X148217375Y-123753261D01*
X148217374Y-123753260D01*
X148078156Y-123660238D01*
X147959762Y-123541844D01*
X147866740Y-123402626D01*
X147866739Y-123402624D01*
X147802664Y-123247935D01*
X147770000Y-123083719D01*
X147770000Y-122916281D01*
X147802664Y-122752065D01*
X147866739Y-122597376D01*
X147866740Y-122597374D01*
X147959762Y-122458156D01*
X148078156Y-122339762D01*
X148217374Y-122246740D01*
X148217376Y-122246739D01*
X148372065Y-122182664D01*
X148536281Y-122150000D01*
X148703719Y-122150000D01*
X148867935Y-122182664D01*
G37*
G36*
X151407935Y-122182664D02*
G01*
X151562624Y-122246739D01*
X151562626Y-122246740D01*
X151701844Y-122339762D01*
X151820238Y-122458156D01*
X151913260Y-122597374D01*
X151913261Y-122597376D01*
X151977336Y-122752065D01*
X152010000Y-122916281D01*
X152010000Y-123083719D01*
X151977336Y-123247935D01*
X151913261Y-123402624D01*
X151913260Y-123402626D01*
X151820238Y-123541844D01*
X151701844Y-123660238D01*
X151562626Y-123753260D01*
X151562625Y-123753261D01*
X151562624Y-123753261D01*
X151407935Y-123817336D01*
X151243719Y-123850000D01*
X151076281Y-123850000D01*
X150912065Y-123817336D01*
X150757376Y-123753261D01*
X150757375Y-123753261D01*
X150757374Y-123753260D01*
X150618156Y-123660238D01*
X150499762Y-123541844D01*
X150406740Y-123402626D01*
X150406739Y-123402624D01*
X150342664Y-123247935D01*
X150310000Y-123083719D01*
X150310000Y-122916281D01*
X150342664Y-122752065D01*
X150406739Y-122597376D01*
X150406740Y-122597374D01*
X150499762Y-122458156D01*
X150618156Y-122339762D01*
X150757374Y-122246740D01*
X150757376Y-122246739D01*
X150912065Y-122182664D01*
X151076281Y-122150000D01*
X151243719Y-122150000D01*
X151407935Y-122182664D01*
G37*
G36*
X153947935Y-122182664D02*
G01*
X154102624Y-122246739D01*
X154102626Y-122246740D01*
X154241844Y-122339762D01*
X154360238Y-122458156D01*
X154453260Y-122597374D01*
X154453261Y-122597376D01*
X154517336Y-122752065D01*
X154550000Y-122916281D01*
X154550000Y-123083719D01*
X154517336Y-123247935D01*
X154453261Y-123402624D01*
X154453260Y-123402626D01*
X154360238Y-123541844D01*
X154241844Y-123660238D01*
X154102626Y-123753260D01*
X154102625Y-123753261D01*
X154102624Y-123753261D01*
X153947935Y-123817336D01*
X153783719Y-123850000D01*
X153616281Y-123850000D01*
X153452065Y-123817336D01*
X153297376Y-123753261D01*
X153297375Y-123753261D01*
X153297374Y-123753260D01*
X153158156Y-123660238D01*
X153039762Y-123541844D01*
X152946740Y-123402626D01*
X152946739Y-123402624D01*
X152882664Y-123247935D01*
X152850000Y-123083719D01*
X152850000Y-122916281D01*
X152882664Y-122752065D01*
X152946739Y-122597376D01*
X152946740Y-122597374D01*
X153039762Y-122458156D01*
X153158156Y-122339762D01*
X153297374Y-122246740D01*
X153297376Y-122246739D01*
X153452065Y-122182664D01*
X153616281Y-122150000D01*
X153783719Y-122150000D01*
X153947935Y-122182664D01*
G37*
G36*
X156487935Y-122182664D02*
G01*
X156642624Y-122246739D01*
X156642626Y-122246740D01*
X156781844Y-122339762D01*
X156900238Y-122458156D01*
X156993260Y-122597374D01*
X156993261Y-122597376D01*
X157057336Y-122752065D01*
X157090000Y-122916281D01*
X157090000Y-123083719D01*
X157057336Y-123247935D01*
X156993261Y-123402624D01*
X156993260Y-123402626D01*
X156900238Y-123541844D01*
X156781844Y-123660238D01*
X156642626Y-123753260D01*
X156642625Y-123753261D01*
X156642624Y-123753261D01*
X156487935Y-123817336D01*
X156323719Y-123850000D01*
X156156281Y-123850000D01*
X155992065Y-123817336D01*
X155837376Y-123753261D01*
X155837375Y-123753261D01*
X155837374Y-123753260D01*
X155698156Y-123660238D01*
X155579762Y-123541844D01*
X155486740Y-123402626D01*
X155486739Y-123402624D01*
X155422664Y-123247935D01*
X155390000Y-123083719D01*
X155390000Y-122916281D01*
X155422664Y-122752065D01*
X155486739Y-122597376D01*
X155486740Y-122597374D01*
X155579762Y-122458156D01*
X155698156Y-122339762D01*
X155837374Y-122246740D01*
X155837376Y-122246739D01*
X155992065Y-122182664D01*
X156156281Y-122150000D01*
X156323719Y-122150000D01*
X156487935Y-122182664D01*
G37*
G36*
X161567935Y-122182664D02*
G01*
X161722624Y-122246739D01*
X161722626Y-122246740D01*
X161861844Y-122339762D01*
X161980238Y-122458156D01*
X162073260Y-122597374D01*
X162073261Y-122597376D01*
X162137336Y-122752065D01*
X162170000Y-122916281D01*
X162170000Y-123083719D01*
X162137336Y-123247935D01*
X162073261Y-123402624D01*
X162073260Y-123402626D01*
X161980238Y-123541844D01*
X161861844Y-123660238D01*
X161722626Y-123753260D01*
X161722625Y-123753261D01*
X161722624Y-123753261D01*
X161567935Y-123817336D01*
X161403719Y-123850000D01*
X161236281Y-123850000D01*
X161072065Y-123817336D01*
X160917376Y-123753261D01*
X160917375Y-123753261D01*
X160917374Y-123753260D01*
X160778156Y-123660238D01*
X160659762Y-123541844D01*
X160566740Y-123402626D01*
X160566739Y-123402624D01*
X160502664Y-123247935D01*
X160470000Y-123083719D01*
X160470000Y-122916281D01*
X160502664Y-122752065D01*
X160566739Y-122597376D01*
X160566740Y-122597374D01*
X160659762Y-122458156D01*
X160778156Y-122339762D01*
X160917374Y-122246740D01*
X160917376Y-122246739D01*
X161072065Y-122182664D01*
X161236281Y-122150000D01*
X161403719Y-122150000D01*
X161567935Y-122182664D01*
G37*
G36*
X164107935Y-122182664D02*
G01*
X164262624Y-122246739D01*
X164262626Y-122246740D01*
X164401844Y-122339762D01*
X164520238Y-122458156D01*
X164613260Y-122597374D01*
X164613261Y-122597376D01*
X164677336Y-122752065D01*
X164710000Y-122916281D01*
X164710000Y-123083719D01*
X164677336Y-123247935D01*
X164613261Y-123402624D01*
X164613260Y-123402626D01*
X164520238Y-123541844D01*
X164401844Y-123660238D01*
X164262626Y-123753260D01*
X164262625Y-123753261D01*
X164262624Y-123753261D01*
X164107935Y-123817336D01*
X163943719Y-123850000D01*
X163776281Y-123850000D01*
X163612065Y-123817336D01*
X163457376Y-123753261D01*
X163457375Y-123753261D01*
X163457374Y-123753260D01*
X163318156Y-123660238D01*
X163199762Y-123541844D01*
X163106740Y-123402626D01*
X163106739Y-123402624D01*
X163042664Y-123247935D01*
X163010000Y-123083719D01*
X163010000Y-122916281D01*
X163042664Y-122752065D01*
X163106739Y-122597376D01*
X163106740Y-122597374D01*
X163199762Y-122458156D01*
X163318156Y-122339762D01*
X163457374Y-122246740D01*
X163457376Y-122246739D01*
X163612065Y-122182664D01*
X163776281Y-122150000D01*
X163943719Y-122150000D01*
X164107935Y-122182664D01*
G37*
G36*
X166647935Y-122182664D02*
G01*
X166802624Y-122246739D01*
X166802626Y-122246740D01*
X166941844Y-122339762D01*
X167060238Y-122458156D01*
X167153260Y-122597374D01*
X167153261Y-122597376D01*
X167217336Y-122752065D01*
X167250000Y-122916281D01*
X167250000Y-123083719D01*
X167217336Y-123247935D01*
X167153261Y-123402624D01*
X167153260Y-123402626D01*
X167060238Y-123541844D01*
X166941844Y-123660238D01*
X166802626Y-123753260D01*
X166802625Y-123753261D01*
X166802624Y-123753261D01*
X166647935Y-123817336D01*
X166483719Y-123850000D01*
X166316281Y-123850000D01*
X166152065Y-123817336D01*
X165997376Y-123753261D01*
X165997375Y-123753261D01*
X165997374Y-123753260D01*
X165858156Y-123660238D01*
X165739762Y-123541844D01*
X165646740Y-123402626D01*
X165646739Y-123402624D01*
X165582664Y-123247935D01*
X165550000Y-123083719D01*
X165550000Y-122916281D01*
X165582664Y-122752065D01*
X165646739Y-122597376D01*
X165646740Y-122597374D01*
X165739762Y-122458156D01*
X165858156Y-122339762D01*
X165997374Y-122246740D01*
X165997376Y-122246739D01*
X166152065Y-122182664D01*
X166316281Y-122150000D01*
X166483719Y-122150000D01*
X166647935Y-122182664D01*
G37*
G36*
X169187935Y-122182664D02*
G01*
X169342624Y-122246739D01*
X169342626Y-122246740D01*
X169481844Y-122339762D01*
X169600238Y-122458156D01*
X169693260Y-122597374D01*
X169693261Y-122597376D01*
X169757336Y-122752065D01*
X169790000Y-122916281D01*
X169790000Y-123083719D01*
X169757336Y-123247935D01*
X169693261Y-123402624D01*
X169693260Y-123402626D01*
X169600238Y-123541844D01*
X169481844Y-123660238D01*
X169342626Y-123753260D01*
X169342625Y-123753261D01*
X169342624Y-123753261D01*
X169187935Y-123817336D01*
X169023719Y-123850000D01*
X168856281Y-123850000D01*
X168692065Y-123817336D01*
X168537376Y-123753261D01*
X168537375Y-123753261D01*
X168537374Y-123753260D01*
X168398156Y-123660238D01*
X168279762Y-123541844D01*
X168186740Y-123402626D01*
X168186739Y-123402624D01*
X168122664Y-123247935D01*
X168090000Y-123083719D01*
X168090000Y-122916281D01*
X168122664Y-122752065D01*
X168186739Y-122597376D01*
X168186740Y-122597374D01*
X168279762Y-122458156D01*
X168398156Y-122339762D01*
X168537374Y-122246740D01*
X168537376Y-122246739D01*
X168692065Y-122182664D01*
X168856281Y-122150000D01*
X169023719Y-122150000D01*
X169187935Y-122182664D01*
G37*
G36*
X171727935Y-122182664D02*
G01*
X171882624Y-122246739D01*
X171882626Y-122246740D01*
X172021844Y-122339762D01*
X172140238Y-122458156D01*
X172233260Y-122597374D01*
X172233261Y-122597376D01*
X172297336Y-122752065D01*
X172330000Y-122916281D01*
X172330000Y-123083719D01*
X172297336Y-123247935D01*
X172233261Y-123402624D01*
X172233260Y-123402626D01*
X172140238Y-123541844D01*
X172021844Y-123660238D01*
X171882626Y-123753260D01*
X171882625Y-123753261D01*
X171882624Y-123753261D01*
X171727935Y-123817336D01*
X171563719Y-123850000D01*
X171396281Y-123850000D01*
X171232065Y-123817336D01*
X171077376Y-123753261D01*
X171077375Y-123753261D01*
X171077374Y-123753260D01*
X170938156Y-123660238D01*
X170819762Y-123541844D01*
X170726740Y-123402626D01*
X170726739Y-123402624D01*
X170662664Y-123247935D01*
X170630000Y-123083719D01*
X170630000Y-122916281D01*
X170662664Y-122752065D01*
X170726739Y-122597376D01*
X170726740Y-122597374D01*
X170819762Y-122458156D01*
X170938156Y-122339762D01*
X171077374Y-122246740D01*
X171077376Y-122246739D01*
X171232065Y-122182664D01*
X171396281Y-122150000D01*
X171563719Y-122150000D01*
X171727935Y-122182664D01*
G37*
G36*
X174267935Y-122182664D02*
G01*
X174422624Y-122246739D01*
X174422626Y-122246740D01*
X174561844Y-122339762D01*
X174680238Y-122458156D01*
X174773260Y-122597374D01*
X174773261Y-122597376D01*
X174837336Y-122752065D01*
X174870000Y-122916281D01*
X174870000Y-123083719D01*
X174837336Y-123247935D01*
X174773261Y-123402624D01*
X174773260Y-123402626D01*
X174680238Y-123541844D01*
X174561844Y-123660238D01*
X174422626Y-123753260D01*
X174422625Y-123753261D01*
X174422624Y-123753261D01*
X174267935Y-123817336D01*
X174103719Y-123850000D01*
X173936281Y-123850000D01*
X173772065Y-123817336D01*
X173617376Y-123753261D01*
X173617375Y-123753261D01*
X173617374Y-123753260D01*
X173478156Y-123660238D01*
X173359762Y-123541844D01*
X173266740Y-123402626D01*
X173266739Y-123402624D01*
X173202664Y-123247935D01*
X173170000Y-123083719D01*
X173170000Y-122916281D01*
X173202664Y-122752065D01*
X173266739Y-122597376D01*
X173266740Y-122597374D01*
X173359762Y-122458156D01*
X173478156Y-122339762D01*
X173617374Y-122246740D01*
X173617376Y-122246739D01*
X173772065Y-122182664D01*
X173936281Y-122150000D01*
X174103719Y-122150000D01*
X174267935Y-122182664D01*
G37*
G36*
X176807935Y-122182664D02*
G01*
X176962624Y-122246739D01*
X176962626Y-122246740D01*
X177101844Y-122339762D01*
X177220238Y-122458156D01*
X177313260Y-122597374D01*
X177313261Y-122597376D01*
X177377336Y-122752065D01*
X177410000Y-122916281D01*
X177410000Y-123083719D01*
X177377336Y-123247935D01*
X177313261Y-123402624D01*
X177313260Y-123402626D01*
X177220238Y-123541844D01*
X177101844Y-123660238D01*
X176962626Y-123753260D01*
X176962625Y-123753261D01*
X176962624Y-123753261D01*
X176807935Y-123817336D01*
X176643719Y-123850000D01*
X176476281Y-123850000D01*
X176312065Y-123817336D01*
X176157376Y-123753261D01*
X176157375Y-123753261D01*
X176157374Y-123753260D01*
X176018156Y-123660238D01*
X175899762Y-123541844D01*
X175806740Y-123402626D01*
X175806739Y-123402624D01*
X175742664Y-123247935D01*
X175710000Y-123083719D01*
X175710000Y-122916281D01*
X175742664Y-122752065D01*
X175806739Y-122597376D01*
X175806740Y-122597374D01*
X175899762Y-122458156D01*
X176018156Y-122339762D01*
X176157374Y-122246740D01*
X176157376Y-122246739D01*
X176312065Y-122182664D01*
X176476281Y-122150000D01*
X176643719Y-122150000D01*
X176807935Y-122182664D01*
G37*
G36*
X181887935Y-122182664D02*
G01*
X182042624Y-122246739D01*
X182042626Y-122246740D01*
X182181844Y-122339762D01*
X182300238Y-122458156D01*
X182393260Y-122597374D01*
X182393261Y-122597376D01*
X182457336Y-122752065D01*
X182490000Y-122916281D01*
X182490000Y-123083719D01*
X182457336Y-123247935D01*
X182393261Y-123402624D01*
X182393260Y-123402626D01*
X182300238Y-123541844D01*
X182181844Y-123660238D01*
X182042626Y-123753260D01*
X182042625Y-123753261D01*
X182042624Y-123753261D01*
X181887935Y-123817336D01*
X181723719Y-123850000D01*
X181556281Y-123850000D01*
X181392065Y-123817336D01*
X181237376Y-123753261D01*
X181237375Y-123753261D01*
X181237374Y-123753260D01*
X181098156Y-123660238D01*
X180979762Y-123541844D01*
X180886740Y-123402626D01*
X180886739Y-123402624D01*
X180822664Y-123247935D01*
X180790000Y-123083719D01*
X180790000Y-122916281D01*
X180822664Y-122752065D01*
X180886739Y-122597376D01*
X180886740Y-122597374D01*
X180979762Y-122458156D01*
X181098156Y-122339762D01*
X181237374Y-122246740D01*
X181237376Y-122246739D01*
X181392065Y-122182664D01*
X181556281Y-122150000D01*
X181723719Y-122150000D01*
X181887935Y-122182664D01*
G37*
G36*
X151407935Y-119642664D02*
G01*
X151562624Y-119706739D01*
X151562626Y-119706740D01*
X151701844Y-119799762D01*
X151820238Y-119918156D01*
X151913260Y-120057374D01*
X151913261Y-120057376D01*
X151977336Y-120212065D01*
X152010000Y-120376281D01*
X152010000Y-120543719D01*
X151977336Y-120707935D01*
X151913261Y-120862624D01*
X151913260Y-120862626D01*
X151820238Y-121001844D01*
X151701844Y-121120238D01*
X151562626Y-121213260D01*
X151562625Y-121213261D01*
X151562624Y-121213261D01*
X151407935Y-121277336D01*
X151243719Y-121310000D01*
X151076281Y-121310000D01*
X150912065Y-121277336D01*
X150757376Y-121213261D01*
X150757375Y-121213261D01*
X150757374Y-121213260D01*
X150618156Y-121120238D01*
X150499762Y-121001844D01*
X150406740Y-120862626D01*
X150406739Y-120862624D01*
X150342664Y-120707935D01*
X150310000Y-120543719D01*
X150310000Y-120376281D01*
X150342664Y-120212065D01*
X150406739Y-120057376D01*
X150406740Y-120057374D01*
X150499762Y-119918156D01*
X150618156Y-119799762D01*
X150757374Y-119706740D01*
X150757376Y-119706739D01*
X150912065Y-119642664D01*
X151076281Y-119610000D01*
X151243719Y-119610000D01*
X151407935Y-119642664D01*
G37*
G36*
X181887935Y-119642664D02*
G01*
X182042624Y-119706739D01*
X182042626Y-119706740D01*
X182181844Y-119799762D01*
X182300238Y-119918156D01*
X182393260Y-120057374D01*
X182393261Y-120057376D01*
X182457336Y-120212065D01*
X182490000Y-120376281D01*
X182490000Y-120543719D01*
X182457336Y-120707935D01*
X182393261Y-120862624D01*
X182393260Y-120862626D01*
X182300238Y-121001844D01*
X182181844Y-121120238D01*
X182042626Y-121213260D01*
X182042625Y-121213261D01*
X182042624Y-121213261D01*
X181887935Y-121277336D01*
X181723719Y-121310000D01*
X181556281Y-121310000D01*
X181392065Y-121277336D01*
X181237376Y-121213261D01*
X181237375Y-121213261D01*
X181237374Y-121213260D01*
X181098156Y-121120238D01*
X180979762Y-121001844D01*
X180886740Y-120862626D01*
X180886739Y-120862624D01*
X180822664Y-120707935D01*
X180790000Y-120543719D01*
X180790000Y-120376281D01*
X180822664Y-120212065D01*
X180886739Y-120057376D01*
X180886740Y-120057374D01*
X180979762Y-119918156D01*
X181098156Y-119799762D01*
X181237374Y-119706740D01*
X181237376Y-119706739D01*
X181392065Y-119642664D01*
X181556281Y-119610000D01*
X181723719Y-119610000D01*
X181887935Y-119642664D01*
G37*
G36*
X171727935Y-119642664D02*
G01*
X171882624Y-119706739D01*
X171882626Y-119706740D01*
X172021844Y-119799762D01*
X172140238Y-119918156D01*
X172233260Y-120057374D01*
X172233261Y-120057376D01*
X172297336Y-120212065D01*
X172330000Y-120376281D01*
X172330000Y-120543719D01*
X172297336Y-120707935D01*
X172233261Y-120862624D01*
X172233260Y-120862626D01*
X172140238Y-121001844D01*
X172021844Y-121120238D01*
X171882626Y-121213260D01*
X171882625Y-121213261D01*
X171882624Y-121213261D01*
X171727935Y-121277336D01*
X171563719Y-121310000D01*
X171396281Y-121310000D01*
X171232065Y-121277336D01*
X171077376Y-121213261D01*
X171077375Y-121213261D01*
X171077374Y-121213260D01*
X170938156Y-121120238D01*
X170819762Y-121001844D01*
X170726740Y-120862626D01*
X170726739Y-120862624D01*
X170662664Y-120707935D01*
X170630000Y-120543719D01*
X170630000Y-120376281D01*
X170662664Y-120212065D01*
X170726739Y-120057376D01*
X170726740Y-120057374D01*
X170819762Y-119918156D01*
X170938156Y-119799762D01*
X171077374Y-119706740D01*
X171077376Y-119706739D01*
X171232065Y-119642664D01*
X171396281Y-119610000D01*
X171563719Y-119610000D01*
X171727935Y-119642664D01*
G37*
G36*
X174267935Y-119642664D02*
G01*
X174422624Y-119706739D01*
X174422626Y-119706740D01*
X174561844Y-119799762D01*
X174680238Y-119918156D01*
X174773260Y-120057374D01*
X174773261Y-120057376D01*
X174837336Y-120212065D01*
X174870000Y-120376281D01*
X174870000Y-120543719D01*
X174837336Y-120707935D01*
X174773261Y-120862624D01*
X174773260Y-120862626D01*
X174680238Y-121001844D01*
X174561844Y-121120238D01*
X174422626Y-121213260D01*
X174422625Y-121213261D01*
X174422624Y-121213261D01*
X174267935Y-121277336D01*
X174103719Y-121310000D01*
X173936281Y-121310000D01*
X173772065Y-121277336D01*
X173617376Y-121213261D01*
X173617375Y-121213261D01*
X173617374Y-121213260D01*
X173478156Y-121120238D01*
X173359762Y-121001844D01*
X173266740Y-120862626D01*
X173266739Y-120862624D01*
X173202664Y-120707935D01*
X173170000Y-120543719D01*
X173170000Y-120376281D01*
X173202664Y-120212065D01*
X173266739Y-120057376D01*
X173266740Y-120057374D01*
X173359762Y-119918156D01*
X173478156Y-119799762D01*
X173617374Y-119706740D01*
X173617376Y-119706739D01*
X173772065Y-119642664D01*
X173936281Y-119610000D01*
X174103719Y-119610000D01*
X174267935Y-119642664D01*
G37*
G36*
X176807935Y-119642664D02*
G01*
X176962624Y-119706739D01*
X176962626Y-119706740D01*
X177101844Y-119799762D01*
X177220238Y-119918156D01*
X177313260Y-120057374D01*
X177313261Y-120057376D01*
X177377336Y-120212065D01*
X177410000Y-120376281D01*
X177410000Y-120543719D01*
X177377336Y-120707935D01*
X177313261Y-120862624D01*
X177313260Y-120862626D01*
X177220238Y-121001844D01*
X177101844Y-121120238D01*
X176962626Y-121213260D01*
X176962625Y-121213261D01*
X176962624Y-121213261D01*
X176807935Y-121277336D01*
X176643719Y-121310000D01*
X176476281Y-121310000D01*
X176312065Y-121277336D01*
X176157376Y-121213261D01*
X176157375Y-121213261D01*
X176157374Y-121213260D01*
X176018156Y-121120238D01*
X175899762Y-121001844D01*
X175806740Y-120862626D01*
X175806739Y-120862624D01*
X175742664Y-120707935D01*
X175710000Y-120543719D01*
X175710000Y-120376281D01*
X175742664Y-120212065D01*
X175806739Y-120057376D01*
X175806740Y-120057374D01*
X175899762Y-119918156D01*
X176018156Y-119799762D01*
X176157374Y-119706740D01*
X176157376Y-119706739D01*
X176312065Y-119642664D01*
X176476281Y-119610000D01*
X176643719Y-119610000D01*
X176807935Y-119642664D01*
G37*
G36*
X148867935Y-119642664D02*
G01*
X149022624Y-119706739D01*
X149022626Y-119706740D01*
X149161844Y-119799762D01*
X149280238Y-119918156D01*
X149373260Y-120057374D01*
X149373261Y-120057376D01*
X149437336Y-120212065D01*
X149470000Y-120376281D01*
X149470000Y-120543719D01*
X149437336Y-120707935D01*
X149373261Y-120862624D01*
X149373260Y-120862626D01*
X149280238Y-121001844D01*
X149161844Y-121120238D01*
X149022626Y-121213260D01*
X149022625Y-121213261D01*
X149022624Y-121213261D01*
X148867935Y-121277336D01*
X148703719Y-121310000D01*
X148536281Y-121310000D01*
X148372065Y-121277336D01*
X148217376Y-121213261D01*
X148217375Y-121213261D01*
X148217374Y-121213260D01*
X148078156Y-121120238D01*
X147959762Y-121001844D01*
X147866740Y-120862626D01*
X147866739Y-120862624D01*
X147802664Y-120707935D01*
X147770000Y-120543719D01*
X147770000Y-120376281D01*
X147802664Y-120212065D01*
X147866739Y-120057376D01*
X147866740Y-120057374D01*
X147959762Y-119918156D01*
X148078156Y-119799762D01*
X148217374Y-119706740D01*
X148217376Y-119706739D01*
X148372065Y-119642664D01*
X148536281Y-119610000D01*
X148703719Y-119610000D01*
X148867935Y-119642664D01*
G37*
G36*
X153947935Y-119642664D02*
G01*
X154102624Y-119706739D01*
X154102626Y-119706740D01*
X154241844Y-119799762D01*
X154360238Y-119918156D01*
X154453260Y-120057374D01*
X154453261Y-120057376D01*
X154517336Y-120212065D01*
X154550000Y-120376281D01*
X154550000Y-120543719D01*
X154517336Y-120707935D01*
X154453261Y-120862624D01*
X154453260Y-120862626D01*
X154360238Y-121001844D01*
X154241844Y-121120238D01*
X154102626Y-121213260D01*
X154102625Y-121213261D01*
X154102624Y-121213261D01*
X153947935Y-121277336D01*
X153783719Y-121310000D01*
X153616281Y-121310000D01*
X153452065Y-121277336D01*
X153297376Y-121213261D01*
X153297375Y-121213261D01*
X153297374Y-121213260D01*
X153158156Y-121120238D01*
X153039762Y-121001844D01*
X152946740Y-120862626D01*
X152946739Y-120862624D01*
X152882664Y-120707935D01*
X152850000Y-120543719D01*
X152850000Y-120376281D01*
X152882664Y-120212065D01*
X152946739Y-120057376D01*
X152946740Y-120057374D01*
X153039762Y-119918156D01*
X153158156Y-119799762D01*
X153297374Y-119706740D01*
X153297376Y-119706739D01*
X153452065Y-119642664D01*
X153616281Y-119610000D01*
X153783719Y-119610000D01*
X153947935Y-119642664D01*
G37*
G36*
X169187935Y-119642664D02*
G01*
X169342624Y-119706739D01*
X169342626Y-119706740D01*
X169481844Y-119799762D01*
X169600238Y-119918156D01*
X169693260Y-120057374D01*
X169693261Y-120057376D01*
X169757336Y-120212065D01*
X169790000Y-120376281D01*
X169790000Y-120543719D01*
X169757336Y-120707935D01*
X169693261Y-120862624D01*
X169693260Y-120862626D01*
X169600238Y-121001844D01*
X169481844Y-121120238D01*
X169342626Y-121213260D01*
X169342625Y-121213261D01*
X169342624Y-121213261D01*
X169187935Y-121277336D01*
X169023719Y-121310000D01*
X168856281Y-121310000D01*
X168692065Y-121277336D01*
X168537376Y-121213261D01*
X168537375Y-121213261D01*
X168537374Y-121213260D01*
X168398156Y-121120238D01*
X168279762Y-121001844D01*
X168186740Y-120862626D01*
X168186739Y-120862624D01*
X168122664Y-120707935D01*
X168090000Y-120543719D01*
X168090000Y-120376281D01*
X168122664Y-120212065D01*
X168186739Y-120057376D01*
X168186740Y-120057374D01*
X168279762Y-119918156D01*
X168398156Y-119799762D01*
X168537374Y-119706740D01*
X168537376Y-119706739D01*
X168692065Y-119642664D01*
X168856281Y-119610000D01*
X169023719Y-119610000D01*
X169187935Y-119642664D01*
G37*
G36*
X159027935Y-119642664D02*
G01*
X159182624Y-119706739D01*
X159182626Y-119706740D01*
X159321844Y-119799762D01*
X159440238Y-119918156D01*
X159533260Y-120057374D01*
X159533261Y-120057376D01*
X159597336Y-120212065D01*
X159630000Y-120376281D01*
X159630000Y-120543719D01*
X159597336Y-120707935D01*
X159533261Y-120862624D01*
X159533260Y-120862626D01*
X159440238Y-121001844D01*
X159321844Y-121120238D01*
X159182626Y-121213260D01*
X159182625Y-121213261D01*
X159182624Y-121213261D01*
X159027935Y-121277336D01*
X158863719Y-121310000D01*
X158696281Y-121310000D01*
X158532065Y-121277336D01*
X158377376Y-121213261D01*
X158377375Y-121213261D01*
X158377374Y-121213260D01*
X158238156Y-121120238D01*
X158119762Y-121001844D01*
X158026740Y-120862626D01*
X158026739Y-120862624D01*
X157962664Y-120707935D01*
X157930000Y-120543719D01*
X157930000Y-120376281D01*
X157962664Y-120212065D01*
X158026739Y-120057376D01*
X158026740Y-120057374D01*
X158119762Y-119918156D01*
X158238156Y-119799762D01*
X158377374Y-119706740D01*
X158377376Y-119706739D01*
X158532065Y-119642664D01*
X158696281Y-119610000D01*
X158863719Y-119610000D01*
X159027935Y-119642664D01*
G37*
G36*
X146327935Y-119642664D02*
G01*
X146482624Y-119706739D01*
X146482626Y-119706740D01*
X146621844Y-119799762D01*
X146740238Y-119918156D01*
X146833260Y-120057374D01*
X146833261Y-120057376D01*
X146897336Y-120212065D01*
X146930000Y-120376281D01*
X146930000Y-120543719D01*
X146897336Y-120707935D01*
X146833261Y-120862624D01*
X146833260Y-120862626D01*
X146740238Y-121001844D01*
X146621844Y-121120238D01*
X146482626Y-121213260D01*
X146482625Y-121213261D01*
X146482624Y-121213261D01*
X146327935Y-121277336D01*
X146163719Y-121310000D01*
X145996281Y-121310000D01*
X145832065Y-121277336D01*
X145677376Y-121213261D01*
X145677375Y-121213261D01*
X145677374Y-121213260D01*
X145538156Y-121120238D01*
X145419762Y-121001844D01*
X145326740Y-120862626D01*
X145326739Y-120862624D01*
X145262664Y-120707935D01*
X145230000Y-120543719D01*
X145230000Y-120376281D01*
X145262664Y-120212065D01*
X145326739Y-120057376D01*
X145326740Y-120057374D01*
X145419762Y-119918156D01*
X145538156Y-119799762D01*
X145677374Y-119706740D01*
X145677376Y-119706739D01*
X145832065Y-119642664D01*
X145996281Y-119610000D01*
X146163719Y-119610000D01*
X146327935Y-119642664D01*
G37*
G36*
X164107935Y-119642664D02*
G01*
X164262624Y-119706739D01*
X164262626Y-119706740D01*
X164401844Y-119799762D01*
X164520238Y-119918156D01*
X164613260Y-120057374D01*
X164613261Y-120057376D01*
X164677336Y-120212065D01*
X164710000Y-120376281D01*
X164710000Y-120543719D01*
X164677336Y-120707935D01*
X164613261Y-120862624D01*
X164613260Y-120862626D01*
X164520238Y-121001844D01*
X164401844Y-121120238D01*
X164262626Y-121213260D01*
X164262625Y-121213261D01*
X164262624Y-121213261D01*
X164107935Y-121277336D01*
X163943719Y-121310000D01*
X163776281Y-121310000D01*
X163612065Y-121277336D01*
X163457376Y-121213261D01*
X163457375Y-121213261D01*
X163457374Y-121213260D01*
X163318156Y-121120238D01*
X163199762Y-121001844D01*
X163106740Y-120862626D01*
X163106739Y-120862624D01*
X163042664Y-120707935D01*
X163010000Y-120543719D01*
X163010000Y-120376281D01*
X163042664Y-120212065D01*
X163106739Y-120057376D01*
X163106740Y-120057374D01*
X163199762Y-119918156D01*
X163318156Y-119799762D01*
X163457374Y-119706740D01*
X163457376Y-119706739D01*
X163612065Y-119642664D01*
X163776281Y-119610000D01*
X163943719Y-119610000D01*
X164107935Y-119642664D01*
G37*
G36*
X161567935Y-119642664D02*
G01*
X161722624Y-119706739D01*
X161722626Y-119706740D01*
X161861844Y-119799762D01*
X161980238Y-119918156D01*
X162073260Y-120057374D01*
X162073261Y-120057376D01*
X162137336Y-120212065D01*
X162170000Y-120376281D01*
X162170000Y-120543719D01*
X162137336Y-120707935D01*
X162073261Y-120862624D01*
X162073260Y-120862626D01*
X161980238Y-121001844D01*
X161861844Y-121120238D01*
X161722626Y-121213260D01*
X161722625Y-121213261D01*
X161722624Y-121213261D01*
X161567935Y-121277336D01*
X161403719Y-121310000D01*
X161236281Y-121310000D01*
X161072065Y-121277336D01*
X160917376Y-121213261D01*
X160917375Y-121213261D01*
X160917374Y-121213260D01*
X160778156Y-121120238D01*
X160659762Y-121001844D01*
X160566740Y-120862626D01*
X160566739Y-120862624D01*
X160502664Y-120707935D01*
X160470000Y-120543719D01*
X160470000Y-120376281D01*
X160502664Y-120212065D01*
X160566739Y-120057376D01*
X160566740Y-120057374D01*
X160659762Y-119918156D01*
X160778156Y-119799762D01*
X160917374Y-119706740D01*
X160917376Y-119706739D01*
X161072065Y-119642664D01*
X161236281Y-119610000D01*
X161403719Y-119610000D01*
X161567935Y-119642664D01*
G37*
G36*
X143787935Y-119642664D02*
G01*
X143942624Y-119706739D01*
X143942626Y-119706740D01*
X144081844Y-119799762D01*
X144200238Y-119918156D01*
X144293260Y-120057374D01*
X144293261Y-120057376D01*
X144357336Y-120212065D01*
X144390000Y-120376281D01*
X144390000Y-120543719D01*
X144357336Y-120707935D01*
X144293261Y-120862624D01*
X144293260Y-120862626D01*
X144200238Y-121001844D01*
X144081844Y-121120238D01*
X143942626Y-121213260D01*
X143942625Y-121213261D01*
X143942624Y-121213261D01*
X143787935Y-121277336D01*
X143623719Y-121310000D01*
X143456281Y-121310000D01*
X143292065Y-121277336D01*
X143137376Y-121213261D01*
X143137375Y-121213261D01*
X143137374Y-121213260D01*
X142998156Y-121120238D01*
X142879762Y-121001844D01*
X142786740Y-120862626D01*
X142786739Y-120862624D01*
X142722664Y-120707935D01*
X142690000Y-120543719D01*
X142690000Y-120376281D01*
X142722664Y-120212065D01*
X142786739Y-120057376D01*
X142786740Y-120057374D01*
X142879762Y-119918156D01*
X142998156Y-119799762D01*
X143137374Y-119706740D01*
X143137376Y-119706739D01*
X143292065Y-119642664D01*
X143456281Y-119610000D01*
X143623719Y-119610000D01*
X143787935Y-119642664D01*
G37*
G36*
X166647935Y-119642664D02*
G01*
X166802624Y-119706739D01*
X166802626Y-119706740D01*
X166941844Y-119799762D01*
X167060238Y-119918156D01*
X167153260Y-120057374D01*
X167153261Y-120057376D01*
X167217336Y-120212065D01*
X167250000Y-120376281D01*
X167250000Y-120543719D01*
X167217336Y-120707935D01*
X167153261Y-120862624D01*
X167153260Y-120862626D01*
X167060238Y-121001844D01*
X166941844Y-121120238D01*
X166802626Y-121213260D01*
X166802625Y-121213261D01*
X166802624Y-121213261D01*
X166647935Y-121277336D01*
X166483719Y-121310000D01*
X166316281Y-121310000D01*
X166152065Y-121277336D01*
X165997376Y-121213261D01*
X165997375Y-121213261D01*
X165997374Y-121213260D01*
X165858156Y-121120238D01*
X165739762Y-121001844D01*
X165646740Y-120862626D01*
X165646739Y-120862624D01*
X165582664Y-120707935D01*
X165550000Y-120543719D01*
X165550000Y-120376281D01*
X165582664Y-120212065D01*
X165646739Y-120057376D01*
X165646740Y-120057374D01*
X165739762Y-119918156D01*
X165858156Y-119799762D01*
X165997374Y-119706740D01*
X165997376Y-119706739D01*
X166152065Y-119642664D01*
X166316281Y-119610000D01*
X166483719Y-119610000D01*
X166647935Y-119642664D01*
G37*
G36*
X141247935Y-119642664D02*
G01*
X141402624Y-119706739D01*
X141402626Y-119706740D01*
X141541844Y-119799762D01*
X141660238Y-119918156D01*
X141753260Y-120057374D01*
X141753261Y-120057376D01*
X141817336Y-120212065D01*
X141850000Y-120376281D01*
X141850000Y-120543719D01*
X141817336Y-120707935D01*
X141753261Y-120862624D01*
X141753260Y-120862626D01*
X141660238Y-121001844D01*
X141541844Y-121120238D01*
X141402626Y-121213260D01*
X141402625Y-121213261D01*
X141402624Y-121213261D01*
X141247935Y-121277336D01*
X141083719Y-121310000D01*
X140916281Y-121310000D01*
X140752065Y-121277336D01*
X140597376Y-121213261D01*
X140597375Y-121213261D01*
X140597374Y-121213260D01*
X140458156Y-121120238D01*
X140339762Y-121001844D01*
X140246740Y-120862626D01*
X140246739Y-120862624D01*
X140182664Y-120707935D01*
X140150000Y-120543719D01*
X140150000Y-120376281D01*
X140182664Y-120212065D01*
X140246739Y-120057376D01*
X140246740Y-120057374D01*
X140339762Y-119918156D01*
X140458156Y-119799762D01*
X140597374Y-119706740D01*
X140597376Y-119706739D01*
X140752065Y-119642664D01*
X140916281Y-119610000D01*
X141083719Y-119610000D01*
X141247935Y-119642664D01*
G37*
G36*
X179347935Y-119642664D02*
G01*
X179502624Y-119706739D01*
X179502626Y-119706740D01*
X179641844Y-119799762D01*
X179760238Y-119918156D01*
X179853260Y-120057374D01*
X179853261Y-120057376D01*
X179917336Y-120212065D01*
X179950000Y-120376281D01*
X179950000Y-120543719D01*
X179917336Y-120707935D01*
X179853261Y-120862624D01*
X179853260Y-120862626D01*
X179760238Y-121001844D01*
X179641844Y-121120238D01*
X179502626Y-121213260D01*
X179502625Y-121213261D01*
X179502624Y-121213261D01*
X179347935Y-121277336D01*
X179183719Y-121310000D01*
X179016281Y-121310000D01*
X178852065Y-121277336D01*
X178697376Y-121213261D01*
X178697375Y-121213261D01*
X178697374Y-121213260D01*
X178558156Y-121120238D01*
X178439762Y-121001844D01*
X178346740Y-120862626D01*
X178346739Y-120862624D01*
X178282664Y-120707935D01*
X178250000Y-120543719D01*
X178250000Y-120376281D01*
X178282664Y-120212065D01*
X178346739Y-120057376D01*
X178346740Y-120057374D01*
X178439762Y-119918156D01*
X178558156Y-119799762D01*
X178697374Y-119706740D01*
X178697376Y-119706739D01*
X178852065Y-119642664D01*
X179016281Y-119610000D01*
X179183719Y-119610000D01*
X179347935Y-119642664D01*
G37*
G36*
X156487935Y-119642664D02*
G01*
X156642624Y-119706739D01*
X156642626Y-119706740D01*
X156781844Y-119799762D01*
X156900238Y-119918156D01*
X156993260Y-120057374D01*
X156993261Y-120057376D01*
X157057336Y-120212065D01*
X157090000Y-120376281D01*
X157090000Y-120543719D01*
X157057336Y-120707935D01*
X156993261Y-120862624D01*
X156993260Y-120862626D01*
X156900238Y-121001844D01*
X156781844Y-121120238D01*
X156642626Y-121213260D01*
X156642625Y-121213261D01*
X156642624Y-121213261D01*
X156487935Y-121277336D01*
X156323719Y-121310000D01*
X156156281Y-121310000D01*
X155992065Y-121277336D01*
X155837376Y-121213261D01*
X155837375Y-121213261D01*
X155837374Y-121213260D01*
X155698156Y-121120238D01*
X155579762Y-121001844D01*
X155486740Y-120862626D01*
X155486739Y-120862624D01*
X155422664Y-120707935D01*
X155390000Y-120543719D01*
X155390000Y-120376281D01*
X155422664Y-120212065D01*
X155486739Y-120057376D01*
X155486740Y-120057374D01*
X155579762Y-119918156D01*
X155698156Y-119799762D01*
X155837374Y-119706740D01*
X155837376Y-119706739D01*
X155992065Y-119642664D01*
X156156281Y-119610000D01*
X156323719Y-119610000D01*
X156487935Y-119642664D01*
G37*
G36*
X162542500Y-117330500D02*
G01*
X161942500Y-117330500D01*
X161942500Y-115780500D01*
X162542500Y-115780500D01*
X162542500Y-117330500D01*
G37*
G36*
X161272500Y-117330500D02*
G01*
X160672500Y-117330500D01*
X160672500Y-115780500D01*
X161272500Y-115780500D01*
X161272500Y-117330500D01*
G37*
G36*
X160002500Y-117330500D02*
G01*
X159402500Y-117330500D01*
X159402500Y-115780500D01*
X160002500Y-115780500D01*
X160002500Y-117330500D01*
G37*
G36*
X158732500Y-117330500D02*
G01*
X158132500Y-117330500D01*
X158132500Y-115780500D01*
X158732500Y-115780500D01*
X158732500Y-117330500D01*
G37*
G36*
X186368723Y-114837782D02*
G01*
X186548264Y-114892246D01*
X186548267Y-114892248D01*
X186548268Y-114892248D01*
X186713741Y-114980694D01*
X186713742Y-114980695D01*
X186713744Y-114980696D01*
X186858778Y-115099722D01*
X186977807Y-115244759D01*
X187066253Y-115410231D01*
X187120718Y-115589776D01*
X187134500Y-115729711D01*
X187134500Y-115918288D01*
X187120718Y-116058223D01*
X187066254Y-116237764D01*
X186977804Y-116403244D01*
X186858778Y-116548278D01*
X186713741Y-116667307D01*
X186548269Y-116755753D01*
X186368724Y-116810218D01*
X186182000Y-116828608D01*
X185995277Y-116810218D01*
X185815732Y-116755753D01*
X185650261Y-116667307D01*
X185650259Y-116667306D01*
X185505222Y-116548278D01*
X185451569Y-116482902D01*
X185386193Y-116403241D01*
X185297747Y-116237769D01*
X185243282Y-116058224D01*
X185229500Y-115918289D01*
X185229500Y-115729712D01*
X185243282Y-115589777D01*
X185297746Y-115410236D01*
X185386196Y-115244756D01*
X185505222Y-115099722D01*
X185650259Y-114980693D01*
X185815731Y-114892247D01*
X185995276Y-114837782D01*
X186182000Y-114819392D01*
X186368723Y-114837782D01*
G37*
G36*
X183828723Y-114837782D02*
G01*
X184008264Y-114892246D01*
X184008267Y-114892248D01*
X184008268Y-114892248D01*
X184173741Y-114980694D01*
X184173742Y-114980695D01*
X184173744Y-114980696D01*
X184318778Y-115099722D01*
X184437807Y-115244759D01*
X184526253Y-115410231D01*
X184580718Y-115589776D01*
X184594500Y-115729711D01*
X184594500Y-115918288D01*
X184580718Y-116058223D01*
X184526254Y-116237764D01*
X184437804Y-116403244D01*
X184318778Y-116548278D01*
X184173741Y-116667307D01*
X184008269Y-116755753D01*
X183828724Y-116810218D01*
X183642000Y-116828608D01*
X183455277Y-116810218D01*
X183275732Y-116755753D01*
X183110261Y-116667307D01*
X183110259Y-116667306D01*
X182965222Y-116548278D01*
X182911569Y-116482902D01*
X182846193Y-116403241D01*
X182757747Y-116237769D01*
X182703282Y-116058224D01*
X182689500Y-115918289D01*
X182689500Y-115729712D01*
X182703282Y-115589777D01*
X182757746Y-115410236D01*
X182846196Y-115244756D01*
X182965222Y-115099722D01*
X183110259Y-114980693D01*
X183275731Y-114892247D01*
X183455276Y-114837782D01*
X183642000Y-114819392D01*
X183828723Y-114837782D01*
G37*
G36*
X182054500Y-116824000D02*
G01*
X180149500Y-116824000D01*
X180149500Y-114824000D01*
X182054500Y-114824000D01*
X182054500Y-116824000D01*
G37*
G36*
X172490500Y-115975500D02*
G01*
X170790500Y-115975500D01*
X170790500Y-114275500D01*
X172490500Y-114275500D01*
X172490500Y-115975500D01*
G37*
G36*
X169348435Y-114308164D02*
G01*
X169503124Y-114372239D01*
X169503126Y-114372240D01*
X169642344Y-114465262D01*
X169760738Y-114583656D01*
X169853760Y-114722874D01*
X169853761Y-114722876D01*
X169917836Y-114877565D01*
X169950500Y-115041781D01*
X169950500Y-115209219D01*
X169917836Y-115373435D01*
X169902594Y-115410231D01*
X169853760Y-115528126D01*
X169760738Y-115667344D01*
X169642344Y-115785738D01*
X169503126Y-115878760D01*
X169503125Y-115878761D01*
X169503124Y-115878761D01*
X169348435Y-115942836D01*
X169184219Y-115975500D01*
X169016781Y-115975500D01*
X168852565Y-115942836D01*
X168697876Y-115878761D01*
X168697875Y-115878761D01*
X168697874Y-115878760D01*
X168558656Y-115785738D01*
X168440262Y-115667344D01*
X168347240Y-115528126D01*
X168298406Y-115410231D01*
X168283164Y-115373435D01*
X168250500Y-115209219D01*
X168250500Y-115041781D01*
X168283164Y-114877565D01*
X168347239Y-114722876D01*
X168347240Y-114722874D01*
X168440262Y-114583656D01*
X168558656Y-114465262D01*
X168697874Y-114372240D01*
X168697876Y-114372239D01*
X168852565Y-114308164D01*
X169016781Y-114275500D01*
X169184219Y-114275500D01*
X169348435Y-114308164D01*
G37*
G36*
X153500000Y-114500000D02*
G01*
X152500000Y-114500000D01*
X152500000Y-113500000D01*
X153500000Y-113500000D01*
X153500000Y-114500000D01*
G37*
G36*
X155685843Y-113519214D02*
G01*
X155685846Y-113519215D01*
X155685845Y-113519215D01*
X155776839Y-113556906D01*
X155818063Y-113584451D01*
X155858730Y-113611624D01*
X155928376Y-113681270D01*
X155983095Y-113763163D01*
X156020786Y-113854157D01*
X156040000Y-113950753D01*
X156040000Y-114049247D01*
X156020786Y-114145843D01*
X156020785Y-114145845D01*
X155983094Y-114236839D01*
X155928375Y-114318731D01*
X155858731Y-114388375D01*
X155776839Y-114443094D01*
X155776838Y-114443095D01*
X155776837Y-114443095D01*
X155685843Y-114480786D01*
X155589247Y-114500000D01*
X155490753Y-114500000D01*
X155394157Y-114480786D01*
X155303163Y-114443095D01*
X155303162Y-114443095D01*
X155303161Y-114443094D01*
X155221269Y-114388375D01*
X155151625Y-114318731D01*
X155096906Y-114236839D01*
X155059215Y-114145845D01*
X155059214Y-114145843D01*
X155040000Y-114049247D01*
X155040000Y-113950753D01*
X155059214Y-113854157D01*
X155096905Y-113763163D01*
X155151624Y-113681270D01*
X155221270Y-113611624D01*
X155261937Y-113584451D01*
X155303161Y-113556906D01*
X155394155Y-113519215D01*
X155394154Y-113519215D01*
X155394157Y-113519214D01*
X155490753Y-113500000D01*
X155589247Y-113500000D01*
X155685843Y-113519214D01*
G37*
G36*
X193883377Y-110036858D02*
G01*
X194247353Y-110187622D01*
X194247355Y-110187623D01*
X194296939Y-110220754D01*
X194574925Y-110406498D01*
X194853502Y-110685075D01*
X195072378Y-111012647D01*
X195223142Y-111376623D01*
X195300000Y-111763016D01*
X195300000Y-112156984D01*
X195223142Y-112543377D01*
X195072378Y-112907353D01*
X194853502Y-113234925D01*
X194574925Y-113513502D01*
X194509966Y-113556906D01*
X194247355Y-113732377D01*
X194247354Y-113732378D01*
X194247353Y-113732378D01*
X193883377Y-113883142D01*
X193496984Y-113960000D01*
X193103016Y-113960000D01*
X192716623Y-113883142D01*
X192352647Y-113732378D01*
X192352646Y-113732378D01*
X192352645Y-113732377D01*
X192090034Y-113556906D01*
X192025075Y-113513502D01*
X191746498Y-113234925D01*
X191527622Y-112907353D01*
X191376858Y-112543377D01*
X191300000Y-112156984D01*
X191300000Y-111763016D01*
X191376858Y-111376623D01*
X191527622Y-111012647D01*
X191746498Y-110685075D01*
X192025075Y-110406498D01*
X192303061Y-110220754D01*
X192352645Y-110187623D01*
X192352647Y-110187622D01*
X192716623Y-110036858D01*
X193103016Y-109960000D01*
X193496984Y-109960000D01*
X193883377Y-110036858D01*
G37*
G36*
X154415843Y-112249214D02*
G01*
X154415846Y-112249215D01*
X154415845Y-112249215D01*
X154506839Y-112286906D01*
X154548063Y-112314451D01*
X154588730Y-112341624D01*
X154658376Y-112411270D01*
X154713095Y-112493163D01*
X154750786Y-112584157D01*
X154770000Y-112680753D01*
X154770000Y-112779247D01*
X154750786Y-112875843D01*
X154750785Y-112875845D01*
X154713094Y-112966839D01*
X154658375Y-113048731D01*
X154588731Y-113118375D01*
X154506839Y-113173094D01*
X154506838Y-113173095D01*
X154506837Y-113173095D01*
X154415843Y-113210786D01*
X154319247Y-113230000D01*
X154220753Y-113230000D01*
X154124157Y-113210786D01*
X154033163Y-113173095D01*
X154033162Y-113173095D01*
X154033161Y-113173094D01*
X153951269Y-113118375D01*
X153881625Y-113048731D01*
X153826906Y-112966839D01*
X153789215Y-112875845D01*
X153789214Y-112875843D01*
X153770000Y-112779247D01*
X153770000Y-112680753D01*
X153789214Y-112584157D01*
X153826905Y-112493163D01*
X153881624Y-112411270D01*
X153951270Y-112341624D01*
X153991937Y-112314451D01*
X154033161Y-112286906D01*
X154124155Y-112249215D01*
X154124154Y-112249215D01*
X154124157Y-112249214D01*
X154220753Y-112230000D01*
X154319247Y-112230000D01*
X154415843Y-112249214D01*
G37*
G36*
X162542500Y-111930500D02*
G01*
X161942500Y-111930500D01*
X161942500Y-110380500D01*
X162542500Y-110380500D01*
X162542500Y-111930500D01*
G37*
G36*
X161272500Y-111930500D02*
G01*
X160672500Y-111930500D01*
X160672500Y-110380500D01*
X161272500Y-110380500D01*
X161272500Y-111930500D01*
G37*
G36*
X158732500Y-111930500D02*
G01*
X158132500Y-111930500D01*
X158132500Y-110380500D01*
X158732500Y-110380500D01*
X158732500Y-111930500D01*
G37*
G36*
X160002500Y-111930500D02*
G01*
X159402500Y-111930500D01*
X159402500Y-110380500D01*
X160002500Y-110380500D01*
X160002500Y-111930500D01*
G37*
G36*
X178600000Y-111100000D02*
G01*
X177400000Y-111100000D01*
X177400000Y-110200000D01*
X178600000Y-110200000D01*
X178600000Y-111100000D01*
G37*
G36*
X167750000Y-110990000D02*
G01*
X166250000Y-110990000D01*
X166250000Y-110090000D01*
X167750000Y-110090000D01*
X167750000Y-110990000D01*
G37*
G36*
X140875843Y-109789214D02*
G01*
X140875846Y-109789215D01*
X140875845Y-109789215D01*
X140966839Y-109826906D01*
X141048731Y-109881625D01*
X141118375Y-109951269D01*
X141164825Y-110020785D01*
X141173095Y-110033163D01*
X141210786Y-110124157D01*
X141230000Y-110220753D01*
X141230000Y-110319247D01*
X141210786Y-110415843D01*
X141173095Y-110506837D01*
X141118376Y-110588730D01*
X141048730Y-110658376D01*
X141008772Y-110685075D01*
X140966839Y-110713094D01*
X140966838Y-110713095D01*
X140966837Y-110713095D01*
X140875843Y-110750786D01*
X140779247Y-110770000D01*
X140680753Y-110770000D01*
X140584157Y-110750786D01*
X140493163Y-110713095D01*
X140493162Y-110713095D01*
X140493161Y-110713094D01*
X140451228Y-110685075D01*
X140411270Y-110658376D01*
X140341624Y-110588730D01*
X140286905Y-110506837D01*
X140249214Y-110415843D01*
X140230000Y-110319247D01*
X140230000Y-110220753D01*
X140249214Y-110124157D01*
X140286905Y-110033163D01*
X140295176Y-110020785D01*
X140341625Y-109951269D01*
X140411269Y-109881625D01*
X140493161Y-109826906D01*
X140584155Y-109789215D01*
X140584154Y-109789215D01*
X140584157Y-109789214D01*
X140680753Y-109770000D01*
X140779247Y-109770000D01*
X140875843Y-109789214D01*
G37*
G36*
X185145843Y-109059214D02*
G01*
X185145846Y-109059215D01*
X185145845Y-109059215D01*
X185236839Y-109096906D01*
X185236915Y-109096957D01*
X185318730Y-109151624D01*
X185388376Y-109221270D01*
X185443095Y-109303163D01*
X185480786Y-109394157D01*
X185500000Y-109490753D01*
X185500000Y-109589247D01*
X185480786Y-109685843D01*
X185466638Y-109720000D01*
X185443094Y-109776839D01*
X185388375Y-109858731D01*
X185318731Y-109928375D01*
X185236839Y-109983094D01*
X185236838Y-109983095D01*
X185236837Y-109983095D01*
X185145843Y-110020786D01*
X185049247Y-110040000D01*
X184950753Y-110040000D01*
X184854157Y-110020786D01*
X184763163Y-109983095D01*
X184763162Y-109983095D01*
X184763161Y-109983094D01*
X184681269Y-109928375D01*
X184611625Y-109858731D01*
X184556906Y-109776839D01*
X184533362Y-109720000D01*
X184519214Y-109685843D01*
X184500000Y-109589247D01*
X184500000Y-109490753D01*
X184519214Y-109394157D01*
X184556905Y-109303163D01*
X184611624Y-109221270D01*
X184681270Y-109151624D01*
X184763085Y-109096957D01*
X184763161Y-109096906D01*
X184854155Y-109059215D01*
X184854154Y-109059215D01*
X184854157Y-109059214D01*
X184950753Y-109040000D01*
X185049247Y-109040000D01*
X185145843Y-109059214D01*
G37*
G36*
X167344142Y-108822170D02*
G01*
X167388215Y-108826511D01*
X167473041Y-108852243D01*
X167473043Y-108852244D01*
X167551215Y-108894028D01*
X167619738Y-108950262D01*
X167675972Y-109018785D01*
X167692254Y-109049246D01*
X167717757Y-109096959D01*
X167743489Y-109181785D01*
X167752177Y-109270000D01*
X167743489Y-109358215D01*
X167717757Y-109443041D01*
X167717756Y-109443043D01*
X167675972Y-109521215D01*
X167619738Y-109589738D01*
X167551215Y-109645972D01*
X167476622Y-109685843D01*
X167473041Y-109687757D01*
X167388215Y-109713489D01*
X167344142Y-109717830D01*
X167322106Y-109720000D01*
X166677894Y-109720000D01*
X166655858Y-109717830D01*
X166611785Y-109713489D01*
X166526959Y-109687757D01*
X166523378Y-109685843D01*
X166448785Y-109645972D01*
X166380262Y-109589738D01*
X166324028Y-109521215D01*
X166282244Y-109443043D01*
X166282243Y-109443041D01*
X166256511Y-109358215D01*
X166247823Y-109270000D01*
X166256511Y-109181785D01*
X166282243Y-109096959D01*
X166307746Y-109049246D01*
X166324028Y-109018785D01*
X166380262Y-108950262D01*
X166448785Y-108894028D01*
X166526957Y-108852244D01*
X166526959Y-108852243D01*
X166611785Y-108826511D01*
X166655858Y-108822170D01*
X166677894Y-108820000D01*
X167322106Y-108820000D01*
X167344142Y-108822170D01*
G37*
G36*
X142500000Y-109500000D02*
G01*
X141500000Y-109500000D01*
X141500000Y-108500000D01*
X142500000Y-108500000D01*
X142500000Y-109500000D01*
G37*
G36*
X139605843Y-108519214D02*
G01*
X139605846Y-108519215D01*
X139605845Y-108519215D01*
X139696839Y-108556906D01*
X139778731Y-108611625D01*
X139848375Y-108681269D01*
X139894825Y-108750785D01*
X139903095Y-108763163D01*
X139940786Y-108854157D01*
X139960000Y-108950753D01*
X139960000Y-109049247D01*
X139940786Y-109145843D01*
X139903095Y-109236837D01*
X139858778Y-109303163D01*
X139848375Y-109318731D01*
X139778731Y-109388375D01*
X139696839Y-109443094D01*
X139696838Y-109443095D01*
X139696837Y-109443095D01*
X139605843Y-109480786D01*
X139509247Y-109500000D01*
X139410753Y-109500000D01*
X139314157Y-109480786D01*
X139223163Y-109443095D01*
X139223162Y-109443095D01*
X139223161Y-109443094D01*
X139141269Y-109388375D01*
X139071625Y-109318731D01*
X139061223Y-109303163D01*
X139016905Y-109236837D01*
X138979214Y-109145843D01*
X138960000Y-109049247D01*
X138960000Y-108950753D01*
X138979214Y-108854157D01*
X139016905Y-108763163D01*
X139025176Y-108750785D01*
X139071625Y-108681269D01*
X139141269Y-108611625D01*
X139223161Y-108556906D01*
X139314155Y-108519215D01*
X139314154Y-108519215D01*
X139314157Y-108519214D01*
X139410753Y-108500000D01*
X139509247Y-108500000D01*
X139605843Y-108519214D01*
G37*
G36*
X186415843Y-107789214D02*
G01*
X186506837Y-107826905D01*
X186506839Y-107826906D01*
X186506915Y-107826957D01*
X186588730Y-107881624D01*
X186658376Y-107951270D01*
X186713095Y-108033163D01*
X186750786Y-108124157D01*
X186770000Y-108220753D01*
X186770000Y-108319247D01*
X186750786Y-108415843D01*
X186736638Y-108450000D01*
X186713094Y-108506839D01*
X186658375Y-108588731D01*
X186588731Y-108658375D01*
X186506839Y-108713094D01*
X186506838Y-108713095D01*
X186506837Y-108713095D01*
X186415843Y-108750786D01*
X186319247Y-108770000D01*
X186220753Y-108770000D01*
X186124157Y-108750786D01*
X186033163Y-108713095D01*
X186033162Y-108713095D01*
X186033161Y-108713094D01*
X185951269Y-108658375D01*
X185881625Y-108588731D01*
X185826906Y-108506839D01*
X185803362Y-108450000D01*
X185789214Y-108415843D01*
X185770000Y-108319247D01*
X185770000Y-108220753D01*
X185789214Y-108124157D01*
X185826905Y-108033163D01*
X185881624Y-107951270D01*
X185951270Y-107881624D01*
X186033085Y-107826957D01*
X186033161Y-107826906D01*
X186033163Y-107826905D01*
X186124157Y-107789214D01*
X186220753Y-107770000D01*
X186319247Y-107770000D01*
X186415843Y-107789214D01*
G37*
G36*
X167344142Y-107552170D02*
G01*
X167388215Y-107556511D01*
X167473041Y-107582243D01*
X167473043Y-107582244D01*
X167551215Y-107624028D01*
X167619738Y-107680262D01*
X167675972Y-107748785D01*
X167697582Y-107789214D01*
X167717757Y-107826959D01*
X167743489Y-107911785D01*
X167752177Y-108000000D01*
X167743489Y-108088215D01*
X167717757Y-108173041D01*
X167717756Y-108173043D01*
X167675972Y-108251215D01*
X167619738Y-108319738D01*
X167551215Y-108375972D01*
X167476622Y-108415843D01*
X167473041Y-108417757D01*
X167388215Y-108443489D01*
X167344142Y-108447830D01*
X167322106Y-108450000D01*
X166677894Y-108450000D01*
X166655858Y-108447830D01*
X166611785Y-108443489D01*
X166526959Y-108417757D01*
X166523378Y-108415843D01*
X166448785Y-108375972D01*
X166380262Y-108319738D01*
X166324028Y-108251215D01*
X166282244Y-108173043D01*
X166282243Y-108173041D01*
X166256511Y-108088215D01*
X166247823Y-108000000D01*
X166256511Y-107911785D01*
X166282243Y-107826959D01*
X166302418Y-107789214D01*
X166324028Y-107748785D01*
X166380262Y-107680262D01*
X166448785Y-107624028D01*
X166526957Y-107582244D01*
X166526959Y-107582243D01*
X166611785Y-107556511D01*
X166655858Y-107552170D01*
X166677894Y-107550000D01*
X167322106Y-107550000D01*
X167344142Y-107552170D01*
G37*
G36*
X178600000Y-107800000D02*
G01*
X177400000Y-107800000D01*
X177400000Y-106900000D01*
X178600000Y-106900000D01*
X178600000Y-107800000D01*
G37*
G36*
X173450000Y-107750000D02*
G01*
X172550000Y-107750000D01*
X172550000Y-107250000D01*
X173450000Y-107250000D01*
X173450000Y-107750000D01*
G37*
G36*
X185500000Y-107500000D02*
G01*
X184500000Y-107500000D01*
X184500000Y-106500000D01*
X185500000Y-106500000D01*
X185500000Y-107500000D01*
G37*
G36*
X173450000Y-106250000D02*
G01*
X172550000Y-106250000D01*
X172550000Y-105750000D01*
X173450000Y-105750000D01*
X173450000Y-106250000D01*
G37*
G36*
X193800000Y-105800000D02*
G01*
X192200000Y-105800000D01*
X192200000Y-104200000D01*
X193800000Y-104200000D01*
X193800000Y-105800000D01*
G37*
G36*
X196073351Y-102845743D02*
G01*
X196218941Y-102906048D01*
X196349970Y-102993599D01*
X196461401Y-103105030D01*
X196548952Y-103236059D01*
X196609257Y-103381649D01*
X196640000Y-103536206D01*
X196640000Y-103693794D01*
X196609257Y-103848351D01*
X196548952Y-103993941D01*
X196461401Y-104124970D01*
X196349970Y-104236401D01*
X196218941Y-104323952D01*
X196073351Y-104384257D01*
X195918794Y-104415000D01*
X195761206Y-104415000D01*
X195606649Y-104384257D01*
X195461059Y-104323952D01*
X195330030Y-104236401D01*
X195218599Y-104124970D01*
X195131048Y-103993941D01*
X195070743Y-103848351D01*
X195040000Y-103693794D01*
X195040000Y-103536206D01*
X195070743Y-103381649D01*
X195131048Y-103236059D01*
X195218599Y-103105030D01*
X195330030Y-102993599D01*
X195461059Y-102906048D01*
X195606649Y-102845743D01*
X195761206Y-102815000D01*
X195918794Y-102815000D01*
X196073351Y-102845743D01*
G37*
G36*
X193233351Y-101460743D02*
G01*
X193378941Y-101521048D01*
X193509970Y-101608599D01*
X193621401Y-101720030D01*
X193708952Y-101851059D01*
X193769257Y-101996649D01*
X193800000Y-102151206D01*
X193800000Y-102308794D01*
X193769257Y-102463351D01*
X193708952Y-102608941D01*
X193621401Y-102739970D01*
X193509970Y-102851401D01*
X193378941Y-102938952D01*
X193233351Y-102999257D01*
X193078794Y-103030000D01*
X192921206Y-103030000D01*
X192766649Y-102999257D01*
X192621059Y-102938952D01*
X192490030Y-102851401D01*
X192378599Y-102739970D01*
X192291048Y-102608941D01*
X192230743Y-102463351D01*
X192200000Y-102308794D01*
X192200000Y-102151206D01*
X192230743Y-101996649D01*
X192291048Y-101851059D01*
X192378599Y-101720030D01*
X192490030Y-101608599D01*
X192621059Y-101521048D01*
X192766649Y-101460743D01*
X192921206Y-101430000D01*
X193078794Y-101430000D01*
X193233351Y-101460743D01*
G37*
G36*
X180875843Y-101789214D02*
G01*
X180875846Y-101789215D01*
X180875845Y-101789215D01*
X180966839Y-101826906D01*
X181002985Y-101851058D01*
X181048730Y-101881624D01*
X181118376Y-101951270D01*
X181173095Y-102033163D01*
X181210786Y-102124157D01*
X181230000Y-102220753D01*
X181230000Y-102319247D01*
X181210786Y-102415843D01*
X181173095Y-102506837D01*
X181173094Y-102506839D01*
X181118375Y-102588731D01*
X181048731Y-102658375D01*
X180966839Y-102713094D01*
X180966838Y-102713095D01*
X180966837Y-102713095D01*
X180875843Y-102750786D01*
X180779247Y-102770000D01*
X180680753Y-102770000D01*
X180584157Y-102750786D01*
X180493163Y-102713095D01*
X180493162Y-102713095D01*
X180493161Y-102713094D01*
X180411269Y-102658375D01*
X180341625Y-102588731D01*
X180286906Y-102506839D01*
X180286905Y-102506837D01*
X180249214Y-102415843D01*
X180230000Y-102319247D01*
X180230000Y-102220753D01*
X180249214Y-102124157D01*
X180286905Y-102033163D01*
X180341624Y-101951270D01*
X180411270Y-101881624D01*
X180457015Y-101851058D01*
X180493161Y-101826906D01*
X180584155Y-101789215D01*
X180584154Y-101789215D01*
X180584157Y-101789214D01*
X180680753Y-101770000D01*
X180779247Y-101770000D01*
X180875843Y-101789214D01*
G37*
G36*
X196073351Y-100075743D02*
G01*
X196218941Y-100136048D01*
X196349970Y-100223599D01*
X196461401Y-100335030D01*
X196548952Y-100466059D01*
X196609257Y-100611649D01*
X196640000Y-100766206D01*
X196640000Y-100923794D01*
X196609257Y-101078351D01*
X196548952Y-101223941D01*
X196461401Y-101354970D01*
X196349970Y-101466401D01*
X196218941Y-101553952D01*
X196073351Y-101614257D01*
X195918794Y-101645000D01*
X195761206Y-101645000D01*
X195606649Y-101614257D01*
X195461059Y-101553952D01*
X195330030Y-101466401D01*
X195218599Y-101354970D01*
X195131048Y-101223941D01*
X195070743Y-101078351D01*
X195040000Y-100923794D01*
X195040000Y-100766206D01*
X195070743Y-100611649D01*
X195131048Y-100466059D01*
X195218599Y-100335030D01*
X195330030Y-100223599D01*
X195461059Y-100136048D01*
X195606649Y-100075743D01*
X195761206Y-100045000D01*
X195918794Y-100045000D01*
X196073351Y-100075743D01*
G37*
G36*
X179605843Y-100519214D02*
G01*
X179696837Y-100556905D01*
X179696839Y-100556906D01*
X179738063Y-100584451D01*
X179778730Y-100611624D01*
X179848376Y-100681270D01*
X179903095Y-100763163D01*
X179940786Y-100854157D01*
X179960000Y-100950753D01*
X179960000Y-101049247D01*
X179940786Y-101145843D01*
X179940785Y-101145845D01*
X179903094Y-101236839D01*
X179848375Y-101318731D01*
X179778731Y-101388375D01*
X179696839Y-101443094D01*
X179696838Y-101443095D01*
X179696837Y-101443095D01*
X179605843Y-101480786D01*
X179509247Y-101500000D01*
X179410753Y-101500000D01*
X179314157Y-101480786D01*
X179223163Y-101443095D01*
X179223162Y-101443095D01*
X179223161Y-101443094D01*
X179141269Y-101388375D01*
X179071625Y-101318731D01*
X179016906Y-101236839D01*
X178979215Y-101145845D01*
X178979214Y-101145843D01*
X178960000Y-101049247D01*
X178960000Y-100950753D01*
X178979214Y-100854157D01*
X179016905Y-100763163D01*
X179071624Y-100681270D01*
X179141270Y-100611624D01*
X179181937Y-100584451D01*
X179223161Y-100556906D01*
X179223163Y-100556905D01*
X179314157Y-100519214D01*
X179410753Y-100500000D01*
X179509247Y-100500000D01*
X179605843Y-100519214D01*
G37*
G36*
X156500000Y-101500000D02*
G01*
X155500000Y-101500000D01*
X155500000Y-100500000D01*
X156500000Y-100500000D01*
X156500000Y-101500000D01*
G37*
G36*
X182500000Y-101500000D02*
G01*
X181500000Y-101500000D01*
X181500000Y-100500000D01*
X182500000Y-100500000D01*
X182500000Y-101500000D01*
G37*
G36*
X139500000Y-101500000D02*
G01*
X138500000Y-101500000D01*
X138500000Y-100500000D01*
X139500000Y-100500000D01*
X139500000Y-101500000D01*
G37*
G36*
X141685843Y-100519214D02*
G01*
X141776837Y-100556905D01*
X141776839Y-100556906D01*
X141818063Y-100584451D01*
X141858730Y-100611624D01*
X141928376Y-100681270D01*
X141983095Y-100763163D01*
X142020786Y-100854157D01*
X142040000Y-100950753D01*
X142040000Y-101049247D01*
X142020786Y-101145843D01*
X142020785Y-101145845D01*
X141983094Y-101236839D01*
X141928375Y-101318731D01*
X141858731Y-101388375D01*
X141776839Y-101443094D01*
X141776838Y-101443095D01*
X141776837Y-101443095D01*
X141685843Y-101480786D01*
X141589247Y-101500000D01*
X141490753Y-101500000D01*
X141394157Y-101480786D01*
X141303163Y-101443095D01*
X141303162Y-101443095D01*
X141303161Y-101443094D01*
X141221269Y-101388375D01*
X141151625Y-101318731D01*
X141096906Y-101236839D01*
X141059215Y-101145845D01*
X141059214Y-101145843D01*
X141040000Y-101049247D01*
X141040000Y-100950753D01*
X141059214Y-100854157D01*
X141096905Y-100763163D01*
X141151624Y-100681270D01*
X141221270Y-100611624D01*
X141261937Y-100584451D01*
X141303161Y-100556906D01*
X141303163Y-100556905D01*
X141394157Y-100519214D01*
X141490753Y-100500000D01*
X141589247Y-100500000D01*
X141685843Y-100519214D01*
G37*
G36*
X158685843Y-100519214D02*
G01*
X158776837Y-100556905D01*
X158776839Y-100556906D01*
X158818063Y-100584451D01*
X158858730Y-100611624D01*
X158928376Y-100681270D01*
X158983095Y-100763163D01*
X159020786Y-100854157D01*
X159040000Y-100950753D01*
X159040000Y-101049247D01*
X159020786Y-101145843D01*
X159020785Y-101145845D01*
X158983094Y-101236839D01*
X158928375Y-101318731D01*
X158858731Y-101388375D01*
X158776839Y-101443094D01*
X158776838Y-101443095D01*
X158776837Y-101443095D01*
X158685843Y-101480786D01*
X158589247Y-101500000D01*
X158490753Y-101500000D01*
X158394157Y-101480786D01*
X158303163Y-101443095D01*
X158303162Y-101443095D01*
X158303161Y-101443094D01*
X158221269Y-101388375D01*
X158151625Y-101318731D01*
X158096906Y-101236839D01*
X158059215Y-101145845D01*
X158059214Y-101145843D01*
X158040000Y-101049247D01*
X158040000Y-100950753D01*
X158059214Y-100854157D01*
X158096905Y-100763163D01*
X158151624Y-100681270D01*
X158221270Y-100611624D01*
X158261937Y-100584451D01*
X158303161Y-100556906D01*
X158303163Y-100556905D01*
X158394157Y-100519214D01*
X158490753Y-100500000D01*
X158589247Y-100500000D01*
X158685843Y-100519214D01*
G37*
G36*
X175000000Y-101450000D02*
G01*
X174500000Y-101450000D01*
X174500000Y-100550000D01*
X175000000Y-100550000D01*
X175000000Y-101450000D01*
G37*
G36*
X173500000Y-101450000D02*
G01*
X173000000Y-101450000D01*
X173000000Y-100550000D01*
X173500000Y-100550000D01*
X173500000Y-101450000D01*
G37*
G36*
X193233351Y-98690743D02*
G01*
X193378941Y-98751048D01*
X193509970Y-98838599D01*
X193621401Y-98950030D01*
X193708952Y-99081059D01*
X193769257Y-99226649D01*
X193800000Y-99381206D01*
X193800000Y-99538794D01*
X193769257Y-99693351D01*
X193708952Y-99838941D01*
X193621401Y-99969970D01*
X193509970Y-100081401D01*
X193378941Y-100168952D01*
X193233351Y-100229257D01*
X193078794Y-100260000D01*
X192921206Y-100260000D01*
X192766649Y-100229257D01*
X192621059Y-100168952D01*
X192490030Y-100081401D01*
X192378599Y-99969970D01*
X192291048Y-99838941D01*
X192230743Y-99693351D01*
X192200000Y-99538794D01*
X192200000Y-99381206D01*
X192230743Y-99226649D01*
X192291048Y-99081059D01*
X192378599Y-98950030D01*
X192490030Y-98838599D01*
X192621059Y-98751048D01*
X192766649Y-98690743D01*
X192921206Y-98660000D01*
X193078794Y-98660000D01*
X193233351Y-98690743D01*
G37*
G36*
X157415843Y-99249214D02*
G01*
X157415846Y-99249215D01*
X157415845Y-99249215D01*
X157506839Y-99286906D01*
X157548063Y-99314451D01*
X157588730Y-99341624D01*
X157658376Y-99411270D01*
X157713095Y-99493163D01*
X157750786Y-99584157D01*
X157770000Y-99680753D01*
X157770000Y-99779247D01*
X157750786Y-99875843D01*
X157750785Y-99875845D01*
X157713094Y-99966839D01*
X157658375Y-100048731D01*
X157588731Y-100118375D01*
X157506839Y-100173094D01*
X157506838Y-100173095D01*
X157506837Y-100173095D01*
X157415843Y-100210786D01*
X157319247Y-100230000D01*
X157220753Y-100230000D01*
X157124157Y-100210786D01*
X157033163Y-100173095D01*
X157033162Y-100173095D01*
X157033161Y-100173094D01*
X156951269Y-100118375D01*
X156881625Y-100048731D01*
X156826906Y-99966839D01*
X156789215Y-99875845D01*
X156789214Y-99875843D01*
X156770000Y-99779247D01*
X156770000Y-99680753D01*
X156789214Y-99584157D01*
X156826905Y-99493163D01*
X156881624Y-99411270D01*
X156951270Y-99341624D01*
X156991937Y-99314451D01*
X157033161Y-99286906D01*
X157124155Y-99249215D01*
X157124154Y-99249215D01*
X157124157Y-99249214D01*
X157220753Y-99230000D01*
X157319247Y-99230000D01*
X157415843Y-99249214D01*
G37*
G36*
X140415843Y-99249214D02*
G01*
X140415846Y-99249215D01*
X140415845Y-99249215D01*
X140506839Y-99286906D01*
X140548063Y-99314451D01*
X140588730Y-99341624D01*
X140658376Y-99411270D01*
X140713095Y-99493163D01*
X140750786Y-99584157D01*
X140770000Y-99680753D01*
X140770000Y-99779247D01*
X140750786Y-99875843D01*
X140750785Y-99875845D01*
X140713094Y-99966839D01*
X140658375Y-100048731D01*
X140588731Y-100118375D01*
X140506839Y-100173094D01*
X140506838Y-100173095D01*
X140506837Y-100173095D01*
X140415843Y-100210786D01*
X140319247Y-100230000D01*
X140220753Y-100230000D01*
X140124157Y-100210786D01*
X140033163Y-100173095D01*
X140033162Y-100173095D01*
X140033161Y-100173094D01*
X139951269Y-100118375D01*
X139881625Y-100048731D01*
X139826906Y-99966839D01*
X139789215Y-99875845D01*
X139789214Y-99875843D01*
X139770000Y-99779247D01*
X139770000Y-99680753D01*
X139789214Y-99584157D01*
X139826905Y-99493163D01*
X139881624Y-99411270D01*
X139951270Y-99341624D01*
X139991937Y-99314451D01*
X140033161Y-99286906D01*
X140124155Y-99249215D01*
X140124154Y-99249215D01*
X140124157Y-99249214D01*
X140220753Y-99230000D01*
X140319247Y-99230000D01*
X140415843Y-99249214D01*
G37*
G36*
X196073351Y-97305743D02*
G01*
X196218941Y-97366048D01*
X196349970Y-97453599D01*
X196461401Y-97565030D01*
X196548952Y-97696059D01*
X196609257Y-97841649D01*
X196640000Y-97996206D01*
X196640000Y-98153794D01*
X196609257Y-98308351D01*
X196548952Y-98453941D01*
X196461401Y-98584970D01*
X196349970Y-98696401D01*
X196218941Y-98783952D01*
X196073351Y-98844257D01*
X195918794Y-98875000D01*
X195761206Y-98875000D01*
X195606649Y-98844257D01*
X195461059Y-98783952D01*
X195330030Y-98696401D01*
X195218599Y-98584970D01*
X195131048Y-98453941D01*
X195070743Y-98308351D01*
X195040000Y-98153794D01*
X195040000Y-97996206D01*
X195070743Y-97841649D01*
X195131048Y-97696059D01*
X195218599Y-97565030D01*
X195330030Y-97453599D01*
X195461059Y-97366048D01*
X195606649Y-97305743D01*
X195761206Y-97275000D01*
X195918794Y-97275000D01*
X196073351Y-97305743D01*
G37*
G36*
X193233351Y-95920743D02*
G01*
X193378941Y-95981048D01*
X193509970Y-96068599D01*
X193621401Y-96180030D01*
X193708952Y-96311059D01*
X193769257Y-96456649D01*
X193800000Y-96611206D01*
X193800000Y-96768794D01*
X193769257Y-96923351D01*
X193708952Y-97068941D01*
X193621401Y-97199970D01*
X193509970Y-97311401D01*
X193378941Y-97398952D01*
X193233351Y-97459257D01*
X193078794Y-97490000D01*
X192921206Y-97490000D01*
X192766649Y-97459257D01*
X192621059Y-97398952D01*
X192490030Y-97311401D01*
X192378599Y-97199970D01*
X192291048Y-97068941D01*
X192230743Y-96923351D01*
X192200000Y-96768794D01*
X192200000Y-96611206D01*
X192230743Y-96456649D01*
X192291048Y-96311059D01*
X192378599Y-96180030D01*
X192490030Y-96068599D01*
X192621059Y-95981048D01*
X192766649Y-95920743D01*
X192921206Y-95890000D01*
X193078794Y-95890000D01*
X193233351Y-95920743D01*
G37*
G36*
X196073351Y-94535743D02*
G01*
X196218941Y-94596048D01*
X196349970Y-94683599D01*
X196461401Y-94795030D01*
X196548952Y-94926059D01*
X196609257Y-95071649D01*
X196640000Y-95226206D01*
X196640000Y-95383794D01*
X196609257Y-95538351D01*
X196548952Y-95683941D01*
X196461401Y-95814970D01*
X196349970Y-95926401D01*
X196218941Y-96013952D01*
X196073351Y-96074257D01*
X195918794Y-96105000D01*
X195761206Y-96105000D01*
X195606649Y-96074257D01*
X195461059Y-96013952D01*
X195330030Y-95926401D01*
X195218599Y-95814970D01*
X195131048Y-95683941D01*
X195070743Y-95538351D01*
X195040000Y-95383794D01*
X195040000Y-95226206D01*
X195070743Y-95071649D01*
X195131048Y-94926059D01*
X195218599Y-94795030D01*
X195330030Y-94683599D01*
X195461059Y-94596048D01*
X195606649Y-94535743D01*
X195761206Y-94505000D01*
X195918794Y-94505000D01*
X196073351Y-94535743D01*
G37*
G36*
X193233351Y-93150743D02*
G01*
X193378941Y-93211048D01*
X193509970Y-93298599D01*
X193621401Y-93410030D01*
X193708952Y-93541059D01*
X193769257Y-93686649D01*
X193800000Y-93841206D01*
X193800000Y-93998794D01*
X193769257Y-94153351D01*
X193708952Y-94298941D01*
X193621401Y-94429970D01*
X193509970Y-94541401D01*
X193378941Y-94628952D01*
X193233351Y-94689257D01*
X193078794Y-94720000D01*
X192921206Y-94720000D01*
X192766649Y-94689257D01*
X192621059Y-94628952D01*
X192490030Y-94541401D01*
X192378599Y-94429970D01*
X192291048Y-94298941D01*
X192230743Y-94153351D01*
X192200000Y-93998794D01*
X192200000Y-93841206D01*
X192230743Y-93686649D01*
X192291048Y-93541059D01*
X192378599Y-93410030D01*
X192490030Y-93298599D01*
X192621059Y-93211048D01*
X192766649Y-93150743D01*
X192921206Y-93120000D01*
X193078794Y-93120000D01*
X193233351Y-93150743D01*
G37*
G36*
X156500000Y-93500000D02*
G01*
X155500000Y-93500000D01*
X155500000Y-92500000D01*
X156500000Y-92500000D01*
X156500000Y-93500000D01*
G37*
G36*
X158685843Y-92519214D02*
G01*
X158776837Y-92556905D01*
X158776839Y-92556906D01*
X158818063Y-92584451D01*
X158858730Y-92611624D01*
X158928376Y-92681270D01*
X158983095Y-92763163D01*
X159020786Y-92854157D01*
X159040000Y-92950753D01*
X159040000Y-93049247D01*
X159020786Y-93145843D01*
X159020785Y-93145845D01*
X158983094Y-93236839D01*
X158928375Y-93318731D01*
X158858731Y-93388375D01*
X158776839Y-93443094D01*
X158776838Y-93443095D01*
X158776837Y-93443095D01*
X158685843Y-93480786D01*
X158589247Y-93500000D01*
X158490753Y-93500000D01*
X158394157Y-93480786D01*
X158303163Y-93443095D01*
X158303162Y-93443095D01*
X158303161Y-93443094D01*
X158221269Y-93388375D01*
X158151625Y-93318731D01*
X158096906Y-93236839D01*
X158059215Y-93145845D01*
X158059214Y-93145843D01*
X158040000Y-93049247D01*
X158040000Y-92950753D01*
X158059214Y-92854157D01*
X158096905Y-92763163D01*
X158151624Y-92681270D01*
X158221270Y-92611624D01*
X158261937Y-92584451D01*
X158303161Y-92556906D01*
X158303163Y-92556905D01*
X158394157Y-92519214D01*
X158490753Y-92500000D01*
X158589247Y-92500000D01*
X158685843Y-92519214D01*
G37*
G36*
X133450000Y-93000000D02*
G01*
X132550000Y-93000000D01*
X132550000Y-92500000D01*
X133450000Y-92500000D01*
X133450000Y-93000000D01*
G37*
G36*
X184238000Y-92544000D02*
G01*
X182538000Y-92544000D01*
X182538000Y-90844000D01*
X184238000Y-90844000D01*
X184238000Y-92544000D01*
G37*
G36*
X181095935Y-90876664D02*
G01*
X181250624Y-90940739D01*
X181250626Y-90940740D01*
X181389844Y-91033762D01*
X181508238Y-91152156D01*
X181601260Y-91291374D01*
X181601261Y-91291376D01*
X181665336Y-91446065D01*
X181698000Y-91610281D01*
X181698000Y-91777719D01*
X181665336Y-91941935D01*
X181621099Y-92048731D01*
X181601260Y-92096626D01*
X181508238Y-92235844D01*
X181389844Y-92354238D01*
X181250626Y-92447260D01*
X181250625Y-92447261D01*
X181250624Y-92447261D01*
X181095935Y-92511336D01*
X180931719Y-92544000D01*
X180764281Y-92544000D01*
X180600065Y-92511336D01*
X180445376Y-92447261D01*
X180445375Y-92447261D01*
X180445374Y-92447260D01*
X180306156Y-92354238D01*
X180187762Y-92235844D01*
X180094740Y-92096626D01*
X180074901Y-92048731D01*
X180030664Y-91941935D01*
X179998000Y-91777719D01*
X179998000Y-91610281D01*
X180030664Y-91446065D01*
X180094739Y-91291376D01*
X180094740Y-91291374D01*
X180187762Y-91152156D01*
X180306156Y-91033762D01*
X180445374Y-90940740D01*
X180445376Y-90940739D01*
X180600065Y-90876664D01*
X180764281Y-90844000D01*
X180931719Y-90844000D01*
X181095935Y-90876664D01*
G37*
G36*
X157415843Y-91249214D02*
G01*
X157415846Y-91249215D01*
X157415845Y-91249215D01*
X157506839Y-91286906D01*
X157548063Y-91314451D01*
X157588730Y-91341624D01*
X157658376Y-91411270D01*
X157713095Y-91493163D01*
X157750786Y-91584157D01*
X157770000Y-91680753D01*
X157770000Y-91779247D01*
X157750786Y-91875843D01*
X157750785Y-91875845D01*
X157713094Y-91966839D01*
X157658375Y-92048731D01*
X157588731Y-92118375D01*
X157506839Y-92173094D01*
X157506838Y-92173095D01*
X157506837Y-92173095D01*
X157415843Y-92210786D01*
X157319247Y-92230000D01*
X157220753Y-92230000D01*
X157124157Y-92210786D01*
X157033163Y-92173095D01*
X157033162Y-92173095D01*
X157033161Y-92173094D01*
X156951269Y-92118375D01*
X156881625Y-92048731D01*
X156826906Y-91966839D01*
X156789215Y-91875845D01*
X156789214Y-91875843D01*
X156770000Y-91779247D01*
X156770000Y-91680753D01*
X156789214Y-91584157D01*
X156826905Y-91493163D01*
X156881624Y-91411270D01*
X156951270Y-91341624D01*
X156991937Y-91314451D01*
X157033161Y-91286906D01*
X157124155Y-91249215D01*
X157124154Y-91249215D01*
X157124157Y-91249214D01*
X157220753Y-91230000D01*
X157319247Y-91230000D01*
X157415843Y-91249214D01*
G37*
G36*
X173450000Y-92000000D02*
G01*
X172550000Y-92000000D01*
X172550000Y-91500000D01*
X173450000Y-91500000D01*
X173450000Y-92000000D01*
G37*
G36*
X133450000Y-91500000D02*
G01*
X132550000Y-91500000D01*
X132550000Y-91000000D01*
X133450000Y-91000000D01*
X133450000Y-91500000D01*
G37*
G36*
X173450000Y-90500000D02*
G01*
X172550000Y-90500000D01*
X172550000Y-90000000D01*
X173450000Y-90000000D01*
X173450000Y-90500000D01*
G37*
G36*
X193883377Y-85036858D02*
G01*
X194247353Y-85187622D01*
X194247355Y-85187623D01*
X194574926Y-85406499D01*
X194853501Y-85685074D01*
X195062992Y-85998599D01*
X195072378Y-86012647D01*
X195223142Y-86376623D01*
X195300000Y-86763016D01*
X195300000Y-87156984D01*
X195223142Y-87543377D01*
X195072378Y-87907353D01*
X195072377Y-87907355D01*
X194853501Y-88234926D01*
X194574926Y-88513501D01*
X194247355Y-88732377D01*
X194247354Y-88732378D01*
X194247353Y-88732378D01*
X193883377Y-88883142D01*
X193496984Y-88960000D01*
X193103016Y-88960000D01*
X192716623Y-88883142D01*
X192352647Y-88732378D01*
X192352646Y-88732378D01*
X192352645Y-88732377D01*
X192025074Y-88513501D01*
X191746499Y-88234926D01*
X191527623Y-87907355D01*
X191527622Y-87907353D01*
X191376858Y-87543377D01*
X191300000Y-87156984D01*
X191300000Y-86763016D01*
X191376858Y-86376623D01*
X191527622Y-86012647D01*
X191537009Y-85998599D01*
X191746499Y-85685074D01*
X192025074Y-85406499D01*
X192352645Y-85187623D01*
X192352647Y-85187622D01*
X192716623Y-85036858D01*
X193103016Y-84960000D01*
X193496984Y-84960000D01*
X193883377Y-85036858D01*
G37*
G36*
X136213351Y-85850743D02*
G01*
X136358941Y-85911048D01*
X136489970Y-85998599D01*
X136601401Y-86110030D01*
X136688952Y-86241059D01*
X136749257Y-86386649D01*
X136780000Y-86541206D01*
X136780000Y-86698794D01*
X136749257Y-86853351D01*
X136688952Y-86998941D01*
X136601401Y-87129970D01*
X136489970Y-87241401D01*
X136358941Y-87328952D01*
X136213351Y-87389257D01*
X136058794Y-87420000D01*
X135901206Y-87420000D01*
X135746649Y-87389257D01*
X135601059Y-87328952D01*
X135470030Y-87241401D01*
X135358599Y-87129970D01*
X135271048Y-86998941D01*
X135210743Y-86853351D01*
X135180000Y-86698794D01*
X135180000Y-86541206D01*
X135210743Y-86386649D01*
X135271048Y-86241059D01*
X135358599Y-86110030D01*
X135470030Y-85998599D01*
X135601059Y-85911048D01*
X135746649Y-85850743D01*
X135901206Y-85820000D01*
X136058794Y-85820000D01*
X136213351Y-85850743D01*
G37*
G36*
X187853351Y-85850743D02*
G01*
X187998941Y-85911048D01*
X188129970Y-85998599D01*
X188241401Y-86110030D01*
X188328952Y-86241059D01*
X188389257Y-86386649D01*
X188420000Y-86541206D01*
X188420000Y-86698794D01*
X188389257Y-86853351D01*
X188328952Y-86998941D01*
X188241401Y-87129970D01*
X188129970Y-87241401D01*
X187998941Y-87328952D01*
X187853351Y-87389257D01*
X187698794Y-87420000D01*
X187541206Y-87420000D01*
X187386649Y-87389257D01*
X187241059Y-87328952D01*
X187110030Y-87241401D01*
X186998599Y-87129970D01*
X186911048Y-86998941D01*
X186850743Y-86853351D01*
X186820000Y-86698794D01*
X186820000Y-86541206D01*
X186850743Y-86386649D01*
X186911048Y-86241059D01*
X186998599Y-86110030D01*
X187110030Y-85998599D01*
X187241059Y-85911048D01*
X187386649Y-85850743D01*
X187541206Y-85820000D01*
X187698794Y-85820000D01*
X187853351Y-85850743D01*
G37*
G36*
X180233351Y-85850743D02*
G01*
X180378941Y-85911048D01*
X180509970Y-85998599D01*
X180621401Y-86110030D01*
X180708952Y-86241059D01*
X180769257Y-86386649D01*
X180800000Y-86541206D01*
X180800000Y-86698794D01*
X180769257Y-86853351D01*
X180708952Y-86998941D01*
X180621401Y-87129970D01*
X180509970Y-87241401D01*
X180378941Y-87328952D01*
X180233351Y-87389257D01*
X180078794Y-87420000D01*
X179921206Y-87420000D01*
X179766649Y-87389257D01*
X179621059Y-87328952D01*
X179490030Y-87241401D01*
X179378599Y-87129970D01*
X179291048Y-86998941D01*
X179230743Y-86853351D01*
X179200000Y-86698794D01*
X179200000Y-86541206D01*
X179230743Y-86386649D01*
X179291048Y-86241059D01*
X179378599Y-86110030D01*
X179490030Y-85998599D01*
X179621059Y-85911048D01*
X179766649Y-85850743D01*
X179921206Y-85820000D01*
X180078794Y-85820000D01*
X180233351Y-85850743D01*
G37*
G36*
X169233351Y-85850743D02*
G01*
X169378941Y-85911048D01*
X169509970Y-85998599D01*
X169621401Y-86110030D01*
X169708952Y-86241059D01*
X169769257Y-86386649D01*
X169800000Y-86541206D01*
X169800000Y-86698794D01*
X169769257Y-86853351D01*
X169708952Y-86998941D01*
X169621401Y-87129970D01*
X169509970Y-87241401D01*
X169378941Y-87328952D01*
X169233351Y-87389257D01*
X169078794Y-87420000D01*
X168921206Y-87420000D01*
X168766649Y-87389257D01*
X168621059Y-87328952D01*
X168490030Y-87241401D01*
X168378599Y-87129970D01*
X168291048Y-86998941D01*
X168230743Y-86853351D01*
X168200000Y-86698794D01*
X168200000Y-86541206D01*
X168230743Y-86386649D01*
X168291048Y-86241059D01*
X168378599Y-86110030D01*
X168490030Y-85998599D01*
X168621059Y-85911048D01*
X168766649Y-85850743D01*
X168921206Y-85820000D01*
X169078794Y-85820000D01*
X169233351Y-85850743D01*
G37*
G36*
X166693351Y-85850743D02*
G01*
X166838941Y-85911048D01*
X166969970Y-85998599D01*
X167081401Y-86110030D01*
X167168952Y-86241059D01*
X167229257Y-86386649D01*
X167260000Y-86541206D01*
X167260000Y-86698794D01*
X167229257Y-86853351D01*
X167168952Y-86998941D01*
X167081401Y-87129970D01*
X166969970Y-87241401D01*
X166838941Y-87328952D01*
X166693351Y-87389257D01*
X166538794Y-87420000D01*
X166381206Y-87420000D01*
X166226649Y-87389257D01*
X166081059Y-87328952D01*
X165950030Y-87241401D01*
X165838599Y-87129970D01*
X165751048Y-86998941D01*
X165690743Y-86853351D01*
X165660000Y-86698794D01*
X165660000Y-86541206D01*
X165690743Y-86386649D01*
X165751048Y-86241059D01*
X165838599Y-86110030D01*
X165950030Y-85998599D01*
X166081059Y-85911048D01*
X166226649Y-85850743D01*
X166381206Y-85820000D01*
X166538794Y-85820000D01*
X166693351Y-85850743D01*
G37*
G36*
X164153351Y-85850743D02*
G01*
X164298941Y-85911048D01*
X164429970Y-85998599D01*
X164541401Y-86110030D01*
X164628952Y-86241059D01*
X164689257Y-86386649D01*
X164720000Y-86541206D01*
X164720000Y-86698794D01*
X164689257Y-86853351D01*
X164628952Y-86998941D01*
X164541401Y-87129970D01*
X164429970Y-87241401D01*
X164298941Y-87328952D01*
X164153351Y-87389257D01*
X163998794Y-87420000D01*
X163841206Y-87420000D01*
X163686649Y-87389257D01*
X163541059Y-87328952D01*
X163410030Y-87241401D01*
X163298599Y-87129970D01*
X163211048Y-86998941D01*
X163150743Y-86853351D01*
X163120000Y-86698794D01*
X163120000Y-86541206D01*
X163150743Y-86386649D01*
X163211048Y-86241059D01*
X163298599Y-86110030D01*
X163410030Y-85998599D01*
X163541059Y-85911048D01*
X163686649Y-85850743D01*
X163841206Y-85820000D01*
X163998794Y-85820000D01*
X164153351Y-85850743D01*
G37*
G36*
X161613351Y-85850743D02*
G01*
X161758941Y-85911048D01*
X161889970Y-85998599D01*
X162001401Y-86110030D01*
X162088952Y-86241059D01*
X162149257Y-86386649D01*
X162180000Y-86541206D01*
X162180000Y-86698794D01*
X162149257Y-86853351D01*
X162088952Y-86998941D01*
X162001401Y-87129970D01*
X161889970Y-87241401D01*
X161758941Y-87328952D01*
X161613351Y-87389257D01*
X161458794Y-87420000D01*
X161301206Y-87420000D01*
X161146649Y-87389257D01*
X161001059Y-87328952D01*
X160870030Y-87241401D01*
X160758599Y-87129970D01*
X160671048Y-86998941D01*
X160610743Y-86853351D01*
X160580000Y-86698794D01*
X160580000Y-86541206D01*
X160610743Y-86386649D01*
X160671048Y-86241059D01*
X160758599Y-86110030D01*
X160870030Y-85998599D01*
X161001059Y-85911048D01*
X161146649Y-85850743D01*
X161301206Y-85820000D01*
X161458794Y-85820000D01*
X161613351Y-85850743D01*
G37*
G36*
X159073351Y-85850743D02*
G01*
X159218941Y-85911048D01*
X159349970Y-85998599D01*
X159461401Y-86110030D01*
X159548952Y-86241059D01*
X159609257Y-86386649D01*
X159640000Y-86541206D01*
X159640000Y-86698794D01*
X159609257Y-86853351D01*
X159548952Y-86998941D01*
X159461401Y-87129970D01*
X159349970Y-87241401D01*
X159218941Y-87328952D01*
X159073351Y-87389257D01*
X158918794Y-87420000D01*
X158761206Y-87420000D01*
X158606649Y-87389257D01*
X158461059Y-87328952D01*
X158330030Y-87241401D01*
X158218599Y-87129970D01*
X158131048Y-86998941D01*
X158070743Y-86853351D01*
X158040000Y-86698794D01*
X158040000Y-86541206D01*
X158070743Y-86386649D01*
X158131048Y-86241059D01*
X158218599Y-86110030D01*
X158330030Y-85998599D01*
X158461059Y-85911048D01*
X158606649Y-85850743D01*
X158761206Y-85820000D01*
X158918794Y-85820000D01*
X159073351Y-85850743D01*
G37*
G36*
X153993351Y-85850743D02*
G01*
X154138941Y-85911048D01*
X154269970Y-85998599D01*
X154381401Y-86110030D01*
X154468952Y-86241059D01*
X154529257Y-86386649D01*
X154560000Y-86541206D01*
X154560000Y-86698794D01*
X154529257Y-86853351D01*
X154468952Y-86998941D01*
X154381401Y-87129970D01*
X154269970Y-87241401D01*
X154138941Y-87328952D01*
X153993351Y-87389257D01*
X153838794Y-87420000D01*
X153681206Y-87420000D01*
X153526649Y-87389257D01*
X153381059Y-87328952D01*
X153250030Y-87241401D01*
X153138599Y-87129970D01*
X153051048Y-86998941D01*
X152990743Y-86853351D01*
X152960000Y-86698794D01*
X152960000Y-86541206D01*
X152990743Y-86386649D01*
X153051048Y-86241059D01*
X153138599Y-86110030D01*
X153250030Y-85998599D01*
X153381059Y-85911048D01*
X153526649Y-85850743D01*
X153681206Y-85820000D01*
X153838794Y-85820000D01*
X153993351Y-85850743D01*
G37*
G36*
X151453351Y-85850743D02*
G01*
X151598941Y-85911048D01*
X151729970Y-85998599D01*
X151841401Y-86110030D01*
X151928952Y-86241059D01*
X151989257Y-86386649D01*
X152020000Y-86541206D01*
X152020000Y-86698794D01*
X151989257Y-86853351D01*
X151928952Y-86998941D01*
X151841401Y-87129970D01*
X151729970Y-87241401D01*
X151598941Y-87328952D01*
X151453351Y-87389257D01*
X151298794Y-87420000D01*
X151141206Y-87420000D01*
X150986649Y-87389257D01*
X150841059Y-87328952D01*
X150710030Y-87241401D01*
X150598599Y-87129970D01*
X150511048Y-86998941D01*
X150450743Y-86853351D01*
X150420000Y-86698794D01*
X150420000Y-86541206D01*
X150450743Y-86386649D01*
X150511048Y-86241059D01*
X150598599Y-86110030D01*
X150710030Y-85998599D01*
X150841059Y-85911048D01*
X150986649Y-85850743D01*
X151141206Y-85820000D01*
X151298794Y-85820000D01*
X151453351Y-85850743D01*
G37*
G36*
X148913351Y-85850743D02*
G01*
X149058941Y-85911048D01*
X149189970Y-85998599D01*
X149301401Y-86110030D01*
X149388952Y-86241059D01*
X149449257Y-86386649D01*
X149480000Y-86541206D01*
X149480000Y-86698794D01*
X149449257Y-86853351D01*
X149388952Y-86998941D01*
X149301401Y-87129970D01*
X149189970Y-87241401D01*
X149058941Y-87328952D01*
X148913351Y-87389257D01*
X148758794Y-87420000D01*
X148601206Y-87420000D01*
X148446649Y-87389257D01*
X148301059Y-87328952D01*
X148170030Y-87241401D01*
X148058599Y-87129970D01*
X147971048Y-86998941D01*
X147910743Y-86853351D01*
X147880000Y-86698794D01*
X147880000Y-86541206D01*
X147910743Y-86386649D01*
X147971048Y-86241059D01*
X148058599Y-86110030D01*
X148170030Y-85998599D01*
X148301059Y-85911048D01*
X148446649Y-85850743D01*
X148601206Y-85820000D01*
X148758794Y-85820000D01*
X148913351Y-85850743D01*
G37*
G36*
X146373351Y-85850743D02*
G01*
X146518941Y-85911048D01*
X146649970Y-85998599D01*
X146761401Y-86110030D01*
X146848952Y-86241059D01*
X146909257Y-86386649D01*
X146940000Y-86541206D01*
X146940000Y-86698794D01*
X146909257Y-86853351D01*
X146848952Y-86998941D01*
X146761401Y-87129970D01*
X146649970Y-87241401D01*
X146518941Y-87328952D01*
X146373351Y-87389257D01*
X146218794Y-87420000D01*
X146061206Y-87420000D01*
X145906649Y-87389257D01*
X145761059Y-87328952D01*
X145630030Y-87241401D01*
X145518599Y-87129970D01*
X145431048Y-86998941D01*
X145370743Y-86853351D01*
X145340000Y-86698794D01*
X145340000Y-86541206D01*
X145370743Y-86386649D01*
X145431048Y-86241059D01*
X145518599Y-86110030D01*
X145630030Y-85998599D01*
X145761059Y-85911048D01*
X145906649Y-85850743D01*
X146061206Y-85820000D01*
X146218794Y-85820000D01*
X146373351Y-85850743D01*
G37*
G36*
X143833351Y-85850743D02*
G01*
X143978941Y-85911048D01*
X144109970Y-85998599D01*
X144221401Y-86110030D01*
X144308952Y-86241059D01*
X144369257Y-86386649D01*
X144400000Y-86541206D01*
X144400000Y-86698794D01*
X144369257Y-86853351D01*
X144308952Y-86998941D01*
X144221401Y-87129970D01*
X144109970Y-87241401D01*
X143978941Y-87328952D01*
X143833351Y-87389257D01*
X143678794Y-87420000D01*
X143521206Y-87420000D01*
X143366649Y-87389257D01*
X143221059Y-87328952D01*
X143090030Y-87241401D01*
X142978599Y-87129970D01*
X142891048Y-86998941D01*
X142830743Y-86853351D01*
X142800000Y-86698794D01*
X142800000Y-86541206D01*
X142830743Y-86386649D01*
X142891048Y-86241059D01*
X142978599Y-86110030D01*
X143090030Y-85998599D01*
X143221059Y-85911048D01*
X143366649Y-85850743D01*
X143521206Y-85820000D01*
X143678794Y-85820000D01*
X143833351Y-85850743D01*
G37*
G36*
X141293351Y-85850743D02*
G01*
X141438941Y-85911048D01*
X141569970Y-85998599D01*
X141681401Y-86110030D01*
X141768952Y-86241059D01*
X141829257Y-86386649D01*
X141860000Y-86541206D01*
X141860000Y-86698794D01*
X141829257Y-86853351D01*
X141768952Y-86998941D01*
X141681401Y-87129970D01*
X141569970Y-87241401D01*
X141438941Y-87328952D01*
X141293351Y-87389257D01*
X141138794Y-87420000D01*
X140981206Y-87420000D01*
X140826649Y-87389257D01*
X140681059Y-87328952D01*
X140550030Y-87241401D01*
X140438599Y-87129970D01*
X140351048Y-86998941D01*
X140290743Y-86853351D01*
X140260000Y-86698794D01*
X140260000Y-86541206D01*
X140290743Y-86386649D01*
X140351048Y-86241059D01*
X140438599Y-86110030D01*
X140550030Y-85998599D01*
X140681059Y-85911048D01*
X140826649Y-85850743D01*
X140981206Y-85820000D01*
X141138794Y-85820000D01*
X141293351Y-85850743D01*
G37*
G36*
X138753351Y-85850743D02*
G01*
X138898941Y-85911048D01*
X139029970Y-85998599D01*
X139141401Y-86110030D01*
X139228952Y-86241059D01*
X139289257Y-86386649D01*
X139320000Y-86541206D01*
X139320000Y-86698794D01*
X139289257Y-86853351D01*
X139228952Y-86998941D01*
X139141401Y-87129970D01*
X139029970Y-87241401D01*
X138898941Y-87328952D01*
X138753351Y-87389257D01*
X138598794Y-87420000D01*
X138441206Y-87420000D01*
X138286649Y-87389257D01*
X138141059Y-87328952D01*
X138010030Y-87241401D01*
X137898599Y-87129970D01*
X137811048Y-86998941D01*
X137750743Y-86853351D01*
X137720000Y-86698794D01*
X137720000Y-86541206D01*
X137750743Y-86386649D01*
X137811048Y-86241059D01*
X137898599Y-86110030D01*
X138010030Y-85998599D01*
X138141059Y-85911048D01*
X138286649Y-85850743D01*
X138441206Y-85820000D01*
X138598794Y-85820000D01*
X138753351Y-85850743D01*
G37*
G36*
X156533351Y-85850743D02*
G01*
X156678941Y-85911048D01*
X156809970Y-85998599D01*
X156921401Y-86110030D01*
X157008952Y-86241059D01*
X157069257Y-86386649D01*
X157100000Y-86541206D01*
X157100000Y-86698794D01*
X157069257Y-86853351D01*
X157008952Y-86998941D01*
X156921401Y-87129970D01*
X156809970Y-87241401D01*
X156678941Y-87328952D01*
X156533351Y-87389257D01*
X156378794Y-87420000D01*
X156221206Y-87420000D01*
X156066649Y-87389257D01*
X155921059Y-87328952D01*
X155790030Y-87241401D01*
X155678599Y-87129970D01*
X155591048Y-86998941D01*
X155530743Y-86853351D01*
X155500000Y-86698794D01*
X155500000Y-86541206D01*
X155530743Y-86386649D01*
X155591048Y-86241059D01*
X155678599Y-86110030D01*
X155790030Y-85998599D01*
X155921059Y-85911048D01*
X156066649Y-85850743D01*
X156221206Y-85820000D01*
X156378794Y-85820000D01*
X156533351Y-85850743D01*
G37*
G36*
X180233351Y-83310743D02*
G01*
X180378941Y-83371048D01*
X180509970Y-83458599D01*
X180621401Y-83570030D01*
X180708952Y-83701059D01*
X180769257Y-83846649D01*
X180800000Y-84001206D01*
X180800000Y-84158794D01*
X180769257Y-84313351D01*
X180708952Y-84458941D01*
X180621401Y-84589970D01*
X180509970Y-84701401D01*
X180378941Y-84788952D01*
X180233351Y-84849257D01*
X180078794Y-84880000D01*
X179921206Y-84880000D01*
X179766649Y-84849257D01*
X179621059Y-84788952D01*
X179490030Y-84701401D01*
X179378599Y-84589970D01*
X179291048Y-84458941D01*
X179230743Y-84313351D01*
X179200000Y-84158794D01*
X179200000Y-84001206D01*
X179230743Y-83846649D01*
X179291048Y-83701059D01*
X179378599Y-83570030D01*
X179490030Y-83458599D01*
X179621059Y-83371048D01*
X179766649Y-83310743D01*
X179921206Y-83280000D01*
X180078794Y-83280000D01*
X180233351Y-83310743D01*
G37*
G36*
X187853351Y-83310743D02*
G01*
X187998941Y-83371048D01*
X188129970Y-83458599D01*
X188241401Y-83570030D01*
X188328952Y-83701059D01*
X188389257Y-83846649D01*
X188420000Y-84001206D01*
X188420000Y-84158794D01*
X188389257Y-84313351D01*
X188328952Y-84458941D01*
X188241401Y-84589970D01*
X188129970Y-84701401D01*
X187998941Y-84788952D01*
X187853351Y-84849257D01*
X187698794Y-84880000D01*
X187541206Y-84880000D01*
X187386649Y-84849257D01*
X187241059Y-84788952D01*
X187110030Y-84701401D01*
X186998599Y-84589970D01*
X186911048Y-84458941D01*
X186850743Y-84313351D01*
X186820000Y-84158794D01*
X186820000Y-84001206D01*
X186850743Y-83846649D01*
X186911048Y-83701059D01*
X186998599Y-83570030D01*
X187110030Y-83458599D01*
X187241059Y-83371048D01*
X187386649Y-83310743D01*
X187541206Y-83280000D01*
X187698794Y-83280000D01*
X187853351Y-83310743D01*
G37*
G36*
X180233351Y-80770743D02*
G01*
X180378941Y-80831048D01*
X180509970Y-80918599D01*
X180621401Y-81030030D01*
X180708952Y-81161059D01*
X180769257Y-81306649D01*
X180800000Y-81461206D01*
X180800000Y-81618794D01*
X180769257Y-81773351D01*
X180708952Y-81918941D01*
X180621401Y-82049970D01*
X180509970Y-82161401D01*
X180378941Y-82248952D01*
X180233351Y-82309257D01*
X180078794Y-82340000D01*
X179921206Y-82340000D01*
X179766649Y-82309257D01*
X179621059Y-82248952D01*
X179490030Y-82161401D01*
X179378599Y-82049970D01*
X179291048Y-81918941D01*
X179230743Y-81773351D01*
X179200000Y-81618794D01*
X179200000Y-81461206D01*
X179230743Y-81306649D01*
X179291048Y-81161059D01*
X179378599Y-81030030D01*
X179490030Y-80918599D01*
X179621059Y-80831048D01*
X179766649Y-80770743D01*
X179921206Y-80740000D01*
X180078794Y-80740000D01*
X180233351Y-80770743D01*
G37*
G36*
X187853351Y-80770743D02*
G01*
X187998941Y-80831048D01*
X188129970Y-80918599D01*
X188241401Y-81030030D01*
X188328952Y-81161059D01*
X188389257Y-81306649D01*
X188420000Y-81461206D01*
X188420000Y-81618794D01*
X188389257Y-81773351D01*
X188328952Y-81918941D01*
X188241401Y-82049970D01*
X188129970Y-82161401D01*
X187998941Y-82248952D01*
X187853351Y-82309257D01*
X187698794Y-82340000D01*
X187541206Y-82340000D01*
X187386649Y-82309257D01*
X187241059Y-82248952D01*
X187110030Y-82161401D01*
X186998599Y-82049970D01*
X186911048Y-81918941D01*
X186850743Y-81773351D01*
X186820000Y-81618794D01*
X186820000Y-81461206D01*
X186850743Y-81306649D01*
X186911048Y-81161059D01*
X186998599Y-81030030D01*
X187110030Y-80918599D01*
X187241059Y-80831048D01*
X187386649Y-80770743D01*
X187541206Y-80740000D01*
X187698794Y-80740000D01*
X187853351Y-80770743D01*
G37*
G36*
X136213351Y-78230743D02*
G01*
X136358941Y-78291048D01*
X136489970Y-78378599D01*
X136601401Y-78490030D01*
X136688952Y-78621059D01*
X136749257Y-78766649D01*
X136780000Y-78921206D01*
X136780000Y-79078794D01*
X136749257Y-79233351D01*
X136688952Y-79378941D01*
X136601401Y-79509970D01*
X136489970Y-79621401D01*
X136358941Y-79708952D01*
X136213351Y-79769257D01*
X136058794Y-79800000D01*
X135901206Y-79800000D01*
X135746649Y-79769257D01*
X135601059Y-79708952D01*
X135470030Y-79621401D01*
X135358599Y-79509970D01*
X135271048Y-79378941D01*
X135210743Y-79233351D01*
X135180000Y-79078794D01*
X135180000Y-78921206D01*
X135210743Y-78766649D01*
X135271048Y-78621059D01*
X135358599Y-78490030D01*
X135470030Y-78378599D01*
X135601059Y-78291048D01*
X135746649Y-78230743D01*
X135901206Y-78200000D01*
X136058794Y-78200000D01*
X136213351Y-78230743D01*
G37*
G36*
X187853351Y-78230743D02*
G01*
X187998941Y-78291048D01*
X188129970Y-78378599D01*
X188241401Y-78490030D01*
X188328952Y-78621059D01*
X188389257Y-78766649D01*
X188420000Y-78921206D01*
X188420000Y-79078794D01*
X188389257Y-79233351D01*
X188328952Y-79378941D01*
X188241401Y-79509970D01*
X188129970Y-79621401D01*
X187998941Y-79708952D01*
X187853351Y-79769257D01*
X187698794Y-79800000D01*
X187541206Y-79800000D01*
X187386649Y-79769257D01*
X187241059Y-79708952D01*
X187110030Y-79621401D01*
X186998599Y-79509970D01*
X186911048Y-79378941D01*
X186850743Y-79233351D01*
X186820000Y-79078794D01*
X186820000Y-78921206D01*
X186850743Y-78766649D01*
X186911048Y-78621059D01*
X186998599Y-78490030D01*
X187110030Y-78378599D01*
X187241059Y-78291048D01*
X187386649Y-78230743D01*
X187541206Y-78200000D01*
X187698794Y-78200000D01*
X187853351Y-78230743D01*
G37*
G36*
X169800000Y-79800000D02*
G01*
X168200000Y-79800000D01*
X168200000Y-78200000D01*
X169800000Y-78200000D01*
X169800000Y-79800000D01*
G37*
G36*
X166693351Y-78230743D02*
G01*
X166838941Y-78291048D01*
X166969970Y-78378599D01*
X167081401Y-78490030D01*
X167168952Y-78621059D01*
X167229257Y-78766649D01*
X167260000Y-78921206D01*
X167260000Y-79078794D01*
X167229257Y-79233351D01*
X167168952Y-79378941D01*
X167081401Y-79509970D01*
X166969970Y-79621401D01*
X166838941Y-79708952D01*
X166693351Y-79769257D01*
X166538794Y-79800000D01*
X166381206Y-79800000D01*
X166226649Y-79769257D01*
X166081059Y-79708952D01*
X165950030Y-79621401D01*
X165838599Y-79509970D01*
X165751048Y-79378941D01*
X165690743Y-79233351D01*
X165660000Y-79078794D01*
X165660000Y-78921206D01*
X165690743Y-78766649D01*
X165751048Y-78621059D01*
X165838599Y-78490030D01*
X165950030Y-78378599D01*
X166081059Y-78291048D01*
X166226649Y-78230743D01*
X166381206Y-78200000D01*
X166538794Y-78200000D01*
X166693351Y-78230743D01*
G37*
G36*
X164153351Y-78230743D02*
G01*
X164298941Y-78291048D01*
X164429970Y-78378599D01*
X164541401Y-78490030D01*
X164628952Y-78621059D01*
X164689257Y-78766649D01*
X164720000Y-78921206D01*
X164720000Y-79078794D01*
X164689257Y-79233351D01*
X164628952Y-79378941D01*
X164541401Y-79509970D01*
X164429970Y-79621401D01*
X164298941Y-79708952D01*
X164153351Y-79769257D01*
X163998794Y-79800000D01*
X163841206Y-79800000D01*
X163686649Y-79769257D01*
X163541059Y-79708952D01*
X163410030Y-79621401D01*
X163298599Y-79509970D01*
X163211048Y-79378941D01*
X163150743Y-79233351D01*
X163120000Y-79078794D01*
X163120000Y-78921206D01*
X163150743Y-78766649D01*
X163211048Y-78621059D01*
X163298599Y-78490030D01*
X163410030Y-78378599D01*
X163541059Y-78291048D01*
X163686649Y-78230743D01*
X163841206Y-78200000D01*
X163998794Y-78200000D01*
X164153351Y-78230743D01*
G37*
G36*
X161613351Y-78230743D02*
G01*
X161758941Y-78291048D01*
X161889970Y-78378599D01*
X162001401Y-78490030D01*
X162088952Y-78621059D01*
X162149257Y-78766649D01*
X162180000Y-78921206D01*
X162180000Y-79078794D01*
X162149257Y-79233351D01*
X162088952Y-79378941D01*
X162001401Y-79509970D01*
X161889970Y-79621401D01*
X161758941Y-79708952D01*
X161613351Y-79769257D01*
X161458794Y-79800000D01*
X161301206Y-79800000D01*
X161146649Y-79769257D01*
X161001059Y-79708952D01*
X160870030Y-79621401D01*
X160758599Y-79509970D01*
X160671048Y-79378941D01*
X160610743Y-79233351D01*
X160580000Y-79078794D01*
X160580000Y-78921206D01*
X160610743Y-78766649D01*
X160671048Y-78621059D01*
X160758599Y-78490030D01*
X160870030Y-78378599D01*
X161001059Y-78291048D01*
X161146649Y-78230743D01*
X161301206Y-78200000D01*
X161458794Y-78200000D01*
X161613351Y-78230743D01*
G37*
G36*
X159073351Y-78230743D02*
G01*
X159218941Y-78291048D01*
X159349970Y-78378599D01*
X159461401Y-78490030D01*
X159548952Y-78621059D01*
X159609257Y-78766649D01*
X159640000Y-78921206D01*
X159640000Y-79078794D01*
X159609257Y-79233351D01*
X159548952Y-79378941D01*
X159461401Y-79509970D01*
X159349970Y-79621401D01*
X159218941Y-79708952D01*
X159073351Y-79769257D01*
X158918794Y-79800000D01*
X158761206Y-79800000D01*
X158606649Y-79769257D01*
X158461059Y-79708952D01*
X158330030Y-79621401D01*
X158218599Y-79509970D01*
X158131048Y-79378941D01*
X158070743Y-79233351D01*
X158040000Y-79078794D01*
X158040000Y-78921206D01*
X158070743Y-78766649D01*
X158131048Y-78621059D01*
X158218599Y-78490030D01*
X158330030Y-78378599D01*
X158461059Y-78291048D01*
X158606649Y-78230743D01*
X158761206Y-78200000D01*
X158918794Y-78200000D01*
X159073351Y-78230743D01*
G37*
G36*
X156533351Y-78230743D02*
G01*
X156678941Y-78291048D01*
X156809970Y-78378599D01*
X156921401Y-78490030D01*
X157008952Y-78621059D01*
X157069257Y-78766649D01*
X157100000Y-78921206D01*
X157100000Y-79078794D01*
X157069257Y-79233351D01*
X157008952Y-79378941D01*
X156921401Y-79509970D01*
X156809970Y-79621401D01*
X156678941Y-79708952D01*
X156533351Y-79769257D01*
X156378794Y-79800000D01*
X156221206Y-79800000D01*
X156066649Y-79769257D01*
X155921059Y-79708952D01*
X155790030Y-79621401D01*
X155678599Y-79509970D01*
X155591048Y-79378941D01*
X155530743Y-79233351D01*
X155500000Y-79078794D01*
X155500000Y-78921206D01*
X155530743Y-78766649D01*
X155591048Y-78621059D01*
X155678599Y-78490030D01*
X155790030Y-78378599D01*
X155921059Y-78291048D01*
X156066649Y-78230743D01*
X156221206Y-78200000D01*
X156378794Y-78200000D01*
X156533351Y-78230743D01*
G37*
G36*
X153993351Y-78230743D02*
G01*
X154138941Y-78291048D01*
X154269970Y-78378599D01*
X154381401Y-78490030D01*
X154468952Y-78621059D01*
X154529257Y-78766649D01*
X154560000Y-78921206D01*
X154560000Y-79078794D01*
X154529257Y-79233351D01*
X154468952Y-79378941D01*
X154381401Y-79509970D01*
X154269970Y-79621401D01*
X154138941Y-79708952D01*
X153993351Y-79769257D01*
X153838794Y-79800000D01*
X153681206Y-79800000D01*
X153526649Y-79769257D01*
X153381059Y-79708952D01*
X153250030Y-79621401D01*
X153138599Y-79509970D01*
X153051048Y-79378941D01*
X152990743Y-79233351D01*
X152960000Y-79078794D01*
X152960000Y-78921206D01*
X152990743Y-78766649D01*
X153051048Y-78621059D01*
X153138599Y-78490030D01*
X153250030Y-78378599D01*
X153381059Y-78291048D01*
X153526649Y-78230743D01*
X153681206Y-78200000D01*
X153838794Y-78200000D01*
X153993351Y-78230743D01*
G37*
G36*
X151453351Y-78230743D02*
G01*
X151598941Y-78291048D01*
X151729970Y-78378599D01*
X151841401Y-78490030D01*
X151928952Y-78621059D01*
X151989257Y-78766649D01*
X152020000Y-78921206D01*
X152020000Y-79078794D01*
X151989257Y-79233351D01*
X151928952Y-79378941D01*
X151841401Y-79509970D01*
X151729970Y-79621401D01*
X151598941Y-79708952D01*
X151453351Y-79769257D01*
X151298794Y-79800000D01*
X151141206Y-79800000D01*
X150986649Y-79769257D01*
X150841059Y-79708952D01*
X150710030Y-79621401D01*
X150598599Y-79509970D01*
X150511048Y-79378941D01*
X150450743Y-79233351D01*
X150420000Y-79078794D01*
X150420000Y-78921206D01*
X150450743Y-78766649D01*
X150511048Y-78621059D01*
X150598599Y-78490030D01*
X150710030Y-78378599D01*
X150841059Y-78291048D01*
X150986649Y-78230743D01*
X151141206Y-78200000D01*
X151298794Y-78200000D01*
X151453351Y-78230743D01*
G37*
G36*
X148913351Y-78230743D02*
G01*
X149058941Y-78291048D01*
X149189970Y-78378599D01*
X149301401Y-78490030D01*
X149388952Y-78621059D01*
X149449257Y-78766649D01*
X149480000Y-78921206D01*
X149480000Y-79078794D01*
X149449257Y-79233351D01*
X149388952Y-79378941D01*
X149301401Y-79509970D01*
X149189970Y-79621401D01*
X149058941Y-79708952D01*
X148913351Y-79769257D01*
X148758794Y-79800000D01*
X148601206Y-79800000D01*
X148446649Y-79769257D01*
X148301059Y-79708952D01*
X148170030Y-79621401D01*
X148058599Y-79509970D01*
X147971048Y-79378941D01*
X147910743Y-79233351D01*
X147880000Y-79078794D01*
X147880000Y-78921206D01*
X147910743Y-78766649D01*
X147971048Y-78621059D01*
X148058599Y-78490030D01*
X148170030Y-78378599D01*
X148301059Y-78291048D01*
X148446649Y-78230743D01*
X148601206Y-78200000D01*
X148758794Y-78200000D01*
X148913351Y-78230743D01*
G37*
G36*
X146373351Y-78230743D02*
G01*
X146518941Y-78291048D01*
X146649970Y-78378599D01*
X146761401Y-78490030D01*
X146848952Y-78621059D01*
X146909257Y-78766649D01*
X146940000Y-78921206D01*
X146940000Y-79078794D01*
X146909257Y-79233351D01*
X146848952Y-79378941D01*
X146761401Y-79509970D01*
X146649970Y-79621401D01*
X146518941Y-79708952D01*
X146373351Y-79769257D01*
X146218794Y-79800000D01*
X146061206Y-79800000D01*
X145906649Y-79769257D01*
X145761059Y-79708952D01*
X145630030Y-79621401D01*
X145518599Y-79509970D01*
X145431048Y-79378941D01*
X145370743Y-79233351D01*
X145340000Y-79078794D01*
X145340000Y-78921206D01*
X145370743Y-78766649D01*
X145431048Y-78621059D01*
X145518599Y-78490030D01*
X145630030Y-78378599D01*
X145761059Y-78291048D01*
X145906649Y-78230743D01*
X146061206Y-78200000D01*
X146218794Y-78200000D01*
X146373351Y-78230743D01*
G37*
G36*
X143833351Y-78230743D02*
G01*
X143978941Y-78291048D01*
X144109970Y-78378599D01*
X144221401Y-78490030D01*
X144308952Y-78621059D01*
X144369257Y-78766649D01*
X144400000Y-78921206D01*
X144400000Y-79078794D01*
X144369257Y-79233351D01*
X144308952Y-79378941D01*
X144221401Y-79509970D01*
X144109970Y-79621401D01*
X143978941Y-79708952D01*
X143833351Y-79769257D01*
X143678794Y-79800000D01*
X143521206Y-79800000D01*
X143366649Y-79769257D01*
X143221059Y-79708952D01*
X143090030Y-79621401D01*
X142978599Y-79509970D01*
X142891048Y-79378941D01*
X142830743Y-79233351D01*
X142800000Y-79078794D01*
X142800000Y-78921206D01*
X142830743Y-78766649D01*
X142891048Y-78621059D01*
X142978599Y-78490030D01*
X143090030Y-78378599D01*
X143221059Y-78291048D01*
X143366649Y-78230743D01*
X143521206Y-78200000D01*
X143678794Y-78200000D01*
X143833351Y-78230743D01*
G37*
G36*
X141293351Y-78230743D02*
G01*
X141438941Y-78291048D01*
X141569970Y-78378599D01*
X141681401Y-78490030D01*
X141768952Y-78621059D01*
X141829257Y-78766649D01*
X141860000Y-78921206D01*
X141860000Y-79078794D01*
X141829257Y-79233351D01*
X141768952Y-79378941D01*
X141681401Y-79509970D01*
X141569970Y-79621401D01*
X141438941Y-79708952D01*
X141293351Y-79769257D01*
X141138794Y-79800000D01*
X140981206Y-79800000D01*
X140826649Y-79769257D01*
X140681059Y-79708952D01*
X140550030Y-79621401D01*
X140438599Y-79509970D01*
X140351048Y-79378941D01*
X140290743Y-79233351D01*
X140260000Y-79078794D01*
X140260000Y-78921206D01*
X140290743Y-78766649D01*
X140351048Y-78621059D01*
X140438599Y-78490030D01*
X140550030Y-78378599D01*
X140681059Y-78291048D01*
X140826649Y-78230743D01*
X140981206Y-78200000D01*
X141138794Y-78200000D01*
X141293351Y-78230743D01*
G37*
G36*
X180800000Y-79800000D02*
G01*
X179200000Y-79800000D01*
X179200000Y-78200000D01*
X180800000Y-78200000D01*
X180800000Y-79800000D01*
G37*
G36*
X138753351Y-78230743D02*
G01*
X138898941Y-78291048D01*
X139029970Y-78378599D01*
X139141401Y-78490030D01*
X139228952Y-78621059D01*
X139289257Y-78766649D01*
X139320000Y-78921206D01*
X139320000Y-79078794D01*
X139289257Y-79233351D01*
X139228952Y-79378941D01*
X139141401Y-79509970D01*
X139029970Y-79621401D01*
X138898941Y-79708952D01*
X138753351Y-79769257D01*
X138598794Y-79800000D01*
X138441206Y-79800000D01*
X138286649Y-79769257D01*
X138141059Y-79708952D01*
X138010030Y-79621401D01*
X137898599Y-79509970D01*
X137811048Y-79378941D01*
X137750743Y-79233351D01*
X137720000Y-79078794D01*
X137720000Y-78921206D01*
X137750743Y-78766649D01*
X137811048Y-78621059D01*
X137898599Y-78490030D01*
X138010030Y-78378599D01*
X138141059Y-78291048D01*
X138286649Y-78230743D01*
X138441206Y-78200000D01*
X138598794Y-78200000D01*
X138753351Y-78230743D01*
G37*
G36*
X145500000Y-75450000D02*
G01*
X145000000Y-75450000D01*
X145000000Y-74550000D01*
X145500000Y-74550000D01*
X145500000Y-75450000D01*
G37*
G36*
X147000000Y-75450000D02*
G01*
X146500000Y-75450000D01*
X146500000Y-74550000D01*
X147000000Y-74550000D01*
X147000000Y-75450000D01*
G37*
G36*
X177000000Y-74450000D02*
G01*
X176500000Y-74450000D01*
X176500000Y-73550000D01*
X177000000Y-73550000D01*
X177000000Y-74450000D01*
G37*
G36*
X175500000Y-74450000D02*
G01*
X175000000Y-74450000D01*
X175000000Y-73550000D01*
X175500000Y-73550000D01*
X175500000Y-74450000D01*
G37*
G36*
X173218766Y-67278821D02*
G01*
X173355257Y-67335358D01*
X173478097Y-67417437D01*
X173582563Y-67521903D01*
X173664642Y-67644743D01*
X173721179Y-67781234D01*
X173750000Y-67926130D01*
X173750000Y-68073870D01*
X173721179Y-68218766D01*
X173664642Y-68355257D01*
X173582563Y-68478097D01*
X173478097Y-68582563D01*
X173355257Y-68664642D01*
X173218766Y-68721179D01*
X173073870Y-68750000D01*
X172926130Y-68750000D01*
X172781234Y-68721179D01*
X172644743Y-68664642D01*
X172521903Y-68582563D01*
X172417437Y-68478097D01*
X172335358Y-68355257D01*
X172278821Y-68218766D01*
X172250000Y-68073870D01*
X172250000Y-67926130D01*
X172278821Y-67781234D01*
X172335358Y-67644743D01*
X172417437Y-67521903D01*
X172521903Y-67417437D01*
X172644743Y-67335358D01*
X172781234Y-67278821D01*
X172926130Y-67250000D01*
X173073870Y-67250000D01*
X173218766Y-67278821D01*
G37*
G36*
X173218766Y-62398821D02*
G01*
X173355257Y-62455358D01*
X173478097Y-62537437D01*
X173582563Y-62641903D01*
X173664642Y-62764743D01*
X173721179Y-62901234D01*
X173750000Y-63046130D01*
X173750000Y-63193870D01*
X173721179Y-63338766D01*
X173664642Y-63475257D01*
X173582563Y-63598097D01*
X173478097Y-63702563D01*
X173355257Y-63784642D01*
X173218766Y-63841179D01*
X173073870Y-63870000D01*
X172926130Y-63870000D01*
X172781234Y-63841179D01*
X172644743Y-63784642D01*
X172521903Y-63702563D01*
X172417437Y-63598097D01*
X172335358Y-63475257D01*
X172278821Y-63338766D01*
X172250000Y-63193870D01*
X172250000Y-63046130D01*
X172278821Y-62901234D01*
X172335358Y-62764743D01*
X172417437Y-62641903D01*
X172521903Y-62537437D01*
X172644743Y-62455358D01*
X172781234Y-62398821D01*
X172926130Y-62370000D01*
X173073870Y-62370000D01*
X173218766Y-62398821D01*
G37*
G36*
X127828857Y-54060272D02*
G01*
X128029043Y-54143192D01*
X128029045Y-54143193D01*
X128119738Y-54203792D01*
X128209208Y-54263574D01*
X128362426Y-54416792D01*
X128482808Y-54596957D01*
X128565728Y-54797143D01*
X128608000Y-55009658D01*
X128608000Y-55226342D01*
X128565728Y-55438857D01*
X128482808Y-55639043D01*
X128482807Y-55639045D01*
X128362425Y-55819209D01*
X128209209Y-55972425D01*
X128029045Y-56092807D01*
X128029044Y-56092808D01*
X128029043Y-56092808D01*
X127828857Y-56175728D01*
X127616342Y-56218000D01*
X127399658Y-56218000D01*
X127187143Y-56175728D01*
X126986957Y-56092808D01*
X126986956Y-56092808D01*
X126986955Y-56092807D01*
X126806791Y-55972425D01*
X126653575Y-55819209D01*
X126533193Y-55639045D01*
X126533192Y-55639043D01*
X126450272Y-55438857D01*
X126408000Y-55226342D01*
X126408000Y-55009658D01*
X126450272Y-54797143D01*
X126533192Y-54596957D01*
X126653574Y-54416792D01*
X126806792Y-54263574D01*
X126896262Y-54203792D01*
X126986955Y-54143193D01*
X126986957Y-54143192D01*
X127187143Y-54060272D01*
X127399658Y-54018000D01*
X127616342Y-54018000D01*
X127828857Y-54060272D01*
G37*
G36*
X132908857Y-54060272D02*
G01*
X133109043Y-54143192D01*
X133109045Y-54143193D01*
X133199738Y-54203792D01*
X133289208Y-54263574D01*
X133442426Y-54416792D01*
X133562808Y-54596957D01*
X133645728Y-54797143D01*
X133688000Y-55009658D01*
X133688000Y-55226342D01*
X133645728Y-55438857D01*
X133562808Y-55639043D01*
X133562807Y-55639045D01*
X133442425Y-55819209D01*
X133289209Y-55972425D01*
X133109045Y-56092807D01*
X133109044Y-56092808D01*
X133109043Y-56092808D01*
X132908857Y-56175728D01*
X132696342Y-56218000D01*
X132479658Y-56218000D01*
X132267143Y-56175728D01*
X132066957Y-56092808D01*
X132066956Y-56092808D01*
X132066955Y-56092807D01*
X131886791Y-55972425D01*
X131733575Y-55819209D01*
X131613193Y-55639045D01*
X131613192Y-55639043D01*
X131530272Y-55438857D01*
X131488000Y-55226342D01*
X131488000Y-55009658D01*
X131530272Y-54797143D01*
X131613192Y-54596957D01*
X131733574Y-54416792D01*
X131886792Y-54263574D01*
X131976262Y-54203792D01*
X132066955Y-54143193D01*
X132066957Y-54143192D01*
X132267143Y-54060272D01*
X132479658Y-54018000D01*
X132696342Y-54018000D01*
X132908857Y-54060272D01*
G37*
G36*
X130275290Y-51603619D02*
G01*
X130339689Y-51616429D01*
X130521678Y-51691811D01*
X130685463Y-51801249D01*
X130824751Y-51940537D01*
X130934189Y-52104322D01*
X131009571Y-52286311D01*
X131048000Y-52479509D01*
X131048000Y-52676491D01*
X131009571Y-52869689D01*
X130934189Y-53051678D01*
X130824751Y-53215463D01*
X130685463Y-53354751D01*
X130521678Y-53464189D01*
X130339689Y-53539571D01*
X130275290Y-53552381D01*
X130146493Y-53578000D01*
X129949507Y-53578000D01*
X129820710Y-53552381D01*
X129756311Y-53539571D01*
X129574322Y-53464189D01*
X129410537Y-53354751D01*
X129271249Y-53215463D01*
X129161811Y-53051678D01*
X129086429Y-52869689D01*
X129048000Y-52676491D01*
X129048000Y-52479509D01*
X129086429Y-52286311D01*
X129161811Y-52104322D01*
X129271249Y-51940537D01*
X129410537Y-51801249D01*
X129574322Y-51691811D01*
X129756311Y-51616429D01*
X129820710Y-51603619D01*
X129949507Y-51578000D01*
X130146493Y-51578000D01*
X130275290Y-51603619D01*
G37*
G36*
X164966935Y-49998664D02*
G01*
X165121624Y-50062739D01*
X165121626Y-50062740D01*
X165260844Y-50155762D01*
X165379238Y-50274156D01*
X165472260Y-50413374D01*
X165472261Y-50413376D01*
X165536336Y-50568065D01*
X165569000Y-50732281D01*
X165569000Y-50899719D01*
X165536336Y-51063935D01*
X165505657Y-51138000D01*
X165472260Y-51218626D01*
X165379238Y-51357844D01*
X165260844Y-51476238D01*
X165121626Y-51569260D01*
X165121625Y-51569261D01*
X165121624Y-51569261D01*
X164966935Y-51633336D01*
X164802719Y-51666000D01*
X164635281Y-51666000D01*
X164471065Y-51633336D01*
X164316376Y-51569261D01*
X164316375Y-51569261D01*
X164316374Y-51569260D01*
X164177156Y-51476238D01*
X164058762Y-51357844D01*
X163965740Y-51218626D01*
X163932343Y-51138000D01*
X163901664Y-51063935D01*
X163869000Y-50899719D01*
X163869000Y-50732281D01*
X163901664Y-50568065D01*
X163965739Y-50413376D01*
X163965740Y-50413374D01*
X164058762Y-50274156D01*
X164177156Y-50155762D01*
X164316374Y-50062740D01*
X164316376Y-50062739D01*
X164471065Y-49998664D01*
X164635281Y-49966000D01*
X164802719Y-49966000D01*
X164966935Y-49998664D01*
G37*
G36*
X152266935Y-49998664D02*
G01*
X152421624Y-50062739D01*
X152421626Y-50062740D01*
X152560844Y-50155762D01*
X152679238Y-50274156D01*
X152772260Y-50413374D01*
X152772261Y-50413376D01*
X152836336Y-50568065D01*
X152869000Y-50732281D01*
X152869000Y-50899719D01*
X152836336Y-51063935D01*
X152805657Y-51138000D01*
X152772260Y-51218626D01*
X152679238Y-51357844D01*
X152560844Y-51476238D01*
X152421626Y-51569260D01*
X152421625Y-51569261D01*
X152421624Y-51569261D01*
X152266935Y-51633336D01*
X152102719Y-51666000D01*
X151935281Y-51666000D01*
X151771065Y-51633336D01*
X151616376Y-51569261D01*
X151616375Y-51569261D01*
X151616374Y-51569260D01*
X151477156Y-51476238D01*
X151358762Y-51357844D01*
X151265740Y-51218626D01*
X151232343Y-51138000D01*
X151201664Y-51063935D01*
X151169000Y-50899719D01*
X151169000Y-50732281D01*
X151201664Y-50568065D01*
X151265739Y-50413376D01*
X151265740Y-50413374D01*
X151358762Y-50274156D01*
X151477156Y-50155762D01*
X151616374Y-50062740D01*
X151616376Y-50062739D01*
X151771065Y-49998664D01*
X151935281Y-49966000D01*
X152102719Y-49966000D01*
X152266935Y-49998664D01*
G37*
G36*
X149726935Y-49998664D02*
G01*
X149881624Y-50062739D01*
X149881626Y-50062740D01*
X150020844Y-50155762D01*
X150139238Y-50274156D01*
X150232260Y-50413374D01*
X150232261Y-50413376D01*
X150296336Y-50568065D01*
X150329000Y-50732281D01*
X150329000Y-50899719D01*
X150296336Y-51063935D01*
X150265657Y-51138000D01*
X150232260Y-51218626D01*
X150139238Y-51357844D01*
X150020844Y-51476238D01*
X149881626Y-51569260D01*
X149881625Y-51569261D01*
X149881624Y-51569261D01*
X149726935Y-51633336D01*
X149562719Y-51666000D01*
X149395281Y-51666000D01*
X149231065Y-51633336D01*
X149076376Y-51569261D01*
X149076375Y-51569261D01*
X149076374Y-51569260D01*
X148937156Y-51476238D01*
X148818762Y-51357844D01*
X148725740Y-51218626D01*
X148692343Y-51138000D01*
X148661664Y-51063935D01*
X148629000Y-50899719D01*
X148629000Y-50732281D01*
X148661664Y-50568065D01*
X148725739Y-50413376D01*
X148725740Y-50413374D01*
X148818762Y-50274156D01*
X148937156Y-50155762D01*
X149076374Y-50062740D01*
X149076376Y-50062739D01*
X149231065Y-49998664D01*
X149395281Y-49966000D01*
X149562719Y-49966000D01*
X149726935Y-49998664D01*
G37*
G36*
X154806935Y-49998664D02*
G01*
X154961624Y-50062739D01*
X154961626Y-50062740D01*
X155100844Y-50155762D01*
X155219238Y-50274156D01*
X155312260Y-50413374D01*
X155312261Y-50413376D01*
X155376336Y-50568065D01*
X155409000Y-50732281D01*
X155409000Y-50899719D01*
X155376336Y-51063935D01*
X155345657Y-51138000D01*
X155312260Y-51218626D01*
X155219238Y-51357844D01*
X155100844Y-51476238D01*
X154961626Y-51569260D01*
X154961625Y-51569261D01*
X154961624Y-51569261D01*
X154806935Y-51633336D01*
X154642719Y-51666000D01*
X154475281Y-51666000D01*
X154311065Y-51633336D01*
X154156376Y-51569261D01*
X154156375Y-51569261D01*
X154156374Y-51569260D01*
X154017156Y-51476238D01*
X153898762Y-51357844D01*
X153805740Y-51218626D01*
X153772343Y-51138000D01*
X153741664Y-51063935D01*
X153709000Y-50899719D01*
X153709000Y-50732281D01*
X153741664Y-50568065D01*
X153805739Y-50413376D01*
X153805740Y-50413374D01*
X153898762Y-50274156D01*
X154017156Y-50155762D01*
X154156374Y-50062740D01*
X154156376Y-50062739D01*
X154311065Y-49998664D01*
X154475281Y-49966000D01*
X154642719Y-49966000D01*
X154806935Y-49998664D01*
G37*
G36*
X157346935Y-49998664D02*
G01*
X157501624Y-50062739D01*
X157501626Y-50062740D01*
X157640844Y-50155762D01*
X157759238Y-50274156D01*
X157852260Y-50413374D01*
X157852261Y-50413376D01*
X157916336Y-50568065D01*
X157949000Y-50732281D01*
X157949000Y-50899719D01*
X157916336Y-51063935D01*
X157885657Y-51138000D01*
X157852260Y-51218626D01*
X157759238Y-51357844D01*
X157640844Y-51476238D01*
X157501626Y-51569260D01*
X157501625Y-51569261D01*
X157501624Y-51569261D01*
X157346935Y-51633336D01*
X157182719Y-51666000D01*
X157015281Y-51666000D01*
X156851065Y-51633336D01*
X156696376Y-51569261D01*
X156696375Y-51569261D01*
X156696374Y-51569260D01*
X156557156Y-51476238D01*
X156438762Y-51357844D01*
X156345740Y-51218626D01*
X156312343Y-51138000D01*
X156281664Y-51063935D01*
X156249000Y-50899719D01*
X156249000Y-50732281D01*
X156281664Y-50568065D01*
X156345739Y-50413376D01*
X156345740Y-50413374D01*
X156438762Y-50274156D01*
X156557156Y-50155762D01*
X156696374Y-50062740D01*
X156696376Y-50062739D01*
X156851065Y-49998664D01*
X157015281Y-49966000D01*
X157182719Y-49966000D01*
X157346935Y-49998664D01*
G37*
G36*
X159886935Y-49998664D02*
G01*
X160041624Y-50062739D01*
X160041626Y-50062740D01*
X160180844Y-50155762D01*
X160299238Y-50274156D01*
X160392260Y-50413374D01*
X160392261Y-50413376D01*
X160456336Y-50568065D01*
X160489000Y-50732281D01*
X160489000Y-50899719D01*
X160456336Y-51063935D01*
X160425657Y-51138000D01*
X160392260Y-51218626D01*
X160299238Y-51357844D01*
X160180844Y-51476238D01*
X160041626Y-51569260D01*
X160041625Y-51569261D01*
X160041624Y-51569261D01*
X159886935Y-51633336D01*
X159722719Y-51666000D01*
X159555281Y-51666000D01*
X159391065Y-51633336D01*
X159236376Y-51569261D01*
X159236375Y-51569261D01*
X159236374Y-51569260D01*
X159097156Y-51476238D01*
X158978762Y-51357844D01*
X158885740Y-51218626D01*
X158852343Y-51138000D01*
X158821664Y-51063935D01*
X158789000Y-50899719D01*
X158789000Y-50732281D01*
X158821664Y-50568065D01*
X158885739Y-50413376D01*
X158885740Y-50413374D01*
X158978762Y-50274156D01*
X159097156Y-50155762D01*
X159236374Y-50062740D01*
X159236376Y-50062739D01*
X159391065Y-49998664D01*
X159555281Y-49966000D01*
X159722719Y-49966000D01*
X159886935Y-49998664D01*
G37*
G36*
X162426935Y-49998664D02*
G01*
X162581624Y-50062739D01*
X162581626Y-50062740D01*
X162720844Y-50155762D01*
X162839238Y-50274156D01*
X162932260Y-50413374D01*
X162932261Y-50413376D01*
X162996336Y-50568065D01*
X163029000Y-50732281D01*
X163029000Y-50899719D01*
X162996336Y-51063935D01*
X162965657Y-51138000D01*
X162932260Y-51218626D01*
X162839238Y-51357844D01*
X162720844Y-51476238D01*
X162581626Y-51569260D01*
X162581625Y-51569261D01*
X162581624Y-51569261D01*
X162426935Y-51633336D01*
X162262719Y-51666000D01*
X162095281Y-51666000D01*
X161931065Y-51633336D01*
X161776376Y-51569261D01*
X161776375Y-51569261D01*
X161776374Y-51569260D01*
X161637156Y-51476238D01*
X161518762Y-51357844D01*
X161425740Y-51218626D01*
X161392343Y-51138000D01*
X161361664Y-51063935D01*
X161329000Y-50899719D01*
X161329000Y-50732281D01*
X161361664Y-50568065D01*
X161425739Y-50413376D01*
X161425740Y-50413374D01*
X161518762Y-50274156D01*
X161637156Y-50155762D01*
X161776374Y-50062740D01*
X161776376Y-50062739D01*
X161931065Y-49998664D01*
X162095281Y-49966000D01*
X162262719Y-49966000D01*
X162426935Y-49998664D01*
G37*
G36*
X147789000Y-51666000D02*
G01*
X146089000Y-51666000D01*
X146089000Y-49966000D01*
X147789000Y-49966000D01*
X147789000Y-51666000D01*
G37*
G36*
X167506935Y-49998664D02*
G01*
X167661624Y-50062739D01*
X167661626Y-50062740D01*
X167800844Y-50155762D01*
X167919238Y-50274156D01*
X168012260Y-50413374D01*
X168012261Y-50413376D01*
X168076336Y-50568065D01*
X168109000Y-50732281D01*
X168109000Y-50899719D01*
X168076336Y-51063935D01*
X168045657Y-51138000D01*
X168012260Y-51218626D01*
X167919238Y-51357844D01*
X167800844Y-51476238D01*
X167661626Y-51569260D01*
X167661625Y-51569261D01*
X167661624Y-51569261D01*
X167506935Y-51633336D01*
X167342719Y-51666000D01*
X167175281Y-51666000D01*
X167011065Y-51633336D01*
X166856376Y-51569261D01*
X166856375Y-51569261D01*
X166856374Y-51569260D01*
X166717156Y-51476238D01*
X166598762Y-51357844D01*
X166505740Y-51218626D01*
X166472343Y-51138000D01*
X166441664Y-51063935D01*
X166409000Y-50899719D01*
X166409000Y-50732281D01*
X166441664Y-50568065D01*
X166505739Y-50413376D01*
X166505740Y-50413374D01*
X166598762Y-50274156D01*
X166717156Y-50155762D01*
X166856374Y-50062740D01*
X166856376Y-50062739D01*
X167011065Y-49998664D01*
X167175281Y-49966000D01*
X167342719Y-49966000D01*
X167506935Y-49998664D01*
G37*
G36*
X195446935Y-49998664D02*
G01*
X195601624Y-50062739D01*
X195601626Y-50062740D01*
X195740844Y-50155762D01*
X195859238Y-50274156D01*
X195952260Y-50413374D01*
X195952261Y-50413376D01*
X196016336Y-50568065D01*
X196049000Y-50732281D01*
X196049000Y-50899719D01*
X196016336Y-51063935D01*
X195985657Y-51138000D01*
X195952260Y-51218626D01*
X195859238Y-51357844D01*
X195740844Y-51476238D01*
X195601626Y-51569260D01*
X195601625Y-51569261D01*
X195601624Y-51569261D01*
X195446935Y-51633336D01*
X195282719Y-51666000D01*
X195115281Y-51666000D01*
X194951065Y-51633336D01*
X194796376Y-51569261D01*
X194796375Y-51569261D01*
X194796374Y-51569260D01*
X194657156Y-51476238D01*
X194538762Y-51357844D01*
X194445740Y-51218626D01*
X194412343Y-51138000D01*
X194381664Y-51063935D01*
X194349000Y-50899719D01*
X194349000Y-50732281D01*
X194381664Y-50568065D01*
X194445739Y-50413376D01*
X194445740Y-50413374D01*
X194538762Y-50274156D01*
X194657156Y-50155762D01*
X194796374Y-50062740D01*
X194796376Y-50062739D01*
X194951065Y-49998664D01*
X195115281Y-49966000D01*
X195282719Y-49966000D01*
X195446935Y-49998664D01*
G37*
G36*
X192906935Y-49998664D02*
G01*
X193061624Y-50062739D01*
X193061626Y-50062740D01*
X193200844Y-50155762D01*
X193319238Y-50274156D01*
X193412260Y-50413374D01*
X193412261Y-50413376D01*
X193476336Y-50568065D01*
X193509000Y-50732281D01*
X193509000Y-50899719D01*
X193476336Y-51063935D01*
X193445657Y-51138000D01*
X193412260Y-51218626D01*
X193319238Y-51357844D01*
X193200844Y-51476238D01*
X193061626Y-51569260D01*
X193061625Y-51569261D01*
X193061624Y-51569261D01*
X192906935Y-51633336D01*
X192742719Y-51666000D01*
X192575281Y-51666000D01*
X192411065Y-51633336D01*
X192256376Y-51569261D01*
X192256375Y-51569261D01*
X192256374Y-51569260D01*
X192117156Y-51476238D01*
X191998762Y-51357844D01*
X191905740Y-51218626D01*
X191872343Y-51138000D01*
X191841664Y-51063935D01*
X191809000Y-50899719D01*
X191809000Y-50732281D01*
X191841664Y-50568065D01*
X191905739Y-50413376D01*
X191905740Y-50413374D01*
X191998762Y-50274156D01*
X192117156Y-50155762D01*
X192256374Y-50062740D01*
X192256376Y-50062739D01*
X192411065Y-49998664D01*
X192575281Y-49966000D01*
X192742719Y-49966000D01*
X192906935Y-49998664D01*
G37*
G36*
X170046935Y-49998664D02*
G01*
X170201624Y-50062739D01*
X170201626Y-50062740D01*
X170340844Y-50155762D01*
X170459238Y-50274156D01*
X170552260Y-50413374D01*
X170552261Y-50413376D01*
X170616336Y-50568065D01*
X170649000Y-50732281D01*
X170649000Y-50899719D01*
X170616336Y-51063935D01*
X170585657Y-51138000D01*
X170552260Y-51218626D01*
X170459238Y-51357844D01*
X170340844Y-51476238D01*
X170201626Y-51569260D01*
X170201625Y-51569261D01*
X170201624Y-51569261D01*
X170046935Y-51633336D01*
X169882719Y-51666000D01*
X169715281Y-51666000D01*
X169551065Y-51633336D01*
X169396376Y-51569261D01*
X169396375Y-51569261D01*
X169396374Y-51569260D01*
X169257156Y-51476238D01*
X169138762Y-51357844D01*
X169045740Y-51218626D01*
X169012343Y-51138000D01*
X168981664Y-51063935D01*
X168949000Y-50899719D01*
X168949000Y-50732281D01*
X168981664Y-50568065D01*
X169045739Y-50413376D01*
X169045740Y-50413374D01*
X169138762Y-50274156D01*
X169257156Y-50155762D01*
X169396374Y-50062740D01*
X169396376Y-50062739D01*
X169551065Y-49998664D01*
X169715281Y-49966000D01*
X169882719Y-49966000D01*
X170046935Y-49998664D01*
G37*
G36*
X172586935Y-49998664D02*
G01*
X172741624Y-50062739D01*
X172741626Y-50062740D01*
X172880844Y-50155762D01*
X172999238Y-50274156D01*
X173092260Y-50413374D01*
X173092261Y-50413376D01*
X173156336Y-50568065D01*
X173189000Y-50732281D01*
X173189000Y-50899719D01*
X173156336Y-51063935D01*
X173125657Y-51138000D01*
X173092260Y-51218626D01*
X172999238Y-51357844D01*
X172880844Y-51476238D01*
X172741626Y-51569260D01*
X172741625Y-51569261D01*
X172741624Y-51569261D01*
X172586935Y-51633336D01*
X172422719Y-51666000D01*
X172255281Y-51666000D01*
X172091065Y-51633336D01*
X171936376Y-51569261D01*
X171936375Y-51569261D01*
X171936374Y-51569260D01*
X171797156Y-51476238D01*
X171678762Y-51357844D01*
X171585740Y-51218626D01*
X171552343Y-51138000D01*
X171521664Y-51063935D01*
X171489000Y-50899719D01*
X171489000Y-50732281D01*
X171521664Y-50568065D01*
X171585739Y-50413376D01*
X171585740Y-50413374D01*
X171678762Y-50274156D01*
X171797156Y-50155762D01*
X171936374Y-50062740D01*
X171936376Y-50062739D01*
X172091065Y-49998664D01*
X172255281Y-49966000D01*
X172422719Y-49966000D01*
X172586935Y-49998664D01*
G37*
G36*
X175126935Y-49998664D02*
G01*
X175281624Y-50062739D01*
X175281626Y-50062740D01*
X175420844Y-50155762D01*
X175539238Y-50274156D01*
X175632260Y-50413374D01*
X175632261Y-50413376D01*
X175696336Y-50568065D01*
X175729000Y-50732281D01*
X175729000Y-50899719D01*
X175696336Y-51063935D01*
X175665657Y-51138000D01*
X175632260Y-51218626D01*
X175539238Y-51357844D01*
X175420844Y-51476238D01*
X175281626Y-51569260D01*
X175281625Y-51569261D01*
X175281624Y-51569261D01*
X175126935Y-51633336D01*
X174962719Y-51666000D01*
X174795281Y-51666000D01*
X174631065Y-51633336D01*
X174476376Y-51569261D01*
X174476375Y-51569261D01*
X174476374Y-51569260D01*
X174337156Y-51476238D01*
X174218762Y-51357844D01*
X174125740Y-51218626D01*
X174092343Y-51138000D01*
X174061664Y-51063935D01*
X174029000Y-50899719D01*
X174029000Y-50732281D01*
X174061664Y-50568065D01*
X174125739Y-50413376D01*
X174125740Y-50413374D01*
X174218762Y-50274156D01*
X174337156Y-50155762D01*
X174476374Y-50062740D01*
X174476376Y-50062739D01*
X174631065Y-49998664D01*
X174795281Y-49966000D01*
X174962719Y-49966000D01*
X175126935Y-49998664D01*
G37*
G36*
X177666935Y-49998664D02*
G01*
X177821624Y-50062739D01*
X177821626Y-50062740D01*
X177960844Y-50155762D01*
X178079238Y-50274156D01*
X178172260Y-50413374D01*
X178172261Y-50413376D01*
X178236336Y-50568065D01*
X178269000Y-50732281D01*
X178269000Y-50899719D01*
X178236336Y-51063935D01*
X178205657Y-51138000D01*
X178172260Y-51218626D01*
X178079238Y-51357844D01*
X177960844Y-51476238D01*
X177821626Y-51569260D01*
X177821625Y-51569261D01*
X177821624Y-51569261D01*
X177666935Y-51633336D01*
X177502719Y-51666000D01*
X177335281Y-51666000D01*
X177171065Y-51633336D01*
X177016376Y-51569261D01*
X177016375Y-51569261D01*
X177016374Y-51569260D01*
X176877156Y-51476238D01*
X176758762Y-51357844D01*
X176665740Y-51218626D01*
X176632343Y-51138000D01*
X176601664Y-51063935D01*
X176569000Y-50899719D01*
X176569000Y-50732281D01*
X176601664Y-50568065D01*
X176665739Y-50413376D01*
X176665740Y-50413374D01*
X176758762Y-50274156D01*
X176877156Y-50155762D01*
X177016374Y-50062740D01*
X177016376Y-50062739D01*
X177171065Y-49998664D01*
X177335281Y-49966000D01*
X177502719Y-49966000D01*
X177666935Y-49998664D01*
G37*
G36*
X180206935Y-49998664D02*
G01*
X180361624Y-50062739D01*
X180361626Y-50062740D01*
X180500844Y-50155762D01*
X180619238Y-50274156D01*
X180712260Y-50413374D01*
X180712261Y-50413376D01*
X180776336Y-50568065D01*
X180809000Y-50732281D01*
X180809000Y-50899719D01*
X180776336Y-51063935D01*
X180745657Y-51138000D01*
X180712260Y-51218626D01*
X180619238Y-51357844D01*
X180500844Y-51476238D01*
X180361626Y-51569260D01*
X180361625Y-51569261D01*
X180361624Y-51569261D01*
X180206935Y-51633336D01*
X180042719Y-51666000D01*
X179875281Y-51666000D01*
X179711065Y-51633336D01*
X179556376Y-51569261D01*
X179556375Y-51569261D01*
X179556374Y-51569260D01*
X179417156Y-51476238D01*
X179298762Y-51357844D01*
X179205740Y-51218626D01*
X179172343Y-51138000D01*
X179141664Y-51063935D01*
X179109000Y-50899719D01*
X179109000Y-50732281D01*
X179141664Y-50568065D01*
X179205739Y-50413376D01*
X179205740Y-50413374D01*
X179298762Y-50274156D01*
X179417156Y-50155762D01*
X179556374Y-50062740D01*
X179556376Y-50062739D01*
X179711065Y-49998664D01*
X179875281Y-49966000D01*
X180042719Y-49966000D01*
X180206935Y-49998664D01*
G37*
G36*
X182746935Y-49998664D02*
G01*
X182901624Y-50062739D01*
X182901626Y-50062740D01*
X183040844Y-50155762D01*
X183159238Y-50274156D01*
X183252260Y-50413374D01*
X183252261Y-50413376D01*
X183316336Y-50568065D01*
X183349000Y-50732281D01*
X183349000Y-50899719D01*
X183316336Y-51063935D01*
X183285657Y-51138000D01*
X183252260Y-51218626D01*
X183159238Y-51357844D01*
X183040844Y-51476238D01*
X182901626Y-51569260D01*
X182901625Y-51569261D01*
X182901624Y-51569261D01*
X182746935Y-51633336D01*
X182582719Y-51666000D01*
X182415281Y-51666000D01*
X182251065Y-51633336D01*
X182096376Y-51569261D01*
X182096375Y-51569261D01*
X182096374Y-51569260D01*
X181957156Y-51476238D01*
X181838762Y-51357844D01*
X181745740Y-51218626D01*
X181712343Y-51138000D01*
X181681664Y-51063935D01*
X181649000Y-50899719D01*
X181649000Y-50732281D01*
X181681664Y-50568065D01*
X181745739Y-50413376D01*
X181745740Y-50413374D01*
X181838762Y-50274156D01*
X181957156Y-50155762D01*
X182096374Y-50062740D01*
X182096376Y-50062739D01*
X182251065Y-49998664D01*
X182415281Y-49966000D01*
X182582719Y-49966000D01*
X182746935Y-49998664D01*
G37*
G36*
X185286935Y-49998664D02*
G01*
X185441624Y-50062739D01*
X185441626Y-50062740D01*
X185580844Y-50155762D01*
X185699238Y-50274156D01*
X185792260Y-50413374D01*
X185792261Y-50413376D01*
X185856336Y-50568065D01*
X185889000Y-50732281D01*
X185889000Y-50899719D01*
X185856336Y-51063935D01*
X185825657Y-51138000D01*
X185792260Y-51218626D01*
X185699238Y-51357844D01*
X185580844Y-51476238D01*
X185441626Y-51569260D01*
X185441625Y-51569261D01*
X185441624Y-51569261D01*
X185286935Y-51633336D01*
X185122719Y-51666000D01*
X184955281Y-51666000D01*
X184791065Y-51633336D01*
X184636376Y-51569261D01*
X184636375Y-51569261D01*
X184636374Y-51569260D01*
X184497156Y-51476238D01*
X184378762Y-51357844D01*
X184285740Y-51218626D01*
X184252343Y-51138000D01*
X184221664Y-51063935D01*
X184189000Y-50899719D01*
X184189000Y-50732281D01*
X184221664Y-50568065D01*
X184285739Y-50413376D01*
X184285740Y-50413374D01*
X184378762Y-50274156D01*
X184497156Y-50155762D01*
X184636374Y-50062740D01*
X184636376Y-50062739D01*
X184791065Y-49998664D01*
X184955281Y-49966000D01*
X185122719Y-49966000D01*
X185286935Y-49998664D01*
G37*
G36*
X187826935Y-49998664D02*
G01*
X187981624Y-50062739D01*
X187981626Y-50062740D01*
X188120844Y-50155762D01*
X188239238Y-50274156D01*
X188332260Y-50413374D01*
X188332261Y-50413376D01*
X188396336Y-50568065D01*
X188429000Y-50732281D01*
X188429000Y-50899719D01*
X188396336Y-51063935D01*
X188365657Y-51138000D01*
X188332260Y-51218626D01*
X188239238Y-51357844D01*
X188120844Y-51476238D01*
X187981626Y-51569260D01*
X187981625Y-51569261D01*
X187981624Y-51569261D01*
X187826935Y-51633336D01*
X187662719Y-51666000D01*
X187495281Y-51666000D01*
X187331065Y-51633336D01*
X187176376Y-51569261D01*
X187176375Y-51569261D01*
X187176374Y-51569260D01*
X187037156Y-51476238D01*
X186918762Y-51357844D01*
X186825740Y-51218626D01*
X186792343Y-51138000D01*
X186761664Y-51063935D01*
X186729000Y-50899719D01*
X186729000Y-50732281D01*
X186761664Y-50568065D01*
X186825739Y-50413376D01*
X186825740Y-50413374D01*
X186918762Y-50274156D01*
X187037156Y-50155762D01*
X187176374Y-50062740D01*
X187176376Y-50062739D01*
X187331065Y-49998664D01*
X187495281Y-49966000D01*
X187662719Y-49966000D01*
X187826935Y-49998664D01*
G37*
G36*
X190366935Y-49998664D02*
G01*
X190521624Y-50062739D01*
X190521626Y-50062740D01*
X190660844Y-50155762D01*
X190779238Y-50274156D01*
X190872260Y-50413374D01*
X190872261Y-50413376D01*
X190936336Y-50568065D01*
X190969000Y-50732281D01*
X190969000Y-50899719D01*
X190936336Y-51063935D01*
X190905657Y-51138000D01*
X190872260Y-51218626D01*
X190779238Y-51357844D01*
X190660844Y-51476238D01*
X190521626Y-51569260D01*
X190521625Y-51569261D01*
X190521624Y-51569261D01*
X190366935Y-51633336D01*
X190202719Y-51666000D01*
X190035281Y-51666000D01*
X189871065Y-51633336D01*
X189716376Y-51569261D01*
X189716375Y-51569261D01*
X189716374Y-51569260D01*
X189577156Y-51476238D01*
X189458762Y-51357844D01*
X189365740Y-51218626D01*
X189332343Y-51138000D01*
X189301664Y-51063935D01*
X189269000Y-50899719D01*
X189269000Y-50732281D01*
X189301664Y-50568065D01*
X189365739Y-50413376D01*
X189365740Y-50413374D01*
X189458762Y-50274156D01*
X189577156Y-50155762D01*
X189716374Y-50062740D01*
X189716376Y-50062739D01*
X189871065Y-49998664D01*
X190035281Y-49966000D01*
X190202719Y-49966000D01*
X190366935Y-49998664D01*
G37*
G36*
X127828857Y-48980272D02*
G01*
X128029043Y-49063192D01*
X128029045Y-49063193D01*
X128074157Y-49093336D01*
X128209208Y-49183574D01*
X128362426Y-49336792D01*
X128482808Y-49516957D01*
X128565728Y-49717143D01*
X128608000Y-49929658D01*
X128608000Y-50146342D01*
X128565728Y-50358857D01*
X128543146Y-50413374D01*
X128482807Y-50559045D01*
X128476780Y-50568065D01*
X128362426Y-50739208D01*
X128209208Y-50892426D01*
X128198293Y-50899719D01*
X128029045Y-51012807D01*
X128029044Y-51012808D01*
X128029043Y-51012808D01*
X127828857Y-51095728D01*
X127616342Y-51138000D01*
X127399658Y-51138000D01*
X127187143Y-51095728D01*
X126986957Y-51012808D01*
X126986956Y-51012808D01*
X126986955Y-51012807D01*
X126817707Y-50899719D01*
X126806792Y-50892426D01*
X126653574Y-50739208D01*
X126539220Y-50568065D01*
X126533193Y-50559045D01*
X126472854Y-50413374D01*
X126450272Y-50358857D01*
X126408000Y-50146342D01*
X126408000Y-49929658D01*
X126450272Y-49717143D01*
X126533192Y-49516957D01*
X126653574Y-49336792D01*
X126806792Y-49183574D01*
X126941843Y-49093336D01*
X126986955Y-49063193D01*
X126986957Y-49063192D01*
X127187143Y-48980272D01*
X127399658Y-48938000D01*
X127616342Y-48938000D01*
X127828857Y-48980272D01*
G37*
G36*
X132908857Y-48980272D02*
G01*
X133109043Y-49063192D01*
X133109045Y-49063193D01*
X133154157Y-49093336D01*
X133289208Y-49183574D01*
X133442426Y-49336792D01*
X133562808Y-49516957D01*
X133645728Y-49717143D01*
X133688000Y-49929658D01*
X133688000Y-50146342D01*
X133645728Y-50358857D01*
X133623146Y-50413374D01*
X133562807Y-50559045D01*
X133556780Y-50568065D01*
X133442426Y-50739208D01*
X133289208Y-50892426D01*
X133278293Y-50899719D01*
X133109045Y-51012807D01*
X133109044Y-51012808D01*
X133109043Y-51012808D01*
X132908857Y-51095728D01*
X132696342Y-51138000D01*
X132479658Y-51138000D01*
X132267143Y-51095728D01*
X132066957Y-51012808D01*
X132066956Y-51012808D01*
X132066955Y-51012807D01*
X131897707Y-50899719D01*
X131886792Y-50892426D01*
X131733574Y-50739208D01*
X131619220Y-50568065D01*
X131613193Y-50559045D01*
X131552854Y-50413374D01*
X131530272Y-50358857D01*
X131488000Y-50146342D01*
X131488000Y-49929658D01*
X131530272Y-49717143D01*
X131613192Y-49516957D01*
X131733574Y-49336792D01*
X131886792Y-49183574D01*
X132021843Y-49093336D01*
X132066955Y-49063193D01*
X132066957Y-49063192D01*
X132267143Y-48980272D01*
X132479658Y-48938000D01*
X132696342Y-48938000D01*
X132908857Y-48980272D01*
G37*
G36*
X172586935Y-47458664D02*
G01*
X172741624Y-47522739D01*
X172741626Y-47522740D01*
X172880844Y-47615762D01*
X172999238Y-47734156D01*
X173092260Y-47873374D01*
X173092261Y-47873376D01*
X173156336Y-48028065D01*
X173189000Y-48192281D01*
X173189000Y-48359719D01*
X173156336Y-48523935D01*
X173092261Y-48678624D01*
X173092260Y-48678626D01*
X172999238Y-48817844D01*
X172880844Y-48936238D01*
X172741626Y-49029260D01*
X172741625Y-49029261D01*
X172741624Y-49029261D01*
X172586935Y-49093336D01*
X172422719Y-49126000D01*
X172255281Y-49126000D01*
X172091065Y-49093336D01*
X171936376Y-49029261D01*
X171936375Y-49029261D01*
X171936374Y-49029260D01*
X171797156Y-48936238D01*
X171678762Y-48817844D01*
X171585740Y-48678626D01*
X171585739Y-48678624D01*
X171521664Y-48523935D01*
X171489000Y-48359719D01*
X171489000Y-48192281D01*
X171521664Y-48028065D01*
X171585739Y-47873376D01*
X171585740Y-47873374D01*
X171678762Y-47734156D01*
X171797156Y-47615762D01*
X171936374Y-47522740D01*
X171936376Y-47522739D01*
X172091065Y-47458664D01*
X172255281Y-47426000D01*
X172422719Y-47426000D01*
X172586935Y-47458664D01*
G37*
G36*
X147186935Y-47458664D02*
G01*
X147341624Y-47522739D01*
X147341626Y-47522740D01*
X147480844Y-47615762D01*
X147599238Y-47734156D01*
X147692260Y-47873374D01*
X147692261Y-47873376D01*
X147756336Y-48028065D01*
X147789000Y-48192281D01*
X147789000Y-48359719D01*
X147756336Y-48523935D01*
X147692261Y-48678624D01*
X147692260Y-48678626D01*
X147599238Y-48817844D01*
X147480844Y-48936238D01*
X147341626Y-49029260D01*
X147341625Y-49029261D01*
X147341624Y-49029261D01*
X147186935Y-49093336D01*
X147022719Y-49126000D01*
X146855281Y-49126000D01*
X146691065Y-49093336D01*
X146536376Y-49029261D01*
X146536375Y-49029261D01*
X146536374Y-49029260D01*
X146397156Y-48936238D01*
X146278762Y-48817844D01*
X146185740Y-48678626D01*
X146185739Y-48678624D01*
X146121664Y-48523935D01*
X146089000Y-48359719D01*
X146089000Y-48192281D01*
X146121664Y-48028065D01*
X146185739Y-47873376D01*
X146185740Y-47873374D01*
X146278762Y-47734156D01*
X146397156Y-47615762D01*
X146536374Y-47522740D01*
X146536376Y-47522739D01*
X146691065Y-47458664D01*
X146855281Y-47426000D01*
X147022719Y-47426000D01*
X147186935Y-47458664D01*
G37*
G36*
X195446935Y-47458664D02*
G01*
X195601624Y-47522739D01*
X195601626Y-47522740D01*
X195740844Y-47615762D01*
X195859238Y-47734156D01*
X195952260Y-47873374D01*
X195952261Y-47873376D01*
X196016336Y-48028065D01*
X196049000Y-48192281D01*
X196049000Y-48359719D01*
X196016336Y-48523935D01*
X195952261Y-48678624D01*
X195952260Y-48678626D01*
X195859238Y-48817844D01*
X195740844Y-48936238D01*
X195601626Y-49029260D01*
X195601625Y-49029261D01*
X195601624Y-49029261D01*
X195446935Y-49093336D01*
X195282719Y-49126000D01*
X195115281Y-49126000D01*
X194951065Y-49093336D01*
X194796376Y-49029261D01*
X194796375Y-49029261D01*
X194796374Y-49029260D01*
X194657156Y-48936238D01*
X194538762Y-48817844D01*
X194445740Y-48678626D01*
X194445739Y-48678624D01*
X194381664Y-48523935D01*
X194349000Y-48359719D01*
X194349000Y-48192281D01*
X194381664Y-48028065D01*
X194445739Y-47873376D01*
X194445740Y-47873374D01*
X194538762Y-47734156D01*
X194657156Y-47615762D01*
X194796374Y-47522740D01*
X194796376Y-47522739D01*
X194951065Y-47458664D01*
X195115281Y-47426000D01*
X195282719Y-47426000D01*
X195446935Y-47458664D01*
G37*
G36*
X192906935Y-47458664D02*
G01*
X193061624Y-47522739D01*
X193061626Y-47522740D01*
X193200844Y-47615762D01*
X193319238Y-47734156D01*
X193412260Y-47873374D01*
X193412261Y-47873376D01*
X193476336Y-48028065D01*
X193509000Y-48192281D01*
X193509000Y-48359719D01*
X193476336Y-48523935D01*
X193412261Y-48678624D01*
X193412260Y-48678626D01*
X193319238Y-48817844D01*
X193200844Y-48936238D01*
X193061626Y-49029260D01*
X193061625Y-49029261D01*
X193061624Y-49029261D01*
X192906935Y-49093336D01*
X192742719Y-49126000D01*
X192575281Y-49126000D01*
X192411065Y-49093336D01*
X192256376Y-49029261D01*
X192256375Y-49029261D01*
X192256374Y-49029260D01*
X192117156Y-48936238D01*
X191998762Y-48817844D01*
X191905740Y-48678626D01*
X191905739Y-48678624D01*
X191841664Y-48523935D01*
X191809000Y-48359719D01*
X191809000Y-48192281D01*
X191841664Y-48028065D01*
X191905739Y-47873376D01*
X191905740Y-47873374D01*
X191998762Y-47734156D01*
X192117156Y-47615762D01*
X192256374Y-47522740D01*
X192256376Y-47522739D01*
X192411065Y-47458664D01*
X192575281Y-47426000D01*
X192742719Y-47426000D01*
X192906935Y-47458664D01*
G37*
G36*
X190366935Y-47458664D02*
G01*
X190521624Y-47522739D01*
X190521626Y-47522740D01*
X190660844Y-47615762D01*
X190779238Y-47734156D01*
X190872260Y-47873374D01*
X190872261Y-47873376D01*
X190936336Y-48028065D01*
X190969000Y-48192281D01*
X190969000Y-48359719D01*
X190936336Y-48523935D01*
X190872261Y-48678624D01*
X190872260Y-48678626D01*
X190779238Y-48817844D01*
X190660844Y-48936238D01*
X190521626Y-49029260D01*
X190521625Y-49029261D01*
X190521624Y-49029261D01*
X190366935Y-49093336D01*
X190202719Y-49126000D01*
X190035281Y-49126000D01*
X189871065Y-49093336D01*
X189716376Y-49029261D01*
X189716375Y-49029261D01*
X189716374Y-49029260D01*
X189577156Y-48936238D01*
X189458762Y-48817844D01*
X189365740Y-48678626D01*
X189365739Y-48678624D01*
X189301664Y-48523935D01*
X189269000Y-48359719D01*
X189269000Y-48192281D01*
X189301664Y-48028065D01*
X189365739Y-47873376D01*
X189365740Y-47873374D01*
X189458762Y-47734156D01*
X189577156Y-47615762D01*
X189716374Y-47522740D01*
X189716376Y-47522739D01*
X189871065Y-47458664D01*
X190035281Y-47426000D01*
X190202719Y-47426000D01*
X190366935Y-47458664D01*
G37*
G36*
X187826935Y-47458664D02*
G01*
X187981624Y-47522739D01*
X187981626Y-47522740D01*
X188120844Y-47615762D01*
X188239238Y-47734156D01*
X188332260Y-47873374D01*
X188332261Y-47873376D01*
X188396336Y-48028065D01*
X188429000Y-48192281D01*
X188429000Y-48359719D01*
X188396336Y-48523935D01*
X188332261Y-48678624D01*
X188332260Y-48678626D01*
X188239238Y-48817844D01*
X188120844Y-48936238D01*
X187981626Y-49029260D01*
X187981625Y-49029261D01*
X187981624Y-49029261D01*
X187826935Y-49093336D01*
X187662719Y-49126000D01*
X187495281Y-49126000D01*
X187331065Y-49093336D01*
X187176376Y-49029261D01*
X187176375Y-49029261D01*
X187176374Y-49029260D01*
X187037156Y-48936238D01*
X186918762Y-48817844D01*
X186825740Y-48678626D01*
X186825739Y-48678624D01*
X186761664Y-48523935D01*
X186729000Y-48359719D01*
X186729000Y-48192281D01*
X186761664Y-48028065D01*
X186825739Y-47873376D01*
X186825740Y-47873374D01*
X186918762Y-47734156D01*
X187037156Y-47615762D01*
X187176374Y-47522740D01*
X187176376Y-47522739D01*
X187331065Y-47458664D01*
X187495281Y-47426000D01*
X187662719Y-47426000D01*
X187826935Y-47458664D01*
G37*
G36*
X185286935Y-47458664D02*
G01*
X185441624Y-47522739D01*
X185441626Y-47522740D01*
X185580844Y-47615762D01*
X185699238Y-47734156D01*
X185792260Y-47873374D01*
X185792261Y-47873376D01*
X185856336Y-48028065D01*
X185889000Y-48192281D01*
X185889000Y-48359719D01*
X185856336Y-48523935D01*
X185792261Y-48678624D01*
X185792260Y-48678626D01*
X185699238Y-48817844D01*
X185580844Y-48936238D01*
X185441626Y-49029260D01*
X185441625Y-49029261D01*
X185441624Y-49029261D01*
X185286935Y-49093336D01*
X185122719Y-49126000D01*
X184955281Y-49126000D01*
X184791065Y-49093336D01*
X184636376Y-49029261D01*
X184636375Y-49029261D01*
X184636374Y-49029260D01*
X184497156Y-48936238D01*
X184378762Y-48817844D01*
X184285740Y-48678626D01*
X184285739Y-48678624D01*
X184221664Y-48523935D01*
X184189000Y-48359719D01*
X184189000Y-48192281D01*
X184221664Y-48028065D01*
X184285739Y-47873376D01*
X184285740Y-47873374D01*
X184378762Y-47734156D01*
X184497156Y-47615762D01*
X184636374Y-47522740D01*
X184636376Y-47522739D01*
X184791065Y-47458664D01*
X184955281Y-47426000D01*
X185122719Y-47426000D01*
X185286935Y-47458664D01*
G37*
G36*
X182746935Y-47458664D02*
G01*
X182901624Y-47522739D01*
X182901626Y-47522740D01*
X183040844Y-47615762D01*
X183159238Y-47734156D01*
X183252260Y-47873374D01*
X183252261Y-47873376D01*
X183316336Y-48028065D01*
X183349000Y-48192281D01*
X183349000Y-48359719D01*
X183316336Y-48523935D01*
X183252261Y-48678624D01*
X183252260Y-48678626D01*
X183159238Y-48817844D01*
X183040844Y-48936238D01*
X182901626Y-49029260D01*
X182901625Y-49029261D01*
X182901624Y-49029261D01*
X182746935Y-49093336D01*
X182582719Y-49126000D01*
X182415281Y-49126000D01*
X182251065Y-49093336D01*
X182096376Y-49029261D01*
X182096375Y-49029261D01*
X182096374Y-49029260D01*
X181957156Y-48936238D01*
X181838762Y-48817844D01*
X181745740Y-48678626D01*
X181745739Y-48678624D01*
X181681664Y-48523935D01*
X181649000Y-48359719D01*
X181649000Y-48192281D01*
X181681664Y-48028065D01*
X181745739Y-47873376D01*
X181745740Y-47873374D01*
X181838762Y-47734156D01*
X181957156Y-47615762D01*
X182096374Y-47522740D01*
X182096376Y-47522739D01*
X182251065Y-47458664D01*
X182415281Y-47426000D01*
X182582719Y-47426000D01*
X182746935Y-47458664D01*
G37*
G36*
X180206935Y-47458664D02*
G01*
X180361624Y-47522739D01*
X180361626Y-47522740D01*
X180500844Y-47615762D01*
X180619238Y-47734156D01*
X180712260Y-47873374D01*
X180712261Y-47873376D01*
X180776336Y-48028065D01*
X180809000Y-48192281D01*
X180809000Y-48359719D01*
X180776336Y-48523935D01*
X180712261Y-48678624D01*
X180712260Y-48678626D01*
X180619238Y-48817844D01*
X180500844Y-48936238D01*
X180361626Y-49029260D01*
X180361625Y-49029261D01*
X180361624Y-49029261D01*
X180206935Y-49093336D01*
X180042719Y-49126000D01*
X179875281Y-49126000D01*
X179711065Y-49093336D01*
X179556376Y-49029261D01*
X179556375Y-49029261D01*
X179556374Y-49029260D01*
X179417156Y-48936238D01*
X179298762Y-48817844D01*
X179205740Y-48678626D01*
X179205739Y-48678624D01*
X179141664Y-48523935D01*
X179109000Y-48359719D01*
X179109000Y-48192281D01*
X179141664Y-48028065D01*
X179205739Y-47873376D01*
X179205740Y-47873374D01*
X179298762Y-47734156D01*
X179417156Y-47615762D01*
X179556374Y-47522740D01*
X179556376Y-47522739D01*
X179711065Y-47458664D01*
X179875281Y-47426000D01*
X180042719Y-47426000D01*
X180206935Y-47458664D01*
G37*
G36*
X177666935Y-47458664D02*
G01*
X177821624Y-47522739D01*
X177821626Y-47522740D01*
X177960844Y-47615762D01*
X178079238Y-47734156D01*
X178172260Y-47873374D01*
X178172261Y-47873376D01*
X178236336Y-48028065D01*
X178269000Y-48192281D01*
X178269000Y-48359719D01*
X178236336Y-48523935D01*
X178172261Y-48678624D01*
X178172260Y-48678626D01*
X178079238Y-48817844D01*
X177960844Y-48936238D01*
X177821626Y-49029260D01*
X177821625Y-49029261D01*
X177821624Y-49029261D01*
X177666935Y-49093336D01*
X177502719Y-49126000D01*
X177335281Y-49126000D01*
X177171065Y-49093336D01*
X177016376Y-49029261D01*
X177016375Y-49029261D01*
X177016374Y-49029260D01*
X176877156Y-48936238D01*
X176758762Y-48817844D01*
X176665740Y-48678626D01*
X176665739Y-48678624D01*
X176601664Y-48523935D01*
X176569000Y-48359719D01*
X176569000Y-48192281D01*
X176601664Y-48028065D01*
X176665739Y-47873376D01*
X176665740Y-47873374D01*
X176758762Y-47734156D01*
X176877156Y-47615762D01*
X177016374Y-47522740D01*
X177016376Y-47522739D01*
X177171065Y-47458664D01*
X177335281Y-47426000D01*
X177502719Y-47426000D01*
X177666935Y-47458664D01*
G37*
G36*
X149726935Y-47458664D02*
G01*
X149881624Y-47522739D01*
X149881626Y-47522740D01*
X150020844Y-47615762D01*
X150139238Y-47734156D01*
X150232260Y-47873374D01*
X150232261Y-47873376D01*
X150296336Y-48028065D01*
X150329000Y-48192281D01*
X150329000Y-48359719D01*
X150296336Y-48523935D01*
X150232261Y-48678624D01*
X150232260Y-48678626D01*
X150139238Y-48817844D01*
X150020844Y-48936238D01*
X149881626Y-49029260D01*
X149881625Y-49029261D01*
X149881624Y-49029261D01*
X149726935Y-49093336D01*
X149562719Y-49126000D01*
X149395281Y-49126000D01*
X149231065Y-49093336D01*
X149076376Y-49029261D01*
X149076375Y-49029261D01*
X149076374Y-49029260D01*
X148937156Y-48936238D01*
X148818762Y-48817844D01*
X148725740Y-48678626D01*
X148725739Y-48678624D01*
X148661664Y-48523935D01*
X148629000Y-48359719D01*
X148629000Y-48192281D01*
X148661664Y-48028065D01*
X148725739Y-47873376D01*
X148725740Y-47873374D01*
X148818762Y-47734156D01*
X148937156Y-47615762D01*
X149076374Y-47522740D01*
X149076376Y-47522739D01*
X149231065Y-47458664D01*
X149395281Y-47426000D01*
X149562719Y-47426000D01*
X149726935Y-47458664D01*
G37*
G36*
X170046935Y-47458664D02*
G01*
X170201624Y-47522739D01*
X170201626Y-47522740D01*
X170340844Y-47615762D01*
X170459238Y-47734156D01*
X170552260Y-47873374D01*
X170552261Y-47873376D01*
X170616336Y-48028065D01*
X170649000Y-48192281D01*
X170649000Y-48359719D01*
X170616336Y-48523935D01*
X170552261Y-48678624D01*
X170552260Y-48678626D01*
X170459238Y-48817844D01*
X170340844Y-48936238D01*
X170201626Y-49029260D01*
X170201625Y-49029261D01*
X170201624Y-49029261D01*
X170046935Y-49093336D01*
X169882719Y-49126000D01*
X169715281Y-49126000D01*
X169551065Y-49093336D01*
X169396376Y-49029261D01*
X169396375Y-49029261D01*
X169396374Y-49029260D01*
X169257156Y-48936238D01*
X169138762Y-48817844D01*
X169045740Y-48678626D01*
X169045739Y-48678624D01*
X168981664Y-48523935D01*
X168949000Y-48359719D01*
X168949000Y-48192281D01*
X168981664Y-48028065D01*
X169045739Y-47873376D01*
X169045740Y-47873374D01*
X169138762Y-47734156D01*
X169257156Y-47615762D01*
X169396374Y-47522740D01*
X169396376Y-47522739D01*
X169551065Y-47458664D01*
X169715281Y-47426000D01*
X169882719Y-47426000D01*
X170046935Y-47458664D01*
G37*
G36*
X167506935Y-47458664D02*
G01*
X167661624Y-47522739D01*
X167661626Y-47522740D01*
X167800844Y-47615762D01*
X167919238Y-47734156D01*
X168012260Y-47873374D01*
X168012261Y-47873376D01*
X168076336Y-48028065D01*
X168109000Y-48192281D01*
X168109000Y-48359719D01*
X168076336Y-48523935D01*
X168012261Y-48678624D01*
X168012260Y-48678626D01*
X167919238Y-48817844D01*
X167800844Y-48936238D01*
X167661626Y-49029260D01*
X167661625Y-49029261D01*
X167661624Y-49029261D01*
X167506935Y-49093336D01*
X167342719Y-49126000D01*
X167175281Y-49126000D01*
X167011065Y-49093336D01*
X166856376Y-49029261D01*
X166856375Y-49029261D01*
X166856374Y-49029260D01*
X166717156Y-48936238D01*
X166598762Y-48817844D01*
X166505740Y-48678626D01*
X166505739Y-48678624D01*
X166441664Y-48523935D01*
X166409000Y-48359719D01*
X166409000Y-48192281D01*
X166441664Y-48028065D01*
X166505739Y-47873376D01*
X166505740Y-47873374D01*
X166598762Y-47734156D01*
X166717156Y-47615762D01*
X166856374Y-47522740D01*
X166856376Y-47522739D01*
X167011065Y-47458664D01*
X167175281Y-47426000D01*
X167342719Y-47426000D01*
X167506935Y-47458664D01*
G37*
G36*
X164966935Y-47458664D02*
G01*
X165121624Y-47522739D01*
X165121626Y-47522740D01*
X165260844Y-47615762D01*
X165379238Y-47734156D01*
X165472260Y-47873374D01*
X165472261Y-47873376D01*
X165536336Y-48028065D01*
X165569000Y-48192281D01*
X165569000Y-48359719D01*
X165536336Y-48523935D01*
X165472261Y-48678624D01*
X165472260Y-48678626D01*
X165379238Y-48817844D01*
X165260844Y-48936238D01*
X165121626Y-49029260D01*
X165121625Y-49029261D01*
X165121624Y-49029261D01*
X164966935Y-49093336D01*
X164802719Y-49126000D01*
X164635281Y-49126000D01*
X164471065Y-49093336D01*
X164316376Y-49029261D01*
X164316375Y-49029261D01*
X164316374Y-49029260D01*
X164177156Y-48936238D01*
X164058762Y-48817844D01*
X163965740Y-48678626D01*
X163965739Y-48678624D01*
X163901664Y-48523935D01*
X163869000Y-48359719D01*
X163869000Y-48192281D01*
X163901664Y-48028065D01*
X163965739Y-47873376D01*
X163965740Y-47873374D01*
X164058762Y-47734156D01*
X164177156Y-47615762D01*
X164316374Y-47522740D01*
X164316376Y-47522739D01*
X164471065Y-47458664D01*
X164635281Y-47426000D01*
X164802719Y-47426000D01*
X164966935Y-47458664D01*
G37*
G36*
X162426935Y-47458664D02*
G01*
X162581624Y-47522739D01*
X162581626Y-47522740D01*
X162720844Y-47615762D01*
X162839238Y-47734156D01*
X162932260Y-47873374D01*
X162932261Y-47873376D01*
X162996336Y-48028065D01*
X163029000Y-48192281D01*
X163029000Y-48359719D01*
X162996336Y-48523935D01*
X162932261Y-48678624D01*
X162932260Y-48678626D01*
X162839238Y-48817844D01*
X162720844Y-48936238D01*
X162581626Y-49029260D01*
X162581625Y-49029261D01*
X162581624Y-49029261D01*
X162426935Y-49093336D01*
X162262719Y-49126000D01*
X162095281Y-49126000D01*
X161931065Y-49093336D01*
X161776376Y-49029261D01*
X161776375Y-49029261D01*
X161776374Y-49029260D01*
X161637156Y-48936238D01*
X161518762Y-48817844D01*
X161425740Y-48678626D01*
X161425739Y-48678624D01*
X161361664Y-48523935D01*
X161329000Y-48359719D01*
X161329000Y-48192281D01*
X161361664Y-48028065D01*
X161425739Y-47873376D01*
X161425740Y-47873374D01*
X161518762Y-47734156D01*
X161637156Y-47615762D01*
X161776374Y-47522740D01*
X161776376Y-47522739D01*
X161931065Y-47458664D01*
X162095281Y-47426000D01*
X162262719Y-47426000D01*
X162426935Y-47458664D01*
G37*
G36*
X159886935Y-47458664D02*
G01*
X160041624Y-47522739D01*
X160041626Y-47522740D01*
X160180844Y-47615762D01*
X160299238Y-47734156D01*
X160392260Y-47873374D01*
X160392261Y-47873376D01*
X160456336Y-48028065D01*
X160489000Y-48192281D01*
X160489000Y-48359719D01*
X160456336Y-48523935D01*
X160392261Y-48678624D01*
X160392260Y-48678626D01*
X160299238Y-48817844D01*
X160180844Y-48936238D01*
X160041626Y-49029260D01*
X160041625Y-49029261D01*
X160041624Y-49029261D01*
X159886935Y-49093336D01*
X159722719Y-49126000D01*
X159555281Y-49126000D01*
X159391065Y-49093336D01*
X159236376Y-49029261D01*
X159236375Y-49029261D01*
X159236374Y-49029260D01*
X159097156Y-48936238D01*
X158978762Y-48817844D01*
X158885740Y-48678626D01*
X158885739Y-48678624D01*
X158821664Y-48523935D01*
X158789000Y-48359719D01*
X158789000Y-48192281D01*
X158821664Y-48028065D01*
X158885739Y-47873376D01*
X158885740Y-47873374D01*
X158978762Y-47734156D01*
X159097156Y-47615762D01*
X159236374Y-47522740D01*
X159236376Y-47522739D01*
X159391065Y-47458664D01*
X159555281Y-47426000D01*
X159722719Y-47426000D01*
X159886935Y-47458664D01*
G37*
G36*
X157346935Y-47458664D02*
G01*
X157501624Y-47522739D01*
X157501626Y-47522740D01*
X157640844Y-47615762D01*
X157759238Y-47734156D01*
X157852260Y-47873374D01*
X157852261Y-47873376D01*
X157916336Y-48028065D01*
X157949000Y-48192281D01*
X157949000Y-48359719D01*
X157916336Y-48523935D01*
X157852261Y-48678624D01*
X157852260Y-48678626D01*
X157759238Y-48817844D01*
X157640844Y-48936238D01*
X157501626Y-49029260D01*
X157501625Y-49029261D01*
X157501624Y-49029261D01*
X157346935Y-49093336D01*
X157182719Y-49126000D01*
X157015281Y-49126000D01*
X156851065Y-49093336D01*
X156696376Y-49029261D01*
X156696375Y-49029261D01*
X156696374Y-49029260D01*
X156557156Y-48936238D01*
X156438762Y-48817844D01*
X156345740Y-48678626D01*
X156345739Y-48678624D01*
X156281664Y-48523935D01*
X156249000Y-48359719D01*
X156249000Y-48192281D01*
X156281664Y-48028065D01*
X156345739Y-47873376D01*
X156345740Y-47873374D01*
X156438762Y-47734156D01*
X156557156Y-47615762D01*
X156696374Y-47522740D01*
X156696376Y-47522739D01*
X156851065Y-47458664D01*
X157015281Y-47426000D01*
X157182719Y-47426000D01*
X157346935Y-47458664D01*
G37*
G36*
X154806935Y-47458664D02*
G01*
X154961624Y-47522739D01*
X154961626Y-47522740D01*
X155100844Y-47615762D01*
X155219238Y-47734156D01*
X155312260Y-47873374D01*
X155312261Y-47873376D01*
X155376336Y-48028065D01*
X155409000Y-48192281D01*
X155409000Y-48359719D01*
X155376336Y-48523935D01*
X155312261Y-48678624D01*
X155312260Y-48678626D01*
X155219238Y-48817844D01*
X155100844Y-48936238D01*
X154961626Y-49029260D01*
X154961625Y-49029261D01*
X154961624Y-49029261D01*
X154806935Y-49093336D01*
X154642719Y-49126000D01*
X154475281Y-49126000D01*
X154311065Y-49093336D01*
X154156376Y-49029261D01*
X154156375Y-49029261D01*
X154156374Y-49029260D01*
X154017156Y-48936238D01*
X153898762Y-48817844D01*
X153805740Y-48678626D01*
X153805739Y-48678624D01*
X153741664Y-48523935D01*
X153709000Y-48359719D01*
X153709000Y-48192281D01*
X153741664Y-48028065D01*
X153805739Y-47873376D01*
X153805740Y-47873374D01*
X153898762Y-47734156D01*
X154017156Y-47615762D01*
X154156374Y-47522740D01*
X154156376Y-47522739D01*
X154311065Y-47458664D01*
X154475281Y-47426000D01*
X154642719Y-47426000D01*
X154806935Y-47458664D01*
G37*
G36*
X152266935Y-47458664D02*
G01*
X152421624Y-47522739D01*
X152421626Y-47522740D01*
X152560844Y-47615762D01*
X152679238Y-47734156D01*
X152772260Y-47873374D01*
X152772261Y-47873376D01*
X152836336Y-48028065D01*
X152869000Y-48192281D01*
X152869000Y-48359719D01*
X152836336Y-48523935D01*
X152772261Y-48678624D01*
X152772260Y-48678626D01*
X152679238Y-48817844D01*
X152560844Y-48936238D01*
X152421626Y-49029260D01*
X152421625Y-49029261D01*
X152421624Y-49029261D01*
X152266935Y-49093336D01*
X152102719Y-49126000D01*
X151935281Y-49126000D01*
X151771065Y-49093336D01*
X151616376Y-49029261D01*
X151616375Y-49029261D01*
X151616374Y-49029260D01*
X151477156Y-48936238D01*
X151358762Y-48817844D01*
X151265740Y-48678626D01*
X151265739Y-48678624D01*
X151201664Y-48523935D01*
X151169000Y-48359719D01*
X151169000Y-48192281D01*
X151201664Y-48028065D01*
X151265739Y-47873376D01*
X151265740Y-47873374D01*
X151358762Y-47734156D01*
X151477156Y-47615762D01*
X151616374Y-47522740D01*
X151616376Y-47522739D01*
X151771065Y-47458664D01*
X151935281Y-47426000D01*
X152102719Y-47426000D01*
X152266935Y-47458664D01*
G37*
G36*
X175126935Y-47458664D02*
G01*
X175281624Y-47522739D01*
X175281626Y-47522740D01*
X175420844Y-47615762D01*
X175539238Y-47734156D01*
X175632260Y-47873374D01*
X175632261Y-47873376D01*
X175696336Y-48028065D01*
X175729000Y-48192281D01*
X175729000Y-48359719D01*
X175696336Y-48523935D01*
X175632261Y-48678624D01*
X175632260Y-48678626D01*
X175539238Y-48817844D01*
X175420844Y-48936238D01*
X175281626Y-49029260D01*
X175281625Y-49029261D01*
X175281624Y-49029261D01*
X175126935Y-49093336D01*
X174962719Y-49126000D01*
X174795281Y-49126000D01*
X174631065Y-49093336D01*
X174476376Y-49029261D01*
X174476375Y-49029261D01*
X174476374Y-49029260D01*
X174337156Y-48936238D01*
X174218762Y-48817844D01*
X174125740Y-48678626D01*
X174125739Y-48678624D01*
X174061664Y-48523935D01*
X174029000Y-48359719D01*
X174029000Y-48192281D01*
X174061664Y-48028065D01*
X174125739Y-47873376D01*
X174125740Y-47873374D01*
X174218762Y-47734156D01*
X174337156Y-47615762D01*
X174476374Y-47522740D01*
X174476376Y-47522739D01*
X174631065Y-47458664D01*
X174795281Y-47426000D01*
X174962719Y-47426000D01*
X175126935Y-47458664D01*
G37*
M02*
