G04 #@! TF.GenerationSoftware,KiCad,Pcbnew,(5.1.5)-2*
G04 #@! TF.CreationDate,2019-12-22T19:38:14-08:00*
G04 #@! TF.ProjectId,DashSight-Mezzanine-Card,44617368-5369-4676-9874-2d4d657a7a61,rev?*
G04 #@! TF.SameCoordinates,Original*
G04 #@! TF.FileFunction,Copper,L2,Bot*
G04 #@! TF.FilePolarity,Positive*
%FSLAX46Y46*%
G04 Gerber Fmt 4.6, Leading zero omitted, Abs format (unit mm)*
G04 Created by KiCad (PCBNEW (5.1.5)-2) date 2019-12-22 19:38:14*
%MOMM*%
%LPD*%
G04 APERTURE LIST*
%ADD10O,1.905000X2.000000*%
%ADD11R,1.905000X2.000000*%
%ADD12R,1.200000X0.900000*%
%ADD13R,1.700000X1.700000*%
%ADD14O,1.700000X1.700000*%
%ADD15R,0.600000X1.550000*%
%ADD16C,4.000000*%
%ADD17C,1.600000*%
%ADD18R,1.600000X1.600000*%
%ADD19O,1.600000X1.600000*%
%ADD20R,0.900000X0.500000*%
%ADD21C,2.200000*%
%ADD22C,2.000000*%
%ADD23C,1.500000*%
%ADD24R,0.500000X0.900000*%
%ADD25O,1.500000X0.900000*%
%ADD26R,1.500000X0.900000*%
%ADD27C,1.000000*%
%ADD28R,1.000000X1.000000*%
%ADD29C,0.800000*%
%ADD30C,0.250000*%
%ADD31C,0.254000*%
G04 APERTURE END LIST*
D10*
X186182000Y-115824000D03*
X183642000Y-115824000D03*
D11*
X181102000Y-115824000D03*
D12*
X178000000Y-110650000D03*
X178000000Y-107350000D03*
D13*
X171640500Y-115125500D03*
D14*
X169100500Y-115125500D03*
X180848000Y-91694000D03*
D13*
X183388000Y-91694000D03*
D15*
X158432500Y-111155500D03*
X159702500Y-111155500D03*
X160972500Y-111155500D03*
X162242500Y-111155500D03*
X162242500Y-116555500D03*
X160972500Y-116555500D03*
X159702500Y-116555500D03*
X158432500Y-116555500D03*
D16*
X193300000Y-86960000D03*
X193300000Y-111960000D03*
D17*
X195840000Y-95305000D03*
X195840000Y-98075000D03*
X195840000Y-100845000D03*
X195840000Y-103615000D03*
X193000000Y-93920000D03*
X193000000Y-96690000D03*
X193000000Y-99460000D03*
X193000000Y-102230000D03*
D18*
X193000000Y-105000000D03*
X169000000Y-79000000D03*
D19*
X135980000Y-86620000D03*
X166460000Y-79000000D03*
X138520000Y-86620000D03*
X163920000Y-79000000D03*
X141060000Y-86620000D03*
X161380000Y-79000000D03*
X143600000Y-86620000D03*
X158840000Y-79000000D03*
X146140000Y-86620000D03*
X156300000Y-79000000D03*
X148680000Y-86620000D03*
X153760000Y-79000000D03*
X151220000Y-86620000D03*
X151220000Y-79000000D03*
X153760000Y-86620000D03*
X148680000Y-79000000D03*
X156300000Y-86620000D03*
X146140000Y-79000000D03*
X158840000Y-86620000D03*
X143600000Y-79000000D03*
X161380000Y-86620000D03*
X141060000Y-79000000D03*
X163920000Y-86620000D03*
X138520000Y-79000000D03*
X166460000Y-86620000D03*
X135980000Y-79000000D03*
X169000000Y-86620000D03*
D20*
X173000000Y-106000000D03*
X173000000Y-107500000D03*
D21*
X127508000Y-55118000D03*
X127508000Y-50038000D03*
X132588000Y-50038000D03*
X132588000Y-55118000D03*
D22*
X130048000Y-52578000D03*
D23*
X173000000Y-68000000D03*
X173000000Y-63120000D03*
D18*
X180000000Y-79000000D03*
D19*
X187620000Y-86620000D03*
X180000000Y-81540000D03*
X187620000Y-84080000D03*
X180000000Y-84080000D03*
X187620000Y-81540000D03*
X180000000Y-86620000D03*
X187620000Y-79000000D03*
D13*
X141000000Y-123000000D03*
D14*
X141000000Y-120460000D03*
X143540000Y-123000000D03*
X143540000Y-120460000D03*
X146080000Y-123000000D03*
X146080000Y-120460000D03*
X148620000Y-123000000D03*
X148620000Y-120460000D03*
X151160000Y-123000000D03*
X151160000Y-120460000D03*
X153700000Y-123000000D03*
X153700000Y-120460000D03*
X156240000Y-123000000D03*
X156240000Y-120460000D03*
X158780000Y-123000000D03*
X158780000Y-120460000D03*
X161320000Y-123000000D03*
X161320000Y-120460000D03*
X163860000Y-123000000D03*
X163860000Y-120460000D03*
X166400000Y-123000000D03*
X166400000Y-120460000D03*
X168940000Y-123000000D03*
X168940000Y-120460000D03*
X171480000Y-123000000D03*
X171480000Y-120460000D03*
X174020000Y-123000000D03*
X174020000Y-120460000D03*
X176560000Y-123000000D03*
X176560000Y-120460000D03*
X179100000Y-123000000D03*
X179100000Y-120460000D03*
X181640000Y-123000000D03*
X181640000Y-120460000D03*
D13*
X146939000Y-50816000D03*
D14*
X146939000Y-48276000D03*
X149479000Y-50816000D03*
X149479000Y-48276000D03*
X152019000Y-50816000D03*
X152019000Y-48276000D03*
X154559000Y-50816000D03*
X154559000Y-48276000D03*
X157099000Y-50816000D03*
X157099000Y-48276000D03*
X159639000Y-50816000D03*
X159639000Y-48276000D03*
X162179000Y-50816000D03*
X162179000Y-48276000D03*
X164719000Y-50816000D03*
X164719000Y-48276000D03*
X167259000Y-50816000D03*
X167259000Y-48276000D03*
X169799000Y-50816000D03*
X169799000Y-48276000D03*
X172339000Y-50816000D03*
X172339000Y-48276000D03*
X174879000Y-50816000D03*
X174879000Y-48276000D03*
X177419000Y-50816000D03*
X177419000Y-48276000D03*
X179959000Y-50816000D03*
X179959000Y-48276000D03*
X182499000Y-50816000D03*
X182499000Y-48276000D03*
X185039000Y-50816000D03*
X185039000Y-48276000D03*
X187579000Y-50816000D03*
X187579000Y-48276000D03*
X190119000Y-50816000D03*
X190119000Y-48276000D03*
X192659000Y-50816000D03*
X192659000Y-48276000D03*
X195199000Y-50816000D03*
X195199000Y-48276000D03*
D24*
X175250000Y-74000000D03*
X176750000Y-74000000D03*
X146750000Y-75000000D03*
X145250000Y-75000000D03*
D20*
X173000000Y-91750000D03*
X173000000Y-90250000D03*
D24*
X173250000Y-101000000D03*
X174750000Y-101000000D03*
D20*
X133000000Y-92750000D03*
X133000000Y-91250000D03*
D25*
X167000000Y-109270000D03*
X167000000Y-108000000D03*
D26*
X167000000Y-110540000D03*
D27*
X157270000Y-91730000D03*
X158540000Y-93000000D03*
D28*
X156000000Y-93000000D03*
D27*
X157270000Y-99730000D03*
X158540000Y-101000000D03*
D28*
X156000000Y-101000000D03*
D27*
X154270000Y-112730000D03*
X155540000Y-114000000D03*
D28*
X153000000Y-114000000D03*
D27*
X186270000Y-108270000D03*
X185000000Y-109540000D03*
D28*
X185000000Y-107000000D03*
D27*
X140730000Y-110270000D03*
X139460000Y-109000000D03*
D28*
X142000000Y-109000000D03*
D27*
X180730000Y-102270000D03*
X179460000Y-101000000D03*
D28*
X182000000Y-101000000D03*
D27*
X140270000Y-99730000D03*
X141540000Y-101000000D03*
D28*
X139000000Y-101000000D03*
D29*
X135890000Y-60452000D03*
X138430000Y-60452000D03*
X140970000Y-60452000D03*
X135890000Y-62992000D03*
X140970000Y-62992000D03*
X135890000Y-65532000D03*
X138430000Y-65532000D03*
X140970000Y-65532000D03*
X130429000Y-67183000D03*
X173228000Y-75946000D03*
X136906000Y-111760000D03*
X158750000Y-55880000D03*
X163830000Y-55880000D03*
X158750000Y-59690000D03*
X163830000Y-59690000D03*
X133350000Y-116332000D03*
X133350000Y-119380000D03*
X173799500Y-110045500D03*
X170688000Y-98742500D03*
X174000000Y-79000000D03*
X131254500Y-78232000D03*
X149000000Y-90000000D03*
D30*
X137720001Y-78200001D02*
X138520000Y-79000000D01*
X137394999Y-77874999D02*
X137720001Y-78200001D01*
X135439999Y-77874999D02*
X137394999Y-77874999D01*
X132224999Y-102986001D02*
X132224999Y-81089999D01*
X139063999Y-109825001D02*
X132224999Y-102986001D01*
X132224999Y-81089999D02*
X135439999Y-77874999D01*
X139856001Y-109825001D02*
X139063999Y-109825001D01*
X141040001Y-108641001D02*
X139856001Y-109825001D01*
X141040001Y-101499999D02*
X141040001Y-108641001D01*
X141540000Y-101000000D02*
X141040001Y-101499999D01*
X142520000Y-75000000D02*
X138520000Y-79000000D01*
X145250000Y-75000000D02*
X142520000Y-75000000D01*
X140270000Y-108190000D02*
X140270000Y-99730000D01*
X139460000Y-109000000D02*
X140270000Y-108190000D01*
X177250000Y-74000000D02*
X186000000Y-82750000D01*
X176750000Y-74000000D02*
X177250000Y-74000000D01*
X182315002Y-102270000D02*
X180730000Y-102270000D01*
X186000000Y-98585002D02*
X182315002Y-102270000D01*
X186000000Y-82750000D02*
X186000000Y-98585002D01*
X174750000Y-101000000D02*
X179460000Y-101000000D01*
X173200000Y-107500000D02*
X173000000Y-107500000D01*
X172800000Y-107500000D02*
X173000000Y-107500000D01*
X172224999Y-106924999D02*
X172800000Y-107500000D01*
X172224999Y-102225001D02*
X172224999Y-106924999D01*
X173250000Y-101200000D02*
X172224999Y-102225001D01*
X173250000Y-101200000D02*
X173250000Y-101000000D01*
X175145001Y-103095001D02*
X173250000Y-101200000D01*
X182680003Y-103095001D02*
X175145001Y-103095001D01*
X186270000Y-106684998D02*
X182680003Y-103095001D01*
X186270000Y-108270000D02*
X186270000Y-106684998D01*
X173000000Y-106000000D02*
X172800000Y-106000000D01*
X184250000Y-107000000D02*
X185000000Y-107000000D01*
X182250000Y-105000000D02*
X184250000Y-107000000D01*
X167000000Y-109270000D02*
X172515002Y-109270000D01*
X172515002Y-109270000D02*
X174000000Y-107785002D01*
X174000000Y-107785002D02*
X174000000Y-106800000D01*
X174000000Y-106800000D02*
X173200000Y-106000000D01*
X173200000Y-106000000D02*
X174200000Y-105000000D01*
X174200000Y-105000000D02*
X182250000Y-105000000D01*
X154270000Y-112022894D02*
X154270000Y-112730000D01*
X134997106Y-92750000D02*
X154270000Y-112022894D01*
X133000000Y-92750000D02*
X134997106Y-92750000D01*
X166700000Y-110540000D02*
X167000000Y-110540000D01*
X165924990Y-109764990D02*
X166700000Y-110540000D01*
X165924990Y-99325010D02*
X165924990Y-109764990D01*
X173000000Y-92250000D02*
X165924990Y-99325010D01*
X173000000Y-91750000D02*
X173000000Y-92250000D01*
X186182000Y-115776500D02*
X186182000Y-115824000D01*
X182229000Y-111823500D02*
X186182000Y-115776500D01*
X175577500Y-111823500D02*
X182229000Y-111823500D01*
X173799500Y-110045500D02*
X175577500Y-111823500D01*
X133000000Y-81980000D02*
X133000000Y-91250000D01*
X135980000Y-79000000D02*
X133000000Y-81980000D01*
X188419999Y-84879999D02*
X187620000Y-84080000D01*
X188745001Y-96870003D02*
X188745001Y-85205001D01*
X192459999Y-100585001D02*
X188745001Y-96870003D01*
X193540001Y-100585001D02*
X192459999Y-100585001D01*
X194125001Y-100000001D02*
X193540001Y-100585001D01*
X188745001Y-85205001D02*
X188419999Y-84879999D01*
X194125001Y-95045001D02*
X194125001Y-100000001D01*
X193000000Y-93920000D02*
X194125001Y-95045001D01*
X188419999Y-82339999D02*
X187620000Y-81540000D01*
X190000000Y-83920000D02*
X188419999Y-82339999D01*
X190000000Y-96460000D02*
X190000000Y-83920000D01*
X193000000Y-99460000D02*
X190000000Y-96460000D01*
X196965001Y-101970001D02*
X195840000Y-100845000D01*
X196965001Y-104853997D02*
X196965001Y-101970001D01*
X190818998Y-111000000D02*
X196965001Y-104853997D01*
X178000000Y-111000000D02*
X190818998Y-111000000D01*
X177736500Y-91694000D02*
X170688000Y-98742500D01*
X180848000Y-91694000D02*
X177736500Y-91694000D01*
X178035002Y-90250000D02*
X173000000Y-90250000D01*
X181125001Y-87160001D02*
X178035002Y-90250000D01*
X180250003Y-80125001D02*
X181125001Y-80999999D01*
X175125001Y-80125001D02*
X180250003Y-80125001D01*
X181125001Y-80999999D02*
X181125001Y-87160001D01*
X174000000Y-79000000D02*
X175125001Y-80125001D01*
X173030000Y-84080000D02*
X169000000Y-80050000D01*
X180000000Y-84080000D02*
X173030000Y-84080000D01*
X149760000Y-75000000D02*
X153760000Y-79000000D01*
X146750000Y-75000000D02*
X149760000Y-75000000D01*
X148680000Y-84080000D02*
X153760000Y-79000000D01*
X148680000Y-86620000D02*
X148680000Y-84080000D01*
X153760000Y-79000000D02*
X156300000Y-79000000D01*
X156300000Y-79000000D02*
X158840000Y-79000000D01*
X169000000Y-80050000D02*
X169000000Y-79000000D01*
X168924999Y-80125001D02*
X169000000Y-80050000D01*
X159965001Y-80125001D02*
X168924999Y-80125001D01*
X158840000Y-79000000D02*
X159965001Y-80125001D01*
X136779999Y-85820001D02*
X135980000Y-86620000D01*
X139934999Y-82665001D02*
X136779999Y-85820001D01*
X139934999Y-78459999D02*
X139934999Y-82665001D01*
X140519999Y-77874999D02*
X139934999Y-78459999D01*
X144075001Y-77874999D02*
X140519999Y-77874999D01*
X146750000Y-75200000D02*
X144075001Y-77874999D01*
X146750000Y-75000000D02*
X146750000Y-75200000D01*
X158432500Y-111155500D02*
X158432500Y-112141000D01*
X158432500Y-112141000D02*
X160401000Y-114109500D01*
X168084500Y-114109500D02*
X169100500Y-115125500D01*
X160401000Y-114109500D02*
X168084500Y-114109500D01*
X166380000Y-74000000D02*
X161380000Y-79000000D01*
X175250000Y-74000000D02*
X166380000Y-74000000D01*
X158432500Y-116555500D02*
X144241500Y-116555500D01*
X144241500Y-116555500D02*
X131254500Y-103568500D01*
X131254500Y-103568500D02*
X131254500Y-78232000D01*
X160909000Y-50181000D02*
X160274000Y-49546000D01*
X148209000Y-49546000D02*
X146939000Y-50816000D01*
X160274000Y-49546000D02*
X148209000Y-49546000D01*
X131318000Y-78232000D02*
X131254500Y-78232000D01*
X136271000Y-73279000D02*
X131318000Y-78232000D01*
X150368000Y-73279000D02*
X136271000Y-73279000D01*
X160909000Y-50165000D02*
X160909000Y-62738000D01*
X160909000Y-62738000D02*
X150368000Y-73279000D01*
X141859999Y-79799999D02*
X141060000Y-79000000D01*
X147265001Y-85205001D02*
X141859999Y-79799999D01*
X147265001Y-88265001D02*
X147265001Y-85205001D01*
X149000000Y-90000000D02*
X147265001Y-88265001D01*
X160972500Y-116555500D02*
X160972500Y-117348000D01*
X160972500Y-117348000D02*
X161861500Y-118237000D01*
X161861500Y-118237000D02*
X168910000Y-118237000D01*
X168910000Y-118237000D02*
X170243500Y-119570500D01*
X170243500Y-121696500D02*
X168940000Y-123000000D01*
X170243500Y-119570500D02*
X170243500Y-121696500D01*
X168940000Y-120460000D02*
X168940000Y-119156000D01*
X168940000Y-119156000D02*
X168656000Y-118872000D01*
X168656000Y-118872000D02*
X161290000Y-118872000D01*
X159702500Y-117284500D02*
X159702500Y-116555500D01*
X161290000Y-118872000D02*
X159702500Y-117284500D01*
X160972500Y-111155500D02*
X160972500Y-108775500D01*
X160972500Y-108775500D02*
X144970500Y-92773500D01*
X144970500Y-92773500D02*
X144970500Y-85725000D01*
X144970500Y-85725000D02*
X144399000Y-85153500D01*
X142526500Y-85153500D02*
X141060000Y-86620000D01*
X144399000Y-85153500D02*
X142526500Y-85153500D01*
X159702500Y-111155500D02*
X159702500Y-109474000D01*
X143600000Y-93371500D02*
X143600000Y-86620000D01*
X159702500Y-109474000D02*
X143600000Y-93371500D01*
X182460000Y-107000000D02*
X185000000Y-109540000D01*
X178000000Y-107000000D02*
X182460000Y-107000000D01*
D31*
G36*
X145033310Y-70993000D02*
G01*
X125858391Y-70993000D01*
X126018263Y-56324712D01*
X126480893Y-56324712D01*
X126588726Y-56599338D01*
X126895384Y-56750216D01*
X127225585Y-56838369D01*
X127566639Y-56860409D01*
X127905439Y-56815489D01*
X128228966Y-56705336D01*
X128427274Y-56599338D01*
X128535107Y-56324712D01*
X131560893Y-56324712D01*
X131668726Y-56599338D01*
X131975384Y-56750216D01*
X132305585Y-56838369D01*
X132646639Y-56860409D01*
X132985439Y-56815489D01*
X133308966Y-56705336D01*
X133507274Y-56599338D01*
X133615107Y-56324712D01*
X132588000Y-55297605D01*
X131560893Y-56324712D01*
X128535107Y-56324712D01*
X127508000Y-55297605D01*
X126480893Y-56324712D01*
X126018263Y-56324712D01*
X126021502Y-56027620D01*
X126026662Y-56037274D01*
X126301288Y-56145107D01*
X127328395Y-55118000D01*
X127687605Y-55118000D01*
X128714712Y-56145107D01*
X128989338Y-56037274D01*
X129140216Y-55730616D01*
X129228369Y-55400415D01*
X129242830Y-55176639D01*
X130845591Y-55176639D01*
X130890511Y-55515439D01*
X131000664Y-55838966D01*
X131106662Y-56037274D01*
X131381288Y-56145107D01*
X132408395Y-55118000D01*
X132767605Y-55118000D01*
X133794712Y-56145107D01*
X134069338Y-56037274D01*
X134220216Y-55730616D01*
X134308369Y-55400415D01*
X134330409Y-55059361D01*
X134285489Y-54720561D01*
X134175336Y-54397034D01*
X134069338Y-54198726D01*
X133794712Y-54090893D01*
X132767605Y-55118000D01*
X132408395Y-55118000D01*
X131381288Y-54090893D01*
X131106662Y-54198726D01*
X130955784Y-54505384D01*
X130867631Y-54835585D01*
X130845591Y-55176639D01*
X129242830Y-55176639D01*
X129250409Y-55059361D01*
X129205489Y-54720561D01*
X129095336Y-54397034D01*
X128989338Y-54198726D01*
X128714712Y-54090893D01*
X127687605Y-55118000D01*
X127328395Y-55118000D01*
X126301288Y-54090893D01*
X126041499Y-54192900D01*
X126044568Y-53911288D01*
X126480893Y-53911288D01*
X127508000Y-54938395D01*
X128535107Y-53911288D01*
X128427274Y-53636662D01*
X128120616Y-53485784D01*
X127790415Y-53397631D01*
X127449361Y-53375591D01*
X127110561Y-53420511D01*
X126787034Y-53530664D01*
X126588726Y-53636662D01*
X126480893Y-53911288D01*
X126044568Y-53911288D01*
X126060854Y-52416967D01*
X128413000Y-52416967D01*
X128413000Y-52739033D01*
X128475832Y-53054912D01*
X128599082Y-53352463D01*
X128778013Y-53620252D01*
X129005748Y-53847987D01*
X129273537Y-54026918D01*
X129571088Y-54150168D01*
X129886967Y-54213000D01*
X130209033Y-54213000D01*
X130524912Y-54150168D01*
X130822463Y-54026918D01*
X130995515Y-53911288D01*
X131560893Y-53911288D01*
X132588000Y-54938395D01*
X133615107Y-53911288D01*
X133507274Y-53636662D01*
X133200616Y-53485784D01*
X132870415Y-53397631D01*
X132529361Y-53375591D01*
X132190561Y-53420511D01*
X131867034Y-53530664D01*
X131668726Y-53636662D01*
X131560893Y-53911288D01*
X130995515Y-53911288D01*
X131090252Y-53847987D01*
X131317987Y-53620252D01*
X131496918Y-53352463D01*
X131620168Y-53054912D01*
X131683000Y-52739033D01*
X131683000Y-52416967D01*
X131620168Y-52101088D01*
X131496918Y-51803537D01*
X131317987Y-51535748D01*
X131090252Y-51308013D01*
X130995516Y-51244712D01*
X131560893Y-51244712D01*
X131668726Y-51519338D01*
X131975384Y-51670216D01*
X132305585Y-51758369D01*
X132646639Y-51780409D01*
X132985439Y-51735489D01*
X133308966Y-51625336D01*
X133507274Y-51519338D01*
X133615107Y-51244712D01*
X132588000Y-50217605D01*
X131560893Y-51244712D01*
X130995516Y-51244712D01*
X130822463Y-51129082D01*
X130524912Y-51005832D01*
X130209033Y-50943000D01*
X129886967Y-50943000D01*
X129571088Y-51005832D01*
X129273537Y-51129082D01*
X129005748Y-51308013D01*
X128778013Y-51535748D01*
X128599082Y-51803537D01*
X128475832Y-52101088D01*
X128413000Y-52416967D01*
X126060854Y-52416967D01*
X126073631Y-51244712D01*
X126480893Y-51244712D01*
X126588726Y-51519338D01*
X126895384Y-51670216D01*
X127225585Y-51758369D01*
X127566639Y-51780409D01*
X127905439Y-51735489D01*
X128228966Y-51625336D01*
X128427274Y-51519338D01*
X128535107Y-51244712D01*
X127508000Y-50217605D01*
X126480893Y-51244712D01*
X126073631Y-51244712D01*
X126076551Y-50976863D01*
X126301288Y-51065107D01*
X127328395Y-50038000D01*
X127687605Y-50038000D01*
X128714712Y-51065107D01*
X128989338Y-50957274D01*
X129140216Y-50650616D01*
X129228369Y-50320415D01*
X129242830Y-50096639D01*
X130845591Y-50096639D01*
X130890511Y-50435439D01*
X131000664Y-50758966D01*
X131106662Y-50957274D01*
X131381288Y-51065107D01*
X132408395Y-50038000D01*
X132767605Y-50038000D01*
X133794712Y-51065107D01*
X134069338Y-50957274D01*
X134220216Y-50650616D01*
X134308369Y-50320415D01*
X134330409Y-49979361D01*
X134285489Y-49640561D01*
X134175336Y-49317034D01*
X134069338Y-49118726D01*
X133794712Y-49010893D01*
X132767605Y-50038000D01*
X132408395Y-50038000D01*
X131381288Y-49010893D01*
X131106662Y-49118726D01*
X130955784Y-49425384D01*
X130867631Y-49755585D01*
X130845591Y-50096639D01*
X129242830Y-50096639D01*
X129250409Y-49979361D01*
X129205489Y-49640561D01*
X129095336Y-49317034D01*
X128989338Y-49118726D01*
X128714712Y-49010893D01*
X127687605Y-50038000D01*
X127328395Y-50038000D01*
X126301288Y-49010893D01*
X126097104Y-49091066D01*
X126099935Y-48831288D01*
X126480893Y-48831288D01*
X127508000Y-49858395D01*
X128535107Y-48831288D01*
X131560893Y-48831288D01*
X132588000Y-49858395D01*
X133615107Y-48831288D01*
X133507274Y-48556662D01*
X133200616Y-48405784D01*
X132870415Y-48317631D01*
X132529361Y-48295591D01*
X132190561Y-48340511D01*
X131867034Y-48450664D01*
X131668726Y-48556662D01*
X131560893Y-48831288D01*
X128535107Y-48831288D01*
X128427274Y-48556662D01*
X128120616Y-48405784D01*
X127790415Y-48317631D01*
X127449361Y-48295591D01*
X127110561Y-48340511D01*
X126787034Y-48450664D01*
X126588726Y-48556662D01*
X126480893Y-48831288D01*
X126099935Y-48831288D01*
X126109632Y-47941665D01*
X144907691Y-47816345D01*
X145033310Y-70993000D01*
G37*
X145033310Y-70993000D02*
X125858391Y-70993000D01*
X126018263Y-56324712D01*
X126480893Y-56324712D01*
X126588726Y-56599338D01*
X126895384Y-56750216D01*
X127225585Y-56838369D01*
X127566639Y-56860409D01*
X127905439Y-56815489D01*
X128228966Y-56705336D01*
X128427274Y-56599338D01*
X128535107Y-56324712D01*
X131560893Y-56324712D01*
X131668726Y-56599338D01*
X131975384Y-56750216D01*
X132305585Y-56838369D01*
X132646639Y-56860409D01*
X132985439Y-56815489D01*
X133308966Y-56705336D01*
X133507274Y-56599338D01*
X133615107Y-56324712D01*
X132588000Y-55297605D01*
X131560893Y-56324712D01*
X128535107Y-56324712D01*
X127508000Y-55297605D01*
X126480893Y-56324712D01*
X126018263Y-56324712D01*
X126021502Y-56027620D01*
X126026662Y-56037274D01*
X126301288Y-56145107D01*
X127328395Y-55118000D01*
X127687605Y-55118000D01*
X128714712Y-56145107D01*
X128989338Y-56037274D01*
X129140216Y-55730616D01*
X129228369Y-55400415D01*
X129242830Y-55176639D01*
X130845591Y-55176639D01*
X130890511Y-55515439D01*
X131000664Y-55838966D01*
X131106662Y-56037274D01*
X131381288Y-56145107D01*
X132408395Y-55118000D01*
X132767605Y-55118000D01*
X133794712Y-56145107D01*
X134069338Y-56037274D01*
X134220216Y-55730616D01*
X134308369Y-55400415D01*
X134330409Y-55059361D01*
X134285489Y-54720561D01*
X134175336Y-54397034D01*
X134069338Y-54198726D01*
X133794712Y-54090893D01*
X132767605Y-55118000D01*
X132408395Y-55118000D01*
X131381288Y-54090893D01*
X131106662Y-54198726D01*
X130955784Y-54505384D01*
X130867631Y-54835585D01*
X130845591Y-55176639D01*
X129242830Y-55176639D01*
X129250409Y-55059361D01*
X129205489Y-54720561D01*
X129095336Y-54397034D01*
X128989338Y-54198726D01*
X128714712Y-54090893D01*
X127687605Y-55118000D01*
X127328395Y-55118000D01*
X126301288Y-54090893D01*
X126041499Y-54192900D01*
X126044568Y-53911288D01*
X126480893Y-53911288D01*
X127508000Y-54938395D01*
X128535107Y-53911288D01*
X128427274Y-53636662D01*
X128120616Y-53485784D01*
X127790415Y-53397631D01*
X127449361Y-53375591D01*
X127110561Y-53420511D01*
X126787034Y-53530664D01*
X126588726Y-53636662D01*
X126480893Y-53911288D01*
X126044568Y-53911288D01*
X126060854Y-52416967D01*
X128413000Y-52416967D01*
X128413000Y-52739033D01*
X128475832Y-53054912D01*
X128599082Y-53352463D01*
X128778013Y-53620252D01*
X129005748Y-53847987D01*
X129273537Y-54026918D01*
X129571088Y-54150168D01*
X129886967Y-54213000D01*
X130209033Y-54213000D01*
X130524912Y-54150168D01*
X130822463Y-54026918D01*
X130995515Y-53911288D01*
X131560893Y-53911288D01*
X132588000Y-54938395D01*
X133615107Y-53911288D01*
X133507274Y-53636662D01*
X133200616Y-53485784D01*
X132870415Y-53397631D01*
X132529361Y-53375591D01*
X132190561Y-53420511D01*
X131867034Y-53530664D01*
X131668726Y-53636662D01*
X131560893Y-53911288D01*
X130995515Y-53911288D01*
X131090252Y-53847987D01*
X131317987Y-53620252D01*
X131496918Y-53352463D01*
X131620168Y-53054912D01*
X131683000Y-52739033D01*
X131683000Y-52416967D01*
X131620168Y-52101088D01*
X131496918Y-51803537D01*
X131317987Y-51535748D01*
X131090252Y-51308013D01*
X130995516Y-51244712D01*
X131560893Y-51244712D01*
X131668726Y-51519338D01*
X131975384Y-51670216D01*
X132305585Y-51758369D01*
X132646639Y-51780409D01*
X132985439Y-51735489D01*
X133308966Y-51625336D01*
X133507274Y-51519338D01*
X133615107Y-51244712D01*
X132588000Y-50217605D01*
X131560893Y-51244712D01*
X130995516Y-51244712D01*
X130822463Y-51129082D01*
X130524912Y-51005832D01*
X130209033Y-50943000D01*
X129886967Y-50943000D01*
X129571088Y-51005832D01*
X129273537Y-51129082D01*
X129005748Y-51308013D01*
X128778013Y-51535748D01*
X128599082Y-51803537D01*
X128475832Y-52101088D01*
X128413000Y-52416967D01*
X126060854Y-52416967D01*
X126073631Y-51244712D01*
X126480893Y-51244712D01*
X126588726Y-51519338D01*
X126895384Y-51670216D01*
X127225585Y-51758369D01*
X127566639Y-51780409D01*
X127905439Y-51735489D01*
X128228966Y-51625336D01*
X128427274Y-51519338D01*
X128535107Y-51244712D01*
X127508000Y-50217605D01*
X126480893Y-51244712D01*
X126073631Y-51244712D01*
X126076551Y-50976863D01*
X126301288Y-51065107D01*
X127328395Y-50038000D01*
X127687605Y-50038000D01*
X128714712Y-51065107D01*
X128989338Y-50957274D01*
X129140216Y-50650616D01*
X129228369Y-50320415D01*
X129242830Y-50096639D01*
X130845591Y-50096639D01*
X130890511Y-50435439D01*
X131000664Y-50758966D01*
X131106662Y-50957274D01*
X131381288Y-51065107D01*
X132408395Y-50038000D01*
X132767605Y-50038000D01*
X133794712Y-51065107D01*
X134069338Y-50957274D01*
X134220216Y-50650616D01*
X134308369Y-50320415D01*
X134330409Y-49979361D01*
X134285489Y-49640561D01*
X134175336Y-49317034D01*
X134069338Y-49118726D01*
X133794712Y-49010893D01*
X132767605Y-50038000D01*
X132408395Y-50038000D01*
X131381288Y-49010893D01*
X131106662Y-49118726D01*
X130955784Y-49425384D01*
X130867631Y-49755585D01*
X130845591Y-50096639D01*
X129242830Y-50096639D01*
X129250409Y-49979361D01*
X129205489Y-49640561D01*
X129095336Y-49317034D01*
X128989338Y-49118726D01*
X128714712Y-49010893D01*
X127687605Y-50038000D01*
X127328395Y-50038000D01*
X126301288Y-49010893D01*
X126097104Y-49091066D01*
X126099935Y-48831288D01*
X126480893Y-48831288D01*
X127508000Y-49858395D01*
X128535107Y-48831288D01*
X131560893Y-48831288D01*
X132588000Y-49858395D01*
X133615107Y-48831288D01*
X133507274Y-48556662D01*
X133200616Y-48405784D01*
X132870415Y-48317631D01*
X132529361Y-48295591D01*
X132190561Y-48340511D01*
X131867034Y-48450664D01*
X131668726Y-48556662D01*
X131560893Y-48831288D01*
X128535107Y-48831288D01*
X128427274Y-48556662D01*
X128120616Y-48405784D01*
X127790415Y-48317631D01*
X127449361Y-48295591D01*
X127110561Y-48340511D01*
X126787034Y-48450664D01*
X126588726Y-48556662D01*
X126480893Y-48831288D01*
X126099935Y-48831288D01*
X126109632Y-47941665D01*
X144907691Y-47816345D01*
X145033310Y-70993000D01*
G36*
X131278199Y-77197000D02*
G01*
X131152561Y-77197000D01*
X130952602Y-77236774D01*
X130764244Y-77314795D01*
X130594726Y-77428063D01*
X130450563Y-77572226D01*
X130337295Y-77741744D01*
X130259274Y-77930102D01*
X130219500Y-78130061D01*
X130219500Y-78333939D01*
X130259274Y-78533898D01*
X130337295Y-78722256D01*
X130450563Y-78891774D01*
X130494501Y-78935712D01*
X130494500Y-103531178D01*
X130490824Y-103568500D01*
X130494500Y-103605822D01*
X130494500Y-103605832D01*
X130505497Y-103717485D01*
X130544331Y-103845506D01*
X130548954Y-103860746D01*
X130619526Y-103992776D01*
X130659371Y-104041326D01*
X130714499Y-104108501D01*
X130743503Y-104132304D01*
X143677701Y-117066503D01*
X143701499Y-117095501D01*
X143730497Y-117119299D01*
X143817224Y-117190474D01*
X143949253Y-117261046D01*
X144092514Y-117304503D01*
X144241500Y-117319177D01*
X144278833Y-117315500D01*
X157494428Y-117315500D01*
X157494428Y-117330500D01*
X157506688Y-117454982D01*
X157542998Y-117574680D01*
X157601963Y-117684994D01*
X157681315Y-117781685D01*
X157778006Y-117861037D01*
X157888320Y-117920002D01*
X158008018Y-117956312D01*
X158132500Y-117968572D01*
X158732500Y-117968572D01*
X158856982Y-117956312D01*
X158976680Y-117920002D01*
X159067500Y-117871457D01*
X159158320Y-117920002D01*
X159278018Y-117956312D01*
X159301859Y-117958660D01*
X160539031Y-119195833D01*
X160373368Y-119306525D01*
X160166525Y-119513368D01*
X160050000Y-119687760D01*
X159933475Y-119513368D01*
X159726632Y-119306525D01*
X159483411Y-119144010D01*
X159213158Y-119032068D01*
X158926260Y-118975000D01*
X158633740Y-118975000D01*
X158346842Y-119032068D01*
X158076589Y-119144010D01*
X157833368Y-119306525D01*
X157626525Y-119513368D01*
X157504805Y-119695534D01*
X157435178Y-119578645D01*
X157240269Y-119362412D01*
X157006920Y-119188359D01*
X156744099Y-119063175D01*
X156596890Y-119018524D01*
X156367000Y-119139845D01*
X156367000Y-120333000D01*
X156387000Y-120333000D01*
X156387000Y-120587000D01*
X156367000Y-120587000D01*
X156367000Y-120607000D01*
X156113000Y-120607000D01*
X156113000Y-120587000D01*
X156093000Y-120587000D01*
X156093000Y-120333000D01*
X156113000Y-120333000D01*
X156113000Y-119139845D01*
X155883110Y-119018524D01*
X155735901Y-119063175D01*
X155473080Y-119188359D01*
X155239731Y-119362412D01*
X155044822Y-119578645D01*
X154975195Y-119695534D01*
X154853475Y-119513368D01*
X154646632Y-119306525D01*
X154403411Y-119144010D01*
X154133158Y-119032068D01*
X153846260Y-118975000D01*
X153553740Y-118975000D01*
X153266842Y-119032068D01*
X152996589Y-119144010D01*
X152753368Y-119306525D01*
X152546525Y-119513368D01*
X152430000Y-119687760D01*
X152313475Y-119513368D01*
X152106632Y-119306525D01*
X151863411Y-119144010D01*
X151593158Y-119032068D01*
X151306260Y-118975000D01*
X151013740Y-118975000D01*
X150726842Y-119032068D01*
X150456589Y-119144010D01*
X150213368Y-119306525D01*
X150006525Y-119513368D01*
X149890000Y-119687760D01*
X149773475Y-119513368D01*
X149566632Y-119306525D01*
X149323411Y-119144010D01*
X149053158Y-119032068D01*
X148766260Y-118975000D01*
X148473740Y-118975000D01*
X148186842Y-119032068D01*
X147916589Y-119144010D01*
X147673368Y-119306525D01*
X147466525Y-119513368D01*
X147344805Y-119695534D01*
X147275178Y-119578645D01*
X147080269Y-119362412D01*
X146846920Y-119188359D01*
X146584099Y-119063175D01*
X146436890Y-119018524D01*
X146207000Y-119139845D01*
X146207000Y-120333000D01*
X146227000Y-120333000D01*
X146227000Y-120587000D01*
X146207000Y-120587000D01*
X146207000Y-120607000D01*
X145953000Y-120607000D01*
X145953000Y-120587000D01*
X145933000Y-120587000D01*
X145933000Y-120333000D01*
X145953000Y-120333000D01*
X145953000Y-119139845D01*
X145723110Y-119018524D01*
X145575901Y-119063175D01*
X145313080Y-119188359D01*
X145079731Y-119362412D01*
X144884822Y-119578645D01*
X144815195Y-119695534D01*
X144693475Y-119513368D01*
X144486632Y-119306525D01*
X144243411Y-119144010D01*
X143973158Y-119032068D01*
X143686260Y-118975000D01*
X143393740Y-118975000D01*
X143106842Y-119032068D01*
X142836589Y-119144010D01*
X142593368Y-119306525D01*
X142386525Y-119513368D01*
X142270000Y-119687760D01*
X142153475Y-119513368D01*
X141946632Y-119306525D01*
X141703411Y-119144010D01*
X141433158Y-119032068D01*
X141146260Y-118975000D01*
X140853740Y-118975000D01*
X140566842Y-119032068D01*
X140296589Y-119144010D01*
X140053368Y-119306525D01*
X139846525Y-119513368D01*
X139684010Y-119756589D01*
X139572068Y-120026842D01*
X139515000Y-120313740D01*
X139515000Y-120606260D01*
X139572068Y-120893158D01*
X139684010Y-121163411D01*
X139846525Y-121406632D01*
X139978380Y-121538487D01*
X139905820Y-121560498D01*
X139795506Y-121619463D01*
X139698815Y-121698815D01*
X139619463Y-121795506D01*
X139560498Y-121905820D01*
X139524188Y-122025518D01*
X139511928Y-122150000D01*
X139511928Y-123317000D01*
X128778643Y-123317000D01*
X129031360Y-73279000D01*
X135196198Y-73279000D01*
X131278199Y-77197000D01*
G37*
X131278199Y-77197000D02*
X131152561Y-77197000D01*
X130952602Y-77236774D01*
X130764244Y-77314795D01*
X130594726Y-77428063D01*
X130450563Y-77572226D01*
X130337295Y-77741744D01*
X130259274Y-77930102D01*
X130219500Y-78130061D01*
X130219500Y-78333939D01*
X130259274Y-78533898D01*
X130337295Y-78722256D01*
X130450563Y-78891774D01*
X130494501Y-78935712D01*
X130494500Y-103531178D01*
X130490824Y-103568500D01*
X130494500Y-103605822D01*
X130494500Y-103605832D01*
X130505497Y-103717485D01*
X130544331Y-103845506D01*
X130548954Y-103860746D01*
X130619526Y-103992776D01*
X130659371Y-104041326D01*
X130714499Y-104108501D01*
X130743503Y-104132304D01*
X143677701Y-117066503D01*
X143701499Y-117095501D01*
X143730497Y-117119299D01*
X143817224Y-117190474D01*
X143949253Y-117261046D01*
X144092514Y-117304503D01*
X144241500Y-117319177D01*
X144278833Y-117315500D01*
X157494428Y-117315500D01*
X157494428Y-117330500D01*
X157506688Y-117454982D01*
X157542998Y-117574680D01*
X157601963Y-117684994D01*
X157681315Y-117781685D01*
X157778006Y-117861037D01*
X157888320Y-117920002D01*
X158008018Y-117956312D01*
X158132500Y-117968572D01*
X158732500Y-117968572D01*
X158856982Y-117956312D01*
X158976680Y-117920002D01*
X159067500Y-117871457D01*
X159158320Y-117920002D01*
X159278018Y-117956312D01*
X159301859Y-117958660D01*
X160539031Y-119195833D01*
X160373368Y-119306525D01*
X160166525Y-119513368D01*
X160050000Y-119687760D01*
X159933475Y-119513368D01*
X159726632Y-119306525D01*
X159483411Y-119144010D01*
X159213158Y-119032068D01*
X158926260Y-118975000D01*
X158633740Y-118975000D01*
X158346842Y-119032068D01*
X158076589Y-119144010D01*
X157833368Y-119306525D01*
X157626525Y-119513368D01*
X157504805Y-119695534D01*
X157435178Y-119578645D01*
X157240269Y-119362412D01*
X157006920Y-119188359D01*
X156744099Y-119063175D01*
X156596890Y-119018524D01*
X156367000Y-119139845D01*
X156367000Y-120333000D01*
X156387000Y-120333000D01*
X156387000Y-120587000D01*
X156367000Y-120587000D01*
X156367000Y-120607000D01*
X156113000Y-120607000D01*
X156113000Y-120587000D01*
X156093000Y-120587000D01*
X156093000Y-120333000D01*
X156113000Y-120333000D01*
X156113000Y-119139845D01*
X155883110Y-119018524D01*
X155735901Y-119063175D01*
X155473080Y-119188359D01*
X155239731Y-119362412D01*
X155044822Y-119578645D01*
X154975195Y-119695534D01*
X154853475Y-119513368D01*
X154646632Y-119306525D01*
X154403411Y-119144010D01*
X154133158Y-119032068D01*
X153846260Y-118975000D01*
X153553740Y-118975000D01*
X153266842Y-119032068D01*
X152996589Y-119144010D01*
X152753368Y-119306525D01*
X152546525Y-119513368D01*
X152430000Y-119687760D01*
X152313475Y-119513368D01*
X152106632Y-119306525D01*
X151863411Y-119144010D01*
X151593158Y-119032068D01*
X151306260Y-118975000D01*
X151013740Y-118975000D01*
X150726842Y-119032068D01*
X150456589Y-119144010D01*
X150213368Y-119306525D01*
X150006525Y-119513368D01*
X149890000Y-119687760D01*
X149773475Y-119513368D01*
X149566632Y-119306525D01*
X149323411Y-119144010D01*
X149053158Y-119032068D01*
X148766260Y-118975000D01*
X148473740Y-118975000D01*
X148186842Y-119032068D01*
X147916589Y-119144010D01*
X147673368Y-119306525D01*
X147466525Y-119513368D01*
X147344805Y-119695534D01*
X147275178Y-119578645D01*
X147080269Y-119362412D01*
X146846920Y-119188359D01*
X146584099Y-119063175D01*
X146436890Y-119018524D01*
X146207000Y-119139845D01*
X146207000Y-120333000D01*
X146227000Y-120333000D01*
X146227000Y-120587000D01*
X146207000Y-120587000D01*
X146207000Y-120607000D01*
X145953000Y-120607000D01*
X145953000Y-120587000D01*
X145933000Y-120587000D01*
X145933000Y-120333000D01*
X145953000Y-120333000D01*
X145953000Y-119139845D01*
X145723110Y-119018524D01*
X145575901Y-119063175D01*
X145313080Y-119188359D01*
X145079731Y-119362412D01*
X144884822Y-119578645D01*
X144815195Y-119695534D01*
X144693475Y-119513368D01*
X144486632Y-119306525D01*
X144243411Y-119144010D01*
X143973158Y-119032068D01*
X143686260Y-118975000D01*
X143393740Y-118975000D01*
X143106842Y-119032068D01*
X142836589Y-119144010D01*
X142593368Y-119306525D01*
X142386525Y-119513368D01*
X142270000Y-119687760D01*
X142153475Y-119513368D01*
X141946632Y-119306525D01*
X141703411Y-119144010D01*
X141433158Y-119032068D01*
X141146260Y-118975000D01*
X140853740Y-118975000D01*
X140566842Y-119032068D01*
X140296589Y-119144010D01*
X140053368Y-119306525D01*
X139846525Y-119513368D01*
X139684010Y-119756589D01*
X139572068Y-120026842D01*
X139515000Y-120313740D01*
X139515000Y-120606260D01*
X139572068Y-120893158D01*
X139684010Y-121163411D01*
X139846525Y-121406632D01*
X139978380Y-121538487D01*
X139905820Y-121560498D01*
X139795506Y-121619463D01*
X139698815Y-121698815D01*
X139619463Y-121795506D01*
X139560498Y-121905820D01*
X139524188Y-122025518D01*
X139511928Y-122150000D01*
X139511928Y-123317000D01*
X128778643Y-123317000D01*
X129031360Y-73279000D01*
X135196198Y-73279000D01*
X131278199Y-77197000D01*
G36*
X197993000Y-123317000D02*
G01*
X183091037Y-123317000D01*
X183125000Y-123146260D01*
X183125000Y-122853740D01*
X183067932Y-122566842D01*
X182955990Y-122296589D01*
X182793475Y-122053368D01*
X182586632Y-121846525D01*
X182410594Y-121728900D01*
X182640269Y-121557588D01*
X182835178Y-121341355D01*
X182984157Y-121091252D01*
X183081481Y-120816891D01*
X182960814Y-120587000D01*
X181767000Y-120587000D01*
X181767000Y-120607000D01*
X181513000Y-120607000D01*
X181513000Y-120587000D01*
X181493000Y-120587000D01*
X181493000Y-120333000D01*
X181513000Y-120333000D01*
X181513000Y-119139845D01*
X181767000Y-119139845D01*
X181767000Y-120333000D01*
X182960814Y-120333000D01*
X183081481Y-120103109D01*
X182984157Y-119828748D01*
X182835178Y-119578645D01*
X182640269Y-119362412D01*
X182406920Y-119188359D01*
X182144099Y-119063175D01*
X181996890Y-119018524D01*
X181767000Y-119139845D01*
X181513000Y-119139845D01*
X181283110Y-119018524D01*
X181135901Y-119063175D01*
X180873080Y-119188359D01*
X180639731Y-119362412D01*
X180444822Y-119578645D01*
X180375195Y-119695534D01*
X180253475Y-119513368D01*
X180046632Y-119306525D01*
X179803411Y-119144010D01*
X179533158Y-119032068D01*
X179246260Y-118975000D01*
X178953740Y-118975000D01*
X178666842Y-119032068D01*
X178396589Y-119144010D01*
X178153368Y-119306525D01*
X177946525Y-119513368D01*
X177830000Y-119687760D01*
X177713475Y-119513368D01*
X177506632Y-119306525D01*
X177263411Y-119144010D01*
X176993158Y-119032068D01*
X176706260Y-118975000D01*
X176413740Y-118975000D01*
X176126842Y-119032068D01*
X175856589Y-119144010D01*
X175613368Y-119306525D01*
X175406525Y-119513368D01*
X175290000Y-119687760D01*
X175173475Y-119513368D01*
X174966632Y-119306525D01*
X174723411Y-119144010D01*
X174453158Y-119032068D01*
X174166260Y-118975000D01*
X173873740Y-118975000D01*
X173586842Y-119032068D01*
X173316589Y-119144010D01*
X173073368Y-119306525D01*
X172866525Y-119513368D01*
X172750000Y-119687760D01*
X172633475Y-119513368D01*
X172426632Y-119306525D01*
X172183411Y-119144010D01*
X171913158Y-119032068D01*
X171626260Y-118975000D01*
X171333740Y-118975000D01*
X171046842Y-119032068D01*
X170851270Y-119113076D01*
X170783501Y-119030499D01*
X170754504Y-119006702D01*
X169473804Y-117726003D01*
X169450001Y-117696999D01*
X169334276Y-117602026D01*
X169202247Y-117531454D01*
X169058986Y-117487997D01*
X168947333Y-117477000D01*
X168947322Y-117477000D01*
X168910000Y-117473324D01*
X168872678Y-117477000D01*
X163161633Y-117477000D01*
X163168312Y-117454982D01*
X163180572Y-117330500D01*
X163177500Y-116841250D01*
X163160250Y-116824000D01*
X179511428Y-116824000D01*
X179523688Y-116948482D01*
X179559998Y-117068180D01*
X179618963Y-117178494D01*
X179698315Y-117275185D01*
X179795006Y-117354537D01*
X179905320Y-117413502D01*
X180025018Y-117449812D01*
X180149500Y-117462072D01*
X180816250Y-117459000D01*
X180975000Y-117300250D01*
X180975000Y-115951000D01*
X179673250Y-115951000D01*
X179514500Y-116109750D01*
X179511428Y-116824000D01*
X163160250Y-116824000D01*
X163018750Y-116682500D01*
X162369500Y-116682500D01*
X162369500Y-116702500D01*
X162115500Y-116702500D01*
X162115500Y-116682500D01*
X162095500Y-116682500D01*
X162095500Y-116428500D01*
X162115500Y-116428500D01*
X162115500Y-115304250D01*
X162369500Y-115304250D01*
X162369500Y-116428500D01*
X163018750Y-116428500D01*
X163177500Y-116269750D01*
X163180572Y-115780500D01*
X163168312Y-115656018D01*
X163132002Y-115536320D01*
X163073037Y-115426006D01*
X162993685Y-115329315D01*
X162896994Y-115249963D01*
X162786680Y-115190998D01*
X162666982Y-115154688D01*
X162542500Y-115142428D01*
X162528250Y-115145500D01*
X162369500Y-115304250D01*
X162115500Y-115304250D01*
X161956750Y-115145500D01*
X161942500Y-115142428D01*
X161818018Y-115154688D01*
X161698320Y-115190998D01*
X161607500Y-115239543D01*
X161516680Y-115190998D01*
X161396982Y-115154688D01*
X161272500Y-115142428D01*
X160672500Y-115142428D01*
X160548018Y-115154688D01*
X160428320Y-115190998D01*
X160337500Y-115239543D01*
X160246680Y-115190998D01*
X160126982Y-115154688D01*
X160002500Y-115142428D01*
X159402500Y-115142428D01*
X159278018Y-115154688D01*
X159158320Y-115190998D01*
X159067500Y-115239543D01*
X158976680Y-115190998D01*
X158856982Y-115154688D01*
X158732500Y-115142428D01*
X158132500Y-115142428D01*
X158008018Y-115154688D01*
X157888320Y-115190998D01*
X157778006Y-115249963D01*
X157681315Y-115329315D01*
X157601963Y-115426006D01*
X157542998Y-115536320D01*
X157506688Y-115656018D01*
X157494428Y-115780500D01*
X157494428Y-115795500D01*
X144556302Y-115795500D01*
X143260802Y-114500000D01*
X151861928Y-114500000D01*
X151874188Y-114624482D01*
X151910498Y-114744180D01*
X151969463Y-114854494D01*
X152048815Y-114951185D01*
X152145506Y-115030537D01*
X152255820Y-115089502D01*
X152375518Y-115125812D01*
X152500000Y-115138072D01*
X152714250Y-115135000D01*
X152873000Y-114976250D01*
X152873000Y-114127000D01*
X153127000Y-114127000D01*
X153127000Y-114976250D01*
X153285750Y-115135000D01*
X153500000Y-115138072D01*
X153624482Y-115125812D01*
X153744180Y-115089502D01*
X153854494Y-115030537D01*
X153951185Y-114951185D01*
X154030537Y-114854494D01*
X154089502Y-114744180D01*
X154125812Y-114624482D01*
X154138072Y-114500000D01*
X154135000Y-114285750D01*
X153976250Y-114127000D01*
X153127000Y-114127000D01*
X152873000Y-114127000D01*
X152023750Y-114127000D01*
X151865000Y-114285750D01*
X151861928Y-114500000D01*
X143260802Y-114500000D01*
X142260802Y-113500000D01*
X151861928Y-113500000D01*
X151865000Y-113714250D01*
X152023750Y-113873000D01*
X152873000Y-113873000D01*
X152873000Y-113023750D01*
X152714250Y-112865000D01*
X152500000Y-112861928D01*
X152375518Y-112874188D01*
X152255820Y-112910498D01*
X152145506Y-112969463D01*
X152048815Y-113048815D01*
X151969463Y-113145506D01*
X151910498Y-113255820D01*
X151874188Y-113375518D01*
X151861928Y-113500000D01*
X142260802Y-113500000D01*
X139345803Y-110585001D01*
X139635421Y-110585001D01*
X139638617Y-110601067D01*
X139724176Y-110807624D01*
X139848388Y-110993520D01*
X140006480Y-111151612D01*
X140192376Y-111275824D01*
X140398933Y-111361383D01*
X140618212Y-111405000D01*
X140841788Y-111405000D01*
X141061067Y-111361383D01*
X141267624Y-111275824D01*
X141453520Y-111151612D01*
X141611612Y-110993520D01*
X141735824Y-110807624D01*
X141821383Y-110601067D01*
X141865000Y-110381788D01*
X141865000Y-110158212D01*
X141860994Y-110138072D01*
X142500000Y-110138072D01*
X142624482Y-110125812D01*
X142744180Y-110089502D01*
X142854494Y-110030537D01*
X142951185Y-109951185D01*
X143030537Y-109854494D01*
X143089502Y-109744180D01*
X143125812Y-109624482D01*
X143138072Y-109500000D01*
X143138072Y-108500000D01*
X143125812Y-108375518D01*
X143089502Y-108255820D01*
X143030537Y-108145506D01*
X142951185Y-108048815D01*
X142854494Y-107969463D01*
X142744180Y-107910498D01*
X142624482Y-107874188D01*
X142500000Y-107861928D01*
X141800001Y-107861928D01*
X141800001Y-102105519D01*
X141871067Y-102091383D01*
X142077624Y-102005824D01*
X142263520Y-101881612D01*
X142421612Y-101723520D01*
X142545824Y-101537624D01*
X142593889Y-101421585D01*
X153304432Y-112132128D01*
X153264176Y-112192376D01*
X153178617Y-112398933D01*
X153135000Y-112618212D01*
X153135000Y-112841788D01*
X153163862Y-112986888D01*
X153127000Y-113023750D01*
X153127000Y-113873000D01*
X153976250Y-113873000D01*
X154013112Y-113836138D01*
X154158212Y-113865000D01*
X154381788Y-113865000D01*
X154410764Y-113859236D01*
X154405000Y-113888212D01*
X154405000Y-114111788D01*
X154448617Y-114331067D01*
X154534176Y-114537624D01*
X154658388Y-114723520D01*
X154816480Y-114881612D01*
X155002376Y-115005824D01*
X155208933Y-115091383D01*
X155428212Y-115135000D01*
X155651788Y-115135000D01*
X155871067Y-115091383D01*
X156077624Y-115005824D01*
X156263520Y-114881612D01*
X156421612Y-114723520D01*
X156545824Y-114537624D01*
X156631383Y-114331067D01*
X156675000Y-114111788D01*
X156675000Y-113888212D01*
X156631383Y-113668933D01*
X156545824Y-113462376D01*
X156421612Y-113276480D01*
X156263520Y-113118388D01*
X156077624Y-112994176D01*
X155871067Y-112908617D01*
X155651788Y-112865000D01*
X155428212Y-112865000D01*
X155399236Y-112870764D01*
X155405000Y-112841788D01*
X155405000Y-112618212D01*
X155361383Y-112398933D01*
X155275824Y-112192376D01*
X155151612Y-112006480D01*
X155018987Y-111873855D01*
X154975546Y-111730647D01*
X154953553Y-111689502D01*
X154904974Y-111598617D01*
X154833799Y-111511891D01*
X154810001Y-111482893D01*
X154781004Y-111459096D01*
X135560910Y-92239003D01*
X135537107Y-92209999D01*
X135421382Y-92115026D01*
X135289353Y-92044454D01*
X135146092Y-92000997D01*
X135034439Y-91990000D01*
X135034428Y-91990000D01*
X134997106Y-91986324D01*
X134959784Y-91990000D01*
X133853889Y-91990000D01*
X133901185Y-91951185D01*
X133980537Y-91854494D01*
X134039502Y-91744180D01*
X134075812Y-91624482D01*
X134088072Y-91500000D01*
X134088072Y-91000000D01*
X134075812Y-90875518D01*
X134039502Y-90755820D01*
X133980537Y-90645506D01*
X133901185Y-90548815D01*
X133804494Y-90469463D01*
X133760000Y-90445680D01*
X133760000Y-82294801D01*
X135656114Y-80398688D01*
X135838665Y-80435000D01*
X136121335Y-80435000D01*
X136398574Y-80379853D01*
X136659727Y-80271680D01*
X136894759Y-80114637D01*
X137094637Y-79914759D01*
X137250000Y-79682241D01*
X137405363Y-79914759D01*
X137605241Y-80114637D01*
X137840273Y-80271680D01*
X138101426Y-80379853D01*
X138378665Y-80435000D01*
X138661335Y-80435000D01*
X138938574Y-80379853D01*
X139174999Y-80281922D01*
X139175000Y-82350198D01*
X136303887Y-85221312D01*
X136121335Y-85185000D01*
X135838665Y-85185000D01*
X135561426Y-85240147D01*
X135300273Y-85348320D01*
X135065241Y-85505363D01*
X134865363Y-85705241D01*
X134708320Y-85940273D01*
X134600147Y-86201426D01*
X134545000Y-86478665D01*
X134545000Y-86761335D01*
X134600147Y-87038574D01*
X134708320Y-87299727D01*
X134865363Y-87534759D01*
X135065241Y-87734637D01*
X135300273Y-87891680D01*
X135561426Y-87999853D01*
X135838665Y-88055000D01*
X136121335Y-88055000D01*
X136398574Y-87999853D01*
X136659727Y-87891680D01*
X136894759Y-87734637D01*
X137094637Y-87534759D01*
X137250000Y-87302241D01*
X137405363Y-87534759D01*
X137605241Y-87734637D01*
X137840273Y-87891680D01*
X138101426Y-87999853D01*
X138378665Y-88055000D01*
X138661335Y-88055000D01*
X138938574Y-87999853D01*
X139199727Y-87891680D01*
X139434759Y-87734637D01*
X139634637Y-87534759D01*
X139790000Y-87302241D01*
X139945363Y-87534759D01*
X140145241Y-87734637D01*
X140380273Y-87891680D01*
X140641426Y-87999853D01*
X140918665Y-88055000D01*
X141201335Y-88055000D01*
X141478574Y-87999853D01*
X141739727Y-87891680D01*
X141974759Y-87734637D01*
X142174637Y-87534759D01*
X142330000Y-87302241D01*
X142485363Y-87534759D01*
X142685241Y-87734637D01*
X142840001Y-87838044D01*
X142840000Y-93334177D01*
X142836324Y-93371500D01*
X142840000Y-93408822D01*
X142840000Y-93408832D01*
X142850997Y-93520485D01*
X142871933Y-93589502D01*
X142894454Y-93663746D01*
X142965026Y-93795776D01*
X143004871Y-93844326D01*
X143059999Y-93911501D01*
X143089003Y-93935304D01*
X158930769Y-109777071D01*
X158856982Y-109754688D01*
X158732500Y-109742428D01*
X158132500Y-109742428D01*
X158008018Y-109754688D01*
X157888320Y-109790998D01*
X157778006Y-109849963D01*
X157681315Y-109929315D01*
X157601963Y-110026006D01*
X157542998Y-110136320D01*
X157506688Y-110256018D01*
X157494428Y-110380500D01*
X157494428Y-111930500D01*
X157506688Y-112054982D01*
X157542998Y-112174680D01*
X157601963Y-112284994D01*
X157681315Y-112381685D01*
X157721257Y-112414464D01*
X157726954Y-112433246D01*
X157797526Y-112565276D01*
X157840970Y-112618212D01*
X157892500Y-112681001D01*
X157921498Y-112704799D01*
X159837205Y-114620508D01*
X159860999Y-114649501D01*
X159889992Y-114673295D01*
X159889996Y-114673299D01*
X159924022Y-114701223D01*
X159976724Y-114744474D01*
X160108753Y-114815046D01*
X160252014Y-114858503D01*
X160363667Y-114869500D01*
X160363676Y-114869500D01*
X160400999Y-114873176D01*
X160438322Y-114869500D01*
X167637329Y-114869500D01*
X167615500Y-114979240D01*
X167615500Y-115271760D01*
X167672568Y-115558658D01*
X167784510Y-115828911D01*
X167947025Y-116072132D01*
X168153868Y-116278975D01*
X168397089Y-116441490D01*
X168667342Y-116553432D01*
X168954240Y-116610500D01*
X169246760Y-116610500D01*
X169533658Y-116553432D01*
X169803911Y-116441490D01*
X170047132Y-116278975D01*
X170178987Y-116147120D01*
X170200998Y-116219680D01*
X170259963Y-116329994D01*
X170339315Y-116426685D01*
X170436006Y-116506037D01*
X170546320Y-116565002D01*
X170666018Y-116601312D01*
X170790500Y-116613572D01*
X172490500Y-116613572D01*
X172614982Y-116601312D01*
X172734680Y-116565002D01*
X172844994Y-116506037D01*
X172941685Y-116426685D01*
X173021037Y-116329994D01*
X173080002Y-116219680D01*
X173116312Y-116099982D01*
X173128572Y-115975500D01*
X173128572Y-114824000D01*
X179511428Y-114824000D01*
X179514500Y-115538250D01*
X179673250Y-115697000D01*
X180975000Y-115697000D01*
X180975000Y-114347750D01*
X180816250Y-114189000D01*
X180149500Y-114185928D01*
X180025018Y-114198188D01*
X179905320Y-114234498D01*
X179795006Y-114293463D01*
X179698315Y-114372815D01*
X179618963Y-114469506D01*
X179559998Y-114579820D01*
X179523688Y-114699518D01*
X179511428Y-114824000D01*
X173128572Y-114824000D01*
X173128572Y-114275500D01*
X173116312Y-114151018D01*
X173080002Y-114031320D01*
X173021037Y-113921006D01*
X172941685Y-113824315D01*
X172844994Y-113744963D01*
X172734680Y-113685998D01*
X172614982Y-113649688D01*
X172490500Y-113637428D01*
X170790500Y-113637428D01*
X170666018Y-113649688D01*
X170546320Y-113685998D01*
X170436006Y-113744963D01*
X170339315Y-113824315D01*
X170259963Y-113921006D01*
X170200998Y-114031320D01*
X170178987Y-114103880D01*
X170047132Y-113972025D01*
X169803911Y-113809510D01*
X169533658Y-113697568D01*
X169246760Y-113640500D01*
X168954240Y-113640500D01*
X168734092Y-113684291D01*
X168648304Y-113598502D01*
X168624501Y-113569499D01*
X168508776Y-113474526D01*
X168376747Y-113403954D01*
X168233486Y-113360497D01*
X168121833Y-113349500D01*
X168121822Y-113349500D01*
X168084500Y-113345824D01*
X168047178Y-113349500D01*
X160715803Y-113349500D01*
X159934874Y-112568572D01*
X160002500Y-112568572D01*
X160126982Y-112556312D01*
X160246680Y-112520002D01*
X160337500Y-112471457D01*
X160428320Y-112520002D01*
X160548018Y-112556312D01*
X160672500Y-112568572D01*
X161272500Y-112568572D01*
X161396982Y-112556312D01*
X161516680Y-112520002D01*
X161607500Y-112471457D01*
X161698320Y-112520002D01*
X161818018Y-112556312D01*
X161942500Y-112568572D01*
X161956750Y-112565500D01*
X162115500Y-112406750D01*
X162115500Y-111282500D01*
X162369500Y-111282500D01*
X162369500Y-112406750D01*
X162528250Y-112565500D01*
X162542500Y-112568572D01*
X162666982Y-112556312D01*
X162786680Y-112520002D01*
X162896994Y-112461037D01*
X162993685Y-112381685D01*
X163073037Y-112284994D01*
X163132002Y-112174680D01*
X163168312Y-112054982D01*
X163180572Y-111930500D01*
X163177500Y-111441250D01*
X163018750Y-111282500D01*
X162369500Y-111282500D01*
X162115500Y-111282500D01*
X162095500Y-111282500D01*
X162095500Y-111028500D01*
X162115500Y-111028500D01*
X162115500Y-109904250D01*
X162369500Y-109904250D01*
X162369500Y-111028500D01*
X163018750Y-111028500D01*
X163177500Y-110869750D01*
X163180572Y-110380500D01*
X163168312Y-110256018D01*
X163132002Y-110136320D01*
X163073037Y-110026006D01*
X162993685Y-109929315D01*
X162896994Y-109849963D01*
X162786680Y-109790998D01*
X162666982Y-109754688D01*
X162542500Y-109742428D01*
X162528250Y-109745500D01*
X162369500Y-109904250D01*
X162115500Y-109904250D01*
X161956750Y-109745500D01*
X161942500Y-109742428D01*
X161818018Y-109754688D01*
X161732500Y-109780630D01*
X161732500Y-108812822D01*
X161736176Y-108775499D01*
X161732500Y-108738176D01*
X161732500Y-108738167D01*
X161721503Y-108626514D01*
X161678046Y-108483253D01*
X161607474Y-108351224D01*
X161549463Y-108280537D01*
X161536299Y-108264496D01*
X161536295Y-108264492D01*
X161512501Y-108235499D01*
X161483508Y-108211705D01*
X155400028Y-102128226D01*
X155500000Y-102138072D01*
X155714250Y-102135000D01*
X155873000Y-101976250D01*
X155873000Y-101127000D01*
X156127000Y-101127000D01*
X156127000Y-101976250D01*
X156285750Y-102135000D01*
X156500000Y-102138072D01*
X156624482Y-102125812D01*
X156744180Y-102089502D01*
X156854494Y-102030537D01*
X156951185Y-101951185D01*
X157030537Y-101854494D01*
X157089502Y-101744180D01*
X157125812Y-101624482D01*
X157138072Y-101500000D01*
X157135000Y-101285750D01*
X156976250Y-101127000D01*
X156127000Y-101127000D01*
X155873000Y-101127000D01*
X155023750Y-101127000D01*
X154865000Y-101285750D01*
X154861928Y-101500000D01*
X154871774Y-101599972D01*
X153771802Y-100500000D01*
X154861928Y-100500000D01*
X154865000Y-100714250D01*
X155023750Y-100873000D01*
X155873000Y-100873000D01*
X155873000Y-100023750D01*
X156127000Y-100023750D01*
X156127000Y-100873000D01*
X156976250Y-100873000D01*
X157013112Y-100836138D01*
X157158212Y-100865000D01*
X157381788Y-100865000D01*
X157410764Y-100859236D01*
X157405000Y-100888212D01*
X157405000Y-101111788D01*
X157448617Y-101331067D01*
X157534176Y-101537624D01*
X157658388Y-101723520D01*
X157816480Y-101881612D01*
X158002376Y-102005824D01*
X158208933Y-102091383D01*
X158428212Y-102135000D01*
X158651788Y-102135000D01*
X158871067Y-102091383D01*
X159077624Y-102005824D01*
X159263520Y-101881612D01*
X159421612Y-101723520D01*
X159545824Y-101537624D01*
X159631383Y-101331067D01*
X159675000Y-101111788D01*
X159675000Y-100888212D01*
X159631383Y-100668933D01*
X159545824Y-100462376D01*
X159421612Y-100276480D01*
X159263520Y-100118388D01*
X159077624Y-99994176D01*
X158871067Y-99908617D01*
X158651788Y-99865000D01*
X158428212Y-99865000D01*
X158399236Y-99870764D01*
X158405000Y-99841788D01*
X158405000Y-99618212D01*
X158361383Y-99398933D01*
X158275824Y-99192376D01*
X158151612Y-99006480D01*
X157993520Y-98848388D01*
X157807624Y-98724176D01*
X157601067Y-98638617D01*
X157381788Y-98595000D01*
X157158212Y-98595000D01*
X156938933Y-98638617D01*
X156732376Y-98724176D01*
X156546480Y-98848388D01*
X156388388Y-99006480D01*
X156264176Y-99192376D01*
X156178617Y-99398933D01*
X156135000Y-99618212D01*
X156135000Y-99841788D01*
X156163862Y-99986888D01*
X156127000Y-100023750D01*
X155873000Y-100023750D01*
X155714250Y-99865000D01*
X155500000Y-99861928D01*
X155375518Y-99874188D01*
X155255820Y-99910498D01*
X155145506Y-99969463D01*
X155048815Y-100048815D01*
X154969463Y-100145506D01*
X154910498Y-100255820D01*
X154874188Y-100375518D01*
X154861928Y-100500000D01*
X153771802Y-100500000D01*
X146771802Y-93500000D01*
X154861928Y-93500000D01*
X154874188Y-93624482D01*
X154910498Y-93744180D01*
X154969463Y-93854494D01*
X155048815Y-93951185D01*
X155145506Y-94030537D01*
X155255820Y-94089502D01*
X155375518Y-94125812D01*
X155500000Y-94138072D01*
X155714250Y-94135000D01*
X155873000Y-93976250D01*
X155873000Y-93127000D01*
X156127000Y-93127000D01*
X156127000Y-93976250D01*
X156285750Y-94135000D01*
X156500000Y-94138072D01*
X156624482Y-94125812D01*
X156744180Y-94089502D01*
X156854494Y-94030537D01*
X156951185Y-93951185D01*
X157030537Y-93854494D01*
X157089502Y-93744180D01*
X157125812Y-93624482D01*
X157138072Y-93500000D01*
X157135000Y-93285750D01*
X156976250Y-93127000D01*
X156127000Y-93127000D01*
X155873000Y-93127000D01*
X155023750Y-93127000D01*
X154865000Y-93285750D01*
X154861928Y-93500000D01*
X146771802Y-93500000D01*
X145771802Y-92500000D01*
X154861928Y-92500000D01*
X154865000Y-92714250D01*
X155023750Y-92873000D01*
X155873000Y-92873000D01*
X155873000Y-92023750D01*
X156127000Y-92023750D01*
X156127000Y-92873000D01*
X156976250Y-92873000D01*
X157013112Y-92836138D01*
X157158212Y-92865000D01*
X157381788Y-92865000D01*
X157410764Y-92859236D01*
X157405000Y-92888212D01*
X157405000Y-93111788D01*
X157448617Y-93331067D01*
X157534176Y-93537624D01*
X157658388Y-93723520D01*
X157816480Y-93881612D01*
X158002376Y-94005824D01*
X158208933Y-94091383D01*
X158428212Y-94135000D01*
X158651788Y-94135000D01*
X158871067Y-94091383D01*
X159077624Y-94005824D01*
X159263520Y-93881612D01*
X159421612Y-93723520D01*
X159545824Y-93537624D01*
X159631383Y-93331067D01*
X159675000Y-93111788D01*
X159675000Y-92888212D01*
X159631383Y-92668933D01*
X159545824Y-92462376D01*
X159421612Y-92276480D01*
X159263520Y-92118388D01*
X159077624Y-91994176D01*
X158871067Y-91908617D01*
X158651788Y-91865000D01*
X158428212Y-91865000D01*
X158399236Y-91870764D01*
X158405000Y-91841788D01*
X158405000Y-91618212D01*
X158361383Y-91398933D01*
X158275824Y-91192376D01*
X158151612Y-91006480D01*
X157993520Y-90848388D01*
X157807624Y-90724176D01*
X157601067Y-90638617D01*
X157381788Y-90595000D01*
X157158212Y-90595000D01*
X156938933Y-90638617D01*
X156732376Y-90724176D01*
X156546480Y-90848388D01*
X156388388Y-91006480D01*
X156264176Y-91192376D01*
X156178617Y-91398933D01*
X156135000Y-91618212D01*
X156135000Y-91841788D01*
X156163862Y-91986888D01*
X156127000Y-92023750D01*
X155873000Y-92023750D01*
X155714250Y-91865000D01*
X155500000Y-91861928D01*
X155375518Y-91874188D01*
X155255820Y-91910498D01*
X155145506Y-91969463D01*
X155048815Y-92048815D01*
X154969463Y-92145506D01*
X154910498Y-92255820D01*
X154874188Y-92375518D01*
X154861928Y-92500000D01*
X145771802Y-92500000D01*
X145730500Y-92458699D01*
X145730500Y-87993566D01*
X145790961Y-88011904D01*
X146013000Y-87889915D01*
X146013000Y-86747000D01*
X145993000Y-86747000D01*
X145993000Y-86493000D01*
X146013000Y-86493000D01*
X146013000Y-85350085D01*
X145790961Y-85228096D01*
X145656913Y-85268754D01*
X145600946Y-85295206D01*
X145534299Y-85213997D01*
X145510501Y-85184999D01*
X145481502Y-85161200D01*
X144962803Y-84642502D01*
X144939001Y-84613499D01*
X144823276Y-84518526D01*
X144691247Y-84447954D01*
X144547986Y-84404497D01*
X144436333Y-84393500D01*
X144436322Y-84393500D01*
X144399000Y-84389824D01*
X144361678Y-84393500D01*
X142563822Y-84393500D01*
X142526499Y-84389824D01*
X142489176Y-84393500D01*
X142489167Y-84393500D01*
X142377514Y-84404497D01*
X142234253Y-84447954D01*
X142102224Y-84518526D01*
X141986499Y-84613499D01*
X141962701Y-84642497D01*
X141383886Y-85221312D01*
X141201335Y-85185000D01*
X140918665Y-85185000D01*
X140641426Y-85240147D01*
X140380273Y-85348320D01*
X140145241Y-85505363D01*
X139945363Y-85705241D01*
X139790000Y-85937759D01*
X139634637Y-85705241D01*
X139434759Y-85505363D01*
X139199727Y-85348320D01*
X138938574Y-85240147D01*
X138661335Y-85185000D01*
X138489801Y-85185000D01*
X140446002Y-83228800D01*
X140475000Y-83205002D01*
X140569973Y-83089277D01*
X140640545Y-82957248D01*
X140684002Y-82813987D01*
X140694999Y-82702334D01*
X140694999Y-82702326D01*
X140698675Y-82665001D01*
X140694999Y-82627676D01*
X140694999Y-80390509D01*
X140918665Y-80435000D01*
X141201335Y-80435000D01*
X141383887Y-80398688D01*
X146311071Y-85325872D01*
X146267000Y-85350085D01*
X146267000Y-86493000D01*
X146287000Y-86493000D01*
X146287000Y-86747000D01*
X146267000Y-86747000D01*
X146267000Y-87889915D01*
X146489039Y-88011904D01*
X146505001Y-88007063D01*
X146505001Y-88227678D01*
X146501325Y-88265001D01*
X146505001Y-88302323D01*
X146505001Y-88302333D01*
X146515998Y-88413986D01*
X146559455Y-88557247D01*
X146630027Y-88689277D01*
X146669872Y-88737827D01*
X146725000Y-88805002D01*
X146754004Y-88828805D01*
X147965000Y-90039802D01*
X147965000Y-90101939D01*
X148004774Y-90301898D01*
X148082795Y-90490256D01*
X148196063Y-90659774D01*
X148340226Y-90803937D01*
X148509744Y-90917205D01*
X148698102Y-90995226D01*
X148898061Y-91035000D01*
X149101939Y-91035000D01*
X149301898Y-90995226D01*
X149490256Y-90917205D01*
X149659774Y-90803937D01*
X149803937Y-90659774D01*
X149917205Y-90490256D01*
X149995226Y-90301898D01*
X150035000Y-90101939D01*
X150035000Y-89898061D01*
X149995226Y-89698102D01*
X149917205Y-89509744D01*
X149803937Y-89340226D01*
X149659774Y-89196063D01*
X149490256Y-89082795D01*
X149301898Y-89004774D01*
X149101939Y-88965000D01*
X149039802Y-88965000D01*
X148025001Y-87950200D01*
X148025001Y-87901923D01*
X148261426Y-87999853D01*
X148538665Y-88055000D01*
X148821335Y-88055000D01*
X149098574Y-87999853D01*
X149359727Y-87891680D01*
X149594759Y-87734637D01*
X149794637Y-87534759D01*
X149950000Y-87302241D01*
X150105363Y-87534759D01*
X150305241Y-87734637D01*
X150540273Y-87891680D01*
X150801426Y-87999853D01*
X151078665Y-88055000D01*
X151361335Y-88055000D01*
X151638574Y-87999853D01*
X151899727Y-87891680D01*
X152134759Y-87734637D01*
X152334637Y-87534759D01*
X152490000Y-87302241D01*
X152645363Y-87534759D01*
X152845241Y-87734637D01*
X153080273Y-87891680D01*
X153341426Y-87999853D01*
X153618665Y-88055000D01*
X153901335Y-88055000D01*
X154178574Y-87999853D01*
X154439727Y-87891680D01*
X154674759Y-87734637D01*
X154874637Y-87534759D01*
X155030000Y-87302241D01*
X155185363Y-87534759D01*
X155385241Y-87734637D01*
X155620273Y-87891680D01*
X155881426Y-87999853D01*
X156158665Y-88055000D01*
X156441335Y-88055000D01*
X156718574Y-87999853D01*
X156979727Y-87891680D01*
X157214759Y-87734637D01*
X157414637Y-87534759D01*
X157570000Y-87302241D01*
X157725363Y-87534759D01*
X157925241Y-87734637D01*
X158160273Y-87891680D01*
X158421426Y-87999853D01*
X158698665Y-88055000D01*
X158981335Y-88055000D01*
X159258574Y-87999853D01*
X159519727Y-87891680D01*
X159754759Y-87734637D01*
X159954637Y-87534759D01*
X160110000Y-87302241D01*
X160265363Y-87534759D01*
X160465241Y-87734637D01*
X160700273Y-87891680D01*
X160961426Y-87999853D01*
X161238665Y-88055000D01*
X161521335Y-88055000D01*
X161798574Y-87999853D01*
X162059727Y-87891680D01*
X162294759Y-87734637D01*
X162494637Y-87534759D01*
X162650000Y-87302241D01*
X162805363Y-87534759D01*
X163005241Y-87734637D01*
X163240273Y-87891680D01*
X163501426Y-87999853D01*
X163778665Y-88055000D01*
X164061335Y-88055000D01*
X164338574Y-87999853D01*
X164599727Y-87891680D01*
X164834759Y-87734637D01*
X165034637Y-87534759D01*
X165190000Y-87302241D01*
X165345363Y-87534759D01*
X165545241Y-87734637D01*
X165780273Y-87891680D01*
X166041426Y-87999853D01*
X166318665Y-88055000D01*
X166601335Y-88055000D01*
X166878574Y-87999853D01*
X167139727Y-87891680D01*
X167374759Y-87734637D01*
X167574637Y-87534759D01*
X167730000Y-87302241D01*
X167885363Y-87534759D01*
X168085241Y-87734637D01*
X168320273Y-87891680D01*
X168581426Y-87999853D01*
X168858665Y-88055000D01*
X169141335Y-88055000D01*
X169418574Y-87999853D01*
X169679727Y-87891680D01*
X169914759Y-87734637D01*
X170114637Y-87534759D01*
X170271680Y-87299727D01*
X170379853Y-87038574D01*
X170435000Y-86761335D01*
X170435000Y-86478665D01*
X170379853Y-86201426D01*
X170271680Y-85940273D01*
X170114637Y-85705241D01*
X169914759Y-85505363D01*
X169679727Y-85348320D01*
X169418574Y-85240147D01*
X169141335Y-85185000D01*
X168858665Y-85185000D01*
X168581426Y-85240147D01*
X168320273Y-85348320D01*
X168085241Y-85505363D01*
X167885363Y-85705241D01*
X167730000Y-85937759D01*
X167574637Y-85705241D01*
X167374759Y-85505363D01*
X167139727Y-85348320D01*
X166878574Y-85240147D01*
X166601335Y-85185000D01*
X166318665Y-85185000D01*
X166041426Y-85240147D01*
X165780273Y-85348320D01*
X165545241Y-85505363D01*
X165345363Y-85705241D01*
X165190000Y-85937759D01*
X165034637Y-85705241D01*
X164834759Y-85505363D01*
X164599727Y-85348320D01*
X164338574Y-85240147D01*
X164061335Y-85185000D01*
X163778665Y-85185000D01*
X163501426Y-85240147D01*
X163240273Y-85348320D01*
X163005241Y-85505363D01*
X162805363Y-85705241D01*
X162650000Y-85937759D01*
X162494637Y-85705241D01*
X162294759Y-85505363D01*
X162059727Y-85348320D01*
X161798574Y-85240147D01*
X161521335Y-85185000D01*
X161238665Y-85185000D01*
X160961426Y-85240147D01*
X160700273Y-85348320D01*
X160465241Y-85505363D01*
X160265363Y-85705241D01*
X160110000Y-85937759D01*
X159954637Y-85705241D01*
X159754759Y-85505363D01*
X159519727Y-85348320D01*
X159258574Y-85240147D01*
X158981335Y-85185000D01*
X158698665Y-85185000D01*
X158421426Y-85240147D01*
X158160273Y-85348320D01*
X157925241Y-85505363D01*
X157725363Y-85705241D01*
X157570000Y-85937759D01*
X157414637Y-85705241D01*
X157214759Y-85505363D01*
X156979727Y-85348320D01*
X156718574Y-85240147D01*
X156441335Y-85185000D01*
X156158665Y-85185000D01*
X155881426Y-85240147D01*
X155620273Y-85348320D01*
X155385241Y-85505363D01*
X155185363Y-85705241D01*
X155030000Y-85937759D01*
X154874637Y-85705241D01*
X154674759Y-85505363D01*
X154439727Y-85348320D01*
X154178574Y-85240147D01*
X153901335Y-85185000D01*
X153618665Y-85185000D01*
X153341426Y-85240147D01*
X153080273Y-85348320D01*
X152845241Y-85505363D01*
X152645363Y-85705241D01*
X152490000Y-85937759D01*
X152334637Y-85705241D01*
X152134759Y-85505363D01*
X151899727Y-85348320D01*
X151638574Y-85240147D01*
X151361335Y-85185000D01*
X151078665Y-85185000D01*
X150801426Y-85240147D01*
X150540273Y-85348320D01*
X150305241Y-85505363D01*
X150105363Y-85705241D01*
X149950000Y-85937759D01*
X149794637Y-85705241D01*
X149594759Y-85505363D01*
X149440000Y-85401957D01*
X149440000Y-84394801D01*
X153436114Y-80398688D01*
X153618665Y-80435000D01*
X153901335Y-80435000D01*
X154178574Y-80379853D01*
X154439727Y-80271680D01*
X154674759Y-80114637D01*
X154874637Y-79914759D01*
X154978043Y-79760000D01*
X155081957Y-79760000D01*
X155185363Y-79914759D01*
X155385241Y-80114637D01*
X155620273Y-80271680D01*
X155881426Y-80379853D01*
X156158665Y-80435000D01*
X156441335Y-80435000D01*
X156718574Y-80379853D01*
X156979727Y-80271680D01*
X157214759Y-80114637D01*
X157414637Y-79914759D01*
X157518043Y-79760000D01*
X157621957Y-79760000D01*
X157725363Y-79914759D01*
X157925241Y-80114637D01*
X158160273Y-80271680D01*
X158421426Y-80379853D01*
X158698665Y-80435000D01*
X158981335Y-80435000D01*
X159163886Y-80398688D01*
X159401201Y-80636003D01*
X159425000Y-80665002D01*
X159540725Y-80759975D01*
X159672754Y-80830547D01*
X159816015Y-80874004D01*
X159927668Y-80885001D01*
X159927676Y-80885001D01*
X159965001Y-80888677D01*
X160002326Y-80885001D01*
X168760200Y-80885001D01*
X172466200Y-84591002D01*
X172489999Y-84620001D01*
X172605724Y-84714974D01*
X172737753Y-84785546D01*
X172881014Y-84829003D01*
X172992667Y-84840000D01*
X172992675Y-84840000D01*
X173030000Y-84843676D01*
X173067325Y-84840000D01*
X178781957Y-84840000D01*
X178885363Y-84994759D01*
X179085241Y-85194637D01*
X179317759Y-85350000D01*
X179085241Y-85505363D01*
X178885363Y-85705241D01*
X178728320Y-85940273D01*
X178620147Y-86201426D01*
X178565000Y-86478665D01*
X178565000Y-86761335D01*
X178620147Y-87038574D01*
X178728320Y-87299727D01*
X178885363Y-87534759D01*
X179085241Y-87734637D01*
X179319222Y-87890978D01*
X177720201Y-89490000D01*
X173829518Y-89490000D01*
X173804494Y-89469463D01*
X173694180Y-89410498D01*
X173574482Y-89374188D01*
X173450000Y-89361928D01*
X172550000Y-89361928D01*
X172425518Y-89374188D01*
X172305820Y-89410498D01*
X172195506Y-89469463D01*
X172098815Y-89548815D01*
X172019463Y-89645506D01*
X171960498Y-89755820D01*
X171924188Y-89875518D01*
X171911928Y-90000000D01*
X171911928Y-90500000D01*
X171924188Y-90624482D01*
X171960498Y-90744180D01*
X172019463Y-90854494D01*
X172098815Y-90951185D01*
X172158296Y-91000000D01*
X172098815Y-91048815D01*
X172019463Y-91145506D01*
X171960498Y-91255820D01*
X171924188Y-91375518D01*
X171911928Y-91500000D01*
X171911928Y-92000000D01*
X171924188Y-92124482D01*
X171953637Y-92221561D01*
X165413993Y-98761206D01*
X165384989Y-98785009D01*
X165336217Y-98844439D01*
X165290016Y-98900734D01*
X165264219Y-98948997D01*
X165219444Y-99032764D01*
X165175987Y-99176025D01*
X165164990Y-99287678D01*
X165164990Y-99287688D01*
X165161314Y-99325010D01*
X165164990Y-99362332D01*
X165164991Y-109727658D01*
X165161314Y-109764990D01*
X165164991Y-109802323D01*
X165175988Y-109913976D01*
X165184962Y-109943561D01*
X165219444Y-110057236D01*
X165290016Y-110189266D01*
X165361191Y-110275992D01*
X165384990Y-110304991D01*
X165413988Y-110328789D01*
X165611928Y-110526729D01*
X165611928Y-110990000D01*
X165624188Y-111114482D01*
X165660498Y-111234180D01*
X165719463Y-111344494D01*
X165798815Y-111441185D01*
X165895506Y-111520537D01*
X166005820Y-111579502D01*
X166125518Y-111615812D01*
X166250000Y-111628072D01*
X167750000Y-111628072D01*
X167874482Y-111615812D01*
X167994180Y-111579502D01*
X168104494Y-111520537D01*
X168201185Y-111441185D01*
X168280537Y-111344494D01*
X168339502Y-111234180D01*
X168375812Y-111114482D01*
X168388072Y-110990000D01*
X168388072Y-110090000D01*
X168382163Y-110030000D01*
X172477680Y-110030000D01*
X172515002Y-110033676D01*
X172552324Y-110030000D01*
X172552335Y-110030000D01*
X172663988Y-110019003D01*
X172764500Y-109988514D01*
X172764500Y-110147439D01*
X172804274Y-110347398D01*
X172882295Y-110535756D01*
X172995563Y-110705274D01*
X173139726Y-110849437D01*
X173309244Y-110962705D01*
X173497602Y-111040726D01*
X173697561Y-111080500D01*
X173759699Y-111080500D01*
X175013700Y-112334502D01*
X175037499Y-112363501D01*
X175153224Y-112458474D01*
X175285253Y-112529046D01*
X175428514Y-112572503D01*
X175540167Y-112583500D01*
X175540175Y-112583500D01*
X175577500Y-112587176D01*
X175614825Y-112583500D01*
X181914199Y-112583500D01*
X183523672Y-114192973D01*
X183330796Y-114211970D01*
X183031551Y-114302745D01*
X182755765Y-114450155D01*
X182629905Y-114553446D01*
X182585037Y-114469506D01*
X182505685Y-114372815D01*
X182408994Y-114293463D01*
X182298680Y-114234498D01*
X182178982Y-114198188D01*
X182054500Y-114185928D01*
X181387750Y-114189000D01*
X181229000Y-114347750D01*
X181229000Y-115697000D01*
X181249000Y-115697000D01*
X181249000Y-115951000D01*
X181229000Y-115951000D01*
X181229000Y-117300250D01*
X181387750Y-117459000D01*
X182054500Y-117462072D01*
X182178982Y-117449812D01*
X182298680Y-117413502D01*
X182408994Y-117354537D01*
X182505685Y-117275185D01*
X182585037Y-117178494D01*
X182629905Y-117094553D01*
X182755766Y-117197845D01*
X183031552Y-117345255D01*
X183330797Y-117436030D01*
X183642000Y-117466681D01*
X183953204Y-117436030D01*
X184252449Y-117345255D01*
X184528235Y-117197845D01*
X184769963Y-116999463D01*
X184912000Y-116826391D01*
X185054037Y-116999463D01*
X185295766Y-117197845D01*
X185571552Y-117345255D01*
X185870797Y-117436030D01*
X186182000Y-117466681D01*
X186493204Y-117436030D01*
X186792449Y-117345255D01*
X187068235Y-117197845D01*
X187309963Y-116999463D01*
X187508345Y-116757734D01*
X187655755Y-116481948D01*
X187746530Y-116182703D01*
X187769500Y-115949485D01*
X187769500Y-115698514D01*
X187746530Y-115465296D01*
X187655755Y-115166051D01*
X187508345Y-114890265D01*
X187309963Y-114648537D01*
X187068234Y-114450155D01*
X186792448Y-114302745D01*
X186493203Y-114211970D01*
X186182000Y-114181319D01*
X185870796Y-114211970D01*
X185733822Y-114253521D01*
X185287800Y-113807499D01*
X191632106Y-113807499D01*
X191848228Y-114174258D01*
X192308105Y-114414938D01*
X192806098Y-114561275D01*
X193323071Y-114607648D01*
X193839159Y-114552273D01*
X194334526Y-114397279D01*
X194751772Y-114174258D01*
X194967894Y-113807499D01*
X193300000Y-112139605D01*
X191632106Y-113807499D01*
X185287800Y-113807499D01*
X183240301Y-111760000D01*
X190672362Y-111760000D01*
X190652352Y-111983071D01*
X190707727Y-112499159D01*
X190862721Y-112994526D01*
X191085742Y-113411772D01*
X191452501Y-113627894D01*
X193120395Y-111960000D01*
X193479605Y-111960000D01*
X195147499Y-113627894D01*
X195514258Y-113411772D01*
X195754938Y-112951895D01*
X195901275Y-112453902D01*
X195947648Y-111936929D01*
X195892273Y-111420841D01*
X195737279Y-110925474D01*
X195514258Y-110508228D01*
X195147499Y-110292106D01*
X193479605Y-111960000D01*
X193120395Y-111960000D01*
X193106253Y-111945858D01*
X193285858Y-111766253D01*
X193300000Y-111780395D01*
X194967894Y-110112501D01*
X194751772Y-109745742D01*
X194291895Y-109505062D01*
X193793902Y-109358725D01*
X193556380Y-109337419D01*
X197476005Y-105417795D01*
X197505002Y-105393998D01*
X197599975Y-105278273D01*
X197670547Y-105146244D01*
X197714004Y-105002983D01*
X197725001Y-104891330D01*
X197725001Y-104891322D01*
X197728677Y-104853997D01*
X197725001Y-104816672D01*
X197725001Y-102007326D01*
X197728677Y-101970001D01*
X197725001Y-101932676D01*
X197725001Y-101932668D01*
X197714004Y-101821015D01*
X197670547Y-101677754D01*
X197599975Y-101545725D01*
X197505002Y-101430000D01*
X197476004Y-101406202D01*
X197238688Y-101168886D01*
X197275000Y-100986335D01*
X197275000Y-100703665D01*
X197219853Y-100426426D01*
X197111680Y-100165273D01*
X196954637Y-99930241D01*
X196754759Y-99730363D01*
X196519727Y-99573320D01*
X196258574Y-99465147D01*
X196232699Y-99460000D01*
X196258574Y-99454853D01*
X196519727Y-99346680D01*
X196754759Y-99189637D01*
X196954637Y-98989759D01*
X197111680Y-98754727D01*
X197219853Y-98493574D01*
X197275000Y-98216335D01*
X197275000Y-97933665D01*
X197219853Y-97656426D01*
X197111680Y-97395273D01*
X196954637Y-97160241D01*
X196754759Y-96960363D01*
X196519727Y-96803320D01*
X196258574Y-96695147D01*
X196232699Y-96690000D01*
X196258574Y-96684853D01*
X196519727Y-96576680D01*
X196754759Y-96419637D01*
X196954637Y-96219759D01*
X197111680Y-95984727D01*
X197219853Y-95723574D01*
X197275000Y-95446335D01*
X197275000Y-95163665D01*
X197219853Y-94886426D01*
X197111680Y-94625273D01*
X196954637Y-94390241D01*
X196754759Y-94190363D01*
X196519727Y-94033320D01*
X196258574Y-93925147D01*
X195981335Y-93870000D01*
X195698665Y-93870000D01*
X195421426Y-93925147D01*
X195160273Y-94033320D01*
X194925241Y-94190363D01*
X194725363Y-94390241D01*
X194654463Y-94496351D01*
X194636005Y-94481203D01*
X194398688Y-94243886D01*
X194435000Y-94061335D01*
X194435000Y-93778665D01*
X194379853Y-93501426D01*
X194271680Y-93240273D01*
X194114637Y-93005241D01*
X193914759Y-92805363D01*
X193679727Y-92648320D01*
X193418574Y-92540147D01*
X193141335Y-92485000D01*
X192858665Y-92485000D01*
X192581426Y-92540147D01*
X192320273Y-92648320D01*
X192085241Y-92805363D01*
X191885363Y-93005241D01*
X191728320Y-93240273D01*
X191620147Y-93501426D01*
X191565000Y-93778665D01*
X191565000Y-94061335D01*
X191620147Y-94338574D01*
X191728320Y-94599727D01*
X191885363Y-94834759D01*
X192085241Y-95034637D01*
X192320273Y-95191680D01*
X192581426Y-95299853D01*
X192607301Y-95305000D01*
X192581426Y-95310147D01*
X192320273Y-95418320D01*
X192085241Y-95575363D01*
X191885363Y-95775241D01*
X191728320Y-96010273D01*
X191620147Y-96271426D01*
X191565000Y-96548665D01*
X191565000Y-96831335D01*
X191594515Y-96979713D01*
X190760000Y-96145199D01*
X190760000Y-88807499D01*
X191632106Y-88807499D01*
X191848228Y-89174258D01*
X192308105Y-89414938D01*
X192806098Y-89561275D01*
X193323071Y-89607648D01*
X193839159Y-89552273D01*
X194334526Y-89397279D01*
X194751772Y-89174258D01*
X194967894Y-88807499D01*
X193300000Y-87139605D01*
X191632106Y-88807499D01*
X190760000Y-88807499D01*
X190760000Y-87666226D01*
X190862721Y-87994526D01*
X191085742Y-88411772D01*
X191452501Y-88627894D01*
X193120395Y-86960000D01*
X193479605Y-86960000D01*
X195147499Y-88627894D01*
X195514258Y-88411772D01*
X195754938Y-87951895D01*
X195901275Y-87453902D01*
X195947648Y-86936929D01*
X195892273Y-86420841D01*
X195737279Y-85925474D01*
X195514258Y-85508228D01*
X195147499Y-85292106D01*
X193479605Y-86960000D01*
X193120395Y-86960000D01*
X191452501Y-85292106D01*
X191085742Y-85508228D01*
X190845062Y-85968105D01*
X190760000Y-86257576D01*
X190760000Y-85112501D01*
X191632106Y-85112501D01*
X193300000Y-86780395D01*
X194967894Y-85112501D01*
X194751772Y-84745742D01*
X194291895Y-84505062D01*
X193793902Y-84358725D01*
X193276929Y-84312352D01*
X192760841Y-84367727D01*
X192265474Y-84522721D01*
X191848228Y-84745742D01*
X191632106Y-85112501D01*
X190760000Y-85112501D01*
X190760000Y-83957323D01*
X190763676Y-83920000D01*
X190760000Y-83882677D01*
X190760000Y-83882667D01*
X190749003Y-83771014D01*
X190705546Y-83627753D01*
X190634974Y-83495724D01*
X190540001Y-83379999D01*
X190511003Y-83356201D01*
X189018688Y-81863887D01*
X189055000Y-81681335D01*
X189055000Y-81398665D01*
X188999853Y-81121426D01*
X188891680Y-80860273D01*
X188734637Y-80625241D01*
X188534759Y-80425363D01*
X188302241Y-80270000D01*
X188534759Y-80114637D01*
X188734637Y-79914759D01*
X188891680Y-79679727D01*
X188999853Y-79418574D01*
X189055000Y-79141335D01*
X189055000Y-78858665D01*
X188999853Y-78581426D01*
X188891680Y-78320273D01*
X188734637Y-78085241D01*
X188534759Y-77885363D01*
X188299727Y-77728320D01*
X188038574Y-77620147D01*
X187761335Y-77565000D01*
X187478665Y-77565000D01*
X187201426Y-77620147D01*
X186940273Y-77728320D01*
X186705241Y-77885363D01*
X186505363Y-78085241D01*
X186348320Y-78320273D01*
X186240147Y-78581426D01*
X186185000Y-78858665D01*
X186185000Y-79141335D01*
X186240147Y-79418574D01*
X186348320Y-79679727D01*
X186505363Y-79914759D01*
X186705241Y-80114637D01*
X186937759Y-80270000D01*
X186705241Y-80425363D01*
X186505363Y-80625241D01*
X186348320Y-80860273D01*
X186240147Y-81121426D01*
X186185000Y-81398665D01*
X186185000Y-81681335D01*
X186229413Y-81904611D01*
X177813804Y-73489003D01*
X177790001Y-73459999D01*
X177674276Y-73365026D01*
X177594532Y-73322401D01*
X177589502Y-73305820D01*
X177530537Y-73195506D01*
X177451185Y-73098815D01*
X177354494Y-73019463D01*
X177244180Y-72960498D01*
X177124482Y-72924188D01*
X177000000Y-72911928D01*
X176500000Y-72911928D01*
X176375518Y-72924188D01*
X176255820Y-72960498D01*
X176145506Y-73019463D01*
X176048815Y-73098815D01*
X176000000Y-73158296D01*
X175951185Y-73098815D01*
X175854494Y-73019463D01*
X175744180Y-72960498D01*
X175624482Y-72924188D01*
X175500000Y-72911928D01*
X175000000Y-72911928D01*
X174875518Y-72924188D01*
X174755820Y-72960498D01*
X174645506Y-73019463D01*
X174548815Y-73098815D01*
X174469463Y-73195506D01*
X174445680Y-73240000D01*
X166417323Y-73240000D01*
X166380000Y-73236324D01*
X166342677Y-73240000D01*
X166342667Y-73240000D01*
X166231014Y-73250997D01*
X166087753Y-73294454D01*
X165955724Y-73365026D01*
X165839999Y-73459999D01*
X165816201Y-73488997D01*
X161703887Y-77601312D01*
X161521335Y-77565000D01*
X161238665Y-77565000D01*
X160961426Y-77620147D01*
X160700273Y-77728320D01*
X160465241Y-77885363D01*
X160265363Y-78085241D01*
X160110000Y-78317759D01*
X159954637Y-78085241D01*
X159754759Y-77885363D01*
X159519727Y-77728320D01*
X159258574Y-77620147D01*
X158981335Y-77565000D01*
X158698665Y-77565000D01*
X158421426Y-77620147D01*
X158160273Y-77728320D01*
X157925241Y-77885363D01*
X157725363Y-78085241D01*
X157621957Y-78240000D01*
X157518043Y-78240000D01*
X157414637Y-78085241D01*
X157214759Y-77885363D01*
X156979727Y-77728320D01*
X156718574Y-77620147D01*
X156441335Y-77565000D01*
X156158665Y-77565000D01*
X155881426Y-77620147D01*
X155620273Y-77728320D01*
X155385241Y-77885363D01*
X155185363Y-78085241D01*
X155081957Y-78240000D01*
X154978043Y-78240000D01*
X154874637Y-78085241D01*
X154674759Y-77885363D01*
X154439727Y-77728320D01*
X154178574Y-77620147D01*
X153901335Y-77565000D01*
X153618665Y-77565000D01*
X153436114Y-77601312D01*
X150323804Y-74489003D01*
X150300001Y-74459999D01*
X150184276Y-74365026D01*
X150052247Y-74294454D01*
X149908986Y-74250997D01*
X149797333Y-74240000D01*
X149797322Y-74240000D01*
X149760000Y-74236324D01*
X149722678Y-74240000D01*
X147554320Y-74240000D01*
X147530537Y-74195506D01*
X147451185Y-74098815D01*
X147378300Y-74039000D01*
X150330678Y-74039000D01*
X150368000Y-74042676D01*
X150405322Y-74039000D01*
X150405333Y-74039000D01*
X150516986Y-74028003D01*
X150660247Y-73984546D01*
X150792276Y-73913974D01*
X150908001Y-73819001D01*
X150931804Y-73789997D01*
X156858212Y-67863589D01*
X171615000Y-67863589D01*
X171615000Y-68136411D01*
X171668225Y-68403989D01*
X171772629Y-68656043D01*
X171924201Y-68882886D01*
X172117114Y-69075799D01*
X172343957Y-69227371D01*
X172596011Y-69331775D01*
X172863589Y-69385000D01*
X173136411Y-69385000D01*
X173403989Y-69331775D01*
X173656043Y-69227371D01*
X173882886Y-69075799D01*
X174075799Y-68882886D01*
X174227371Y-68656043D01*
X174331775Y-68403989D01*
X174385000Y-68136411D01*
X174385000Y-67863589D01*
X174331775Y-67596011D01*
X174227371Y-67343957D01*
X174075799Y-67117114D01*
X173882886Y-66924201D01*
X173656043Y-66772629D01*
X173403989Y-66668225D01*
X173136411Y-66615000D01*
X172863589Y-66615000D01*
X172596011Y-66668225D01*
X172343957Y-66772629D01*
X172117114Y-66924201D01*
X171924201Y-67117114D01*
X171772629Y-67343957D01*
X171668225Y-67596011D01*
X171615000Y-67863589D01*
X156858212Y-67863589D01*
X161420003Y-63301799D01*
X161449001Y-63278001D01*
X161543974Y-63162276D01*
X161614546Y-63030247D01*
X161628699Y-62983589D01*
X171615000Y-62983589D01*
X171615000Y-63256411D01*
X171668225Y-63523989D01*
X171772629Y-63776043D01*
X171924201Y-64002886D01*
X172117114Y-64195799D01*
X172343957Y-64347371D01*
X172596011Y-64451775D01*
X172863589Y-64505000D01*
X173136411Y-64505000D01*
X173403989Y-64451775D01*
X173656043Y-64347371D01*
X173882886Y-64195799D01*
X174075799Y-64002886D01*
X174227371Y-63776043D01*
X174331775Y-63523989D01*
X174385000Y-63256411D01*
X174385000Y-62983589D01*
X174331775Y-62716011D01*
X174227371Y-62463957D01*
X174075799Y-62237114D01*
X173882886Y-62044201D01*
X173656043Y-61892629D01*
X173403989Y-61788225D01*
X173136411Y-61735000D01*
X172863589Y-61735000D01*
X172596011Y-61788225D01*
X172343957Y-61892629D01*
X172117114Y-62044201D01*
X171924201Y-62237114D01*
X171772629Y-62463957D01*
X171668225Y-62716011D01*
X171615000Y-62983589D01*
X161628699Y-62983589D01*
X161658003Y-62886986D01*
X161669000Y-62775333D01*
X161669000Y-62775324D01*
X161672676Y-62738001D01*
X161669000Y-62700678D01*
X161669000Y-52212103D01*
X161745842Y-52243932D01*
X162032740Y-52301000D01*
X162325260Y-52301000D01*
X162612158Y-52243932D01*
X162882411Y-52131990D01*
X163125632Y-51969475D01*
X163332475Y-51762632D01*
X163449000Y-51588240D01*
X163565525Y-51762632D01*
X163772368Y-51969475D01*
X164015589Y-52131990D01*
X164285842Y-52243932D01*
X164572740Y-52301000D01*
X164865260Y-52301000D01*
X165152158Y-52243932D01*
X165422411Y-52131990D01*
X165665632Y-51969475D01*
X165872475Y-51762632D01*
X165989000Y-51588240D01*
X166105525Y-51762632D01*
X166312368Y-51969475D01*
X166555589Y-52131990D01*
X166825842Y-52243932D01*
X167112740Y-52301000D01*
X167405260Y-52301000D01*
X167692158Y-52243932D01*
X167962411Y-52131990D01*
X168205632Y-51969475D01*
X168412475Y-51762632D01*
X168529000Y-51588240D01*
X168645525Y-51762632D01*
X168852368Y-51969475D01*
X169095589Y-52131990D01*
X169365842Y-52243932D01*
X169652740Y-52301000D01*
X169945260Y-52301000D01*
X170232158Y-52243932D01*
X170502411Y-52131990D01*
X170745632Y-51969475D01*
X170952475Y-51762632D01*
X171069000Y-51588240D01*
X171185525Y-51762632D01*
X171392368Y-51969475D01*
X171635589Y-52131990D01*
X171905842Y-52243932D01*
X172192740Y-52301000D01*
X172485260Y-52301000D01*
X172772158Y-52243932D01*
X173042411Y-52131990D01*
X173285632Y-51969475D01*
X173492475Y-51762632D01*
X173609000Y-51588240D01*
X173725525Y-51762632D01*
X173932368Y-51969475D01*
X174175589Y-52131990D01*
X174445842Y-52243932D01*
X174732740Y-52301000D01*
X175025260Y-52301000D01*
X175312158Y-52243932D01*
X175582411Y-52131990D01*
X175825632Y-51969475D01*
X176032475Y-51762632D01*
X176154195Y-51580466D01*
X176223822Y-51697355D01*
X176418731Y-51913588D01*
X176652080Y-52087641D01*
X176914901Y-52212825D01*
X177062110Y-52257476D01*
X177292000Y-52136155D01*
X177292000Y-50943000D01*
X177272000Y-50943000D01*
X177272000Y-50689000D01*
X177292000Y-50689000D01*
X177292000Y-50669000D01*
X177546000Y-50669000D01*
X177546000Y-50689000D01*
X177566000Y-50689000D01*
X177566000Y-50943000D01*
X177546000Y-50943000D01*
X177546000Y-52136155D01*
X177775890Y-52257476D01*
X177923099Y-52212825D01*
X178185920Y-52087641D01*
X178419269Y-51913588D01*
X178614178Y-51697355D01*
X178683805Y-51580466D01*
X178805525Y-51762632D01*
X179012368Y-51969475D01*
X179255589Y-52131990D01*
X179525842Y-52243932D01*
X179812740Y-52301000D01*
X180105260Y-52301000D01*
X180392158Y-52243932D01*
X180662411Y-52131990D01*
X180905632Y-51969475D01*
X181112475Y-51762632D01*
X181229000Y-51588240D01*
X181345525Y-51762632D01*
X181552368Y-51969475D01*
X181795589Y-52131990D01*
X182065842Y-52243932D01*
X182352740Y-52301000D01*
X182645260Y-52301000D01*
X182932158Y-52243932D01*
X183202411Y-52131990D01*
X183445632Y-51969475D01*
X183652475Y-51762632D01*
X183769000Y-51588240D01*
X183885525Y-51762632D01*
X184092368Y-51969475D01*
X184335589Y-52131990D01*
X184605842Y-52243932D01*
X184892740Y-52301000D01*
X185185260Y-52301000D01*
X185472158Y-52243932D01*
X185742411Y-52131990D01*
X185985632Y-51969475D01*
X186192475Y-51762632D01*
X186309000Y-51588240D01*
X186425525Y-51762632D01*
X186632368Y-51969475D01*
X186875589Y-52131990D01*
X187145842Y-52243932D01*
X187432740Y-52301000D01*
X187725260Y-52301000D01*
X188012158Y-52243932D01*
X188282411Y-52131990D01*
X188525632Y-51969475D01*
X188732475Y-51762632D01*
X188849000Y-51588240D01*
X188965525Y-51762632D01*
X189172368Y-51969475D01*
X189415589Y-52131990D01*
X189685842Y-52243932D01*
X189972740Y-52301000D01*
X190265260Y-52301000D01*
X190552158Y-52243932D01*
X190822411Y-52131990D01*
X191065632Y-51969475D01*
X191272475Y-51762632D01*
X191389000Y-51588240D01*
X191505525Y-51762632D01*
X191712368Y-51969475D01*
X191955589Y-52131990D01*
X192225842Y-52243932D01*
X192512740Y-52301000D01*
X192805260Y-52301000D01*
X193092158Y-52243932D01*
X193362411Y-52131990D01*
X193605632Y-51969475D01*
X193812475Y-51762632D01*
X193934195Y-51580466D01*
X194003822Y-51697355D01*
X194198731Y-51913588D01*
X194432080Y-52087641D01*
X194694901Y-52212825D01*
X194842110Y-52257476D01*
X195072000Y-52136155D01*
X195072000Y-50943000D01*
X195326000Y-50943000D01*
X195326000Y-52136155D01*
X195555890Y-52257476D01*
X195703099Y-52212825D01*
X195965920Y-52087641D01*
X196199269Y-51913588D01*
X196394178Y-51697355D01*
X196543157Y-51447252D01*
X196640481Y-51172891D01*
X196519814Y-50943000D01*
X195326000Y-50943000D01*
X195072000Y-50943000D01*
X195052000Y-50943000D01*
X195052000Y-50689000D01*
X195072000Y-50689000D01*
X195072000Y-50669000D01*
X195326000Y-50669000D01*
X195326000Y-50689000D01*
X196519814Y-50689000D01*
X196640481Y-50459109D01*
X196543157Y-50184748D01*
X196394178Y-49934645D01*
X196199269Y-49718412D01*
X195969594Y-49547100D01*
X196145632Y-49429475D01*
X196352475Y-49222632D01*
X196514990Y-48979411D01*
X196626932Y-48709158D01*
X196684000Y-48422260D01*
X196684000Y-48129740D01*
X196634124Y-47879000D01*
X197993000Y-47879000D01*
X197993000Y-123317000D01*
G37*
X197993000Y-123317000D02*
X183091037Y-123317000D01*
X183125000Y-123146260D01*
X183125000Y-122853740D01*
X183067932Y-122566842D01*
X182955990Y-122296589D01*
X182793475Y-122053368D01*
X182586632Y-121846525D01*
X182410594Y-121728900D01*
X182640269Y-121557588D01*
X182835178Y-121341355D01*
X182984157Y-121091252D01*
X183081481Y-120816891D01*
X182960814Y-120587000D01*
X181767000Y-120587000D01*
X181767000Y-120607000D01*
X181513000Y-120607000D01*
X181513000Y-120587000D01*
X181493000Y-120587000D01*
X181493000Y-120333000D01*
X181513000Y-120333000D01*
X181513000Y-119139845D01*
X181767000Y-119139845D01*
X181767000Y-120333000D01*
X182960814Y-120333000D01*
X183081481Y-120103109D01*
X182984157Y-119828748D01*
X182835178Y-119578645D01*
X182640269Y-119362412D01*
X182406920Y-119188359D01*
X182144099Y-119063175D01*
X181996890Y-119018524D01*
X181767000Y-119139845D01*
X181513000Y-119139845D01*
X181283110Y-119018524D01*
X181135901Y-119063175D01*
X180873080Y-119188359D01*
X180639731Y-119362412D01*
X180444822Y-119578645D01*
X180375195Y-119695534D01*
X180253475Y-119513368D01*
X180046632Y-119306525D01*
X179803411Y-119144010D01*
X179533158Y-119032068D01*
X179246260Y-118975000D01*
X178953740Y-118975000D01*
X178666842Y-119032068D01*
X178396589Y-119144010D01*
X178153368Y-119306525D01*
X177946525Y-119513368D01*
X177830000Y-119687760D01*
X177713475Y-119513368D01*
X177506632Y-119306525D01*
X177263411Y-119144010D01*
X176993158Y-119032068D01*
X176706260Y-118975000D01*
X176413740Y-118975000D01*
X176126842Y-119032068D01*
X175856589Y-119144010D01*
X175613368Y-119306525D01*
X175406525Y-119513368D01*
X175290000Y-119687760D01*
X175173475Y-119513368D01*
X174966632Y-119306525D01*
X174723411Y-119144010D01*
X174453158Y-119032068D01*
X174166260Y-118975000D01*
X173873740Y-118975000D01*
X173586842Y-119032068D01*
X173316589Y-119144010D01*
X173073368Y-119306525D01*
X172866525Y-119513368D01*
X172750000Y-119687760D01*
X172633475Y-119513368D01*
X172426632Y-119306525D01*
X172183411Y-119144010D01*
X171913158Y-119032068D01*
X171626260Y-118975000D01*
X171333740Y-118975000D01*
X171046842Y-119032068D01*
X170851270Y-119113076D01*
X170783501Y-119030499D01*
X170754504Y-119006702D01*
X169473804Y-117726003D01*
X169450001Y-117696999D01*
X169334276Y-117602026D01*
X169202247Y-117531454D01*
X169058986Y-117487997D01*
X168947333Y-117477000D01*
X168947322Y-117477000D01*
X168910000Y-117473324D01*
X168872678Y-117477000D01*
X163161633Y-117477000D01*
X163168312Y-117454982D01*
X163180572Y-117330500D01*
X163177500Y-116841250D01*
X163160250Y-116824000D01*
X179511428Y-116824000D01*
X179523688Y-116948482D01*
X179559998Y-117068180D01*
X179618963Y-117178494D01*
X179698315Y-117275185D01*
X179795006Y-117354537D01*
X179905320Y-117413502D01*
X180025018Y-117449812D01*
X180149500Y-117462072D01*
X180816250Y-117459000D01*
X180975000Y-117300250D01*
X180975000Y-115951000D01*
X179673250Y-115951000D01*
X179514500Y-116109750D01*
X179511428Y-116824000D01*
X163160250Y-116824000D01*
X163018750Y-116682500D01*
X162369500Y-116682500D01*
X162369500Y-116702500D01*
X162115500Y-116702500D01*
X162115500Y-116682500D01*
X162095500Y-116682500D01*
X162095500Y-116428500D01*
X162115500Y-116428500D01*
X162115500Y-115304250D01*
X162369500Y-115304250D01*
X162369500Y-116428500D01*
X163018750Y-116428500D01*
X163177500Y-116269750D01*
X163180572Y-115780500D01*
X163168312Y-115656018D01*
X163132002Y-115536320D01*
X163073037Y-115426006D01*
X162993685Y-115329315D01*
X162896994Y-115249963D01*
X162786680Y-115190998D01*
X162666982Y-115154688D01*
X162542500Y-115142428D01*
X162528250Y-115145500D01*
X162369500Y-115304250D01*
X162115500Y-115304250D01*
X161956750Y-115145500D01*
X161942500Y-115142428D01*
X161818018Y-115154688D01*
X161698320Y-115190998D01*
X161607500Y-115239543D01*
X161516680Y-115190998D01*
X161396982Y-115154688D01*
X161272500Y-115142428D01*
X160672500Y-115142428D01*
X160548018Y-115154688D01*
X160428320Y-115190998D01*
X160337500Y-115239543D01*
X160246680Y-115190998D01*
X160126982Y-115154688D01*
X160002500Y-115142428D01*
X159402500Y-115142428D01*
X159278018Y-115154688D01*
X159158320Y-115190998D01*
X159067500Y-115239543D01*
X158976680Y-115190998D01*
X158856982Y-115154688D01*
X158732500Y-115142428D01*
X158132500Y-115142428D01*
X158008018Y-115154688D01*
X157888320Y-115190998D01*
X157778006Y-115249963D01*
X157681315Y-115329315D01*
X157601963Y-115426006D01*
X157542998Y-115536320D01*
X157506688Y-115656018D01*
X157494428Y-115780500D01*
X157494428Y-115795500D01*
X144556302Y-115795500D01*
X143260802Y-114500000D01*
X151861928Y-114500000D01*
X151874188Y-114624482D01*
X151910498Y-114744180D01*
X151969463Y-114854494D01*
X152048815Y-114951185D01*
X152145506Y-115030537D01*
X152255820Y-115089502D01*
X152375518Y-115125812D01*
X152500000Y-115138072D01*
X152714250Y-115135000D01*
X152873000Y-114976250D01*
X152873000Y-114127000D01*
X153127000Y-114127000D01*
X153127000Y-114976250D01*
X153285750Y-115135000D01*
X153500000Y-115138072D01*
X153624482Y-115125812D01*
X153744180Y-115089502D01*
X153854494Y-115030537D01*
X153951185Y-114951185D01*
X154030537Y-114854494D01*
X154089502Y-114744180D01*
X154125812Y-114624482D01*
X154138072Y-114500000D01*
X154135000Y-114285750D01*
X153976250Y-114127000D01*
X153127000Y-114127000D01*
X152873000Y-114127000D01*
X152023750Y-114127000D01*
X151865000Y-114285750D01*
X151861928Y-114500000D01*
X143260802Y-114500000D01*
X142260802Y-113500000D01*
X151861928Y-113500000D01*
X151865000Y-113714250D01*
X152023750Y-113873000D01*
X152873000Y-113873000D01*
X152873000Y-113023750D01*
X152714250Y-112865000D01*
X152500000Y-112861928D01*
X152375518Y-112874188D01*
X152255820Y-112910498D01*
X152145506Y-112969463D01*
X152048815Y-113048815D01*
X151969463Y-113145506D01*
X151910498Y-113255820D01*
X151874188Y-113375518D01*
X151861928Y-113500000D01*
X142260802Y-113500000D01*
X139345803Y-110585001D01*
X139635421Y-110585001D01*
X139638617Y-110601067D01*
X139724176Y-110807624D01*
X139848388Y-110993520D01*
X140006480Y-111151612D01*
X140192376Y-111275824D01*
X140398933Y-111361383D01*
X140618212Y-111405000D01*
X140841788Y-111405000D01*
X141061067Y-111361383D01*
X141267624Y-111275824D01*
X141453520Y-111151612D01*
X141611612Y-110993520D01*
X141735824Y-110807624D01*
X141821383Y-110601067D01*
X141865000Y-110381788D01*
X141865000Y-110158212D01*
X141860994Y-110138072D01*
X142500000Y-110138072D01*
X142624482Y-110125812D01*
X142744180Y-110089502D01*
X142854494Y-110030537D01*
X142951185Y-109951185D01*
X143030537Y-109854494D01*
X143089502Y-109744180D01*
X143125812Y-109624482D01*
X143138072Y-109500000D01*
X143138072Y-108500000D01*
X143125812Y-108375518D01*
X143089502Y-108255820D01*
X143030537Y-108145506D01*
X142951185Y-108048815D01*
X142854494Y-107969463D01*
X142744180Y-107910498D01*
X142624482Y-107874188D01*
X142500000Y-107861928D01*
X141800001Y-107861928D01*
X141800001Y-102105519D01*
X141871067Y-102091383D01*
X142077624Y-102005824D01*
X142263520Y-101881612D01*
X142421612Y-101723520D01*
X142545824Y-101537624D01*
X142593889Y-101421585D01*
X153304432Y-112132128D01*
X153264176Y-112192376D01*
X153178617Y-112398933D01*
X153135000Y-112618212D01*
X153135000Y-112841788D01*
X153163862Y-112986888D01*
X153127000Y-113023750D01*
X153127000Y-113873000D01*
X153976250Y-113873000D01*
X154013112Y-113836138D01*
X154158212Y-113865000D01*
X154381788Y-113865000D01*
X154410764Y-113859236D01*
X154405000Y-113888212D01*
X154405000Y-114111788D01*
X154448617Y-114331067D01*
X154534176Y-114537624D01*
X154658388Y-114723520D01*
X154816480Y-114881612D01*
X155002376Y-115005824D01*
X155208933Y-115091383D01*
X155428212Y-115135000D01*
X155651788Y-115135000D01*
X155871067Y-115091383D01*
X156077624Y-115005824D01*
X156263520Y-114881612D01*
X156421612Y-114723520D01*
X156545824Y-114537624D01*
X156631383Y-114331067D01*
X156675000Y-114111788D01*
X156675000Y-113888212D01*
X156631383Y-113668933D01*
X156545824Y-113462376D01*
X156421612Y-113276480D01*
X156263520Y-113118388D01*
X156077624Y-112994176D01*
X155871067Y-112908617D01*
X155651788Y-112865000D01*
X155428212Y-112865000D01*
X155399236Y-112870764D01*
X155405000Y-112841788D01*
X155405000Y-112618212D01*
X155361383Y-112398933D01*
X155275824Y-112192376D01*
X155151612Y-112006480D01*
X155018987Y-111873855D01*
X154975546Y-111730647D01*
X154953553Y-111689502D01*
X154904974Y-111598617D01*
X154833799Y-111511891D01*
X154810001Y-111482893D01*
X154781004Y-111459096D01*
X135560910Y-92239003D01*
X135537107Y-92209999D01*
X135421382Y-92115026D01*
X135289353Y-92044454D01*
X135146092Y-92000997D01*
X135034439Y-91990000D01*
X135034428Y-91990000D01*
X134997106Y-91986324D01*
X134959784Y-91990000D01*
X133853889Y-91990000D01*
X133901185Y-91951185D01*
X133980537Y-91854494D01*
X134039502Y-91744180D01*
X134075812Y-91624482D01*
X134088072Y-91500000D01*
X134088072Y-91000000D01*
X134075812Y-90875518D01*
X134039502Y-90755820D01*
X133980537Y-90645506D01*
X133901185Y-90548815D01*
X133804494Y-90469463D01*
X133760000Y-90445680D01*
X133760000Y-82294801D01*
X135656114Y-80398688D01*
X135838665Y-80435000D01*
X136121335Y-80435000D01*
X136398574Y-80379853D01*
X136659727Y-80271680D01*
X136894759Y-80114637D01*
X137094637Y-79914759D01*
X137250000Y-79682241D01*
X137405363Y-79914759D01*
X137605241Y-80114637D01*
X137840273Y-80271680D01*
X138101426Y-80379853D01*
X138378665Y-80435000D01*
X138661335Y-80435000D01*
X138938574Y-80379853D01*
X139174999Y-80281922D01*
X139175000Y-82350198D01*
X136303887Y-85221312D01*
X136121335Y-85185000D01*
X135838665Y-85185000D01*
X135561426Y-85240147D01*
X135300273Y-85348320D01*
X135065241Y-85505363D01*
X134865363Y-85705241D01*
X134708320Y-85940273D01*
X134600147Y-86201426D01*
X134545000Y-86478665D01*
X134545000Y-86761335D01*
X134600147Y-87038574D01*
X134708320Y-87299727D01*
X134865363Y-87534759D01*
X135065241Y-87734637D01*
X135300273Y-87891680D01*
X135561426Y-87999853D01*
X135838665Y-88055000D01*
X136121335Y-88055000D01*
X136398574Y-87999853D01*
X136659727Y-87891680D01*
X136894759Y-87734637D01*
X137094637Y-87534759D01*
X137250000Y-87302241D01*
X137405363Y-87534759D01*
X137605241Y-87734637D01*
X137840273Y-87891680D01*
X138101426Y-87999853D01*
X138378665Y-88055000D01*
X138661335Y-88055000D01*
X138938574Y-87999853D01*
X139199727Y-87891680D01*
X139434759Y-87734637D01*
X139634637Y-87534759D01*
X139790000Y-87302241D01*
X139945363Y-87534759D01*
X140145241Y-87734637D01*
X140380273Y-87891680D01*
X140641426Y-87999853D01*
X140918665Y-88055000D01*
X141201335Y-88055000D01*
X141478574Y-87999853D01*
X141739727Y-87891680D01*
X141974759Y-87734637D01*
X142174637Y-87534759D01*
X142330000Y-87302241D01*
X142485363Y-87534759D01*
X142685241Y-87734637D01*
X142840001Y-87838044D01*
X142840000Y-93334177D01*
X142836324Y-93371500D01*
X142840000Y-93408822D01*
X142840000Y-93408832D01*
X142850997Y-93520485D01*
X142871933Y-93589502D01*
X142894454Y-93663746D01*
X142965026Y-93795776D01*
X143004871Y-93844326D01*
X143059999Y-93911501D01*
X143089003Y-93935304D01*
X158930769Y-109777071D01*
X158856982Y-109754688D01*
X158732500Y-109742428D01*
X158132500Y-109742428D01*
X158008018Y-109754688D01*
X157888320Y-109790998D01*
X157778006Y-109849963D01*
X157681315Y-109929315D01*
X157601963Y-110026006D01*
X157542998Y-110136320D01*
X157506688Y-110256018D01*
X157494428Y-110380500D01*
X157494428Y-111930500D01*
X157506688Y-112054982D01*
X157542998Y-112174680D01*
X157601963Y-112284994D01*
X157681315Y-112381685D01*
X157721257Y-112414464D01*
X157726954Y-112433246D01*
X157797526Y-112565276D01*
X157840970Y-112618212D01*
X157892500Y-112681001D01*
X157921498Y-112704799D01*
X159837205Y-114620508D01*
X159860999Y-114649501D01*
X159889992Y-114673295D01*
X159889996Y-114673299D01*
X159924022Y-114701223D01*
X159976724Y-114744474D01*
X160108753Y-114815046D01*
X160252014Y-114858503D01*
X160363667Y-114869500D01*
X160363676Y-114869500D01*
X160400999Y-114873176D01*
X160438322Y-114869500D01*
X167637329Y-114869500D01*
X167615500Y-114979240D01*
X167615500Y-115271760D01*
X167672568Y-115558658D01*
X167784510Y-115828911D01*
X167947025Y-116072132D01*
X168153868Y-116278975D01*
X168397089Y-116441490D01*
X168667342Y-116553432D01*
X168954240Y-116610500D01*
X169246760Y-116610500D01*
X169533658Y-116553432D01*
X169803911Y-116441490D01*
X170047132Y-116278975D01*
X170178987Y-116147120D01*
X170200998Y-116219680D01*
X170259963Y-116329994D01*
X170339315Y-116426685D01*
X170436006Y-116506037D01*
X170546320Y-116565002D01*
X170666018Y-116601312D01*
X170790500Y-116613572D01*
X172490500Y-116613572D01*
X172614982Y-116601312D01*
X172734680Y-116565002D01*
X172844994Y-116506037D01*
X172941685Y-116426685D01*
X173021037Y-116329994D01*
X173080002Y-116219680D01*
X173116312Y-116099982D01*
X173128572Y-115975500D01*
X173128572Y-114824000D01*
X179511428Y-114824000D01*
X179514500Y-115538250D01*
X179673250Y-115697000D01*
X180975000Y-115697000D01*
X180975000Y-114347750D01*
X180816250Y-114189000D01*
X180149500Y-114185928D01*
X180025018Y-114198188D01*
X179905320Y-114234498D01*
X179795006Y-114293463D01*
X179698315Y-114372815D01*
X179618963Y-114469506D01*
X179559998Y-114579820D01*
X179523688Y-114699518D01*
X179511428Y-114824000D01*
X173128572Y-114824000D01*
X173128572Y-114275500D01*
X173116312Y-114151018D01*
X173080002Y-114031320D01*
X173021037Y-113921006D01*
X172941685Y-113824315D01*
X172844994Y-113744963D01*
X172734680Y-113685998D01*
X172614982Y-113649688D01*
X172490500Y-113637428D01*
X170790500Y-113637428D01*
X170666018Y-113649688D01*
X170546320Y-113685998D01*
X170436006Y-113744963D01*
X170339315Y-113824315D01*
X170259963Y-113921006D01*
X170200998Y-114031320D01*
X170178987Y-114103880D01*
X170047132Y-113972025D01*
X169803911Y-113809510D01*
X169533658Y-113697568D01*
X169246760Y-113640500D01*
X168954240Y-113640500D01*
X168734092Y-113684291D01*
X168648304Y-113598502D01*
X168624501Y-113569499D01*
X168508776Y-113474526D01*
X168376747Y-113403954D01*
X168233486Y-113360497D01*
X168121833Y-113349500D01*
X168121822Y-113349500D01*
X168084500Y-113345824D01*
X168047178Y-113349500D01*
X160715803Y-113349500D01*
X159934874Y-112568572D01*
X160002500Y-112568572D01*
X160126982Y-112556312D01*
X160246680Y-112520002D01*
X160337500Y-112471457D01*
X160428320Y-112520002D01*
X160548018Y-112556312D01*
X160672500Y-112568572D01*
X161272500Y-112568572D01*
X161396982Y-112556312D01*
X161516680Y-112520002D01*
X161607500Y-112471457D01*
X161698320Y-112520002D01*
X161818018Y-112556312D01*
X161942500Y-112568572D01*
X161956750Y-112565500D01*
X162115500Y-112406750D01*
X162115500Y-111282500D01*
X162369500Y-111282500D01*
X162369500Y-112406750D01*
X162528250Y-112565500D01*
X162542500Y-112568572D01*
X162666982Y-112556312D01*
X162786680Y-112520002D01*
X162896994Y-112461037D01*
X162993685Y-112381685D01*
X163073037Y-112284994D01*
X163132002Y-112174680D01*
X163168312Y-112054982D01*
X163180572Y-111930500D01*
X163177500Y-111441250D01*
X163018750Y-111282500D01*
X162369500Y-111282500D01*
X162115500Y-111282500D01*
X162095500Y-111282500D01*
X162095500Y-111028500D01*
X162115500Y-111028500D01*
X162115500Y-109904250D01*
X162369500Y-109904250D01*
X162369500Y-111028500D01*
X163018750Y-111028500D01*
X163177500Y-110869750D01*
X163180572Y-110380500D01*
X163168312Y-110256018D01*
X163132002Y-110136320D01*
X163073037Y-110026006D01*
X162993685Y-109929315D01*
X162896994Y-109849963D01*
X162786680Y-109790998D01*
X162666982Y-109754688D01*
X162542500Y-109742428D01*
X162528250Y-109745500D01*
X162369500Y-109904250D01*
X162115500Y-109904250D01*
X161956750Y-109745500D01*
X161942500Y-109742428D01*
X161818018Y-109754688D01*
X161732500Y-109780630D01*
X161732500Y-108812822D01*
X161736176Y-108775499D01*
X161732500Y-108738176D01*
X161732500Y-108738167D01*
X161721503Y-108626514D01*
X161678046Y-108483253D01*
X161607474Y-108351224D01*
X161549463Y-108280537D01*
X161536299Y-108264496D01*
X161536295Y-108264492D01*
X161512501Y-108235499D01*
X161483508Y-108211705D01*
X155400028Y-102128226D01*
X155500000Y-102138072D01*
X155714250Y-102135000D01*
X155873000Y-101976250D01*
X155873000Y-101127000D01*
X156127000Y-101127000D01*
X156127000Y-101976250D01*
X156285750Y-102135000D01*
X156500000Y-102138072D01*
X156624482Y-102125812D01*
X156744180Y-102089502D01*
X156854494Y-102030537D01*
X156951185Y-101951185D01*
X157030537Y-101854494D01*
X157089502Y-101744180D01*
X157125812Y-101624482D01*
X157138072Y-101500000D01*
X157135000Y-101285750D01*
X156976250Y-101127000D01*
X156127000Y-101127000D01*
X155873000Y-101127000D01*
X155023750Y-101127000D01*
X154865000Y-101285750D01*
X154861928Y-101500000D01*
X154871774Y-101599972D01*
X153771802Y-100500000D01*
X154861928Y-100500000D01*
X154865000Y-100714250D01*
X155023750Y-100873000D01*
X155873000Y-100873000D01*
X155873000Y-100023750D01*
X156127000Y-100023750D01*
X156127000Y-100873000D01*
X156976250Y-100873000D01*
X157013112Y-100836138D01*
X157158212Y-100865000D01*
X157381788Y-100865000D01*
X157410764Y-100859236D01*
X157405000Y-100888212D01*
X157405000Y-101111788D01*
X157448617Y-101331067D01*
X157534176Y-101537624D01*
X157658388Y-101723520D01*
X157816480Y-101881612D01*
X158002376Y-102005824D01*
X158208933Y-102091383D01*
X158428212Y-102135000D01*
X158651788Y-102135000D01*
X158871067Y-102091383D01*
X159077624Y-102005824D01*
X159263520Y-101881612D01*
X159421612Y-101723520D01*
X159545824Y-101537624D01*
X159631383Y-101331067D01*
X159675000Y-101111788D01*
X159675000Y-100888212D01*
X159631383Y-100668933D01*
X159545824Y-100462376D01*
X159421612Y-100276480D01*
X159263520Y-100118388D01*
X159077624Y-99994176D01*
X158871067Y-99908617D01*
X158651788Y-99865000D01*
X158428212Y-99865000D01*
X158399236Y-99870764D01*
X158405000Y-99841788D01*
X158405000Y-99618212D01*
X158361383Y-99398933D01*
X158275824Y-99192376D01*
X158151612Y-99006480D01*
X157993520Y-98848388D01*
X157807624Y-98724176D01*
X157601067Y-98638617D01*
X157381788Y-98595000D01*
X157158212Y-98595000D01*
X156938933Y-98638617D01*
X156732376Y-98724176D01*
X156546480Y-98848388D01*
X156388388Y-99006480D01*
X156264176Y-99192376D01*
X156178617Y-99398933D01*
X156135000Y-99618212D01*
X156135000Y-99841788D01*
X156163862Y-99986888D01*
X156127000Y-100023750D01*
X155873000Y-100023750D01*
X155714250Y-99865000D01*
X155500000Y-99861928D01*
X155375518Y-99874188D01*
X155255820Y-99910498D01*
X155145506Y-99969463D01*
X155048815Y-100048815D01*
X154969463Y-100145506D01*
X154910498Y-100255820D01*
X154874188Y-100375518D01*
X154861928Y-100500000D01*
X153771802Y-100500000D01*
X146771802Y-93500000D01*
X154861928Y-93500000D01*
X154874188Y-93624482D01*
X154910498Y-93744180D01*
X154969463Y-93854494D01*
X155048815Y-93951185D01*
X155145506Y-94030537D01*
X155255820Y-94089502D01*
X155375518Y-94125812D01*
X155500000Y-94138072D01*
X155714250Y-94135000D01*
X155873000Y-93976250D01*
X155873000Y-93127000D01*
X156127000Y-93127000D01*
X156127000Y-93976250D01*
X156285750Y-94135000D01*
X156500000Y-94138072D01*
X156624482Y-94125812D01*
X156744180Y-94089502D01*
X156854494Y-94030537D01*
X156951185Y-93951185D01*
X157030537Y-93854494D01*
X157089502Y-93744180D01*
X157125812Y-93624482D01*
X157138072Y-93500000D01*
X157135000Y-93285750D01*
X156976250Y-93127000D01*
X156127000Y-93127000D01*
X155873000Y-93127000D01*
X155023750Y-93127000D01*
X154865000Y-93285750D01*
X154861928Y-93500000D01*
X146771802Y-93500000D01*
X145771802Y-92500000D01*
X154861928Y-92500000D01*
X154865000Y-92714250D01*
X155023750Y-92873000D01*
X155873000Y-92873000D01*
X155873000Y-92023750D01*
X156127000Y-92023750D01*
X156127000Y-92873000D01*
X156976250Y-92873000D01*
X157013112Y-92836138D01*
X157158212Y-92865000D01*
X157381788Y-92865000D01*
X157410764Y-92859236D01*
X157405000Y-92888212D01*
X157405000Y-93111788D01*
X157448617Y-93331067D01*
X157534176Y-93537624D01*
X157658388Y-93723520D01*
X157816480Y-93881612D01*
X158002376Y-94005824D01*
X158208933Y-94091383D01*
X158428212Y-94135000D01*
X158651788Y-94135000D01*
X158871067Y-94091383D01*
X159077624Y-94005824D01*
X159263520Y-93881612D01*
X159421612Y-93723520D01*
X159545824Y-93537624D01*
X159631383Y-93331067D01*
X159675000Y-93111788D01*
X159675000Y-92888212D01*
X159631383Y-92668933D01*
X159545824Y-92462376D01*
X159421612Y-92276480D01*
X159263520Y-92118388D01*
X159077624Y-91994176D01*
X158871067Y-91908617D01*
X158651788Y-91865000D01*
X158428212Y-91865000D01*
X158399236Y-91870764D01*
X158405000Y-91841788D01*
X158405000Y-91618212D01*
X158361383Y-91398933D01*
X158275824Y-91192376D01*
X158151612Y-91006480D01*
X157993520Y-90848388D01*
X157807624Y-90724176D01*
X157601067Y-90638617D01*
X157381788Y-90595000D01*
X157158212Y-90595000D01*
X156938933Y-90638617D01*
X156732376Y-90724176D01*
X156546480Y-90848388D01*
X156388388Y-91006480D01*
X156264176Y-91192376D01*
X156178617Y-91398933D01*
X156135000Y-91618212D01*
X156135000Y-91841788D01*
X156163862Y-91986888D01*
X156127000Y-92023750D01*
X155873000Y-92023750D01*
X155714250Y-91865000D01*
X155500000Y-91861928D01*
X155375518Y-91874188D01*
X155255820Y-91910498D01*
X155145506Y-91969463D01*
X155048815Y-92048815D01*
X154969463Y-92145506D01*
X154910498Y-92255820D01*
X154874188Y-92375518D01*
X154861928Y-92500000D01*
X145771802Y-92500000D01*
X145730500Y-92458699D01*
X145730500Y-87993566D01*
X145790961Y-88011904D01*
X146013000Y-87889915D01*
X146013000Y-86747000D01*
X145993000Y-86747000D01*
X145993000Y-86493000D01*
X146013000Y-86493000D01*
X146013000Y-85350085D01*
X145790961Y-85228096D01*
X145656913Y-85268754D01*
X145600946Y-85295206D01*
X145534299Y-85213997D01*
X145510501Y-85184999D01*
X145481502Y-85161200D01*
X144962803Y-84642502D01*
X144939001Y-84613499D01*
X144823276Y-84518526D01*
X144691247Y-84447954D01*
X144547986Y-84404497D01*
X144436333Y-84393500D01*
X144436322Y-84393500D01*
X144399000Y-84389824D01*
X144361678Y-84393500D01*
X142563822Y-84393500D01*
X142526499Y-84389824D01*
X142489176Y-84393500D01*
X142489167Y-84393500D01*
X142377514Y-84404497D01*
X142234253Y-84447954D01*
X142102224Y-84518526D01*
X141986499Y-84613499D01*
X141962701Y-84642497D01*
X141383886Y-85221312D01*
X141201335Y-85185000D01*
X140918665Y-85185000D01*
X140641426Y-85240147D01*
X140380273Y-85348320D01*
X140145241Y-85505363D01*
X139945363Y-85705241D01*
X139790000Y-85937759D01*
X139634637Y-85705241D01*
X139434759Y-85505363D01*
X139199727Y-85348320D01*
X138938574Y-85240147D01*
X138661335Y-85185000D01*
X138489801Y-85185000D01*
X140446002Y-83228800D01*
X140475000Y-83205002D01*
X140569973Y-83089277D01*
X140640545Y-82957248D01*
X140684002Y-82813987D01*
X140694999Y-82702334D01*
X140694999Y-82702326D01*
X140698675Y-82665001D01*
X140694999Y-82627676D01*
X140694999Y-80390509D01*
X140918665Y-80435000D01*
X141201335Y-80435000D01*
X141383887Y-80398688D01*
X146311071Y-85325872D01*
X146267000Y-85350085D01*
X146267000Y-86493000D01*
X146287000Y-86493000D01*
X146287000Y-86747000D01*
X146267000Y-86747000D01*
X146267000Y-87889915D01*
X146489039Y-88011904D01*
X146505001Y-88007063D01*
X146505001Y-88227678D01*
X146501325Y-88265001D01*
X146505001Y-88302323D01*
X146505001Y-88302333D01*
X146515998Y-88413986D01*
X146559455Y-88557247D01*
X146630027Y-88689277D01*
X146669872Y-88737827D01*
X146725000Y-88805002D01*
X146754004Y-88828805D01*
X147965000Y-90039802D01*
X147965000Y-90101939D01*
X148004774Y-90301898D01*
X148082795Y-90490256D01*
X148196063Y-90659774D01*
X148340226Y-90803937D01*
X148509744Y-90917205D01*
X148698102Y-90995226D01*
X148898061Y-91035000D01*
X149101939Y-91035000D01*
X149301898Y-90995226D01*
X149490256Y-90917205D01*
X149659774Y-90803937D01*
X149803937Y-90659774D01*
X149917205Y-90490256D01*
X149995226Y-90301898D01*
X150035000Y-90101939D01*
X150035000Y-89898061D01*
X149995226Y-89698102D01*
X149917205Y-89509744D01*
X149803937Y-89340226D01*
X149659774Y-89196063D01*
X149490256Y-89082795D01*
X149301898Y-89004774D01*
X149101939Y-88965000D01*
X149039802Y-88965000D01*
X148025001Y-87950200D01*
X148025001Y-87901923D01*
X148261426Y-87999853D01*
X148538665Y-88055000D01*
X148821335Y-88055000D01*
X149098574Y-87999853D01*
X149359727Y-87891680D01*
X149594759Y-87734637D01*
X149794637Y-87534759D01*
X149950000Y-87302241D01*
X150105363Y-87534759D01*
X150305241Y-87734637D01*
X150540273Y-87891680D01*
X150801426Y-87999853D01*
X151078665Y-88055000D01*
X151361335Y-88055000D01*
X151638574Y-87999853D01*
X151899727Y-87891680D01*
X152134759Y-87734637D01*
X152334637Y-87534759D01*
X152490000Y-87302241D01*
X152645363Y-87534759D01*
X152845241Y-87734637D01*
X153080273Y-87891680D01*
X153341426Y-87999853D01*
X153618665Y-88055000D01*
X153901335Y-88055000D01*
X154178574Y-87999853D01*
X154439727Y-87891680D01*
X154674759Y-87734637D01*
X154874637Y-87534759D01*
X155030000Y-87302241D01*
X155185363Y-87534759D01*
X155385241Y-87734637D01*
X155620273Y-87891680D01*
X155881426Y-87999853D01*
X156158665Y-88055000D01*
X156441335Y-88055000D01*
X156718574Y-87999853D01*
X156979727Y-87891680D01*
X157214759Y-87734637D01*
X157414637Y-87534759D01*
X157570000Y-87302241D01*
X157725363Y-87534759D01*
X157925241Y-87734637D01*
X158160273Y-87891680D01*
X158421426Y-87999853D01*
X158698665Y-88055000D01*
X158981335Y-88055000D01*
X159258574Y-87999853D01*
X159519727Y-87891680D01*
X159754759Y-87734637D01*
X159954637Y-87534759D01*
X160110000Y-87302241D01*
X160265363Y-87534759D01*
X160465241Y-87734637D01*
X160700273Y-87891680D01*
X160961426Y-87999853D01*
X161238665Y-88055000D01*
X161521335Y-88055000D01*
X161798574Y-87999853D01*
X162059727Y-87891680D01*
X162294759Y-87734637D01*
X162494637Y-87534759D01*
X162650000Y-87302241D01*
X162805363Y-87534759D01*
X163005241Y-87734637D01*
X163240273Y-87891680D01*
X163501426Y-87999853D01*
X163778665Y-88055000D01*
X164061335Y-88055000D01*
X164338574Y-87999853D01*
X164599727Y-87891680D01*
X164834759Y-87734637D01*
X165034637Y-87534759D01*
X165190000Y-87302241D01*
X165345363Y-87534759D01*
X165545241Y-87734637D01*
X165780273Y-87891680D01*
X166041426Y-87999853D01*
X166318665Y-88055000D01*
X166601335Y-88055000D01*
X166878574Y-87999853D01*
X167139727Y-87891680D01*
X167374759Y-87734637D01*
X167574637Y-87534759D01*
X167730000Y-87302241D01*
X167885363Y-87534759D01*
X168085241Y-87734637D01*
X168320273Y-87891680D01*
X168581426Y-87999853D01*
X168858665Y-88055000D01*
X169141335Y-88055000D01*
X169418574Y-87999853D01*
X169679727Y-87891680D01*
X169914759Y-87734637D01*
X170114637Y-87534759D01*
X170271680Y-87299727D01*
X170379853Y-87038574D01*
X170435000Y-86761335D01*
X170435000Y-86478665D01*
X170379853Y-86201426D01*
X170271680Y-85940273D01*
X170114637Y-85705241D01*
X169914759Y-85505363D01*
X169679727Y-85348320D01*
X169418574Y-85240147D01*
X169141335Y-85185000D01*
X168858665Y-85185000D01*
X168581426Y-85240147D01*
X168320273Y-85348320D01*
X168085241Y-85505363D01*
X167885363Y-85705241D01*
X167730000Y-85937759D01*
X167574637Y-85705241D01*
X167374759Y-85505363D01*
X167139727Y-85348320D01*
X166878574Y-85240147D01*
X166601335Y-85185000D01*
X166318665Y-85185000D01*
X166041426Y-85240147D01*
X165780273Y-85348320D01*
X165545241Y-85505363D01*
X165345363Y-85705241D01*
X165190000Y-85937759D01*
X165034637Y-85705241D01*
X164834759Y-85505363D01*
X164599727Y-85348320D01*
X164338574Y-85240147D01*
X164061335Y-85185000D01*
X163778665Y-85185000D01*
X163501426Y-85240147D01*
X163240273Y-85348320D01*
X163005241Y-85505363D01*
X162805363Y-85705241D01*
X162650000Y-85937759D01*
X162494637Y-85705241D01*
X162294759Y-85505363D01*
X162059727Y-85348320D01*
X161798574Y-85240147D01*
X161521335Y-85185000D01*
X161238665Y-85185000D01*
X160961426Y-85240147D01*
X160700273Y-85348320D01*
X160465241Y-85505363D01*
X160265363Y-85705241D01*
X160110000Y-85937759D01*
X159954637Y-85705241D01*
X159754759Y-85505363D01*
X159519727Y-85348320D01*
X159258574Y-85240147D01*
X158981335Y-85185000D01*
X158698665Y-85185000D01*
X158421426Y-85240147D01*
X158160273Y-85348320D01*
X157925241Y-85505363D01*
X157725363Y-85705241D01*
X157570000Y-85937759D01*
X157414637Y-85705241D01*
X157214759Y-85505363D01*
X156979727Y-85348320D01*
X156718574Y-85240147D01*
X156441335Y-85185000D01*
X156158665Y-85185000D01*
X155881426Y-85240147D01*
X155620273Y-85348320D01*
X155385241Y-85505363D01*
X155185363Y-85705241D01*
X155030000Y-85937759D01*
X154874637Y-85705241D01*
X154674759Y-85505363D01*
X154439727Y-85348320D01*
X154178574Y-85240147D01*
X153901335Y-85185000D01*
X153618665Y-85185000D01*
X153341426Y-85240147D01*
X153080273Y-85348320D01*
X152845241Y-85505363D01*
X152645363Y-85705241D01*
X152490000Y-85937759D01*
X152334637Y-85705241D01*
X152134759Y-85505363D01*
X151899727Y-85348320D01*
X151638574Y-85240147D01*
X151361335Y-85185000D01*
X151078665Y-85185000D01*
X150801426Y-85240147D01*
X150540273Y-85348320D01*
X150305241Y-85505363D01*
X150105363Y-85705241D01*
X149950000Y-85937759D01*
X149794637Y-85705241D01*
X149594759Y-85505363D01*
X149440000Y-85401957D01*
X149440000Y-84394801D01*
X153436114Y-80398688D01*
X153618665Y-80435000D01*
X153901335Y-80435000D01*
X154178574Y-80379853D01*
X154439727Y-80271680D01*
X154674759Y-80114637D01*
X154874637Y-79914759D01*
X154978043Y-79760000D01*
X155081957Y-79760000D01*
X155185363Y-79914759D01*
X155385241Y-80114637D01*
X155620273Y-80271680D01*
X155881426Y-80379853D01*
X156158665Y-80435000D01*
X156441335Y-80435000D01*
X156718574Y-80379853D01*
X156979727Y-80271680D01*
X157214759Y-80114637D01*
X157414637Y-79914759D01*
X157518043Y-79760000D01*
X157621957Y-79760000D01*
X157725363Y-79914759D01*
X157925241Y-80114637D01*
X158160273Y-80271680D01*
X158421426Y-80379853D01*
X158698665Y-80435000D01*
X158981335Y-80435000D01*
X159163886Y-80398688D01*
X159401201Y-80636003D01*
X159425000Y-80665002D01*
X159540725Y-80759975D01*
X159672754Y-80830547D01*
X159816015Y-80874004D01*
X159927668Y-80885001D01*
X159927676Y-80885001D01*
X159965001Y-80888677D01*
X160002326Y-80885001D01*
X168760200Y-80885001D01*
X172466200Y-84591002D01*
X172489999Y-84620001D01*
X172605724Y-84714974D01*
X172737753Y-84785546D01*
X172881014Y-84829003D01*
X172992667Y-84840000D01*
X172992675Y-84840000D01*
X173030000Y-84843676D01*
X173067325Y-84840000D01*
X178781957Y-84840000D01*
X178885363Y-84994759D01*
X179085241Y-85194637D01*
X179317759Y-85350000D01*
X179085241Y-85505363D01*
X178885363Y-85705241D01*
X178728320Y-85940273D01*
X178620147Y-86201426D01*
X178565000Y-86478665D01*
X178565000Y-86761335D01*
X178620147Y-87038574D01*
X178728320Y-87299727D01*
X178885363Y-87534759D01*
X179085241Y-87734637D01*
X179319222Y-87890978D01*
X177720201Y-89490000D01*
X173829518Y-89490000D01*
X173804494Y-89469463D01*
X173694180Y-89410498D01*
X173574482Y-89374188D01*
X173450000Y-89361928D01*
X172550000Y-89361928D01*
X172425518Y-89374188D01*
X172305820Y-89410498D01*
X172195506Y-89469463D01*
X172098815Y-89548815D01*
X172019463Y-89645506D01*
X171960498Y-89755820D01*
X171924188Y-89875518D01*
X171911928Y-90000000D01*
X171911928Y-90500000D01*
X171924188Y-90624482D01*
X171960498Y-90744180D01*
X172019463Y-90854494D01*
X172098815Y-90951185D01*
X172158296Y-91000000D01*
X172098815Y-91048815D01*
X172019463Y-91145506D01*
X171960498Y-91255820D01*
X171924188Y-91375518D01*
X171911928Y-91500000D01*
X171911928Y-92000000D01*
X171924188Y-92124482D01*
X171953637Y-92221561D01*
X165413993Y-98761206D01*
X165384989Y-98785009D01*
X165336217Y-98844439D01*
X165290016Y-98900734D01*
X165264219Y-98948997D01*
X165219444Y-99032764D01*
X165175987Y-99176025D01*
X165164990Y-99287678D01*
X165164990Y-99287688D01*
X165161314Y-99325010D01*
X165164990Y-99362332D01*
X165164991Y-109727658D01*
X165161314Y-109764990D01*
X165164991Y-109802323D01*
X165175988Y-109913976D01*
X165184962Y-109943561D01*
X165219444Y-110057236D01*
X165290016Y-110189266D01*
X165361191Y-110275992D01*
X165384990Y-110304991D01*
X165413988Y-110328789D01*
X165611928Y-110526729D01*
X165611928Y-110990000D01*
X165624188Y-111114482D01*
X165660498Y-111234180D01*
X165719463Y-111344494D01*
X165798815Y-111441185D01*
X165895506Y-111520537D01*
X166005820Y-111579502D01*
X166125518Y-111615812D01*
X166250000Y-111628072D01*
X167750000Y-111628072D01*
X167874482Y-111615812D01*
X167994180Y-111579502D01*
X168104494Y-111520537D01*
X168201185Y-111441185D01*
X168280537Y-111344494D01*
X168339502Y-111234180D01*
X168375812Y-111114482D01*
X168388072Y-110990000D01*
X168388072Y-110090000D01*
X168382163Y-110030000D01*
X172477680Y-110030000D01*
X172515002Y-110033676D01*
X172552324Y-110030000D01*
X172552335Y-110030000D01*
X172663988Y-110019003D01*
X172764500Y-109988514D01*
X172764500Y-110147439D01*
X172804274Y-110347398D01*
X172882295Y-110535756D01*
X172995563Y-110705274D01*
X173139726Y-110849437D01*
X173309244Y-110962705D01*
X173497602Y-111040726D01*
X173697561Y-111080500D01*
X173759699Y-111080500D01*
X175013700Y-112334502D01*
X175037499Y-112363501D01*
X175153224Y-112458474D01*
X175285253Y-112529046D01*
X175428514Y-112572503D01*
X175540167Y-112583500D01*
X175540175Y-112583500D01*
X175577500Y-112587176D01*
X175614825Y-112583500D01*
X181914199Y-112583500D01*
X183523672Y-114192973D01*
X183330796Y-114211970D01*
X183031551Y-114302745D01*
X182755765Y-114450155D01*
X182629905Y-114553446D01*
X182585037Y-114469506D01*
X182505685Y-114372815D01*
X182408994Y-114293463D01*
X182298680Y-114234498D01*
X182178982Y-114198188D01*
X182054500Y-114185928D01*
X181387750Y-114189000D01*
X181229000Y-114347750D01*
X181229000Y-115697000D01*
X181249000Y-115697000D01*
X181249000Y-115951000D01*
X181229000Y-115951000D01*
X181229000Y-117300250D01*
X181387750Y-117459000D01*
X182054500Y-117462072D01*
X182178982Y-117449812D01*
X182298680Y-117413502D01*
X182408994Y-117354537D01*
X182505685Y-117275185D01*
X182585037Y-117178494D01*
X182629905Y-117094553D01*
X182755766Y-117197845D01*
X183031552Y-117345255D01*
X183330797Y-117436030D01*
X183642000Y-117466681D01*
X183953204Y-117436030D01*
X184252449Y-117345255D01*
X184528235Y-117197845D01*
X184769963Y-116999463D01*
X184912000Y-116826391D01*
X185054037Y-116999463D01*
X185295766Y-117197845D01*
X185571552Y-117345255D01*
X185870797Y-117436030D01*
X186182000Y-117466681D01*
X186493204Y-117436030D01*
X186792449Y-117345255D01*
X187068235Y-117197845D01*
X187309963Y-116999463D01*
X187508345Y-116757734D01*
X187655755Y-116481948D01*
X187746530Y-116182703D01*
X187769500Y-115949485D01*
X187769500Y-115698514D01*
X187746530Y-115465296D01*
X187655755Y-115166051D01*
X187508345Y-114890265D01*
X187309963Y-114648537D01*
X187068234Y-114450155D01*
X186792448Y-114302745D01*
X186493203Y-114211970D01*
X186182000Y-114181319D01*
X185870796Y-114211970D01*
X185733822Y-114253521D01*
X185287800Y-113807499D01*
X191632106Y-113807499D01*
X191848228Y-114174258D01*
X192308105Y-114414938D01*
X192806098Y-114561275D01*
X193323071Y-114607648D01*
X193839159Y-114552273D01*
X194334526Y-114397279D01*
X194751772Y-114174258D01*
X194967894Y-113807499D01*
X193300000Y-112139605D01*
X191632106Y-113807499D01*
X185287800Y-113807499D01*
X183240301Y-111760000D01*
X190672362Y-111760000D01*
X190652352Y-111983071D01*
X190707727Y-112499159D01*
X190862721Y-112994526D01*
X191085742Y-113411772D01*
X191452501Y-113627894D01*
X193120395Y-111960000D01*
X193479605Y-111960000D01*
X195147499Y-113627894D01*
X195514258Y-113411772D01*
X195754938Y-112951895D01*
X195901275Y-112453902D01*
X195947648Y-111936929D01*
X195892273Y-111420841D01*
X195737279Y-110925474D01*
X195514258Y-110508228D01*
X195147499Y-110292106D01*
X193479605Y-111960000D01*
X193120395Y-111960000D01*
X193106253Y-111945858D01*
X193285858Y-111766253D01*
X193300000Y-111780395D01*
X194967894Y-110112501D01*
X194751772Y-109745742D01*
X194291895Y-109505062D01*
X193793902Y-109358725D01*
X193556380Y-109337419D01*
X197476005Y-105417795D01*
X197505002Y-105393998D01*
X197599975Y-105278273D01*
X197670547Y-105146244D01*
X197714004Y-105002983D01*
X197725001Y-104891330D01*
X197725001Y-104891322D01*
X197728677Y-104853997D01*
X197725001Y-104816672D01*
X197725001Y-102007326D01*
X197728677Y-101970001D01*
X197725001Y-101932676D01*
X197725001Y-101932668D01*
X197714004Y-101821015D01*
X197670547Y-101677754D01*
X197599975Y-101545725D01*
X197505002Y-101430000D01*
X197476004Y-101406202D01*
X197238688Y-101168886D01*
X197275000Y-100986335D01*
X197275000Y-100703665D01*
X197219853Y-100426426D01*
X197111680Y-100165273D01*
X196954637Y-99930241D01*
X196754759Y-99730363D01*
X196519727Y-99573320D01*
X196258574Y-99465147D01*
X196232699Y-99460000D01*
X196258574Y-99454853D01*
X196519727Y-99346680D01*
X196754759Y-99189637D01*
X196954637Y-98989759D01*
X197111680Y-98754727D01*
X197219853Y-98493574D01*
X197275000Y-98216335D01*
X197275000Y-97933665D01*
X197219853Y-97656426D01*
X197111680Y-97395273D01*
X196954637Y-97160241D01*
X196754759Y-96960363D01*
X196519727Y-96803320D01*
X196258574Y-96695147D01*
X196232699Y-96690000D01*
X196258574Y-96684853D01*
X196519727Y-96576680D01*
X196754759Y-96419637D01*
X196954637Y-96219759D01*
X197111680Y-95984727D01*
X197219853Y-95723574D01*
X197275000Y-95446335D01*
X197275000Y-95163665D01*
X197219853Y-94886426D01*
X197111680Y-94625273D01*
X196954637Y-94390241D01*
X196754759Y-94190363D01*
X196519727Y-94033320D01*
X196258574Y-93925147D01*
X195981335Y-93870000D01*
X195698665Y-93870000D01*
X195421426Y-93925147D01*
X195160273Y-94033320D01*
X194925241Y-94190363D01*
X194725363Y-94390241D01*
X194654463Y-94496351D01*
X194636005Y-94481203D01*
X194398688Y-94243886D01*
X194435000Y-94061335D01*
X194435000Y-93778665D01*
X194379853Y-93501426D01*
X194271680Y-93240273D01*
X194114637Y-93005241D01*
X193914759Y-92805363D01*
X193679727Y-92648320D01*
X193418574Y-92540147D01*
X193141335Y-92485000D01*
X192858665Y-92485000D01*
X192581426Y-92540147D01*
X192320273Y-92648320D01*
X192085241Y-92805363D01*
X191885363Y-93005241D01*
X191728320Y-93240273D01*
X191620147Y-93501426D01*
X191565000Y-93778665D01*
X191565000Y-94061335D01*
X191620147Y-94338574D01*
X191728320Y-94599727D01*
X191885363Y-94834759D01*
X192085241Y-95034637D01*
X192320273Y-95191680D01*
X192581426Y-95299853D01*
X192607301Y-95305000D01*
X192581426Y-95310147D01*
X192320273Y-95418320D01*
X192085241Y-95575363D01*
X191885363Y-95775241D01*
X191728320Y-96010273D01*
X191620147Y-96271426D01*
X191565000Y-96548665D01*
X191565000Y-96831335D01*
X191594515Y-96979713D01*
X190760000Y-96145199D01*
X190760000Y-88807499D01*
X191632106Y-88807499D01*
X191848228Y-89174258D01*
X192308105Y-89414938D01*
X192806098Y-89561275D01*
X193323071Y-89607648D01*
X193839159Y-89552273D01*
X194334526Y-89397279D01*
X194751772Y-89174258D01*
X194967894Y-88807499D01*
X193300000Y-87139605D01*
X191632106Y-88807499D01*
X190760000Y-88807499D01*
X190760000Y-87666226D01*
X190862721Y-87994526D01*
X191085742Y-88411772D01*
X191452501Y-88627894D01*
X193120395Y-86960000D01*
X193479605Y-86960000D01*
X195147499Y-88627894D01*
X195514258Y-88411772D01*
X195754938Y-87951895D01*
X195901275Y-87453902D01*
X195947648Y-86936929D01*
X195892273Y-86420841D01*
X195737279Y-85925474D01*
X195514258Y-85508228D01*
X195147499Y-85292106D01*
X193479605Y-86960000D01*
X193120395Y-86960000D01*
X191452501Y-85292106D01*
X191085742Y-85508228D01*
X190845062Y-85968105D01*
X190760000Y-86257576D01*
X190760000Y-85112501D01*
X191632106Y-85112501D01*
X193300000Y-86780395D01*
X194967894Y-85112501D01*
X194751772Y-84745742D01*
X194291895Y-84505062D01*
X193793902Y-84358725D01*
X193276929Y-84312352D01*
X192760841Y-84367727D01*
X192265474Y-84522721D01*
X191848228Y-84745742D01*
X191632106Y-85112501D01*
X190760000Y-85112501D01*
X190760000Y-83957323D01*
X190763676Y-83920000D01*
X190760000Y-83882677D01*
X190760000Y-83882667D01*
X190749003Y-83771014D01*
X190705546Y-83627753D01*
X190634974Y-83495724D01*
X190540001Y-83379999D01*
X190511003Y-83356201D01*
X189018688Y-81863887D01*
X189055000Y-81681335D01*
X189055000Y-81398665D01*
X188999853Y-81121426D01*
X188891680Y-80860273D01*
X188734637Y-80625241D01*
X188534759Y-80425363D01*
X188302241Y-80270000D01*
X188534759Y-80114637D01*
X188734637Y-79914759D01*
X188891680Y-79679727D01*
X188999853Y-79418574D01*
X189055000Y-79141335D01*
X189055000Y-78858665D01*
X188999853Y-78581426D01*
X188891680Y-78320273D01*
X188734637Y-78085241D01*
X188534759Y-77885363D01*
X188299727Y-77728320D01*
X188038574Y-77620147D01*
X187761335Y-77565000D01*
X187478665Y-77565000D01*
X187201426Y-77620147D01*
X186940273Y-77728320D01*
X186705241Y-77885363D01*
X186505363Y-78085241D01*
X186348320Y-78320273D01*
X186240147Y-78581426D01*
X186185000Y-78858665D01*
X186185000Y-79141335D01*
X186240147Y-79418574D01*
X186348320Y-79679727D01*
X186505363Y-79914759D01*
X186705241Y-80114637D01*
X186937759Y-80270000D01*
X186705241Y-80425363D01*
X186505363Y-80625241D01*
X186348320Y-80860273D01*
X186240147Y-81121426D01*
X186185000Y-81398665D01*
X186185000Y-81681335D01*
X186229413Y-81904611D01*
X177813804Y-73489003D01*
X177790001Y-73459999D01*
X177674276Y-73365026D01*
X177594532Y-73322401D01*
X177589502Y-73305820D01*
X177530537Y-73195506D01*
X177451185Y-73098815D01*
X177354494Y-73019463D01*
X177244180Y-72960498D01*
X177124482Y-72924188D01*
X177000000Y-72911928D01*
X176500000Y-72911928D01*
X176375518Y-72924188D01*
X176255820Y-72960498D01*
X176145506Y-73019463D01*
X176048815Y-73098815D01*
X176000000Y-73158296D01*
X175951185Y-73098815D01*
X175854494Y-73019463D01*
X175744180Y-72960498D01*
X175624482Y-72924188D01*
X175500000Y-72911928D01*
X175000000Y-72911928D01*
X174875518Y-72924188D01*
X174755820Y-72960498D01*
X174645506Y-73019463D01*
X174548815Y-73098815D01*
X174469463Y-73195506D01*
X174445680Y-73240000D01*
X166417323Y-73240000D01*
X166380000Y-73236324D01*
X166342677Y-73240000D01*
X166342667Y-73240000D01*
X166231014Y-73250997D01*
X166087753Y-73294454D01*
X165955724Y-73365026D01*
X165839999Y-73459999D01*
X165816201Y-73488997D01*
X161703887Y-77601312D01*
X161521335Y-77565000D01*
X161238665Y-77565000D01*
X160961426Y-77620147D01*
X160700273Y-77728320D01*
X160465241Y-77885363D01*
X160265363Y-78085241D01*
X160110000Y-78317759D01*
X159954637Y-78085241D01*
X159754759Y-77885363D01*
X159519727Y-77728320D01*
X159258574Y-77620147D01*
X158981335Y-77565000D01*
X158698665Y-77565000D01*
X158421426Y-77620147D01*
X158160273Y-77728320D01*
X157925241Y-77885363D01*
X157725363Y-78085241D01*
X157621957Y-78240000D01*
X157518043Y-78240000D01*
X157414637Y-78085241D01*
X157214759Y-77885363D01*
X156979727Y-77728320D01*
X156718574Y-77620147D01*
X156441335Y-77565000D01*
X156158665Y-77565000D01*
X155881426Y-77620147D01*
X155620273Y-77728320D01*
X155385241Y-77885363D01*
X155185363Y-78085241D01*
X155081957Y-78240000D01*
X154978043Y-78240000D01*
X154874637Y-78085241D01*
X154674759Y-77885363D01*
X154439727Y-77728320D01*
X154178574Y-77620147D01*
X153901335Y-77565000D01*
X153618665Y-77565000D01*
X153436114Y-77601312D01*
X150323804Y-74489003D01*
X150300001Y-74459999D01*
X150184276Y-74365026D01*
X150052247Y-74294454D01*
X149908986Y-74250997D01*
X149797333Y-74240000D01*
X149797322Y-74240000D01*
X149760000Y-74236324D01*
X149722678Y-74240000D01*
X147554320Y-74240000D01*
X147530537Y-74195506D01*
X147451185Y-74098815D01*
X147378300Y-74039000D01*
X150330678Y-74039000D01*
X150368000Y-74042676D01*
X150405322Y-74039000D01*
X150405333Y-74039000D01*
X150516986Y-74028003D01*
X150660247Y-73984546D01*
X150792276Y-73913974D01*
X150908001Y-73819001D01*
X150931804Y-73789997D01*
X156858212Y-67863589D01*
X171615000Y-67863589D01*
X171615000Y-68136411D01*
X171668225Y-68403989D01*
X171772629Y-68656043D01*
X171924201Y-68882886D01*
X172117114Y-69075799D01*
X172343957Y-69227371D01*
X172596011Y-69331775D01*
X172863589Y-69385000D01*
X173136411Y-69385000D01*
X173403989Y-69331775D01*
X173656043Y-69227371D01*
X173882886Y-69075799D01*
X174075799Y-68882886D01*
X174227371Y-68656043D01*
X174331775Y-68403989D01*
X174385000Y-68136411D01*
X174385000Y-67863589D01*
X174331775Y-67596011D01*
X174227371Y-67343957D01*
X174075799Y-67117114D01*
X173882886Y-66924201D01*
X173656043Y-66772629D01*
X173403989Y-66668225D01*
X173136411Y-66615000D01*
X172863589Y-66615000D01*
X172596011Y-66668225D01*
X172343957Y-66772629D01*
X172117114Y-66924201D01*
X171924201Y-67117114D01*
X171772629Y-67343957D01*
X171668225Y-67596011D01*
X171615000Y-67863589D01*
X156858212Y-67863589D01*
X161420003Y-63301799D01*
X161449001Y-63278001D01*
X161543974Y-63162276D01*
X161614546Y-63030247D01*
X161628699Y-62983589D01*
X171615000Y-62983589D01*
X171615000Y-63256411D01*
X171668225Y-63523989D01*
X171772629Y-63776043D01*
X171924201Y-64002886D01*
X172117114Y-64195799D01*
X172343957Y-64347371D01*
X172596011Y-64451775D01*
X172863589Y-64505000D01*
X173136411Y-64505000D01*
X173403989Y-64451775D01*
X173656043Y-64347371D01*
X173882886Y-64195799D01*
X174075799Y-64002886D01*
X174227371Y-63776043D01*
X174331775Y-63523989D01*
X174385000Y-63256411D01*
X174385000Y-62983589D01*
X174331775Y-62716011D01*
X174227371Y-62463957D01*
X174075799Y-62237114D01*
X173882886Y-62044201D01*
X173656043Y-61892629D01*
X173403989Y-61788225D01*
X173136411Y-61735000D01*
X172863589Y-61735000D01*
X172596011Y-61788225D01*
X172343957Y-61892629D01*
X172117114Y-62044201D01*
X171924201Y-62237114D01*
X171772629Y-62463957D01*
X171668225Y-62716011D01*
X171615000Y-62983589D01*
X161628699Y-62983589D01*
X161658003Y-62886986D01*
X161669000Y-62775333D01*
X161669000Y-62775324D01*
X161672676Y-62738001D01*
X161669000Y-62700678D01*
X161669000Y-52212103D01*
X161745842Y-52243932D01*
X162032740Y-52301000D01*
X162325260Y-52301000D01*
X162612158Y-52243932D01*
X162882411Y-52131990D01*
X163125632Y-51969475D01*
X163332475Y-51762632D01*
X163449000Y-51588240D01*
X163565525Y-51762632D01*
X163772368Y-51969475D01*
X164015589Y-52131990D01*
X164285842Y-52243932D01*
X164572740Y-52301000D01*
X164865260Y-52301000D01*
X165152158Y-52243932D01*
X165422411Y-52131990D01*
X165665632Y-51969475D01*
X165872475Y-51762632D01*
X165989000Y-51588240D01*
X166105525Y-51762632D01*
X166312368Y-51969475D01*
X166555589Y-52131990D01*
X166825842Y-52243932D01*
X167112740Y-52301000D01*
X167405260Y-52301000D01*
X167692158Y-52243932D01*
X167962411Y-52131990D01*
X168205632Y-51969475D01*
X168412475Y-51762632D01*
X168529000Y-51588240D01*
X168645525Y-51762632D01*
X168852368Y-51969475D01*
X169095589Y-52131990D01*
X169365842Y-52243932D01*
X169652740Y-52301000D01*
X169945260Y-52301000D01*
X170232158Y-52243932D01*
X170502411Y-52131990D01*
X170745632Y-51969475D01*
X170952475Y-51762632D01*
X171069000Y-51588240D01*
X171185525Y-51762632D01*
X171392368Y-51969475D01*
X171635589Y-52131990D01*
X171905842Y-52243932D01*
X172192740Y-52301000D01*
X172485260Y-52301000D01*
X172772158Y-52243932D01*
X173042411Y-52131990D01*
X173285632Y-51969475D01*
X173492475Y-51762632D01*
X173609000Y-51588240D01*
X173725525Y-51762632D01*
X173932368Y-51969475D01*
X174175589Y-52131990D01*
X174445842Y-52243932D01*
X174732740Y-52301000D01*
X175025260Y-52301000D01*
X175312158Y-52243932D01*
X175582411Y-52131990D01*
X175825632Y-51969475D01*
X176032475Y-51762632D01*
X176154195Y-51580466D01*
X176223822Y-51697355D01*
X176418731Y-51913588D01*
X176652080Y-52087641D01*
X176914901Y-52212825D01*
X177062110Y-52257476D01*
X177292000Y-52136155D01*
X177292000Y-50943000D01*
X177272000Y-50943000D01*
X177272000Y-50689000D01*
X177292000Y-50689000D01*
X177292000Y-50669000D01*
X177546000Y-50669000D01*
X177546000Y-50689000D01*
X177566000Y-50689000D01*
X177566000Y-50943000D01*
X177546000Y-50943000D01*
X177546000Y-52136155D01*
X177775890Y-52257476D01*
X177923099Y-52212825D01*
X178185920Y-52087641D01*
X178419269Y-51913588D01*
X178614178Y-51697355D01*
X178683805Y-51580466D01*
X178805525Y-51762632D01*
X179012368Y-51969475D01*
X179255589Y-52131990D01*
X179525842Y-52243932D01*
X179812740Y-52301000D01*
X180105260Y-52301000D01*
X180392158Y-52243932D01*
X180662411Y-52131990D01*
X180905632Y-51969475D01*
X181112475Y-51762632D01*
X181229000Y-51588240D01*
X181345525Y-51762632D01*
X181552368Y-51969475D01*
X181795589Y-52131990D01*
X182065842Y-52243932D01*
X182352740Y-52301000D01*
X182645260Y-52301000D01*
X182932158Y-52243932D01*
X183202411Y-52131990D01*
X183445632Y-51969475D01*
X183652475Y-51762632D01*
X183769000Y-51588240D01*
X183885525Y-51762632D01*
X184092368Y-51969475D01*
X184335589Y-52131990D01*
X184605842Y-52243932D01*
X184892740Y-52301000D01*
X185185260Y-52301000D01*
X185472158Y-52243932D01*
X185742411Y-52131990D01*
X185985632Y-51969475D01*
X186192475Y-51762632D01*
X186309000Y-51588240D01*
X186425525Y-51762632D01*
X186632368Y-51969475D01*
X186875589Y-52131990D01*
X187145842Y-52243932D01*
X187432740Y-52301000D01*
X187725260Y-52301000D01*
X188012158Y-52243932D01*
X188282411Y-52131990D01*
X188525632Y-51969475D01*
X188732475Y-51762632D01*
X188849000Y-51588240D01*
X188965525Y-51762632D01*
X189172368Y-51969475D01*
X189415589Y-52131990D01*
X189685842Y-52243932D01*
X189972740Y-52301000D01*
X190265260Y-52301000D01*
X190552158Y-52243932D01*
X190822411Y-52131990D01*
X191065632Y-51969475D01*
X191272475Y-51762632D01*
X191389000Y-51588240D01*
X191505525Y-51762632D01*
X191712368Y-51969475D01*
X191955589Y-52131990D01*
X192225842Y-52243932D01*
X192512740Y-52301000D01*
X192805260Y-52301000D01*
X193092158Y-52243932D01*
X193362411Y-52131990D01*
X193605632Y-51969475D01*
X193812475Y-51762632D01*
X193934195Y-51580466D01*
X194003822Y-51697355D01*
X194198731Y-51913588D01*
X194432080Y-52087641D01*
X194694901Y-52212825D01*
X194842110Y-52257476D01*
X195072000Y-52136155D01*
X195072000Y-50943000D01*
X195326000Y-50943000D01*
X195326000Y-52136155D01*
X195555890Y-52257476D01*
X195703099Y-52212825D01*
X195965920Y-52087641D01*
X196199269Y-51913588D01*
X196394178Y-51697355D01*
X196543157Y-51447252D01*
X196640481Y-51172891D01*
X196519814Y-50943000D01*
X195326000Y-50943000D01*
X195072000Y-50943000D01*
X195052000Y-50943000D01*
X195052000Y-50689000D01*
X195072000Y-50689000D01*
X195072000Y-50669000D01*
X195326000Y-50669000D01*
X195326000Y-50689000D01*
X196519814Y-50689000D01*
X196640481Y-50459109D01*
X196543157Y-50184748D01*
X196394178Y-49934645D01*
X196199269Y-49718412D01*
X195969594Y-49547100D01*
X196145632Y-49429475D01*
X196352475Y-49222632D01*
X196514990Y-48979411D01*
X196626932Y-48709158D01*
X196684000Y-48422260D01*
X196684000Y-48129740D01*
X196634124Y-47879000D01*
X197993000Y-47879000D01*
X197993000Y-123317000D01*
G36*
X171607000Y-122873000D02*
G01*
X171627000Y-122873000D01*
X171627000Y-123127000D01*
X171607000Y-123127000D01*
X171607000Y-123147000D01*
X171353000Y-123147000D01*
X171353000Y-123127000D01*
X171333000Y-123127000D01*
X171333000Y-122873000D01*
X171353000Y-122873000D01*
X171353000Y-122853000D01*
X171607000Y-122853000D01*
X171607000Y-122873000D01*
G37*
X171607000Y-122873000D02*
X171627000Y-122873000D01*
X171627000Y-123127000D01*
X171607000Y-123127000D01*
X171607000Y-123147000D01*
X171353000Y-123147000D01*
X171353000Y-123127000D01*
X171333000Y-123127000D01*
X171333000Y-122873000D01*
X171353000Y-122873000D01*
X171353000Y-122853000D01*
X171607000Y-122853000D01*
X171607000Y-122873000D01*
G36*
X151287000Y-122873000D02*
G01*
X151307000Y-122873000D01*
X151307000Y-123127000D01*
X151287000Y-123127000D01*
X151287000Y-123147000D01*
X151033000Y-123147000D01*
X151033000Y-123127000D01*
X151013000Y-123127000D01*
X151013000Y-122873000D01*
X151033000Y-122873000D01*
X151033000Y-122853000D01*
X151287000Y-122853000D01*
X151287000Y-122873000D01*
G37*
X151287000Y-122873000D02*
X151307000Y-122873000D01*
X151307000Y-123127000D01*
X151287000Y-123127000D01*
X151287000Y-123147000D01*
X151033000Y-123147000D01*
X151033000Y-123127000D01*
X151013000Y-123127000D01*
X151013000Y-122873000D01*
X151033000Y-122873000D01*
X151033000Y-122853000D01*
X151287000Y-122853000D01*
X151287000Y-122873000D01*
G36*
X163987000Y-120333000D02*
G01*
X164007000Y-120333000D01*
X164007000Y-120587000D01*
X163987000Y-120587000D01*
X163987000Y-120607000D01*
X163733000Y-120607000D01*
X163733000Y-120587000D01*
X163713000Y-120587000D01*
X163713000Y-120333000D01*
X163733000Y-120333000D01*
X163733000Y-120313000D01*
X163987000Y-120313000D01*
X163987000Y-120333000D01*
G37*
X163987000Y-120333000D02*
X164007000Y-120333000D01*
X164007000Y-120587000D01*
X163987000Y-120587000D01*
X163987000Y-120607000D01*
X163733000Y-120607000D01*
X163733000Y-120587000D01*
X163713000Y-120587000D01*
X163713000Y-120333000D01*
X163733000Y-120333000D01*
X163733000Y-120313000D01*
X163987000Y-120313000D01*
X163987000Y-120333000D01*
G36*
X186940273Y-87891680D02*
G01*
X187201426Y-87999853D01*
X187478665Y-88055000D01*
X187761335Y-88055000D01*
X187985002Y-88010509D01*
X187985001Y-96832681D01*
X187981325Y-96870003D01*
X187985001Y-96907325D01*
X187985001Y-96907335D01*
X187995998Y-97018988D01*
X188038846Y-97160241D01*
X188039455Y-97162249D01*
X188110027Y-97294279D01*
X188149872Y-97342829D01*
X188205000Y-97410004D01*
X188234004Y-97433807D01*
X191896200Y-101096004D01*
X191919998Y-101125002D01*
X191948996Y-101148800D01*
X192035723Y-101219975D01*
X192167752Y-101290547D01*
X192271677Y-101322072D01*
X193000000Y-102050395D01*
X193728323Y-101322072D01*
X193832248Y-101290547D01*
X193964277Y-101219975D01*
X194080002Y-101125002D01*
X194103804Y-101095999D01*
X194405000Y-100794804D01*
X194405000Y-100986335D01*
X194460147Y-101263574D01*
X194568320Y-101524727D01*
X194725363Y-101759759D01*
X194925241Y-101959637D01*
X195160273Y-102116680D01*
X195421426Y-102224853D01*
X195447301Y-102230000D01*
X195421426Y-102235147D01*
X195160273Y-102343320D01*
X194925241Y-102500363D01*
X194725363Y-102700241D01*
X194568320Y-102935273D01*
X194460147Y-103196426D01*
X194405000Y-103473665D01*
X194405000Y-103756335D01*
X194460147Y-104033574D01*
X194568320Y-104294727D01*
X194725363Y-104529759D01*
X194925241Y-104729637D01*
X195160273Y-104886680D01*
X195421426Y-104994853D01*
X195694938Y-105049259D01*
X190504197Y-110240000D01*
X185897328Y-110240000D01*
X186005824Y-110077624D01*
X186091383Y-109871067D01*
X186135000Y-109651788D01*
X186135000Y-109428212D01*
X186129236Y-109399236D01*
X186158212Y-109405000D01*
X186381788Y-109405000D01*
X186601067Y-109361383D01*
X186807624Y-109275824D01*
X186993520Y-109151612D01*
X187151612Y-108993520D01*
X187275824Y-108807624D01*
X187361383Y-108601067D01*
X187405000Y-108381788D01*
X187405000Y-108158212D01*
X187361383Y-107938933D01*
X187275824Y-107732376D01*
X187151612Y-107546480D01*
X187030000Y-107424868D01*
X187030000Y-106722320D01*
X187033676Y-106684997D01*
X187030000Y-106647674D01*
X187030000Y-106647665D01*
X187019003Y-106536012D01*
X186975546Y-106392751D01*
X186904974Y-106260722D01*
X186884951Y-106236324D01*
X186833799Y-106173994D01*
X186833795Y-106173990D01*
X186810001Y-106144997D01*
X186781008Y-106121203D01*
X186459805Y-105800000D01*
X191561928Y-105800000D01*
X191574188Y-105924482D01*
X191610498Y-106044180D01*
X191669463Y-106154494D01*
X191748815Y-106251185D01*
X191845506Y-106330537D01*
X191955820Y-106389502D01*
X192075518Y-106425812D01*
X192200000Y-106438072D01*
X192714250Y-106435000D01*
X192873000Y-106276250D01*
X192873000Y-105127000D01*
X193127000Y-105127000D01*
X193127000Y-106276250D01*
X193285750Y-106435000D01*
X193800000Y-106438072D01*
X193924482Y-106425812D01*
X194044180Y-106389502D01*
X194154494Y-106330537D01*
X194251185Y-106251185D01*
X194330537Y-106154494D01*
X194389502Y-106044180D01*
X194425812Y-105924482D01*
X194438072Y-105800000D01*
X194435000Y-105285750D01*
X194276250Y-105127000D01*
X193127000Y-105127000D01*
X192873000Y-105127000D01*
X191723750Y-105127000D01*
X191565000Y-105285750D01*
X191561928Y-105800000D01*
X186459805Y-105800000D01*
X184859805Y-104200000D01*
X191561928Y-104200000D01*
X191565000Y-104714250D01*
X191723750Y-104873000D01*
X192873000Y-104873000D01*
X192873000Y-104853000D01*
X193127000Y-104853000D01*
X193127000Y-104873000D01*
X194276250Y-104873000D01*
X194435000Y-104714250D01*
X194438072Y-104200000D01*
X194425812Y-104075518D01*
X194389502Y-103955820D01*
X194330537Y-103845506D01*
X194251185Y-103748815D01*
X194154494Y-103669463D01*
X194044180Y-103610498D01*
X193924482Y-103574188D01*
X193800000Y-103561928D01*
X193532621Y-103563525D01*
X193616292Y-103533603D01*
X193741514Y-103466671D01*
X193813097Y-103222702D01*
X193000000Y-102409605D01*
X192186903Y-103222702D01*
X192258486Y-103466671D01*
X192463124Y-103563500D01*
X192200000Y-103561928D01*
X192075518Y-103574188D01*
X191955820Y-103610498D01*
X191845506Y-103669463D01*
X191748815Y-103748815D01*
X191669463Y-103845506D01*
X191610498Y-103955820D01*
X191574188Y-104075518D01*
X191561928Y-104200000D01*
X184859805Y-104200000D01*
X183243807Y-102584004D01*
X183220004Y-102555000D01*
X183156730Y-102503073D01*
X183359291Y-102300512D01*
X191559783Y-102300512D01*
X191601213Y-102580130D01*
X191696397Y-102846292D01*
X191763329Y-102971514D01*
X192007298Y-103043097D01*
X192820395Y-102230000D01*
X193179605Y-102230000D01*
X193992702Y-103043097D01*
X194236671Y-102971514D01*
X194357571Y-102716004D01*
X194426300Y-102441816D01*
X194440217Y-102159488D01*
X194398787Y-101879870D01*
X194303603Y-101613708D01*
X194236671Y-101488486D01*
X193992702Y-101416903D01*
X193179605Y-102230000D01*
X192820395Y-102230000D01*
X192007298Y-101416903D01*
X191763329Y-101488486D01*
X191642429Y-101743996D01*
X191573700Y-102018184D01*
X191559783Y-102300512D01*
X183359291Y-102300512D01*
X186511003Y-99148801D01*
X186540001Y-99125003D01*
X186608591Y-99041426D01*
X186634974Y-99009279D01*
X186705546Y-98877249D01*
X186714301Y-98848388D01*
X186749003Y-98733988D01*
X186760000Y-98622335D01*
X186760000Y-98622326D01*
X186763676Y-98585003D01*
X186760000Y-98547680D01*
X186760000Y-87771226D01*
X186940273Y-87891680D01*
G37*
X186940273Y-87891680D02*
X187201426Y-87999853D01*
X187478665Y-88055000D01*
X187761335Y-88055000D01*
X187985002Y-88010509D01*
X187985001Y-96832681D01*
X187981325Y-96870003D01*
X187985001Y-96907325D01*
X187985001Y-96907335D01*
X187995998Y-97018988D01*
X188038846Y-97160241D01*
X188039455Y-97162249D01*
X188110027Y-97294279D01*
X188149872Y-97342829D01*
X188205000Y-97410004D01*
X188234004Y-97433807D01*
X191896200Y-101096004D01*
X191919998Y-101125002D01*
X191948996Y-101148800D01*
X192035723Y-101219975D01*
X192167752Y-101290547D01*
X192271677Y-101322072D01*
X193000000Y-102050395D01*
X193728323Y-101322072D01*
X193832248Y-101290547D01*
X193964277Y-101219975D01*
X194080002Y-101125002D01*
X194103804Y-101095999D01*
X194405000Y-100794804D01*
X194405000Y-100986335D01*
X194460147Y-101263574D01*
X194568320Y-101524727D01*
X194725363Y-101759759D01*
X194925241Y-101959637D01*
X195160273Y-102116680D01*
X195421426Y-102224853D01*
X195447301Y-102230000D01*
X195421426Y-102235147D01*
X195160273Y-102343320D01*
X194925241Y-102500363D01*
X194725363Y-102700241D01*
X194568320Y-102935273D01*
X194460147Y-103196426D01*
X194405000Y-103473665D01*
X194405000Y-103756335D01*
X194460147Y-104033574D01*
X194568320Y-104294727D01*
X194725363Y-104529759D01*
X194925241Y-104729637D01*
X195160273Y-104886680D01*
X195421426Y-104994853D01*
X195694938Y-105049259D01*
X190504197Y-110240000D01*
X185897328Y-110240000D01*
X186005824Y-110077624D01*
X186091383Y-109871067D01*
X186135000Y-109651788D01*
X186135000Y-109428212D01*
X186129236Y-109399236D01*
X186158212Y-109405000D01*
X186381788Y-109405000D01*
X186601067Y-109361383D01*
X186807624Y-109275824D01*
X186993520Y-109151612D01*
X187151612Y-108993520D01*
X187275824Y-108807624D01*
X187361383Y-108601067D01*
X187405000Y-108381788D01*
X187405000Y-108158212D01*
X187361383Y-107938933D01*
X187275824Y-107732376D01*
X187151612Y-107546480D01*
X187030000Y-107424868D01*
X187030000Y-106722320D01*
X187033676Y-106684997D01*
X187030000Y-106647674D01*
X187030000Y-106647665D01*
X187019003Y-106536012D01*
X186975546Y-106392751D01*
X186904974Y-106260722D01*
X186884951Y-106236324D01*
X186833799Y-106173994D01*
X186833795Y-106173990D01*
X186810001Y-106144997D01*
X186781008Y-106121203D01*
X186459805Y-105800000D01*
X191561928Y-105800000D01*
X191574188Y-105924482D01*
X191610498Y-106044180D01*
X191669463Y-106154494D01*
X191748815Y-106251185D01*
X191845506Y-106330537D01*
X191955820Y-106389502D01*
X192075518Y-106425812D01*
X192200000Y-106438072D01*
X192714250Y-106435000D01*
X192873000Y-106276250D01*
X192873000Y-105127000D01*
X193127000Y-105127000D01*
X193127000Y-106276250D01*
X193285750Y-106435000D01*
X193800000Y-106438072D01*
X193924482Y-106425812D01*
X194044180Y-106389502D01*
X194154494Y-106330537D01*
X194251185Y-106251185D01*
X194330537Y-106154494D01*
X194389502Y-106044180D01*
X194425812Y-105924482D01*
X194438072Y-105800000D01*
X194435000Y-105285750D01*
X194276250Y-105127000D01*
X193127000Y-105127000D01*
X192873000Y-105127000D01*
X191723750Y-105127000D01*
X191565000Y-105285750D01*
X191561928Y-105800000D01*
X186459805Y-105800000D01*
X184859805Y-104200000D01*
X191561928Y-104200000D01*
X191565000Y-104714250D01*
X191723750Y-104873000D01*
X192873000Y-104873000D01*
X192873000Y-104853000D01*
X193127000Y-104853000D01*
X193127000Y-104873000D01*
X194276250Y-104873000D01*
X194435000Y-104714250D01*
X194438072Y-104200000D01*
X194425812Y-104075518D01*
X194389502Y-103955820D01*
X194330537Y-103845506D01*
X194251185Y-103748815D01*
X194154494Y-103669463D01*
X194044180Y-103610498D01*
X193924482Y-103574188D01*
X193800000Y-103561928D01*
X193532621Y-103563525D01*
X193616292Y-103533603D01*
X193741514Y-103466671D01*
X193813097Y-103222702D01*
X193000000Y-102409605D01*
X192186903Y-103222702D01*
X192258486Y-103466671D01*
X192463124Y-103563500D01*
X192200000Y-103561928D01*
X192075518Y-103574188D01*
X191955820Y-103610498D01*
X191845506Y-103669463D01*
X191748815Y-103748815D01*
X191669463Y-103845506D01*
X191610498Y-103955820D01*
X191574188Y-104075518D01*
X191561928Y-104200000D01*
X184859805Y-104200000D01*
X183243807Y-102584004D01*
X183220004Y-102555000D01*
X183156730Y-102503073D01*
X183359291Y-102300512D01*
X191559783Y-102300512D01*
X191601213Y-102580130D01*
X191696397Y-102846292D01*
X191763329Y-102971514D01*
X192007298Y-103043097D01*
X192820395Y-102230000D01*
X193179605Y-102230000D01*
X193992702Y-103043097D01*
X194236671Y-102971514D01*
X194357571Y-102716004D01*
X194426300Y-102441816D01*
X194440217Y-102159488D01*
X194398787Y-101879870D01*
X194303603Y-101613708D01*
X194236671Y-101488486D01*
X193992702Y-101416903D01*
X193179605Y-102230000D01*
X192820395Y-102230000D01*
X192007298Y-101416903D01*
X191763329Y-101488486D01*
X191642429Y-101743996D01*
X191573700Y-102018184D01*
X191559783Y-102300512D01*
X183359291Y-102300512D01*
X186511003Y-99148801D01*
X186540001Y-99125003D01*
X186608591Y-99041426D01*
X186634974Y-99009279D01*
X186705546Y-98877249D01*
X186714301Y-98848388D01*
X186749003Y-98733988D01*
X186760000Y-98622335D01*
X186760000Y-98622326D01*
X186763676Y-98585003D01*
X186760000Y-98547680D01*
X186760000Y-87771226D01*
X186940273Y-87891680D01*
G36*
X185240000Y-83064802D02*
G01*
X185240001Y-98270199D01*
X183126607Y-100383593D01*
X183125812Y-100375518D01*
X183089502Y-100255820D01*
X183030537Y-100145506D01*
X182951185Y-100048815D01*
X182854494Y-99969463D01*
X182744180Y-99910498D01*
X182624482Y-99874188D01*
X182500000Y-99861928D01*
X182285750Y-99865000D01*
X182127000Y-100023750D01*
X182127000Y-100873000D01*
X182147000Y-100873000D01*
X182147000Y-101127000D01*
X182127000Y-101127000D01*
X182127000Y-101147000D01*
X181873000Y-101147000D01*
X181873000Y-101127000D01*
X181023750Y-101127000D01*
X180986888Y-101163862D01*
X180841788Y-101135000D01*
X180618212Y-101135000D01*
X180589236Y-101140764D01*
X180595000Y-101111788D01*
X180595000Y-100888212D01*
X180551383Y-100668933D01*
X180481409Y-100500000D01*
X180861928Y-100500000D01*
X180865000Y-100714250D01*
X181023750Y-100873000D01*
X181873000Y-100873000D01*
X181873000Y-100023750D01*
X181714250Y-99865000D01*
X181500000Y-99861928D01*
X181375518Y-99874188D01*
X181255820Y-99910498D01*
X181145506Y-99969463D01*
X181048815Y-100048815D01*
X180969463Y-100145506D01*
X180910498Y-100255820D01*
X180874188Y-100375518D01*
X180861928Y-100500000D01*
X180481409Y-100500000D01*
X180465824Y-100462376D01*
X180341612Y-100276480D01*
X180183520Y-100118388D01*
X179997624Y-99994176D01*
X179791067Y-99908617D01*
X179571788Y-99865000D01*
X179348212Y-99865000D01*
X179128933Y-99908617D01*
X178922376Y-99994176D01*
X178736480Y-100118388D01*
X178614868Y-100240000D01*
X175554320Y-100240000D01*
X175530537Y-100195506D01*
X175451185Y-100098815D01*
X175354494Y-100019463D01*
X175244180Y-99960498D01*
X175124482Y-99924188D01*
X175000000Y-99911928D01*
X174500000Y-99911928D01*
X174375518Y-99924188D01*
X174255820Y-99960498D01*
X174145506Y-100019463D01*
X174048815Y-100098815D01*
X174000000Y-100158296D01*
X173951185Y-100098815D01*
X173854494Y-100019463D01*
X173744180Y-99960498D01*
X173624482Y-99924188D01*
X173500000Y-99911928D01*
X173000000Y-99911928D01*
X172875518Y-99924188D01*
X172755820Y-99960498D01*
X172645506Y-100019463D01*
X172548815Y-100098815D01*
X172469463Y-100195506D01*
X172410498Y-100305820D01*
X172374188Y-100425518D01*
X172361928Y-100550000D01*
X172361928Y-101013270D01*
X171714001Y-101661197D01*
X171684998Y-101685000D01*
X171653386Y-101723520D01*
X171590025Y-101800725D01*
X171561285Y-101854494D01*
X171519453Y-101932755D01*
X171475996Y-102076016D01*
X171464999Y-102187669D01*
X171464999Y-102187679D01*
X171461323Y-102225001D01*
X171464999Y-102262324D01*
X171465000Y-106887667D01*
X171461323Y-106924999D01*
X171465000Y-106962332D01*
X171470811Y-107021326D01*
X171475997Y-107073984D01*
X171519453Y-107217245D01*
X171590025Y-107349275D01*
X171653258Y-107426324D01*
X171684999Y-107465000D01*
X171713997Y-107488798D01*
X171911928Y-107686729D01*
X171911928Y-107750000D01*
X171924188Y-107874482D01*
X171960498Y-107994180D01*
X172019463Y-108104494D01*
X172098815Y-108201185D01*
X172195506Y-108280537D01*
X172305820Y-108339502D01*
X172355599Y-108354602D01*
X172200201Y-108510000D01*
X168257667Y-108510000D01*
X168307259Y-108417220D01*
X168369300Y-108212697D01*
X168390249Y-108000000D01*
X168369300Y-107787303D01*
X168307259Y-107582780D01*
X168206509Y-107394290D01*
X168070922Y-107229078D01*
X167905710Y-107093491D01*
X167717220Y-106992741D01*
X167512697Y-106930700D01*
X167353294Y-106915000D01*
X166684990Y-106915000D01*
X166684990Y-99639811D01*
X173511003Y-92813799D01*
X173540001Y-92790001D01*
X173584463Y-92735824D01*
X173634974Y-92674277D01*
X173677599Y-92594532D01*
X173694180Y-92589502D01*
X173804494Y-92530537D01*
X173901185Y-92451185D01*
X173980537Y-92354494D01*
X174039502Y-92244180D01*
X174075812Y-92124482D01*
X174088072Y-92000000D01*
X174088072Y-91500000D01*
X174075812Y-91375518D01*
X174039502Y-91255820D01*
X173980537Y-91145506D01*
X173901185Y-91048815D01*
X173853889Y-91010000D01*
X177403944Y-91010000D01*
X177312224Y-91059026D01*
X177196499Y-91153999D01*
X177172701Y-91182997D01*
X170648199Y-97707500D01*
X170586061Y-97707500D01*
X170386102Y-97747274D01*
X170197744Y-97825295D01*
X170028226Y-97938563D01*
X169884063Y-98082726D01*
X169770795Y-98252244D01*
X169692774Y-98440602D01*
X169653000Y-98640561D01*
X169653000Y-98844439D01*
X169692774Y-99044398D01*
X169770795Y-99232756D01*
X169884063Y-99402274D01*
X170028226Y-99546437D01*
X170197744Y-99659705D01*
X170386102Y-99737726D01*
X170586061Y-99777500D01*
X170789939Y-99777500D01*
X170989898Y-99737726D01*
X171178256Y-99659705D01*
X171347774Y-99546437D01*
X171491937Y-99402274D01*
X171605205Y-99232756D01*
X171683226Y-99044398D01*
X171723000Y-98844439D01*
X171723000Y-98782301D01*
X178051302Y-92454000D01*
X179569822Y-92454000D01*
X179694525Y-92640632D01*
X179901368Y-92847475D01*
X180144589Y-93009990D01*
X180414842Y-93121932D01*
X180701740Y-93179000D01*
X180994260Y-93179000D01*
X181281158Y-93121932D01*
X181551411Y-93009990D01*
X181794632Y-92847475D01*
X181926487Y-92715620D01*
X181948498Y-92788180D01*
X182007463Y-92898494D01*
X182086815Y-92995185D01*
X182183506Y-93074537D01*
X182293820Y-93133502D01*
X182413518Y-93169812D01*
X182538000Y-93182072D01*
X184238000Y-93182072D01*
X184362482Y-93169812D01*
X184482180Y-93133502D01*
X184592494Y-93074537D01*
X184689185Y-92995185D01*
X184768537Y-92898494D01*
X184827502Y-92788180D01*
X184863812Y-92668482D01*
X184876072Y-92544000D01*
X184876072Y-90844000D01*
X184863812Y-90719518D01*
X184827502Y-90599820D01*
X184768537Y-90489506D01*
X184689185Y-90392815D01*
X184592494Y-90313463D01*
X184482180Y-90254498D01*
X184362482Y-90218188D01*
X184238000Y-90205928D01*
X182538000Y-90205928D01*
X182413518Y-90218188D01*
X182293820Y-90254498D01*
X182183506Y-90313463D01*
X182086815Y-90392815D01*
X182007463Y-90489506D01*
X181948498Y-90599820D01*
X181926487Y-90672380D01*
X181794632Y-90540525D01*
X181551411Y-90378010D01*
X181281158Y-90266068D01*
X180994260Y-90209000D01*
X180701740Y-90209000D01*
X180414842Y-90266068D01*
X180144589Y-90378010D01*
X179901368Y-90540525D01*
X179694525Y-90747368D01*
X179569822Y-90934000D01*
X178367558Y-90934000D01*
X178459278Y-90884974D01*
X178575003Y-90790001D01*
X178598806Y-90760997D01*
X181636009Y-87723796D01*
X181665002Y-87700002D01*
X181688796Y-87671009D01*
X181688800Y-87671005D01*
X181759974Y-87584278D01*
X181759975Y-87584277D01*
X181830547Y-87452248D01*
X181874004Y-87308987D01*
X181885001Y-87197334D01*
X181885001Y-87197325D01*
X181888677Y-87160002D01*
X181885001Y-87122679D01*
X181885001Y-81037321D01*
X181888677Y-80999998D01*
X181885001Y-80962675D01*
X181885001Y-80962666D01*
X181874004Y-80851013D01*
X181830547Y-80707752D01*
X181792196Y-80636003D01*
X181759975Y-80575722D01*
X181688800Y-80488996D01*
X181665002Y-80459998D01*
X181636005Y-80436201D01*
X181338814Y-80139010D01*
X181389502Y-80044180D01*
X181425812Y-79924482D01*
X181438072Y-79800000D01*
X181438072Y-79262874D01*
X185240000Y-83064802D01*
G37*
X185240000Y-83064802D02*
X185240001Y-98270199D01*
X183126607Y-100383593D01*
X183125812Y-100375518D01*
X183089502Y-100255820D01*
X183030537Y-100145506D01*
X182951185Y-100048815D01*
X182854494Y-99969463D01*
X182744180Y-99910498D01*
X182624482Y-99874188D01*
X182500000Y-99861928D01*
X182285750Y-99865000D01*
X182127000Y-100023750D01*
X182127000Y-100873000D01*
X182147000Y-100873000D01*
X182147000Y-101127000D01*
X182127000Y-101127000D01*
X182127000Y-101147000D01*
X181873000Y-101147000D01*
X181873000Y-101127000D01*
X181023750Y-101127000D01*
X180986888Y-101163862D01*
X180841788Y-101135000D01*
X180618212Y-101135000D01*
X180589236Y-101140764D01*
X180595000Y-101111788D01*
X180595000Y-100888212D01*
X180551383Y-100668933D01*
X180481409Y-100500000D01*
X180861928Y-100500000D01*
X180865000Y-100714250D01*
X181023750Y-100873000D01*
X181873000Y-100873000D01*
X181873000Y-100023750D01*
X181714250Y-99865000D01*
X181500000Y-99861928D01*
X181375518Y-99874188D01*
X181255820Y-99910498D01*
X181145506Y-99969463D01*
X181048815Y-100048815D01*
X180969463Y-100145506D01*
X180910498Y-100255820D01*
X180874188Y-100375518D01*
X180861928Y-100500000D01*
X180481409Y-100500000D01*
X180465824Y-100462376D01*
X180341612Y-100276480D01*
X180183520Y-100118388D01*
X179997624Y-99994176D01*
X179791067Y-99908617D01*
X179571788Y-99865000D01*
X179348212Y-99865000D01*
X179128933Y-99908617D01*
X178922376Y-99994176D01*
X178736480Y-100118388D01*
X178614868Y-100240000D01*
X175554320Y-100240000D01*
X175530537Y-100195506D01*
X175451185Y-100098815D01*
X175354494Y-100019463D01*
X175244180Y-99960498D01*
X175124482Y-99924188D01*
X175000000Y-99911928D01*
X174500000Y-99911928D01*
X174375518Y-99924188D01*
X174255820Y-99960498D01*
X174145506Y-100019463D01*
X174048815Y-100098815D01*
X174000000Y-100158296D01*
X173951185Y-100098815D01*
X173854494Y-100019463D01*
X173744180Y-99960498D01*
X173624482Y-99924188D01*
X173500000Y-99911928D01*
X173000000Y-99911928D01*
X172875518Y-99924188D01*
X172755820Y-99960498D01*
X172645506Y-100019463D01*
X172548815Y-100098815D01*
X172469463Y-100195506D01*
X172410498Y-100305820D01*
X172374188Y-100425518D01*
X172361928Y-100550000D01*
X172361928Y-101013270D01*
X171714001Y-101661197D01*
X171684998Y-101685000D01*
X171653386Y-101723520D01*
X171590025Y-101800725D01*
X171561285Y-101854494D01*
X171519453Y-101932755D01*
X171475996Y-102076016D01*
X171464999Y-102187669D01*
X171464999Y-102187679D01*
X171461323Y-102225001D01*
X171464999Y-102262324D01*
X171465000Y-106887667D01*
X171461323Y-106924999D01*
X171465000Y-106962332D01*
X171470811Y-107021326D01*
X171475997Y-107073984D01*
X171519453Y-107217245D01*
X171590025Y-107349275D01*
X171653258Y-107426324D01*
X171684999Y-107465000D01*
X171713997Y-107488798D01*
X171911928Y-107686729D01*
X171911928Y-107750000D01*
X171924188Y-107874482D01*
X171960498Y-107994180D01*
X172019463Y-108104494D01*
X172098815Y-108201185D01*
X172195506Y-108280537D01*
X172305820Y-108339502D01*
X172355599Y-108354602D01*
X172200201Y-108510000D01*
X168257667Y-108510000D01*
X168307259Y-108417220D01*
X168369300Y-108212697D01*
X168390249Y-108000000D01*
X168369300Y-107787303D01*
X168307259Y-107582780D01*
X168206509Y-107394290D01*
X168070922Y-107229078D01*
X167905710Y-107093491D01*
X167717220Y-106992741D01*
X167512697Y-106930700D01*
X167353294Y-106915000D01*
X166684990Y-106915000D01*
X166684990Y-99639811D01*
X173511003Y-92813799D01*
X173540001Y-92790001D01*
X173584463Y-92735824D01*
X173634974Y-92674277D01*
X173677599Y-92594532D01*
X173694180Y-92589502D01*
X173804494Y-92530537D01*
X173901185Y-92451185D01*
X173980537Y-92354494D01*
X174039502Y-92244180D01*
X174075812Y-92124482D01*
X174088072Y-92000000D01*
X174088072Y-91500000D01*
X174075812Y-91375518D01*
X174039502Y-91255820D01*
X173980537Y-91145506D01*
X173901185Y-91048815D01*
X173853889Y-91010000D01*
X177403944Y-91010000D01*
X177312224Y-91059026D01*
X177196499Y-91153999D01*
X177172701Y-91182997D01*
X170648199Y-97707500D01*
X170586061Y-97707500D01*
X170386102Y-97747274D01*
X170197744Y-97825295D01*
X170028226Y-97938563D01*
X169884063Y-98082726D01*
X169770795Y-98252244D01*
X169692774Y-98440602D01*
X169653000Y-98640561D01*
X169653000Y-98844439D01*
X169692774Y-99044398D01*
X169770795Y-99232756D01*
X169884063Y-99402274D01*
X170028226Y-99546437D01*
X170197744Y-99659705D01*
X170386102Y-99737726D01*
X170586061Y-99777500D01*
X170789939Y-99777500D01*
X170989898Y-99737726D01*
X171178256Y-99659705D01*
X171347774Y-99546437D01*
X171491937Y-99402274D01*
X171605205Y-99232756D01*
X171683226Y-99044398D01*
X171723000Y-98844439D01*
X171723000Y-98782301D01*
X178051302Y-92454000D01*
X179569822Y-92454000D01*
X179694525Y-92640632D01*
X179901368Y-92847475D01*
X180144589Y-93009990D01*
X180414842Y-93121932D01*
X180701740Y-93179000D01*
X180994260Y-93179000D01*
X181281158Y-93121932D01*
X181551411Y-93009990D01*
X181794632Y-92847475D01*
X181926487Y-92715620D01*
X181948498Y-92788180D01*
X182007463Y-92898494D01*
X182086815Y-92995185D01*
X182183506Y-93074537D01*
X182293820Y-93133502D01*
X182413518Y-93169812D01*
X182538000Y-93182072D01*
X184238000Y-93182072D01*
X184362482Y-93169812D01*
X184482180Y-93133502D01*
X184592494Y-93074537D01*
X184689185Y-92995185D01*
X184768537Y-92898494D01*
X184827502Y-92788180D01*
X184863812Y-92668482D01*
X184876072Y-92544000D01*
X184876072Y-90844000D01*
X184863812Y-90719518D01*
X184827502Y-90599820D01*
X184768537Y-90489506D01*
X184689185Y-90392815D01*
X184592494Y-90313463D01*
X184482180Y-90254498D01*
X184362482Y-90218188D01*
X184238000Y-90205928D01*
X182538000Y-90205928D01*
X182413518Y-90218188D01*
X182293820Y-90254498D01*
X182183506Y-90313463D01*
X182086815Y-90392815D01*
X182007463Y-90489506D01*
X181948498Y-90599820D01*
X181926487Y-90672380D01*
X181794632Y-90540525D01*
X181551411Y-90378010D01*
X181281158Y-90266068D01*
X180994260Y-90209000D01*
X180701740Y-90209000D01*
X180414842Y-90266068D01*
X180144589Y-90378010D01*
X179901368Y-90540525D01*
X179694525Y-90747368D01*
X179569822Y-90934000D01*
X178367558Y-90934000D01*
X178459278Y-90884974D01*
X178575003Y-90790001D01*
X178598806Y-90760997D01*
X181636009Y-87723796D01*
X181665002Y-87700002D01*
X181688796Y-87671009D01*
X181688800Y-87671005D01*
X181759974Y-87584278D01*
X181759975Y-87584277D01*
X181830547Y-87452248D01*
X181874004Y-87308987D01*
X181885001Y-87197334D01*
X181885001Y-87197325D01*
X181888677Y-87160002D01*
X181885001Y-87122679D01*
X181885001Y-81037321D01*
X181888677Y-80999998D01*
X181885001Y-80962675D01*
X181885001Y-80962666D01*
X181874004Y-80851013D01*
X181830547Y-80707752D01*
X181792196Y-80636003D01*
X181759975Y-80575722D01*
X181688800Y-80488996D01*
X181665002Y-80459998D01*
X181636005Y-80436201D01*
X181338814Y-80139010D01*
X181389502Y-80044180D01*
X181425812Y-79924482D01*
X181438072Y-79800000D01*
X181438072Y-79262874D01*
X185240000Y-83064802D01*
G36*
X139848415Y-98676111D02*
G01*
X139732376Y-98724176D01*
X139546480Y-98848388D01*
X139388388Y-99006480D01*
X139264176Y-99192376D01*
X139178617Y-99398933D01*
X139135000Y-99618212D01*
X139135000Y-99841788D01*
X139163862Y-99986888D01*
X139127000Y-100023750D01*
X139127000Y-100873000D01*
X139147000Y-100873000D01*
X139147000Y-101127000D01*
X139127000Y-101127000D01*
X139127000Y-101976250D01*
X139285750Y-102135000D01*
X139500000Y-102138072D01*
X139510001Y-102137087D01*
X139510000Y-107865000D01*
X139348212Y-107865000D01*
X139128933Y-107908617D01*
X138922376Y-107994176D01*
X138736480Y-108118388D01*
X138584334Y-108270534D01*
X132984999Y-102671200D01*
X132984999Y-101500000D01*
X137861928Y-101500000D01*
X137874188Y-101624482D01*
X137910498Y-101744180D01*
X137969463Y-101854494D01*
X138048815Y-101951185D01*
X138145506Y-102030537D01*
X138255820Y-102089502D01*
X138375518Y-102125812D01*
X138500000Y-102138072D01*
X138714250Y-102135000D01*
X138873000Y-101976250D01*
X138873000Y-101127000D01*
X138023750Y-101127000D01*
X137865000Y-101285750D01*
X137861928Y-101500000D01*
X132984999Y-101500000D01*
X132984999Y-100500000D01*
X137861928Y-100500000D01*
X137865000Y-100714250D01*
X138023750Y-100873000D01*
X138873000Y-100873000D01*
X138873000Y-100023750D01*
X138714250Y-99865000D01*
X138500000Y-99861928D01*
X138375518Y-99874188D01*
X138255820Y-99910498D01*
X138145506Y-99969463D01*
X138048815Y-100048815D01*
X137969463Y-100145506D01*
X137910498Y-100255820D01*
X137874188Y-100375518D01*
X137861928Y-100500000D01*
X132984999Y-100500000D01*
X132984999Y-93638072D01*
X133450000Y-93638072D01*
X133574482Y-93625812D01*
X133694180Y-93589502D01*
X133804494Y-93530537D01*
X133829518Y-93510000D01*
X134682305Y-93510000D01*
X139848415Y-98676111D01*
G37*
X139848415Y-98676111D02*
X139732376Y-98724176D01*
X139546480Y-98848388D01*
X139388388Y-99006480D01*
X139264176Y-99192376D01*
X139178617Y-99398933D01*
X139135000Y-99618212D01*
X139135000Y-99841788D01*
X139163862Y-99986888D01*
X139127000Y-100023750D01*
X139127000Y-100873000D01*
X139147000Y-100873000D01*
X139147000Y-101127000D01*
X139127000Y-101127000D01*
X139127000Y-101976250D01*
X139285750Y-102135000D01*
X139500000Y-102138072D01*
X139510001Y-102137087D01*
X139510000Y-107865000D01*
X139348212Y-107865000D01*
X139128933Y-107908617D01*
X138922376Y-107994176D01*
X138736480Y-108118388D01*
X138584334Y-108270534D01*
X132984999Y-102671200D01*
X132984999Y-101500000D01*
X137861928Y-101500000D01*
X137874188Y-101624482D01*
X137910498Y-101744180D01*
X137969463Y-101854494D01*
X138048815Y-101951185D01*
X138145506Y-102030537D01*
X138255820Y-102089502D01*
X138375518Y-102125812D01*
X138500000Y-102138072D01*
X138714250Y-102135000D01*
X138873000Y-101976250D01*
X138873000Y-101127000D01*
X138023750Y-101127000D01*
X137865000Y-101285750D01*
X137861928Y-101500000D01*
X132984999Y-101500000D01*
X132984999Y-100500000D01*
X137861928Y-100500000D01*
X137865000Y-100714250D01*
X138023750Y-100873000D01*
X138873000Y-100873000D01*
X138873000Y-100023750D01*
X138714250Y-99865000D01*
X138500000Y-99861928D01*
X138375518Y-99874188D01*
X138255820Y-99910498D01*
X138145506Y-99969463D01*
X138048815Y-100048815D01*
X137969463Y-100145506D01*
X137910498Y-100255820D01*
X137874188Y-100375518D01*
X137861928Y-100500000D01*
X132984999Y-100500000D01*
X132984999Y-93638072D01*
X133450000Y-93638072D01*
X133574482Y-93625812D01*
X133694180Y-93589502D01*
X133804494Y-93530537D01*
X133829518Y-93510000D01*
X134682305Y-93510000D01*
X139848415Y-98676111D01*
G36*
X151391071Y-77705872D02*
G01*
X151347000Y-77730085D01*
X151347000Y-78873000D01*
X151367000Y-78873000D01*
X151367000Y-79127000D01*
X151347000Y-79127000D01*
X151347000Y-80269915D01*
X151391071Y-80294128D01*
X148168998Y-83516201D01*
X148140000Y-83539999D01*
X148116202Y-83568997D01*
X148116201Y-83568998D01*
X148045026Y-83655724D01*
X147974454Y-83787754D01*
X147945664Y-83882667D01*
X147930998Y-83931014D01*
X147920001Y-84042667D01*
X147916324Y-84080000D01*
X147920001Y-84117332D01*
X147920001Y-84818190D01*
X147902552Y-84785546D01*
X147899975Y-84780724D01*
X147828800Y-84693998D01*
X147805002Y-84665000D01*
X147776004Y-84641202D01*
X143569801Y-80435000D01*
X143741335Y-80435000D01*
X144018574Y-80379853D01*
X144279727Y-80271680D01*
X144514759Y-80114637D01*
X144714637Y-79914759D01*
X144870000Y-79682241D01*
X145025363Y-79914759D01*
X145225241Y-80114637D01*
X145460273Y-80271680D01*
X145721426Y-80379853D01*
X145998665Y-80435000D01*
X146281335Y-80435000D01*
X146558574Y-80379853D01*
X146819727Y-80271680D01*
X147054759Y-80114637D01*
X147254637Y-79914759D01*
X147410000Y-79682241D01*
X147565363Y-79914759D01*
X147765241Y-80114637D01*
X148000273Y-80271680D01*
X148261426Y-80379853D01*
X148538665Y-80435000D01*
X148821335Y-80435000D01*
X149098574Y-80379853D01*
X149359727Y-80271680D01*
X149594759Y-80114637D01*
X149794637Y-79914759D01*
X149951680Y-79679727D01*
X149956067Y-79669135D01*
X150067615Y-79855131D01*
X150256586Y-80063519D01*
X150482580Y-80231037D01*
X150736913Y-80351246D01*
X150870961Y-80391904D01*
X151093000Y-80269915D01*
X151093000Y-79127000D01*
X151073000Y-79127000D01*
X151073000Y-78873000D01*
X151093000Y-78873000D01*
X151093000Y-77730085D01*
X150870961Y-77608096D01*
X150736913Y-77648754D01*
X150482580Y-77768963D01*
X150256586Y-77936481D01*
X150067615Y-78144869D01*
X149956067Y-78330865D01*
X149951680Y-78320273D01*
X149794637Y-78085241D01*
X149594759Y-77885363D01*
X149359727Y-77728320D01*
X149098574Y-77620147D01*
X148821335Y-77565000D01*
X148538665Y-77565000D01*
X148261426Y-77620147D01*
X148000273Y-77728320D01*
X147765241Y-77885363D01*
X147565363Y-78085241D01*
X147410000Y-78317759D01*
X147254637Y-78085241D01*
X147054759Y-77885363D01*
X146819727Y-77728320D01*
X146558574Y-77620147D01*
X146281335Y-77565000D01*
X145998665Y-77565000D01*
X145721426Y-77620147D01*
X145460273Y-77728320D01*
X145225241Y-77885363D01*
X145025363Y-78085241D01*
X144870000Y-78317759D01*
X144804728Y-78220073D01*
X146936730Y-76088072D01*
X147000000Y-76088072D01*
X147124482Y-76075812D01*
X147244180Y-76039502D01*
X147354494Y-75980537D01*
X147451185Y-75901185D01*
X147530537Y-75804494D01*
X147554320Y-75760000D01*
X149445199Y-75760000D01*
X151391071Y-77705872D01*
G37*
X151391071Y-77705872D02*
X151347000Y-77730085D01*
X151347000Y-78873000D01*
X151367000Y-78873000D01*
X151367000Y-79127000D01*
X151347000Y-79127000D01*
X151347000Y-80269915D01*
X151391071Y-80294128D01*
X148168998Y-83516201D01*
X148140000Y-83539999D01*
X148116202Y-83568997D01*
X148116201Y-83568998D01*
X148045026Y-83655724D01*
X147974454Y-83787754D01*
X147945664Y-83882667D01*
X147930998Y-83931014D01*
X147920001Y-84042667D01*
X147916324Y-84080000D01*
X147920001Y-84117332D01*
X147920001Y-84818190D01*
X147902552Y-84785546D01*
X147899975Y-84780724D01*
X147828800Y-84693998D01*
X147805002Y-84665000D01*
X147776004Y-84641202D01*
X143569801Y-80435000D01*
X143741335Y-80435000D01*
X144018574Y-80379853D01*
X144279727Y-80271680D01*
X144514759Y-80114637D01*
X144714637Y-79914759D01*
X144870000Y-79682241D01*
X145025363Y-79914759D01*
X145225241Y-80114637D01*
X145460273Y-80271680D01*
X145721426Y-80379853D01*
X145998665Y-80435000D01*
X146281335Y-80435000D01*
X146558574Y-80379853D01*
X146819727Y-80271680D01*
X147054759Y-80114637D01*
X147254637Y-79914759D01*
X147410000Y-79682241D01*
X147565363Y-79914759D01*
X147765241Y-80114637D01*
X148000273Y-80271680D01*
X148261426Y-80379853D01*
X148538665Y-80435000D01*
X148821335Y-80435000D01*
X149098574Y-80379853D01*
X149359727Y-80271680D01*
X149594759Y-80114637D01*
X149794637Y-79914759D01*
X149951680Y-79679727D01*
X149956067Y-79669135D01*
X150067615Y-79855131D01*
X150256586Y-80063519D01*
X150482580Y-80231037D01*
X150736913Y-80351246D01*
X150870961Y-80391904D01*
X151093000Y-80269915D01*
X151093000Y-79127000D01*
X151073000Y-79127000D01*
X151073000Y-78873000D01*
X151093000Y-78873000D01*
X151093000Y-77730085D01*
X150870961Y-77608096D01*
X150736913Y-77648754D01*
X150482580Y-77768963D01*
X150256586Y-77936481D01*
X150067615Y-78144869D01*
X149956067Y-78330865D01*
X149951680Y-78320273D01*
X149794637Y-78085241D01*
X149594759Y-77885363D01*
X149359727Y-77728320D01*
X149098574Y-77620147D01*
X148821335Y-77565000D01*
X148538665Y-77565000D01*
X148261426Y-77620147D01*
X148000273Y-77728320D01*
X147765241Y-77885363D01*
X147565363Y-78085241D01*
X147410000Y-78317759D01*
X147254637Y-78085241D01*
X147054759Y-77885363D01*
X146819727Y-77728320D01*
X146558574Y-77620147D01*
X146281335Y-77565000D01*
X145998665Y-77565000D01*
X145721426Y-77620147D01*
X145460273Y-77728320D01*
X145225241Y-77885363D01*
X145025363Y-78085241D01*
X144870000Y-78317759D01*
X144804728Y-78220073D01*
X146936730Y-76088072D01*
X147000000Y-76088072D01*
X147124482Y-76075812D01*
X147244180Y-76039502D01*
X147354494Y-75980537D01*
X147451185Y-75901185D01*
X147530537Y-75804494D01*
X147554320Y-75760000D01*
X149445199Y-75760000D01*
X151391071Y-77705872D01*
G36*
X174469463Y-74804494D02*
G01*
X174548815Y-74901185D01*
X174645506Y-74980537D01*
X174755820Y-75039502D01*
X174875518Y-75075812D01*
X175000000Y-75088072D01*
X175500000Y-75088072D01*
X175624482Y-75075812D01*
X175744180Y-75039502D01*
X175854494Y-74980537D01*
X175951185Y-74901185D01*
X176000000Y-74841704D01*
X176048815Y-74901185D01*
X176145506Y-74980537D01*
X176255820Y-75039502D01*
X176375518Y-75075812D01*
X176500000Y-75088072D01*
X177000000Y-75088072D01*
X177124482Y-75075812D01*
X177221562Y-75046363D01*
X179737127Y-77561928D01*
X179200000Y-77561928D01*
X179075518Y-77574188D01*
X178955820Y-77610498D01*
X178845506Y-77669463D01*
X178748815Y-77748815D01*
X178669463Y-77845506D01*
X178610498Y-77955820D01*
X178574188Y-78075518D01*
X178561928Y-78200000D01*
X178561928Y-79365001D01*
X175439803Y-79365001D01*
X175035000Y-78960199D01*
X175035000Y-78898061D01*
X174995226Y-78698102D01*
X174917205Y-78509744D01*
X174803937Y-78340226D01*
X174659774Y-78196063D01*
X174490256Y-78082795D01*
X174301898Y-78004774D01*
X174101939Y-77965000D01*
X173898061Y-77965000D01*
X173698102Y-78004774D01*
X173509744Y-78082795D01*
X173340226Y-78196063D01*
X173196063Y-78340226D01*
X173082795Y-78509744D01*
X173004774Y-78698102D01*
X172965000Y-78898061D01*
X172965000Y-79101939D01*
X173004774Y-79301898D01*
X173082795Y-79490256D01*
X173196063Y-79659774D01*
X173340226Y-79803937D01*
X173509744Y-79917205D01*
X173698102Y-79995226D01*
X173898061Y-80035000D01*
X173960199Y-80035000D01*
X174561201Y-80636003D01*
X174585000Y-80665002D01*
X174700725Y-80759975D01*
X174832754Y-80830547D01*
X174976015Y-80874004D01*
X175087668Y-80885001D01*
X175087676Y-80885001D01*
X175125001Y-80888677D01*
X175162326Y-80885001D01*
X178730007Y-80885001D01*
X178648754Y-81056913D01*
X178608096Y-81190961D01*
X178730085Y-81413000D01*
X179873000Y-81413000D01*
X179873000Y-81393000D01*
X180127000Y-81393000D01*
X180127000Y-81413000D01*
X180147000Y-81413000D01*
X180147000Y-81667000D01*
X180127000Y-81667000D01*
X180127000Y-81687000D01*
X179873000Y-81687000D01*
X179873000Y-81667000D01*
X178730085Y-81667000D01*
X178608096Y-81889039D01*
X178648754Y-82023087D01*
X178768963Y-82277420D01*
X178936481Y-82503414D01*
X179144869Y-82692385D01*
X179330865Y-82803933D01*
X179320273Y-82808320D01*
X179085241Y-82965363D01*
X178885363Y-83165241D01*
X178781957Y-83320000D01*
X173344802Y-83320000D01*
X170262364Y-80237563D01*
X170330537Y-80154494D01*
X170389502Y-80044180D01*
X170425812Y-79924482D01*
X170438072Y-79800000D01*
X170438072Y-78200000D01*
X170425812Y-78075518D01*
X170389502Y-77955820D01*
X170330537Y-77845506D01*
X170251185Y-77748815D01*
X170154494Y-77669463D01*
X170044180Y-77610498D01*
X169924482Y-77574188D01*
X169800000Y-77561928D01*
X168200000Y-77561928D01*
X168075518Y-77574188D01*
X167955820Y-77610498D01*
X167845506Y-77669463D01*
X167748815Y-77748815D01*
X167669463Y-77845506D01*
X167610498Y-77955820D01*
X167574188Y-78075518D01*
X167573357Y-78083961D01*
X167374759Y-77885363D01*
X167139727Y-77728320D01*
X166878574Y-77620147D01*
X166601335Y-77565000D01*
X166318665Y-77565000D01*
X166041426Y-77620147D01*
X165780273Y-77728320D01*
X165545241Y-77885363D01*
X165345363Y-78085241D01*
X165190000Y-78317759D01*
X165034637Y-78085241D01*
X164834759Y-77885363D01*
X164599727Y-77728320D01*
X164338574Y-77620147D01*
X164061335Y-77565000D01*
X163889801Y-77565000D01*
X166694802Y-74760000D01*
X174445680Y-74760000D01*
X174469463Y-74804494D01*
G37*
X174469463Y-74804494D02*
X174548815Y-74901185D01*
X174645506Y-74980537D01*
X174755820Y-75039502D01*
X174875518Y-75075812D01*
X175000000Y-75088072D01*
X175500000Y-75088072D01*
X175624482Y-75075812D01*
X175744180Y-75039502D01*
X175854494Y-74980537D01*
X175951185Y-74901185D01*
X176000000Y-74841704D01*
X176048815Y-74901185D01*
X176145506Y-74980537D01*
X176255820Y-75039502D01*
X176375518Y-75075812D01*
X176500000Y-75088072D01*
X177000000Y-75088072D01*
X177124482Y-75075812D01*
X177221562Y-75046363D01*
X179737127Y-77561928D01*
X179200000Y-77561928D01*
X179075518Y-77574188D01*
X178955820Y-77610498D01*
X178845506Y-77669463D01*
X178748815Y-77748815D01*
X178669463Y-77845506D01*
X178610498Y-77955820D01*
X178574188Y-78075518D01*
X178561928Y-78200000D01*
X178561928Y-79365001D01*
X175439803Y-79365001D01*
X175035000Y-78960199D01*
X175035000Y-78898061D01*
X174995226Y-78698102D01*
X174917205Y-78509744D01*
X174803937Y-78340226D01*
X174659774Y-78196063D01*
X174490256Y-78082795D01*
X174301898Y-78004774D01*
X174101939Y-77965000D01*
X173898061Y-77965000D01*
X173698102Y-78004774D01*
X173509744Y-78082795D01*
X173340226Y-78196063D01*
X173196063Y-78340226D01*
X173082795Y-78509744D01*
X173004774Y-78698102D01*
X172965000Y-78898061D01*
X172965000Y-79101939D01*
X173004774Y-79301898D01*
X173082795Y-79490256D01*
X173196063Y-79659774D01*
X173340226Y-79803937D01*
X173509744Y-79917205D01*
X173698102Y-79995226D01*
X173898061Y-80035000D01*
X173960199Y-80035000D01*
X174561201Y-80636003D01*
X174585000Y-80665002D01*
X174700725Y-80759975D01*
X174832754Y-80830547D01*
X174976015Y-80874004D01*
X175087668Y-80885001D01*
X175087676Y-80885001D01*
X175125001Y-80888677D01*
X175162326Y-80885001D01*
X178730007Y-80885001D01*
X178648754Y-81056913D01*
X178608096Y-81190961D01*
X178730085Y-81413000D01*
X179873000Y-81413000D01*
X179873000Y-81393000D01*
X180127000Y-81393000D01*
X180127000Y-81413000D01*
X180147000Y-81413000D01*
X180147000Y-81667000D01*
X180127000Y-81667000D01*
X180127000Y-81687000D01*
X179873000Y-81687000D01*
X179873000Y-81667000D01*
X178730085Y-81667000D01*
X178608096Y-81889039D01*
X178648754Y-82023087D01*
X178768963Y-82277420D01*
X178936481Y-82503414D01*
X179144869Y-82692385D01*
X179330865Y-82803933D01*
X179320273Y-82808320D01*
X179085241Y-82965363D01*
X178885363Y-83165241D01*
X178781957Y-83320000D01*
X173344802Y-83320000D01*
X170262364Y-80237563D01*
X170330537Y-80154494D01*
X170389502Y-80044180D01*
X170425812Y-79924482D01*
X170438072Y-79800000D01*
X170438072Y-78200000D01*
X170425812Y-78075518D01*
X170389502Y-77955820D01*
X170330537Y-77845506D01*
X170251185Y-77748815D01*
X170154494Y-77669463D01*
X170044180Y-77610498D01*
X169924482Y-77574188D01*
X169800000Y-77561928D01*
X168200000Y-77561928D01*
X168075518Y-77574188D01*
X167955820Y-77610498D01*
X167845506Y-77669463D01*
X167748815Y-77748815D01*
X167669463Y-77845506D01*
X167610498Y-77955820D01*
X167574188Y-78075518D01*
X167573357Y-78083961D01*
X167374759Y-77885363D01*
X167139727Y-77728320D01*
X166878574Y-77620147D01*
X166601335Y-77565000D01*
X166318665Y-77565000D01*
X166041426Y-77620147D01*
X165780273Y-77728320D01*
X165545241Y-77885363D01*
X165345363Y-78085241D01*
X165190000Y-78317759D01*
X165034637Y-78085241D01*
X164834759Y-77885363D01*
X164599727Y-77728320D01*
X164338574Y-77620147D01*
X164061335Y-77565000D01*
X163889801Y-77565000D01*
X166694802Y-74760000D01*
X174445680Y-74760000D01*
X174469463Y-74804494D01*
G36*
X157226000Y-50689000D02*
G01*
X157246000Y-50689000D01*
X157246000Y-50943000D01*
X157226000Y-50943000D01*
X157226000Y-52136155D01*
X157455890Y-52257476D01*
X157603099Y-52212825D01*
X157865920Y-52087641D01*
X158099269Y-51913588D01*
X158294178Y-51697355D01*
X158363805Y-51580466D01*
X158485525Y-51762632D01*
X158692368Y-51969475D01*
X158935589Y-52131990D01*
X159205842Y-52243932D01*
X159492740Y-52301000D01*
X159785260Y-52301000D01*
X160072158Y-52243932D01*
X160149000Y-52212103D01*
X160149001Y-62423197D01*
X150053199Y-72519000D01*
X147450910Y-72519000D01*
X147489332Y-66294784D01*
X147487044Y-66269993D01*
X147479964Y-66246124D01*
X147468364Y-66224096D01*
X147452689Y-66204753D01*
X147433542Y-66188841D01*
X147411658Y-66176970D01*
X147387879Y-66169596D01*
X147362334Y-66167000D01*
X144865730Y-66167000D01*
X144905946Y-61341000D01*
X147066000Y-61341000D01*
X147090776Y-61338560D01*
X147114601Y-61331333D01*
X147136557Y-61319597D01*
X147155803Y-61303803D01*
X147171597Y-61284557D01*
X147183333Y-61262601D01*
X147190560Y-61238776D01*
X147192977Y-61216396D01*
X147361134Y-52304072D01*
X147789000Y-52304072D01*
X147913482Y-52291812D01*
X148033180Y-52255502D01*
X148143494Y-52196537D01*
X148240185Y-52117185D01*
X148319537Y-52020494D01*
X148378502Y-51910180D01*
X148400513Y-51837620D01*
X148532368Y-51969475D01*
X148775589Y-52131990D01*
X149045842Y-52243932D01*
X149332740Y-52301000D01*
X149625260Y-52301000D01*
X149912158Y-52243932D01*
X150182411Y-52131990D01*
X150425632Y-51969475D01*
X150632475Y-51762632D01*
X150749000Y-51588240D01*
X150865525Y-51762632D01*
X151072368Y-51969475D01*
X151315589Y-52131990D01*
X151585842Y-52243932D01*
X151872740Y-52301000D01*
X152165260Y-52301000D01*
X152452158Y-52243932D01*
X152722411Y-52131990D01*
X152965632Y-51969475D01*
X153172475Y-51762632D01*
X153289000Y-51588240D01*
X153405525Y-51762632D01*
X153612368Y-51969475D01*
X153855589Y-52131990D01*
X154125842Y-52243932D01*
X154412740Y-52301000D01*
X154705260Y-52301000D01*
X154992158Y-52243932D01*
X155262411Y-52131990D01*
X155505632Y-51969475D01*
X155712475Y-51762632D01*
X155834195Y-51580466D01*
X155903822Y-51697355D01*
X156098731Y-51913588D01*
X156332080Y-52087641D01*
X156594901Y-52212825D01*
X156742110Y-52257476D01*
X156972000Y-52136155D01*
X156972000Y-50943000D01*
X156952000Y-50943000D01*
X156952000Y-50689000D01*
X156972000Y-50689000D01*
X156972000Y-50669000D01*
X157226000Y-50669000D01*
X157226000Y-50689000D01*
G37*
X157226000Y-50689000D02*
X157246000Y-50689000D01*
X157246000Y-50943000D01*
X157226000Y-50943000D01*
X157226000Y-52136155D01*
X157455890Y-52257476D01*
X157603099Y-52212825D01*
X157865920Y-52087641D01*
X158099269Y-51913588D01*
X158294178Y-51697355D01*
X158363805Y-51580466D01*
X158485525Y-51762632D01*
X158692368Y-51969475D01*
X158935589Y-52131990D01*
X159205842Y-52243932D01*
X159492740Y-52301000D01*
X159785260Y-52301000D01*
X160072158Y-52243932D01*
X160149000Y-52212103D01*
X160149001Y-62423197D01*
X150053199Y-72519000D01*
X147450910Y-72519000D01*
X147489332Y-66294784D01*
X147487044Y-66269993D01*
X147479964Y-66246124D01*
X147468364Y-66224096D01*
X147452689Y-66204753D01*
X147433542Y-66188841D01*
X147411658Y-66176970D01*
X147387879Y-66169596D01*
X147362334Y-66167000D01*
X144865730Y-66167000D01*
X144905946Y-61341000D01*
X147066000Y-61341000D01*
X147090776Y-61338560D01*
X147114601Y-61331333D01*
X147136557Y-61319597D01*
X147155803Y-61303803D01*
X147171597Y-61284557D01*
X147183333Y-61262601D01*
X147190560Y-61238776D01*
X147192977Y-61216396D01*
X147361134Y-52304072D01*
X147789000Y-52304072D01*
X147913482Y-52291812D01*
X148033180Y-52255502D01*
X148143494Y-52196537D01*
X148240185Y-52117185D01*
X148319537Y-52020494D01*
X148378502Y-51910180D01*
X148400513Y-51837620D01*
X148532368Y-51969475D01*
X148775589Y-52131990D01*
X149045842Y-52243932D01*
X149332740Y-52301000D01*
X149625260Y-52301000D01*
X149912158Y-52243932D01*
X150182411Y-52131990D01*
X150425632Y-51969475D01*
X150632475Y-51762632D01*
X150749000Y-51588240D01*
X150865525Y-51762632D01*
X151072368Y-51969475D01*
X151315589Y-52131990D01*
X151585842Y-52243932D01*
X151872740Y-52301000D01*
X152165260Y-52301000D01*
X152452158Y-52243932D01*
X152722411Y-52131990D01*
X152965632Y-51969475D01*
X153172475Y-51762632D01*
X153289000Y-51588240D01*
X153405525Y-51762632D01*
X153612368Y-51969475D01*
X153855589Y-52131990D01*
X154125842Y-52243932D01*
X154412740Y-52301000D01*
X154705260Y-52301000D01*
X154992158Y-52243932D01*
X155262411Y-52131990D01*
X155505632Y-51969475D01*
X155712475Y-51762632D01*
X155834195Y-51580466D01*
X155903822Y-51697355D01*
X156098731Y-51913588D01*
X156332080Y-52087641D01*
X156594901Y-52212825D01*
X156742110Y-52257476D01*
X156972000Y-52136155D01*
X156972000Y-50943000D01*
X156952000Y-50943000D01*
X156952000Y-50689000D01*
X156972000Y-50689000D01*
X156972000Y-50669000D01*
X157226000Y-50669000D01*
X157226000Y-50689000D01*
G36*
X187706000Y-48149000D02*
G01*
X187726000Y-48149000D01*
X187726000Y-48403000D01*
X187706000Y-48403000D01*
X187706000Y-48423000D01*
X187452000Y-48423000D01*
X187452000Y-48403000D01*
X187432000Y-48403000D01*
X187432000Y-48149000D01*
X187452000Y-48149000D01*
X187452000Y-48129000D01*
X187706000Y-48129000D01*
X187706000Y-48149000D01*
G37*
X187706000Y-48149000D02*
X187726000Y-48149000D01*
X187726000Y-48403000D01*
X187706000Y-48403000D01*
X187706000Y-48423000D01*
X187452000Y-48423000D01*
X187452000Y-48403000D01*
X187432000Y-48403000D01*
X187432000Y-48149000D01*
X187452000Y-48149000D01*
X187452000Y-48129000D01*
X187706000Y-48129000D01*
X187706000Y-48149000D01*
G36*
X182626000Y-48149000D02*
G01*
X182646000Y-48149000D01*
X182646000Y-48403000D01*
X182626000Y-48403000D01*
X182626000Y-48423000D01*
X182372000Y-48423000D01*
X182372000Y-48403000D01*
X182352000Y-48403000D01*
X182352000Y-48149000D01*
X182372000Y-48149000D01*
X182372000Y-48129000D01*
X182626000Y-48129000D01*
X182626000Y-48149000D01*
G37*
X182626000Y-48149000D02*
X182646000Y-48149000D01*
X182646000Y-48403000D01*
X182626000Y-48403000D01*
X182626000Y-48423000D01*
X182372000Y-48423000D01*
X182372000Y-48403000D01*
X182352000Y-48403000D01*
X182352000Y-48149000D01*
X182372000Y-48149000D01*
X182372000Y-48129000D01*
X182626000Y-48129000D01*
X182626000Y-48149000D01*
G36*
X169926000Y-48149000D02*
G01*
X169946000Y-48149000D01*
X169946000Y-48403000D01*
X169926000Y-48403000D01*
X169926000Y-48423000D01*
X169672000Y-48423000D01*
X169672000Y-48403000D01*
X169652000Y-48403000D01*
X169652000Y-48149000D01*
X169672000Y-48149000D01*
X169672000Y-48129000D01*
X169926000Y-48129000D01*
X169926000Y-48149000D01*
G37*
X169926000Y-48149000D02*
X169946000Y-48149000D01*
X169946000Y-48403000D01*
X169926000Y-48403000D01*
X169926000Y-48423000D01*
X169672000Y-48423000D01*
X169672000Y-48403000D01*
X169652000Y-48403000D01*
X169652000Y-48149000D01*
X169672000Y-48149000D01*
X169672000Y-48129000D01*
X169926000Y-48129000D01*
X169926000Y-48149000D01*
G36*
X162306000Y-48149000D02*
G01*
X162326000Y-48149000D01*
X162326000Y-48403000D01*
X162306000Y-48403000D01*
X162306000Y-48423000D01*
X162052000Y-48423000D01*
X162052000Y-48403000D01*
X162032000Y-48403000D01*
X162032000Y-48149000D01*
X162052000Y-48149000D01*
X162052000Y-48129000D01*
X162306000Y-48129000D01*
X162306000Y-48149000D01*
G37*
X162306000Y-48149000D02*
X162326000Y-48149000D01*
X162326000Y-48403000D01*
X162306000Y-48403000D01*
X162306000Y-48423000D01*
X162052000Y-48423000D01*
X162052000Y-48403000D01*
X162032000Y-48403000D01*
X162032000Y-48149000D01*
X162052000Y-48149000D01*
X162052000Y-48129000D01*
X162306000Y-48129000D01*
X162306000Y-48149000D01*
G36*
X152146000Y-48149000D02*
G01*
X152166000Y-48149000D01*
X152166000Y-48403000D01*
X152146000Y-48403000D01*
X152146000Y-48423000D01*
X151892000Y-48423000D01*
X151892000Y-48403000D01*
X151872000Y-48403000D01*
X151872000Y-48149000D01*
X151892000Y-48149000D01*
X151892000Y-48129000D01*
X152146000Y-48129000D01*
X152146000Y-48149000D01*
G37*
X152146000Y-48149000D02*
X152166000Y-48149000D01*
X152166000Y-48403000D01*
X152146000Y-48403000D01*
X152146000Y-48423000D01*
X151892000Y-48423000D01*
X151892000Y-48403000D01*
X151872000Y-48403000D01*
X151872000Y-48149000D01*
X151892000Y-48149000D01*
X151892000Y-48129000D01*
X152146000Y-48129000D01*
X152146000Y-48149000D01*
M02*
