G04 #@! TF.GenerationSoftware,KiCad,Pcbnew,(5.1.5)-2*
G04 #@! TF.CreationDate,2019-12-22T19:38:14-08:00*
G04 #@! TF.ProjectId,DashSight-Mezzanine-Card,44617368-5369-4676-9874-2d4d657a7a61,rev?*
G04 #@! TF.SameCoordinates,Original*
G04 #@! TF.FileFunction,Copper,L1,Top*
G04 #@! TF.FilePolarity,Positive*
%FSLAX46Y46*%
G04 Gerber Fmt 4.6, Leading zero omitted, Abs format (unit mm)*
G04 Created by KiCad (PCBNEW (5.1.5)-2) date 2019-12-22 19:38:14*
%MOMM*%
%LPD*%
G04 APERTURE LIST*
%ADD10C,0.300000*%
%ADD11C,0.010000*%
%ADD12R,1.600000X0.700000*%
%ADD13R,0.700000X1.600000*%
%ADD14O,1.905000X2.000000*%
%ADD15R,1.905000X2.000000*%
%ADD16C,0.100000*%
%ADD17R,0.900000X0.500000*%
%ADD18R,0.600000X0.500000*%
%ADD19R,0.750000X0.800000*%
%ADD20R,0.800000X0.750000*%
%ADD21R,4.000000X4.000000*%
%ADD22R,5.100000X1.800000*%
%ADD23R,1.800000X2.500000*%
%ADD24R,0.400000X0.600000*%
%ADD25R,1.700000X1.700000*%
%ADD26O,1.700000X1.700000*%
%ADD27R,1.200000X0.900000*%
%ADD28C,4.000000*%
%ADD29C,1.600000*%
%ADD30R,1.600000X1.600000*%
%ADD31O,1.600000X1.600000*%
%ADD32R,0.500000X0.600000*%
%ADD33C,2.200000*%
%ADD34C,2.000000*%
%ADD35C,1.500000*%
%ADD36R,0.500000X0.900000*%
%ADD37O,1.500000X0.900000*%
%ADD38R,1.500000X0.900000*%
%ADD39C,1.000000*%
%ADD40R,1.000000X1.000000*%
%ADD41C,0.800000*%
%ADD42C,0.250000*%
%ADD43C,1.000000*%
G04 APERTURE END LIST*
D10*
X174683047Y-57366666D02*
X175302095Y-57366666D01*
X174559238Y-57738095D02*
X174992571Y-56438095D01*
X175425904Y-57738095D01*
X176044952Y-57738095D02*
X175921142Y-57676190D01*
X175859238Y-57552380D01*
X175859238Y-56438095D01*
X176540190Y-57738095D02*
X176540190Y-56871428D01*
X176540190Y-56438095D02*
X176478285Y-56500000D01*
X176540190Y-56561904D01*
X176602095Y-56500000D01*
X176540190Y-56438095D01*
X176540190Y-56561904D01*
X177097333Y-57676190D02*
X177221142Y-57738095D01*
X177468761Y-57738095D01*
X177592571Y-57676190D01*
X177654476Y-57552380D01*
X177654476Y-57490476D01*
X177592571Y-57366666D01*
X177468761Y-57304761D01*
X177283047Y-57304761D01*
X177159238Y-57242857D01*
X177097333Y-57119047D01*
X177097333Y-57057142D01*
X177159238Y-56933333D01*
X177283047Y-56871428D01*
X177468761Y-56871428D01*
X177592571Y-56933333D01*
X178025904Y-56871428D02*
X178521142Y-56871428D01*
X178211619Y-56438095D02*
X178211619Y-57552380D01*
X178273523Y-57676190D01*
X178397333Y-57738095D01*
X178521142Y-57738095D01*
X179511619Y-57738095D02*
X179511619Y-57057142D01*
X179449714Y-56933333D01*
X179325904Y-56871428D01*
X179078285Y-56871428D01*
X178954476Y-56933333D01*
X179511619Y-57676190D02*
X179387809Y-57738095D01*
X179078285Y-57738095D01*
X178954476Y-57676190D01*
X178892571Y-57552380D01*
X178892571Y-57428571D01*
X178954476Y-57304761D01*
X179078285Y-57242857D01*
X179387809Y-57242857D01*
X179511619Y-57180952D01*
X180130666Y-57738095D02*
X180130666Y-56871428D01*
X180130666Y-56438095D02*
X180068761Y-56500000D01*
X180130666Y-56561904D01*
X180192571Y-56500000D01*
X180130666Y-56438095D01*
X180130666Y-56561904D01*
X180749714Y-57738095D02*
X180749714Y-56871428D01*
X180749714Y-57119047D02*
X180811619Y-56995238D01*
X180873523Y-56933333D01*
X180997333Y-56871428D01*
X181121142Y-56871428D01*
X182978285Y-57057142D02*
X182544952Y-57057142D01*
X182544952Y-57738095D02*
X182544952Y-56438095D01*
X183164000Y-56438095D01*
X183659238Y-57738095D02*
X183659238Y-56871428D01*
X183659238Y-57119047D02*
X183721142Y-56995238D01*
X183783047Y-56933333D01*
X183906857Y-56871428D01*
X184030666Y-56871428D01*
X185021142Y-57738095D02*
X185021142Y-57057142D01*
X184959238Y-56933333D01*
X184835428Y-56871428D01*
X184587809Y-56871428D01*
X184464000Y-56933333D01*
X185021142Y-57676190D02*
X184897333Y-57738095D01*
X184587809Y-57738095D01*
X184464000Y-57676190D01*
X184402095Y-57552380D01*
X184402095Y-57428571D01*
X184464000Y-57304761D01*
X184587809Y-57242857D01*
X184897333Y-57242857D01*
X185021142Y-57180952D01*
X185640190Y-56871428D02*
X185640190Y-57738095D01*
X185640190Y-56995238D02*
X185702095Y-56933333D01*
X185825904Y-56871428D01*
X186011619Y-56871428D01*
X186135428Y-56933333D01*
X186197333Y-57057142D01*
X186197333Y-57738095D01*
X187373523Y-57676190D02*
X187249714Y-57738095D01*
X187002095Y-57738095D01*
X186878285Y-57676190D01*
X186816380Y-57614285D01*
X186754476Y-57490476D01*
X186754476Y-57119047D01*
X186816380Y-56995238D01*
X186878285Y-56933333D01*
X187002095Y-56871428D01*
X187249714Y-56871428D01*
X187373523Y-56933333D01*
X187930666Y-57738095D02*
X187930666Y-56871428D01*
X187930666Y-56438095D02*
X187868761Y-56500000D01*
X187930666Y-56561904D01*
X187992571Y-56500000D01*
X187930666Y-56438095D01*
X187930666Y-56561904D01*
X188487809Y-57676190D02*
X188611619Y-57738095D01*
X188859238Y-57738095D01*
X188983047Y-57676190D01*
X189044952Y-57552380D01*
X189044952Y-57490476D01*
X188983047Y-57366666D01*
X188859238Y-57304761D01*
X188673523Y-57304761D01*
X188549714Y-57242857D01*
X188487809Y-57119047D01*
X188487809Y-57057142D01*
X188549714Y-56933333D01*
X188673523Y-56871428D01*
X188859238Y-56871428D01*
X188983047Y-56933333D01*
X173566571Y-55542571D02*
X173566571Y-54042571D01*
X173923714Y-54042571D01*
X174138000Y-54114000D01*
X174280857Y-54256857D01*
X174352285Y-54399714D01*
X174423714Y-54685428D01*
X174423714Y-54899714D01*
X174352285Y-55185428D01*
X174280857Y-55328285D01*
X174138000Y-55471142D01*
X173923714Y-55542571D01*
X173566571Y-55542571D01*
X175709428Y-55542571D02*
X175709428Y-54756857D01*
X175638000Y-54614000D01*
X175495142Y-54542571D01*
X175209428Y-54542571D01*
X175066571Y-54614000D01*
X175709428Y-55471142D02*
X175566571Y-55542571D01*
X175209428Y-55542571D01*
X175066571Y-55471142D01*
X174995142Y-55328285D01*
X174995142Y-55185428D01*
X175066571Y-55042571D01*
X175209428Y-54971142D01*
X175566571Y-54971142D01*
X175709428Y-54899714D01*
X176352285Y-55471142D02*
X176495142Y-55542571D01*
X176780857Y-55542571D01*
X176923714Y-55471142D01*
X176995142Y-55328285D01*
X176995142Y-55256857D01*
X176923714Y-55114000D01*
X176780857Y-55042571D01*
X176566571Y-55042571D01*
X176423714Y-54971142D01*
X176352285Y-54828285D01*
X176352285Y-54756857D01*
X176423714Y-54614000D01*
X176566571Y-54542571D01*
X176780857Y-54542571D01*
X176923714Y-54614000D01*
X177638000Y-55542571D02*
X177638000Y-54042571D01*
X178280857Y-55542571D02*
X178280857Y-54756857D01*
X178209428Y-54614000D01*
X178066571Y-54542571D01*
X177852285Y-54542571D01*
X177709428Y-54614000D01*
X177638000Y-54685428D01*
X178923714Y-55471142D02*
X179138000Y-55542571D01*
X179495142Y-55542571D01*
X179638000Y-55471142D01*
X179709428Y-55399714D01*
X179780857Y-55256857D01*
X179780857Y-55114000D01*
X179709428Y-54971142D01*
X179638000Y-54899714D01*
X179495142Y-54828285D01*
X179209428Y-54756857D01*
X179066571Y-54685428D01*
X178995142Y-54614000D01*
X178923714Y-54471142D01*
X178923714Y-54328285D01*
X178995142Y-54185428D01*
X179066571Y-54114000D01*
X179209428Y-54042571D01*
X179566571Y-54042571D01*
X179780857Y-54114000D01*
X180423714Y-55542571D02*
X180423714Y-54542571D01*
X180423714Y-54042571D02*
X180352285Y-54114000D01*
X180423714Y-54185428D01*
X180495142Y-54114000D01*
X180423714Y-54042571D01*
X180423714Y-54185428D01*
X181780857Y-54542571D02*
X181780857Y-55756857D01*
X181709428Y-55899714D01*
X181638000Y-55971142D01*
X181495142Y-56042571D01*
X181280857Y-56042571D01*
X181138000Y-55971142D01*
X181780857Y-55471142D02*
X181638000Y-55542571D01*
X181352285Y-55542571D01*
X181209428Y-55471142D01*
X181138000Y-55399714D01*
X181066571Y-55256857D01*
X181066571Y-54828285D01*
X181138000Y-54685428D01*
X181209428Y-54614000D01*
X181352285Y-54542571D01*
X181638000Y-54542571D01*
X181780857Y-54614000D01*
X182495142Y-55542571D02*
X182495142Y-54042571D01*
X183138000Y-55542571D02*
X183138000Y-54756857D01*
X183066571Y-54614000D01*
X182923714Y-54542571D01*
X182709428Y-54542571D01*
X182566571Y-54614000D01*
X182495142Y-54685428D01*
X183638000Y-54542571D02*
X184209428Y-54542571D01*
X183852285Y-54042571D02*
X183852285Y-55328285D01*
X183923714Y-55471142D01*
X184066571Y-55542571D01*
X184209428Y-55542571D01*
X185709428Y-54542571D02*
X186066571Y-55542571D01*
X186423714Y-54542571D01*
X186923714Y-54185428D02*
X186995142Y-54114000D01*
X187138000Y-54042571D01*
X187495142Y-54042571D01*
X187638000Y-54114000D01*
X187709428Y-54185428D01*
X187780857Y-54328285D01*
X187780857Y-54471142D01*
X187709428Y-54685428D01*
X186852285Y-55542571D01*
X187780857Y-55542571D01*
X188423714Y-55399714D02*
X188495142Y-55471142D01*
X188423714Y-55542571D01*
X188352285Y-55471142D01*
X188423714Y-55399714D01*
X188423714Y-55542571D01*
X189423714Y-54042571D02*
X189566571Y-54042571D01*
X189709428Y-54114000D01*
X189780857Y-54185428D01*
X189852285Y-54328285D01*
X189923714Y-54614000D01*
X189923714Y-54971142D01*
X189852285Y-55256857D01*
X189780857Y-55399714D01*
X189709428Y-55471142D01*
X189566571Y-55542571D01*
X189423714Y-55542571D01*
X189280857Y-55471142D01*
X189209428Y-55399714D01*
X189138000Y-55256857D01*
X189066571Y-54971142D01*
X189066571Y-54614000D01*
X189138000Y-54328285D01*
X189209428Y-54185428D01*
X189280857Y-54114000D01*
X189423714Y-54042571D01*
X190566571Y-54971142D02*
X191709428Y-54971142D01*
X192923714Y-54756857D02*
X193138000Y-54828285D01*
X193209428Y-54899714D01*
X193280857Y-55042571D01*
X193280857Y-55256857D01*
X193209428Y-55399714D01*
X193138000Y-55471142D01*
X192995142Y-55542571D01*
X192423714Y-55542571D01*
X192423714Y-54042571D01*
X192923714Y-54042571D01*
X193066571Y-54114000D01*
X193138000Y-54185428D01*
X193209428Y-54328285D01*
X193209428Y-54471142D01*
X193138000Y-54614000D01*
X193066571Y-54685428D01*
X192923714Y-54756857D01*
X192423714Y-54756857D01*
D11*
G36*
X167271744Y-57799918D02*
G01*
X167327201Y-57827568D01*
X167376148Y-57878480D01*
X167389629Y-57897338D01*
X167404314Y-57922015D01*
X167413842Y-57948816D01*
X167419293Y-57984587D01*
X167421747Y-58036169D01*
X167422286Y-58104267D01*
X167419852Y-58197588D01*
X167411394Y-58267657D01*
X167395174Y-58319931D01*
X167369454Y-58359869D01*
X167332497Y-58392929D01*
X167329782Y-58394886D01*
X167293360Y-58414908D01*
X167249502Y-58424815D01*
X167193724Y-58427257D01*
X167103048Y-58427257D01*
X167103010Y-58515283D01*
X167102166Y-58564308D01*
X167097024Y-58593065D01*
X167083587Y-58610311D01*
X167057858Y-58624808D01*
X167051679Y-58627769D01*
X167022764Y-58641648D01*
X167000376Y-58650414D01*
X166983729Y-58651171D01*
X166972036Y-58641023D01*
X166964510Y-58617073D01*
X166960366Y-58576426D01*
X166958815Y-58516186D01*
X166959071Y-58433455D01*
X166960349Y-58325339D01*
X166960748Y-58293000D01*
X166962185Y-58181524D01*
X166963472Y-58108603D01*
X167102971Y-58108603D01*
X167103755Y-58170499D01*
X167107240Y-58210997D01*
X167115124Y-58237708D01*
X167129105Y-58258244D01*
X167138597Y-58268260D01*
X167177404Y-58297567D01*
X167211763Y-58299952D01*
X167247216Y-58275750D01*
X167248114Y-58274857D01*
X167262539Y-58256153D01*
X167271313Y-58230732D01*
X167275739Y-58191584D01*
X167277118Y-58131697D01*
X167277143Y-58118430D01*
X167273812Y-58035901D01*
X167262969Y-57978691D01*
X167243340Y-57943766D01*
X167213650Y-57928094D01*
X167196491Y-57926514D01*
X167155766Y-57933926D01*
X167127832Y-57958330D01*
X167111017Y-58002980D01*
X167103650Y-58071130D01*
X167102971Y-58108603D01*
X166963472Y-58108603D01*
X166963708Y-58095245D01*
X166965677Y-58030333D01*
X166968450Y-57982958D01*
X166972388Y-57949290D01*
X166977849Y-57925498D01*
X166985192Y-57907753D01*
X166994777Y-57892224D01*
X166998887Y-57886381D01*
X167053405Y-57831185D01*
X167122336Y-57799890D01*
X167202072Y-57791165D01*
X167271744Y-57799918D01*
G37*
X167271744Y-57799918D02*
X167327201Y-57827568D01*
X167376148Y-57878480D01*
X167389629Y-57897338D01*
X167404314Y-57922015D01*
X167413842Y-57948816D01*
X167419293Y-57984587D01*
X167421747Y-58036169D01*
X167422286Y-58104267D01*
X167419852Y-58197588D01*
X167411394Y-58267657D01*
X167395174Y-58319931D01*
X167369454Y-58359869D01*
X167332497Y-58392929D01*
X167329782Y-58394886D01*
X167293360Y-58414908D01*
X167249502Y-58424815D01*
X167193724Y-58427257D01*
X167103048Y-58427257D01*
X167103010Y-58515283D01*
X167102166Y-58564308D01*
X167097024Y-58593065D01*
X167083587Y-58610311D01*
X167057858Y-58624808D01*
X167051679Y-58627769D01*
X167022764Y-58641648D01*
X167000376Y-58650414D01*
X166983729Y-58651171D01*
X166972036Y-58641023D01*
X166964510Y-58617073D01*
X166960366Y-58576426D01*
X166958815Y-58516186D01*
X166959071Y-58433455D01*
X166960349Y-58325339D01*
X166960748Y-58293000D01*
X166962185Y-58181524D01*
X166963472Y-58108603D01*
X167102971Y-58108603D01*
X167103755Y-58170499D01*
X167107240Y-58210997D01*
X167115124Y-58237708D01*
X167129105Y-58258244D01*
X167138597Y-58268260D01*
X167177404Y-58297567D01*
X167211763Y-58299952D01*
X167247216Y-58275750D01*
X167248114Y-58274857D01*
X167262539Y-58256153D01*
X167271313Y-58230732D01*
X167275739Y-58191584D01*
X167277118Y-58131697D01*
X167277143Y-58118430D01*
X167273812Y-58035901D01*
X167262969Y-57978691D01*
X167243340Y-57943766D01*
X167213650Y-57928094D01*
X167196491Y-57926514D01*
X167155766Y-57933926D01*
X167127832Y-57958330D01*
X167111017Y-58002980D01*
X167103650Y-58071130D01*
X167102971Y-58108603D01*
X166963472Y-58108603D01*
X166963708Y-58095245D01*
X166965677Y-58030333D01*
X166968450Y-57982958D01*
X166972388Y-57949290D01*
X166977849Y-57925498D01*
X166985192Y-57907753D01*
X166994777Y-57892224D01*
X166998887Y-57886381D01*
X167053405Y-57831185D01*
X167122336Y-57799890D01*
X167202072Y-57791165D01*
X167271744Y-57799918D01*
G36*
X168388093Y-57807780D02*
G01*
X168434672Y-57834723D01*
X168467057Y-57861466D01*
X168490742Y-57889484D01*
X168507059Y-57923748D01*
X168517339Y-57969227D01*
X168522914Y-58030892D01*
X168525116Y-58113711D01*
X168525371Y-58173246D01*
X168525371Y-58392391D01*
X168463686Y-58420044D01*
X168402000Y-58447697D01*
X168394743Y-58207670D01*
X168391744Y-58118028D01*
X168388598Y-58052962D01*
X168384701Y-58008026D01*
X168379447Y-57978770D01*
X168372231Y-57960748D01*
X168362450Y-57949511D01*
X168359312Y-57947079D01*
X168311761Y-57928083D01*
X168263697Y-57935600D01*
X168235086Y-57955543D01*
X168223447Y-57969675D01*
X168215391Y-57988220D01*
X168210271Y-58016334D01*
X168207441Y-58059173D01*
X168206256Y-58121895D01*
X168206057Y-58187261D01*
X168206018Y-58269268D01*
X168204614Y-58327316D01*
X168199914Y-58366465D01*
X168189987Y-58391780D01*
X168172903Y-58408323D01*
X168146732Y-58421156D01*
X168111775Y-58434491D01*
X168073596Y-58449007D01*
X168078141Y-58191389D01*
X168079971Y-58098519D01*
X168082112Y-58029889D01*
X168085181Y-57980711D01*
X168089794Y-57946198D01*
X168096568Y-57921562D01*
X168106119Y-57902016D01*
X168117634Y-57884770D01*
X168173190Y-57829680D01*
X168240980Y-57797822D01*
X168314713Y-57790191D01*
X168388093Y-57807780D01*
G37*
X168388093Y-57807780D02*
X168434672Y-57834723D01*
X168467057Y-57861466D01*
X168490742Y-57889484D01*
X168507059Y-57923748D01*
X168517339Y-57969227D01*
X168522914Y-58030892D01*
X168525116Y-58113711D01*
X168525371Y-58173246D01*
X168525371Y-58392391D01*
X168463686Y-58420044D01*
X168402000Y-58447697D01*
X168394743Y-58207670D01*
X168391744Y-58118028D01*
X168388598Y-58052962D01*
X168384701Y-58008026D01*
X168379447Y-57978770D01*
X168372231Y-57960748D01*
X168362450Y-57949511D01*
X168359312Y-57947079D01*
X168311761Y-57928083D01*
X168263697Y-57935600D01*
X168235086Y-57955543D01*
X168223447Y-57969675D01*
X168215391Y-57988220D01*
X168210271Y-58016334D01*
X168207441Y-58059173D01*
X168206256Y-58121895D01*
X168206057Y-58187261D01*
X168206018Y-58269268D01*
X168204614Y-58327316D01*
X168199914Y-58366465D01*
X168189987Y-58391780D01*
X168172903Y-58408323D01*
X168146732Y-58421156D01*
X168111775Y-58434491D01*
X168073596Y-58449007D01*
X168078141Y-58191389D01*
X168079971Y-58098519D01*
X168082112Y-58029889D01*
X168085181Y-57980711D01*
X168089794Y-57946198D01*
X168096568Y-57921562D01*
X168106119Y-57902016D01*
X168117634Y-57884770D01*
X168173190Y-57829680D01*
X168240980Y-57797822D01*
X168314713Y-57790191D01*
X168388093Y-57807780D01*
G36*
X166713115Y-57801962D02*
G01*
X166781145Y-57837733D01*
X166831351Y-57895301D01*
X166849185Y-57932312D01*
X166863063Y-57987882D01*
X166870167Y-58058096D01*
X166870840Y-58134727D01*
X166865427Y-58209552D01*
X166854270Y-58274342D01*
X166837714Y-58320873D01*
X166832626Y-58328887D01*
X166772355Y-58388707D01*
X166700769Y-58424535D01*
X166623092Y-58435020D01*
X166544548Y-58418810D01*
X166522689Y-58409092D01*
X166480122Y-58379143D01*
X166442763Y-58339433D01*
X166439232Y-58334397D01*
X166424881Y-58310124D01*
X166415394Y-58284178D01*
X166409790Y-58250022D01*
X166407086Y-58201119D01*
X166406299Y-58130935D01*
X166406286Y-58115200D01*
X166406322Y-58110192D01*
X166551429Y-58110192D01*
X166552273Y-58176430D01*
X166555596Y-58220386D01*
X166562583Y-58248779D01*
X166574416Y-58268325D01*
X166580457Y-58274857D01*
X166615186Y-58299680D01*
X166648903Y-58298548D01*
X166682995Y-58277016D01*
X166703329Y-58254029D01*
X166715371Y-58220478D01*
X166722134Y-58167569D01*
X166722598Y-58161399D01*
X166723752Y-58065513D01*
X166711688Y-57994299D01*
X166686570Y-57948194D01*
X166648560Y-57927635D01*
X166634992Y-57926514D01*
X166599364Y-57932152D01*
X166574994Y-57951686D01*
X166560093Y-57989042D01*
X166552875Y-58048150D01*
X166551429Y-58110192D01*
X166406322Y-58110192D01*
X166406826Y-58040413D01*
X166409096Y-57988159D01*
X166414068Y-57951949D01*
X166422713Y-57925299D01*
X166436005Y-57901722D01*
X166438943Y-57897338D01*
X166488313Y-57838249D01*
X166542109Y-57803947D01*
X166607602Y-57790331D01*
X166629842Y-57789665D01*
X166713115Y-57801962D01*
G37*
X166713115Y-57801962D02*
X166781145Y-57837733D01*
X166831351Y-57895301D01*
X166849185Y-57932312D01*
X166863063Y-57987882D01*
X166870167Y-58058096D01*
X166870840Y-58134727D01*
X166865427Y-58209552D01*
X166854270Y-58274342D01*
X166837714Y-58320873D01*
X166832626Y-58328887D01*
X166772355Y-58388707D01*
X166700769Y-58424535D01*
X166623092Y-58435020D01*
X166544548Y-58418810D01*
X166522689Y-58409092D01*
X166480122Y-58379143D01*
X166442763Y-58339433D01*
X166439232Y-58334397D01*
X166424881Y-58310124D01*
X166415394Y-58284178D01*
X166409790Y-58250022D01*
X166407086Y-58201119D01*
X166406299Y-58130935D01*
X166406286Y-58115200D01*
X166406322Y-58110192D01*
X166551429Y-58110192D01*
X166552273Y-58176430D01*
X166555596Y-58220386D01*
X166562583Y-58248779D01*
X166574416Y-58268325D01*
X166580457Y-58274857D01*
X166615186Y-58299680D01*
X166648903Y-58298548D01*
X166682995Y-58277016D01*
X166703329Y-58254029D01*
X166715371Y-58220478D01*
X166722134Y-58167569D01*
X166722598Y-58161399D01*
X166723752Y-58065513D01*
X166711688Y-57994299D01*
X166686570Y-57948194D01*
X166648560Y-57927635D01*
X166634992Y-57926514D01*
X166599364Y-57932152D01*
X166574994Y-57951686D01*
X166560093Y-57989042D01*
X166552875Y-58048150D01*
X166551429Y-58110192D01*
X166406322Y-58110192D01*
X166406826Y-58040413D01*
X166409096Y-57988159D01*
X166414068Y-57951949D01*
X166422713Y-57925299D01*
X166436005Y-57901722D01*
X166438943Y-57897338D01*
X166488313Y-57838249D01*
X166542109Y-57803947D01*
X166607602Y-57790331D01*
X166629842Y-57789665D01*
X166713115Y-57801962D01*
G36*
X167840303Y-57811239D02*
G01*
X167897527Y-57849735D01*
X167941749Y-57905335D01*
X167968167Y-57976086D01*
X167973510Y-58028162D01*
X167972903Y-58049893D01*
X167967822Y-58066531D01*
X167953855Y-58081437D01*
X167926589Y-58097973D01*
X167881612Y-58119498D01*
X167814511Y-58149374D01*
X167814171Y-58149524D01*
X167752407Y-58177813D01*
X167701759Y-58202933D01*
X167667404Y-58222179D01*
X167654518Y-58232848D01*
X167654514Y-58232934D01*
X167665872Y-58256166D01*
X167692431Y-58281774D01*
X167722923Y-58300221D01*
X167738370Y-58303886D01*
X167780515Y-58291212D01*
X167816808Y-58259471D01*
X167834517Y-58224572D01*
X167851552Y-58198845D01*
X167884922Y-58169546D01*
X167924149Y-58144235D01*
X167958756Y-58130471D01*
X167965993Y-58129714D01*
X167974139Y-58142160D01*
X167974630Y-58173972D01*
X167968643Y-58216866D01*
X167957357Y-58262558D01*
X167941950Y-58302761D01*
X167941171Y-58304322D01*
X167894804Y-58369062D01*
X167834711Y-58413097D01*
X167766465Y-58434711D01*
X167695638Y-58432185D01*
X167627804Y-58403804D01*
X167624788Y-58401808D01*
X167571427Y-58353448D01*
X167536340Y-58290352D01*
X167516922Y-58207387D01*
X167514316Y-58184078D01*
X167509701Y-58074055D01*
X167515233Y-58022748D01*
X167654514Y-58022748D01*
X167656324Y-58054753D01*
X167666222Y-58064093D01*
X167690898Y-58057105D01*
X167729795Y-58040587D01*
X167773275Y-58019881D01*
X167774356Y-58019333D01*
X167811209Y-57999949D01*
X167826000Y-57987013D01*
X167822353Y-57973451D01*
X167806995Y-57955632D01*
X167767923Y-57929845D01*
X167725846Y-57927950D01*
X167688103Y-57946717D01*
X167662034Y-57982915D01*
X167654514Y-58022748D01*
X167515233Y-58022748D01*
X167519194Y-57986027D01*
X167543550Y-57916212D01*
X167577456Y-57867302D01*
X167638653Y-57817878D01*
X167706063Y-57793359D01*
X167774880Y-57791797D01*
X167840303Y-57811239D01*
G37*
X167840303Y-57811239D02*
X167897527Y-57849735D01*
X167941749Y-57905335D01*
X167968167Y-57976086D01*
X167973510Y-58028162D01*
X167972903Y-58049893D01*
X167967822Y-58066531D01*
X167953855Y-58081437D01*
X167926589Y-58097973D01*
X167881612Y-58119498D01*
X167814511Y-58149374D01*
X167814171Y-58149524D01*
X167752407Y-58177813D01*
X167701759Y-58202933D01*
X167667404Y-58222179D01*
X167654518Y-58232848D01*
X167654514Y-58232934D01*
X167665872Y-58256166D01*
X167692431Y-58281774D01*
X167722923Y-58300221D01*
X167738370Y-58303886D01*
X167780515Y-58291212D01*
X167816808Y-58259471D01*
X167834517Y-58224572D01*
X167851552Y-58198845D01*
X167884922Y-58169546D01*
X167924149Y-58144235D01*
X167958756Y-58130471D01*
X167965993Y-58129714D01*
X167974139Y-58142160D01*
X167974630Y-58173972D01*
X167968643Y-58216866D01*
X167957357Y-58262558D01*
X167941950Y-58302761D01*
X167941171Y-58304322D01*
X167894804Y-58369062D01*
X167834711Y-58413097D01*
X167766465Y-58434711D01*
X167695638Y-58432185D01*
X167627804Y-58403804D01*
X167624788Y-58401808D01*
X167571427Y-58353448D01*
X167536340Y-58290352D01*
X167516922Y-58207387D01*
X167514316Y-58184078D01*
X167509701Y-58074055D01*
X167515233Y-58022748D01*
X167654514Y-58022748D01*
X167656324Y-58054753D01*
X167666222Y-58064093D01*
X167690898Y-58057105D01*
X167729795Y-58040587D01*
X167773275Y-58019881D01*
X167774356Y-58019333D01*
X167811209Y-57999949D01*
X167826000Y-57987013D01*
X167822353Y-57973451D01*
X167806995Y-57955632D01*
X167767923Y-57929845D01*
X167725846Y-57927950D01*
X167688103Y-57946717D01*
X167662034Y-57982915D01*
X167654514Y-58022748D01*
X167515233Y-58022748D01*
X167519194Y-57986027D01*
X167543550Y-57916212D01*
X167577456Y-57867302D01*
X167638653Y-57817878D01*
X167706063Y-57793359D01*
X167774880Y-57791797D01*
X167840303Y-57811239D01*
G36*
X169047886Y-57731289D02*
G01*
X169052139Y-57790613D01*
X169057025Y-57825572D01*
X169063795Y-57840820D01*
X169073702Y-57841015D01*
X169076914Y-57839195D01*
X169119644Y-57826015D01*
X169175227Y-57826785D01*
X169231737Y-57840333D01*
X169267082Y-57857861D01*
X169303321Y-57885861D01*
X169329813Y-57917549D01*
X169347999Y-57957813D01*
X169359322Y-58011543D01*
X169365222Y-58083626D01*
X169367143Y-58178951D01*
X169367177Y-58197237D01*
X169367200Y-58402646D01*
X169321491Y-58418580D01*
X169289027Y-58429420D01*
X169271215Y-58434468D01*
X169270691Y-58434514D01*
X169268937Y-58420828D01*
X169267444Y-58383076D01*
X169266326Y-58326224D01*
X169265697Y-58255234D01*
X169265600Y-58212073D01*
X169265398Y-58126973D01*
X169264358Y-58065981D01*
X169261831Y-58024177D01*
X169257164Y-57996642D01*
X169249707Y-57978456D01*
X169238811Y-57964698D01*
X169232007Y-57958073D01*
X169185272Y-57931375D01*
X169134272Y-57929375D01*
X169088001Y-57951955D01*
X169079444Y-57960107D01*
X169066893Y-57975436D01*
X169058188Y-57993618D01*
X169052631Y-58019909D01*
X169049526Y-58059562D01*
X169048176Y-58117832D01*
X169047886Y-58198173D01*
X169047886Y-58402646D01*
X169002177Y-58418580D01*
X168969713Y-58429420D01*
X168951901Y-58434468D01*
X168951377Y-58434514D01*
X168950037Y-58420623D01*
X168948828Y-58381439D01*
X168947801Y-58320700D01*
X168947002Y-58242141D01*
X168946481Y-58149498D01*
X168946286Y-58046509D01*
X168946286Y-57649342D01*
X168993457Y-57629444D01*
X169040629Y-57609547D01*
X169047886Y-57731289D01*
G37*
X169047886Y-57731289D02*
X169052139Y-57790613D01*
X169057025Y-57825572D01*
X169063795Y-57840820D01*
X169073702Y-57841015D01*
X169076914Y-57839195D01*
X169119644Y-57826015D01*
X169175227Y-57826785D01*
X169231737Y-57840333D01*
X169267082Y-57857861D01*
X169303321Y-57885861D01*
X169329813Y-57917549D01*
X169347999Y-57957813D01*
X169359322Y-58011543D01*
X169365222Y-58083626D01*
X169367143Y-58178951D01*
X169367177Y-58197237D01*
X169367200Y-58402646D01*
X169321491Y-58418580D01*
X169289027Y-58429420D01*
X169271215Y-58434468D01*
X169270691Y-58434514D01*
X169268937Y-58420828D01*
X169267444Y-58383076D01*
X169266326Y-58326224D01*
X169265697Y-58255234D01*
X169265600Y-58212073D01*
X169265398Y-58126973D01*
X169264358Y-58065981D01*
X169261831Y-58024177D01*
X169257164Y-57996642D01*
X169249707Y-57978456D01*
X169238811Y-57964698D01*
X169232007Y-57958073D01*
X169185272Y-57931375D01*
X169134272Y-57929375D01*
X169088001Y-57951955D01*
X169079444Y-57960107D01*
X169066893Y-57975436D01*
X169058188Y-57993618D01*
X169052631Y-58019909D01*
X169049526Y-58059562D01*
X169048176Y-58117832D01*
X169047886Y-58198173D01*
X169047886Y-58402646D01*
X169002177Y-58418580D01*
X168969713Y-58429420D01*
X168951901Y-58434468D01*
X168951377Y-58434514D01*
X168950037Y-58420623D01*
X168948828Y-58381439D01*
X168947801Y-58320700D01*
X168947002Y-58242141D01*
X168946481Y-58149498D01*
X168946286Y-58046509D01*
X168946286Y-57649342D01*
X168993457Y-57629444D01*
X169040629Y-57609547D01*
X169047886Y-57731289D01*
G36*
X169711744Y-57830968D02*
G01*
X169768616Y-57852087D01*
X169769267Y-57852493D01*
X169804440Y-57878380D01*
X169830407Y-57908633D01*
X169848670Y-57948058D01*
X169860732Y-58001462D01*
X169868096Y-58073651D01*
X169872264Y-58169432D01*
X169872629Y-58183078D01*
X169877876Y-58388842D01*
X169833716Y-58411678D01*
X169801763Y-58427110D01*
X169782470Y-58434423D01*
X169781578Y-58434514D01*
X169778239Y-58421022D01*
X169775587Y-58384626D01*
X169773956Y-58331452D01*
X169773600Y-58288393D01*
X169773592Y-58218641D01*
X169770403Y-58174837D01*
X169759288Y-58153944D01*
X169735501Y-58152925D01*
X169694296Y-58168741D01*
X169632086Y-58197815D01*
X169586341Y-58221963D01*
X169562813Y-58242913D01*
X169555896Y-58265747D01*
X169555886Y-58266877D01*
X169567299Y-58306212D01*
X169601092Y-58327462D01*
X169652809Y-58330539D01*
X169690061Y-58330006D01*
X169709703Y-58340735D01*
X169721952Y-58366505D01*
X169729002Y-58399337D01*
X169718842Y-58417966D01*
X169715017Y-58420632D01*
X169679001Y-58431340D01*
X169628566Y-58432856D01*
X169576626Y-58425759D01*
X169539822Y-58412788D01*
X169488938Y-58369585D01*
X169460014Y-58309446D01*
X169454286Y-58262462D01*
X169458657Y-58220082D01*
X169474475Y-58185488D01*
X169505797Y-58154763D01*
X169556678Y-58123990D01*
X169631176Y-58089252D01*
X169635714Y-58087288D01*
X169702821Y-58056287D01*
X169744232Y-58030862D01*
X169761981Y-58008014D01*
X169758107Y-57984745D01*
X169734643Y-57958056D01*
X169727627Y-57951914D01*
X169680630Y-57928100D01*
X169631933Y-57929103D01*
X169589522Y-57952451D01*
X169561384Y-57995675D01*
X169558769Y-58004160D01*
X169533308Y-58045308D01*
X169501001Y-58065128D01*
X169454286Y-58084770D01*
X169454286Y-58033950D01*
X169468496Y-57960082D01*
X169510675Y-57892327D01*
X169532624Y-57869661D01*
X169582517Y-57840569D01*
X169645967Y-57827400D01*
X169711744Y-57830968D01*
G37*
X169711744Y-57830968D02*
X169768616Y-57852087D01*
X169769267Y-57852493D01*
X169804440Y-57878380D01*
X169830407Y-57908633D01*
X169848670Y-57948058D01*
X169860732Y-58001462D01*
X169868096Y-58073651D01*
X169872264Y-58169432D01*
X169872629Y-58183078D01*
X169877876Y-58388842D01*
X169833716Y-58411678D01*
X169801763Y-58427110D01*
X169782470Y-58434423D01*
X169781578Y-58434514D01*
X169778239Y-58421022D01*
X169775587Y-58384626D01*
X169773956Y-58331452D01*
X169773600Y-58288393D01*
X169773592Y-58218641D01*
X169770403Y-58174837D01*
X169759288Y-58153944D01*
X169735501Y-58152925D01*
X169694296Y-58168741D01*
X169632086Y-58197815D01*
X169586341Y-58221963D01*
X169562813Y-58242913D01*
X169555896Y-58265747D01*
X169555886Y-58266877D01*
X169567299Y-58306212D01*
X169601092Y-58327462D01*
X169652809Y-58330539D01*
X169690061Y-58330006D01*
X169709703Y-58340735D01*
X169721952Y-58366505D01*
X169729002Y-58399337D01*
X169718842Y-58417966D01*
X169715017Y-58420632D01*
X169679001Y-58431340D01*
X169628566Y-58432856D01*
X169576626Y-58425759D01*
X169539822Y-58412788D01*
X169488938Y-58369585D01*
X169460014Y-58309446D01*
X169454286Y-58262462D01*
X169458657Y-58220082D01*
X169474475Y-58185488D01*
X169505797Y-58154763D01*
X169556678Y-58123990D01*
X169631176Y-58089252D01*
X169635714Y-58087288D01*
X169702821Y-58056287D01*
X169744232Y-58030862D01*
X169761981Y-58008014D01*
X169758107Y-57984745D01*
X169734643Y-57958056D01*
X169727627Y-57951914D01*
X169680630Y-57928100D01*
X169631933Y-57929103D01*
X169589522Y-57952451D01*
X169561384Y-57995675D01*
X169558769Y-58004160D01*
X169533308Y-58045308D01*
X169501001Y-58065128D01*
X169454286Y-58084770D01*
X169454286Y-58033950D01*
X169468496Y-57960082D01*
X169510675Y-57892327D01*
X169532624Y-57869661D01*
X169582517Y-57840569D01*
X169645967Y-57827400D01*
X169711744Y-57830968D01*
G36*
X170201926Y-57829755D02*
G01*
X170267858Y-57854084D01*
X170321273Y-57897117D01*
X170342164Y-57927409D01*
X170364939Y-57982994D01*
X170364466Y-58023186D01*
X170340562Y-58050217D01*
X170331717Y-58054813D01*
X170293530Y-58069144D01*
X170274028Y-58065472D01*
X170267422Y-58041407D01*
X170267086Y-58028114D01*
X170254992Y-57979210D01*
X170223471Y-57944999D01*
X170179659Y-57928476D01*
X170130695Y-57932634D01*
X170090894Y-57954227D01*
X170077450Y-57966544D01*
X170067921Y-57981487D01*
X170061485Y-58004075D01*
X170057317Y-58039328D01*
X170054597Y-58092266D01*
X170052502Y-58167907D01*
X170051960Y-58191857D01*
X170049981Y-58273790D01*
X170047731Y-58331455D01*
X170044357Y-58369608D01*
X170039006Y-58393004D01*
X170030824Y-58406398D01*
X170018959Y-58414545D01*
X170011362Y-58418144D01*
X169979102Y-58430452D01*
X169960111Y-58434514D01*
X169953836Y-58420948D01*
X169950006Y-58379934D01*
X169948600Y-58310999D01*
X169949598Y-58213669D01*
X169949908Y-58198657D01*
X169952101Y-58109859D01*
X169954693Y-58045019D01*
X169958382Y-57999067D01*
X169963864Y-57966935D01*
X169971835Y-57943553D01*
X169982993Y-57923852D01*
X169988830Y-57915410D01*
X170022296Y-57878057D01*
X170059727Y-57849003D01*
X170064309Y-57846467D01*
X170131426Y-57826443D01*
X170201926Y-57829755D01*
G37*
X170201926Y-57829755D02*
X170267858Y-57854084D01*
X170321273Y-57897117D01*
X170342164Y-57927409D01*
X170364939Y-57982994D01*
X170364466Y-58023186D01*
X170340562Y-58050217D01*
X170331717Y-58054813D01*
X170293530Y-58069144D01*
X170274028Y-58065472D01*
X170267422Y-58041407D01*
X170267086Y-58028114D01*
X170254992Y-57979210D01*
X170223471Y-57944999D01*
X170179659Y-57928476D01*
X170130695Y-57932634D01*
X170090894Y-57954227D01*
X170077450Y-57966544D01*
X170067921Y-57981487D01*
X170061485Y-58004075D01*
X170057317Y-58039328D01*
X170054597Y-58092266D01*
X170052502Y-58167907D01*
X170051960Y-58191857D01*
X170049981Y-58273790D01*
X170047731Y-58331455D01*
X170044357Y-58369608D01*
X170039006Y-58393004D01*
X170030824Y-58406398D01*
X170018959Y-58414545D01*
X170011362Y-58418144D01*
X169979102Y-58430452D01*
X169960111Y-58434514D01*
X169953836Y-58420948D01*
X169950006Y-58379934D01*
X169948600Y-58310999D01*
X169949598Y-58213669D01*
X169949908Y-58198657D01*
X169952101Y-58109859D01*
X169954693Y-58045019D01*
X169958382Y-57999067D01*
X169963864Y-57966935D01*
X169971835Y-57943553D01*
X169982993Y-57923852D01*
X169988830Y-57915410D01*
X170022296Y-57878057D01*
X170059727Y-57849003D01*
X170064309Y-57846467D01*
X170131426Y-57826443D01*
X170201926Y-57829755D01*
G36*
X170862117Y-57945358D02*
G01*
X170861933Y-58053837D01*
X170861219Y-58137287D01*
X170859675Y-58199704D01*
X170857001Y-58245085D01*
X170852894Y-58277429D01*
X170847055Y-58300733D01*
X170839182Y-58318995D01*
X170833221Y-58329418D01*
X170783855Y-58385945D01*
X170721264Y-58421377D01*
X170652013Y-58434090D01*
X170582668Y-58422463D01*
X170541375Y-58401568D01*
X170498025Y-58365422D01*
X170468481Y-58321276D01*
X170450655Y-58263462D01*
X170442463Y-58186313D01*
X170441302Y-58129714D01*
X170441458Y-58125647D01*
X170542857Y-58125647D01*
X170543476Y-58190550D01*
X170546314Y-58233514D01*
X170552840Y-58261622D01*
X170564523Y-58281953D01*
X170578483Y-58297288D01*
X170625365Y-58326890D01*
X170675701Y-58329419D01*
X170723276Y-58304705D01*
X170726979Y-58301356D01*
X170742783Y-58283935D01*
X170752693Y-58263209D01*
X170758058Y-58232362D01*
X170760228Y-58184577D01*
X170760571Y-58131748D01*
X170759827Y-58065381D01*
X170756748Y-58021106D01*
X170750061Y-57992009D01*
X170738496Y-57971173D01*
X170729013Y-57960107D01*
X170684960Y-57932198D01*
X170634224Y-57928843D01*
X170585796Y-57950159D01*
X170576450Y-57958073D01*
X170560540Y-57975647D01*
X170550610Y-57996587D01*
X170545278Y-58027782D01*
X170543163Y-58076122D01*
X170542857Y-58125647D01*
X170441458Y-58125647D01*
X170444810Y-58038568D01*
X170456726Y-57970086D01*
X170479135Y-57918600D01*
X170514124Y-57878443D01*
X170541375Y-57857861D01*
X170590907Y-57835625D01*
X170648316Y-57825304D01*
X170701682Y-57828067D01*
X170731543Y-57839212D01*
X170743261Y-57842383D01*
X170751037Y-57830557D01*
X170756465Y-57798866D01*
X170760571Y-57750593D01*
X170765067Y-57696829D01*
X170771313Y-57664482D01*
X170782676Y-57645985D01*
X170802528Y-57633770D01*
X170815000Y-57628362D01*
X170862171Y-57608601D01*
X170862117Y-57945358D01*
G37*
X170862117Y-57945358D02*
X170861933Y-58053837D01*
X170861219Y-58137287D01*
X170859675Y-58199704D01*
X170857001Y-58245085D01*
X170852894Y-58277429D01*
X170847055Y-58300733D01*
X170839182Y-58318995D01*
X170833221Y-58329418D01*
X170783855Y-58385945D01*
X170721264Y-58421377D01*
X170652013Y-58434090D01*
X170582668Y-58422463D01*
X170541375Y-58401568D01*
X170498025Y-58365422D01*
X170468481Y-58321276D01*
X170450655Y-58263462D01*
X170442463Y-58186313D01*
X170441302Y-58129714D01*
X170441458Y-58125647D01*
X170542857Y-58125647D01*
X170543476Y-58190550D01*
X170546314Y-58233514D01*
X170552840Y-58261622D01*
X170564523Y-58281953D01*
X170578483Y-58297288D01*
X170625365Y-58326890D01*
X170675701Y-58329419D01*
X170723276Y-58304705D01*
X170726979Y-58301356D01*
X170742783Y-58283935D01*
X170752693Y-58263209D01*
X170758058Y-58232362D01*
X170760228Y-58184577D01*
X170760571Y-58131748D01*
X170759827Y-58065381D01*
X170756748Y-58021106D01*
X170750061Y-57992009D01*
X170738496Y-57971173D01*
X170729013Y-57960107D01*
X170684960Y-57932198D01*
X170634224Y-57928843D01*
X170585796Y-57950159D01*
X170576450Y-57958073D01*
X170560540Y-57975647D01*
X170550610Y-57996587D01*
X170545278Y-58027782D01*
X170543163Y-58076122D01*
X170542857Y-58125647D01*
X170441458Y-58125647D01*
X170444810Y-58038568D01*
X170456726Y-57970086D01*
X170479135Y-57918600D01*
X170514124Y-57878443D01*
X170541375Y-57857861D01*
X170590907Y-57835625D01*
X170648316Y-57825304D01*
X170701682Y-57828067D01*
X170731543Y-57839212D01*
X170743261Y-57842383D01*
X170751037Y-57830557D01*
X170756465Y-57798866D01*
X170760571Y-57750593D01*
X170765067Y-57696829D01*
X170771313Y-57664482D01*
X170782676Y-57645985D01*
X170802528Y-57633770D01*
X170815000Y-57628362D01*
X170862171Y-57608601D01*
X170862117Y-57945358D01*
G36*
X171451833Y-57838663D02*
G01*
X171454048Y-57876850D01*
X171455784Y-57934886D01*
X171456899Y-58008180D01*
X171457257Y-58085055D01*
X171457257Y-58345196D01*
X171411326Y-58391127D01*
X171379675Y-58419429D01*
X171351890Y-58430893D01*
X171313915Y-58430168D01*
X171298840Y-58428321D01*
X171251726Y-58422948D01*
X171212756Y-58419869D01*
X171203257Y-58419585D01*
X171171233Y-58421445D01*
X171125432Y-58426114D01*
X171107674Y-58428321D01*
X171064057Y-58431735D01*
X171034745Y-58424320D01*
X171005680Y-58401427D01*
X170995188Y-58391127D01*
X170949257Y-58345196D01*
X170949257Y-57858602D01*
X170986226Y-57841758D01*
X171018059Y-57829282D01*
X171036683Y-57824914D01*
X171041458Y-57838718D01*
X171045921Y-57877286D01*
X171049775Y-57936356D01*
X171052722Y-58011663D01*
X171054143Y-58075286D01*
X171058114Y-58325657D01*
X171092759Y-58330556D01*
X171124268Y-58327131D01*
X171139708Y-58316041D01*
X171144023Y-58295308D01*
X171147708Y-58251145D01*
X171150469Y-58189146D01*
X171152012Y-58114909D01*
X171152235Y-58076706D01*
X171152457Y-57856783D01*
X171198166Y-57840849D01*
X171230518Y-57830015D01*
X171248115Y-57824962D01*
X171248623Y-57824914D01*
X171250388Y-57838648D01*
X171252329Y-57876730D01*
X171254282Y-57934482D01*
X171256084Y-58007227D01*
X171257343Y-58075286D01*
X171261314Y-58325657D01*
X171348400Y-58325657D01*
X171352396Y-58097240D01*
X171356392Y-57868822D01*
X171398847Y-57846868D01*
X171430192Y-57831793D01*
X171448744Y-57824951D01*
X171449279Y-57824914D01*
X171451833Y-57838663D01*
G37*
X171451833Y-57838663D02*
X171454048Y-57876850D01*
X171455784Y-57934886D01*
X171456899Y-58008180D01*
X171457257Y-58085055D01*
X171457257Y-58345196D01*
X171411326Y-58391127D01*
X171379675Y-58419429D01*
X171351890Y-58430893D01*
X171313915Y-58430168D01*
X171298840Y-58428321D01*
X171251726Y-58422948D01*
X171212756Y-58419869D01*
X171203257Y-58419585D01*
X171171233Y-58421445D01*
X171125432Y-58426114D01*
X171107674Y-58428321D01*
X171064057Y-58431735D01*
X171034745Y-58424320D01*
X171005680Y-58401427D01*
X170995188Y-58391127D01*
X170949257Y-58345196D01*
X170949257Y-57858602D01*
X170986226Y-57841758D01*
X171018059Y-57829282D01*
X171036683Y-57824914D01*
X171041458Y-57838718D01*
X171045921Y-57877286D01*
X171049775Y-57936356D01*
X171052722Y-58011663D01*
X171054143Y-58075286D01*
X171058114Y-58325657D01*
X171092759Y-58330556D01*
X171124268Y-58327131D01*
X171139708Y-58316041D01*
X171144023Y-58295308D01*
X171147708Y-58251145D01*
X171150469Y-58189146D01*
X171152012Y-58114909D01*
X171152235Y-58076706D01*
X171152457Y-57856783D01*
X171198166Y-57840849D01*
X171230518Y-57830015D01*
X171248115Y-57824962D01*
X171248623Y-57824914D01*
X171250388Y-57838648D01*
X171252329Y-57876730D01*
X171254282Y-57934482D01*
X171256084Y-58007227D01*
X171257343Y-58075286D01*
X171261314Y-58325657D01*
X171348400Y-58325657D01*
X171352396Y-58097240D01*
X171356392Y-57868822D01*
X171398847Y-57846868D01*
X171430192Y-57831793D01*
X171448744Y-57824951D01*
X171449279Y-57824914D01*
X171451833Y-57838663D01*
G36*
X171816876Y-57836335D02*
G01*
X171858667Y-57855344D01*
X171891469Y-57878378D01*
X171915503Y-57904133D01*
X171932097Y-57937358D01*
X171942577Y-57982800D01*
X171948271Y-58045207D01*
X171950507Y-58129327D01*
X171950743Y-58184721D01*
X171950743Y-58400826D01*
X171913774Y-58417670D01*
X171884656Y-58429981D01*
X171870231Y-58434514D01*
X171867472Y-58421025D01*
X171865282Y-58384653D01*
X171863942Y-58331542D01*
X171863657Y-58289372D01*
X171862434Y-58228447D01*
X171859136Y-58180115D01*
X171854321Y-58150518D01*
X171850496Y-58144229D01*
X171824783Y-58150652D01*
X171784418Y-58167125D01*
X171737679Y-58189458D01*
X171692845Y-58213457D01*
X171658193Y-58234930D01*
X171642002Y-58249685D01*
X171641938Y-58249845D01*
X171643330Y-58277152D01*
X171655818Y-58303219D01*
X171677743Y-58324392D01*
X171709743Y-58331474D01*
X171737092Y-58330649D01*
X171775826Y-58330042D01*
X171796158Y-58339116D01*
X171808369Y-58363092D01*
X171809909Y-58367613D01*
X171815203Y-58401806D01*
X171801047Y-58422568D01*
X171764148Y-58432462D01*
X171724289Y-58434292D01*
X171652562Y-58420727D01*
X171615432Y-58401355D01*
X171569576Y-58355845D01*
X171545256Y-58299983D01*
X171543073Y-58240957D01*
X171563629Y-58185953D01*
X171594549Y-58151486D01*
X171625420Y-58132189D01*
X171673942Y-58107759D01*
X171730485Y-58082985D01*
X171739910Y-58079199D01*
X171802019Y-58051791D01*
X171837822Y-58027634D01*
X171849337Y-58003619D01*
X171838580Y-57976635D01*
X171820114Y-57955543D01*
X171776469Y-57929572D01*
X171728446Y-57927624D01*
X171684406Y-57947637D01*
X171652709Y-57987551D01*
X171648549Y-57997848D01*
X171624327Y-58035724D01*
X171588965Y-58063842D01*
X171544343Y-58086917D01*
X171544343Y-58021485D01*
X171546969Y-57981506D01*
X171558230Y-57949997D01*
X171583199Y-57916378D01*
X171607169Y-57890484D01*
X171644441Y-57853817D01*
X171673401Y-57834121D01*
X171704505Y-57826220D01*
X171739713Y-57824914D01*
X171816876Y-57836335D01*
G37*
X171816876Y-57836335D02*
X171858667Y-57855344D01*
X171891469Y-57878378D01*
X171915503Y-57904133D01*
X171932097Y-57937358D01*
X171942577Y-57982800D01*
X171948271Y-58045207D01*
X171950507Y-58129327D01*
X171950743Y-58184721D01*
X171950743Y-58400826D01*
X171913774Y-58417670D01*
X171884656Y-58429981D01*
X171870231Y-58434514D01*
X171867472Y-58421025D01*
X171865282Y-58384653D01*
X171863942Y-58331542D01*
X171863657Y-58289372D01*
X171862434Y-58228447D01*
X171859136Y-58180115D01*
X171854321Y-58150518D01*
X171850496Y-58144229D01*
X171824783Y-58150652D01*
X171784418Y-58167125D01*
X171737679Y-58189458D01*
X171692845Y-58213457D01*
X171658193Y-58234930D01*
X171642002Y-58249685D01*
X171641938Y-58249845D01*
X171643330Y-58277152D01*
X171655818Y-58303219D01*
X171677743Y-58324392D01*
X171709743Y-58331474D01*
X171737092Y-58330649D01*
X171775826Y-58330042D01*
X171796158Y-58339116D01*
X171808369Y-58363092D01*
X171809909Y-58367613D01*
X171815203Y-58401806D01*
X171801047Y-58422568D01*
X171764148Y-58432462D01*
X171724289Y-58434292D01*
X171652562Y-58420727D01*
X171615432Y-58401355D01*
X171569576Y-58355845D01*
X171545256Y-58299983D01*
X171543073Y-58240957D01*
X171563629Y-58185953D01*
X171594549Y-58151486D01*
X171625420Y-58132189D01*
X171673942Y-58107759D01*
X171730485Y-58082985D01*
X171739910Y-58079199D01*
X171802019Y-58051791D01*
X171837822Y-58027634D01*
X171849337Y-58003619D01*
X171838580Y-57976635D01*
X171820114Y-57955543D01*
X171776469Y-57929572D01*
X171728446Y-57927624D01*
X171684406Y-57947637D01*
X171652709Y-57987551D01*
X171648549Y-57997848D01*
X171624327Y-58035724D01*
X171588965Y-58063842D01*
X171544343Y-58086917D01*
X171544343Y-58021485D01*
X171546969Y-57981506D01*
X171558230Y-57949997D01*
X171583199Y-57916378D01*
X171607169Y-57890484D01*
X171644441Y-57853817D01*
X171673401Y-57834121D01*
X171704505Y-57826220D01*
X171739713Y-57824914D01*
X171816876Y-57836335D01*
G36*
X172324600Y-57838752D02*
G01*
X172341948Y-57846334D01*
X172383356Y-57879128D01*
X172418765Y-57926547D01*
X172440664Y-57977151D01*
X172444229Y-58002098D01*
X172432279Y-58036927D01*
X172406067Y-58055357D01*
X172377964Y-58066516D01*
X172365095Y-58068572D01*
X172358829Y-58053649D01*
X172346456Y-58021175D01*
X172341028Y-58006502D01*
X172310590Y-57955744D01*
X172266520Y-57930427D01*
X172210010Y-57931206D01*
X172205825Y-57932203D01*
X172175655Y-57946507D01*
X172153476Y-57974393D01*
X172138327Y-58019287D01*
X172129250Y-58084615D01*
X172125286Y-58173804D01*
X172124914Y-58221261D01*
X172124730Y-58296071D01*
X172123522Y-58347069D01*
X172120309Y-58379471D01*
X172114109Y-58398495D01*
X172103940Y-58409356D01*
X172088819Y-58417272D01*
X172087946Y-58417670D01*
X172058828Y-58429981D01*
X172044403Y-58434514D01*
X172042186Y-58420809D01*
X172040289Y-58382925D01*
X172038847Y-58325715D01*
X172037998Y-58254027D01*
X172037829Y-58201565D01*
X172038692Y-58100047D01*
X172042070Y-58023032D01*
X172049142Y-57966023D01*
X172061088Y-57924526D01*
X172079090Y-57894043D01*
X172104327Y-57870080D01*
X172129247Y-57853355D01*
X172189171Y-57831097D01*
X172258911Y-57826076D01*
X172324600Y-57838752D01*
G37*
X172324600Y-57838752D02*
X172341948Y-57846334D01*
X172383356Y-57879128D01*
X172418765Y-57926547D01*
X172440664Y-57977151D01*
X172444229Y-58002098D01*
X172432279Y-58036927D01*
X172406067Y-58055357D01*
X172377964Y-58066516D01*
X172365095Y-58068572D01*
X172358829Y-58053649D01*
X172346456Y-58021175D01*
X172341028Y-58006502D01*
X172310590Y-57955744D01*
X172266520Y-57930427D01*
X172210010Y-57931206D01*
X172205825Y-57932203D01*
X172175655Y-57946507D01*
X172153476Y-57974393D01*
X172138327Y-58019287D01*
X172129250Y-58084615D01*
X172125286Y-58173804D01*
X172124914Y-58221261D01*
X172124730Y-58296071D01*
X172123522Y-58347069D01*
X172120309Y-58379471D01*
X172114109Y-58398495D01*
X172103940Y-58409356D01*
X172088819Y-58417272D01*
X172087946Y-58417670D01*
X172058828Y-58429981D01*
X172044403Y-58434514D01*
X172042186Y-58420809D01*
X172040289Y-58382925D01*
X172038847Y-58325715D01*
X172037998Y-58254027D01*
X172037829Y-58201565D01*
X172038692Y-58100047D01*
X172042070Y-58023032D01*
X172049142Y-57966023D01*
X172061088Y-57924526D01*
X172079090Y-57894043D01*
X172104327Y-57870080D01*
X172129247Y-57853355D01*
X172189171Y-57831097D01*
X172258911Y-57826076D01*
X172324600Y-57838752D01*
G36*
X172825595Y-57846966D02*
G01*
X172883021Y-57884497D01*
X172910719Y-57918096D01*
X172932662Y-57979064D01*
X172934405Y-58027308D01*
X172930457Y-58091816D01*
X172781686Y-58156934D01*
X172709349Y-58190202D01*
X172662084Y-58216964D01*
X172637507Y-58240144D01*
X172633237Y-58262667D01*
X172646889Y-58287455D01*
X172661943Y-58303886D01*
X172705746Y-58330235D01*
X172753389Y-58332081D01*
X172797145Y-58311546D01*
X172829289Y-58270752D01*
X172835038Y-58256347D01*
X172862576Y-58211356D01*
X172894258Y-58192182D01*
X172937714Y-58175779D01*
X172937714Y-58237966D01*
X172933872Y-58280283D01*
X172918823Y-58315969D01*
X172887280Y-58356943D01*
X172882592Y-58362267D01*
X172847506Y-58398720D01*
X172817347Y-58418283D01*
X172779615Y-58427283D01*
X172748335Y-58430230D01*
X172692385Y-58430965D01*
X172652555Y-58421660D01*
X172627708Y-58407846D01*
X172588656Y-58377467D01*
X172561625Y-58344613D01*
X172544517Y-58303294D01*
X172535238Y-58247521D01*
X172531693Y-58171305D01*
X172531410Y-58132622D01*
X172532372Y-58086247D01*
X172620007Y-58086247D01*
X172621023Y-58111126D01*
X172623556Y-58115200D01*
X172640274Y-58109665D01*
X172676249Y-58095017D01*
X172724331Y-58074190D01*
X172734386Y-58069714D01*
X172795152Y-58038814D01*
X172828632Y-58011657D01*
X172835990Y-57986220D01*
X172818391Y-57960481D01*
X172803856Y-57949109D01*
X172751410Y-57926364D01*
X172702322Y-57930122D01*
X172661227Y-57957884D01*
X172632758Y-58007152D01*
X172623631Y-58046257D01*
X172620007Y-58086247D01*
X172532372Y-58086247D01*
X172533285Y-58042249D01*
X172540196Y-57975384D01*
X172553884Y-57926695D01*
X172576096Y-57890849D01*
X172608574Y-57862513D01*
X172622733Y-57853355D01*
X172687053Y-57829507D01*
X172757473Y-57828006D01*
X172825595Y-57846966D01*
G37*
X172825595Y-57846966D02*
X172883021Y-57884497D01*
X172910719Y-57918096D01*
X172932662Y-57979064D01*
X172934405Y-58027308D01*
X172930457Y-58091816D01*
X172781686Y-58156934D01*
X172709349Y-58190202D01*
X172662084Y-58216964D01*
X172637507Y-58240144D01*
X172633237Y-58262667D01*
X172646889Y-58287455D01*
X172661943Y-58303886D01*
X172705746Y-58330235D01*
X172753389Y-58332081D01*
X172797145Y-58311546D01*
X172829289Y-58270752D01*
X172835038Y-58256347D01*
X172862576Y-58211356D01*
X172894258Y-58192182D01*
X172937714Y-58175779D01*
X172937714Y-58237966D01*
X172933872Y-58280283D01*
X172918823Y-58315969D01*
X172887280Y-58356943D01*
X172882592Y-58362267D01*
X172847506Y-58398720D01*
X172817347Y-58418283D01*
X172779615Y-58427283D01*
X172748335Y-58430230D01*
X172692385Y-58430965D01*
X172652555Y-58421660D01*
X172627708Y-58407846D01*
X172588656Y-58377467D01*
X172561625Y-58344613D01*
X172544517Y-58303294D01*
X172535238Y-58247521D01*
X172531693Y-58171305D01*
X172531410Y-58132622D01*
X172532372Y-58086247D01*
X172620007Y-58086247D01*
X172621023Y-58111126D01*
X172623556Y-58115200D01*
X172640274Y-58109665D01*
X172676249Y-58095017D01*
X172724331Y-58074190D01*
X172734386Y-58069714D01*
X172795152Y-58038814D01*
X172828632Y-58011657D01*
X172835990Y-57986220D01*
X172818391Y-57960481D01*
X172803856Y-57949109D01*
X172751410Y-57926364D01*
X172702322Y-57930122D01*
X172661227Y-57957884D01*
X172632758Y-58007152D01*
X172623631Y-58046257D01*
X172620007Y-58086247D01*
X172532372Y-58086247D01*
X172533285Y-58042249D01*
X172540196Y-57975384D01*
X172553884Y-57926695D01*
X172576096Y-57890849D01*
X172608574Y-57862513D01*
X172622733Y-57853355D01*
X172687053Y-57829507D01*
X172757473Y-57828006D01*
X172825595Y-57846966D01*
G36*
X169775910Y-53122348D02*
G01*
X169854454Y-53122778D01*
X169911298Y-53123942D01*
X169950105Y-53126207D01*
X169974538Y-53129940D01*
X169988262Y-53135506D01*
X169994940Y-53143273D01*
X169998236Y-53153605D01*
X169998556Y-53154943D01*
X170003562Y-53179079D01*
X170012829Y-53226701D01*
X170025392Y-53292741D01*
X170040287Y-53372128D01*
X170056551Y-53459796D01*
X170057119Y-53462875D01*
X170073410Y-53548789D01*
X170088652Y-53624696D01*
X170101861Y-53686045D01*
X170112054Y-53728282D01*
X170118248Y-53746855D01*
X170118543Y-53747184D01*
X170136788Y-53756253D01*
X170174405Y-53771367D01*
X170223271Y-53789262D01*
X170223543Y-53789358D01*
X170285093Y-53812493D01*
X170357657Y-53841965D01*
X170426057Y-53871597D01*
X170429294Y-53873062D01*
X170540702Y-53923626D01*
X170787399Y-53755160D01*
X170863077Y-53703803D01*
X170931631Y-53657889D01*
X170989088Y-53620030D01*
X171031476Y-53592837D01*
X171054825Y-53578921D01*
X171057042Y-53577889D01*
X171074010Y-53582484D01*
X171105701Y-53604655D01*
X171153352Y-53645447D01*
X171218198Y-53705905D01*
X171284397Y-53770227D01*
X171348214Y-53833612D01*
X171405329Y-53891451D01*
X171452305Y-53940175D01*
X171485703Y-53976210D01*
X171502085Y-53995984D01*
X171502694Y-53997002D01*
X171504505Y-54010572D01*
X171497683Y-54032733D01*
X171480540Y-54066478D01*
X171451393Y-54114800D01*
X171408555Y-54180692D01*
X171351448Y-54265517D01*
X171300766Y-54340177D01*
X171255461Y-54407140D01*
X171218150Y-54462516D01*
X171191452Y-54502420D01*
X171177985Y-54522962D01*
X171177137Y-54524356D01*
X171178781Y-54544038D01*
X171191245Y-54582293D01*
X171212048Y-54631889D01*
X171219462Y-54647728D01*
X171251814Y-54718290D01*
X171286328Y-54798353D01*
X171314365Y-54867629D01*
X171334568Y-54919045D01*
X171350615Y-54958119D01*
X171359888Y-54978541D01*
X171361041Y-54980114D01*
X171378096Y-54982721D01*
X171418298Y-54989863D01*
X171476302Y-55000523D01*
X171546763Y-55013685D01*
X171624335Y-55028333D01*
X171703672Y-55043449D01*
X171779431Y-55058018D01*
X171846264Y-55071022D01*
X171898828Y-55081445D01*
X171931776Y-55088270D01*
X171939857Y-55090199D01*
X171948205Y-55094962D01*
X171954506Y-55105718D01*
X171959045Y-55126098D01*
X171962104Y-55159734D01*
X171963967Y-55210255D01*
X171964918Y-55281292D01*
X171965240Y-55376476D01*
X171965257Y-55415492D01*
X171965257Y-55732799D01*
X171889057Y-55747839D01*
X171846663Y-55755995D01*
X171783400Y-55767899D01*
X171706962Y-55782116D01*
X171625043Y-55797210D01*
X171602400Y-55801355D01*
X171526806Y-55816053D01*
X171460953Y-55830505D01*
X171410366Y-55843375D01*
X171380574Y-55853322D01*
X171375612Y-55856287D01*
X171363426Y-55877283D01*
X171345953Y-55917967D01*
X171326577Y-55970322D01*
X171322734Y-55981600D01*
X171297339Y-56051523D01*
X171265817Y-56130418D01*
X171234969Y-56201266D01*
X171234817Y-56201595D01*
X171183447Y-56312733D01*
X171352399Y-56561253D01*
X171521352Y-56809772D01*
X171304429Y-57027058D01*
X171238819Y-57091726D01*
X171178979Y-57148733D01*
X171128267Y-57195033D01*
X171090046Y-57227584D01*
X171067675Y-57243343D01*
X171064466Y-57244343D01*
X171045626Y-57236469D01*
X171007180Y-57214578D01*
X170953330Y-57181267D01*
X170888276Y-57139131D01*
X170817940Y-57091943D01*
X170746555Y-57043810D01*
X170682908Y-57001928D01*
X170631041Y-56968871D01*
X170594995Y-56947218D01*
X170578867Y-56939543D01*
X170559189Y-56946037D01*
X170521875Y-56963150D01*
X170474621Y-56987326D01*
X170469612Y-56990013D01*
X170405977Y-57021927D01*
X170362341Y-57037579D01*
X170335202Y-57037745D01*
X170321057Y-57023204D01*
X170320975Y-57023000D01*
X170313905Y-57005779D01*
X170297042Y-56964899D01*
X170271695Y-56903525D01*
X170239171Y-56824819D01*
X170200778Y-56731947D01*
X170157822Y-56628072D01*
X170116222Y-56527502D01*
X170070504Y-56416516D01*
X170028526Y-56313703D01*
X169991548Y-56222215D01*
X169960827Y-56145201D01*
X169937622Y-56085815D01*
X169923190Y-56047209D01*
X169918743Y-56032800D01*
X169929896Y-56016272D01*
X169959069Y-55989930D01*
X169997971Y-55960887D01*
X170108757Y-55869039D01*
X170195351Y-55763759D01*
X170256716Y-55647266D01*
X170291815Y-55521776D01*
X170299608Y-55389507D01*
X170293943Y-55328457D01*
X170263078Y-55201795D01*
X170209920Y-55089941D01*
X170137767Y-54994001D01*
X170049917Y-54915076D01*
X169949665Y-54854270D01*
X169840310Y-54812687D01*
X169725147Y-54791428D01*
X169607475Y-54791599D01*
X169490590Y-54814301D01*
X169377789Y-54860638D01*
X169272369Y-54931713D01*
X169228368Y-54971911D01*
X169143979Y-55075129D01*
X169085222Y-55187925D01*
X169051704Y-55307010D01*
X169043035Y-55429095D01*
X169058823Y-55550893D01*
X169098678Y-55669116D01*
X169162207Y-55780475D01*
X169249021Y-55881684D01*
X169346029Y-55960887D01*
X169386437Y-55991162D01*
X169414982Y-56017219D01*
X169425257Y-56032825D01*
X169419877Y-56049843D01*
X169404575Y-56090500D01*
X169380612Y-56151642D01*
X169349244Y-56230119D01*
X169311732Y-56322780D01*
X169269333Y-56426472D01*
X169227663Y-56527526D01*
X169181690Y-56638607D01*
X169139107Y-56741541D01*
X169101221Y-56833165D01*
X169069340Y-56910316D01*
X169044771Y-56969831D01*
X169028820Y-57008544D01*
X169022910Y-57023000D01*
X169008948Y-57037685D01*
X168981940Y-57037642D01*
X168938413Y-57022099D01*
X168874890Y-56990284D01*
X168874388Y-56990013D01*
X168826560Y-56965323D01*
X168787897Y-56947338D01*
X168766095Y-56939614D01*
X168765133Y-56939543D01*
X168748721Y-56947378D01*
X168712487Y-56969165D01*
X168660474Y-57002328D01*
X168596725Y-57044291D01*
X168526060Y-57091943D01*
X168454116Y-57140191D01*
X168389274Y-57182151D01*
X168335735Y-57215227D01*
X168297697Y-57236821D01*
X168279533Y-57244343D01*
X168262808Y-57234457D01*
X168229180Y-57206826D01*
X168182010Y-57164495D01*
X168124658Y-57110505D01*
X168060484Y-57047899D01*
X168039497Y-57026983D01*
X167822499Y-56809623D01*
X167987668Y-56567220D01*
X168037864Y-56492781D01*
X168081919Y-56425972D01*
X168117362Y-56370665D01*
X168141719Y-56330729D01*
X168152522Y-56310036D01*
X168152838Y-56308563D01*
X168147143Y-56289058D01*
X168131826Y-56249822D01*
X168109537Y-56197430D01*
X168093893Y-56162355D01*
X168064641Y-56095201D01*
X168037094Y-56027358D01*
X168015737Y-55970034D01*
X168009935Y-55952572D01*
X167993452Y-55905938D01*
X167977340Y-55869905D01*
X167968490Y-55856287D01*
X167948960Y-55847952D01*
X167906334Y-55836137D01*
X167846145Y-55822181D01*
X167773922Y-55807422D01*
X167741600Y-55801355D01*
X167659522Y-55786273D01*
X167580795Y-55771669D01*
X167513109Y-55758980D01*
X167464160Y-55749642D01*
X167454943Y-55747839D01*
X167378743Y-55732799D01*
X167378743Y-55415492D01*
X167378914Y-55311154D01*
X167379616Y-55232213D01*
X167381134Y-55175038D01*
X167383749Y-55135999D01*
X167387746Y-55111465D01*
X167393409Y-55097805D01*
X167401020Y-55091389D01*
X167404143Y-55090199D01*
X167422978Y-55085980D01*
X167464588Y-55077562D01*
X167523630Y-55065961D01*
X167594757Y-55052195D01*
X167672625Y-55037280D01*
X167751887Y-55022232D01*
X167827198Y-55008069D01*
X167893213Y-54995806D01*
X167944587Y-54986461D01*
X167975975Y-54981050D01*
X167982959Y-54980114D01*
X167989285Y-54967596D01*
X168003290Y-54934246D01*
X168022355Y-54886377D01*
X168029634Y-54867629D01*
X168058996Y-54795195D01*
X168093571Y-54715170D01*
X168124537Y-54647728D01*
X168147323Y-54596159D01*
X168162482Y-54553785D01*
X168167542Y-54527834D01*
X168166736Y-54524356D01*
X168156041Y-54507936D01*
X168131620Y-54471417D01*
X168096095Y-54418687D01*
X168052087Y-54353635D01*
X168002217Y-54280151D01*
X167992356Y-54265645D01*
X167934492Y-54179704D01*
X167891956Y-54114261D01*
X167863054Y-54066304D01*
X167846090Y-54032820D01*
X167839367Y-54010795D01*
X167841190Y-53997217D01*
X167841236Y-53997131D01*
X167855586Y-53979297D01*
X167887323Y-53944817D01*
X167933010Y-53897268D01*
X167989204Y-53840222D01*
X168052468Y-53777255D01*
X168059602Y-53770227D01*
X168139330Y-53693020D01*
X168200857Y-53636330D01*
X168245421Y-53599110D01*
X168274257Y-53580315D01*
X168286958Y-53577889D01*
X168305494Y-53588471D01*
X168343961Y-53612916D01*
X168398386Y-53648612D01*
X168464798Y-53692947D01*
X168539225Y-53743311D01*
X168556601Y-53755160D01*
X168803297Y-53923626D01*
X168914706Y-53873062D01*
X168982457Y-53843595D01*
X169055183Y-53813959D01*
X169117703Y-53790330D01*
X169120457Y-53789358D01*
X169169360Y-53771457D01*
X169207057Y-53756320D01*
X169225425Y-53747210D01*
X169225456Y-53747184D01*
X169231285Y-53730717D01*
X169241192Y-53690219D01*
X169254195Y-53630242D01*
X169269309Y-53555340D01*
X169285552Y-53470064D01*
X169286881Y-53462875D01*
X169303175Y-53375014D01*
X169318133Y-53295260D01*
X169330791Y-53228681D01*
X169340186Y-53180347D01*
X169345354Y-53155325D01*
X169345444Y-53154943D01*
X169348589Y-53144299D01*
X169354704Y-53136262D01*
X169367453Y-53130467D01*
X169390500Y-53126547D01*
X169427509Y-53124135D01*
X169482144Y-53122865D01*
X169558067Y-53122371D01*
X169658944Y-53122286D01*
X169672000Y-53122286D01*
X169775910Y-53122348D01*
G37*
X169775910Y-53122348D02*
X169854454Y-53122778D01*
X169911298Y-53123942D01*
X169950105Y-53126207D01*
X169974538Y-53129940D01*
X169988262Y-53135506D01*
X169994940Y-53143273D01*
X169998236Y-53153605D01*
X169998556Y-53154943D01*
X170003562Y-53179079D01*
X170012829Y-53226701D01*
X170025392Y-53292741D01*
X170040287Y-53372128D01*
X170056551Y-53459796D01*
X170057119Y-53462875D01*
X170073410Y-53548789D01*
X170088652Y-53624696D01*
X170101861Y-53686045D01*
X170112054Y-53728282D01*
X170118248Y-53746855D01*
X170118543Y-53747184D01*
X170136788Y-53756253D01*
X170174405Y-53771367D01*
X170223271Y-53789262D01*
X170223543Y-53789358D01*
X170285093Y-53812493D01*
X170357657Y-53841965D01*
X170426057Y-53871597D01*
X170429294Y-53873062D01*
X170540702Y-53923626D01*
X170787399Y-53755160D01*
X170863077Y-53703803D01*
X170931631Y-53657889D01*
X170989088Y-53620030D01*
X171031476Y-53592837D01*
X171054825Y-53578921D01*
X171057042Y-53577889D01*
X171074010Y-53582484D01*
X171105701Y-53604655D01*
X171153352Y-53645447D01*
X171218198Y-53705905D01*
X171284397Y-53770227D01*
X171348214Y-53833612D01*
X171405329Y-53891451D01*
X171452305Y-53940175D01*
X171485703Y-53976210D01*
X171502085Y-53995984D01*
X171502694Y-53997002D01*
X171504505Y-54010572D01*
X171497683Y-54032733D01*
X171480540Y-54066478D01*
X171451393Y-54114800D01*
X171408555Y-54180692D01*
X171351448Y-54265517D01*
X171300766Y-54340177D01*
X171255461Y-54407140D01*
X171218150Y-54462516D01*
X171191452Y-54502420D01*
X171177985Y-54522962D01*
X171177137Y-54524356D01*
X171178781Y-54544038D01*
X171191245Y-54582293D01*
X171212048Y-54631889D01*
X171219462Y-54647728D01*
X171251814Y-54718290D01*
X171286328Y-54798353D01*
X171314365Y-54867629D01*
X171334568Y-54919045D01*
X171350615Y-54958119D01*
X171359888Y-54978541D01*
X171361041Y-54980114D01*
X171378096Y-54982721D01*
X171418298Y-54989863D01*
X171476302Y-55000523D01*
X171546763Y-55013685D01*
X171624335Y-55028333D01*
X171703672Y-55043449D01*
X171779431Y-55058018D01*
X171846264Y-55071022D01*
X171898828Y-55081445D01*
X171931776Y-55088270D01*
X171939857Y-55090199D01*
X171948205Y-55094962D01*
X171954506Y-55105718D01*
X171959045Y-55126098D01*
X171962104Y-55159734D01*
X171963967Y-55210255D01*
X171964918Y-55281292D01*
X171965240Y-55376476D01*
X171965257Y-55415492D01*
X171965257Y-55732799D01*
X171889057Y-55747839D01*
X171846663Y-55755995D01*
X171783400Y-55767899D01*
X171706962Y-55782116D01*
X171625043Y-55797210D01*
X171602400Y-55801355D01*
X171526806Y-55816053D01*
X171460953Y-55830505D01*
X171410366Y-55843375D01*
X171380574Y-55853322D01*
X171375612Y-55856287D01*
X171363426Y-55877283D01*
X171345953Y-55917967D01*
X171326577Y-55970322D01*
X171322734Y-55981600D01*
X171297339Y-56051523D01*
X171265817Y-56130418D01*
X171234969Y-56201266D01*
X171234817Y-56201595D01*
X171183447Y-56312733D01*
X171352399Y-56561253D01*
X171521352Y-56809772D01*
X171304429Y-57027058D01*
X171238819Y-57091726D01*
X171178979Y-57148733D01*
X171128267Y-57195033D01*
X171090046Y-57227584D01*
X171067675Y-57243343D01*
X171064466Y-57244343D01*
X171045626Y-57236469D01*
X171007180Y-57214578D01*
X170953330Y-57181267D01*
X170888276Y-57139131D01*
X170817940Y-57091943D01*
X170746555Y-57043810D01*
X170682908Y-57001928D01*
X170631041Y-56968871D01*
X170594995Y-56947218D01*
X170578867Y-56939543D01*
X170559189Y-56946037D01*
X170521875Y-56963150D01*
X170474621Y-56987326D01*
X170469612Y-56990013D01*
X170405977Y-57021927D01*
X170362341Y-57037579D01*
X170335202Y-57037745D01*
X170321057Y-57023204D01*
X170320975Y-57023000D01*
X170313905Y-57005779D01*
X170297042Y-56964899D01*
X170271695Y-56903525D01*
X170239171Y-56824819D01*
X170200778Y-56731947D01*
X170157822Y-56628072D01*
X170116222Y-56527502D01*
X170070504Y-56416516D01*
X170028526Y-56313703D01*
X169991548Y-56222215D01*
X169960827Y-56145201D01*
X169937622Y-56085815D01*
X169923190Y-56047209D01*
X169918743Y-56032800D01*
X169929896Y-56016272D01*
X169959069Y-55989930D01*
X169997971Y-55960887D01*
X170108757Y-55869039D01*
X170195351Y-55763759D01*
X170256716Y-55647266D01*
X170291815Y-55521776D01*
X170299608Y-55389507D01*
X170293943Y-55328457D01*
X170263078Y-55201795D01*
X170209920Y-55089941D01*
X170137767Y-54994001D01*
X170049917Y-54915076D01*
X169949665Y-54854270D01*
X169840310Y-54812687D01*
X169725147Y-54791428D01*
X169607475Y-54791599D01*
X169490590Y-54814301D01*
X169377789Y-54860638D01*
X169272369Y-54931713D01*
X169228368Y-54971911D01*
X169143979Y-55075129D01*
X169085222Y-55187925D01*
X169051704Y-55307010D01*
X169043035Y-55429095D01*
X169058823Y-55550893D01*
X169098678Y-55669116D01*
X169162207Y-55780475D01*
X169249021Y-55881684D01*
X169346029Y-55960887D01*
X169386437Y-55991162D01*
X169414982Y-56017219D01*
X169425257Y-56032825D01*
X169419877Y-56049843D01*
X169404575Y-56090500D01*
X169380612Y-56151642D01*
X169349244Y-56230119D01*
X169311732Y-56322780D01*
X169269333Y-56426472D01*
X169227663Y-56527526D01*
X169181690Y-56638607D01*
X169139107Y-56741541D01*
X169101221Y-56833165D01*
X169069340Y-56910316D01*
X169044771Y-56969831D01*
X169028820Y-57008544D01*
X169022910Y-57023000D01*
X169008948Y-57037685D01*
X168981940Y-57037642D01*
X168938413Y-57022099D01*
X168874890Y-56990284D01*
X168874388Y-56990013D01*
X168826560Y-56965323D01*
X168787897Y-56947338D01*
X168766095Y-56939614D01*
X168765133Y-56939543D01*
X168748721Y-56947378D01*
X168712487Y-56969165D01*
X168660474Y-57002328D01*
X168596725Y-57044291D01*
X168526060Y-57091943D01*
X168454116Y-57140191D01*
X168389274Y-57182151D01*
X168335735Y-57215227D01*
X168297697Y-57236821D01*
X168279533Y-57244343D01*
X168262808Y-57234457D01*
X168229180Y-57206826D01*
X168182010Y-57164495D01*
X168124658Y-57110505D01*
X168060484Y-57047899D01*
X168039497Y-57026983D01*
X167822499Y-56809623D01*
X167987668Y-56567220D01*
X168037864Y-56492781D01*
X168081919Y-56425972D01*
X168117362Y-56370665D01*
X168141719Y-56330729D01*
X168152522Y-56310036D01*
X168152838Y-56308563D01*
X168147143Y-56289058D01*
X168131826Y-56249822D01*
X168109537Y-56197430D01*
X168093893Y-56162355D01*
X168064641Y-56095201D01*
X168037094Y-56027358D01*
X168015737Y-55970034D01*
X168009935Y-55952572D01*
X167993452Y-55905938D01*
X167977340Y-55869905D01*
X167968490Y-55856287D01*
X167948960Y-55847952D01*
X167906334Y-55836137D01*
X167846145Y-55822181D01*
X167773922Y-55807422D01*
X167741600Y-55801355D01*
X167659522Y-55786273D01*
X167580795Y-55771669D01*
X167513109Y-55758980D01*
X167464160Y-55749642D01*
X167454943Y-55747839D01*
X167378743Y-55732799D01*
X167378743Y-55415492D01*
X167378914Y-55311154D01*
X167379616Y-55232213D01*
X167381134Y-55175038D01*
X167383749Y-55135999D01*
X167387746Y-55111465D01*
X167393409Y-55097805D01*
X167401020Y-55091389D01*
X167404143Y-55090199D01*
X167422978Y-55085980D01*
X167464588Y-55077562D01*
X167523630Y-55065961D01*
X167594757Y-55052195D01*
X167672625Y-55037280D01*
X167751887Y-55022232D01*
X167827198Y-55008069D01*
X167893213Y-54995806D01*
X167944587Y-54986461D01*
X167975975Y-54981050D01*
X167982959Y-54980114D01*
X167989285Y-54967596D01*
X168003290Y-54934246D01*
X168022355Y-54886377D01*
X168029634Y-54867629D01*
X168058996Y-54795195D01*
X168093571Y-54715170D01*
X168124537Y-54647728D01*
X168147323Y-54596159D01*
X168162482Y-54553785D01*
X168167542Y-54527834D01*
X168166736Y-54524356D01*
X168156041Y-54507936D01*
X168131620Y-54471417D01*
X168096095Y-54418687D01*
X168052087Y-54353635D01*
X168002217Y-54280151D01*
X167992356Y-54265645D01*
X167934492Y-54179704D01*
X167891956Y-54114261D01*
X167863054Y-54066304D01*
X167846090Y-54032820D01*
X167839367Y-54010795D01*
X167841190Y-53997217D01*
X167841236Y-53997131D01*
X167855586Y-53979297D01*
X167887323Y-53944817D01*
X167933010Y-53897268D01*
X167989204Y-53840222D01*
X168052468Y-53777255D01*
X168059602Y-53770227D01*
X168139330Y-53693020D01*
X168200857Y-53636330D01*
X168245421Y-53599110D01*
X168274257Y-53580315D01*
X168286958Y-53577889D01*
X168305494Y-53588471D01*
X168343961Y-53612916D01*
X168398386Y-53648612D01*
X168464798Y-53692947D01*
X168539225Y-53743311D01*
X168556601Y-53755160D01*
X168803297Y-53923626D01*
X168914706Y-53873062D01*
X168982457Y-53843595D01*
X169055183Y-53813959D01*
X169117703Y-53790330D01*
X169120457Y-53789358D01*
X169169360Y-53771457D01*
X169207057Y-53756320D01*
X169225425Y-53747210D01*
X169225456Y-53747184D01*
X169231285Y-53730717D01*
X169241192Y-53690219D01*
X169254195Y-53630242D01*
X169269309Y-53555340D01*
X169285552Y-53470064D01*
X169286881Y-53462875D01*
X169303175Y-53375014D01*
X169318133Y-53295260D01*
X169330791Y-53228681D01*
X169340186Y-53180347D01*
X169345354Y-53155325D01*
X169345444Y-53154943D01*
X169348589Y-53144299D01*
X169354704Y-53136262D01*
X169367453Y-53130467D01*
X169390500Y-53126547D01*
X169427509Y-53124135D01*
X169482144Y-53122865D01*
X169558067Y-53122371D01*
X169658944Y-53122286D01*
X169672000Y-53122286D01*
X169775910Y-53122348D01*
D12*
X143053000Y-60719000D03*
X143053000Y-61919000D03*
X143053000Y-63119000D03*
X143053000Y-64319000D03*
X143053000Y-65519000D03*
X133553000Y-65519000D03*
X133553000Y-64319000D03*
X133553000Y-63119000D03*
X133553000Y-61919000D03*
X133553000Y-60719000D03*
D13*
X140703000Y-67869000D03*
X135903000Y-67869000D03*
X138303000Y-67869000D03*
X137103000Y-67869000D03*
X139503000Y-67869000D03*
X135903000Y-58369000D03*
X137103000Y-58369000D03*
X138303000Y-58369000D03*
X139503000Y-58369000D03*
X140703000Y-58369000D03*
D14*
X186182000Y-115824000D03*
X183642000Y-115824000D03*
D15*
X181102000Y-115824000D03*
G04 #@! TA.AperFunction,SMDPad,CuDef*
D16*
G36*
X189253691Y-120772553D02*
G01*
X189274926Y-120775703D01*
X189295750Y-120780919D01*
X189315962Y-120788151D01*
X189335368Y-120797330D01*
X189353781Y-120808366D01*
X189371024Y-120821154D01*
X189386930Y-120835570D01*
X189401346Y-120851476D01*
X189414134Y-120868719D01*
X189425170Y-120887132D01*
X189434349Y-120906538D01*
X189441581Y-120926750D01*
X189446797Y-120947574D01*
X189449947Y-120968809D01*
X189451000Y-120990250D01*
X189451000Y-121427750D01*
X189449947Y-121449191D01*
X189446797Y-121470426D01*
X189441581Y-121491250D01*
X189434349Y-121511462D01*
X189425170Y-121530868D01*
X189414134Y-121549281D01*
X189401346Y-121566524D01*
X189386930Y-121582430D01*
X189371024Y-121596846D01*
X189353781Y-121609634D01*
X189335368Y-121620670D01*
X189315962Y-121629849D01*
X189295750Y-121637081D01*
X189274926Y-121642297D01*
X189253691Y-121645447D01*
X189232250Y-121646500D01*
X188719750Y-121646500D01*
X188698309Y-121645447D01*
X188677074Y-121642297D01*
X188656250Y-121637081D01*
X188636038Y-121629849D01*
X188616632Y-121620670D01*
X188598219Y-121609634D01*
X188580976Y-121596846D01*
X188565070Y-121582430D01*
X188550654Y-121566524D01*
X188537866Y-121549281D01*
X188526830Y-121530868D01*
X188517651Y-121511462D01*
X188510419Y-121491250D01*
X188505203Y-121470426D01*
X188502053Y-121449191D01*
X188501000Y-121427750D01*
X188501000Y-120990250D01*
X188502053Y-120968809D01*
X188505203Y-120947574D01*
X188510419Y-120926750D01*
X188517651Y-120906538D01*
X188526830Y-120887132D01*
X188537866Y-120868719D01*
X188550654Y-120851476D01*
X188565070Y-120835570D01*
X188580976Y-120821154D01*
X188598219Y-120808366D01*
X188616632Y-120797330D01*
X188636038Y-120788151D01*
X188656250Y-120780919D01*
X188677074Y-120775703D01*
X188698309Y-120772553D01*
X188719750Y-120771500D01*
X189232250Y-120771500D01*
X189253691Y-120772553D01*
G37*
G04 #@! TD.AperFunction*
G04 #@! TA.AperFunction,SMDPad,CuDef*
G36*
X189253691Y-119197553D02*
G01*
X189274926Y-119200703D01*
X189295750Y-119205919D01*
X189315962Y-119213151D01*
X189335368Y-119222330D01*
X189353781Y-119233366D01*
X189371024Y-119246154D01*
X189386930Y-119260570D01*
X189401346Y-119276476D01*
X189414134Y-119293719D01*
X189425170Y-119312132D01*
X189434349Y-119331538D01*
X189441581Y-119351750D01*
X189446797Y-119372574D01*
X189449947Y-119393809D01*
X189451000Y-119415250D01*
X189451000Y-119852750D01*
X189449947Y-119874191D01*
X189446797Y-119895426D01*
X189441581Y-119916250D01*
X189434349Y-119936462D01*
X189425170Y-119955868D01*
X189414134Y-119974281D01*
X189401346Y-119991524D01*
X189386930Y-120007430D01*
X189371024Y-120021846D01*
X189353781Y-120034634D01*
X189335368Y-120045670D01*
X189315962Y-120054849D01*
X189295750Y-120062081D01*
X189274926Y-120067297D01*
X189253691Y-120070447D01*
X189232250Y-120071500D01*
X188719750Y-120071500D01*
X188698309Y-120070447D01*
X188677074Y-120067297D01*
X188656250Y-120062081D01*
X188636038Y-120054849D01*
X188616632Y-120045670D01*
X188598219Y-120034634D01*
X188580976Y-120021846D01*
X188565070Y-120007430D01*
X188550654Y-119991524D01*
X188537866Y-119974281D01*
X188526830Y-119955868D01*
X188517651Y-119936462D01*
X188510419Y-119916250D01*
X188505203Y-119895426D01*
X188502053Y-119874191D01*
X188501000Y-119852750D01*
X188501000Y-119415250D01*
X188502053Y-119393809D01*
X188505203Y-119372574D01*
X188510419Y-119351750D01*
X188517651Y-119331538D01*
X188526830Y-119312132D01*
X188537866Y-119293719D01*
X188550654Y-119276476D01*
X188565070Y-119260570D01*
X188580976Y-119246154D01*
X188598219Y-119233366D01*
X188616632Y-119222330D01*
X188636038Y-119213151D01*
X188656250Y-119205919D01*
X188677074Y-119200703D01*
X188698309Y-119197553D01*
X188719750Y-119196500D01*
X189232250Y-119196500D01*
X189253691Y-119197553D01*
G37*
G04 #@! TD.AperFunction*
G04 #@! TA.AperFunction,SMDPad,CuDef*
G36*
X186154142Y-120847174D02*
G01*
X186177803Y-120850684D01*
X186201007Y-120856496D01*
X186223529Y-120864554D01*
X186245153Y-120874782D01*
X186265670Y-120887079D01*
X186284883Y-120901329D01*
X186302607Y-120917393D01*
X186318671Y-120935117D01*
X186332921Y-120954330D01*
X186345218Y-120974847D01*
X186355446Y-120996471D01*
X186363504Y-121018993D01*
X186369316Y-121042197D01*
X186372826Y-121065858D01*
X186374000Y-121089750D01*
X186374000Y-121577250D01*
X186372826Y-121601142D01*
X186369316Y-121624803D01*
X186363504Y-121648007D01*
X186355446Y-121670529D01*
X186345218Y-121692153D01*
X186332921Y-121712670D01*
X186318671Y-121731883D01*
X186302607Y-121749607D01*
X186284883Y-121765671D01*
X186265670Y-121779921D01*
X186245153Y-121792218D01*
X186223529Y-121802446D01*
X186201007Y-121810504D01*
X186177803Y-121816316D01*
X186154142Y-121819826D01*
X186130250Y-121821000D01*
X185217750Y-121821000D01*
X185193858Y-121819826D01*
X185170197Y-121816316D01*
X185146993Y-121810504D01*
X185124471Y-121802446D01*
X185102847Y-121792218D01*
X185082330Y-121779921D01*
X185063117Y-121765671D01*
X185045393Y-121749607D01*
X185029329Y-121731883D01*
X185015079Y-121712670D01*
X185002782Y-121692153D01*
X184992554Y-121670529D01*
X184984496Y-121648007D01*
X184978684Y-121624803D01*
X184975174Y-121601142D01*
X184974000Y-121577250D01*
X184974000Y-121089750D01*
X184975174Y-121065858D01*
X184978684Y-121042197D01*
X184984496Y-121018993D01*
X184992554Y-120996471D01*
X185002782Y-120974847D01*
X185015079Y-120954330D01*
X185029329Y-120935117D01*
X185045393Y-120917393D01*
X185063117Y-120901329D01*
X185082330Y-120887079D01*
X185102847Y-120874782D01*
X185124471Y-120864554D01*
X185146993Y-120856496D01*
X185170197Y-120850684D01*
X185193858Y-120847174D01*
X185217750Y-120846000D01*
X186130250Y-120846000D01*
X186154142Y-120847174D01*
G37*
G04 #@! TD.AperFunction*
G04 #@! TA.AperFunction,SMDPad,CuDef*
G36*
X186154142Y-118972174D02*
G01*
X186177803Y-118975684D01*
X186201007Y-118981496D01*
X186223529Y-118989554D01*
X186245153Y-118999782D01*
X186265670Y-119012079D01*
X186284883Y-119026329D01*
X186302607Y-119042393D01*
X186318671Y-119060117D01*
X186332921Y-119079330D01*
X186345218Y-119099847D01*
X186355446Y-119121471D01*
X186363504Y-119143993D01*
X186369316Y-119167197D01*
X186372826Y-119190858D01*
X186374000Y-119214750D01*
X186374000Y-119702250D01*
X186372826Y-119726142D01*
X186369316Y-119749803D01*
X186363504Y-119773007D01*
X186355446Y-119795529D01*
X186345218Y-119817153D01*
X186332921Y-119837670D01*
X186318671Y-119856883D01*
X186302607Y-119874607D01*
X186284883Y-119890671D01*
X186265670Y-119904921D01*
X186245153Y-119917218D01*
X186223529Y-119927446D01*
X186201007Y-119935504D01*
X186177803Y-119941316D01*
X186154142Y-119944826D01*
X186130250Y-119946000D01*
X185217750Y-119946000D01*
X185193858Y-119944826D01*
X185170197Y-119941316D01*
X185146993Y-119935504D01*
X185124471Y-119927446D01*
X185102847Y-119917218D01*
X185082330Y-119904921D01*
X185063117Y-119890671D01*
X185045393Y-119874607D01*
X185029329Y-119856883D01*
X185015079Y-119837670D01*
X185002782Y-119817153D01*
X184992554Y-119795529D01*
X184984496Y-119773007D01*
X184978684Y-119749803D01*
X184975174Y-119726142D01*
X184974000Y-119702250D01*
X184974000Y-119214750D01*
X184975174Y-119190858D01*
X184978684Y-119167197D01*
X184984496Y-119143993D01*
X184992554Y-119121471D01*
X185002782Y-119099847D01*
X185015079Y-119079330D01*
X185029329Y-119060117D01*
X185045393Y-119042393D01*
X185063117Y-119026329D01*
X185082330Y-119012079D01*
X185102847Y-118999782D01*
X185124471Y-118989554D01*
X185146993Y-118981496D01*
X185170197Y-118975684D01*
X185193858Y-118972174D01*
X185217750Y-118971000D01*
X186130250Y-118971000D01*
X186154142Y-118972174D01*
G37*
G04 #@! TD.AperFunction*
D17*
X135128000Y-107708000D03*
X135128000Y-109208000D03*
D18*
X131487000Y-70421500D03*
X130387000Y-70421500D03*
D19*
X190000000Y-61250000D03*
X190000000Y-62750000D03*
X127508000Y-59448000D03*
X127508000Y-60948000D03*
D20*
X127520000Y-63754000D03*
X129020000Y-63754000D03*
D21*
X129794000Y-117856000D03*
D22*
X129794000Y-112256000D03*
X129794000Y-123456000D03*
D23*
X167000000Y-103000000D03*
X167000000Y-99000000D03*
D24*
X128328000Y-78232000D03*
X129228000Y-78232000D03*
D19*
X141732000Y-50534000D03*
X141732000Y-49034000D03*
D25*
X171640500Y-115125500D03*
D26*
X169100500Y-115125500D03*
X180848000Y-91694000D03*
D25*
X183388000Y-91694000D03*
D27*
X148000000Y-114650000D03*
X148000000Y-111350000D03*
D24*
X134308000Y-70358000D03*
X133408000Y-70358000D03*
D28*
X193300000Y-86960000D03*
X193300000Y-111960000D03*
D29*
X195840000Y-95305000D03*
X195840000Y-98075000D03*
X195840000Y-100845000D03*
X195840000Y-103615000D03*
X193000000Y-93920000D03*
X193000000Y-96690000D03*
X193000000Y-99460000D03*
X193000000Y-102230000D03*
D30*
X193000000Y-105000000D03*
X169000000Y-79000000D03*
D31*
X135980000Y-86620000D03*
X166460000Y-79000000D03*
X138520000Y-86620000D03*
X163920000Y-79000000D03*
X141060000Y-86620000D03*
X161380000Y-79000000D03*
X143600000Y-86620000D03*
X158840000Y-79000000D03*
X146140000Y-86620000D03*
X156300000Y-79000000D03*
X148680000Y-86620000D03*
X153760000Y-79000000D03*
X151220000Y-86620000D03*
X151220000Y-79000000D03*
X153760000Y-86620000D03*
X148680000Y-79000000D03*
X156300000Y-86620000D03*
X146140000Y-79000000D03*
X158840000Y-86620000D03*
X143600000Y-79000000D03*
X161380000Y-86620000D03*
X141060000Y-79000000D03*
X163920000Y-86620000D03*
X138520000Y-79000000D03*
X166460000Y-86620000D03*
X135980000Y-79000000D03*
X169000000Y-86620000D03*
D32*
X135382000Y-112014000D03*
X135382000Y-110914000D03*
D18*
X184450000Y-66000000D03*
X185550000Y-66000000D03*
D19*
X195000000Y-59250000D03*
X195000000Y-60750000D03*
X166000000Y-68750000D03*
X166000000Y-67250000D03*
X166000000Y-61250000D03*
X166000000Y-62750000D03*
D33*
X127508000Y-55118000D03*
X127508000Y-50038000D03*
X132588000Y-50038000D03*
X132588000Y-55118000D03*
D34*
X130048000Y-52578000D03*
D35*
X173000000Y-68000000D03*
X173000000Y-63120000D03*
D30*
X180000000Y-79000000D03*
D31*
X187620000Y-86620000D03*
X180000000Y-81540000D03*
X187620000Y-84080000D03*
X180000000Y-84080000D03*
X187620000Y-81540000D03*
X180000000Y-86620000D03*
X187620000Y-79000000D03*
D17*
X138430000Y-50534000D03*
X138430000Y-49034000D03*
D25*
X141000000Y-123000000D03*
D26*
X141000000Y-120460000D03*
X143540000Y-123000000D03*
X143540000Y-120460000D03*
X146080000Y-123000000D03*
X146080000Y-120460000D03*
X148620000Y-123000000D03*
X148620000Y-120460000D03*
X151160000Y-123000000D03*
X151160000Y-120460000D03*
X153700000Y-123000000D03*
X153700000Y-120460000D03*
X156240000Y-123000000D03*
X156240000Y-120460000D03*
X158780000Y-123000000D03*
X158780000Y-120460000D03*
X161320000Y-123000000D03*
X161320000Y-120460000D03*
X163860000Y-123000000D03*
X163860000Y-120460000D03*
X166400000Y-123000000D03*
X166400000Y-120460000D03*
X168940000Y-123000000D03*
X168940000Y-120460000D03*
X171480000Y-123000000D03*
X171480000Y-120460000D03*
X174020000Y-123000000D03*
X174020000Y-120460000D03*
X176560000Y-123000000D03*
X176560000Y-120460000D03*
X179100000Y-123000000D03*
X179100000Y-120460000D03*
X181640000Y-123000000D03*
X181640000Y-120460000D03*
D25*
X146939000Y-50816000D03*
D26*
X146939000Y-48276000D03*
X149479000Y-50816000D03*
X149479000Y-48276000D03*
X152019000Y-50816000D03*
X152019000Y-48276000D03*
X154559000Y-50816000D03*
X154559000Y-48276000D03*
X157099000Y-50816000D03*
X157099000Y-48276000D03*
X159639000Y-50816000D03*
X159639000Y-48276000D03*
X162179000Y-50816000D03*
X162179000Y-48276000D03*
X164719000Y-50816000D03*
X164719000Y-48276000D03*
X167259000Y-50816000D03*
X167259000Y-48276000D03*
X169799000Y-50816000D03*
X169799000Y-48276000D03*
X172339000Y-50816000D03*
X172339000Y-48276000D03*
X174879000Y-50816000D03*
X174879000Y-48276000D03*
X177419000Y-50816000D03*
X177419000Y-48276000D03*
X179959000Y-50816000D03*
X179959000Y-48276000D03*
X182499000Y-50816000D03*
X182499000Y-48276000D03*
X185039000Y-50816000D03*
X185039000Y-48276000D03*
X187579000Y-50816000D03*
X187579000Y-48276000D03*
X190119000Y-50816000D03*
X190119000Y-48276000D03*
X192659000Y-50816000D03*
X192659000Y-48276000D03*
X195199000Y-50816000D03*
X195199000Y-48276000D03*
D17*
X152000000Y-95500000D03*
X152000000Y-97000000D03*
X152000000Y-100750000D03*
X152000000Y-99250000D03*
D36*
X146750000Y-92000000D03*
X145250000Y-92000000D03*
X128131000Y-80137000D03*
X126631000Y-80137000D03*
D17*
X162000000Y-95500000D03*
X162000000Y-94000000D03*
D36*
X162750000Y-99000000D03*
X161250000Y-99000000D03*
D17*
X150731000Y-58409000D03*
X150731000Y-59909000D03*
D36*
X130000000Y-98000000D03*
X131500000Y-98000000D03*
X130500000Y-104000000D03*
X132000000Y-104000000D03*
D17*
X153289000Y-60972000D03*
X153289000Y-62472000D03*
X148000000Y-102250000D03*
X148000000Y-103750000D03*
X152000000Y-91500000D03*
X152000000Y-93000000D03*
X161000000Y-72750000D03*
X161000000Y-71250000D03*
X166000000Y-73750000D03*
X166000000Y-72250000D03*
D36*
X175750000Y-84000000D03*
X174250000Y-84000000D03*
X184250000Y-61000000D03*
X185750000Y-61000000D03*
D17*
X187000000Y-72500000D03*
X187000000Y-71000000D03*
X187000000Y-101250000D03*
X187000000Y-102750000D03*
X190000000Y-67750000D03*
X190000000Y-66250000D03*
X195000000Y-65750000D03*
X195000000Y-64250000D03*
X155829000Y-60972000D03*
X155829000Y-62472000D03*
X148000000Y-107750000D03*
X148000000Y-106250000D03*
X160000000Y-109250000D03*
X160000000Y-110750000D03*
D37*
X167000000Y-109270000D03*
X167000000Y-108000000D03*
D38*
X167000000Y-110540000D03*
D39*
X157270000Y-91730000D03*
X158540000Y-93000000D03*
D40*
X156000000Y-93000000D03*
D39*
X157270000Y-99730000D03*
X158540000Y-101000000D03*
D40*
X156000000Y-101000000D03*
D39*
X154270000Y-112730000D03*
X155540000Y-114000000D03*
D40*
X153000000Y-114000000D03*
D39*
X186270000Y-108270000D03*
X185000000Y-109540000D03*
D40*
X185000000Y-107000000D03*
D39*
X140730000Y-110270000D03*
X139460000Y-109000000D03*
D40*
X142000000Y-109000000D03*
D39*
X180730000Y-102270000D03*
X179460000Y-101000000D03*
D40*
X182000000Y-101000000D03*
D39*
X140270000Y-99730000D03*
X141540000Y-101000000D03*
D40*
X139000000Y-101000000D03*
D41*
X135890000Y-60452000D03*
X138430000Y-60452000D03*
X140970000Y-60452000D03*
X135890000Y-62992000D03*
X140970000Y-62992000D03*
X135890000Y-65532000D03*
X138430000Y-65532000D03*
X140970000Y-65532000D03*
X130429000Y-67183000D03*
X173228000Y-75946000D03*
X136906000Y-111760000D03*
X158750000Y-55880000D03*
X163830000Y-55880000D03*
X158750000Y-59690000D03*
X163830000Y-59690000D03*
X133350000Y-116332000D03*
X133350000Y-119380000D03*
X173799500Y-110045500D03*
X170688000Y-98742500D03*
X174000000Y-79000000D03*
X131254500Y-78232000D03*
X149000000Y-90000000D03*
D42*
X131500000Y-98700000D02*
X131424999Y-98775001D01*
X131500000Y-98000000D02*
X131500000Y-98700000D01*
X166000000Y-68775000D02*
X166000000Y-68750000D01*
X163525000Y-71250000D02*
X166000000Y-68775000D01*
X161000000Y-71250000D02*
X163525000Y-71250000D01*
X185750000Y-65800000D02*
X185550000Y-66000000D01*
X185750000Y-61000000D02*
X185750000Y-65800000D01*
X189750000Y-61000000D02*
X190000000Y-61250000D01*
X185750000Y-61000000D02*
X189750000Y-61000000D01*
X191975000Y-59250000D02*
X195000000Y-59250000D01*
X190000000Y-61225000D02*
X191975000Y-59250000D01*
X190000000Y-61250000D02*
X190000000Y-61225000D01*
X158970000Y-71250000D02*
X151220000Y-79000000D01*
X161000000Y-71250000D02*
X158970000Y-71250000D01*
X134300000Y-101000000D02*
X139000000Y-101000000D01*
X131500000Y-98200000D02*
X134300000Y-101000000D01*
X131500000Y-98000000D02*
X131500000Y-98200000D01*
X139000000Y-93760000D02*
X139000000Y-101000000D01*
X146140000Y-86620000D02*
X139000000Y-93760000D01*
X185750000Y-60800000D02*
X185750000Y-61000000D01*
X185174999Y-60224999D02*
X185750000Y-60800000D01*
X167650001Y-60224999D02*
X185174999Y-60224999D01*
X166625000Y-61250000D02*
X167650001Y-60224999D01*
X145250000Y-87510000D02*
X146140000Y-86620000D01*
X145250000Y-92000000D02*
X145250000Y-87510000D01*
X166625000Y-61250000D02*
X166000000Y-61250000D01*
X172721002Y-61250000D02*
X166625000Y-61250000D01*
X174075001Y-62603999D02*
X172721002Y-61250000D01*
X174075001Y-68516001D02*
X174075001Y-62603999D01*
X173516001Y-69075001D02*
X174075001Y-68516001D01*
X166950001Y-69075001D02*
X173516001Y-69075001D01*
X166625000Y-68750000D02*
X166950001Y-69075001D01*
X166000000Y-68750000D02*
X166625000Y-68750000D01*
X195260000Y-50877000D02*
X195199000Y-50816000D01*
X195000000Y-59250000D02*
X195260000Y-58990000D01*
X135623000Y-60719000D02*
X135890000Y-60452000D01*
X133553000Y-60719000D02*
X135623000Y-60719000D01*
X135903000Y-60439000D02*
X135890000Y-60452000D01*
X135903000Y-58369000D02*
X135903000Y-60439000D01*
X137103000Y-61779000D02*
X135890000Y-62992000D01*
X137103000Y-58369000D02*
X137103000Y-61779000D01*
X138303000Y-60325000D02*
X138430000Y-60452000D01*
X138303000Y-58369000D02*
X138303000Y-60325000D01*
X140703000Y-60185000D02*
X140970000Y-60452000D01*
X140703000Y-58369000D02*
X140703000Y-60185000D01*
X141732000Y-50534000D02*
X141732000Y-50546000D01*
X127508000Y-55118000D02*
X127508000Y-59448000D01*
X140970000Y-60452000D02*
X140970000Y-62992000D01*
X140970000Y-62992000D02*
X140970000Y-65532000D01*
X138430000Y-65532000D02*
X135890000Y-65532000D01*
X138430000Y-65532000D02*
X140970000Y-65532000D01*
X135890000Y-62992000D02*
X135890000Y-65532000D01*
X135890000Y-60452000D02*
X135890000Y-62992000D01*
X140970000Y-60452000D02*
X138430000Y-60452000D01*
X127508000Y-59448000D02*
X127496000Y-59448000D01*
X127496000Y-59448000D02*
X126428500Y-60515500D01*
X126428500Y-62662500D02*
X127520000Y-63754000D01*
X126428500Y-60515500D02*
X126428500Y-62662500D01*
X151160000Y-123000000D02*
X151320000Y-123000000D01*
X171480000Y-123000000D02*
X171480000Y-122966000D01*
X171480000Y-122966000D02*
X170180000Y-121666000D01*
X165066000Y-121666000D02*
X163860000Y-120460000D01*
X170180000Y-121666000D02*
X165066000Y-121666000D01*
X151160000Y-123000000D02*
X151160000Y-122906000D01*
X151160000Y-122906000D02*
X152400000Y-121666000D01*
X155034000Y-121666000D02*
X156240000Y-120460000D01*
X152400000Y-121666000D02*
X155034000Y-121666000D01*
X166032000Y-68750000D02*
X173228000Y-75946000D01*
X166000000Y-68750000D02*
X166032000Y-68750000D01*
X193000000Y-111660000D02*
X193300000Y-111960000D01*
X182000000Y-101000000D02*
X185004000Y-101000000D01*
X185004000Y-101000000D02*
X187706000Y-98298000D01*
X187706000Y-98298000D02*
X194056000Y-98298000D01*
X194056000Y-98298000D02*
X195326000Y-99568000D01*
X195326000Y-99568000D02*
X196596000Y-99568000D01*
X196596000Y-99568000D02*
X197358000Y-100330000D01*
X197358000Y-100330000D02*
X197358000Y-103886000D01*
X197358000Y-103886000D02*
X196244000Y-105000000D01*
X171480000Y-123000000D02*
X171480000Y-122906000D01*
X171480000Y-122906000D02*
X172720000Y-121666000D01*
X180434000Y-121666000D02*
X181640000Y-120460000D01*
X172720000Y-121666000D02*
X180434000Y-121666000D01*
X177419000Y-50816000D02*
X177419000Y-50689000D01*
X182499000Y-48276000D02*
X182499000Y-48403000D01*
X169799000Y-48276000D02*
X169799000Y-48403000D01*
X162179000Y-48276000D02*
X162179000Y-48403000D01*
X162179000Y-48276000D02*
X162052000Y-48276000D01*
X130429000Y-70379500D02*
X130387000Y-70421500D01*
X130429000Y-67183000D02*
X130429000Y-70379500D01*
X158750000Y-55880000D02*
X163830000Y-55880000D01*
X158750000Y-59690000D02*
X163830000Y-59690000D01*
X136060000Y-110914000D02*
X136906000Y-111760000D01*
X135382000Y-110914000D02*
X136060000Y-110914000D01*
X135128000Y-109208000D02*
X134100000Y-109208000D01*
X134100000Y-109208000D02*
X131318000Y-106426000D01*
X131318000Y-106426000D02*
X131318000Y-98806000D01*
X135128000Y-110660000D02*
X135382000Y-110914000D01*
X135128000Y-109208000D02*
X135128000Y-110660000D01*
X131826000Y-117856000D02*
X133350000Y-116332000D01*
X131826000Y-117856000D02*
X133350000Y-119380000D01*
X129794000Y-117856000D02*
X131826000Y-117856000D01*
X141732000Y-57340000D02*
X140703000Y-58369000D01*
X141732000Y-50534000D02*
X141732000Y-57340000D01*
X130429000Y-67183000D02*
X130429000Y-65151000D01*
X131261000Y-64319000D02*
X133553000Y-64319000D01*
X130429000Y-65151000D02*
X131261000Y-64319000D01*
X158369000Y-49546000D02*
X157099000Y-50816000D01*
X162179000Y-48403000D02*
X161036000Y-49546000D01*
X161036000Y-49546000D02*
X158369000Y-49546000D01*
X163449000Y-49546000D02*
X162179000Y-48276000D01*
X162052000Y-48276000D02*
X160782000Y-47006000D01*
X160782000Y-47006000D02*
X153289000Y-47006000D01*
X153289000Y-47006000D02*
X152019000Y-48276000D01*
X168656000Y-49546000D02*
X163449000Y-49546000D01*
X169799000Y-48403000D02*
X168656000Y-49546000D01*
X186309000Y-49546000D02*
X187579000Y-48276000D01*
X183642000Y-49546000D02*
X186309000Y-49546000D01*
X182499000Y-48403000D02*
X183642000Y-49546000D01*
X181229000Y-49546000D02*
X182499000Y-48276000D01*
X177419000Y-50689000D02*
X178562000Y-49546000D01*
X178562000Y-49546000D02*
X181229000Y-49546000D01*
X176569001Y-49966001D02*
X177419000Y-50816000D01*
X176054001Y-49451001D02*
X176569001Y-49966001D01*
X170974001Y-49451001D02*
X176054001Y-49451001D01*
X169799000Y-48276000D02*
X170974001Y-49451001D01*
X195199000Y-59051000D02*
X195000000Y-59250000D01*
X195199000Y-50816000D02*
X195199000Y-59051000D01*
X185798500Y-121209000D02*
X185674000Y-121333500D01*
X188976000Y-121209000D02*
X185798500Y-121209000D01*
X182513500Y-121333500D02*
X181640000Y-120460000D01*
X185674000Y-121333500D02*
X182513500Y-121333500D01*
X193300000Y-116885000D02*
X193300000Y-111960000D01*
X188976000Y-121209000D02*
X193300000Y-116885000D01*
X196244000Y-105000000D02*
X193000000Y-105000000D01*
X193000000Y-105000000D02*
X193000000Y-111660000D01*
X138168000Y-107708000D02*
X139460000Y-109000000D01*
X135128000Y-107708000D02*
X138168000Y-107708000D01*
X148000000Y-106250000D02*
X148000000Y-103750000D01*
X145250000Y-109000000D02*
X148000000Y-106250000D01*
X142000000Y-109000000D02*
X145250000Y-109000000D01*
X148000000Y-111000000D02*
X148000000Y-107750000D01*
X141460000Y-111000000D02*
X140730000Y-110270000D01*
X148000000Y-111000000D02*
X141460000Y-111000000D01*
X160020000Y-109270000D02*
X160000000Y-109250000D01*
X167000000Y-109270000D02*
X160020000Y-109270000D01*
X154540000Y-115000000D02*
X155540000Y-114000000D01*
X148000000Y-115000000D02*
X154540000Y-115000000D01*
X187000000Y-103250000D02*
X187000000Y-102750000D01*
X187365000Y-103615000D02*
X187000000Y-103250000D01*
X195840000Y-103615000D02*
X187365000Y-103615000D01*
X156247106Y-114000000D02*
X155540000Y-114000000D01*
X187000000Y-102750000D02*
X186800000Y-102750000D01*
X155540000Y-114000000D02*
X164765000Y-114000000D01*
X164765000Y-114000000D02*
X166624000Y-112141000D01*
X177609000Y-112141000D02*
X187000000Y-102750000D01*
X166624000Y-112141000D02*
X177609000Y-112141000D01*
X154730000Y-99730000D02*
X152000000Y-97000000D01*
X157270000Y-99730000D02*
X154730000Y-99730000D01*
X161250000Y-99200000D02*
X161250000Y-99000000D01*
X159450000Y-101000000D02*
X161250000Y-99200000D01*
X158540000Y-101000000D02*
X159450000Y-101000000D01*
X158540000Y-97674998D02*
X158540000Y-101000000D01*
X161289999Y-94924999D02*
X158540000Y-97674998D01*
X164809997Y-94924999D02*
X161289999Y-94924999D01*
X166574998Y-96690000D02*
X164809997Y-94924999D01*
X193000000Y-96690000D02*
X166574998Y-96690000D01*
X152000000Y-100750000D02*
X152000000Y-100882500D01*
X152000000Y-100882500D02*
X154305000Y-103187500D01*
X156352500Y-103187500D02*
X158540000Y-101000000D01*
X154305000Y-103187500D02*
X156352500Y-103187500D01*
X162000000Y-93500000D02*
X162000000Y-94000000D01*
X161500000Y-93000000D02*
X162000000Y-93500000D01*
X158540000Y-93000000D02*
X161500000Y-93000000D01*
X195840000Y-96943630D02*
X195840000Y-98075000D01*
X193941371Y-95045001D02*
X195840000Y-96943630D01*
X192459999Y-95045001D02*
X193941371Y-95045001D01*
X191414998Y-94000000D02*
X192459999Y-95045001D01*
X162000000Y-94000000D02*
X191414998Y-94000000D01*
X153470000Y-91730000D02*
X157270000Y-91730000D01*
X152200000Y-93000000D02*
X153470000Y-91730000D01*
X152000000Y-93000000D02*
X152200000Y-93000000D01*
X160210000Y-110540000D02*
X160000000Y-110750000D01*
X167000000Y-110540000D02*
X160210000Y-110540000D01*
X167000000Y-103000000D02*
X167000000Y-108000000D01*
X173799500Y-110045500D02*
X172466000Y-110045500D01*
X170420500Y-108000000D02*
X167000000Y-108000000D01*
X172466000Y-110045500D02*
X170420500Y-108000000D01*
X188976000Y-119096500D02*
X188976000Y-119634000D01*
X188976000Y-118665500D02*
X188976000Y-119096500D01*
X186182000Y-115871500D02*
X188976000Y-118665500D01*
X186182000Y-115824000D02*
X186182000Y-115871500D01*
X157099000Y-48276000D02*
X155829000Y-49546000D01*
X155829000Y-59956000D02*
X155829000Y-49530000D01*
X155829000Y-60972000D02*
X155829000Y-59956000D01*
X195000000Y-76700000D02*
X187620000Y-84080000D01*
X195000000Y-65750000D02*
X195000000Y-76700000D01*
X195000000Y-60750000D02*
X195000000Y-64250000D01*
X190000000Y-62750000D02*
X190000000Y-66250000D01*
X190000000Y-79160000D02*
X187620000Y-81540000D01*
X190000000Y-67750000D02*
X190000000Y-79160000D01*
X146250000Y-104000000D02*
X148000000Y-102250000D01*
X132000000Y-104000000D02*
X146250000Y-104000000D01*
X187605000Y-100845000D02*
X195840000Y-100845000D01*
X187200000Y-101250000D02*
X187605000Y-100845000D01*
X187000000Y-101250000D02*
X187200000Y-101250000D01*
X186800000Y-101250000D02*
X187000000Y-101250000D01*
X176724999Y-111325001D02*
X186800000Y-101250000D01*
X157275001Y-111325001D02*
X176724999Y-111325001D01*
X148200000Y-102250000D02*
X157275001Y-111325001D01*
X148000000Y-102250000D02*
X148200000Y-102250000D01*
X162750000Y-96050000D02*
X162750000Y-99000000D01*
X162200000Y-95500000D02*
X162750000Y-96050000D01*
X162000000Y-95500000D02*
X162200000Y-95500000D01*
X162750000Y-99000000D02*
X167000000Y-99000000D01*
X187000000Y-73000000D02*
X187000000Y-72500000D01*
X188745001Y-79540001D02*
X188745001Y-74745001D01*
X187131409Y-80125001D02*
X188160001Y-80125001D01*
X188160001Y-80125001D02*
X188745001Y-79540001D01*
X188745001Y-74745001D02*
X187000000Y-73000000D01*
X185000000Y-82256410D02*
X187131409Y-80125001D01*
X185000000Y-82256410D02*
X185000000Y-84684500D01*
X180848000Y-88836500D02*
X180848000Y-91694000D01*
X185000000Y-84684500D02*
X180848000Y-88836500D01*
X167257500Y-98742500D02*
X167000000Y-99000000D01*
X170688000Y-98742500D02*
X167257500Y-98742500D01*
X184450000Y-69623002D02*
X184450000Y-66000000D01*
X172298013Y-81774989D02*
X184450000Y-69623002D01*
X169234989Y-81774989D02*
X172298013Y-81774989D01*
X166460000Y-79000000D02*
X169234989Y-81774989D01*
X184450000Y-61200000D02*
X184250000Y-61000000D01*
X184450000Y-66000000D02*
X184450000Y-61200000D01*
X185826998Y-71000000D02*
X184450000Y-69623002D01*
X187000000Y-71000000D02*
X185826998Y-71000000D01*
X165500000Y-72750000D02*
X166000000Y-72250000D01*
X161000000Y-72750000D02*
X165500000Y-72750000D01*
X167250000Y-72250000D02*
X174000000Y-79000000D01*
X166000000Y-72250000D02*
X167250000Y-72250000D01*
X139319999Y-85820001D02*
X138520000Y-86620000D01*
X139645001Y-85494999D02*
X139319999Y-85820001D01*
X154300001Y-85494999D02*
X139645001Y-85494999D01*
X154885001Y-86079999D02*
X154300001Y-85494999D01*
X154885001Y-87160001D02*
X154885001Y-86079999D01*
X156585002Y-88000000D02*
X155725000Y-88000000D01*
X157425001Y-87160001D02*
X156585002Y-88000000D01*
X157425001Y-86369997D02*
X157425001Y-87160001D01*
X159794998Y-84000000D02*
X157425001Y-86369997D01*
X155725000Y-88000000D02*
X154885001Y-87160001D01*
X174250000Y-84000000D02*
X159794998Y-84000000D01*
X176250000Y-84000000D02*
X175750000Y-84000000D01*
X177295001Y-82954999D02*
X176250000Y-84000000D01*
X183665001Y-82954999D02*
X177295001Y-82954999D01*
X187620000Y-79000000D02*
X183665001Y-82954999D01*
X163920000Y-75630000D02*
X163920000Y-79000000D01*
X165800000Y-73750000D02*
X163920000Y-75630000D01*
X166000000Y-73750000D02*
X165800000Y-73750000D01*
X136070000Y-86620000D02*
X135980000Y-86620000D01*
X136616410Y-86620000D02*
X135980000Y-86620000D01*
X138236410Y-85000000D02*
X136616410Y-86620000D01*
X139265002Y-85000000D02*
X138236410Y-85000000D01*
X144725001Y-79540001D02*
X139265002Y-85000000D01*
X144725001Y-78459999D02*
X144725001Y-79540001D01*
X144140001Y-77874999D02*
X144725001Y-78459999D01*
X135439999Y-77874999D02*
X144140001Y-77874999D01*
X129424999Y-83889999D02*
X135439999Y-77874999D01*
X169100500Y-115125500D02*
X169100500Y-115887500D01*
X169100500Y-115887500D02*
X167767000Y-117221000D01*
X146779000Y-117221000D02*
X143540000Y-120460000D01*
X167767000Y-117221000D02*
X146779000Y-117221000D01*
X141000000Y-117632000D02*
X135382000Y-112014000D01*
X141000000Y-120460000D02*
X141000000Y-117632000D01*
X129424999Y-106056999D02*
X135382000Y-112014000D01*
X129424999Y-83889999D02*
X129424999Y-106056999D01*
X152000000Y-88380000D02*
X153760000Y-86620000D01*
X152000000Y-91500000D02*
X152000000Y-88380000D01*
X130500000Y-98500000D02*
X130000000Y-98000000D01*
X130500000Y-104000000D02*
X130500000Y-98500000D01*
X142800001Y-79799999D02*
X143600000Y-79000000D01*
X137105001Y-85494999D02*
X142800001Y-79799999D01*
X135439999Y-85494999D02*
X137105001Y-85494999D01*
X130000000Y-90934998D02*
X135439999Y-85494999D01*
X130000000Y-98000000D02*
X130000000Y-90934998D01*
X138430000Y-49034000D02*
X141732000Y-49034000D01*
X141732000Y-49034000D02*
X144157000Y-49034000D01*
X131254500Y-78232000D02*
X129228000Y-78232000D01*
X134308000Y-75178500D02*
X131254500Y-78232000D01*
X134308000Y-70358000D02*
X134308000Y-75178500D01*
X145839000Y-50816000D02*
X146939000Y-50816000D01*
X144157000Y-49134000D02*
X145839000Y-50816000D01*
X144157000Y-49034000D02*
X144157000Y-49134000D01*
X150731000Y-57005000D02*
X150731000Y-58409000D01*
X146939000Y-50816000D02*
X146939000Y-53213000D01*
X146939000Y-53213000D02*
X150731000Y-57005000D01*
X147000000Y-92000000D02*
X146750000Y-92000000D01*
X149000000Y-90000000D02*
X147000000Y-92000000D01*
X152000000Y-99250000D02*
X152000000Y-98787000D01*
X146750000Y-93537000D02*
X146750000Y-92000000D01*
X152000000Y-98787000D02*
X146750000Y-93537000D01*
X151220000Y-94220000D02*
X151220000Y-86620000D01*
X152000000Y-95000000D02*
X151220000Y-94220000D01*
X152000000Y-95500000D02*
X152000000Y-95000000D01*
X154559000Y-48276000D02*
X154432000Y-48276000D01*
X154559000Y-48276000D02*
X154305000Y-48276000D01*
X153289000Y-49546000D02*
X154559000Y-48276000D01*
X153289000Y-59956000D02*
X153289000Y-49530000D01*
X153289000Y-60972000D02*
X153289000Y-59956000D01*
X159639999Y-87419999D02*
X158840000Y-86620000D01*
X160220000Y-88000000D02*
X159639999Y-87419999D01*
X178620000Y-88000000D02*
X160220000Y-88000000D01*
X180000000Y-86620000D02*
X178620000Y-88000000D01*
X157099999Y-85820001D02*
X156300000Y-86620000D01*
X160695001Y-82224999D02*
X157099999Y-85820001D01*
X175725001Y-82224999D02*
X160695001Y-82224999D01*
X178950000Y-79000000D02*
X175725001Y-82224999D01*
X180000000Y-79000000D02*
X178950000Y-79000000D01*
X162390000Y-62750000D02*
X146140000Y-79000000D01*
X166000000Y-62750000D02*
X162390000Y-62750000D01*
X172630000Y-62750000D02*
X173000000Y-63120000D01*
X166000000Y-62750000D02*
X172630000Y-62750000D01*
X160430000Y-67250000D02*
X148680000Y-79000000D01*
X166000000Y-67250000D02*
X160430000Y-67250000D01*
X172250001Y-67250001D02*
X173000000Y-68000000D01*
X166000000Y-67250000D02*
X172250001Y-67250001D01*
X155829000Y-62472000D02*
X155829000Y-62484000D01*
X155829000Y-62472000D02*
X155829000Y-63373000D01*
X153683000Y-65519000D02*
X143053000Y-65519000D01*
X155829000Y-63373000D02*
X153683000Y-65519000D01*
X153289000Y-62472000D02*
X153289000Y-63119000D01*
X152089000Y-64319000D02*
X143053000Y-64319000D01*
X153289000Y-63119000D02*
X152089000Y-64319000D01*
X150731000Y-59909000D02*
X150731000Y-60089000D01*
X148901000Y-61919000D02*
X143053000Y-61919000D01*
X150731000Y-60089000D02*
X148901000Y-61919000D01*
X129020000Y-63754000D02*
X129020000Y-68211000D01*
X126631000Y-70600000D02*
X126631000Y-80137000D01*
X129020000Y-68211000D02*
X126631000Y-70600000D01*
X129794000Y-112256000D02*
X129782000Y-112256000D01*
X126631000Y-109105000D02*
X126631000Y-80137000D01*
X129782000Y-112256000D02*
X126631000Y-109105000D01*
X132068000Y-123456000D02*
X129794000Y-123456000D01*
X134874000Y-120650000D02*
X132068000Y-123456000D01*
X134874000Y-115570000D02*
X134874000Y-120650000D01*
X129794000Y-112256000D02*
X131560000Y-112256000D01*
X131560000Y-112256000D02*
X134874000Y-115570000D01*
X129020000Y-63754000D02*
X130302000Y-63754000D01*
X130937000Y-63119000D02*
X133553000Y-63119000D01*
X130302000Y-63754000D02*
X130937000Y-63119000D01*
X133344000Y-61710000D02*
X133553000Y-61919000D01*
X127508000Y-60948000D02*
X127508000Y-60960000D01*
X127717000Y-61157000D02*
X127508000Y-60948000D01*
X133553000Y-61919000D02*
X134245500Y-61919000D01*
X133344500Y-70421500D02*
X133408000Y-70358000D01*
X131487000Y-70421500D02*
X133344500Y-70421500D01*
X134372500Y-61919000D02*
X133553000Y-61919000D01*
X134937500Y-62484000D02*
X134372500Y-61919000D01*
X134937500Y-66611500D02*
X134937500Y-62484000D01*
X133408000Y-68141000D02*
X134937500Y-66611500D01*
X127508000Y-60948000D02*
X130036000Y-60948000D01*
X131007000Y-61919000D02*
X133553000Y-61919000D01*
X130036000Y-60948000D02*
X131007000Y-61919000D01*
X133408000Y-68141000D02*
X133408000Y-70358000D01*
X195840000Y-95305000D02*
X195840000Y-93859000D01*
X193675000Y-91694000D02*
X183388000Y-91694000D01*
X195840000Y-93859000D02*
X193675000Y-91694000D01*
D43*
X138430000Y-50534000D02*
X138430000Y-50546000D01*
X130048000Y-52578000D02*
X134874000Y-52578000D01*
X139503000Y-57207000D02*
X139503000Y-58369000D01*
X134874000Y-52578000D02*
X139503000Y-57207000D01*
X136918000Y-50534000D02*
X134874000Y-52578000D01*
X138430000Y-50534000D02*
X136918000Y-50534000D01*
D42*
X183642000Y-117426500D02*
X185674000Y-119458500D01*
X183642000Y-115824000D02*
X183642000Y-117426500D01*
X172740500Y-115125500D02*
X171640500Y-115125500D01*
X173367001Y-114498999D02*
X172740500Y-115125500D01*
X182364499Y-114498999D02*
X173367001Y-114498999D01*
X183642000Y-115776500D02*
X182364499Y-114498999D01*
X183642000Y-115824000D02*
X183642000Y-115776500D01*
X128328000Y-79940000D02*
X128131000Y-80137000D01*
X128328000Y-78232000D02*
X128328000Y-79940000D01*
M02*
