M48
;DRILL file {KiCad (5.0.1)-3} date 25/11/2018 11:38:48 AM
;FORMAT={2:4/ absolute / inch / suppress trailing zeros}
FMAT,2
INCH,LZ
T1C0.0157
T2C0.0236
T3C0.0315
T4C0.0394
T5C0.0591
T6C0.0669
T7C0.1260
%
G90
G05
M72
T1
X052756Y-024409
X053937Y-028346
X055512Y-023228
X058661Y-035433
X06063Y-032677
X068504Y-031102
X072047Y-032283
X072441Y-029134
X075197Y-04252
T2
X070654Y-039764
X071154Y-040264
X071654Y-039764
X061417Y-036614
X061917Y-036114
X062417Y-036614
X054906Y-042913
X055406Y-043413
X055906Y-042913
X054724Y-039764
X055224Y-039264
X055724Y-039764
X065748Y-04252
X065748Y-04302
X065748Y-04352
X072835Y-042126
X072835Y-043126
X073335Y-042626
X061417Y-039764
X061917Y-039264
X062417Y-039764
X060236Y-044882
X060736Y-044382
X061236Y-044882
T3
X053535Y-031102
X053535Y-034102
X054535Y-031102
X054535Y-034102
X055535Y-031102
X055535Y-034102
X056535Y-031102
X056535Y-034102
X057535Y-031102
X057535Y-034102
X058535Y-031102
X058535Y-034102
X059535Y-031102
X059535Y-034102
X060535Y-031102
X060535Y-034102
X061535Y-031102
X061535Y-034102
X062535Y-031102
X062535Y-034102
X063535Y-031102
X063535Y-034102
X064535Y-031102
X064535Y-034102
X065535Y-031102
X065535Y-034102
X066535Y-031102
X066535Y-034102
X070866Y-031102
X070866Y-032102
X070866Y-033102
X070866Y-034102
X073866Y-031102
X073866Y-032102
X073866Y-033102
X073866Y-034102
X06811Y-02485
X06811Y-026772
T4
X055512Y-047425
X055512Y-048425
X056512Y-047425
X056512Y-048425
X057512Y-047425
X057512Y-048425
X058512Y-047425
X058512Y-048425
X059512Y-047425
X059512Y-048425
X060512Y-047425
X060512Y-048425
X061512Y-047425
X061512Y-048425
X062512Y-047425
X062512Y-048425
X063512Y-047425
X063512Y-048425
X064512Y-047425
X064512Y-048425
X065512Y-047425
X065512Y-048425
X066512Y-047425
X066512Y-048425
X067512Y-047425
X067512Y-048425
X068512Y-047425
X068512Y-048425
X069512Y-047425
X069512Y-048425
X070512Y-047425
X070512Y-048425
X071512Y-047425
X071512Y-048425
X075984Y-036976
X075984Y-038067
X075984Y-039157
X075984Y-040248
X075984Y-041339
X077102Y-037522
X077102Y-038612
X077102Y-039703
X077102Y-040793
X057874Y-020358
X057874Y-021358
X058874Y-020358
X058874Y-021358
X059874Y-020358
X059874Y-021358
X060874Y-020358
X060874Y-021358
X061874Y-020358
X061874Y-021358
X062874Y-020358
X062874Y-021358
X063874Y-020358
X063874Y-021358
X064874Y-020358
X064874Y-021358
X065874Y-020358
X065874Y-021358
X066874Y-020358
X066874Y-021358
X067874Y-020358
X067874Y-021358
X068874Y-020358
X068874Y-021358
X069874Y-020358
X069874Y-021358
X070874Y-020358
X070874Y-021358
X071874Y-020358
X071874Y-021358
X072874Y-020358
X072874Y-021358
X073874Y-020358
X073874Y-021358
X074874Y-020358
X074874Y-021358
X075874Y-020358
X075874Y-021358
X076874Y-020358
X076874Y-021358
T5
X051181Y-021654
T6
X050181Y-020654
X050181Y-022654
X052181Y-020654
X052181Y-022654
T7
X076102Y-034236
X076102Y-044079
T0
M30
