M48
;DRILL file {KiCad (5.0.1)-3} date 29/11/2018 7:31:17 AM
;FORMAT={3:3/ absolute / metric / suppress leading zeros}
FMAT,2
METRIC,TZ
T1C0.400
T2C0.600
T3C0.800
T4C1.000
T5C1.500
T6C1.700
T7C3.200
%
G90
G05
M71
T1
X134000Y-62000
X137000Y-72000
X141000Y-59000
X149000Y-90000
X154000Y-83000
X174000Y-79000
X183000Y-82000
X184000Y-74000
X191000Y-108000
T2
X185000Y-107000
X185000Y-109540
X186270Y-108270
X156000Y-101000
X157270Y-99730
X158540Y-101000
X156000Y-93000
X157270Y-91730
X158540Y-93000
X139000Y-101000
X140270Y-99730
X141540Y-101000
X139460Y-109000
X140730Y-110270
X142000Y-109000
X167000Y-108000
X167000Y-109270
X167000Y-110540
X153000Y-114000
X154270Y-112730
X155540Y-114000
X179460Y-101000
X180730Y-102270
X182000Y-101000
T3
X173000Y-63120
X173000Y-68000
X135980Y-79000
X135980Y-86620
X138520Y-79000
X138520Y-86620
X141060Y-79000
X141060Y-86620
X143600Y-79000
X143600Y-86620
X146140Y-79000
X146140Y-86620
X148680Y-79000
X148680Y-86620
X151220Y-79000
X151220Y-86620
X153760Y-79000
X153760Y-86620
X156300Y-79000
X156300Y-86620
X158840Y-79000
X158840Y-86620
X161380Y-79000
X161380Y-86620
X163920Y-79000
X163920Y-86620
X166460Y-79000
X166460Y-86620
X169000Y-79000
X169000Y-86620
X180000Y-79000
X180000Y-81540
X180000Y-84080
X180000Y-86620
X187620Y-79000
X187620Y-81540
X187620Y-84080
X187620Y-86620
T4
X147000Y-51710
X147000Y-54250
X149540Y-51710
X149540Y-54250
X152080Y-51710
X152080Y-54250
X154620Y-51710
X154620Y-54250
X157160Y-51710
X157160Y-54250
X159700Y-51710
X159700Y-54250
X162240Y-51710
X162240Y-54250
X164780Y-51710
X164780Y-54250
X167320Y-51710
X167320Y-54250
X169860Y-51710
X169860Y-54250
X172400Y-51710
X172400Y-54250
X174940Y-51710
X174940Y-54250
X177480Y-51710
X177480Y-54250
X180020Y-51710
X180020Y-54250
X182560Y-51710
X182560Y-54250
X185100Y-51710
X185100Y-54250
X187640Y-51710
X187640Y-54250
X190180Y-51710
X190180Y-54250
X192720Y-51710
X192720Y-54250
X195260Y-51710
X195260Y-54250
X141000Y-120460
X141000Y-123000
X143540Y-120460
X143540Y-123000
X146080Y-120460
X146080Y-123000
X148620Y-120460
X148620Y-123000
X151160Y-120460
X151160Y-123000
X153700Y-120460
X153700Y-123000
X156240Y-120460
X156240Y-123000
X158780Y-120460
X158780Y-123000
X161320Y-120460
X161320Y-123000
X163860Y-120460
X163860Y-123000
X166400Y-120460
X166400Y-123000
X168940Y-120460
X168940Y-123000
X171480Y-120460
X171480Y-123000
X174020Y-120460
X174020Y-123000
X176560Y-120460
X176560Y-123000
X179100Y-120460
X179100Y-123000
X181640Y-120460
X181640Y-123000
X193000Y-93920
X193000Y-96690
X193000Y-99460
X193000Y-102230
X193000Y-105000
X195840Y-95305
X195840Y-98075
X195840Y-100845
X195840Y-103615
T5
X130000Y-55000
T6
X127460Y-52460
X127460Y-57540
X132540Y-52460
X132540Y-57540
T7
X193300Y-86960
X193300Y-111960
T0
M30
