G04 #@! TF.GenerationSoftware,KiCad,Pcbnew,(5.0.1)-3*
G04 #@! TF.CreationDate,2018-11-25T11:45:10-08:00*
G04 #@! TF.ProjectId,DashSight-Mezzanine-Card,4461736853696768742D4D657A7A616E,rev?*
G04 #@! TF.SameCoordinates,Original*
G04 #@! TF.FileFunction,Copper,L2,Bot,Signal*
G04 #@! TF.FilePolarity,Positive*
%FSLAX46Y46*%
G04 Gerber Fmt 4.6, Leading zero omitted, Abs format (unit mm)*
G04 Created by KiCad (PCBNEW (5.0.1)-3) date 25/11/2018 11:45:10 AM*
%MOMM*%
%LPD*%
G01*
G04 APERTURE LIST*
G04 #@! TA.AperFunction,ComponentPad*
%ADD10C,4.000000*%
G04 #@! TD*
G04 #@! TA.AperFunction,ComponentPad*
%ADD11C,1.600000*%
G04 #@! TD*
G04 #@! TA.AperFunction,ComponentPad*
%ADD12R,1.600000X1.600000*%
G04 #@! TD*
G04 #@! TA.AperFunction,ComponentPad*
%ADD13O,1.600000X1.600000*%
G04 #@! TD*
G04 #@! TA.AperFunction,SMDPad,CuDef*
%ADD14R,0.900000X0.500000*%
G04 #@! TD*
G04 #@! TA.AperFunction,SMDPad,CuDef*
%ADD15R,0.600000X0.500000*%
G04 #@! TD*
G04 #@! TA.AperFunction,ComponentPad*
%ADD16C,2.200000*%
G04 #@! TD*
G04 #@! TA.AperFunction,ComponentPad*
%ADD17C,2.000000*%
G04 #@! TD*
G04 #@! TA.AperFunction,ComponentPad*
%ADD18C,1.500000*%
G04 #@! TD*
G04 #@! TA.AperFunction,SMDPad,CuDef*
%ADD19R,2.500000X1.800000*%
G04 #@! TD*
G04 #@! TA.AperFunction,SMDPad,CuDef*
%ADD20R,1.800000X2.500000*%
G04 #@! TD*
G04 #@! TA.AperFunction,ComponentPad*
%ADD21R,1.700000X1.700000*%
G04 #@! TD*
G04 #@! TA.AperFunction,ComponentPad*
%ADD22O,1.700000X1.700000*%
G04 #@! TD*
G04 #@! TA.AperFunction,SMDPad,CuDef*
%ADD23R,0.500000X0.900000*%
G04 #@! TD*
G04 #@! TA.AperFunction,ComponentPad*
%ADD24O,1.500000X0.900000*%
G04 #@! TD*
G04 #@! TA.AperFunction,ComponentPad*
%ADD25R,1.500000X0.900000*%
G04 #@! TD*
G04 #@! TA.AperFunction,ComponentPad*
%ADD26C,1.000000*%
G04 #@! TD*
G04 #@! TA.AperFunction,ComponentPad*
%ADD27R,1.000000X1.000000*%
G04 #@! TD*
G04 #@! TA.AperFunction,ViaPad*
%ADD28C,0.800000*%
G04 #@! TD*
G04 #@! TA.AperFunction,Conductor*
%ADD29C,0.250000*%
G04 #@! TD*
G04 #@! TA.AperFunction,Conductor*
%ADD30C,0.254000*%
G04 #@! TD*
G04 APERTURE END LIST*
D10*
G04 #@! TO.P,J4,0*
G04 #@! TO.N,GND*
X193300000Y-86960000D03*
X193300000Y-111960000D03*
D11*
G04 #@! TO.P,J4,9*
G04 #@! TO.N,Vbat*
X195840000Y-95305000D03*
G04 #@! TO.P,J4,8*
G04 #@! TO.N,ISO9141-2_L*
X195840000Y-98075000D03*
G04 #@! TO.P,J4,7*
G04 #@! TO.N,J1850_Bus+*
X195840000Y-100845000D03*
G04 #@! TO.P,J4,6*
G04 #@! TO.N,J1850_Bus-*
X195840000Y-103615000D03*
G04 #@! TO.P,J4,5*
G04 #@! TO.N,CAN_Low*
X193000000Y-93920000D03*
G04 #@! TO.P,J4,4*
G04 #@! TO.N,ISO9141-2_K*
X193000000Y-96690000D03*
G04 #@! TO.P,J4,3*
G04 #@! TO.N,CAN_High*
X193000000Y-99460000D03*
G04 #@! TO.P,J4,2*
G04 #@! TO.N,GND*
X193000000Y-102230000D03*
D12*
G04 #@! TO.P,J4,1*
X193000000Y-105000000D03*
G04 #@! TD*
G04 #@! TO.P,IC2,1*
G04 #@! TO.N,+5V*
X169000000Y-79000000D03*
D13*
G04 #@! TO.P,IC2,15*
X135980000Y-86620000D03*
G04 #@! TO.P,IC2,2*
G04 #@! TO.N,Net-(C8-Pad1)*
X166460000Y-79000000D03*
G04 #@! TO.P,IC2,16*
G04 #@! TO.N,PwrCntrl*
X138520000Y-86620000D03*
G04 #@! TO.P,IC2,3*
G04 #@! TO.N,Net-(IC2-Pad3)*
X163920000Y-79000000D03*
G04 #@! TO.P,IC2,17*
G04 #@! TO.N,UART3_RX*
X141060000Y-86620000D03*
G04 #@! TO.P,IC2,4*
G04 #@! TO.N,Net-(IC2-Pad4)*
X161380000Y-79000000D03*
G04 #@! TO.P,IC2,18*
G04 #@! TO.N,Net-(D4-Pad2)*
X143600000Y-86620000D03*
G04 #@! TO.P,IC2,5*
G04 #@! TO.N,+5V*
X158840000Y-79000000D03*
G04 #@! TO.P,IC2,19*
G04 #@! TO.N,GND*
X146140000Y-86620000D03*
G04 #@! TO.P,IC2,6*
G04 #@! TO.N,+5V*
X156300000Y-79000000D03*
G04 #@! TO.P,IC2,20*
X148680000Y-86620000D03*
G04 #@! TO.P,IC2,7*
X153760000Y-79000000D03*
G04 #@! TO.P,IC2,21*
G04 #@! TO.N,Net-(IC2-Pad21)*
X151220000Y-86620000D03*
G04 #@! TO.P,IC2,8*
G04 #@! TO.N,GND*
X151220000Y-79000000D03*
G04 #@! TO.P,IC2,22*
G04 #@! TO.N,Net-(IC2-Pad22)*
X153760000Y-86620000D03*
G04 #@! TO.P,IC2,9*
G04 #@! TO.N,Net-(C6-Pad1)*
X148680000Y-79000000D03*
G04 #@! TO.P,IC2,23*
G04 #@! TO.N,CAN_TX*
X156300000Y-86620000D03*
G04 #@! TO.P,IC2,10*
G04 #@! TO.N,Net-(C7-Pad1)*
X146140000Y-79000000D03*
G04 #@! TO.P,IC2,24*
G04 #@! TO.N,CAN_RX*
X158840000Y-86620000D03*
G04 #@! TO.P,IC2,11*
G04 #@! TO.N,Net-(IC2-Pad11)*
X143600000Y-79000000D03*
G04 #@! TO.P,IC2,25*
G04 #@! TO.N,Net-(IC2-Pad25)*
X161380000Y-86620000D03*
G04 #@! TO.P,IC2,12*
G04 #@! TO.N,ELM_Pin12*
X141060000Y-79000000D03*
G04 #@! TO.P,IC2,26*
G04 #@! TO.N,Net-(IC2-Pad26)*
X163920000Y-86620000D03*
G04 #@! TO.P,IC2,13*
G04 #@! TO.N,Net-(IC2-Pad13)*
X138520000Y-79000000D03*
G04 #@! TO.P,IC2,27*
G04 #@! TO.N,Net-(IC2-Pad27)*
X166460000Y-86620000D03*
G04 #@! TO.P,IC2,14*
G04 #@! TO.N,ELM_Pin14*
X135980000Y-79000000D03*
G04 #@! TO.P,IC2,28*
G04 #@! TO.N,Net-(IC2-Pad28)*
X169000000Y-86620000D03*
G04 #@! TD*
D14*
G04 #@! TO.P,R9,1*
G04 #@! TO.N,Net-(Q2-Pad1)*
X173000000Y-106000000D03*
G04 #@! TO.P,R9,2*
G04 #@! TO.N,Net-(Q2-Pad2)*
X173000000Y-107500000D03*
G04 #@! TD*
D15*
G04 #@! TO.P,C1,1*
G04 #@! TO.N,Net-(C1-Pad1)*
X129550000Y-69000000D03*
G04 #@! TO.P,C1,2*
G04 #@! TO.N,GND*
X128450000Y-69000000D03*
G04 #@! TD*
D16*
G04 #@! TO.P,J3,2*
G04 #@! TO.N,GND*
X127460000Y-57540000D03*
X127460000Y-52460000D03*
X132540000Y-52460000D03*
X132540000Y-57540000D03*
D17*
G04 #@! TO.P,J3,1*
G04 #@! TO.N,Net-(IC1-Pad32)*
X130000000Y-55000000D03*
G04 #@! TD*
D18*
G04 #@! TO.P,Y1,1*
G04 #@! TO.N,Net-(C6-Pad1)*
X173000000Y-68000000D03*
G04 #@! TO.P,Y1,2*
G04 #@! TO.N,Net-(C7-Pad1)*
X173000000Y-63120000D03*
G04 #@! TD*
D19*
G04 #@! TO.P,D4,1*
G04 #@! TO.N,UART3_TX*
X169000000Y-114000000D03*
G04 #@! TO.P,D4,2*
G04 #@! TO.N,Net-(D4-Pad2)*
X165000000Y-114000000D03*
G04 #@! TD*
D20*
G04 #@! TO.P,D1,1*
G04 #@! TO.N,J1850_Bus+*
X178000000Y-111000000D03*
G04 #@! TO.P,D1,2*
G04 #@! TO.N,Net-(D1-Pad2)*
X178000000Y-107000000D03*
G04 #@! TD*
D12*
G04 #@! TO.P,U1,1*
G04 #@! TO.N,CAN_TX*
X180000000Y-79000000D03*
D13*
G04 #@! TO.P,U1,5*
G04 #@! TO.N,Net-(U1-Pad5)*
X187620000Y-86620000D03*
G04 #@! TO.P,U1,2*
G04 #@! TO.N,GND*
X180000000Y-81540000D03*
G04 #@! TO.P,U1,6*
G04 #@! TO.N,CAN_Low*
X187620000Y-84080000D03*
G04 #@! TO.P,U1,3*
G04 #@! TO.N,+5V*
X180000000Y-84080000D03*
G04 #@! TO.P,U1,7*
G04 #@! TO.N,CAN_High*
X187620000Y-81540000D03*
G04 #@! TO.P,U1,4*
G04 #@! TO.N,CAN_RX*
X180000000Y-86620000D03*
G04 #@! TO.P,U1,8*
G04 #@! TO.N,Net-(R3-Pad1)*
X187620000Y-79000000D03*
G04 #@! TD*
D21*
G04 #@! TO.P,J2,1*
G04 #@! TO.N,Net-(J2-Pad1)*
X141000000Y-123000000D03*
D22*
G04 #@! TO.P,J2,2*
G04 #@! TO.N,+5V*
X141000000Y-120460000D03*
G04 #@! TO.P,J2,3*
G04 #@! TO.N,Net-(J2-Pad3)*
X143540000Y-123000000D03*
G04 #@! TO.P,J2,4*
G04 #@! TO.N,Net-(J2-Pad4)*
X143540000Y-120460000D03*
G04 #@! TO.P,J2,5*
G04 #@! TO.N,Net-(J2-Pad5)*
X146080000Y-123000000D03*
G04 #@! TO.P,J2,6*
G04 #@! TO.N,Net-(J2-Pad6)*
X146080000Y-120460000D03*
G04 #@! TO.P,J2,7*
G04 #@! TO.N,Net-(J2-Pad7)*
X148620000Y-123000000D03*
G04 #@! TO.P,J2,8*
G04 #@! TO.N,Net-(J2-Pad8)*
X148620000Y-120460000D03*
G04 #@! TO.P,J2,9*
G04 #@! TO.N,Net-(J2-Pad9)*
X151160000Y-123000000D03*
G04 #@! TO.P,J2,10*
G04 #@! TO.N,Net-(J2-Pad10)*
X151160000Y-120460000D03*
G04 #@! TO.P,J2,11*
G04 #@! TO.N,Net-(J2-Pad11)*
X153700000Y-123000000D03*
G04 #@! TO.P,J2,12*
G04 #@! TO.N,Net-(J2-Pad12)*
X153700000Y-120460000D03*
G04 #@! TO.P,J2,13*
G04 #@! TO.N,Net-(J2-Pad13)*
X156240000Y-123000000D03*
G04 #@! TO.P,J2,14*
G04 #@! TO.N,Net-(J2-Pad14)*
X156240000Y-120460000D03*
G04 #@! TO.P,J2,15*
G04 #@! TO.N,Net-(J2-Pad15)*
X158780000Y-123000000D03*
G04 #@! TO.P,J2,16*
G04 #@! TO.N,Net-(J2-Pad16)*
X158780000Y-120460000D03*
G04 #@! TO.P,J2,17*
G04 #@! TO.N,Net-(J2-Pad17)*
X161320000Y-123000000D03*
G04 #@! TO.P,J2,18*
G04 #@! TO.N,Net-(J2-Pad18)*
X161320000Y-120460000D03*
G04 #@! TO.P,J2,19*
G04 #@! TO.N,Net-(J2-Pad19)*
X163860000Y-123000000D03*
G04 #@! TO.P,J2,20*
G04 #@! TO.N,Net-(J2-Pad20)*
X163860000Y-120460000D03*
G04 #@! TO.P,J2,21*
G04 #@! TO.N,Net-(J2-Pad21)*
X166400000Y-123000000D03*
G04 #@! TO.P,J2,22*
G04 #@! TO.N,Net-(J2-Pad22)*
X166400000Y-120460000D03*
G04 #@! TO.P,J2,23*
G04 #@! TO.N,UART3_TX*
X168940000Y-123000000D03*
G04 #@! TO.P,J2,24*
G04 #@! TO.N,UART3_RX*
X168940000Y-120460000D03*
G04 #@! TO.P,J2,25*
G04 #@! TO.N,Net-(J2-Pad25)*
X171480000Y-123000000D03*
G04 #@! TO.P,J2,26*
G04 #@! TO.N,Net-(J2-Pad26)*
X171480000Y-120460000D03*
G04 #@! TO.P,J2,27*
G04 #@! TO.N,Net-(J2-Pad27)*
X174020000Y-123000000D03*
G04 #@! TO.P,J2,28*
G04 #@! TO.N,Net-(J2-Pad28)*
X174020000Y-120460000D03*
G04 #@! TO.P,J2,29*
G04 #@! TO.N,Net-(J2-Pad29)*
X176560000Y-123000000D03*
G04 #@! TO.P,J2,30*
G04 #@! TO.N,Net-(J2-Pad30)*
X176560000Y-120460000D03*
G04 #@! TO.P,J2,31*
G04 #@! TO.N,Net-(J2-Pad31)*
X179100000Y-123000000D03*
G04 #@! TO.P,J2,32*
G04 #@! TO.N,Net-(J2-Pad32)*
X179100000Y-120460000D03*
G04 #@! TO.P,J2,33*
G04 #@! TO.N,Net-(J2-Pad33)*
X181640000Y-123000000D03*
G04 #@! TO.P,J2,34*
G04 #@! TO.N,GND*
X181640000Y-120460000D03*
G04 #@! TD*
D21*
G04 #@! TO.P,J1,1*
G04 #@! TO.N,+3V3*
X147000000Y-54250000D03*
D22*
G04 #@! TO.P,J1,2*
G04 #@! TO.N,Net-(J1-Pad2)*
X147000000Y-51710000D03*
G04 #@! TO.P,J1,3*
G04 #@! TO.N,Net-(J1-Pad3)*
X149540000Y-54250000D03*
G04 #@! TO.P,J1,4*
G04 #@! TO.N,Net-(J1-Pad4)*
X149540000Y-51710000D03*
G04 #@! TO.P,J1,5*
G04 #@! TO.N,Net-(J1-Pad5)*
X152080000Y-54250000D03*
G04 #@! TO.P,J1,6*
G04 #@! TO.N,Net-(J1-Pad6)*
X152080000Y-51710000D03*
G04 #@! TO.P,J1,7*
G04 #@! TO.N,Net-(J1-Pad7)*
X154620000Y-54250000D03*
G04 #@! TO.P,J1,8*
G04 #@! TO.N,UART2_RX*
X154620000Y-51710000D03*
G04 #@! TO.P,J1,9*
G04 #@! TO.N,Net-(J1-Pad9)*
X157160000Y-54250000D03*
G04 #@! TO.P,J1,10*
G04 #@! TO.N,UART2_TX*
X157160000Y-51710000D03*
G04 #@! TO.P,J1,11*
G04 #@! TO.N,Net-(J1-Pad11)*
X159700000Y-54250000D03*
G04 #@! TO.P,J1,12*
G04 #@! TO.N,Net-(J1-Pad12)*
X159700000Y-51710000D03*
G04 #@! TO.P,J1,13*
G04 #@! TO.N,Net-(J1-Pad13)*
X162240000Y-54250000D03*
G04 #@! TO.P,J1,14*
G04 #@! TO.N,Net-(J1-Pad14)*
X162240000Y-51710000D03*
G04 #@! TO.P,J1,15*
G04 #@! TO.N,Net-(J1-Pad15)*
X164780000Y-54250000D03*
G04 #@! TO.P,J1,16*
G04 #@! TO.N,Net-(J1-Pad16)*
X164780000Y-51710000D03*
G04 #@! TO.P,J1,17*
G04 #@! TO.N,Net-(J1-Pad17)*
X167320000Y-54250000D03*
G04 #@! TO.P,J1,18*
G04 #@! TO.N,Net-(J1-Pad18)*
X167320000Y-51710000D03*
G04 #@! TO.P,J1,19*
G04 #@! TO.N,Net-(J1-Pad19)*
X169860000Y-54250000D03*
G04 #@! TO.P,J1,20*
G04 #@! TO.N,Net-(J1-Pad20)*
X169860000Y-51710000D03*
G04 #@! TO.P,J1,21*
G04 #@! TO.N,Net-(J1-Pad21)*
X172400000Y-54250000D03*
G04 #@! TO.P,J1,22*
G04 #@! TO.N,Net-(J1-Pad22)*
X172400000Y-51710000D03*
G04 #@! TO.P,J1,23*
G04 #@! TO.N,Net-(J1-Pad23)*
X174940000Y-54250000D03*
G04 #@! TO.P,J1,24*
G04 #@! TO.N,Net-(J1-Pad24)*
X174940000Y-51710000D03*
G04 #@! TO.P,J1,25*
G04 #@! TO.N,Net-(J1-Pad25)*
X177480000Y-54250000D03*
G04 #@! TO.P,J1,26*
G04 #@! TO.N,Net-(J1-Pad26)*
X177480000Y-51710000D03*
G04 #@! TO.P,J1,27*
G04 #@! TO.N,Net-(J1-Pad27)*
X180020000Y-54250000D03*
G04 #@! TO.P,J1,28*
G04 #@! TO.N,Net-(J1-Pad28)*
X180020000Y-51710000D03*
G04 #@! TO.P,J1,29*
G04 #@! TO.N,Net-(J1-Pad29)*
X182560000Y-54250000D03*
G04 #@! TO.P,J1,30*
G04 #@! TO.N,Net-(J1-Pad30)*
X182560000Y-51710000D03*
G04 #@! TO.P,J1,31*
G04 #@! TO.N,Net-(J1-Pad31)*
X185100000Y-54250000D03*
G04 #@! TO.P,J1,32*
G04 #@! TO.N,Net-(J1-Pad32)*
X185100000Y-51710000D03*
G04 #@! TO.P,J1,33*
G04 #@! TO.N,Net-(J1-Pad33)*
X187640000Y-54250000D03*
G04 #@! TO.P,J1,34*
G04 #@! TO.N,Net-(J1-Pad34)*
X187640000Y-51710000D03*
G04 #@! TO.P,J1,35*
G04 #@! TO.N,Net-(J1-Pad35)*
X190180000Y-54250000D03*
G04 #@! TO.P,J1,36*
G04 #@! TO.N,Net-(J1-Pad36)*
X190180000Y-51710000D03*
G04 #@! TO.P,J1,37*
G04 #@! TO.N,Net-(J1-Pad37)*
X192720000Y-54250000D03*
G04 #@! TO.P,J1,38*
G04 #@! TO.N,Net-(J1-Pad38)*
X192720000Y-51710000D03*
G04 #@! TO.P,J1,39*
G04 #@! TO.N,GND*
X195260000Y-54250000D03*
G04 #@! TO.P,J1,40*
G04 #@! TO.N,Net-(J1-Pad40)*
X195260000Y-51710000D03*
G04 #@! TD*
D23*
G04 #@! TO.P,R20,1*
G04 #@! TO.N,Net-(IC2-Pad4)*
X175250000Y-74000000D03*
G04 #@! TO.P,R20,2*
G04 #@! TO.N,Net-(Q4-Pad2)*
X176750000Y-74000000D03*
G04 #@! TD*
G04 #@! TO.P,R22,1*
G04 #@! TO.N,+5V*
X146750000Y-75000000D03*
G04 #@! TO.P,R22,2*
G04 #@! TO.N,Net-(IC2-Pad13)*
X145250000Y-75000000D03*
G04 #@! TD*
D14*
G04 #@! TO.P,R13,1*
G04 #@! TO.N,Net-(R13-Pad1)*
X173000000Y-91750000D03*
G04 #@! TO.P,R13,2*
G04 #@! TO.N,Net-(R13-Pad2)*
X173000000Y-90250000D03*
G04 #@! TD*
D23*
G04 #@! TO.P,R17,1*
G04 #@! TO.N,Net-(Q2-Pad2)*
X173250000Y-101000000D03*
G04 #@! TO.P,R17,2*
G04 #@! TO.N,Net-(Q4-Pad3)*
X174750000Y-101000000D03*
G04 #@! TD*
D14*
G04 #@! TO.P,R7,1*
G04 #@! TO.N,Net-(Q1-Pad2)*
X133000000Y-92750000D03*
G04 #@! TO.P,R7,2*
G04 #@! TO.N,ELM_Pin14*
X133000000Y-91250000D03*
G04 #@! TD*
D24*
G04 #@! TO.P,U2,2*
G04 #@! TO.N,Net-(Q2-Pad1)*
X167000000Y-109270000D03*
G04 #@! TO.P,U2,3*
G04 #@! TO.N,V12*
X167000000Y-108000000D03*
D25*
G04 #@! TO.P,U2,1*
G04 #@! TO.N,Net-(R13-Pad1)*
X167000000Y-110540000D03*
G04 #@! TD*
D26*
G04 #@! TO.P,Q6,2*
G04 #@! TO.N,Net-(Q6-Pad2)*
X157270000Y-91730000D03*
G04 #@! TO.P,Q6,3*
G04 #@! TO.N,ISO9141-2_L*
X158540000Y-93000000D03*
D27*
G04 #@! TO.P,Q6,1*
G04 #@! TO.N,GND*
X156000000Y-93000000D03*
G04 #@! TD*
D26*
G04 #@! TO.P,Q7,2*
G04 #@! TO.N,Net-(Q7-Pad2)*
X157270000Y-99730000D03*
G04 #@! TO.P,Q7,3*
G04 #@! TO.N,ISO9141-2_K*
X158540000Y-101000000D03*
D27*
G04 #@! TO.P,Q7,1*
G04 #@! TO.N,GND*
X156000000Y-101000000D03*
G04 #@! TD*
D26*
G04 #@! TO.P,Q1,2*
G04 #@! TO.N,Net-(Q1-Pad2)*
X154270000Y-112730000D03*
G04 #@! TO.P,Q1,3*
G04 #@! TO.N,J1850_Bus-*
X155540000Y-114000000D03*
D27*
G04 #@! TO.P,Q1,1*
G04 #@! TO.N,GND*
X153000000Y-114000000D03*
G04 #@! TD*
D26*
G04 #@! TO.P,Q2,2*
G04 #@! TO.N,Net-(Q2-Pad2)*
X186270000Y-108270000D03*
G04 #@! TO.P,Q2,3*
G04 #@! TO.N,Net-(D1-Pad2)*
X185000000Y-109540000D03*
D27*
G04 #@! TO.P,Q2,1*
G04 #@! TO.N,Net-(Q2-Pad1)*
X185000000Y-107000000D03*
G04 #@! TD*
D26*
G04 #@! TO.P,Q3,2*
G04 #@! TO.N,Net-(D2-Pad2)*
X140730000Y-110270000D03*
G04 #@! TO.P,Q3,3*
G04 #@! TO.N,Net-(Q3-Pad3)*
X139460000Y-109000000D03*
D27*
G04 #@! TO.P,Q3,1*
G04 #@! TO.N,Net-(Q3-Pad1)*
X142000000Y-109000000D03*
G04 #@! TD*
D26*
G04 #@! TO.P,Q4,2*
G04 #@! TO.N,Net-(Q4-Pad2)*
X180730000Y-102270000D03*
G04 #@! TO.P,Q4,3*
G04 #@! TO.N,Net-(Q4-Pad3)*
X179460000Y-101000000D03*
D27*
G04 #@! TO.P,Q4,1*
G04 #@! TO.N,GND*
X182000000Y-101000000D03*
G04 #@! TD*
D26*
G04 #@! TO.P,Q5,2*
G04 #@! TO.N,Net-(Q3-Pad3)*
X140270000Y-99730000D03*
G04 #@! TO.P,Q5,3*
G04 #@! TO.N,Net-(IC2-Pad13)*
X141540000Y-101000000D03*
D27*
G04 #@! TO.P,Q5,1*
G04 #@! TO.N,GND*
X139000000Y-101000000D03*
G04 #@! TD*
D28*
G04 #@! TO.N,GND*
X141000000Y-59000000D03*
X184000000Y-74000000D03*
X183000000Y-82000000D03*
X154000000Y-83000000D03*
X191000000Y-108000000D03*
G04 #@! TO.N,Net-(R13-Pad2)*
X174000000Y-79000000D03*
G04 #@! TO.N,+3V3*
X134000000Y-62000000D03*
G04 #@! TO.N,Net-(C1-Pad1)*
X137000000Y-72000000D03*
G04 #@! TO.N,ELM_Pin12*
X149000000Y-90000000D03*
G04 #@! TD*
D29*
G04 #@! TO.N,GND*
X127460000Y-59095634D02*
X127460000Y-57540000D01*
X127460000Y-68060000D02*
X127460000Y-59095634D01*
X128400000Y-69000000D02*
X127460000Y-68060000D01*
X128450000Y-69000000D02*
X128400000Y-69000000D01*
G04 #@! TO.N,Net-(IC2-Pad13)*
X137720001Y-78200001D02*
X138520000Y-79000000D01*
X137394999Y-77874999D02*
X137720001Y-78200001D01*
X135439999Y-77874999D02*
X137394999Y-77874999D01*
X132224999Y-102986001D02*
X132224999Y-81089999D01*
X139063999Y-109825001D02*
X132224999Y-102986001D01*
X132224999Y-81089999D02*
X135439999Y-77874999D01*
X139856001Y-109825001D02*
X139063999Y-109825001D01*
X141040001Y-108641001D02*
X139856001Y-109825001D01*
X141040001Y-101499999D02*
X141040001Y-108641001D01*
X141540000Y-101000000D02*
X141040001Y-101499999D01*
X142520000Y-75000000D02*
X138520000Y-79000000D01*
X145250000Y-75000000D02*
X142520000Y-75000000D01*
G04 #@! TO.N,Net-(Q3-Pad3)*
X140270000Y-108190000D02*
X140270000Y-99730000D01*
X139460000Y-109000000D02*
X140270000Y-108190000D01*
G04 #@! TO.N,Net-(Q4-Pad2)*
X177250000Y-74000000D02*
X186000000Y-82750000D01*
X176750000Y-74000000D02*
X177250000Y-74000000D01*
X181437106Y-102270000D02*
X180730000Y-102270000D01*
X182315002Y-102270000D02*
X181437106Y-102270000D01*
X186000000Y-98585002D02*
X182315002Y-102270000D01*
X186000000Y-82750000D02*
X186000000Y-98585002D01*
G04 #@! TO.N,Net-(Q4-Pad3)*
X174750000Y-101000000D02*
X179460000Y-101000000D01*
G04 #@! TO.N,Net-(Q2-Pad2)*
X173200000Y-107500000D02*
X173000000Y-107500000D01*
X172800000Y-107500000D02*
X173000000Y-107500000D01*
X172224999Y-106924999D02*
X172800000Y-107500000D01*
X172224999Y-102225001D02*
X172224999Y-106924999D01*
X173250000Y-101200000D02*
X172224999Y-102225001D01*
X173250000Y-101200000D02*
X173250000Y-101000000D01*
X175145001Y-103095001D02*
X173250000Y-101200000D01*
X182680003Y-103095001D02*
X175145001Y-103095001D01*
X186270000Y-106684998D02*
X182680003Y-103095001D01*
X186270000Y-108270000D02*
X186270000Y-106684998D01*
G04 #@! TO.N,Net-(D1-Pad2)*
X182460000Y-107000000D02*
X185000000Y-109540000D01*
X178000000Y-107000000D02*
X182460000Y-107000000D01*
G04 #@! TO.N,Net-(Q2-Pad1)*
X173000000Y-106000000D02*
X172800000Y-106000000D01*
X184250000Y-107000000D02*
X185000000Y-107000000D01*
X182250000Y-105000000D02*
X184250000Y-107000000D01*
X167000000Y-109270000D02*
X172515002Y-109270000D01*
X172515002Y-109270000D02*
X174000000Y-107785002D01*
X174000000Y-107785002D02*
X174000000Y-106800000D01*
X174000000Y-106800000D02*
X173200000Y-106000000D01*
X173200000Y-106000000D02*
X174200000Y-105000000D01*
X174200000Y-105000000D02*
X182250000Y-105000000D01*
G04 #@! TO.N,Net-(Q1-Pad2)*
X154270000Y-112022894D02*
X154270000Y-112730000D01*
X134997106Y-92750000D02*
X154270000Y-112022894D01*
X133000000Y-92750000D02*
X134997106Y-92750000D01*
G04 #@! TO.N,Net-(R13-Pad1)*
X166700000Y-110540000D02*
X167000000Y-110540000D01*
X165924990Y-109764990D02*
X166700000Y-110540000D01*
X165924990Y-99325010D02*
X165924990Y-109764990D01*
X173000000Y-92250000D02*
X165924990Y-99325010D01*
X173000000Y-91750000D02*
X173000000Y-92250000D01*
G04 #@! TO.N,ELM_Pin14*
X133000000Y-81980000D02*
X133000000Y-91250000D01*
X135980000Y-79000000D02*
X133000000Y-81980000D01*
G04 #@! TO.N,CAN_Low*
X188419999Y-84879999D02*
X187620000Y-84080000D01*
X188745001Y-96870003D02*
X188745001Y-85205001D01*
X192459999Y-100585001D02*
X188745001Y-96870003D01*
X193540001Y-100585001D02*
X192459999Y-100585001D01*
X194125001Y-100000001D02*
X193540001Y-100585001D01*
X188745001Y-85205001D02*
X188419999Y-84879999D01*
X194125001Y-95045001D02*
X194125001Y-100000001D01*
X193000000Y-93920000D02*
X194125001Y-95045001D01*
G04 #@! TO.N,CAN_High*
X188419999Y-82339999D02*
X187620000Y-81540000D01*
X190000000Y-83920000D02*
X188419999Y-82339999D01*
X190000000Y-96460000D02*
X190000000Y-83920000D01*
X193000000Y-99460000D02*
X190000000Y-96460000D01*
G04 #@! TO.N,J1850_Bus+*
X196639999Y-101644999D02*
X195840000Y-100845000D01*
X196965001Y-101970001D02*
X196639999Y-101644999D01*
X196965001Y-104853997D02*
X196965001Y-101970001D01*
X190818998Y-111000000D02*
X196965001Y-104853997D01*
X178000000Y-111000000D02*
X190818998Y-111000000D01*
G04 #@! TO.N,Net-(R13-Pad2)*
X173700000Y-90250000D02*
X173000000Y-90250000D01*
X178035002Y-90250000D02*
X173700000Y-90250000D01*
X181125001Y-87160001D02*
X178035002Y-90250000D01*
X180250003Y-80125001D02*
X181125001Y-80999999D01*
X175125001Y-80125001D02*
X180250003Y-80125001D01*
X181125001Y-80999999D02*
X181125001Y-87160001D01*
X174000000Y-79000000D02*
X175125001Y-80125001D01*
G04 #@! TO.N,+5V*
X173030000Y-84080000D02*
X169000000Y-80050000D01*
X180000000Y-84080000D02*
X173030000Y-84080000D01*
X149760000Y-75000000D02*
X153760000Y-79000000D01*
X146750000Y-75000000D02*
X149760000Y-75000000D01*
X148680000Y-84080000D02*
X153760000Y-79000000D01*
X148680000Y-86620000D02*
X148680000Y-84080000D01*
X153760000Y-79000000D02*
X156300000Y-79000000D01*
X156300000Y-79000000D02*
X158840000Y-79000000D01*
X169000000Y-80050000D02*
X169000000Y-79000000D01*
X168924999Y-80125001D02*
X169000000Y-80050000D01*
X159965001Y-80125001D02*
X168924999Y-80125001D01*
X158840000Y-79000000D02*
X159965001Y-80125001D01*
X136779999Y-85820001D02*
X135980000Y-86620000D01*
X139934999Y-82665001D02*
X136779999Y-85820001D01*
X139934999Y-78459999D02*
X139934999Y-82665001D01*
X140519999Y-77874999D02*
X139934999Y-78459999D01*
X144075001Y-77874999D02*
X140519999Y-77874999D01*
X146750000Y-75200000D02*
X144075001Y-77874999D01*
X146750000Y-75000000D02*
X146750000Y-75200000D01*
G04 #@! TO.N,Net-(IC2-Pad4)*
X166380000Y-74000000D02*
X161380000Y-79000000D01*
X175250000Y-74000000D02*
X166380000Y-74000000D01*
G04 #@! TO.N,+3V3*
X141750000Y-54250000D02*
X147000000Y-54250000D01*
X134000000Y-62000000D02*
X141750000Y-54250000D01*
G04 #@! TO.N,Net-(C1-Pad1)*
X129550000Y-69500000D02*
X129550000Y-69000000D01*
X132050000Y-72000000D02*
X129550000Y-69500000D01*
X137000000Y-72000000D02*
X132050000Y-72000000D01*
G04 #@! TO.N,Net-(D4-Pad2)*
X164650000Y-114000000D02*
X165000000Y-114000000D01*
X143600000Y-92950000D02*
X164650000Y-114000000D01*
X143600000Y-86620000D02*
X143600000Y-92950000D01*
G04 #@! TO.N,ELM_Pin12*
X141859999Y-79799999D02*
X141060000Y-79000000D01*
X147265001Y-85205001D02*
X141859999Y-79799999D01*
X147265001Y-88265001D02*
X147265001Y-85205001D01*
X149000000Y-90000000D02*
X147265001Y-88265001D01*
G04 #@! TO.N,UART3_RX*
X141060000Y-87751370D02*
X141060000Y-86620000D01*
X141060000Y-92795002D02*
X141060000Y-87751370D01*
X167874999Y-119610001D02*
X141060000Y-92795002D01*
X168090001Y-119610001D02*
X167874999Y-119610001D01*
X168940000Y-120460000D02*
X168090001Y-119610001D01*
G04 #@! TO.N,UART3_TX*
X169000000Y-115150000D02*
X169000000Y-114000000D01*
X170115001Y-116265001D02*
X169000000Y-115150000D01*
X170115001Y-121824999D02*
X170115001Y-116265001D01*
X168940000Y-123000000D02*
X170115001Y-121824999D01*
G04 #@! TD*
D30*
G04 #@! TO.N,GND*
G36*
X126414737Y-51235132D02*
X127460000Y-52280395D01*
X128505263Y-51235132D01*
X128462006Y-51127000D01*
X131537994Y-51127000D01*
X131494737Y-51235132D01*
X132540000Y-52280395D01*
X133585263Y-51235132D01*
X133542006Y-51127000D01*
X145603554Y-51127000D01*
X145601161Y-51130582D01*
X145485908Y-51710000D01*
X145601161Y-52289418D01*
X145929375Y-52780625D01*
X145947619Y-52792816D01*
X145902235Y-52801843D01*
X145692191Y-52942191D01*
X145551843Y-53152235D01*
X145502560Y-53400000D01*
X145502560Y-53490000D01*
X141824846Y-53490000D01*
X141749999Y-53475112D01*
X141675152Y-53490000D01*
X141675148Y-53490000D01*
X141453463Y-53534096D01*
X141202071Y-53702071D01*
X141159671Y-53765527D01*
X133960199Y-60965000D01*
X133794126Y-60965000D01*
X133413720Y-61122569D01*
X133122569Y-61413720D01*
X132965000Y-61794126D01*
X132965000Y-62205874D01*
X133122569Y-62586280D01*
X133413720Y-62877431D01*
X133794126Y-63035000D01*
X134205874Y-63035000D01*
X134586280Y-62877431D01*
X134619205Y-62844506D01*
X171615000Y-62844506D01*
X171615000Y-63395494D01*
X171825853Y-63904540D01*
X172215460Y-64294147D01*
X172724506Y-64505000D01*
X173275494Y-64505000D01*
X173784540Y-64294147D01*
X174174147Y-63904540D01*
X174385000Y-63395494D01*
X174385000Y-62844506D01*
X174174147Y-62335460D01*
X173784540Y-61945853D01*
X173275494Y-61735000D01*
X172724506Y-61735000D01*
X172215460Y-61945853D01*
X171825853Y-62335460D01*
X171615000Y-62844506D01*
X134619205Y-62844506D01*
X134877431Y-62586280D01*
X135035000Y-62205874D01*
X135035000Y-62039801D01*
X142064802Y-55010000D01*
X145502560Y-55010000D01*
X145502560Y-55100000D01*
X145551843Y-55347765D01*
X145692191Y-55557809D01*
X145902235Y-55698157D01*
X146150000Y-55747440D01*
X147850000Y-55747440D01*
X148097765Y-55698157D01*
X148307809Y-55557809D01*
X148448157Y-55347765D01*
X148457184Y-55302381D01*
X148469375Y-55320625D01*
X148960582Y-55648839D01*
X149393744Y-55735000D01*
X149686256Y-55735000D01*
X150119418Y-55648839D01*
X150610625Y-55320625D01*
X150810000Y-55022239D01*
X151009375Y-55320625D01*
X151500582Y-55648839D01*
X151933744Y-55735000D01*
X152226256Y-55735000D01*
X152659418Y-55648839D01*
X153150625Y-55320625D01*
X153350000Y-55022239D01*
X153549375Y-55320625D01*
X154040582Y-55648839D01*
X154473744Y-55735000D01*
X154766256Y-55735000D01*
X155199418Y-55648839D01*
X155690625Y-55320625D01*
X155890000Y-55022239D01*
X156089375Y-55320625D01*
X156580582Y-55648839D01*
X157013744Y-55735000D01*
X157306256Y-55735000D01*
X157739418Y-55648839D01*
X158230625Y-55320625D01*
X158430000Y-55022239D01*
X158629375Y-55320625D01*
X159120582Y-55648839D01*
X159553744Y-55735000D01*
X159846256Y-55735000D01*
X160279418Y-55648839D01*
X160770625Y-55320625D01*
X160970000Y-55022239D01*
X161169375Y-55320625D01*
X161660582Y-55648839D01*
X162093744Y-55735000D01*
X162386256Y-55735000D01*
X162819418Y-55648839D01*
X163310625Y-55320625D01*
X163510000Y-55022239D01*
X163709375Y-55320625D01*
X164200582Y-55648839D01*
X164633744Y-55735000D01*
X164926256Y-55735000D01*
X165359418Y-55648839D01*
X165850625Y-55320625D01*
X166050000Y-55022239D01*
X166249375Y-55320625D01*
X166740582Y-55648839D01*
X167173744Y-55735000D01*
X167466256Y-55735000D01*
X167899418Y-55648839D01*
X168390625Y-55320625D01*
X168590000Y-55022239D01*
X168789375Y-55320625D01*
X169280582Y-55648839D01*
X169713744Y-55735000D01*
X170006256Y-55735000D01*
X170439418Y-55648839D01*
X170930625Y-55320625D01*
X171130000Y-55022239D01*
X171329375Y-55320625D01*
X171820582Y-55648839D01*
X172253744Y-55735000D01*
X172546256Y-55735000D01*
X172979418Y-55648839D01*
X173470625Y-55320625D01*
X173670000Y-55022239D01*
X173869375Y-55320625D01*
X174360582Y-55648839D01*
X174793744Y-55735000D01*
X175086256Y-55735000D01*
X175519418Y-55648839D01*
X176010625Y-55320625D01*
X176210000Y-55022239D01*
X176409375Y-55320625D01*
X176900582Y-55648839D01*
X177333744Y-55735000D01*
X177626256Y-55735000D01*
X178059418Y-55648839D01*
X178550625Y-55320625D01*
X178750000Y-55022239D01*
X178949375Y-55320625D01*
X179440582Y-55648839D01*
X179873744Y-55735000D01*
X180166256Y-55735000D01*
X180599418Y-55648839D01*
X181090625Y-55320625D01*
X181290000Y-55022239D01*
X181489375Y-55320625D01*
X181980582Y-55648839D01*
X182413744Y-55735000D01*
X182706256Y-55735000D01*
X183139418Y-55648839D01*
X183630625Y-55320625D01*
X183830000Y-55022239D01*
X184029375Y-55320625D01*
X184520582Y-55648839D01*
X184953744Y-55735000D01*
X185246256Y-55735000D01*
X185679418Y-55648839D01*
X186170625Y-55320625D01*
X186370000Y-55022239D01*
X186569375Y-55320625D01*
X187060582Y-55648839D01*
X187493744Y-55735000D01*
X187786256Y-55735000D01*
X188219418Y-55648839D01*
X188710625Y-55320625D01*
X188910000Y-55022239D01*
X189109375Y-55320625D01*
X189600582Y-55648839D01*
X190033744Y-55735000D01*
X190326256Y-55735000D01*
X190759418Y-55648839D01*
X191250625Y-55320625D01*
X191450000Y-55022239D01*
X191649375Y-55320625D01*
X192140582Y-55648839D01*
X192573744Y-55735000D01*
X192866256Y-55735000D01*
X193299418Y-55648839D01*
X193790625Y-55320625D01*
X194003843Y-55001522D01*
X194064817Y-55131358D01*
X194493076Y-55521645D01*
X194903110Y-55691476D01*
X195133000Y-55570155D01*
X195133000Y-54377000D01*
X195387000Y-54377000D01*
X195387000Y-55570155D01*
X195616890Y-55691476D01*
X196026924Y-55521645D01*
X196455183Y-55131358D01*
X196701486Y-54606892D01*
X196580819Y-54377000D01*
X195387000Y-54377000D01*
X195133000Y-54377000D01*
X195113000Y-54377000D01*
X195113000Y-54123000D01*
X195133000Y-54123000D01*
X195133000Y-54103000D01*
X195387000Y-54103000D01*
X195387000Y-54123000D01*
X196580819Y-54123000D01*
X196701486Y-53893108D01*
X196455183Y-53368642D01*
X196030214Y-52981353D01*
X196330625Y-52780625D01*
X196658839Y-52289418D01*
X196774092Y-51710000D01*
X196658839Y-51130582D01*
X196656446Y-51127000D01*
X198873000Y-51127000D01*
X198873000Y-123873000D01*
X182842674Y-123873000D01*
X183038839Y-123579418D01*
X183154092Y-123000000D01*
X183038839Y-122420582D01*
X182710625Y-121929375D01*
X182410214Y-121728647D01*
X182835183Y-121341358D01*
X183081486Y-120816892D01*
X182960819Y-120587000D01*
X181767000Y-120587000D01*
X181767000Y-120607000D01*
X181513000Y-120607000D01*
X181513000Y-120587000D01*
X181493000Y-120587000D01*
X181493000Y-120333000D01*
X181513000Y-120333000D01*
X181513000Y-119139845D01*
X181767000Y-119139845D01*
X181767000Y-120333000D01*
X182960819Y-120333000D01*
X183081486Y-120103108D01*
X182835183Y-119578642D01*
X182406924Y-119188355D01*
X181996890Y-119018524D01*
X181767000Y-119139845D01*
X181513000Y-119139845D01*
X181283110Y-119018524D01*
X180873076Y-119188355D01*
X180444817Y-119578642D01*
X180383843Y-119708478D01*
X180170625Y-119389375D01*
X179679418Y-119061161D01*
X179246256Y-118975000D01*
X178953744Y-118975000D01*
X178520582Y-119061161D01*
X178029375Y-119389375D01*
X177830000Y-119687761D01*
X177630625Y-119389375D01*
X177139418Y-119061161D01*
X176706256Y-118975000D01*
X176413744Y-118975000D01*
X175980582Y-119061161D01*
X175489375Y-119389375D01*
X175290000Y-119687761D01*
X175090625Y-119389375D01*
X174599418Y-119061161D01*
X174166256Y-118975000D01*
X173873744Y-118975000D01*
X173440582Y-119061161D01*
X172949375Y-119389375D01*
X172750000Y-119687761D01*
X172550625Y-119389375D01*
X172059418Y-119061161D01*
X171626256Y-118975000D01*
X171333744Y-118975000D01*
X170900582Y-119061161D01*
X170875001Y-119078254D01*
X170875001Y-116339849D01*
X170889889Y-116265001D01*
X170875001Y-116190153D01*
X170875001Y-116190149D01*
X170830905Y-115968464D01*
X170662930Y-115717072D01*
X170599474Y-115674672D01*
X170435370Y-115510568D01*
X170497765Y-115498157D01*
X170707809Y-115357809D01*
X170848157Y-115147765D01*
X170897440Y-114900000D01*
X170897440Y-113835022D01*
X191604584Y-113835022D01*
X191825353Y-114205743D01*
X192797012Y-114599119D01*
X193845247Y-114590713D01*
X194774647Y-114205743D01*
X194995416Y-113835022D01*
X193300000Y-112139605D01*
X191604584Y-113835022D01*
X170897440Y-113835022D01*
X170897440Y-113100000D01*
X170848157Y-112852235D01*
X170707809Y-112642191D01*
X170497765Y-112501843D01*
X170250000Y-112452560D01*
X167750000Y-112452560D01*
X167502235Y-112501843D01*
X167292191Y-112642191D01*
X167151843Y-112852235D01*
X167102560Y-113100000D01*
X167102560Y-114900000D01*
X167151843Y-115147765D01*
X167292191Y-115357809D01*
X167502235Y-115498157D01*
X167750000Y-115547440D01*
X168351518Y-115547440D01*
X168452071Y-115697929D01*
X168515530Y-115740331D01*
X169355002Y-116579804D01*
X169355002Y-119028457D01*
X169086256Y-118975000D01*
X168793744Y-118975000D01*
X168573255Y-119018858D01*
X168386538Y-118894097D01*
X168195996Y-118856196D01*
X164887240Y-115547440D01*
X166250000Y-115547440D01*
X166497765Y-115498157D01*
X166707809Y-115357809D01*
X166848157Y-115147765D01*
X166897440Y-114900000D01*
X166897440Y-113100000D01*
X166848157Y-112852235D01*
X166707809Y-112642191D01*
X166497765Y-112501843D01*
X166250000Y-112452560D01*
X164177363Y-112452560D01*
X153010552Y-101285750D01*
X154865000Y-101285750D01*
X154865000Y-101626309D01*
X154961673Y-101859698D01*
X155140301Y-102038327D01*
X155373690Y-102135000D01*
X155714250Y-102135000D01*
X155873000Y-101976250D01*
X155873000Y-101127000D01*
X156127000Y-101127000D01*
X156127000Y-101976250D01*
X156285750Y-102135000D01*
X156626310Y-102135000D01*
X156859699Y-102038327D01*
X157038327Y-101859698D01*
X157135000Y-101626309D01*
X157135000Y-101285750D01*
X156976250Y-101127000D01*
X156127000Y-101127000D01*
X155873000Y-101127000D01*
X155023750Y-101127000D01*
X154865000Y-101285750D01*
X153010552Y-101285750D01*
X152098493Y-100373691D01*
X154865000Y-100373691D01*
X154865000Y-100714250D01*
X155023750Y-100873000D01*
X155873000Y-100873000D01*
X155873000Y-100023750D01*
X156127000Y-100023750D01*
X156127000Y-100873000D01*
X156976250Y-100873000D01*
X157001819Y-100847431D01*
X157044234Y-100865000D01*
X157405000Y-100865000D01*
X157405000Y-101225766D01*
X157577793Y-101642926D01*
X157897074Y-101962207D01*
X158314234Y-102135000D01*
X158765766Y-102135000D01*
X159182926Y-101962207D01*
X159502207Y-101642926D01*
X159675000Y-101225766D01*
X159675000Y-100774234D01*
X159502207Y-100357074D01*
X159182926Y-100037793D01*
X158765766Y-99865000D01*
X158405000Y-99865000D01*
X158405000Y-99504234D01*
X158232207Y-99087074D01*
X157912926Y-98767793D01*
X157495766Y-98595000D01*
X157044234Y-98595000D01*
X156627074Y-98767793D01*
X156307793Y-99087074D01*
X156135000Y-99504234D01*
X156135000Y-99955766D01*
X156152569Y-99998181D01*
X156127000Y-100023750D01*
X155873000Y-100023750D01*
X155714250Y-99865000D01*
X155373690Y-99865000D01*
X155140301Y-99961673D01*
X154961673Y-100140302D01*
X154865000Y-100373691D01*
X152098493Y-100373691D01*
X145010552Y-93285750D01*
X154865000Y-93285750D01*
X154865000Y-93626309D01*
X154961673Y-93859698D01*
X155140301Y-94038327D01*
X155373690Y-94135000D01*
X155714250Y-94135000D01*
X155873000Y-93976250D01*
X155873000Y-93127000D01*
X156127000Y-93127000D01*
X156127000Y-93976250D01*
X156285750Y-94135000D01*
X156626310Y-94135000D01*
X156859699Y-94038327D01*
X157038327Y-93859698D01*
X157135000Y-93626309D01*
X157135000Y-93285750D01*
X156976250Y-93127000D01*
X156127000Y-93127000D01*
X155873000Y-93127000D01*
X155023750Y-93127000D01*
X154865000Y-93285750D01*
X145010552Y-93285750D01*
X144360000Y-92635199D01*
X144360000Y-92373691D01*
X154865000Y-92373691D01*
X154865000Y-92714250D01*
X155023750Y-92873000D01*
X155873000Y-92873000D01*
X155873000Y-92023750D01*
X156127000Y-92023750D01*
X156127000Y-92873000D01*
X156976250Y-92873000D01*
X157001819Y-92847431D01*
X157044234Y-92865000D01*
X157405000Y-92865000D01*
X157405000Y-93225766D01*
X157577793Y-93642926D01*
X157897074Y-93962207D01*
X158314234Y-94135000D01*
X158765766Y-94135000D01*
X159182926Y-93962207D01*
X159502207Y-93642926D01*
X159675000Y-93225766D01*
X159675000Y-92774234D01*
X159502207Y-92357074D01*
X159182926Y-92037793D01*
X158765766Y-91865000D01*
X158405000Y-91865000D01*
X158405000Y-91504234D01*
X158232207Y-91087074D01*
X157912926Y-90767793D01*
X157495766Y-90595000D01*
X157044234Y-90595000D01*
X156627074Y-90767793D01*
X156307793Y-91087074D01*
X156135000Y-91504234D01*
X156135000Y-91955766D01*
X156152569Y-91998181D01*
X156127000Y-92023750D01*
X155873000Y-92023750D01*
X155714250Y-91865000D01*
X155373690Y-91865000D01*
X155140301Y-91961673D01*
X154961673Y-92140302D01*
X154865000Y-92373691D01*
X144360000Y-92373691D01*
X144360000Y-87838043D01*
X144634577Y-87654577D01*
X144890947Y-87270892D01*
X144987611Y-87475134D01*
X145402577Y-87851041D01*
X145790961Y-88011904D01*
X146013000Y-87889915D01*
X146013000Y-86747000D01*
X145993000Y-86747000D01*
X145993000Y-86493000D01*
X146013000Y-86493000D01*
X146013000Y-85350085D01*
X145790961Y-85228096D01*
X145402577Y-85388959D01*
X144987611Y-85764866D01*
X144890947Y-85969108D01*
X144634577Y-85585423D01*
X144159909Y-85268260D01*
X143741333Y-85185000D01*
X143458667Y-85185000D01*
X143040091Y-85268260D01*
X142565423Y-85585423D01*
X142330000Y-85937758D01*
X142094577Y-85585423D01*
X141619909Y-85268260D01*
X141201333Y-85185000D01*
X140918667Y-85185000D01*
X140500091Y-85268260D01*
X140025423Y-85585423D01*
X139790000Y-85937758D01*
X139554577Y-85585423D01*
X139079909Y-85268260D01*
X138661333Y-85185000D01*
X138489801Y-85185000D01*
X140419472Y-83255330D01*
X140482928Y-83212930D01*
X140587851Y-83055902D01*
X140650903Y-82961539D01*
X140678167Y-82824471D01*
X140694999Y-82739853D01*
X140694999Y-82739849D01*
X140709887Y-82665001D01*
X140694999Y-82590153D01*
X140694999Y-80390510D01*
X140918667Y-80435000D01*
X141201333Y-80435000D01*
X141383887Y-80398688D01*
X146311071Y-85325872D01*
X146267000Y-85350085D01*
X146267000Y-86493000D01*
X146287000Y-86493000D01*
X146287000Y-86747000D01*
X146267000Y-86747000D01*
X146267000Y-87889915D01*
X146489039Y-88011904D01*
X146505001Y-88005293D01*
X146505001Y-88190154D01*
X146490113Y-88265001D01*
X146505001Y-88339848D01*
X146505001Y-88339852D01*
X146549097Y-88561537D01*
X146717072Y-88812930D01*
X146780531Y-88855332D01*
X147965000Y-90039802D01*
X147965000Y-90205874D01*
X148122569Y-90586280D01*
X148413720Y-90877431D01*
X148794126Y-91035000D01*
X149205874Y-91035000D01*
X149586280Y-90877431D01*
X149877431Y-90586280D01*
X150035000Y-90205874D01*
X150035000Y-89794126D01*
X149877431Y-89413720D01*
X149586280Y-89122569D01*
X149205874Y-88965000D01*
X149039802Y-88965000D01*
X148025001Y-87950200D01*
X148025001Y-87908203D01*
X148120091Y-87971740D01*
X148538667Y-88055000D01*
X148821333Y-88055000D01*
X149239909Y-87971740D01*
X149714577Y-87654577D01*
X149950000Y-87302242D01*
X150185423Y-87654577D01*
X150660091Y-87971740D01*
X151078667Y-88055000D01*
X151361333Y-88055000D01*
X151779909Y-87971740D01*
X152254577Y-87654577D01*
X152490000Y-87302242D01*
X152725423Y-87654577D01*
X153200091Y-87971740D01*
X153618667Y-88055000D01*
X153901333Y-88055000D01*
X154319909Y-87971740D01*
X154794577Y-87654577D01*
X155030000Y-87302242D01*
X155265423Y-87654577D01*
X155740091Y-87971740D01*
X156158667Y-88055000D01*
X156441333Y-88055000D01*
X156859909Y-87971740D01*
X157334577Y-87654577D01*
X157570000Y-87302242D01*
X157805423Y-87654577D01*
X158280091Y-87971740D01*
X158698667Y-88055000D01*
X158981333Y-88055000D01*
X159399909Y-87971740D01*
X159874577Y-87654577D01*
X160110000Y-87302242D01*
X160345423Y-87654577D01*
X160820091Y-87971740D01*
X161238667Y-88055000D01*
X161521333Y-88055000D01*
X161939909Y-87971740D01*
X162414577Y-87654577D01*
X162650000Y-87302242D01*
X162885423Y-87654577D01*
X163360091Y-87971740D01*
X163778667Y-88055000D01*
X164061333Y-88055000D01*
X164479909Y-87971740D01*
X164954577Y-87654577D01*
X165190000Y-87302242D01*
X165425423Y-87654577D01*
X165900091Y-87971740D01*
X166318667Y-88055000D01*
X166601333Y-88055000D01*
X167019909Y-87971740D01*
X167494577Y-87654577D01*
X167730000Y-87302242D01*
X167965423Y-87654577D01*
X168440091Y-87971740D01*
X168858667Y-88055000D01*
X169141333Y-88055000D01*
X169559909Y-87971740D01*
X170034577Y-87654577D01*
X170351740Y-87179909D01*
X170463113Y-86620000D01*
X170351740Y-86060091D01*
X170034577Y-85585423D01*
X169559909Y-85268260D01*
X169141333Y-85185000D01*
X168858667Y-85185000D01*
X168440091Y-85268260D01*
X167965423Y-85585423D01*
X167730000Y-85937758D01*
X167494577Y-85585423D01*
X167019909Y-85268260D01*
X166601333Y-85185000D01*
X166318667Y-85185000D01*
X165900091Y-85268260D01*
X165425423Y-85585423D01*
X165190000Y-85937758D01*
X164954577Y-85585423D01*
X164479909Y-85268260D01*
X164061333Y-85185000D01*
X163778667Y-85185000D01*
X163360091Y-85268260D01*
X162885423Y-85585423D01*
X162650000Y-85937758D01*
X162414577Y-85585423D01*
X161939909Y-85268260D01*
X161521333Y-85185000D01*
X161238667Y-85185000D01*
X160820091Y-85268260D01*
X160345423Y-85585423D01*
X160110000Y-85937758D01*
X159874577Y-85585423D01*
X159399909Y-85268260D01*
X158981333Y-85185000D01*
X158698667Y-85185000D01*
X158280091Y-85268260D01*
X157805423Y-85585423D01*
X157570000Y-85937758D01*
X157334577Y-85585423D01*
X156859909Y-85268260D01*
X156441333Y-85185000D01*
X156158667Y-85185000D01*
X155740091Y-85268260D01*
X155265423Y-85585423D01*
X155030000Y-85937758D01*
X154794577Y-85585423D01*
X154319909Y-85268260D01*
X153901333Y-85185000D01*
X153618667Y-85185000D01*
X153200091Y-85268260D01*
X152725423Y-85585423D01*
X152490000Y-85937758D01*
X152254577Y-85585423D01*
X151779909Y-85268260D01*
X151361333Y-85185000D01*
X151078667Y-85185000D01*
X150660091Y-85268260D01*
X150185423Y-85585423D01*
X149950000Y-85937758D01*
X149714577Y-85585423D01*
X149440000Y-85401957D01*
X149440000Y-84394801D01*
X153436114Y-80398688D01*
X153618667Y-80435000D01*
X153901333Y-80435000D01*
X154319909Y-80351740D01*
X154794577Y-80034577D01*
X154978043Y-79760000D01*
X155081957Y-79760000D01*
X155265423Y-80034577D01*
X155740091Y-80351740D01*
X156158667Y-80435000D01*
X156441333Y-80435000D01*
X156859909Y-80351740D01*
X157334577Y-80034577D01*
X157518043Y-79760000D01*
X157621957Y-79760000D01*
X157805423Y-80034577D01*
X158280091Y-80351740D01*
X158698667Y-80435000D01*
X158981333Y-80435000D01*
X159163886Y-80398688D01*
X159374671Y-80609473D01*
X159417072Y-80672930D01*
X159480528Y-80715330D01*
X159668463Y-80840905D01*
X159716606Y-80850481D01*
X159890149Y-80885001D01*
X159890153Y-80885001D01*
X159965001Y-80899889D01*
X160039849Y-80885001D01*
X168760200Y-80885001D01*
X172439670Y-84564472D01*
X172482071Y-84627929D01*
X172545527Y-84670329D01*
X172733462Y-84795904D01*
X172781605Y-84805480D01*
X172955148Y-84840000D01*
X172955152Y-84840000D01*
X173030000Y-84854888D01*
X173104848Y-84840000D01*
X178781957Y-84840000D01*
X178965423Y-85114577D01*
X179317758Y-85350000D01*
X178965423Y-85585423D01*
X178648260Y-86060091D01*
X178536887Y-86620000D01*
X178648260Y-87179909D01*
X178965423Y-87654577D01*
X179319222Y-87890978D01*
X177720201Y-89490000D01*
X173829700Y-89490000D01*
X173697765Y-89401843D01*
X173450000Y-89352560D01*
X172550000Y-89352560D01*
X172302235Y-89401843D01*
X172092191Y-89542191D01*
X171951843Y-89752235D01*
X171902560Y-90000000D01*
X171902560Y-90500000D01*
X171951843Y-90747765D01*
X172092191Y-90957809D01*
X172155334Y-91000000D01*
X172092191Y-91042191D01*
X171951843Y-91252235D01*
X171902560Y-91500000D01*
X171902560Y-92000000D01*
X171947793Y-92227405D01*
X165440520Y-98734679D01*
X165377061Y-98777081D01*
X165209086Y-99028474D01*
X165164990Y-99250159D01*
X165164990Y-99250163D01*
X165150102Y-99325010D01*
X165164990Y-99399857D01*
X165164991Y-109690138D01*
X165150102Y-109764990D01*
X165164991Y-109839842D01*
X165209087Y-110061527D01*
X165377062Y-110312919D01*
X165440518Y-110355319D01*
X165602560Y-110517361D01*
X165602560Y-110990000D01*
X165651843Y-111237765D01*
X165792191Y-111447809D01*
X166002235Y-111588157D01*
X166250000Y-111637440D01*
X167750000Y-111637440D01*
X167997765Y-111588157D01*
X168207809Y-111447809D01*
X168348157Y-111237765D01*
X168397440Y-110990000D01*
X168397440Y-110090000D01*
X168385505Y-110030000D01*
X172440155Y-110030000D01*
X172515002Y-110044888D01*
X172589849Y-110030000D01*
X172589854Y-110030000D01*
X172811539Y-109985904D01*
X173062931Y-109817929D01*
X173105333Y-109754470D01*
X174484476Y-108375329D01*
X174547929Y-108332931D01*
X174590327Y-108269478D01*
X174590329Y-108269476D01*
X174708198Y-108093072D01*
X174715904Y-108081539D01*
X174760000Y-107859854D01*
X174760000Y-107859850D01*
X174774888Y-107785003D01*
X174760000Y-107710156D01*
X174760000Y-106874848D01*
X174774888Y-106800000D01*
X174760000Y-106725152D01*
X174760000Y-106725148D01*
X174715904Y-106503463D01*
X174715904Y-106503462D01*
X174590329Y-106315527D01*
X174547929Y-106252071D01*
X174484473Y-106209671D01*
X174274802Y-106000000D01*
X174514802Y-105760000D01*
X176452560Y-105760000D01*
X176452560Y-108250000D01*
X176501843Y-108497765D01*
X176642191Y-108707809D01*
X176852235Y-108848157D01*
X177100000Y-108897440D01*
X178900000Y-108897440D01*
X179147765Y-108848157D01*
X179357809Y-108707809D01*
X179498157Y-108497765D01*
X179547440Y-108250000D01*
X179547440Y-107760000D01*
X182145199Y-107760000D01*
X183865000Y-109479803D01*
X183865000Y-109765766D01*
X184037793Y-110182926D01*
X184094867Y-110240000D01*
X179547440Y-110240000D01*
X179547440Y-109750000D01*
X179498157Y-109502235D01*
X179357809Y-109292191D01*
X179147765Y-109151843D01*
X178900000Y-109102560D01*
X177100000Y-109102560D01*
X176852235Y-109151843D01*
X176642191Y-109292191D01*
X176501843Y-109502235D01*
X176452560Y-109750000D01*
X176452560Y-112250000D01*
X176501843Y-112497765D01*
X176642191Y-112707809D01*
X176852235Y-112848157D01*
X177100000Y-112897440D01*
X178900000Y-112897440D01*
X179147765Y-112848157D01*
X179357809Y-112707809D01*
X179498157Y-112497765D01*
X179547440Y-112250000D01*
X179547440Y-111760000D01*
X190663311Y-111760000D01*
X190669287Y-112505247D01*
X191054257Y-113434647D01*
X191424978Y-113655416D01*
X193120395Y-111960000D01*
X193479605Y-111960000D01*
X195175022Y-113655416D01*
X195545743Y-113434647D01*
X195939119Y-112462988D01*
X195930713Y-111414753D01*
X195545743Y-110485353D01*
X195175022Y-110264584D01*
X193479605Y-111960000D01*
X193120395Y-111960000D01*
X193106253Y-111945858D01*
X193285858Y-111766253D01*
X193300000Y-111780395D01*
X194995416Y-110084978D01*
X194774647Y-109714257D01*
X193802988Y-109320881D01*
X193571058Y-109322741D01*
X197449474Y-105444326D01*
X197512930Y-105401926D01*
X197586253Y-105292191D01*
X197680905Y-105150535D01*
X197690481Y-105102392D01*
X197725001Y-104928849D01*
X197725001Y-104928845D01*
X197739889Y-104853997D01*
X197725001Y-104779149D01*
X197725001Y-102044847D01*
X197739889Y-101970000D01*
X197725001Y-101895153D01*
X197725001Y-101895149D01*
X197680905Y-101673464D01*
X197512930Y-101422072D01*
X197449471Y-101379670D01*
X197253103Y-101183302D01*
X197275000Y-101130439D01*
X197275000Y-100559561D01*
X197056534Y-100032138D01*
X196652862Y-99628466D01*
X196246150Y-99460000D01*
X196652862Y-99291534D01*
X197056534Y-98887862D01*
X197275000Y-98360439D01*
X197275000Y-97789561D01*
X197056534Y-97262138D01*
X196652862Y-96858466D01*
X196246150Y-96690000D01*
X196652862Y-96521534D01*
X197056534Y-96117862D01*
X197275000Y-95590439D01*
X197275000Y-95019561D01*
X197056534Y-94492138D01*
X196652862Y-94088466D01*
X196125439Y-93870000D01*
X195554561Y-93870000D01*
X195027138Y-94088466D01*
X194640321Y-94475283D01*
X194609474Y-94454672D01*
X194413104Y-94258302D01*
X194435000Y-94205439D01*
X194435000Y-93634561D01*
X194216534Y-93107138D01*
X193812862Y-92703466D01*
X193285439Y-92485000D01*
X192714561Y-92485000D01*
X192187138Y-92703466D01*
X191783466Y-93107138D01*
X191565000Y-93634561D01*
X191565000Y-94205439D01*
X191783466Y-94732862D01*
X192187138Y-95136534D01*
X192593850Y-95305000D01*
X192187138Y-95473466D01*
X191783466Y-95877138D01*
X191565000Y-96404561D01*
X191565000Y-96950199D01*
X190760000Y-96145199D01*
X190760000Y-88835022D01*
X191604584Y-88835022D01*
X191825353Y-89205743D01*
X192797012Y-89599119D01*
X193845247Y-89590713D01*
X194774647Y-89205743D01*
X194995416Y-88835022D01*
X193300000Y-87139605D01*
X191604584Y-88835022D01*
X190760000Y-88835022D01*
X190760000Y-87724248D01*
X191054257Y-88434647D01*
X191424978Y-88655416D01*
X193120395Y-86960000D01*
X193479605Y-86960000D01*
X195175022Y-88655416D01*
X195545743Y-88434647D01*
X195939119Y-87462988D01*
X195930713Y-86414753D01*
X195545743Y-85485353D01*
X195175022Y-85264584D01*
X193479605Y-86960000D01*
X193120395Y-86960000D01*
X191424978Y-85264584D01*
X191054257Y-85485353D01*
X190760000Y-86212183D01*
X190760000Y-85084978D01*
X191604584Y-85084978D01*
X193300000Y-86780395D01*
X194995416Y-85084978D01*
X194774647Y-84714257D01*
X193802988Y-84320881D01*
X192754753Y-84329287D01*
X191825353Y-84714257D01*
X191604584Y-85084978D01*
X190760000Y-85084978D01*
X190760000Y-83994848D01*
X190774888Y-83920000D01*
X190760000Y-83845152D01*
X190760000Y-83845148D01*
X190715904Y-83623463D01*
X190715904Y-83623462D01*
X190590329Y-83435527D01*
X190547929Y-83372071D01*
X190484473Y-83329671D01*
X189018688Y-81863887D01*
X189083113Y-81540000D01*
X188971740Y-80980091D01*
X188654577Y-80505423D01*
X188302242Y-80270000D01*
X188654577Y-80034577D01*
X188971740Y-79559909D01*
X189083113Y-79000000D01*
X188971740Y-78440091D01*
X188654577Y-77965423D01*
X188179909Y-77648260D01*
X187761333Y-77565000D01*
X187478667Y-77565000D01*
X187060091Y-77648260D01*
X186585423Y-77965423D01*
X186268260Y-78440091D01*
X186156887Y-79000000D01*
X186268260Y-79559909D01*
X186585423Y-80034577D01*
X186937758Y-80270000D01*
X186585423Y-80505423D01*
X186268260Y-80980091D01*
X186156887Y-81540000D01*
X186229413Y-81904611D01*
X177840331Y-73515530D01*
X177797929Y-73452071D01*
X177601908Y-73321094D01*
X177598157Y-73302235D01*
X177457809Y-73092191D01*
X177247765Y-72951843D01*
X177000000Y-72902560D01*
X176500000Y-72902560D01*
X176252235Y-72951843D01*
X176042191Y-73092191D01*
X176000000Y-73155334D01*
X175957809Y-73092191D01*
X175747765Y-72951843D01*
X175500000Y-72902560D01*
X175000000Y-72902560D01*
X174752235Y-72951843D01*
X174542191Y-73092191D01*
X174443427Y-73240000D01*
X166454848Y-73240000D01*
X166380000Y-73225112D01*
X166305152Y-73240000D01*
X166305148Y-73240000D01*
X166131605Y-73274520D01*
X166083462Y-73284096D01*
X165896418Y-73409076D01*
X165832071Y-73452071D01*
X165789671Y-73515527D01*
X161703887Y-77601312D01*
X161521333Y-77565000D01*
X161238667Y-77565000D01*
X160820091Y-77648260D01*
X160345423Y-77965423D01*
X160110000Y-78317758D01*
X159874577Y-77965423D01*
X159399909Y-77648260D01*
X158981333Y-77565000D01*
X158698667Y-77565000D01*
X158280091Y-77648260D01*
X157805423Y-77965423D01*
X157621957Y-78240000D01*
X157518043Y-78240000D01*
X157334577Y-77965423D01*
X156859909Y-77648260D01*
X156441333Y-77565000D01*
X156158667Y-77565000D01*
X155740091Y-77648260D01*
X155265423Y-77965423D01*
X155081957Y-78240000D01*
X154978043Y-78240000D01*
X154794577Y-77965423D01*
X154319909Y-77648260D01*
X153901333Y-77565000D01*
X153618667Y-77565000D01*
X153436114Y-77601312D01*
X150350331Y-74515530D01*
X150307929Y-74452071D01*
X150056537Y-74284096D01*
X149834852Y-74240000D01*
X149834847Y-74240000D01*
X149760000Y-74225112D01*
X149685153Y-74240000D01*
X147556573Y-74240000D01*
X147457809Y-74092191D01*
X147247765Y-73951843D01*
X147000000Y-73902560D01*
X146500000Y-73902560D01*
X146252235Y-73951843D01*
X146042191Y-74092191D01*
X146000000Y-74155334D01*
X145957809Y-74092191D01*
X145747765Y-73951843D01*
X145500000Y-73902560D01*
X145000000Y-73902560D01*
X144752235Y-73951843D01*
X144542191Y-74092191D01*
X144443427Y-74240000D01*
X142594846Y-74240000D01*
X142519999Y-74225112D01*
X142445152Y-74240000D01*
X142445148Y-74240000D01*
X142223463Y-74284096D01*
X141972071Y-74452071D01*
X141929671Y-74515527D01*
X138843887Y-77601312D01*
X138661333Y-77565000D01*
X138378667Y-77565000D01*
X138196113Y-77601312D01*
X137985330Y-77390529D01*
X137942928Y-77327070D01*
X137691536Y-77159095D01*
X137469851Y-77114999D01*
X137469846Y-77114999D01*
X137394999Y-77100111D01*
X137320152Y-77114999D01*
X135514847Y-77114999D01*
X135439999Y-77100111D01*
X135365151Y-77114999D01*
X135365147Y-77114999D01*
X135143462Y-77159095D01*
X134892070Y-77327070D01*
X134849670Y-77390526D01*
X131740527Y-80499670D01*
X131677071Y-80542070D01*
X131634671Y-80605526D01*
X131634670Y-80605527D01*
X131509096Y-80793462D01*
X131450111Y-81089999D01*
X131465000Y-81164851D01*
X131464999Y-102911154D01*
X131450111Y-102986001D01*
X131464999Y-103060848D01*
X131464999Y-103060852D01*
X131509095Y-103282537D01*
X131677070Y-103533930D01*
X131740529Y-103576332D01*
X138473670Y-110309474D01*
X138516070Y-110372930D01*
X138767462Y-110540905D01*
X138989147Y-110585001D01*
X138989151Y-110585001D01*
X139063999Y-110599889D01*
X139138847Y-110585001D01*
X139631962Y-110585001D01*
X139767793Y-110912926D01*
X140087074Y-111232207D01*
X140504234Y-111405000D01*
X140955766Y-111405000D01*
X141372926Y-111232207D01*
X141692207Y-110912926D01*
X141865000Y-110495766D01*
X141865000Y-110147440D01*
X142500000Y-110147440D01*
X142747765Y-110098157D01*
X142957809Y-109957809D01*
X143098157Y-109747765D01*
X143147440Y-109500000D01*
X143147440Y-108500000D01*
X143098157Y-108252235D01*
X142957809Y-108042191D01*
X142747765Y-107901843D01*
X142500000Y-107852560D01*
X141800001Y-107852560D01*
X141800001Y-102120819D01*
X142182926Y-101962207D01*
X142502207Y-101642926D01*
X142593889Y-101421585D01*
X153293613Y-112121309D01*
X153135000Y-112504234D01*
X153135000Y-112955766D01*
X153152569Y-112998181D01*
X153127000Y-113023750D01*
X153127000Y-113873000D01*
X153976250Y-113873000D01*
X154001819Y-113847431D01*
X154044234Y-113865000D01*
X154405000Y-113865000D01*
X154405000Y-114225766D01*
X154577793Y-114642926D01*
X154897074Y-114962207D01*
X155314234Y-115135000D01*
X155765766Y-115135000D01*
X156182926Y-114962207D01*
X156502207Y-114642926D01*
X156675000Y-114225766D01*
X156675000Y-113774234D01*
X156502207Y-113357074D01*
X156182926Y-113037793D01*
X155765766Y-112865000D01*
X155405000Y-112865000D01*
X155405000Y-112504234D01*
X155232207Y-112087074D01*
X155014313Y-111869180D01*
X154985904Y-111726357D01*
X154817929Y-111474965D01*
X154754473Y-111432565D01*
X135587437Y-92265530D01*
X135545035Y-92202071D01*
X135293643Y-92034096D01*
X135071958Y-91990000D01*
X135071953Y-91990000D01*
X134997106Y-91975112D01*
X134922259Y-91990000D01*
X133859632Y-91990000D01*
X133907809Y-91957809D01*
X134048157Y-91747765D01*
X134097440Y-91500000D01*
X134097440Y-91000000D01*
X134048157Y-90752235D01*
X133907809Y-90542191D01*
X133760000Y-90443427D01*
X133760000Y-82294801D01*
X135656114Y-80398688D01*
X135838667Y-80435000D01*
X136121333Y-80435000D01*
X136539909Y-80351740D01*
X137014577Y-80034577D01*
X137250000Y-79682242D01*
X137485423Y-80034577D01*
X137960091Y-80351740D01*
X138378667Y-80435000D01*
X138661333Y-80435000D01*
X139079909Y-80351740D01*
X139174999Y-80288203D01*
X139175000Y-82350198D01*
X136303887Y-85221312D01*
X136121333Y-85185000D01*
X135838667Y-85185000D01*
X135420091Y-85268260D01*
X134945423Y-85585423D01*
X134628260Y-86060091D01*
X134516887Y-86620000D01*
X134628260Y-87179909D01*
X134945423Y-87654577D01*
X135420091Y-87971740D01*
X135838667Y-88055000D01*
X136121333Y-88055000D01*
X136539909Y-87971740D01*
X137014577Y-87654577D01*
X137250000Y-87302242D01*
X137485423Y-87654577D01*
X137960091Y-87971740D01*
X138378667Y-88055000D01*
X138661333Y-88055000D01*
X139079909Y-87971740D01*
X139554577Y-87654577D01*
X139790000Y-87302242D01*
X140025423Y-87654577D01*
X140300001Y-87838044D01*
X140300000Y-92720155D01*
X140285112Y-92795002D01*
X140300000Y-92869849D01*
X140300000Y-92869853D01*
X140344096Y-93091538D01*
X140512071Y-93342931D01*
X140575530Y-93385333D01*
X166179887Y-118989691D01*
X165820582Y-119061161D01*
X165329375Y-119389375D01*
X165130000Y-119687761D01*
X164930625Y-119389375D01*
X164439418Y-119061161D01*
X164006256Y-118975000D01*
X163713744Y-118975000D01*
X163280582Y-119061161D01*
X162789375Y-119389375D01*
X162590000Y-119687761D01*
X162390625Y-119389375D01*
X161899418Y-119061161D01*
X161466256Y-118975000D01*
X161173744Y-118975000D01*
X160740582Y-119061161D01*
X160249375Y-119389375D01*
X160050000Y-119687761D01*
X159850625Y-119389375D01*
X159359418Y-119061161D01*
X158926256Y-118975000D01*
X158633744Y-118975000D01*
X158200582Y-119061161D01*
X157709375Y-119389375D01*
X157510000Y-119687761D01*
X157310625Y-119389375D01*
X156819418Y-119061161D01*
X156386256Y-118975000D01*
X156093744Y-118975000D01*
X155660582Y-119061161D01*
X155169375Y-119389375D01*
X154970000Y-119687761D01*
X154770625Y-119389375D01*
X154279418Y-119061161D01*
X153846256Y-118975000D01*
X153553744Y-118975000D01*
X153120582Y-119061161D01*
X152629375Y-119389375D01*
X152430000Y-119687761D01*
X152230625Y-119389375D01*
X151739418Y-119061161D01*
X151306256Y-118975000D01*
X151013744Y-118975000D01*
X150580582Y-119061161D01*
X150089375Y-119389375D01*
X149890000Y-119687761D01*
X149690625Y-119389375D01*
X149199418Y-119061161D01*
X148766256Y-118975000D01*
X148473744Y-118975000D01*
X148040582Y-119061161D01*
X147549375Y-119389375D01*
X147350000Y-119687761D01*
X147150625Y-119389375D01*
X146659418Y-119061161D01*
X146226256Y-118975000D01*
X145933744Y-118975000D01*
X145500582Y-119061161D01*
X145009375Y-119389375D01*
X144810000Y-119687761D01*
X144610625Y-119389375D01*
X144119418Y-119061161D01*
X143686256Y-118975000D01*
X143393744Y-118975000D01*
X142960582Y-119061161D01*
X142469375Y-119389375D01*
X142270000Y-119687761D01*
X142070625Y-119389375D01*
X141579418Y-119061161D01*
X141146256Y-118975000D01*
X140853744Y-118975000D01*
X140420582Y-119061161D01*
X139929375Y-119389375D01*
X139601161Y-119880582D01*
X139485908Y-120460000D01*
X139601161Y-121039418D01*
X139929375Y-121530625D01*
X139947619Y-121542816D01*
X139902235Y-121551843D01*
X139692191Y-121692191D01*
X139551843Y-121902235D01*
X139502560Y-122150000D01*
X139502560Y-123850000D01*
X139507135Y-123873000D01*
X126127000Y-123873000D01*
X126127000Y-114285750D01*
X151865000Y-114285750D01*
X151865000Y-114626309D01*
X151961673Y-114859698D01*
X152140301Y-115038327D01*
X152373690Y-115135000D01*
X152714250Y-115135000D01*
X152873000Y-114976250D01*
X152873000Y-114127000D01*
X153127000Y-114127000D01*
X153127000Y-114976250D01*
X153285750Y-115135000D01*
X153626310Y-115135000D01*
X153859699Y-115038327D01*
X154038327Y-114859698D01*
X154135000Y-114626309D01*
X154135000Y-114285750D01*
X153976250Y-114127000D01*
X153127000Y-114127000D01*
X152873000Y-114127000D01*
X152023750Y-114127000D01*
X151865000Y-114285750D01*
X126127000Y-114285750D01*
X126127000Y-113373691D01*
X151865000Y-113373691D01*
X151865000Y-113714250D01*
X152023750Y-113873000D01*
X152873000Y-113873000D01*
X152873000Y-113023750D01*
X152714250Y-112865000D01*
X152373690Y-112865000D01*
X152140301Y-112961673D01*
X151961673Y-113140302D01*
X151865000Y-113373691D01*
X126127000Y-113373691D01*
X126127000Y-69283750D01*
X127515000Y-69283750D01*
X127515000Y-69376310D01*
X127611673Y-69609699D01*
X127790302Y-69788327D01*
X128023691Y-69885000D01*
X128164250Y-69885000D01*
X128323000Y-69726250D01*
X128323000Y-69125000D01*
X127673750Y-69125000D01*
X127515000Y-69283750D01*
X126127000Y-69283750D01*
X126127000Y-68623690D01*
X127515000Y-68623690D01*
X127515000Y-68716250D01*
X127673750Y-68875000D01*
X128323000Y-68875000D01*
X128323000Y-68273750D01*
X128577000Y-68273750D01*
X128577000Y-68875000D01*
X128597000Y-68875000D01*
X128597000Y-69125000D01*
X128577000Y-69125000D01*
X128577000Y-69726250D01*
X128735750Y-69885000D01*
X128876309Y-69885000D01*
X128889543Y-69879518D01*
X129002071Y-70047929D01*
X129065530Y-70090331D01*
X131459671Y-72484473D01*
X131502071Y-72547929D01*
X131753463Y-72715904D01*
X131975148Y-72760000D01*
X131975153Y-72760000D01*
X132050000Y-72774888D01*
X132124847Y-72760000D01*
X136296289Y-72760000D01*
X136413720Y-72877431D01*
X136794126Y-73035000D01*
X137205874Y-73035000D01*
X137586280Y-72877431D01*
X137877431Y-72586280D01*
X138035000Y-72205874D01*
X138035000Y-71794126D01*
X137877431Y-71413720D01*
X137586280Y-71122569D01*
X137205874Y-70965000D01*
X136794126Y-70965000D01*
X136413720Y-71122569D01*
X136296289Y-71240000D01*
X132364802Y-71240000D01*
X130477093Y-69352292D01*
X130497440Y-69250000D01*
X130497440Y-68750000D01*
X130448157Y-68502235D01*
X130307809Y-68292191D01*
X130097765Y-68151843D01*
X129850000Y-68102560D01*
X129250000Y-68102560D01*
X129002235Y-68151843D01*
X128988084Y-68161299D01*
X128876309Y-68115000D01*
X128735750Y-68115000D01*
X128577000Y-68273750D01*
X128323000Y-68273750D01*
X128164250Y-68115000D01*
X128023691Y-68115000D01*
X127790302Y-68211673D01*
X127611673Y-68390301D01*
X127515000Y-68623690D01*
X126127000Y-68623690D01*
X126127000Y-67724506D01*
X171615000Y-67724506D01*
X171615000Y-68275494D01*
X171825853Y-68784540D01*
X172215460Y-69174147D01*
X172724506Y-69385000D01*
X173275494Y-69385000D01*
X173784540Y-69174147D01*
X174174147Y-68784540D01*
X174385000Y-68275494D01*
X174385000Y-67724506D01*
X174174147Y-67215460D01*
X173784540Y-66825853D01*
X173275494Y-66615000D01*
X172724506Y-66615000D01*
X172215460Y-66825853D01*
X171825853Y-67215460D01*
X171615000Y-67724506D01*
X126127000Y-67724506D01*
X126127000Y-58764868D01*
X126414737Y-58764868D01*
X126525641Y-59042099D01*
X127171593Y-59285323D01*
X127861453Y-59262836D01*
X128394359Y-59042099D01*
X128505263Y-58764868D01*
X131494737Y-58764868D01*
X131605641Y-59042099D01*
X132251593Y-59285323D01*
X132941453Y-59262836D01*
X133474359Y-59042099D01*
X133585263Y-58764868D01*
X132540000Y-57719605D01*
X131494737Y-58764868D01*
X128505263Y-58764868D01*
X127460000Y-57719605D01*
X126414737Y-58764868D01*
X126127000Y-58764868D01*
X126127000Y-58542006D01*
X126235132Y-58585263D01*
X127280395Y-57540000D01*
X127639605Y-57540000D01*
X128684868Y-58585263D01*
X128962099Y-58474359D01*
X129205323Y-57828407D01*
X129186521Y-57251593D01*
X130794677Y-57251593D01*
X130817164Y-57941453D01*
X131037901Y-58474359D01*
X131315132Y-58585263D01*
X132360395Y-57540000D01*
X132719605Y-57540000D01*
X133764868Y-58585263D01*
X134042099Y-58474359D01*
X134285323Y-57828407D01*
X134262836Y-57138547D01*
X134042099Y-56605641D01*
X133764868Y-56494737D01*
X132719605Y-57540000D01*
X132360395Y-57540000D01*
X131315132Y-56494737D01*
X131037901Y-56605641D01*
X130794677Y-57251593D01*
X129186521Y-57251593D01*
X129182836Y-57138547D01*
X128962099Y-56605641D01*
X128684868Y-56494737D01*
X127639605Y-57540000D01*
X127280395Y-57540000D01*
X126235132Y-56494737D01*
X126127000Y-56537994D01*
X126127000Y-56315132D01*
X126414737Y-56315132D01*
X127460000Y-57360395D01*
X128505263Y-56315132D01*
X128394359Y-56037901D01*
X127748407Y-55794677D01*
X127058547Y-55817164D01*
X126525641Y-56037901D01*
X126414737Y-56315132D01*
X126127000Y-56315132D01*
X126127000Y-54674778D01*
X128365000Y-54674778D01*
X128365000Y-55325222D01*
X128613914Y-55926153D01*
X129073847Y-56386086D01*
X129674778Y-56635000D01*
X130325222Y-56635000D01*
X130926153Y-56386086D01*
X130997107Y-56315132D01*
X131494737Y-56315132D01*
X132540000Y-57360395D01*
X133585263Y-56315132D01*
X133474359Y-56037901D01*
X132828407Y-55794677D01*
X132138547Y-55817164D01*
X131605641Y-56037901D01*
X131494737Y-56315132D01*
X130997107Y-56315132D01*
X131386086Y-55926153D01*
X131635000Y-55325222D01*
X131635000Y-54674778D01*
X131386086Y-54073847D01*
X130997107Y-53684868D01*
X131494737Y-53684868D01*
X131605641Y-53962099D01*
X132251593Y-54205323D01*
X132941453Y-54182836D01*
X133474359Y-53962099D01*
X133585263Y-53684868D01*
X132540000Y-52639605D01*
X131494737Y-53684868D01*
X130997107Y-53684868D01*
X130926153Y-53613914D01*
X130325222Y-53365000D01*
X129674778Y-53365000D01*
X129073847Y-53613914D01*
X128613914Y-54073847D01*
X128365000Y-54674778D01*
X126127000Y-54674778D01*
X126127000Y-53684868D01*
X126414737Y-53684868D01*
X126525641Y-53962099D01*
X127171593Y-54205323D01*
X127861453Y-54182836D01*
X128394359Y-53962099D01*
X128505263Y-53684868D01*
X127460000Y-52639605D01*
X126414737Y-53684868D01*
X126127000Y-53684868D01*
X126127000Y-53462006D01*
X126235132Y-53505263D01*
X127280395Y-52460000D01*
X127639605Y-52460000D01*
X128684868Y-53505263D01*
X128962099Y-53394359D01*
X129205323Y-52748407D01*
X129186521Y-52171593D01*
X130794677Y-52171593D01*
X130817164Y-52861453D01*
X131037901Y-53394359D01*
X131315132Y-53505263D01*
X132360395Y-52460000D01*
X132719605Y-52460000D01*
X133764868Y-53505263D01*
X134042099Y-53394359D01*
X134285323Y-52748407D01*
X134262836Y-52058547D01*
X134042099Y-51525641D01*
X133764868Y-51414737D01*
X132719605Y-52460000D01*
X132360395Y-52460000D01*
X131315132Y-51414737D01*
X131037901Y-51525641D01*
X130794677Y-52171593D01*
X129186521Y-52171593D01*
X129182836Y-52058547D01*
X128962099Y-51525641D01*
X128684868Y-51414737D01*
X127639605Y-52460000D01*
X127280395Y-52460000D01*
X126235132Y-51414737D01*
X126127000Y-51457994D01*
X126127000Y-51127000D01*
X126457994Y-51127000D01*
X126414737Y-51235132D01*
X126414737Y-51235132D01*
G37*
X126414737Y-51235132D02*
X127460000Y-52280395D01*
X128505263Y-51235132D01*
X128462006Y-51127000D01*
X131537994Y-51127000D01*
X131494737Y-51235132D01*
X132540000Y-52280395D01*
X133585263Y-51235132D01*
X133542006Y-51127000D01*
X145603554Y-51127000D01*
X145601161Y-51130582D01*
X145485908Y-51710000D01*
X145601161Y-52289418D01*
X145929375Y-52780625D01*
X145947619Y-52792816D01*
X145902235Y-52801843D01*
X145692191Y-52942191D01*
X145551843Y-53152235D01*
X145502560Y-53400000D01*
X145502560Y-53490000D01*
X141824846Y-53490000D01*
X141749999Y-53475112D01*
X141675152Y-53490000D01*
X141675148Y-53490000D01*
X141453463Y-53534096D01*
X141202071Y-53702071D01*
X141159671Y-53765527D01*
X133960199Y-60965000D01*
X133794126Y-60965000D01*
X133413720Y-61122569D01*
X133122569Y-61413720D01*
X132965000Y-61794126D01*
X132965000Y-62205874D01*
X133122569Y-62586280D01*
X133413720Y-62877431D01*
X133794126Y-63035000D01*
X134205874Y-63035000D01*
X134586280Y-62877431D01*
X134619205Y-62844506D01*
X171615000Y-62844506D01*
X171615000Y-63395494D01*
X171825853Y-63904540D01*
X172215460Y-64294147D01*
X172724506Y-64505000D01*
X173275494Y-64505000D01*
X173784540Y-64294147D01*
X174174147Y-63904540D01*
X174385000Y-63395494D01*
X174385000Y-62844506D01*
X174174147Y-62335460D01*
X173784540Y-61945853D01*
X173275494Y-61735000D01*
X172724506Y-61735000D01*
X172215460Y-61945853D01*
X171825853Y-62335460D01*
X171615000Y-62844506D01*
X134619205Y-62844506D01*
X134877431Y-62586280D01*
X135035000Y-62205874D01*
X135035000Y-62039801D01*
X142064802Y-55010000D01*
X145502560Y-55010000D01*
X145502560Y-55100000D01*
X145551843Y-55347765D01*
X145692191Y-55557809D01*
X145902235Y-55698157D01*
X146150000Y-55747440D01*
X147850000Y-55747440D01*
X148097765Y-55698157D01*
X148307809Y-55557809D01*
X148448157Y-55347765D01*
X148457184Y-55302381D01*
X148469375Y-55320625D01*
X148960582Y-55648839D01*
X149393744Y-55735000D01*
X149686256Y-55735000D01*
X150119418Y-55648839D01*
X150610625Y-55320625D01*
X150810000Y-55022239D01*
X151009375Y-55320625D01*
X151500582Y-55648839D01*
X151933744Y-55735000D01*
X152226256Y-55735000D01*
X152659418Y-55648839D01*
X153150625Y-55320625D01*
X153350000Y-55022239D01*
X153549375Y-55320625D01*
X154040582Y-55648839D01*
X154473744Y-55735000D01*
X154766256Y-55735000D01*
X155199418Y-55648839D01*
X155690625Y-55320625D01*
X155890000Y-55022239D01*
X156089375Y-55320625D01*
X156580582Y-55648839D01*
X157013744Y-55735000D01*
X157306256Y-55735000D01*
X157739418Y-55648839D01*
X158230625Y-55320625D01*
X158430000Y-55022239D01*
X158629375Y-55320625D01*
X159120582Y-55648839D01*
X159553744Y-55735000D01*
X159846256Y-55735000D01*
X160279418Y-55648839D01*
X160770625Y-55320625D01*
X160970000Y-55022239D01*
X161169375Y-55320625D01*
X161660582Y-55648839D01*
X162093744Y-55735000D01*
X162386256Y-55735000D01*
X162819418Y-55648839D01*
X163310625Y-55320625D01*
X163510000Y-55022239D01*
X163709375Y-55320625D01*
X164200582Y-55648839D01*
X164633744Y-55735000D01*
X164926256Y-55735000D01*
X165359418Y-55648839D01*
X165850625Y-55320625D01*
X166050000Y-55022239D01*
X166249375Y-55320625D01*
X166740582Y-55648839D01*
X167173744Y-55735000D01*
X167466256Y-55735000D01*
X167899418Y-55648839D01*
X168390625Y-55320625D01*
X168590000Y-55022239D01*
X168789375Y-55320625D01*
X169280582Y-55648839D01*
X169713744Y-55735000D01*
X170006256Y-55735000D01*
X170439418Y-55648839D01*
X170930625Y-55320625D01*
X171130000Y-55022239D01*
X171329375Y-55320625D01*
X171820582Y-55648839D01*
X172253744Y-55735000D01*
X172546256Y-55735000D01*
X172979418Y-55648839D01*
X173470625Y-55320625D01*
X173670000Y-55022239D01*
X173869375Y-55320625D01*
X174360582Y-55648839D01*
X174793744Y-55735000D01*
X175086256Y-55735000D01*
X175519418Y-55648839D01*
X176010625Y-55320625D01*
X176210000Y-55022239D01*
X176409375Y-55320625D01*
X176900582Y-55648839D01*
X177333744Y-55735000D01*
X177626256Y-55735000D01*
X178059418Y-55648839D01*
X178550625Y-55320625D01*
X178750000Y-55022239D01*
X178949375Y-55320625D01*
X179440582Y-55648839D01*
X179873744Y-55735000D01*
X180166256Y-55735000D01*
X180599418Y-55648839D01*
X181090625Y-55320625D01*
X181290000Y-55022239D01*
X181489375Y-55320625D01*
X181980582Y-55648839D01*
X182413744Y-55735000D01*
X182706256Y-55735000D01*
X183139418Y-55648839D01*
X183630625Y-55320625D01*
X183830000Y-55022239D01*
X184029375Y-55320625D01*
X184520582Y-55648839D01*
X184953744Y-55735000D01*
X185246256Y-55735000D01*
X185679418Y-55648839D01*
X186170625Y-55320625D01*
X186370000Y-55022239D01*
X186569375Y-55320625D01*
X187060582Y-55648839D01*
X187493744Y-55735000D01*
X187786256Y-55735000D01*
X188219418Y-55648839D01*
X188710625Y-55320625D01*
X188910000Y-55022239D01*
X189109375Y-55320625D01*
X189600582Y-55648839D01*
X190033744Y-55735000D01*
X190326256Y-55735000D01*
X190759418Y-55648839D01*
X191250625Y-55320625D01*
X191450000Y-55022239D01*
X191649375Y-55320625D01*
X192140582Y-55648839D01*
X192573744Y-55735000D01*
X192866256Y-55735000D01*
X193299418Y-55648839D01*
X193790625Y-55320625D01*
X194003843Y-55001522D01*
X194064817Y-55131358D01*
X194493076Y-55521645D01*
X194903110Y-55691476D01*
X195133000Y-55570155D01*
X195133000Y-54377000D01*
X195387000Y-54377000D01*
X195387000Y-55570155D01*
X195616890Y-55691476D01*
X196026924Y-55521645D01*
X196455183Y-55131358D01*
X196701486Y-54606892D01*
X196580819Y-54377000D01*
X195387000Y-54377000D01*
X195133000Y-54377000D01*
X195113000Y-54377000D01*
X195113000Y-54123000D01*
X195133000Y-54123000D01*
X195133000Y-54103000D01*
X195387000Y-54103000D01*
X195387000Y-54123000D01*
X196580819Y-54123000D01*
X196701486Y-53893108D01*
X196455183Y-53368642D01*
X196030214Y-52981353D01*
X196330625Y-52780625D01*
X196658839Y-52289418D01*
X196774092Y-51710000D01*
X196658839Y-51130582D01*
X196656446Y-51127000D01*
X198873000Y-51127000D01*
X198873000Y-123873000D01*
X182842674Y-123873000D01*
X183038839Y-123579418D01*
X183154092Y-123000000D01*
X183038839Y-122420582D01*
X182710625Y-121929375D01*
X182410214Y-121728647D01*
X182835183Y-121341358D01*
X183081486Y-120816892D01*
X182960819Y-120587000D01*
X181767000Y-120587000D01*
X181767000Y-120607000D01*
X181513000Y-120607000D01*
X181513000Y-120587000D01*
X181493000Y-120587000D01*
X181493000Y-120333000D01*
X181513000Y-120333000D01*
X181513000Y-119139845D01*
X181767000Y-119139845D01*
X181767000Y-120333000D01*
X182960819Y-120333000D01*
X183081486Y-120103108D01*
X182835183Y-119578642D01*
X182406924Y-119188355D01*
X181996890Y-119018524D01*
X181767000Y-119139845D01*
X181513000Y-119139845D01*
X181283110Y-119018524D01*
X180873076Y-119188355D01*
X180444817Y-119578642D01*
X180383843Y-119708478D01*
X180170625Y-119389375D01*
X179679418Y-119061161D01*
X179246256Y-118975000D01*
X178953744Y-118975000D01*
X178520582Y-119061161D01*
X178029375Y-119389375D01*
X177830000Y-119687761D01*
X177630625Y-119389375D01*
X177139418Y-119061161D01*
X176706256Y-118975000D01*
X176413744Y-118975000D01*
X175980582Y-119061161D01*
X175489375Y-119389375D01*
X175290000Y-119687761D01*
X175090625Y-119389375D01*
X174599418Y-119061161D01*
X174166256Y-118975000D01*
X173873744Y-118975000D01*
X173440582Y-119061161D01*
X172949375Y-119389375D01*
X172750000Y-119687761D01*
X172550625Y-119389375D01*
X172059418Y-119061161D01*
X171626256Y-118975000D01*
X171333744Y-118975000D01*
X170900582Y-119061161D01*
X170875001Y-119078254D01*
X170875001Y-116339849D01*
X170889889Y-116265001D01*
X170875001Y-116190153D01*
X170875001Y-116190149D01*
X170830905Y-115968464D01*
X170662930Y-115717072D01*
X170599474Y-115674672D01*
X170435370Y-115510568D01*
X170497765Y-115498157D01*
X170707809Y-115357809D01*
X170848157Y-115147765D01*
X170897440Y-114900000D01*
X170897440Y-113835022D01*
X191604584Y-113835022D01*
X191825353Y-114205743D01*
X192797012Y-114599119D01*
X193845247Y-114590713D01*
X194774647Y-114205743D01*
X194995416Y-113835022D01*
X193300000Y-112139605D01*
X191604584Y-113835022D01*
X170897440Y-113835022D01*
X170897440Y-113100000D01*
X170848157Y-112852235D01*
X170707809Y-112642191D01*
X170497765Y-112501843D01*
X170250000Y-112452560D01*
X167750000Y-112452560D01*
X167502235Y-112501843D01*
X167292191Y-112642191D01*
X167151843Y-112852235D01*
X167102560Y-113100000D01*
X167102560Y-114900000D01*
X167151843Y-115147765D01*
X167292191Y-115357809D01*
X167502235Y-115498157D01*
X167750000Y-115547440D01*
X168351518Y-115547440D01*
X168452071Y-115697929D01*
X168515530Y-115740331D01*
X169355002Y-116579804D01*
X169355002Y-119028457D01*
X169086256Y-118975000D01*
X168793744Y-118975000D01*
X168573255Y-119018858D01*
X168386538Y-118894097D01*
X168195996Y-118856196D01*
X164887240Y-115547440D01*
X166250000Y-115547440D01*
X166497765Y-115498157D01*
X166707809Y-115357809D01*
X166848157Y-115147765D01*
X166897440Y-114900000D01*
X166897440Y-113100000D01*
X166848157Y-112852235D01*
X166707809Y-112642191D01*
X166497765Y-112501843D01*
X166250000Y-112452560D01*
X164177363Y-112452560D01*
X153010552Y-101285750D01*
X154865000Y-101285750D01*
X154865000Y-101626309D01*
X154961673Y-101859698D01*
X155140301Y-102038327D01*
X155373690Y-102135000D01*
X155714250Y-102135000D01*
X155873000Y-101976250D01*
X155873000Y-101127000D01*
X156127000Y-101127000D01*
X156127000Y-101976250D01*
X156285750Y-102135000D01*
X156626310Y-102135000D01*
X156859699Y-102038327D01*
X157038327Y-101859698D01*
X157135000Y-101626309D01*
X157135000Y-101285750D01*
X156976250Y-101127000D01*
X156127000Y-101127000D01*
X155873000Y-101127000D01*
X155023750Y-101127000D01*
X154865000Y-101285750D01*
X153010552Y-101285750D01*
X152098493Y-100373691D01*
X154865000Y-100373691D01*
X154865000Y-100714250D01*
X155023750Y-100873000D01*
X155873000Y-100873000D01*
X155873000Y-100023750D01*
X156127000Y-100023750D01*
X156127000Y-100873000D01*
X156976250Y-100873000D01*
X157001819Y-100847431D01*
X157044234Y-100865000D01*
X157405000Y-100865000D01*
X157405000Y-101225766D01*
X157577793Y-101642926D01*
X157897074Y-101962207D01*
X158314234Y-102135000D01*
X158765766Y-102135000D01*
X159182926Y-101962207D01*
X159502207Y-101642926D01*
X159675000Y-101225766D01*
X159675000Y-100774234D01*
X159502207Y-100357074D01*
X159182926Y-100037793D01*
X158765766Y-99865000D01*
X158405000Y-99865000D01*
X158405000Y-99504234D01*
X158232207Y-99087074D01*
X157912926Y-98767793D01*
X157495766Y-98595000D01*
X157044234Y-98595000D01*
X156627074Y-98767793D01*
X156307793Y-99087074D01*
X156135000Y-99504234D01*
X156135000Y-99955766D01*
X156152569Y-99998181D01*
X156127000Y-100023750D01*
X155873000Y-100023750D01*
X155714250Y-99865000D01*
X155373690Y-99865000D01*
X155140301Y-99961673D01*
X154961673Y-100140302D01*
X154865000Y-100373691D01*
X152098493Y-100373691D01*
X145010552Y-93285750D01*
X154865000Y-93285750D01*
X154865000Y-93626309D01*
X154961673Y-93859698D01*
X155140301Y-94038327D01*
X155373690Y-94135000D01*
X155714250Y-94135000D01*
X155873000Y-93976250D01*
X155873000Y-93127000D01*
X156127000Y-93127000D01*
X156127000Y-93976250D01*
X156285750Y-94135000D01*
X156626310Y-94135000D01*
X156859699Y-94038327D01*
X157038327Y-93859698D01*
X157135000Y-93626309D01*
X157135000Y-93285750D01*
X156976250Y-93127000D01*
X156127000Y-93127000D01*
X155873000Y-93127000D01*
X155023750Y-93127000D01*
X154865000Y-93285750D01*
X145010552Y-93285750D01*
X144360000Y-92635199D01*
X144360000Y-92373691D01*
X154865000Y-92373691D01*
X154865000Y-92714250D01*
X155023750Y-92873000D01*
X155873000Y-92873000D01*
X155873000Y-92023750D01*
X156127000Y-92023750D01*
X156127000Y-92873000D01*
X156976250Y-92873000D01*
X157001819Y-92847431D01*
X157044234Y-92865000D01*
X157405000Y-92865000D01*
X157405000Y-93225766D01*
X157577793Y-93642926D01*
X157897074Y-93962207D01*
X158314234Y-94135000D01*
X158765766Y-94135000D01*
X159182926Y-93962207D01*
X159502207Y-93642926D01*
X159675000Y-93225766D01*
X159675000Y-92774234D01*
X159502207Y-92357074D01*
X159182926Y-92037793D01*
X158765766Y-91865000D01*
X158405000Y-91865000D01*
X158405000Y-91504234D01*
X158232207Y-91087074D01*
X157912926Y-90767793D01*
X157495766Y-90595000D01*
X157044234Y-90595000D01*
X156627074Y-90767793D01*
X156307793Y-91087074D01*
X156135000Y-91504234D01*
X156135000Y-91955766D01*
X156152569Y-91998181D01*
X156127000Y-92023750D01*
X155873000Y-92023750D01*
X155714250Y-91865000D01*
X155373690Y-91865000D01*
X155140301Y-91961673D01*
X154961673Y-92140302D01*
X154865000Y-92373691D01*
X144360000Y-92373691D01*
X144360000Y-87838043D01*
X144634577Y-87654577D01*
X144890947Y-87270892D01*
X144987611Y-87475134D01*
X145402577Y-87851041D01*
X145790961Y-88011904D01*
X146013000Y-87889915D01*
X146013000Y-86747000D01*
X145993000Y-86747000D01*
X145993000Y-86493000D01*
X146013000Y-86493000D01*
X146013000Y-85350085D01*
X145790961Y-85228096D01*
X145402577Y-85388959D01*
X144987611Y-85764866D01*
X144890947Y-85969108D01*
X144634577Y-85585423D01*
X144159909Y-85268260D01*
X143741333Y-85185000D01*
X143458667Y-85185000D01*
X143040091Y-85268260D01*
X142565423Y-85585423D01*
X142330000Y-85937758D01*
X142094577Y-85585423D01*
X141619909Y-85268260D01*
X141201333Y-85185000D01*
X140918667Y-85185000D01*
X140500091Y-85268260D01*
X140025423Y-85585423D01*
X139790000Y-85937758D01*
X139554577Y-85585423D01*
X139079909Y-85268260D01*
X138661333Y-85185000D01*
X138489801Y-85185000D01*
X140419472Y-83255330D01*
X140482928Y-83212930D01*
X140587851Y-83055902D01*
X140650903Y-82961539D01*
X140678167Y-82824471D01*
X140694999Y-82739853D01*
X140694999Y-82739849D01*
X140709887Y-82665001D01*
X140694999Y-82590153D01*
X140694999Y-80390510D01*
X140918667Y-80435000D01*
X141201333Y-80435000D01*
X141383887Y-80398688D01*
X146311071Y-85325872D01*
X146267000Y-85350085D01*
X146267000Y-86493000D01*
X146287000Y-86493000D01*
X146287000Y-86747000D01*
X146267000Y-86747000D01*
X146267000Y-87889915D01*
X146489039Y-88011904D01*
X146505001Y-88005293D01*
X146505001Y-88190154D01*
X146490113Y-88265001D01*
X146505001Y-88339848D01*
X146505001Y-88339852D01*
X146549097Y-88561537D01*
X146717072Y-88812930D01*
X146780531Y-88855332D01*
X147965000Y-90039802D01*
X147965000Y-90205874D01*
X148122569Y-90586280D01*
X148413720Y-90877431D01*
X148794126Y-91035000D01*
X149205874Y-91035000D01*
X149586280Y-90877431D01*
X149877431Y-90586280D01*
X150035000Y-90205874D01*
X150035000Y-89794126D01*
X149877431Y-89413720D01*
X149586280Y-89122569D01*
X149205874Y-88965000D01*
X149039802Y-88965000D01*
X148025001Y-87950200D01*
X148025001Y-87908203D01*
X148120091Y-87971740D01*
X148538667Y-88055000D01*
X148821333Y-88055000D01*
X149239909Y-87971740D01*
X149714577Y-87654577D01*
X149950000Y-87302242D01*
X150185423Y-87654577D01*
X150660091Y-87971740D01*
X151078667Y-88055000D01*
X151361333Y-88055000D01*
X151779909Y-87971740D01*
X152254577Y-87654577D01*
X152490000Y-87302242D01*
X152725423Y-87654577D01*
X153200091Y-87971740D01*
X153618667Y-88055000D01*
X153901333Y-88055000D01*
X154319909Y-87971740D01*
X154794577Y-87654577D01*
X155030000Y-87302242D01*
X155265423Y-87654577D01*
X155740091Y-87971740D01*
X156158667Y-88055000D01*
X156441333Y-88055000D01*
X156859909Y-87971740D01*
X157334577Y-87654577D01*
X157570000Y-87302242D01*
X157805423Y-87654577D01*
X158280091Y-87971740D01*
X158698667Y-88055000D01*
X158981333Y-88055000D01*
X159399909Y-87971740D01*
X159874577Y-87654577D01*
X160110000Y-87302242D01*
X160345423Y-87654577D01*
X160820091Y-87971740D01*
X161238667Y-88055000D01*
X161521333Y-88055000D01*
X161939909Y-87971740D01*
X162414577Y-87654577D01*
X162650000Y-87302242D01*
X162885423Y-87654577D01*
X163360091Y-87971740D01*
X163778667Y-88055000D01*
X164061333Y-88055000D01*
X164479909Y-87971740D01*
X164954577Y-87654577D01*
X165190000Y-87302242D01*
X165425423Y-87654577D01*
X165900091Y-87971740D01*
X166318667Y-88055000D01*
X166601333Y-88055000D01*
X167019909Y-87971740D01*
X167494577Y-87654577D01*
X167730000Y-87302242D01*
X167965423Y-87654577D01*
X168440091Y-87971740D01*
X168858667Y-88055000D01*
X169141333Y-88055000D01*
X169559909Y-87971740D01*
X170034577Y-87654577D01*
X170351740Y-87179909D01*
X170463113Y-86620000D01*
X170351740Y-86060091D01*
X170034577Y-85585423D01*
X169559909Y-85268260D01*
X169141333Y-85185000D01*
X168858667Y-85185000D01*
X168440091Y-85268260D01*
X167965423Y-85585423D01*
X167730000Y-85937758D01*
X167494577Y-85585423D01*
X167019909Y-85268260D01*
X166601333Y-85185000D01*
X166318667Y-85185000D01*
X165900091Y-85268260D01*
X165425423Y-85585423D01*
X165190000Y-85937758D01*
X164954577Y-85585423D01*
X164479909Y-85268260D01*
X164061333Y-85185000D01*
X163778667Y-85185000D01*
X163360091Y-85268260D01*
X162885423Y-85585423D01*
X162650000Y-85937758D01*
X162414577Y-85585423D01*
X161939909Y-85268260D01*
X161521333Y-85185000D01*
X161238667Y-85185000D01*
X160820091Y-85268260D01*
X160345423Y-85585423D01*
X160110000Y-85937758D01*
X159874577Y-85585423D01*
X159399909Y-85268260D01*
X158981333Y-85185000D01*
X158698667Y-85185000D01*
X158280091Y-85268260D01*
X157805423Y-85585423D01*
X157570000Y-85937758D01*
X157334577Y-85585423D01*
X156859909Y-85268260D01*
X156441333Y-85185000D01*
X156158667Y-85185000D01*
X155740091Y-85268260D01*
X155265423Y-85585423D01*
X155030000Y-85937758D01*
X154794577Y-85585423D01*
X154319909Y-85268260D01*
X153901333Y-85185000D01*
X153618667Y-85185000D01*
X153200091Y-85268260D01*
X152725423Y-85585423D01*
X152490000Y-85937758D01*
X152254577Y-85585423D01*
X151779909Y-85268260D01*
X151361333Y-85185000D01*
X151078667Y-85185000D01*
X150660091Y-85268260D01*
X150185423Y-85585423D01*
X149950000Y-85937758D01*
X149714577Y-85585423D01*
X149440000Y-85401957D01*
X149440000Y-84394801D01*
X153436114Y-80398688D01*
X153618667Y-80435000D01*
X153901333Y-80435000D01*
X154319909Y-80351740D01*
X154794577Y-80034577D01*
X154978043Y-79760000D01*
X155081957Y-79760000D01*
X155265423Y-80034577D01*
X155740091Y-80351740D01*
X156158667Y-80435000D01*
X156441333Y-80435000D01*
X156859909Y-80351740D01*
X157334577Y-80034577D01*
X157518043Y-79760000D01*
X157621957Y-79760000D01*
X157805423Y-80034577D01*
X158280091Y-80351740D01*
X158698667Y-80435000D01*
X158981333Y-80435000D01*
X159163886Y-80398688D01*
X159374671Y-80609473D01*
X159417072Y-80672930D01*
X159480528Y-80715330D01*
X159668463Y-80840905D01*
X159716606Y-80850481D01*
X159890149Y-80885001D01*
X159890153Y-80885001D01*
X159965001Y-80899889D01*
X160039849Y-80885001D01*
X168760200Y-80885001D01*
X172439670Y-84564472D01*
X172482071Y-84627929D01*
X172545527Y-84670329D01*
X172733462Y-84795904D01*
X172781605Y-84805480D01*
X172955148Y-84840000D01*
X172955152Y-84840000D01*
X173030000Y-84854888D01*
X173104848Y-84840000D01*
X178781957Y-84840000D01*
X178965423Y-85114577D01*
X179317758Y-85350000D01*
X178965423Y-85585423D01*
X178648260Y-86060091D01*
X178536887Y-86620000D01*
X178648260Y-87179909D01*
X178965423Y-87654577D01*
X179319222Y-87890978D01*
X177720201Y-89490000D01*
X173829700Y-89490000D01*
X173697765Y-89401843D01*
X173450000Y-89352560D01*
X172550000Y-89352560D01*
X172302235Y-89401843D01*
X172092191Y-89542191D01*
X171951843Y-89752235D01*
X171902560Y-90000000D01*
X171902560Y-90500000D01*
X171951843Y-90747765D01*
X172092191Y-90957809D01*
X172155334Y-91000000D01*
X172092191Y-91042191D01*
X171951843Y-91252235D01*
X171902560Y-91500000D01*
X171902560Y-92000000D01*
X171947793Y-92227405D01*
X165440520Y-98734679D01*
X165377061Y-98777081D01*
X165209086Y-99028474D01*
X165164990Y-99250159D01*
X165164990Y-99250163D01*
X165150102Y-99325010D01*
X165164990Y-99399857D01*
X165164991Y-109690138D01*
X165150102Y-109764990D01*
X165164991Y-109839842D01*
X165209087Y-110061527D01*
X165377062Y-110312919D01*
X165440518Y-110355319D01*
X165602560Y-110517361D01*
X165602560Y-110990000D01*
X165651843Y-111237765D01*
X165792191Y-111447809D01*
X166002235Y-111588157D01*
X166250000Y-111637440D01*
X167750000Y-111637440D01*
X167997765Y-111588157D01*
X168207809Y-111447809D01*
X168348157Y-111237765D01*
X168397440Y-110990000D01*
X168397440Y-110090000D01*
X168385505Y-110030000D01*
X172440155Y-110030000D01*
X172515002Y-110044888D01*
X172589849Y-110030000D01*
X172589854Y-110030000D01*
X172811539Y-109985904D01*
X173062931Y-109817929D01*
X173105333Y-109754470D01*
X174484476Y-108375329D01*
X174547929Y-108332931D01*
X174590327Y-108269478D01*
X174590329Y-108269476D01*
X174708198Y-108093072D01*
X174715904Y-108081539D01*
X174760000Y-107859854D01*
X174760000Y-107859850D01*
X174774888Y-107785003D01*
X174760000Y-107710156D01*
X174760000Y-106874848D01*
X174774888Y-106800000D01*
X174760000Y-106725152D01*
X174760000Y-106725148D01*
X174715904Y-106503463D01*
X174715904Y-106503462D01*
X174590329Y-106315527D01*
X174547929Y-106252071D01*
X174484473Y-106209671D01*
X174274802Y-106000000D01*
X174514802Y-105760000D01*
X176452560Y-105760000D01*
X176452560Y-108250000D01*
X176501843Y-108497765D01*
X176642191Y-108707809D01*
X176852235Y-108848157D01*
X177100000Y-108897440D01*
X178900000Y-108897440D01*
X179147765Y-108848157D01*
X179357809Y-108707809D01*
X179498157Y-108497765D01*
X179547440Y-108250000D01*
X179547440Y-107760000D01*
X182145199Y-107760000D01*
X183865000Y-109479803D01*
X183865000Y-109765766D01*
X184037793Y-110182926D01*
X184094867Y-110240000D01*
X179547440Y-110240000D01*
X179547440Y-109750000D01*
X179498157Y-109502235D01*
X179357809Y-109292191D01*
X179147765Y-109151843D01*
X178900000Y-109102560D01*
X177100000Y-109102560D01*
X176852235Y-109151843D01*
X176642191Y-109292191D01*
X176501843Y-109502235D01*
X176452560Y-109750000D01*
X176452560Y-112250000D01*
X176501843Y-112497765D01*
X176642191Y-112707809D01*
X176852235Y-112848157D01*
X177100000Y-112897440D01*
X178900000Y-112897440D01*
X179147765Y-112848157D01*
X179357809Y-112707809D01*
X179498157Y-112497765D01*
X179547440Y-112250000D01*
X179547440Y-111760000D01*
X190663311Y-111760000D01*
X190669287Y-112505247D01*
X191054257Y-113434647D01*
X191424978Y-113655416D01*
X193120395Y-111960000D01*
X193479605Y-111960000D01*
X195175022Y-113655416D01*
X195545743Y-113434647D01*
X195939119Y-112462988D01*
X195930713Y-111414753D01*
X195545743Y-110485353D01*
X195175022Y-110264584D01*
X193479605Y-111960000D01*
X193120395Y-111960000D01*
X193106253Y-111945858D01*
X193285858Y-111766253D01*
X193300000Y-111780395D01*
X194995416Y-110084978D01*
X194774647Y-109714257D01*
X193802988Y-109320881D01*
X193571058Y-109322741D01*
X197449474Y-105444326D01*
X197512930Y-105401926D01*
X197586253Y-105292191D01*
X197680905Y-105150535D01*
X197690481Y-105102392D01*
X197725001Y-104928849D01*
X197725001Y-104928845D01*
X197739889Y-104853997D01*
X197725001Y-104779149D01*
X197725001Y-102044847D01*
X197739889Y-101970000D01*
X197725001Y-101895153D01*
X197725001Y-101895149D01*
X197680905Y-101673464D01*
X197512930Y-101422072D01*
X197449471Y-101379670D01*
X197253103Y-101183302D01*
X197275000Y-101130439D01*
X197275000Y-100559561D01*
X197056534Y-100032138D01*
X196652862Y-99628466D01*
X196246150Y-99460000D01*
X196652862Y-99291534D01*
X197056534Y-98887862D01*
X197275000Y-98360439D01*
X197275000Y-97789561D01*
X197056534Y-97262138D01*
X196652862Y-96858466D01*
X196246150Y-96690000D01*
X196652862Y-96521534D01*
X197056534Y-96117862D01*
X197275000Y-95590439D01*
X197275000Y-95019561D01*
X197056534Y-94492138D01*
X196652862Y-94088466D01*
X196125439Y-93870000D01*
X195554561Y-93870000D01*
X195027138Y-94088466D01*
X194640321Y-94475283D01*
X194609474Y-94454672D01*
X194413104Y-94258302D01*
X194435000Y-94205439D01*
X194435000Y-93634561D01*
X194216534Y-93107138D01*
X193812862Y-92703466D01*
X193285439Y-92485000D01*
X192714561Y-92485000D01*
X192187138Y-92703466D01*
X191783466Y-93107138D01*
X191565000Y-93634561D01*
X191565000Y-94205439D01*
X191783466Y-94732862D01*
X192187138Y-95136534D01*
X192593850Y-95305000D01*
X192187138Y-95473466D01*
X191783466Y-95877138D01*
X191565000Y-96404561D01*
X191565000Y-96950199D01*
X190760000Y-96145199D01*
X190760000Y-88835022D01*
X191604584Y-88835022D01*
X191825353Y-89205743D01*
X192797012Y-89599119D01*
X193845247Y-89590713D01*
X194774647Y-89205743D01*
X194995416Y-88835022D01*
X193300000Y-87139605D01*
X191604584Y-88835022D01*
X190760000Y-88835022D01*
X190760000Y-87724248D01*
X191054257Y-88434647D01*
X191424978Y-88655416D01*
X193120395Y-86960000D01*
X193479605Y-86960000D01*
X195175022Y-88655416D01*
X195545743Y-88434647D01*
X195939119Y-87462988D01*
X195930713Y-86414753D01*
X195545743Y-85485353D01*
X195175022Y-85264584D01*
X193479605Y-86960000D01*
X193120395Y-86960000D01*
X191424978Y-85264584D01*
X191054257Y-85485353D01*
X190760000Y-86212183D01*
X190760000Y-85084978D01*
X191604584Y-85084978D01*
X193300000Y-86780395D01*
X194995416Y-85084978D01*
X194774647Y-84714257D01*
X193802988Y-84320881D01*
X192754753Y-84329287D01*
X191825353Y-84714257D01*
X191604584Y-85084978D01*
X190760000Y-85084978D01*
X190760000Y-83994848D01*
X190774888Y-83920000D01*
X190760000Y-83845152D01*
X190760000Y-83845148D01*
X190715904Y-83623463D01*
X190715904Y-83623462D01*
X190590329Y-83435527D01*
X190547929Y-83372071D01*
X190484473Y-83329671D01*
X189018688Y-81863887D01*
X189083113Y-81540000D01*
X188971740Y-80980091D01*
X188654577Y-80505423D01*
X188302242Y-80270000D01*
X188654577Y-80034577D01*
X188971740Y-79559909D01*
X189083113Y-79000000D01*
X188971740Y-78440091D01*
X188654577Y-77965423D01*
X188179909Y-77648260D01*
X187761333Y-77565000D01*
X187478667Y-77565000D01*
X187060091Y-77648260D01*
X186585423Y-77965423D01*
X186268260Y-78440091D01*
X186156887Y-79000000D01*
X186268260Y-79559909D01*
X186585423Y-80034577D01*
X186937758Y-80270000D01*
X186585423Y-80505423D01*
X186268260Y-80980091D01*
X186156887Y-81540000D01*
X186229413Y-81904611D01*
X177840331Y-73515530D01*
X177797929Y-73452071D01*
X177601908Y-73321094D01*
X177598157Y-73302235D01*
X177457809Y-73092191D01*
X177247765Y-72951843D01*
X177000000Y-72902560D01*
X176500000Y-72902560D01*
X176252235Y-72951843D01*
X176042191Y-73092191D01*
X176000000Y-73155334D01*
X175957809Y-73092191D01*
X175747765Y-72951843D01*
X175500000Y-72902560D01*
X175000000Y-72902560D01*
X174752235Y-72951843D01*
X174542191Y-73092191D01*
X174443427Y-73240000D01*
X166454848Y-73240000D01*
X166380000Y-73225112D01*
X166305152Y-73240000D01*
X166305148Y-73240000D01*
X166131605Y-73274520D01*
X166083462Y-73284096D01*
X165896418Y-73409076D01*
X165832071Y-73452071D01*
X165789671Y-73515527D01*
X161703887Y-77601312D01*
X161521333Y-77565000D01*
X161238667Y-77565000D01*
X160820091Y-77648260D01*
X160345423Y-77965423D01*
X160110000Y-78317758D01*
X159874577Y-77965423D01*
X159399909Y-77648260D01*
X158981333Y-77565000D01*
X158698667Y-77565000D01*
X158280091Y-77648260D01*
X157805423Y-77965423D01*
X157621957Y-78240000D01*
X157518043Y-78240000D01*
X157334577Y-77965423D01*
X156859909Y-77648260D01*
X156441333Y-77565000D01*
X156158667Y-77565000D01*
X155740091Y-77648260D01*
X155265423Y-77965423D01*
X155081957Y-78240000D01*
X154978043Y-78240000D01*
X154794577Y-77965423D01*
X154319909Y-77648260D01*
X153901333Y-77565000D01*
X153618667Y-77565000D01*
X153436114Y-77601312D01*
X150350331Y-74515530D01*
X150307929Y-74452071D01*
X150056537Y-74284096D01*
X149834852Y-74240000D01*
X149834847Y-74240000D01*
X149760000Y-74225112D01*
X149685153Y-74240000D01*
X147556573Y-74240000D01*
X147457809Y-74092191D01*
X147247765Y-73951843D01*
X147000000Y-73902560D01*
X146500000Y-73902560D01*
X146252235Y-73951843D01*
X146042191Y-74092191D01*
X146000000Y-74155334D01*
X145957809Y-74092191D01*
X145747765Y-73951843D01*
X145500000Y-73902560D01*
X145000000Y-73902560D01*
X144752235Y-73951843D01*
X144542191Y-74092191D01*
X144443427Y-74240000D01*
X142594846Y-74240000D01*
X142519999Y-74225112D01*
X142445152Y-74240000D01*
X142445148Y-74240000D01*
X142223463Y-74284096D01*
X141972071Y-74452071D01*
X141929671Y-74515527D01*
X138843887Y-77601312D01*
X138661333Y-77565000D01*
X138378667Y-77565000D01*
X138196113Y-77601312D01*
X137985330Y-77390529D01*
X137942928Y-77327070D01*
X137691536Y-77159095D01*
X137469851Y-77114999D01*
X137469846Y-77114999D01*
X137394999Y-77100111D01*
X137320152Y-77114999D01*
X135514847Y-77114999D01*
X135439999Y-77100111D01*
X135365151Y-77114999D01*
X135365147Y-77114999D01*
X135143462Y-77159095D01*
X134892070Y-77327070D01*
X134849670Y-77390526D01*
X131740527Y-80499670D01*
X131677071Y-80542070D01*
X131634671Y-80605526D01*
X131634670Y-80605527D01*
X131509096Y-80793462D01*
X131450111Y-81089999D01*
X131465000Y-81164851D01*
X131464999Y-102911154D01*
X131450111Y-102986001D01*
X131464999Y-103060848D01*
X131464999Y-103060852D01*
X131509095Y-103282537D01*
X131677070Y-103533930D01*
X131740529Y-103576332D01*
X138473670Y-110309474D01*
X138516070Y-110372930D01*
X138767462Y-110540905D01*
X138989147Y-110585001D01*
X138989151Y-110585001D01*
X139063999Y-110599889D01*
X139138847Y-110585001D01*
X139631962Y-110585001D01*
X139767793Y-110912926D01*
X140087074Y-111232207D01*
X140504234Y-111405000D01*
X140955766Y-111405000D01*
X141372926Y-111232207D01*
X141692207Y-110912926D01*
X141865000Y-110495766D01*
X141865000Y-110147440D01*
X142500000Y-110147440D01*
X142747765Y-110098157D01*
X142957809Y-109957809D01*
X143098157Y-109747765D01*
X143147440Y-109500000D01*
X143147440Y-108500000D01*
X143098157Y-108252235D01*
X142957809Y-108042191D01*
X142747765Y-107901843D01*
X142500000Y-107852560D01*
X141800001Y-107852560D01*
X141800001Y-102120819D01*
X142182926Y-101962207D01*
X142502207Y-101642926D01*
X142593889Y-101421585D01*
X153293613Y-112121309D01*
X153135000Y-112504234D01*
X153135000Y-112955766D01*
X153152569Y-112998181D01*
X153127000Y-113023750D01*
X153127000Y-113873000D01*
X153976250Y-113873000D01*
X154001819Y-113847431D01*
X154044234Y-113865000D01*
X154405000Y-113865000D01*
X154405000Y-114225766D01*
X154577793Y-114642926D01*
X154897074Y-114962207D01*
X155314234Y-115135000D01*
X155765766Y-115135000D01*
X156182926Y-114962207D01*
X156502207Y-114642926D01*
X156675000Y-114225766D01*
X156675000Y-113774234D01*
X156502207Y-113357074D01*
X156182926Y-113037793D01*
X155765766Y-112865000D01*
X155405000Y-112865000D01*
X155405000Y-112504234D01*
X155232207Y-112087074D01*
X155014313Y-111869180D01*
X154985904Y-111726357D01*
X154817929Y-111474965D01*
X154754473Y-111432565D01*
X135587437Y-92265530D01*
X135545035Y-92202071D01*
X135293643Y-92034096D01*
X135071958Y-91990000D01*
X135071953Y-91990000D01*
X134997106Y-91975112D01*
X134922259Y-91990000D01*
X133859632Y-91990000D01*
X133907809Y-91957809D01*
X134048157Y-91747765D01*
X134097440Y-91500000D01*
X134097440Y-91000000D01*
X134048157Y-90752235D01*
X133907809Y-90542191D01*
X133760000Y-90443427D01*
X133760000Y-82294801D01*
X135656114Y-80398688D01*
X135838667Y-80435000D01*
X136121333Y-80435000D01*
X136539909Y-80351740D01*
X137014577Y-80034577D01*
X137250000Y-79682242D01*
X137485423Y-80034577D01*
X137960091Y-80351740D01*
X138378667Y-80435000D01*
X138661333Y-80435000D01*
X139079909Y-80351740D01*
X139174999Y-80288203D01*
X139175000Y-82350198D01*
X136303887Y-85221312D01*
X136121333Y-85185000D01*
X135838667Y-85185000D01*
X135420091Y-85268260D01*
X134945423Y-85585423D01*
X134628260Y-86060091D01*
X134516887Y-86620000D01*
X134628260Y-87179909D01*
X134945423Y-87654577D01*
X135420091Y-87971740D01*
X135838667Y-88055000D01*
X136121333Y-88055000D01*
X136539909Y-87971740D01*
X137014577Y-87654577D01*
X137250000Y-87302242D01*
X137485423Y-87654577D01*
X137960091Y-87971740D01*
X138378667Y-88055000D01*
X138661333Y-88055000D01*
X139079909Y-87971740D01*
X139554577Y-87654577D01*
X139790000Y-87302242D01*
X140025423Y-87654577D01*
X140300001Y-87838044D01*
X140300000Y-92720155D01*
X140285112Y-92795002D01*
X140300000Y-92869849D01*
X140300000Y-92869853D01*
X140344096Y-93091538D01*
X140512071Y-93342931D01*
X140575530Y-93385333D01*
X166179887Y-118989691D01*
X165820582Y-119061161D01*
X165329375Y-119389375D01*
X165130000Y-119687761D01*
X164930625Y-119389375D01*
X164439418Y-119061161D01*
X164006256Y-118975000D01*
X163713744Y-118975000D01*
X163280582Y-119061161D01*
X162789375Y-119389375D01*
X162590000Y-119687761D01*
X162390625Y-119389375D01*
X161899418Y-119061161D01*
X161466256Y-118975000D01*
X161173744Y-118975000D01*
X160740582Y-119061161D01*
X160249375Y-119389375D01*
X160050000Y-119687761D01*
X159850625Y-119389375D01*
X159359418Y-119061161D01*
X158926256Y-118975000D01*
X158633744Y-118975000D01*
X158200582Y-119061161D01*
X157709375Y-119389375D01*
X157510000Y-119687761D01*
X157310625Y-119389375D01*
X156819418Y-119061161D01*
X156386256Y-118975000D01*
X156093744Y-118975000D01*
X155660582Y-119061161D01*
X155169375Y-119389375D01*
X154970000Y-119687761D01*
X154770625Y-119389375D01*
X154279418Y-119061161D01*
X153846256Y-118975000D01*
X153553744Y-118975000D01*
X153120582Y-119061161D01*
X152629375Y-119389375D01*
X152430000Y-119687761D01*
X152230625Y-119389375D01*
X151739418Y-119061161D01*
X151306256Y-118975000D01*
X151013744Y-118975000D01*
X150580582Y-119061161D01*
X150089375Y-119389375D01*
X149890000Y-119687761D01*
X149690625Y-119389375D01*
X149199418Y-119061161D01*
X148766256Y-118975000D01*
X148473744Y-118975000D01*
X148040582Y-119061161D01*
X147549375Y-119389375D01*
X147350000Y-119687761D01*
X147150625Y-119389375D01*
X146659418Y-119061161D01*
X146226256Y-118975000D01*
X145933744Y-118975000D01*
X145500582Y-119061161D01*
X145009375Y-119389375D01*
X144810000Y-119687761D01*
X144610625Y-119389375D01*
X144119418Y-119061161D01*
X143686256Y-118975000D01*
X143393744Y-118975000D01*
X142960582Y-119061161D01*
X142469375Y-119389375D01*
X142270000Y-119687761D01*
X142070625Y-119389375D01*
X141579418Y-119061161D01*
X141146256Y-118975000D01*
X140853744Y-118975000D01*
X140420582Y-119061161D01*
X139929375Y-119389375D01*
X139601161Y-119880582D01*
X139485908Y-120460000D01*
X139601161Y-121039418D01*
X139929375Y-121530625D01*
X139947619Y-121542816D01*
X139902235Y-121551843D01*
X139692191Y-121692191D01*
X139551843Y-121902235D01*
X139502560Y-122150000D01*
X139502560Y-123850000D01*
X139507135Y-123873000D01*
X126127000Y-123873000D01*
X126127000Y-114285750D01*
X151865000Y-114285750D01*
X151865000Y-114626309D01*
X151961673Y-114859698D01*
X152140301Y-115038327D01*
X152373690Y-115135000D01*
X152714250Y-115135000D01*
X152873000Y-114976250D01*
X152873000Y-114127000D01*
X153127000Y-114127000D01*
X153127000Y-114976250D01*
X153285750Y-115135000D01*
X153626310Y-115135000D01*
X153859699Y-115038327D01*
X154038327Y-114859698D01*
X154135000Y-114626309D01*
X154135000Y-114285750D01*
X153976250Y-114127000D01*
X153127000Y-114127000D01*
X152873000Y-114127000D01*
X152023750Y-114127000D01*
X151865000Y-114285750D01*
X126127000Y-114285750D01*
X126127000Y-113373691D01*
X151865000Y-113373691D01*
X151865000Y-113714250D01*
X152023750Y-113873000D01*
X152873000Y-113873000D01*
X152873000Y-113023750D01*
X152714250Y-112865000D01*
X152373690Y-112865000D01*
X152140301Y-112961673D01*
X151961673Y-113140302D01*
X151865000Y-113373691D01*
X126127000Y-113373691D01*
X126127000Y-69283750D01*
X127515000Y-69283750D01*
X127515000Y-69376310D01*
X127611673Y-69609699D01*
X127790302Y-69788327D01*
X128023691Y-69885000D01*
X128164250Y-69885000D01*
X128323000Y-69726250D01*
X128323000Y-69125000D01*
X127673750Y-69125000D01*
X127515000Y-69283750D01*
X126127000Y-69283750D01*
X126127000Y-68623690D01*
X127515000Y-68623690D01*
X127515000Y-68716250D01*
X127673750Y-68875000D01*
X128323000Y-68875000D01*
X128323000Y-68273750D01*
X128577000Y-68273750D01*
X128577000Y-68875000D01*
X128597000Y-68875000D01*
X128597000Y-69125000D01*
X128577000Y-69125000D01*
X128577000Y-69726250D01*
X128735750Y-69885000D01*
X128876309Y-69885000D01*
X128889543Y-69879518D01*
X129002071Y-70047929D01*
X129065530Y-70090331D01*
X131459671Y-72484473D01*
X131502071Y-72547929D01*
X131753463Y-72715904D01*
X131975148Y-72760000D01*
X131975153Y-72760000D01*
X132050000Y-72774888D01*
X132124847Y-72760000D01*
X136296289Y-72760000D01*
X136413720Y-72877431D01*
X136794126Y-73035000D01*
X137205874Y-73035000D01*
X137586280Y-72877431D01*
X137877431Y-72586280D01*
X138035000Y-72205874D01*
X138035000Y-71794126D01*
X137877431Y-71413720D01*
X137586280Y-71122569D01*
X137205874Y-70965000D01*
X136794126Y-70965000D01*
X136413720Y-71122569D01*
X136296289Y-71240000D01*
X132364802Y-71240000D01*
X130477093Y-69352292D01*
X130497440Y-69250000D01*
X130497440Y-68750000D01*
X130448157Y-68502235D01*
X130307809Y-68292191D01*
X130097765Y-68151843D01*
X129850000Y-68102560D01*
X129250000Y-68102560D01*
X129002235Y-68151843D01*
X128988084Y-68161299D01*
X128876309Y-68115000D01*
X128735750Y-68115000D01*
X128577000Y-68273750D01*
X128323000Y-68273750D01*
X128164250Y-68115000D01*
X128023691Y-68115000D01*
X127790302Y-68211673D01*
X127611673Y-68390301D01*
X127515000Y-68623690D01*
X126127000Y-68623690D01*
X126127000Y-67724506D01*
X171615000Y-67724506D01*
X171615000Y-68275494D01*
X171825853Y-68784540D01*
X172215460Y-69174147D01*
X172724506Y-69385000D01*
X173275494Y-69385000D01*
X173784540Y-69174147D01*
X174174147Y-68784540D01*
X174385000Y-68275494D01*
X174385000Y-67724506D01*
X174174147Y-67215460D01*
X173784540Y-66825853D01*
X173275494Y-66615000D01*
X172724506Y-66615000D01*
X172215460Y-66825853D01*
X171825853Y-67215460D01*
X171615000Y-67724506D01*
X126127000Y-67724506D01*
X126127000Y-58764868D01*
X126414737Y-58764868D01*
X126525641Y-59042099D01*
X127171593Y-59285323D01*
X127861453Y-59262836D01*
X128394359Y-59042099D01*
X128505263Y-58764868D01*
X131494737Y-58764868D01*
X131605641Y-59042099D01*
X132251593Y-59285323D01*
X132941453Y-59262836D01*
X133474359Y-59042099D01*
X133585263Y-58764868D01*
X132540000Y-57719605D01*
X131494737Y-58764868D01*
X128505263Y-58764868D01*
X127460000Y-57719605D01*
X126414737Y-58764868D01*
X126127000Y-58764868D01*
X126127000Y-58542006D01*
X126235132Y-58585263D01*
X127280395Y-57540000D01*
X127639605Y-57540000D01*
X128684868Y-58585263D01*
X128962099Y-58474359D01*
X129205323Y-57828407D01*
X129186521Y-57251593D01*
X130794677Y-57251593D01*
X130817164Y-57941453D01*
X131037901Y-58474359D01*
X131315132Y-58585263D01*
X132360395Y-57540000D01*
X132719605Y-57540000D01*
X133764868Y-58585263D01*
X134042099Y-58474359D01*
X134285323Y-57828407D01*
X134262836Y-57138547D01*
X134042099Y-56605641D01*
X133764868Y-56494737D01*
X132719605Y-57540000D01*
X132360395Y-57540000D01*
X131315132Y-56494737D01*
X131037901Y-56605641D01*
X130794677Y-57251593D01*
X129186521Y-57251593D01*
X129182836Y-57138547D01*
X128962099Y-56605641D01*
X128684868Y-56494737D01*
X127639605Y-57540000D01*
X127280395Y-57540000D01*
X126235132Y-56494737D01*
X126127000Y-56537994D01*
X126127000Y-56315132D01*
X126414737Y-56315132D01*
X127460000Y-57360395D01*
X128505263Y-56315132D01*
X128394359Y-56037901D01*
X127748407Y-55794677D01*
X127058547Y-55817164D01*
X126525641Y-56037901D01*
X126414737Y-56315132D01*
X126127000Y-56315132D01*
X126127000Y-54674778D01*
X128365000Y-54674778D01*
X128365000Y-55325222D01*
X128613914Y-55926153D01*
X129073847Y-56386086D01*
X129674778Y-56635000D01*
X130325222Y-56635000D01*
X130926153Y-56386086D01*
X130997107Y-56315132D01*
X131494737Y-56315132D01*
X132540000Y-57360395D01*
X133585263Y-56315132D01*
X133474359Y-56037901D01*
X132828407Y-55794677D01*
X132138547Y-55817164D01*
X131605641Y-56037901D01*
X131494737Y-56315132D01*
X130997107Y-56315132D01*
X131386086Y-55926153D01*
X131635000Y-55325222D01*
X131635000Y-54674778D01*
X131386086Y-54073847D01*
X130997107Y-53684868D01*
X131494737Y-53684868D01*
X131605641Y-53962099D01*
X132251593Y-54205323D01*
X132941453Y-54182836D01*
X133474359Y-53962099D01*
X133585263Y-53684868D01*
X132540000Y-52639605D01*
X131494737Y-53684868D01*
X130997107Y-53684868D01*
X130926153Y-53613914D01*
X130325222Y-53365000D01*
X129674778Y-53365000D01*
X129073847Y-53613914D01*
X128613914Y-54073847D01*
X128365000Y-54674778D01*
X126127000Y-54674778D01*
X126127000Y-53684868D01*
X126414737Y-53684868D01*
X126525641Y-53962099D01*
X127171593Y-54205323D01*
X127861453Y-54182836D01*
X128394359Y-53962099D01*
X128505263Y-53684868D01*
X127460000Y-52639605D01*
X126414737Y-53684868D01*
X126127000Y-53684868D01*
X126127000Y-53462006D01*
X126235132Y-53505263D01*
X127280395Y-52460000D01*
X127639605Y-52460000D01*
X128684868Y-53505263D01*
X128962099Y-53394359D01*
X129205323Y-52748407D01*
X129186521Y-52171593D01*
X130794677Y-52171593D01*
X130817164Y-52861453D01*
X131037901Y-53394359D01*
X131315132Y-53505263D01*
X132360395Y-52460000D01*
X132719605Y-52460000D01*
X133764868Y-53505263D01*
X134042099Y-53394359D01*
X134285323Y-52748407D01*
X134262836Y-52058547D01*
X134042099Y-51525641D01*
X133764868Y-51414737D01*
X132719605Y-52460000D01*
X132360395Y-52460000D01*
X131315132Y-51414737D01*
X131037901Y-51525641D01*
X130794677Y-52171593D01*
X129186521Y-52171593D01*
X129182836Y-52058547D01*
X128962099Y-51525641D01*
X128684868Y-51414737D01*
X127639605Y-52460000D01*
X127280395Y-52460000D01*
X126235132Y-51414737D01*
X126127000Y-51457994D01*
X126127000Y-51127000D01*
X126457994Y-51127000D01*
X126414737Y-51235132D01*
G36*
X187060091Y-87971740D02*
X187478667Y-88055000D01*
X187761333Y-88055000D01*
X187985002Y-88010509D01*
X187985001Y-96795156D01*
X187970113Y-96870003D01*
X187985001Y-96944850D01*
X187985001Y-96944854D01*
X188029097Y-97166539D01*
X188197072Y-97417932D01*
X188260531Y-97460334D01*
X191869670Y-101069474D01*
X191912070Y-101132930D01*
X192163462Y-101300905D01*
X192272125Y-101322520D01*
X193000000Y-102050395D01*
X193727875Y-101322520D01*
X193836538Y-101300905D01*
X194087930Y-101132930D01*
X194130332Y-101069471D01*
X194405000Y-100794804D01*
X194405000Y-101130439D01*
X194623466Y-101657862D01*
X195027138Y-102061534D01*
X195433850Y-102230000D01*
X195027138Y-102398466D01*
X194623466Y-102802138D01*
X194405000Y-103329561D01*
X194405000Y-103900439D01*
X194623466Y-104427862D01*
X195027138Y-104831534D01*
X195554561Y-105050000D01*
X195694196Y-105050000D01*
X190504197Y-110240000D01*
X185905133Y-110240000D01*
X185962207Y-110182926D01*
X186135000Y-109765766D01*
X186135000Y-109405000D01*
X186495766Y-109405000D01*
X186912926Y-109232207D01*
X187232207Y-108912926D01*
X187405000Y-108495766D01*
X187405000Y-108044234D01*
X187232207Y-107627074D01*
X187030000Y-107424867D01*
X187030000Y-106759844D01*
X187044888Y-106684997D01*
X187030000Y-106610150D01*
X187030000Y-106610146D01*
X186985904Y-106388461D01*
X186916170Y-106284097D01*
X186860329Y-106200524D01*
X186860327Y-106200522D01*
X186817929Y-106137069D01*
X186754476Y-106094671D01*
X185945555Y-105285750D01*
X191565000Y-105285750D01*
X191565000Y-105926309D01*
X191661673Y-106159698D01*
X191840301Y-106338327D01*
X192073690Y-106435000D01*
X192714250Y-106435000D01*
X192873000Y-106276250D01*
X192873000Y-105127000D01*
X193127000Y-105127000D01*
X193127000Y-106276250D01*
X193285750Y-106435000D01*
X193926310Y-106435000D01*
X194159699Y-106338327D01*
X194338327Y-106159698D01*
X194435000Y-105926309D01*
X194435000Y-105285750D01*
X194276250Y-105127000D01*
X193127000Y-105127000D01*
X192873000Y-105127000D01*
X191723750Y-105127000D01*
X191565000Y-105285750D01*
X185945555Y-105285750D01*
X184733496Y-104073691D01*
X191565000Y-104073691D01*
X191565000Y-104714250D01*
X191723750Y-104873000D01*
X192873000Y-104873000D01*
X192873000Y-104853000D01*
X193127000Y-104853000D01*
X193127000Y-104873000D01*
X194276250Y-104873000D01*
X194435000Y-104714250D01*
X194435000Y-104073691D01*
X194338327Y-103840302D01*
X194159699Y-103661673D01*
X193926310Y-103565000D01*
X193558126Y-103565000D01*
X193754005Y-103483864D01*
X193828139Y-103237745D01*
X193000000Y-102409605D01*
X192171861Y-103237745D01*
X192245995Y-103483864D01*
X192471724Y-103565000D01*
X192073690Y-103565000D01*
X191840301Y-103661673D01*
X191661673Y-103840302D01*
X191565000Y-104073691D01*
X184733496Y-104073691D01*
X183270334Y-102610531D01*
X183227932Y-102547072D01*
X183158874Y-102500929D01*
X183646580Y-102013223D01*
X191553035Y-102013223D01*
X191580222Y-102583454D01*
X191746136Y-102984005D01*
X191992255Y-103058139D01*
X192820395Y-102230000D01*
X193179605Y-102230000D01*
X194007745Y-103058139D01*
X194253864Y-102984005D01*
X194446965Y-102446777D01*
X194419778Y-101876546D01*
X194253864Y-101475995D01*
X194007745Y-101401861D01*
X193179605Y-102230000D01*
X192820395Y-102230000D01*
X191992255Y-101401861D01*
X191746136Y-101475995D01*
X191553035Y-102013223D01*
X183646580Y-102013223D01*
X186484473Y-99175331D01*
X186547929Y-99132931D01*
X186715904Y-98881539D01*
X186760000Y-98659854D01*
X186760000Y-98659850D01*
X186774888Y-98585003D01*
X186760000Y-98510156D01*
X186760000Y-87771226D01*
X187060091Y-87971740D01*
X187060091Y-87971740D01*
G37*
X187060091Y-87971740D02*
X187478667Y-88055000D01*
X187761333Y-88055000D01*
X187985002Y-88010509D01*
X187985001Y-96795156D01*
X187970113Y-96870003D01*
X187985001Y-96944850D01*
X187985001Y-96944854D01*
X188029097Y-97166539D01*
X188197072Y-97417932D01*
X188260531Y-97460334D01*
X191869670Y-101069474D01*
X191912070Y-101132930D01*
X192163462Y-101300905D01*
X192272125Y-101322520D01*
X193000000Y-102050395D01*
X193727875Y-101322520D01*
X193836538Y-101300905D01*
X194087930Y-101132930D01*
X194130332Y-101069471D01*
X194405000Y-100794804D01*
X194405000Y-101130439D01*
X194623466Y-101657862D01*
X195027138Y-102061534D01*
X195433850Y-102230000D01*
X195027138Y-102398466D01*
X194623466Y-102802138D01*
X194405000Y-103329561D01*
X194405000Y-103900439D01*
X194623466Y-104427862D01*
X195027138Y-104831534D01*
X195554561Y-105050000D01*
X195694196Y-105050000D01*
X190504197Y-110240000D01*
X185905133Y-110240000D01*
X185962207Y-110182926D01*
X186135000Y-109765766D01*
X186135000Y-109405000D01*
X186495766Y-109405000D01*
X186912926Y-109232207D01*
X187232207Y-108912926D01*
X187405000Y-108495766D01*
X187405000Y-108044234D01*
X187232207Y-107627074D01*
X187030000Y-107424867D01*
X187030000Y-106759844D01*
X187044888Y-106684997D01*
X187030000Y-106610150D01*
X187030000Y-106610146D01*
X186985904Y-106388461D01*
X186916170Y-106284097D01*
X186860329Y-106200524D01*
X186860327Y-106200522D01*
X186817929Y-106137069D01*
X186754476Y-106094671D01*
X185945555Y-105285750D01*
X191565000Y-105285750D01*
X191565000Y-105926309D01*
X191661673Y-106159698D01*
X191840301Y-106338327D01*
X192073690Y-106435000D01*
X192714250Y-106435000D01*
X192873000Y-106276250D01*
X192873000Y-105127000D01*
X193127000Y-105127000D01*
X193127000Y-106276250D01*
X193285750Y-106435000D01*
X193926310Y-106435000D01*
X194159699Y-106338327D01*
X194338327Y-106159698D01*
X194435000Y-105926309D01*
X194435000Y-105285750D01*
X194276250Y-105127000D01*
X193127000Y-105127000D01*
X192873000Y-105127000D01*
X191723750Y-105127000D01*
X191565000Y-105285750D01*
X185945555Y-105285750D01*
X184733496Y-104073691D01*
X191565000Y-104073691D01*
X191565000Y-104714250D01*
X191723750Y-104873000D01*
X192873000Y-104873000D01*
X192873000Y-104853000D01*
X193127000Y-104853000D01*
X193127000Y-104873000D01*
X194276250Y-104873000D01*
X194435000Y-104714250D01*
X194435000Y-104073691D01*
X194338327Y-103840302D01*
X194159699Y-103661673D01*
X193926310Y-103565000D01*
X193558126Y-103565000D01*
X193754005Y-103483864D01*
X193828139Y-103237745D01*
X193000000Y-102409605D01*
X192171861Y-103237745D01*
X192245995Y-103483864D01*
X192471724Y-103565000D01*
X192073690Y-103565000D01*
X191840301Y-103661673D01*
X191661673Y-103840302D01*
X191565000Y-104073691D01*
X184733496Y-104073691D01*
X183270334Y-102610531D01*
X183227932Y-102547072D01*
X183158874Y-102500929D01*
X183646580Y-102013223D01*
X191553035Y-102013223D01*
X191580222Y-102583454D01*
X191746136Y-102984005D01*
X191992255Y-103058139D01*
X192820395Y-102230000D01*
X193179605Y-102230000D01*
X194007745Y-103058139D01*
X194253864Y-102984005D01*
X194446965Y-102446777D01*
X194419778Y-101876546D01*
X194253864Y-101475995D01*
X194007745Y-101401861D01*
X193179605Y-102230000D01*
X192820395Y-102230000D01*
X191992255Y-101401861D01*
X191746136Y-101475995D01*
X191553035Y-102013223D01*
X183646580Y-102013223D01*
X186484473Y-99175331D01*
X186547929Y-99132931D01*
X186715904Y-98881539D01*
X186760000Y-98659854D01*
X186760000Y-98659850D01*
X186774888Y-98585003D01*
X186760000Y-98510156D01*
X186760000Y-87771226D01*
X187060091Y-87971740D01*
G36*
X185240000Y-83064802D02*
X185240001Y-98270199D01*
X183135000Y-100375201D01*
X183135000Y-100373691D01*
X183038327Y-100140302D01*
X182859699Y-99961673D01*
X182626310Y-99865000D01*
X182285750Y-99865000D01*
X182127000Y-100023750D01*
X182127000Y-100873000D01*
X182147000Y-100873000D01*
X182147000Y-101127000D01*
X182127000Y-101127000D01*
X182127000Y-101147000D01*
X181873000Y-101147000D01*
X181873000Y-101127000D01*
X181023750Y-101127000D01*
X180998181Y-101152569D01*
X180955766Y-101135000D01*
X180595000Y-101135000D01*
X180595000Y-100774234D01*
X180429090Y-100373691D01*
X180865000Y-100373691D01*
X180865000Y-100714250D01*
X181023750Y-100873000D01*
X181873000Y-100873000D01*
X181873000Y-100023750D01*
X181714250Y-99865000D01*
X181373690Y-99865000D01*
X181140301Y-99961673D01*
X180961673Y-100140302D01*
X180865000Y-100373691D01*
X180429090Y-100373691D01*
X180422207Y-100357074D01*
X180102926Y-100037793D01*
X179685766Y-99865000D01*
X179234234Y-99865000D01*
X178817074Y-100037793D01*
X178614867Y-100240000D01*
X175556573Y-100240000D01*
X175457809Y-100092191D01*
X175247765Y-99951843D01*
X175000000Y-99902560D01*
X174500000Y-99902560D01*
X174252235Y-99951843D01*
X174042191Y-100092191D01*
X174000000Y-100155334D01*
X173957809Y-100092191D01*
X173747765Y-99951843D01*
X173500000Y-99902560D01*
X173000000Y-99902560D01*
X172752235Y-99951843D01*
X172542191Y-100092191D01*
X172401843Y-100302235D01*
X172352560Y-100550000D01*
X172352560Y-101022638D01*
X171740528Y-101634670D01*
X171677070Y-101677072D01*
X171509095Y-101928465D01*
X171464999Y-102150150D01*
X171464999Y-102150154D01*
X171450111Y-102225001D01*
X171464999Y-102299848D01*
X171465000Y-106850147D01*
X171450111Y-106924999D01*
X171509096Y-107221536D01*
X171519478Y-107237073D01*
X171677071Y-107472928D01*
X171740527Y-107515328D01*
X171902560Y-107677361D01*
X171902560Y-107750000D01*
X171951843Y-107997765D01*
X172092191Y-108207809D01*
X172302235Y-108348157D01*
X172352121Y-108358080D01*
X172200201Y-108510000D01*
X168264147Y-108510000D01*
X168322047Y-108423346D01*
X168406256Y-108000000D01*
X168322047Y-107576654D01*
X168082241Y-107217759D01*
X167723346Y-106977953D01*
X167406861Y-106915000D01*
X166684990Y-106915000D01*
X166684990Y-99639811D01*
X173484473Y-92840329D01*
X173547929Y-92797929D01*
X173678906Y-92601908D01*
X173697765Y-92598157D01*
X173907809Y-92457809D01*
X174048157Y-92247765D01*
X174097440Y-92000000D01*
X174097440Y-91500000D01*
X174048157Y-91252235D01*
X173907809Y-91042191D01*
X173859632Y-91010000D01*
X177960155Y-91010000D01*
X178035002Y-91024888D01*
X178109849Y-91010000D01*
X178109854Y-91010000D01*
X178331539Y-90965904D01*
X178582931Y-90797929D01*
X178625333Y-90734470D01*
X181609477Y-87750328D01*
X181672930Y-87707930D01*
X181715328Y-87644477D01*
X181715330Y-87644475D01*
X181818471Y-87490113D01*
X181840905Y-87456538D01*
X181885001Y-87234853D01*
X181885001Y-87234849D01*
X181899889Y-87160002D01*
X181885001Y-87085155D01*
X181885001Y-81074845D01*
X181899889Y-80999998D01*
X181885001Y-80925151D01*
X181885001Y-80925147D01*
X181840905Y-80703462D01*
X181672930Y-80452070D01*
X181609474Y-80409670D01*
X181337839Y-80138036D01*
X181398157Y-80047765D01*
X181447440Y-79800000D01*
X181447440Y-79272242D01*
X185240000Y-83064802D01*
X185240000Y-83064802D01*
G37*
X185240000Y-83064802D02*
X185240001Y-98270199D01*
X183135000Y-100375201D01*
X183135000Y-100373691D01*
X183038327Y-100140302D01*
X182859699Y-99961673D01*
X182626310Y-99865000D01*
X182285750Y-99865000D01*
X182127000Y-100023750D01*
X182127000Y-100873000D01*
X182147000Y-100873000D01*
X182147000Y-101127000D01*
X182127000Y-101127000D01*
X182127000Y-101147000D01*
X181873000Y-101147000D01*
X181873000Y-101127000D01*
X181023750Y-101127000D01*
X180998181Y-101152569D01*
X180955766Y-101135000D01*
X180595000Y-101135000D01*
X180595000Y-100774234D01*
X180429090Y-100373691D01*
X180865000Y-100373691D01*
X180865000Y-100714250D01*
X181023750Y-100873000D01*
X181873000Y-100873000D01*
X181873000Y-100023750D01*
X181714250Y-99865000D01*
X181373690Y-99865000D01*
X181140301Y-99961673D01*
X180961673Y-100140302D01*
X180865000Y-100373691D01*
X180429090Y-100373691D01*
X180422207Y-100357074D01*
X180102926Y-100037793D01*
X179685766Y-99865000D01*
X179234234Y-99865000D01*
X178817074Y-100037793D01*
X178614867Y-100240000D01*
X175556573Y-100240000D01*
X175457809Y-100092191D01*
X175247765Y-99951843D01*
X175000000Y-99902560D01*
X174500000Y-99902560D01*
X174252235Y-99951843D01*
X174042191Y-100092191D01*
X174000000Y-100155334D01*
X173957809Y-100092191D01*
X173747765Y-99951843D01*
X173500000Y-99902560D01*
X173000000Y-99902560D01*
X172752235Y-99951843D01*
X172542191Y-100092191D01*
X172401843Y-100302235D01*
X172352560Y-100550000D01*
X172352560Y-101022638D01*
X171740528Y-101634670D01*
X171677070Y-101677072D01*
X171509095Y-101928465D01*
X171464999Y-102150150D01*
X171464999Y-102150154D01*
X171450111Y-102225001D01*
X171464999Y-102299848D01*
X171465000Y-106850147D01*
X171450111Y-106924999D01*
X171509096Y-107221536D01*
X171519478Y-107237073D01*
X171677071Y-107472928D01*
X171740527Y-107515328D01*
X171902560Y-107677361D01*
X171902560Y-107750000D01*
X171951843Y-107997765D01*
X172092191Y-108207809D01*
X172302235Y-108348157D01*
X172352121Y-108358080D01*
X172200201Y-108510000D01*
X168264147Y-108510000D01*
X168322047Y-108423346D01*
X168406256Y-108000000D01*
X168322047Y-107576654D01*
X168082241Y-107217759D01*
X167723346Y-106977953D01*
X167406861Y-106915000D01*
X166684990Y-106915000D01*
X166684990Y-99639811D01*
X173484473Y-92840329D01*
X173547929Y-92797929D01*
X173678906Y-92601908D01*
X173697765Y-92598157D01*
X173907809Y-92457809D01*
X174048157Y-92247765D01*
X174097440Y-92000000D01*
X174097440Y-91500000D01*
X174048157Y-91252235D01*
X173907809Y-91042191D01*
X173859632Y-91010000D01*
X177960155Y-91010000D01*
X178035002Y-91024888D01*
X178109849Y-91010000D01*
X178109854Y-91010000D01*
X178331539Y-90965904D01*
X178582931Y-90797929D01*
X178625333Y-90734470D01*
X181609477Y-87750328D01*
X181672930Y-87707930D01*
X181715328Y-87644477D01*
X181715330Y-87644475D01*
X181818471Y-87490113D01*
X181840905Y-87456538D01*
X181885001Y-87234853D01*
X181885001Y-87234849D01*
X181899889Y-87160002D01*
X181885001Y-87085155D01*
X181885001Y-81074845D01*
X181899889Y-80999998D01*
X181885001Y-80925151D01*
X181885001Y-80925147D01*
X181840905Y-80703462D01*
X181672930Y-80452070D01*
X181609474Y-80409670D01*
X181337839Y-80138036D01*
X181398157Y-80047765D01*
X181447440Y-79800000D01*
X181447440Y-79272242D01*
X185240000Y-83064802D01*
G36*
X139848415Y-98676111D02*
X139627074Y-98767793D01*
X139307793Y-99087074D01*
X139135000Y-99504234D01*
X139135000Y-99955766D01*
X139152569Y-99998181D01*
X139127000Y-100023750D01*
X139127000Y-100873000D01*
X139147000Y-100873000D01*
X139147000Y-101127000D01*
X139127000Y-101127000D01*
X139127000Y-101976250D01*
X139285750Y-102135000D01*
X139510001Y-102135000D01*
X139510000Y-107865000D01*
X139234234Y-107865000D01*
X138817074Y-108037793D01*
X138584333Y-108270534D01*
X132984999Y-102671200D01*
X132984999Y-101285750D01*
X137865000Y-101285750D01*
X137865000Y-101626309D01*
X137961673Y-101859698D01*
X138140301Y-102038327D01*
X138373690Y-102135000D01*
X138714250Y-102135000D01*
X138873000Y-101976250D01*
X138873000Y-101127000D01*
X138023750Y-101127000D01*
X137865000Y-101285750D01*
X132984999Y-101285750D01*
X132984999Y-100373691D01*
X137865000Y-100373691D01*
X137865000Y-100714250D01*
X138023750Y-100873000D01*
X138873000Y-100873000D01*
X138873000Y-100023750D01*
X138714250Y-99865000D01*
X138373690Y-99865000D01*
X138140301Y-99961673D01*
X137961673Y-100140302D01*
X137865000Y-100373691D01*
X132984999Y-100373691D01*
X132984999Y-93647440D01*
X133450000Y-93647440D01*
X133697765Y-93598157D01*
X133829700Y-93510000D01*
X134682305Y-93510000D01*
X139848415Y-98676111D01*
X139848415Y-98676111D01*
G37*
X139848415Y-98676111D02*
X139627074Y-98767793D01*
X139307793Y-99087074D01*
X139135000Y-99504234D01*
X139135000Y-99955766D01*
X139152569Y-99998181D01*
X139127000Y-100023750D01*
X139127000Y-100873000D01*
X139147000Y-100873000D01*
X139147000Y-101127000D01*
X139127000Y-101127000D01*
X139127000Y-101976250D01*
X139285750Y-102135000D01*
X139510001Y-102135000D01*
X139510000Y-107865000D01*
X139234234Y-107865000D01*
X138817074Y-108037793D01*
X138584333Y-108270534D01*
X132984999Y-102671200D01*
X132984999Y-101285750D01*
X137865000Y-101285750D01*
X137865000Y-101626309D01*
X137961673Y-101859698D01*
X138140301Y-102038327D01*
X138373690Y-102135000D01*
X138714250Y-102135000D01*
X138873000Y-101976250D01*
X138873000Y-101127000D01*
X138023750Y-101127000D01*
X137865000Y-101285750D01*
X132984999Y-101285750D01*
X132984999Y-100373691D01*
X137865000Y-100373691D01*
X137865000Y-100714250D01*
X138023750Y-100873000D01*
X138873000Y-100873000D01*
X138873000Y-100023750D01*
X138714250Y-99865000D01*
X138373690Y-99865000D01*
X138140301Y-99961673D01*
X137961673Y-100140302D01*
X137865000Y-100373691D01*
X132984999Y-100373691D01*
X132984999Y-93647440D01*
X133450000Y-93647440D01*
X133697765Y-93598157D01*
X133829700Y-93510000D01*
X134682305Y-93510000D01*
X139848415Y-98676111D01*
G36*
X151391071Y-77705872D02*
X151347000Y-77730085D01*
X151347000Y-78873000D01*
X151367000Y-78873000D01*
X151367000Y-79127000D01*
X151347000Y-79127000D01*
X151347000Y-80269915D01*
X151391071Y-80294128D01*
X148195528Y-83489671D01*
X148132072Y-83532071D01*
X148089672Y-83595527D01*
X148089671Y-83595528D01*
X147964097Y-83783463D01*
X147905112Y-84080000D01*
X147920001Y-84154852D01*
X147920001Y-84817314D01*
X147812930Y-84657072D01*
X147749474Y-84614672D01*
X143569801Y-80435000D01*
X143741333Y-80435000D01*
X144159909Y-80351740D01*
X144634577Y-80034577D01*
X144870000Y-79682242D01*
X145105423Y-80034577D01*
X145580091Y-80351740D01*
X145998667Y-80435000D01*
X146281333Y-80435000D01*
X146699909Y-80351740D01*
X147174577Y-80034577D01*
X147410000Y-79682242D01*
X147645423Y-80034577D01*
X148120091Y-80351740D01*
X148538667Y-80435000D01*
X148821333Y-80435000D01*
X149239909Y-80351740D01*
X149714577Y-80034577D01*
X149970947Y-79650892D01*
X150067611Y-79855134D01*
X150482577Y-80231041D01*
X150870961Y-80391904D01*
X151093000Y-80269915D01*
X151093000Y-79127000D01*
X151073000Y-79127000D01*
X151073000Y-78873000D01*
X151093000Y-78873000D01*
X151093000Y-77730085D01*
X150870961Y-77608096D01*
X150482577Y-77768959D01*
X150067611Y-78144866D01*
X149970947Y-78349108D01*
X149714577Y-77965423D01*
X149239909Y-77648260D01*
X148821333Y-77565000D01*
X148538667Y-77565000D01*
X148120091Y-77648260D01*
X147645423Y-77965423D01*
X147410000Y-78317758D01*
X147174577Y-77965423D01*
X146699909Y-77648260D01*
X146281333Y-77565000D01*
X145998667Y-77565000D01*
X145580091Y-77648260D01*
X145105423Y-77965423D01*
X144870000Y-78317758D01*
X144804728Y-78220073D01*
X146927362Y-76097440D01*
X147000000Y-76097440D01*
X147247765Y-76048157D01*
X147457809Y-75907809D01*
X147556573Y-75760000D01*
X149445199Y-75760000D01*
X151391071Y-77705872D01*
X151391071Y-77705872D01*
G37*
X151391071Y-77705872D02*
X151347000Y-77730085D01*
X151347000Y-78873000D01*
X151367000Y-78873000D01*
X151367000Y-79127000D01*
X151347000Y-79127000D01*
X151347000Y-80269915D01*
X151391071Y-80294128D01*
X148195528Y-83489671D01*
X148132072Y-83532071D01*
X148089672Y-83595527D01*
X148089671Y-83595528D01*
X147964097Y-83783463D01*
X147905112Y-84080000D01*
X147920001Y-84154852D01*
X147920001Y-84817314D01*
X147812930Y-84657072D01*
X147749474Y-84614672D01*
X143569801Y-80435000D01*
X143741333Y-80435000D01*
X144159909Y-80351740D01*
X144634577Y-80034577D01*
X144870000Y-79682242D01*
X145105423Y-80034577D01*
X145580091Y-80351740D01*
X145998667Y-80435000D01*
X146281333Y-80435000D01*
X146699909Y-80351740D01*
X147174577Y-80034577D01*
X147410000Y-79682242D01*
X147645423Y-80034577D01*
X148120091Y-80351740D01*
X148538667Y-80435000D01*
X148821333Y-80435000D01*
X149239909Y-80351740D01*
X149714577Y-80034577D01*
X149970947Y-79650892D01*
X150067611Y-79855134D01*
X150482577Y-80231041D01*
X150870961Y-80391904D01*
X151093000Y-80269915D01*
X151093000Y-79127000D01*
X151073000Y-79127000D01*
X151073000Y-78873000D01*
X151093000Y-78873000D01*
X151093000Y-77730085D01*
X150870961Y-77608096D01*
X150482577Y-77768959D01*
X150067611Y-78144866D01*
X149970947Y-78349108D01*
X149714577Y-77965423D01*
X149239909Y-77648260D01*
X148821333Y-77565000D01*
X148538667Y-77565000D01*
X148120091Y-77648260D01*
X147645423Y-77965423D01*
X147410000Y-78317758D01*
X147174577Y-77965423D01*
X146699909Y-77648260D01*
X146281333Y-77565000D01*
X145998667Y-77565000D01*
X145580091Y-77648260D01*
X145105423Y-77965423D01*
X144870000Y-78317758D01*
X144804728Y-78220073D01*
X146927362Y-76097440D01*
X147000000Y-76097440D01*
X147247765Y-76048157D01*
X147457809Y-75907809D01*
X147556573Y-75760000D01*
X149445199Y-75760000D01*
X151391071Y-77705872D01*
G36*
X174542191Y-74907809D02*
X174752235Y-75048157D01*
X175000000Y-75097440D01*
X175500000Y-75097440D01*
X175747765Y-75048157D01*
X175957809Y-74907809D01*
X176000000Y-74844666D01*
X176042191Y-74907809D01*
X176252235Y-75048157D01*
X176500000Y-75097440D01*
X177000000Y-75097440D01*
X177227406Y-75052207D01*
X179727759Y-77552560D01*
X179200000Y-77552560D01*
X178952235Y-77601843D01*
X178742191Y-77742191D01*
X178601843Y-77952235D01*
X178552560Y-78200000D01*
X178552560Y-79365001D01*
X175439803Y-79365001D01*
X175035000Y-78960199D01*
X175035000Y-78794126D01*
X174877431Y-78413720D01*
X174586280Y-78122569D01*
X174205874Y-77965000D01*
X173794126Y-77965000D01*
X173413720Y-78122569D01*
X173122569Y-78413720D01*
X172965000Y-78794126D01*
X172965000Y-79205874D01*
X173122569Y-79586280D01*
X173413720Y-79877431D01*
X173794126Y-80035000D01*
X173960199Y-80035000D01*
X174534671Y-80609473D01*
X174577072Y-80672930D01*
X174640528Y-80715330D01*
X174828463Y-80840905D01*
X174876606Y-80850481D01*
X175050149Y-80885001D01*
X175050153Y-80885001D01*
X175125001Y-80899889D01*
X175199849Y-80885001D01*
X178734820Y-80885001D01*
X178608096Y-81190961D01*
X178730085Y-81413000D01*
X179873000Y-81413000D01*
X179873000Y-81393000D01*
X180127000Y-81393000D01*
X180127000Y-81413000D01*
X180147000Y-81413000D01*
X180147000Y-81667000D01*
X180127000Y-81667000D01*
X180127000Y-81687000D01*
X179873000Y-81687000D01*
X179873000Y-81667000D01*
X178730085Y-81667000D01*
X178608096Y-81889039D01*
X178768959Y-82277423D01*
X179144866Y-82692389D01*
X179349108Y-82789053D01*
X178965423Y-83045423D01*
X178781957Y-83320000D01*
X173344802Y-83320000D01*
X170267743Y-80242942D01*
X170398157Y-80047765D01*
X170447440Y-79800000D01*
X170447440Y-78200000D01*
X170398157Y-77952235D01*
X170257809Y-77742191D01*
X170047765Y-77601843D01*
X169800000Y-77552560D01*
X168200000Y-77552560D01*
X167952235Y-77601843D01*
X167742191Y-77742191D01*
X167601843Y-77952235D01*
X167575215Y-78086106D01*
X167494577Y-77965423D01*
X167019909Y-77648260D01*
X166601333Y-77565000D01*
X166318667Y-77565000D01*
X165900091Y-77648260D01*
X165425423Y-77965423D01*
X165190000Y-78317758D01*
X164954577Y-77965423D01*
X164479909Y-77648260D01*
X164061333Y-77565000D01*
X163889801Y-77565000D01*
X166694802Y-74760000D01*
X174443427Y-74760000D01*
X174542191Y-74907809D01*
X174542191Y-74907809D01*
G37*
X174542191Y-74907809D02*
X174752235Y-75048157D01*
X175000000Y-75097440D01*
X175500000Y-75097440D01*
X175747765Y-75048157D01*
X175957809Y-74907809D01*
X176000000Y-74844666D01*
X176042191Y-74907809D01*
X176252235Y-75048157D01*
X176500000Y-75097440D01*
X177000000Y-75097440D01*
X177227406Y-75052207D01*
X179727759Y-77552560D01*
X179200000Y-77552560D01*
X178952235Y-77601843D01*
X178742191Y-77742191D01*
X178601843Y-77952235D01*
X178552560Y-78200000D01*
X178552560Y-79365001D01*
X175439803Y-79365001D01*
X175035000Y-78960199D01*
X175035000Y-78794126D01*
X174877431Y-78413720D01*
X174586280Y-78122569D01*
X174205874Y-77965000D01*
X173794126Y-77965000D01*
X173413720Y-78122569D01*
X173122569Y-78413720D01*
X172965000Y-78794126D01*
X172965000Y-79205874D01*
X173122569Y-79586280D01*
X173413720Y-79877431D01*
X173794126Y-80035000D01*
X173960199Y-80035000D01*
X174534671Y-80609473D01*
X174577072Y-80672930D01*
X174640528Y-80715330D01*
X174828463Y-80840905D01*
X174876606Y-80850481D01*
X175050149Y-80885001D01*
X175050153Y-80885001D01*
X175125001Y-80899889D01*
X175199849Y-80885001D01*
X178734820Y-80885001D01*
X178608096Y-81190961D01*
X178730085Y-81413000D01*
X179873000Y-81413000D01*
X179873000Y-81393000D01*
X180127000Y-81393000D01*
X180127000Y-81413000D01*
X180147000Y-81413000D01*
X180147000Y-81667000D01*
X180127000Y-81667000D01*
X180127000Y-81687000D01*
X179873000Y-81687000D01*
X179873000Y-81667000D01*
X178730085Y-81667000D01*
X178608096Y-81889039D01*
X178768959Y-82277423D01*
X179144866Y-82692389D01*
X179349108Y-82789053D01*
X178965423Y-83045423D01*
X178781957Y-83320000D01*
X173344802Y-83320000D01*
X170267743Y-80242942D01*
X170398157Y-80047765D01*
X170447440Y-79800000D01*
X170447440Y-78200000D01*
X170398157Y-77952235D01*
X170257809Y-77742191D01*
X170047765Y-77601843D01*
X169800000Y-77552560D01*
X168200000Y-77552560D01*
X167952235Y-77601843D01*
X167742191Y-77742191D01*
X167601843Y-77952235D01*
X167575215Y-78086106D01*
X167494577Y-77965423D01*
X167019909Y-77648260D01*
X166601333Y-77565000D01*
X166318667Y-77565000D01*
X165900091Y-77648260D01*
X165425423Y-77965423D01*
X165190000Y-78317758D01*
X164954577Y-77965423D01*
X164479909Y-77648260D01*
X164061333Y-77565000D01*
X163889801Y-77565000D01*
X166694802Y-74760000D01*
X174443427Y-74760000D01*
X174542191Y-74907809D01*
G04 #@! TD*
M02*
