G04 #@! TF.GenerationSoftware,KiCad,Pcbnew,(5.0.1)-3*
G04 #@! TF.CreationDate,2018-11-29T07:36:30-08:00*
G04 #@! TF.ProjectId,DashSight-Mezzanine-Card,4461736853696768742D4D657A7A616E,rev?*
G04 #@! TF.SameCoordinates,Original*
G04 #@! TF.FileFunction,Soldermask,Top*
G04 #@! TF.FilePolarity,Negative*
%FSLAX46Y46*%
G04 Gerber Fmt 4.6, Leading zero omitted, Abs format (unit mm)*
G04 Created by KiCad (PCBNEW (5.0.1)-3) date 29/11/2018 7:36:30 AM*
%MOMM*%
%LPD*%
G01*
G04 APERTURE LIST*
%ADD10C,0.100000*%
G04 APERTURE END LIST*
D10*
X125000000Y-125000000D02*
X125000000Y-50000000D01*
X200000000Y-125000000D02*
X125000000Y-125000000D01*
X200000000Y-50000000D02*
X200000000Y-125000000D01*
X125000000Y-50000000D02*
X200000000Y-50000000D01*
G36*
X181806630Y-122162299D02*
X181966855Y-122210903D01*
X182114520Y-122289831D01*
X182243949Y-122396051D01*
X182350169Y-122525480D01*
X182429097Y-122673145D01*
X182477701Y-122833370D01*
X182494112Y-123000000D01*
X182477701Y-123166630D01*
X182429097Y-123326855D01*
X182350169Y-123474520D01*
X182243949Y-123603949D01*
X182114520Y-123710169D01*
X181966855Y-123789097D01*
X181806630Y-123837701D01*
X181681752Y-123850000D01*
X181598248Y-123850000D01*
X181473370Y-123837701D01*
X181313145Y-123789097D01*
X181165480Y-123710169D01*
X181036051Y-123603949D01*
X180929831Y-123474520D01*
X180850903Y-123326855D01*
X180802299Y-123166630D01*
X180785888Y-123000000D01*
X180802299Y-122833370D01*
X180850903Y-122673145D01*
X180929831Y-122525480D01*
X181036051Y-122396051D01*
X181165480Y-122289831D01*
X181313145Y-122210903D01*
X181473370Y-122162299D01*
X181598248Y-122150000D01*
X181681752Y-122150000D01*
X181806630Y-122162299D01*
X181806630Y-122162299D01*
G37*
G36*
X153866630Y-122162299D02*
X154026855Y-122210903D01*
X154174520Y-122289831D01*
X154303949Y-122396051D01*
X154410169Y-122525480D01*
X154489097Y-122673145D01*
X154537701Y-122833370D01*
X154554112Y-123000000D01*
X154537701Y-123166630D01*
X154489097Y-123326855D01*
X154410169Y-123474520D01*
X154303949Y-123603949D01*
X154174520Y-123710169D01*
X154026855Y-123789097D01*
X153866630Y-123837701D01*
X153741752Y-123850000D01*
X153658248Y-123850000D01*
X153533370Y-123837701D01*
X153373145Y-123789097D01*
X153225480Y-123710169D01*
X153096051Y-123603949D01*
X152989831Y-123474520D01*
X152910903Y-123326855D01*
X152862299Y-123166630D01*
X152845888Y-123000000D01*
X152862299Y-122833370D01*
X152910903Y-122673145D01*
X152989831Y-122525480D01*
X153096051Y-122396051D01*
X153225480Y-122289831D01*
X153373145Y-122210903D01*
X153533370Y-122162299D01*
X153658248Y-122150000D01*
X153741752Y-122150000D01*
X153866630Y-122162299D01*
X153866630Y-122162299D01*
G37*
G36*
X174186630Y-122162299D02*
X174346855Y-122210903D01*
X174494520Y-122289831D01*
X174623949Y-122396051D01*
X174730169Y-122525480D01*
X174809097Y-122673145D01*
X174857701Y-122833370D01*
X174874112Y-123000000D01*
X174857701Y-123166630D01*
X174809097Y-123326855D01*
X174730169Y-123474520D01*
X174623949Y-123603949D01*
X174494520Y-123710169D01*
X174346855Y-123789097D01*
X174186630Y-123837701D01*
X174061752Y-123850000D01*
X173978248Y-123850000D01*
X173853370Y-123837701D01*
X173693145Y-123789097D01*
X173545480Y-123710169D01*
X173416051Y-123603949D01*
X173309831Y-123474520D01*
X173230903Y-123326855D01*
X173182299Y-123166630D01*
X173165888Y-123000000D01*
X173182299Y-122833370D01*
X173230903Y-122673145D01*
X173309831Y-122525480D01*
X173416051Y-122396051D01*
X173545480Y-122289831D01*
X173693145Y-122210903D01*
X173853370Y-122162299D01*
X173978248Y-122150000D01*
X174061752Y-122150000D01*
X174186630Y-122162299D01*
X174186630Y-122162299D01*
G37*
G36*
X146246630Y-122162299D02*
X146406855Y-122210903D01*
X146554520Y-122289831D01*
X146683949Y-122396051D01*
X146790169Y-122525480D01*
X146869097Y-122673145D01*
X146917701Y-122833370D01*
X146934112Y-123000000D01*
X146917701Y-123166630D01*
X146869097Y-123326855D01*
X146790169Y-123474520D01*
X146683949Y-123603949D01*
X146554520Y-123710169D01*
X146406855Y-123789097D01*
X146246630Y-123837701D01*
X146121752Y-123850000D01*
X146038248Y-123850000D01*
X145913370Y-123837701D01*
X145753145Y-123789097D01*
X145605480Y-123710169D01*
X145476051Y-123603949D01*
X145369831Y-123474520D01*
X145290903Y-123326855D01*
X145242299Y-123166630D01*
X145225888Y-123000000D01*
X145242299Y-122833370D01*
X145290903Y-122673145D01*
X145369831Y-122525480D01*
X145476051Y-122396051D01*
X145605480Y-122289831D01*
X145753145Y-122210903D01*
X145913370Y-122162299D01*
X146038248Y-122150000D01*
X146121752Y-122150000D01*
X146246630Y-122162299D01*
X146246630Y-122162299D01*
G37*
G36*
X143706630Y-122162299D02*
X143866855Y-122210903D01*
X144014520Y-122289831D01*
X144143949Y-122396051D01*
X144250169Y-122525480D01*
X144329097Y-122673145D01*
X144377701Y-122833370D01*
X144394112Y-123000000D01*
X144377701Y-123166630D01*
X144329097Y-123326855D01*
X144250169Y-123474520D01*
X144143949Y-123603949D01*
X144014520Y-123710169D01*
X143866855Y-123789097D01*
X143706630Y-123837701D01*
X143581752Y-123850000D01*
X143498248Y-123850000D01*
X143373370Y-123837701D01*
X143213145Y-123789097D01*
X143065480Y-123710169D01*
X142936051Y-123603949D01*
X142829831Y-123474520D01*
X142750903Y-123326855D01*
X142702299Y-123166630D01*
X142685888Y-123000000D01*
X142702299Y-122833370D01*
X142750903Y-122673145D01*
X142829831Y-122525480D01*
X142936051Y-122396051D01*
X143065480Y-122289831D01*
X143213145Y-122210903D01*
X143373370Y-122162299D01*
X143498248Y-122150000D01*
X143581752Y-122150000D01*
X143706630Y-122162299D01*
X143706630Y-122162299D01*
G37*
G36*
X141850000Y-123850000D02*
X140150000Y-123850000D01*
X140150000Y-122150000D01*
X141850000Y-122150000D01*
X141850000Y-123850000D01*
X141850000Y-123850000D01*
G37*
G36*
X148786630Y-122162299D02*
X148946855Y-122210903D01*
X149094520Y-122289831D01*
X149223949Y-122396051D01*
X149330169Y-122525480D01*
X149409097Y-122673145D01*
X149457701Y-122833370D01*
X149474112Y-123000000D01*
X149457701Y-123166630D01*
X149409097Y-123326855D01*
X149330169Y-123474520D01*
X149223949Y-123603949D01*
X149094520Y-123710169D01*
X148946855Y-123789097D01*
X148786630Y-123837701D01*
X148661752Y-123850000D01*
X148578248Y-123850000D01*
X148453370Y-123837701D01*
X148293145Y-123789097D01*
X148145480Y-123710169D01*
X148016051Y-123603949D01*
X147909831Y-123474520D01*
X147830903Y-123326855D01*
X147782299Y-123166630D01*
X147765888Y-123000000D01*
X147782299Y-122833370D01*
X147830903Y-122673145D01*
X147909831Y-122525480D01*
X148016051Y-122396051D01*
X148145480Y-122289831D01*
X148293145Y-122210903D01*
X148453370Y-122162299D01*
X148578248Y-122150000D01*
X148661752Y-122150000D01*
X148786630Y-122162299D01*
X148786630Y-122162299D01*
G37*
G36*
X176726630Y-122162299D02*
X176886855Y-122210903D01*
X177034520Y-122289831D01*
X177163949Y-122396051D01*
X177270169Y-122525480D01*
X177349097Y-122673145D01*
X177397701Y-122833370D01*
X177414112Y-123000000D01*
X177397701Y-123166630D01*
X177349097Y-123326855D01*
X177270169Y-123474520D01*
X177163949Y-123603949D01*
X177034520Y-123710169D01*
X176886855Y-123789097D01*
X176726630Y-123837701D01*
X176601752Y-123850000D01*
X176518248Y-123850000D01*
X176393370Y-123837701D01*
X176233145Y-123789097D01*
X176085480Y-123710169D01*
X175956051Y-123603949D01*
X175849831Y-123474520D01*
X175770903Y-123326855D01*
X175722299Y-123166630D01*
X175705888Y-123000000D01*
X175722299Y-122833370D01*
X175770903Y-122673145D01*
X175849831Y-122525480D01*
X175956051Y-122396051D01*
X176085480Y-122289831D01*
X176233145Y-122210903D01*
X176393370Y-122162299D01*
X176518248Y-122150000D01*
X176601752Y-122150000D01*
X176726630Y-122162299D01*
X176726630Y-122162299D01*
G37*
G36*
X151326630Y-122162299D02*
X151486855Y-122210903D01*
X151634520Y-122289831D01*
X151763949Y-122396051D01*
X151870169Y-122525480D01*
X151949097Y-122673145D01*
X151997701Y-122833370D01*
X152014112Y-123000000D01*
X151997701Y-123166630D01*
X151949097Y-123326855D01*
X151870169Y-123474520D01*
X151763949Y-123603949D01*
X151634520Y-123710169D01*
X151486855Y-123789097D01*
X151326630Y-123837701D01*
X151201752Y-123850000D01*
X151118248Y-123850000D01*
X150993370Y-123837701D01*
X150833145Y-123789097D01*
X150685480Y-123710169D01*
X150556051Y-123603949D01*
X150449831Y-123474520D01*
X150370903Y-123326855D01*
X150322299Y-123166630D01*
X150305888Y-123000000D01*
X150322299Y-122833370D01*
X150370903Y-122673145D01*
X150449831Y-122525480D01*
X150556051Y-122396051D01*
X150685480Y-122289831D01*
X150833145Y-122210903D01*
X150993370Y-122162299D01*
X151118248Y-122150000D01*
X151201752Y-122150000D01*
X151326630Y-122162299D01*
X151326630Y-122162299D01*
G37*
G36*
X156406630Y-122162299D02*
X156566855Y-122210903D01*
X156714520Y-122289831D01*
X156843949Y-122396051D01*
X156950169Y-122525480D01*
X157029097Y-122673145D01*
X157077701Y-122833370D01*
X157094112Y-123000000D01*
X157077701Y-123166630D01*
X157029097Y-123326855D01*
X156950169Y-123474520D01*
X156843949Y-123603949D01*
X156714520Y-123710169D01*
X156566855Y-123789097D01*
X156406630Y-123837701D01*
X156281752Y-123850000D01*
X156198248Y-123850000D01*
X156073370Y-123837701D01*
X155913145Y-123789097D01*
X155765480Y-123710169D01*
X155636051Y-123603949D01*
X155529831Y-123474520D01*
X155450903Y-123326855D01*
X155402299Y-123166630D01*
X155385888Y-123000000D01*
X155402299Y-122833370D01*
X155450903Y-122673145D01*
X155529831Y-122525480D01*
X155636051Y-122396051D01*
X155765480Y-122289831D01*
X155913145Y-122210903D01*
X156073370Y-122162299D01*
X156198248Y-122150000D01*
X156281752Y-122150000D01*
X156406630Y-122162299D01*
X156406630Y-122162299D01*
G37*
G36*
X179266630Y-122162299D02*
X179426855Y-122210903D01*
X179574520Y-122289831D01*
X179703949Y-122396051D01*
X179810169Y-122525480D01*
X179889097Y-122673145D01*
X179937701Y-122833370D01*
X179954112Y-123000000D01*
X179937701Y-123166630D01*
X179889097Y-123326855D01*
X179810169Y-123474520D01*
X179703949Y-123603949D01*
X179574520Y-123710169D01*
X179426855Y-123789097D01*
X179266630Y-123837701D01*
X179141752Y-123850000D01*
X179058248Y-123850000D01*
X178933370Y-123837701D01*
X178773145Y-123789097D01*
X178625480Y-123710169D01*
X178496051Y-123603949D01*
X178389831Y-123474520D01*
X178310903Y-123326855D01*
X178262299Y-123166630D01*
X178245888Y-123000000D01*
X178262299Y-122833370D01*
X178310903Y-122673145D01*
X178389831Y-122525480D01*
X178496051Y-122396051D01*
X178625480Y-122289831D01*
X178773145Y-122210903D01*
X178933370Y-122162299D01*
X179058248Y-122150000D01*
X179141752Y-122150000D01*
X179266630Y-122162299D01*
X179266630Y-122162299D01*
G37*
G36*
X171646630Y-122162299D02*
X171806855Y-122210903D01*
X171954520Y-122289831D01*
X172083949Y-122396051D01*
X172190169Y-122525480D01*
X172269097Y-122673145D01*
X172317701Y-122833370D01*
X172334112Y-123000000D01*
X172317701Y-123166630D01*
X172269097Y-123326855D01*
X172190169Y-123474520D01*
X172083949Y-123603949D01*
X171954520Y-123710169D01*
X171806855Y-123789097D01*
X171646630Y-123837701D01*
X171521752Y-123850000D01*
X171438248Y-123850000D01*
X171313370Y-123837701D01*
X171153145Y-123789097D01*
X171005480Y-123710169D01*
X170876051Y-123603949D01*
X170769831Y-123474520D01*
X170690903Y-123326855D01*
X170642299Y-123166630D01*
X170625888Y-123000000D01*
X170642299Y-122833370D01*
X170690903Y-122673145D01*
X170769831Y-122525480D01*
X170876051Y-122396051D01*
X171005480Y-122289831D01*
X171153145Y-122210903D01*
X171313370Y-122162299D01*
X171438248Y-122150000D01*
X171521752Y-122150000D01*
X171646630Y-122162299D01*
X171646630Y-122162299D01*
G37*
G36*
X169106630Y-122162299D02*
X169266855Y-122210903D01*
X169414520Y-122289831D01*
X169543949Y-122396051D01*
X169650169Y-122525480D01*
X169729097Y-122673145D01*
X169777701Y-122833370D01*
X169794112Y-123000000D01*
X169777701Y-123166630D01*
X169729097Y-123326855D01*
X169650169Y-123474520D01*
X169543949Y-123603949D01*
X169414520Y-123710169D01*
X169266855Y-123789097D01*
X169106630Y-123837701D01*
X168981752Y-123850000D01*
X168898248Y-123850000D01*
X168773370Y-123837701D01*
X168613145Y-123789097D01*
X168465480Y-123710169D01*
X168336051Y-123603949D01*
X168229831Y-123474520D01*
X168150903Y-123326855D01*
X168102299Y-123166630D01*
X168085888Y-123000000D01*
X168102299Y-122833370D01*
X168150903Y-122673145D01*
X168229831Y-122525480D01*
X168336051Y-122396051D01*
X168465480Y-122289831D01*
X168613145Y-122210903D01*
X168773370Y-122162299D01*
X168898248Y-122150000D01*
X168981752Y-122150000D01*
X169106630Y-122162299D01*
X169106630Y-122162299D01*
G37*
G36*
X166566630Y-122162299D02*
X166726855Y-122210903D01*
X166874520Y-122289831D01*
X167003949Y-122396051D01*
X167110169Y-122525480D01*
X167189097Y-122673145D01*
X167237701Y-122833370D01*
X167254112Y-123000000D01*
X167237701Y-123166630D01*
X167189097Y-123326855D01*
X167110169Y-123474520D01*
X167003949Y-123603949D01*
X166874520Y-123710169D01*
X166726855Y-123789097D01*
X166566630Y-123837701D01*
X166441752Y-123850000D01*
X166358248Y-123850000D01*
X166233370Y-123837701D01*
X166073145Y-123789097D01*
X165925480Y-123710169D01*
X165796051Y-123603949D01*
X165689831Y-123474520D01*
X165610903Y-123326855D01*
X165562299Y-123166630D01*
X165545888Y-123000000D01*
X165562299Y-122833370D01*
X165610903Y-122673145D01*
X165689831Y-122525480D01*
X165796051Y-122396051D01*
X165925480Y-122289831D01*
X166073145Y-122210903D01*
X166233370Y-122162299D01*
X166358248Y-122150000D01*
X166441752Y-122150000D01*
X166566630Y-122162299D01*
X166566630Y-122162299D01*
G37*
G36*
X161486630Y-122162299D02*
X161646855Y-122210903D01*
X161794520Y-122289831D01*
X161923949Y-122396051D01*
X162030169Y-122525480D01*
X162109097Y-122673145D01*
X162157701Y-122833370D01*
X162174112Y-123000000D01*
X162157701Y-123166630D01*
X162109097Y-123326855D01*
X162030169Y-123474520D01*
X161923949Y-123603949D01*
X161794520Y-123710169D01*
X161646855Y-123789097D01*
X161486630Y-123837701D01*
X161361752Y-123850000D01*
X161278248Y-123850000D01*
X161153370Y-123837701D01*
X160993145Y-123789097D01*
X160845480Y-123710169D01*
X160716051Y-123603949D01*
X160609831Y-123474520D01*
X160530903Y-123326855D01*
X160482299Y-123166630D01*
X160465888Y-123000000D01*
X160482299Y-122833370D01*
X160530903Y-122673145D01*
X160609831Y-122525480D01*
X160716051Y-122396051D01*
X160845480Y-122289831D01*
X160993145Y-122210903D01*
X161153370Y-122162299D01*
X161278248Y-122150000D01*
X161361752Y-122150000D01*
X161486630Y-122162299D01*
X161486630Y-122162299D01*
G37*
G36*
X164026630Y-122162299D02*
X164186855Y-122210903D01*
X164334520Y-122289831D01*
X164463949Y-122396051D01*
X164570169Y-122525480D01*
X164649097Y-122673145D01*
X164697701Y-122833370D01*
X164714112Y-123000000D01*
X164697701Y-123166630D01*
X164649097Y-123326855D01*
X164570169Y-123474520D01*
X164463949Y-123603949D01*
X164334520Y-123710169D01*
X164186855Y-123789097D01*
X164026630Y-123837701D01*
X163901752Y-123850000D01*
X163818248Y-123850000D01*
X163693370Y-123837701D01*
X163533145Y-123789097D01*
X163385480Y-123710169D01*
X163256051Y-123603949D01*
X163149831Y-123474520D01*
X163070903Y-123326855D01*
X163022299Y-123166630D01*
X163005888Y-123000000D01*
X163022299Y-122833370D01*
X163070903Y-122673145D01*
X163149831Y-122525480D01*
X163256051Y-122396051D01*
X163385480Y-122289831D01*
X163533145Y-122210903D01*
X163693370Y-122162299D01*
X163818248Y-122150000D01*
X163901752Y-122150000D01*
X164026630Y-122162299D01*
X164026630Y-122162299D01*
G37*
G36*
X158946630Y-122162299D02*
X159106855Y-122210903D01*
X159254520Y-122289831D01*
X159383949Y-122396051D01*
X159490169Y-122525480D01*
X159569097Y-122673145D01*
X159617701Y-122833370D01*
X159634112Y-123000000D01*
X159617701Y-123166630D01*
X159569097Y-123326855D01*
X159490169Y-123474520D01*
X159383949Y-123603949D01*
X159254520Y-123710169D01*
X159106855Y-123789097D01*
X158946630Y-123837701D01*
X158821752Y-123850000D01*
X158738248Y-123850000D01*
X158613370Y-123837701D01*
X158453145Y-123789097D01*
X158305480Y-123710169D01*
X158176051Y-123603949D01*
X158069831Y-123474520D01*
X157990903Y-123326855D01*
X157942299Y-123166630D01*
X157925888Y-123000000D01*
X157942299Y-122833370D01*
X157990903Y-122673145D01*
X158069831Y-122525480D01*
X158176051Y-122396051D01*
X158305480Y-122289831D01*
X158453145Y-122210903D01*
X158613370Y-122162299D01*
X158738248Y-122150000D01*
X158821752Y-122150000D01*
X158946630Y-122162299D01*
X158946630Y-122162299D01*
G37*
G36*
X174186630Y-119622299D02*
X174346855Y-119670903D01*
X174494520Y-119749831D01*
X174623949Y-119856051D01*
X174730169Y-119985480D01*
X174809097Y-120133145D01*
X174857701Y-120293370D01*
X174874112Y-120460000D01*
X174857701Y-120626630D01*
X174809097Y-120786855D01*
X174730169Y-120934520D01*
X174623949Y-121063949D01*
X174494520Y-121170169D01*
X174346855Y-121249097D01*
X174186630Y-121297701D01*
X174061752Y-121310000D01*
X173978248Y-121310000D01*
X173853370Y-121297701D01*
X173693145Y-121249097D01*
X173545480Y-121170169D01*
X173416051Y-121063949D01*
X173309831Y-120934520D01*
X173230903Y-120786855D01*
X173182299Y-120626630D01*
X173165888Y-120460000D01*
X173182299Y-120293370D01*
X173230903Y-120133145D01*
X173309831Y-119985480D01*
X173416051Y-119856051D01*
X173545480Y-119749831D01*
X173693145Y-119670903D01*
X173853370Y-119622299D01*
X173978248Y-119610000D01*
X174061752Y-119610000D01*
X174186630Y-119622299D01*
X174186630Y-119622299D01*
G37*
G36*
X143706630Y-119622299D02*
X143866855Y-119670903D01*
X144014520Y-119749831D01*
X144143949Y-119856051D01*
X144250169Y-119985480D01*
X144329097Y-120133145D01*
X144377701Y-120293370D01*
X144394112Y-120460000D01*
X144377701Y-120626630D01*
X144329097Y-120786855D01*
X144250169Y-120934520D01*
X144143949Y-121063949D01*
X144014520Y-121170169D01*
X143866855Y-121249097D01*
X143706630Y-121297701D01*
X143581752Y-121310000D01*
X143498248Y-121310000D01*
X143373370Y-121297701D01*
X143213145Y-121249097D01*
X143065480Y-121170169D01*
X142936051Y-121063949D01*
X142829831Y-120934520D01*
X142750903Y-120786855D01*
X142702299Y-120626630D01*
X142685888Y-120460000D01*
X142702299Y-120293370D01*
X142750903Y-120133145D01*
X142829831Y-119985480D01*
X142936051Y-119856051D01*
X143065480Y-119749831D01*
X143213145Y-119670903D01*
X143373370Y-119622299D01*
X143498248Y-119610000D01*
X143581752Y-119610000D01*
X143706630Y-119622299D01*
X143706630Y-119622299D01*
G37*
G36*
X176726630Y-119622299D02*
X176886855Y-119670903D01*
X177034520Y-119749831D01*
X177163949Y-119856051D01*
X177270169Y-119985480D01*
X177349097Y-120133145D01*
X177397701Y-120293370D01*
X177414112Y-120460000D01*
X177397701Y-120626630D01*
X177349097Y-120786855D01*
X177270169Y-120934520D01*
X177163949Y-121063949D01*
X177034520Y-121170169D01*
X176886855Y-121249097D01*
X176726630Y-121297701D01*
X176601752Y-121310000D01*
X176518248Y-121310000D01*
X176393370Y-121297701D01*
X176233145Y-121249097D01*
X176085480Y-121170169D01*
X175956051Y-121063949D01*
X175849831Y-120934520D01*
X175770903Y-120786855D01*
X175722299Y-120626630D01*
X175705888Y-120460000D01*
X175722299Y-120293370D01*
X175770903Y-120133145D01*
X175849831Y-119985480D01*
X175956051Y-119856051D01*
X176085480Y-119749831D01*
X176233145Y-119670903D01*
X176393370Y-119622299D01*
X176518248Y-119610000D01*
X176601752Y-119610000D01*
X176726630Y-119622299D01*
X176726630Y-119622299D01*
G37*
G36*
X179266630Y-119622299D02*
X179426855Y-119670903D01*
X179574520Y-119749831D01*
X179703949Y-119856051D01*
X179810169Y-119985480D01*
X179889097Y-120133145D01*
X179937701Y-120293370D01*
X179954112Y-120460000D01*
X179937701Y-120626630D01*
X179889097Y-120786855D01*
X179810169Y-120934520D01*
X179703949Y-121063949D01*
X179574520Y-121170169D01*
X179426855Y-121249097D01*
X179266630Y-121297701D01*
X179141752Y-121310000D01*
X179058248Y-121310000D01*
X178933370Y-121297701D01*
X178773145Y-121249097D01*
X178625480Y-121170169D01*
X178496051Y-121063949D01*
X178389831Y-120934520D01*
X178310903Y-120786855D01*
X178262299Y-120626630D01*
X178245888Y-120460000D01*
X178262299Y-120293370D01*
X178310903Y-120133145D01*
X178389831Y-119985480D01*
X178496051Y-119856051D01*
X178625480Y-119749831D01*
X178773145Y-119670903D01*
X178933370Y-119622299D01*
X179058248Y-119610000D01*
X179141752Y-119610000D01*
X179266630Y-119622299D01*
X179266630Y-119622299D01*
G37*
G36*
X181806630Y-119622299D02*
X181966855Y-119670903D01*
X182114520Y-119749831D01*
X182243949Y-119856051D01*
X182350169Y-119985480D01*
X182429097Y-120133145D01*
X182477701Y-120293370D01*
X182494112Y-120460000D01*
X182477701Y-120626630D01*
X182429097Y-120786855D01*
X182350169Y-120934520D01*
X182243949Y-121063949D01*
X182114520Y-121170169D01*
X181966855Y-121249097D01*
X181806630Y-121297701D01*
X181681752Y-121310000D01*
X181598248Y-121310000D01*
X181473370Y-121297701D01*
X181313145Y-121249097D01*
X181165480Y-121170169D01*
X181036051Y-121063949D01*
X180929831Y-120934520D01*
X180850903Y-120786855D01*
X180802299Y-120626630D01*
X180785888Y-120460000D01*
X180802299Y-120293370D01*
X180850903Y-120133145D01*
X180929831Y-119985480D01*
X181036051Y-119856051D01*
X181165480Y-119749831D01*
X181313145Y-119670903D01*
X181473370Y-119622299D01*
X181598248Y-119610000D01*
X181681752Y-119610000D01*
X181806630Y-119622299D01*
X181806630Y-119622299D01*
G37*
G36*
X141166630Y-119622299D02*
X141326855Y-119670903D01*
X141474520Y-119749831D01*
X141603949Y-119856051D01*
X141710169Y-119985480D01*
X141789097Y-120133145D01*
X141837701Y-120293370D01*
X141854112Y-120460000D01*
X141837701Y-120626630D01*
X141789097Y-120786855D01*
X141710169Y-120934520D01*
X141603949Y-121063949D01*
X141474520Y-121170169D01*
X141326855Y-121249097D01*
X141166630Y-121297701D01*
X141041752Y-121310000D01*
X140958248Y-121310000D01*
X140833370Y-121297701D01*
X140673145Y-121249097D01*
X140525480Y-121170169D01*
X140396051Y-121063949D01*
X140289831Y-120934520D01*
X140210903Y-120786855D01*
X140162299Y-120626630D01*
X140145888Y-120460000D01*
X140162299Y-120293370D01*
X140210903Y-120133145D01*
X140289831Y-119985480D01*
X140396051Y-119856051D01*
X140525480Y-119749831D01*
X140673145Y-119670903D01*
X140833370Y-119622299D01*
X140958248Y-119610000D01*
X141041752Y-119610000D01*
X141166630Y-119622299D01*
X141166630Y-119622299D01*
G37*
G36*
X171646630Y-119622299D02*
X171806855Y-119670903D01*
X171954520Y-119749831D01*
X172083949Y-119856051D01*
X172190169Y-119985480D01*
X172269097Y-120133145D01*
X172317701Y-120293370D01*
X172334112Y-120460000D01*
X172317701Y-120626630D01*
X172269097Y-120786855D01*
X172190169Y-120934520D01*
X172083949Y-121063949D01*
X171954520Y-121170169D01*
X171806855Y-121249097D01*
X171646630Y-121297701D01*
X171521752Y-121310000D01*
X171438248Y-121310000D01*
X171313370Y-121297701D01*
X171153145Y-121249097D01*
X171005480Y-121170169D01*
X170876051Y-121063949D01*
X170769831Y-120934520D01*
X170690903Y-120786855D01*
X170642299Y-120626630D01*
X170625888Y-120460000D01*
X170642299Y-120293370D01*
X170690903Y-120133145D01*
X170769831Y-119985480D01*
X170876051Y-119856051D01*
X171005480Y-119749831D01*
X171153145Y-119670903D01*
X171313370Y-119622299D01*
X171438248Y-119610000D01*
X171521752Y-119610000D01*
X171646630Y-119622299D01*
X171646630Y-119622299D01*
G37*
G36*
X169106630Y-119622299D02*
X169266855Y-119670903D01*
X169414520Y-119749831D01*
X169543949Y-119856051D01*
X169650169Y-119985480D01*
X169729097Y-120133145D01*
X169777701Y-120293370D01*
X169794112Y-120460000D01*
X169777701Y-120626630D01*
X169729097Y-120786855D01*
X169650169Y-120934520D01*
X169543949Y-121063949D01*
X169414520Y-121170169D01*
X169266855Y-121249097D01*
X169106630Y-121297701D01*
X168981752Y-121310000D01*
X168898248Y-121310000D01*
X168773370Y-121297701D01*
X168613145Y-121249097D01*
X168465480Y-121170169D01*
X168336051Y-121063949D01*
X168229831Y-120934520D01*
X168150903Y-120786855D01*
X168102299Y-120626630D01*
X168085888Y-120460000D01*
X168102299Y-120293370D01*
X168150903Y-120133145D01*
X168229831Y-119985480D01*
X168336051Y-119856051D01*
X168465480Y-119749831D01*
X168613145Y-119670903D01*
X168773370Y-119622299D01*
X168898248Y-119610000D01*
X168981752Y-119610000D01*
X169106630Y-119622299D01*
X169106630Y-119622299D01*
G37*
G36*
X166566630Y-119622299D02*
X166726855Y-119670903D01*
X166874520Y-119749831D01*
X167003949Y-119856051D01*
X167110169Y-119985480D01*
X167189097Y-120133145D01*
X167237701Y-120293370D01*
X167254112Y-120460000D01*
X167237701Y-120626630D01*
X167189097Y-120786855D01*
X167110169Y-120934520D01*
X167003949Y-121063949D01*
X166874520Y-121170169D01*
X166726855Y-121249097D01*
X166566630Y-121297701D01*
X166441752Y-121310000D01*
X166358248Y-121310000D01*
X166233370Y-121297701D01*
X166073145Y-121249097D01*
X165925480Y-121170169D01*
X165796051Y-121063949D01*
X165689831Y-120934520D01*
X165610903Y-120786855D01*
X165562299Y-120626630D01*
X165545888Y-120460000D01*
X165562299Y-120293370D01*
X165610903Y-120133145D01*
X165689831Y-119985480D01*
X165796051Y-119856051D01*
X165925480Y-119749831D01*
X166073145Y-119670903D01*
X166233370Y-119622299D01*
X166358248Y-119610000D01*
X166441752Y-119610000D01*
X166566630Y-119622299D01*
X166566630Y-119622299D01*
G37*
G36*
X161486630Y-119622299D02*
X161646855Y-119670903D01*
X161794520Y-119749831D01*
X161923949Y-119856051D01*
X162030169Y-119985480D01*
X162109097Y-120133145D01*
X162157701Y-120293370D01*
X162174112Y-120460000D01*
X162157701Y-120626630D01*
X162109097Y-120786855D01*
X162030169Y-120934520D01*
X161923949Y-121063949D01*
X161794520Y-121170169D01*
X161646855Y-121249097D01*
X161486630Y-121297701D01*
X161361752Y-121310000D01*
X161278248Y-121310000D01*
X161153370Y-121297701D01*
X160993145Y-121249097D01*
X160845480Y-121170169D01*
X160716051Y-121063949D01*
X160609831Y-120934520D01*
X160530903Y-120786855D01*
X160482299Y-120626630D01*
X160465888Y-120460000D01*
X160482299Y-120293370D01*
X160530903Y-120133145D01*
X160609831Y-119985480D01*
X160716051Y-119856051D01*
X160845480Y-119749831D01*
X160993145Y-119670903D01*
X161153370Y-119622299D01*
X161278248Y-119610000D01*
X161361752Y-119610000D01*
X161486630Y-119622299D01*
X161486630Y-119622299D01*
G37*
G36*
X158946630Y-119622299D02*
X159106855Y-119670903D01*
X159254520Y-119749831D01*
X159383949Y-119856051D01*
X159490169Y-119985480D01*
X159569097Y-120133145D01*
X159617701Y-120293370D01*
X159634112Y-120460000D01*
X159617701Y-120626630D01*
X159569097Y-120786855D01*
X159490169Y-120934520D01*
X159383949Y-121063949D01*
X159254520Y-121170169D01*
X159106855Y-121249097D01*
X158946630Y-121297701D01*
X158821752Y-121310000D01*
X158738248Y-121310000D01*
X158613370Y-121297701D01*
X158453145Y-121249097D01*
X158305480Y-121170169D01*
X158176051Y-121063949D01*
X158069831Y-120934520D01*
X157990903Y-120786855D01*
X157942299Y-120626630D01*
X157925888Y-120460000D01*
X157942299Y-120293370D01*
X157990903Y-120133145D01*
X158069831Y-119985480D01*
X158176051Y-119856051D01*
X158305480Y-119749831D01*
X158453145Y-119670903D01*
X158613370Y-119622299D01*
X158738248Y-119610000D01*
X158821752Y-119610000D01*
X158946630Y-119622299D01*
X158946630Y-119622299D01*
G37*
G36*
X156406630Y-119622299D02*
X156566855Y-119670903D01*
X156714520Y-119749831D01*
X156843949Y-119856051D01*
X156950169Y-119985480D01*
X157029097Y-120133145D01*
X157077701Y-120293370D01*
X157094112Y-120460000D01*
X157077701Y-120626630D01*
X157029097Y-120786855D01*
X156950169Y-120934520D01*
X156843949Y-121063949D01*
X156714520Y-121170169D01*
X156566855Y-121249097D01*
X156406630Y-121297701D01*
X156281752Y-121310000D01*
X156198248Y-121310000D01*
X156073370Y-121297701D01*
X155913145Y-121249097D01*
X155765480Y-121170169D01*
X155636051Y-121063949D01*
X155529831Y-120934520D01*
X155450903Y-120786855D01*
X155402299Y-120626630D01*
X155385888Y-120460000D01*
X155402299Y-120293370D01*
X155450903Y-120133145D01*
X155529831Y-119985480D01*
X155636051Y-119856051D01*
X155765480Y-119749831D01*
X155913145Y-119670903D01*
X156073370Y-119622299D01*
X156198248Y-119610000D01*
X156281752Y-119610000D01*
X156406630Y-119622299D01*
X156406630Y-119622299D01*
G37*
G36*
X153866630Y-119622299D02*
X154026855Y-119670903D01*
X154174520Y-119749831D01*
X154303949Y-119856051D01*
X154410169Y-119985480D01*
X154489097Y-120133145D01*
X154537701Y-120293370D01*
X154554112Y-120460000D01*
X154537701Y-120626630D01*
X154489097Y-120786855D01*
X154410169Y-120934520D01*
X154303949Y-121063949D01*
X154174520Y-121170169D01*
X154026855Y-121249097D01*
X153866630Y-121297701D01*
X153741752Y-121310000D01*
X153658248Y-121310000D01*
X153533370Y-121297701D01*
X153373145Y-121249097D01*
X153225480Y-121170169D01*
X153096051Y-121063949D01*
X152989831Y-120934520D01*
X152910903Y-120786855D01*
X152862299Y-120626630D01*
X152845888Y-120460000D01*
X152862299Y-120293370D01*
X152910903Y-120133145D01*
X152989831Y-119985480D01*
X153096051Y-119856051D01*
X153225480Y-119749831D01*
X153373145Y-119670903D01*
X153533370Y-119622299D01*
X153658248Y-119610000D01*
X153741752Y-119610000D01*
X153866630Y-119622299D01*
X153866630Y-119622299D01*
G37*
G36*
X151326630Y-119622299D02*
X151486855Y-119670903D01*
X151634520Y-119749831D01*
X151763949Y-119856051D01*
X151870169Y-119985480D01*
X151949097Y-120133145D01*
X151997701Y-120293370D01*
X152014112Y-120460000D01*
X151997701Y-120626630D01*
X151949097Y-120786855D01*
X151870169Y-120934520D01*
X151763949Y-121063949D01*
X151634520Y-121170169D01*
X151486855Y-121249097D01*
X151326630Y-121297701D01*
X151201752Y-121310000D01*
X151118248Y-121310000D01*
X150993370Y-121297701D01*
X150833145Y-121249097D01*
X150685480Y-121170169D01*
X150556051Y-121063949D01*
X150449831Y-120934520D01*
X150370903Y-120786855D01*
X150322299Y-120626630D01*
X150305888Y-120460000D01*
X150322299Y-120293370D01*
X150370903Y-120133145D01*
X150449831Y-119985480D01*
X150556051Y-119856051D01*
X150685480Y-119749831D01*
X150833145Y-119670903D01*
X150993370Y-119622299D01*
X151118248Y-119610000D01*
X151201752Y-119610000D01*
X151326630Y-119622299D01*
X151326630Y-119622299D01*
G37*
G36*
X146246630Y-119622299D02*
X146406855Y-119670903D01*
X146554520Y-119749831D01*
X146683949Y-119856051D01*
X146790169Y-119985480D01*
X146869097Y-120133145D01*
X146917701Y-120293370D01*
X146934112Y-120460000D01*
X146917701Y-120626630D01*
X146869097Y-120786855D01*
X146790169Y-120934520D01*
X146683949Y-121063949D01*
X146554520Y-121170169D01*
X146406855Y-121249097D01*
X146246630Y-121297701D01*
X146121752Y-121310000D01*
X146038248Y-121310000D01*
X145913370Y-121297701D01*
X145753145Y-121249097D01*
X145605480Y-121170169D01*
X145476051Y-121063949D01*
X145369831Y-120934520D01*
X145290903Y-120786855D01*
X145242299Y-120626630D01*
X145225888Y-120460000D01*
X145242299Y-120293370D01*
X145290903Y-120133145D01*
X145369831Y-119985480D01*
X145476051Y-119856051D01*
X145605480Y-119749831D01*
X145753145Y-119670903D01*
X145913370Y-119622299D01*
X146038248Y-119610000D01*
X146121752Y-119610000D01*
X146246630Y-119622299D01*
X146246630Y-119622299D01*
G37*
G36*
X148786630Y-119622299D02*
X148946855Y-119670903D01*
X149094520Y-119749831D01*
X149223949Y-119856051D01*
X149330169Y-119985480D01*
X149409097Y-120133145D01*
X149457701Y-120293370D01*
X149474112Y-120460000D01*
X149457701Y-120626630D01*
X149409097Y-120786855D01*
X149330169Y-120934520D01*
X149223949Y-121063949D01*
X149094520Y-121170169D01*
X148946855Y-121249097D01*
X148786630Y-121297701D01*
X148661752Y-121310000D01*
X148578248Y-121310000D01*
X148453370Y-121297701D01*
X148293145Y-121249097D01*
X148145480Y-121170169D01*
X148016051Y-121063949D01*
X147909831Y-120934520D01*
X147830903Y-120786855D01*
X147782299Y-120626630D01*
X147765888Y-120460000D01*
X147782299Y-120293370D01*
X147830903Y-120133145D01*
X147909831Y-119985480D01*
X148016051Y-119856051D01*
X148145480Y-119749831D01*
X148293145Y-119670903D01*
X148453370Y-119622299D01*
X148578248Y-119610000D01*
X148661752Y-119610000D01*
X148786630Y-119622299D01*
X148786630Y-119622299D01*
G37*
G36*
X164026630Y-119622299D02*
X164186855Y-119670903D01*
X164334520Y-119749831D01*
X164463949Y-119856051D01*
X164570169Y-119985480D01*
X164649097Y-120133145D01*
X164697701Y-120293370D01*
X164714112Y-120460000D01*
X164697701Y-120626630D01*
X164649097Y-120786855D01*
X164570169Y-120934520D01*
X164463949Y-121063949D01*
X164334520Y-121170169D01*
X164186855Y-121249097D01*
X164026630Y-121297701D01*
X163901752Y-121310000D01*
X163818248Y-121310000D01*
X163693370Y-121297701D01*
X163533145Y-121249097D01*
X163385480Y-121170169D01*
X163256051Y-121063949D01*
X163149831Y-120934520D01*
X163070903Y-120786855D01*
X163022299Y-120626630D01*
X163005888Y-120460000D01*
X163022299Y-120293370D01*
X163070903Y-120133145D01*
X163149831Y-119985480D01*
X163256051Y-119856051D01*
X163385480Y-119749831D01*
X163533145Y-119670903D01*
X163693370Y-119622299D01*
X163818248Y-119610000D01*
X163901752Y-119610000D01*
X164026630Y-119622299D01*
X164026630Y-119622299D01*
G37*
G36*
X148900000Y-116250000D02*
X147100000Y-116250000D01*
X147100000Y-113750000D01*
X148900000Y-113750000D01*
X148900000Y-116250000D01*
X148900000Y-116250000D01*
G37*
G36*
X135250000Y-115850000D02*
X134750000Y-115850000D01*
X134750000Y-115250000D01*
X135250000Y-115250000D01*
X135250000Y-115850000D01*
X135250000Y-115850000D01*
G37*
G36*
X135250000Y-114750000D02*
X134750000Y-114750000D01*
X134750000Y-114150000D01*
X135250000Y-114150000D01*
X135250000Y-114750000D01*
X135250000Y-114750000D01*
G37*
G36*
X153500000Y-114500000D02*
X152500000Y-114500000D01*
X152500000Y-113500000D01*
X153500000Y-113500000D01*
X153500000Y-114500000D01*
X153500000Y-114500000D01*
G37*
G36*
X155685845Y-113519215D02*
X155776839Y-113556906D01*
X155857640Y-113610896D01*
X155858734Y-113611627D01*
X155928373Y-113681266D01*
X155928375Y-113681269D01*
X155962525Y-113732377D01*
X155983095Y-113763163D01*
X156020785Y-113854155D01*
X156040000Y-113950755D01*
X156040000Y-114049245D01*
X156020785Y-114145845D01*
X155983095Y-114236837D01*
X155928373Y-114318734D01*
X155858734Y-114388373D01*
X155858731Y-114388375D01*
X155776839Y-114443094D01*
X155685845Y-114480785D01*
X155589246Y-114500000D01*
X155490754Y-114500000D01*
X155394155Y-114480785D01*
X155303161Y-114443094D01*
X155221269Y-114388375D01*
X155221266Y-114388373D01*
X155151627Y-114318734D01*
X155096905Y-114236837D01*
X155059215Y-114145845D01*
X155040000Y-114049245D01*
X155040000Y-113950755D01*
X155059215Y-113854155D01*
X155096905Y-113763163D01*
X155117476Y-113732377D01*
X155151625Y-113681269D01*
X155151627Y-113681266D01*
X155221266Y-113611627D01*
X155222360Y-113610896D01*
X155303161Y-113556906D01*
X155394155Y-113519215D01*
X155490754Y-113500000D01*
X155589246Y-113500000D01*
X155685845Y-113519215D01*
X155685845Y-113519215D01*
G37*
G36*
X193883378Y-110036859D02*
X194247354Y-110187622D01*
X194574929Y-110406501D01*
X194853499Y-110685071D01*
X195072378Y-111012646D01*
X195223141Y-111376622D01*
X195300000Y-111763016D01*
X195300000Y-112156984D01*
X195223141Y-112543378D01*
X195072378Y-112907354D01*
X194853499Y-113234929D01*
X194574929Y-113513499D01*
X194247354Y-113732378D01*
X193883378Y-113883141D01*
X193496984Y-113960000D01*
X193103016Y-113960000D01*
X192716622Y-113883141D01*
X192352646Y-113732378D01*
X192025071Y-113513499D01*
X191746501Y-113234929D01*
X191527622Y-112907354D01*
X191376859Y-112543378D01*
X191300000Y-112156984D01*
X191300000Y-111763016D01*
X191376859Y-111376622D01*
X191527622Y-111012646D01*
X191746501Y-110685071D01*
X192025071Y-110406501D01*
X192352646Y-110187622D01*
X192716622Y-110036859D01*
X193103016Y-109960000D01*
X193496984Y-109960000D01*
X193883378Y-110036859D01*
X193883378Y-110036859D01*
G37*
G36*
X154415845Y-112249215D02*
X154506839Y-112286906D01*
X154587640Y-112340896D01*
X154588734Y-112341627D01*
X154658373Y-112411266D01*
X154713095Y-112493163D01*
X154750785Y-112584155D01*
X154770000Y-112680755D01*
X154770000Y-112779245D01*
X154750785Y-112875845D01*
X154713095Y-112966837D01*
X154658373Y-113048734D01*
X154588734Y-113118373D01*
X154588731Y-113118375D01*
X154506839Y-113173094D01*
X154415845Y-113210785D01*
X154319246Y-113230000D01*
X154220754Y-113230000D01*
X154124155Y-113210785D01*
X154033161Y-113173094D01*
X153951269Y-113118375D01*
X153951266Y-113118373D01*
X153881627Y-113048734D01*
X153826905Y-112966837D01*
X153789215Y-112875845D01*
X153770000Y-112779245D01*
X153770000Y-112680755D01*
X153789215Y-112584155D01*
X153826905Y-112493163D01*
X153881627Y-112411266D01*
X153951266Y-112341627D01*
X153952360Y-112340896D01*
X154033161Y-112286906D01*
X154124155Y-112249215D01*
X154220754Y-112230000D01*
X154319246Y-112230000D01*
X154415845Y-112249215D01*
X154415845Y-112249215D01*
G37*
G36*
X148900000Y-112250000D02*
X147100000Y-112250000D01*
X147100000Y-109750000D01*
X148900000Y-109750000D01*
X148900000Y-112250000D01*
X148900000Y-112250000D01*
G37*
G36*
X135450000Y-111000000D02*
X134550000Y-111000000D01*
X134550000Y-110500000D01*
X135450000Y-110500000D01*
X135450000Y-111000000D01*
X135450000Y-111000000D01*
G37*
G36*
X160450000Y-111000000D02*
X159550000Y-111000000D01*
X159550000Y-110500000D01*
X160450000Y-110500000D01*
X160450000Y-111000000D01*
X160450000Y-111000000D01*
G37*
G36*
X167750000Y-110990000D02*
X166250000Y-110990000D01*
X166250000Y-110090000D01*
X167750000Y-110090000D01*
X167750000Y-110990000D01*
X167750000Y-110990000D01*
G37*
G36*
X140875845Y-109789215D02*
X140966839Y-109826906D01*
X141047640Y-109880896D01*
X141048734Y-109881627D01*
X141118373Y-109951266D01*
X141118375Y-109951269D01*
X141173094Y-110033161D01*
X141210785Y-110124155D01*
X141223410Y-110187622D01*
X141230000Y-110220755D01*
X141230000Y-110319245D01*
X141210785Y-110415845D01*
X141173095Y-110506837D01*
X141118373Y-110588734D01*
X141048734Y-110658373D01*
X141048731Y-110658375D01*
X140966839Y-110713094D01*
X140875845Y-110750785D01*
X140779246Y-110770000D01*
X140680754Y-110770000D01*
X140584155Y-110750785D01*
X140493161Y-110713094D01*
X140411269Y-110658375D01*
X140411266Y-110658373D01*
X140341627Y-110588734D01*
X140286905Y-110506837D01*
X140249215Y-110415845D01*
X140230000Y-110319245D01*
X140230000Y-110220755D01*
X140236591Y-110187622D01*
X140249215Y-110124155D01*
X140286906Y-110033161D01*
X140341625Y-109951269D01*
X140341627Y-109951266D01*
X140411266Y-109881627D01*
X140412360Y-109880896D01*
X140493161Y-109826906D01*
X140584155Y-109789215D01*
X140680754Y-109770000D01*
X140779246Y-109770000D01*
X140875845Y-109789215D01*
X140875845Y-109789215D01*
G37*
G36*
X185145845Y-109059215D02*
X185236839Y-109096906D01*
X185236918Y-109096959D01*
X185318734Y-109151627D01*
X185388373Y-109221266D01*
X185388375Y-109221269D01*
X185443094Y-109303161D01*
X185480785Y-109394155D01*
X185500000Y-109490754D01*
X185500000Y-109589246D01*
X185480785Y-109685845D01*
X185469335Y-109713489D01*
X185443094Y-109776839D01*
X185409641Y-109826905D01*
X185388373Y-109858734D01*
X185318734Y-109928373D01*
X185318731Y-109928375D01*
X185236839Y-109983094D01*
X185145845Y-110020785D01*
X185049246Y-110040000D01*
X184950754Y-110040000D01*
X184854155Y-110020785D01*
X184763161Y-109983094D01*
X184681269Y-109928375D01*
X184681266Y-109928373D01*
X184611627Y-109858734D01*
X184590359Y-109826905D01*
X184556906Y-109776839D01*
X184530666Y-109713489D01*
X184519215Y-109685845D01*
X184500000Y-109589246D01*
X184500000Y-109490754D01*
X184519215Y-109394155D01*
X184556906Y-109303161D01*
X184611625Y-109221269D01*
X184611627Y-109221266D01*
X184681266Y-109151627D01*
X184763082Y-109096959D01*
X184763161Y-109096906D01*
X184854155Y-109059215D01*
X184950754Y-109040000D01*
X185049246Y-109040000D01*
X185145845Y-109059215D01*
X185145845Y-109059215D01*
G37*
G36*
X167355160Y-108823256D02*
X167388215Y-108826511D01*
X167430628Y-108839377D01*
X167473042Y-108852243D01*
X167551217Y-108894029D01*
X167619738Y-108950262D01*
X167675971Y-109018783D01*
X167717757Y-109096958D01*
X167717757Y-109096959D01*
X167743489Y-109181785D01*
X167752177Y-109270000D01*
X167743489Y-109358215D01*
X167734340Y-109388375D01*
X167717757Y-109443042D01*
X167675971Y-109521217D01*
X167619738Y-109589738D01*
X167551217Y-109645971D01*
X167473042Y-109687757D01*
X167430628Y-109700623D01*
X167388215Y-109713489D01*
X167355160Y-109716745D01*
X167322106Y-109720000D01*
X166677894Y-109720000D01*
X166644840Y-109716745D01*
X166611785Y-109713489D01*
X166569372Y-109700623D01*
X166526958Y-109687757D01*
X166448783Y-109645971D01*
X166380262Y-109589738D01*
X166324029Y-109521217D01*
X166282243Y-109443042D01*
X166265660Y-109388375D01*
X166256511Y-109358215D01*
X166247823Y-109270000D01*
X166256511Y-109181785D01*
X166282243Y-109096959D01*
X166282243Y-109096958D01*
X166324029Y-109018783D01*
X166380262Y-108950262D01*
X166448783Y-108894029D01*
X166526958Y-108852243D01*
X166569372Y-108839377D01*
X166611785Y-108826511D01*
X166644840Y-108823256D01*
X166677894Y-108820000D01*
X167322106Y-108820000D01*
X167355160Y-108823256D01*
X167355160Y-108823256D01*
G37*
G36*
X135450000Y-109500000D02*
X134550000Y-109500000D01*
X134550000Y-109000000D01*
X135450000Y-109000000D01*
X135450000Y-109500000D01*
X135450000Y-109500000D01*
G37*
G36*
X160450000Y-109500000D02*
X159550000Y-109500000D01*
X159550000Y-109000000D01*
X160450000Y-109000000D01*
X160450000Y-109500000D01*
X160450000Y-109500000D01*
G37*
G36*
X142500000Y-109500000D02*
X141500000Y-109500000D01*
X141500000Y-108500000D01*
X142500000Y-108500000D01*
X142500000Y-109500000D01*
X142500000Y-109500000D01*
G37*
G36*
X139605845Y-108519215D02*
X139696839Y-108556906D01*
X139777640Y-108610896D01*
X139778734Y-108611627D01*
X139848373Y-108681266D01*
X139848375Y-108681269D01*
X139894825Y-108750785D01*
X139903095Y-108763163D01*
X139939993Y-108852243D01*
X139940785Y-108854155D01*
X139948717Y-108894029D01*
X139960000Y-108950755D01*
X139960000Y-109049245D01*
X139940785Y-109145845D01*
X139903095Y-109236837D01*
X139848373Y-109318734D01*
X139778734Y-109388373D01*
X139778731Y-109388375D01*
X139696839Y-109443094D01*
X139605845Y-109480785D01*
X139509246Y-109500000D01*
X139410754Y-109500000D01*
X139314155Y-109480785D01*
X139223161Y-109443094D01*
X139141269Y-109388375D01*
X139141266Y-109388373D01*
X139071627Y-109318734D01*
X139016905Y-109236837D01*
X138979215Y-109145845D01*
X138960000Y-109049245D01*
X138960000Y-108950755D01*
X138971284Y-108894029D01*
X138979215Y-108854155D01*
X138980007Y-108852243D01*
X139016905Y-108763163D01*
X139025176Y-108750785D01*
X139071625Y-108681269D01*
X139071627Y-108681266D01*
X139141266Y-108611627D01*
X139142360Y-108610896D01*
X139223161Y-108556906D01*
X139314155Y-108519215D01*
X139410754Y-108500000D01*
X139509246Y-108500000D01*
X139605845Y-108519215D01*
X139605845Y-108519215D01*
G37*
G36*
X186415845Y-107789215D02*
X186506839Y-107826906D01*
X186506918Y-107826959D01*
X186588734Y-107881627D01*
X186658373Y-107951266D01*
X186658375Y-107951269D01*
X186713094Y-108033161D01*
X186750785Y-108124155D01*
X186770000Y-108220754D01*
X186770000Y-108319246D01*
X186750785Y-108415845D01*
X186739335Y-108443489D01*
X186713094Y-108506839D01*
X186679641Y-108556905D01*
X186658373Y-108588734D01*
X186588734Y-108658373D01*
X186588731Y-108658375D01*
X186506839Y-108713094D01*
X186415845Y-108750785D01*
X186319246Y-108770000D01*
X186220754Y-108770000D01*
X186124155Y-108750785D01*
X186033161Y-108713094D01*
X185951269Y-108658375D01*
X185951266Y-108658373D01*
X185881627Y-108588734D01*
X185860359Y-108556905D01*
X185826906Y-108506839D01*
X185800666Y-108443489D01*
X185789215Y-108415845D01*
X185770000Y-108319246D01*
X185770000Y-108220754D01*
X185789215Y-108124155D01*
X185826906Y-108033161D01*
X185881625Y-107951269D01*
X185881627Y-107951266D01*
X185951266Y-107881627D01*
X186033082Y-107826959D01*
X186033161Y-107826906D01*
X186124155Y-107789215D01*
X186220754Y-107770000D01*
X186319246Y-107770000D01*
X186415845Y-107789215D01*
X186415845Y-107789215D01*
G37*
G36*
X167355160Y-107553255D02*
X167388215Y-107556511D01*
X167430628Y-107569377D01*
X167473042Y-107582243D01*
X167551217Y-107624029D01*
X167619738Y-107680262D01*
X167675971Y-107748783D01*
X167717757Y-107826958D01*
X167717757Y-107826959D01*
X167734341Y-107881627D01*
X167743489Y-107911786D01*
X167752177Y-108000000D01*
X167743489Y-108088214D01*
X167717757Y-108173042D01*
X167675971Y-108251217D01*
X167619738Y-108319738D01*
X167551217Y-108375971D01*
X167473042Y-108417757D01*
X167430628Y-108430623D01*
X167388215Y-108443489D01*
X167355160Y-108446744D01*
X167322106Y-108450000D01*
X166677894Y-108450000D01*
X166644840Y-108446744D01*
X166611785Y-108443489D01*
X166569372Y-108430623D01*
X166526958Y-108417757D01*
X166448783Y-108375971D01*
X166380262Y-108319738D01*
X166324029Y-108251217D01*
X166282243Y-108173042D01*
X166256511Y-108088214D01*
X166247823Y-108000000D01*
X166256511Y-107911786D01*
X166265660Y-107881627D01*
X166282243Y-107826959D01*
X166282243Y-107826958D01*
X166324029Y-107748783D01*
X166380262Y-107680262D01*
X166448783Y-107624029D01*
X166526958Y-107582243D01*
X166569372Y-107569377D01*
X166611785Y-107556511D01*
X166644840Y-107553255D01*
X166677894Y-107550000D01*
X167322106Y-107550000D01*
X167355160Y-107553255D01*
X167355160Y-107553255D01*
G37*
G36*
X148450000Y-108000000D02*
X147550000Y-108000000D01*
X147550000Y-107500000D01*
X148450000Y-107500000D01*
X148450000Y-108000000D01*
X148450000Y-108000000D01*
G37*
G36*
X185500000Y-107500000D02*
X184500000Y-107500000D01*
X184500000Y-106500000D01*
X185500000Y-106500000D01*
X185500000Y-107500000D01*
X185500000Y-107500000D01*
G37*
G36*
X148450000Y-106500000D02*
X147550000Y-106500000D01*
X147550000Y-106000000D01*
X148450000Y-106000000D01*
X148450000Y-106500000D01*
X148450000Y-106500000D01*
G37*
G36*
X193800000Y-105800000D02*
X192200000Y-105800000D01*
X192200000Y-104200000D01*
X193800000Y-104200000D01*
X193800000Y-105800000D01*
X193800000Y-105800000D01*
G37*
G36*
X132250000Y-104450000D02*
X131750000Y-104450000D01*
X131750000Y-103550000D01*
X132250000Y-103550000D01*
X132250000Y-104450000D01*
X132250000Y-104450000D01*
G37*
G36*
X130750000Y-104450000D02*
X130250000Y-104450000D01*
X130250000Y-103550000D01*
X130750000Y-103550000D01*
X130750000Y-104450000D01*
X130750000Y-104450000D01*
G37*
G36*
X196073352Y-102845743D02*
X196218941Y-102906048D01*
X196349973Y-102993601D01*
X196461399Y-103105027D01*
X196548952Y-103236059D01*
X196609257Y-103381648D01*
X196640000Y-103536205D01*
X196640000Y-103693795D01*
X196609257Y-103848352D01*
X196548952Y-103993941D01*
X196461399Y-104124973D01*
X196349973Y-104236399D01*
X196218941Y-104323952D01*
X196073352Y-104384257D01*
X195918795Y-104415000D01*
X195761205Y-104415000D01*
X195606648Y-104384257D01*
X195461059Y-104323952D01*
X195330027Y-104236399D01*
X195218601Y-104124973D01*
X195131048Y-103993941D01*
X195070743Y-103848352D01*
X195040000Y-103693795D01*
X195040000Y-103536205D01*
X195070743Y-103381648D01*
X195131048Y-103236059D01*
X195218601Y-103105027D01*
X195330027Y-102993601D01*
X195461059Y-102906048D01*
X195606648Y-102845743D01*
X195761205Y-102815000D01*
X195918795Y-102815000D01*
X196073352Y-102845743D01*
X196073352Y-102845743D01*
G37*
G36*
X167900000Y-104250000D02*
X166100000Y-104250000D01*
X166100000Y-101750000D01*
X167900000Y-101750000D01*
X167900000Y-104250000D01*
X167900000Y-104250000D01*
G37*
G36*
X148450000Y-104000000D02*
X147550000Y-104000000D01*
X147550000Y-103500000D01*
X148450000Y-103500000D01*
X148450000Y-104000000D01*
X148450000Y-104000000D01*
G37*
G36*
X193233352Y-101460743D02*
X193378941Y-101521048D01*
X193509973Y-101608601D01*
X193621399Y-101720027D01*
X193708952Y-101851059D01*
X193769257Y-101996648D01*
X193800000Y-102151205D01*
X193800000Y-102308795D01*
X193769257Y-102463352D01*
X193708952Y-102608941D01*
X193621399Y-102739973D01*
X193509973Y-102851399D01*
X193378941Y-102938952D01*
X193233352Y-102999257D01*
X193078795Y-103030000D01*
X192921205Y-103030000D01*
X192766648Y-102999257D01*
X192621059Y-102938952D01*
X192490027Y-102851399D01*
X192378601Y-102739973D01*
X192291048Y-102608941D01*
X192230743Y-102463352D01*
X192200000Y-102308795D01*
X192200000Y-102151205D01*
X192230743Y-101996648D01*
X192291048Y-101851059D01*
X192378601Y-101720027D01*
X192490027Y-101608601D01*
X192621059Y-101521048D01*
X192766648Y-101460743D01*
X192921205Y-101430000D01*
X193078795Y-101430000D01*
X193233352Y-101460743D01*
X193233352Y-101460743D01*
G37*
G36*
X187450000Y-103000000D02*
X186550000Y-103000000D01*
X186550000Y-102500000D01*
X187450000Y-102500000D01*
X187450000Y-103000000D01*
X187450000Y-103000000D01*
G37*
G36*
X180875845Y-101789215D02*
X180966839Y-101826906D01*
X181002986Y-101851059D01*
X181048734Y-101881627D01*
X181118373Y-101951266D01*
X181118375Y-101951269D01*
X181148697Y-101996648D01*
X181173095Y-102033163D01*
X181210785Y-102124155D01*
X181230000Y-102220755D01*
X181230000Y-102319245D01*
X181210785Y-102415845D01*
X181173095Y-102506837D01*
X181118373Y-102588734D01*
X181048734Y-102658373D01*
X181048731Y-102658375D01*
X180966839Y-102713094D01*
X180966838Y-102713095D01*
X180966837Y-102713095D01*
X180875845Y-102750785D01*
X180779246Y-102770000D01*
X180680754Y-102770000D01*
X180584155Y-102750785D01*
X180493163Y-102713095D01*
X180493162Y-102713095D01*
X180493161Y-102713094D01*
X180411269Y-102658375D01*
X180411266Y-102658373D01*
X180341627Y-102588734D01*
X180286905Y-102506837D01*
X180249215Y-102415845D01*
X180230000Y-102319245D01*
X180230000Y-102220755D01*
X180249215Y-102124155D01*
X180286905Y-102033163D01*
X180311304Y-101996648D01*
X180341625Y-101951269D01*
X180341627Y-101951266D01*
X180411266Y-101881627D01*
X180457014Y-101851059D01*
X180493161Y-101826906D01*
X180584155Y-101789215D01*
X180680754Y-101770000D01*
X180779246Y-101770000D01*
X180875845Y-101789215D01*
X180875845Y-101789215D01*
G37*
G36*
X148450000Y-102500000D02*
X147550000Y-102500000D01*
X147550000Y-102000000D01*
X148450000Y-102000000D01*
X148450000Y-102500000D01*
X148450000Y-102500000D01*
G37*
G36*
X196073352Y-100075743D02*
X196218941Y-100136048D01*
X196349973Y-100223601D01*
X196461399Y-100335027D01*
X196548952Y-100466059D01*
X196609257Y-100611648D01*
X196640000Y-100766205D01*
X196640000Y-100923795D01*
X196609257Y-101078352D01*
X196548952Y-101223941D01*
X196461399Y-101354973D01*
X196349973Y-101466399D01*
X196218941Y-101553952D01*
X196073352Y-101614257D01*
X195918795Y-101645000D01*
X195761205Y-101645000D01*
X195606648Y-101614257D01*
X195461059Y-101553952D01*
X195330027Y-101466399D01*
X195218601Y-101354973D01*
X195131048Y-101223941D01*
X195070743Y-101078352D01*
X195040000Y-100923795D01*
X195040000Y-100766205D01*
X195070743Y-100611648D01*
X195131048Y-100466059D01*
X195218601Y-100335027D01*
X195330027Y-100223601D01*
X195461059Y-100136048D01*
X195606648Y-100075743D01*
X195761205Y-100045000D01*
X195918795Y-100045000D01*
X196073352Y-100075743D01*
X196073352Y-100075743D01*
G37*
G36*
X141685845Y-100519215D02*
X141776839Y-100556906D01*
X141857640Y-100610896D01*
X141858734Y-100611627D01*
X141928373Y-100681266D01*
X141928375Y-100681269D01*
X141983094Y-100763161D01*
X142020785Y-100854155D01*
X142040000Y-100950754D01*
X142040000Y-101049246D01*
X142034210Y-101078352D01*
X142020785Y-101145845D01*
X141983095Y-101236837D01*
X141928373Y-101318734D01*
X141858734Y-101388373D01*
X141858731Y-101388375D01*
X141776839Y-101443094D01*
X141685845Y-101480785D01*
X141589246Y-101500000D01*
X141490754Y-101500000D01*
X141394155Y-101480785D01*
X141303161Y-101443094D01*
X141221269Y-101388375D01*
X141221266Y-101388373D01*
X141151627Y-101318734D01*
X141096905Y-101236837D01*
X141059215Y-101145845D01*
X141045790Y-101078352D01*
X141040000Y-101049246D01*
X141040000Y-100950754D01*
X141059215Y-100854155D01*
X141096906Y-100763161D01*
X141151625Y-100681269D01*
X141151627Y-100681266D01*
X141221266Y-100611627D01*
X141222360Y-100610896D01*
X141303161Y-100556906D01*
X141394155Y-100519215D01*
X141490754Y-100500000D01*
X141589246Y-100500000D01*
X141685845Y-100519215D01*
X141685845Y-100519215D01*
G37*
G36*
X182500000Y-101500000D02*
X181500000Y-101500000D01*
X181500000Y-100500000D01*
X182500000Y-100500000D01*
X182500000Y-101500000D01*
X182500000Y-101500000D01*
G37*
G36*
X179605845Y-100519215D02*
X179696839Y-100556906D01*
X179777640Y-100610896D01*
X179778734Y-100611627D01*
X179848373Y-100681266D01*
X179848375Y-100681269D01*
X179903094Y-100763161D01*
X179940785Y-100854155D01*
X179960000Y-100950754D01*
X179960000Y-101049246D01*
X179954210Y-101078352D01*
X179940785Y-101145845D01*
X179903095Y-101236837D01*
X179848373Y-101318734D01*
X179778734Y-101388373D01*
X179778731Y-101388375D01*
X179696839Y-101443094D01*
X179605845Y-101480785D01*
X179509246Y-101500000D01*
X179410754Y-101500000D01*
X179314155Y-101480785D01*
X179223161Y-101443094D01*
X179141269Y-101388375D01*
X179141266Y-101388373D01*
X179071627Y-101318734D01*
X179016905Y-101236837D01*
X178979215Y-101145845D01*
X178965790Y-101078352D01*
X178960000Y-101049246D01*
X178960000Y-100950754D01*
X178979215Y-100854155D01*
X179016906Y-100763161D01*
X179071625Y-100681269D01*
X179071627Y-100681266D01*
X179141266Y-100611627D01*
X179142360Y-100610896D01*
X179223161Y-100556906D01*
X179314155Y-100519215D01*
X179410754Y-100500000D01*
X179509246Y-100500000D01*
X179605845Y-100519215D01*
X179605845Y-100519215D01*
G37*
G36*
X187450000Y-101500000D02*
X186550000Y-101500000D01*
X186550000Y-101000000D01*
X187450000Y-101000000D01*
X187450000Y-101500000D01*
X187450000Y-101500000D01*
G37*
G36*
X158685845Y-100519215D02*
X158776839Y-100556906D01*
X158857640Y-100610896D01*
X158858734Y-100611627D01*
X158928373Y-100681266D01*
X158928375Y-100681269D01*
X158983094Y-100763161D01*
X159020785Y-100854155D01*
X159040000Y-100950754D01*
X159040000Y-101049246D01*
X159034210Y-101078352D01*
X159020785Y-101145845D01*
X158983095Y-101236837D01*
X158928373Y-101318734D01*
X158858734Y-101388373D01*
X158858731Y-101388375D01*
X158776839Y-101443094D01*
X158685845Y-101480785D01*
X158589246Y-101500000D01*
X158490754Y-101500000D01*
X158394155Y-101480785D01*
X158303161Y-101443094D01*
X158221269Y-101388375D01*
X158221266Y-101388373D01*
X158151627Y-101318734D01*
X158096905Y-101236837D01*
X158059215Y-101145845D01*
X158045790Y-101078352D01*
X158040000Y-101049246D01*
X158040000Y-100950754D01*
X158059215Y-100854155D01*
X158096906Y-100763161D01*
X158151625Y-100681269D01*
X158151627Y-100681266D01*
X158221266Y-100611627D01*
X158222360Y-100610896D01*
X158303161Y-100556906D01*
X158394155Y-100519215D01*
X158490754Y-100500000D01*
X158589246Y-100500000D01*
X158685845Y-100519215D01*
X158685845Y-100519215D01*
G37*
G36*
X156500000Y-101500000D02*
X155500000Y-101500000D01*
X155500000Y-100500000D01*
X156500000Y-100500000D01*
X156500000Y-101500000D01*
X156500000Y-101500000D01*
G37*
G36*
X139500000Y-101500000D02*
X138500000Y-101500000D01*
X138500000Y-100500000D01*
X139500000Y-100500000D01*
X139500000Y-101500000D01*
X139500000Y-101500000D01*
G37*
G36*
X152450000Y-101000000D02*
X151550000Y-101000000D01*
X151550000Y-100500000D01*
X152450000Y-100500000D01*
X152450000Y-101000000D01*
X152450000Y-101000000D01*
G37*
G36*
X193233352Y-98690743D02*
X193378941Y-98751048D01*
X193509973Y-98838601D01*
X193621399Y-98950027D01*
X193708952Y-99081059D01*
X193769257Y-99226648D01*
X193800000Y-99381205D01*
X193800000Y-99538795D01*
X193769257Y-99693352D01*
X193708952Y-99838941D01*
X193621399Y-99969973D01*
X193509973Y-100081399D01*
X193378941Y-100168952D01*
X193233352Y-100229257D01*
X193078795Y-100260000D01*
X192921205Y-100260000D01*
X192766648Y-100229257D01*
X192621059Y-100168952D01*
X192490027Y-100081399D01*
X192378601Y-99969973D01*
X192291048Y-99838941D01*
X192230743Y-99693352D01*
X192200000Y-99538795D01*
X192200000Y-99381205D01*
X192230743Y-99226648D01*
X192291048Y-99081059D01*
X192378601Y-98950027D01*
X192490027Y-98838601D01*
X192621059Y-98751048D01*
X192766648Y-98690743D01*
X192921205Y-98660000D01*
X193078795Y-98660000D01*
X193233352Y-98690743D01*
X193233352Y-98690743D01*
G37*
G36*
X167900000Y-100250000D02*
X166100000Y-100250000D01*
X166100000Y-97750000D01*
X167900000Y-97750000D01*
X167900000Y-100250000D01*
X167900000Y-100250000D01*
G37*
G36*
X140415845Y-99249215D02*
X140506839Y-99286906D01*
X140587640Y-99340896D01*
X140588734Y-99341627D01*
X140658373Y-99411266D01*
X140713095Y-99493163D01*
X140731996Y-99538795D01*
X140750785Y-99584155D01*
X140770000Y-99680754D01*
X140770000Y-99779246D01*
X140750785Y-99875845D01*
X140713095Y-99966837D01*
X140658373Y-100048734D01*
X140588734Y-100118373D01*
X140588731Y-100118375D01*
X140506839Y-100173094D01*
X140415845Y-100210785D01*
X140319246Y-100230000D01*
X140220754Y-100230000D01*
X140124155Y-100210785D01*
X140033161Y-100173094D01*
X139951269Y-100118375D01*
X139951266Y-100118373D01*
X139881627Y-100048734D01*
X139826905Y-99966837D01*
X139789215Y-99875845D01*
X139770000Y-99779246D01*
X139770000Y-99680754D01*
X139789215Y-99584155D01*
X139808004Y-99538795D01*
X139826905Y-99493163D01*
X139881627Y-99411266D01*
X139951266Y-99341627D01*
X139952360Y-99340896D01*
X140033161Y-99286906D01*
X140124155Y-99249215D01*
X140220754Y-99230000D01*
X140319246Y-99230000D01*
X140415845Y-99249215D01*
X140415845Y-99249215D01*
G37*
G36*
X157415845Y-99249215D02*
X157506839Y-99286906D01*
X157587640Y-99340896D01*
X157588734Y-99341627D01*
X157658373Y-99411266D01*
X157713095Y-99493163D01*
X157731996Y-99538795D01*
X157750785Y-99584155D01*
X157770000Y-99680754D01*
X157770000Y-99779246D01*
X157750785Y-99875845D01*
X157713095Y-99966837D01*
X157658373Y-100048734D01*
X157588734Y-100118373D01*
X157588731Y-100118375D01*
X157506839Y-100173094D01*
X157415845Y-100210785D01*
X157319246Y-100230000D01*
X157220754Y-100230000D01*
X157124155Y-100210785D01*
X157033161Y-100173094D01*
X156951269Y-100118375D01*
X156951266Y-100118373D01*
X156881627Y-100048734D01*
X156826905Y-99966837D01*
X156789215Y-99875845D01*
X156770000Y-99779246D01*
X156770000Y-99680754D01*
X156789215Y-99584155D01*
X156808004Y-99538795D01*
X156826905Y-99493163D01*
X156881627Y-99411266D01*
X156951266Y-99341627D01*
X156952360Y-99340896D01*
X157033161Y-99286906D01*
X157124155Y-99249215D01*
X157220754Y-99230000D01*
X157319246Y-99230000D01*
X157415845Y-99249215D01*
X157415845Y-99249215D01*
G37*
G36*
X152450000Y-99500000D02*
X151550000Y-99500000D01*
X151550000Y-99000000D01*
X152450000Y-99000000D01*
X152450000Y-99500000D01*
X152450000Y-99500000D01*
G37*
G36*
X163000000Y-99450000D02*
X162500000Y-99450000D01*
X162500000Y-98550000D01*
X163000000Y-98550000D01*
X163000000Y-99450000D01*
X163000000Y-99450000D01*
G37*
G36*
X161500000Y-99450000D02*
X161000000Y-99450000D01*
X161000000Y-98550000D01*
X161500000Y-98550000D01*
X161500000Y-99450000D01*
X161500000Y-99450000D01*
G37*
G36*
X196073352Y-97305743D02*
X196218941Y-97366048D01*
X196349973Y-97453601D01*
X196461399Y-97565027D01*
X196548952Y-97696059D01*
X196609257Y-97841648D01*
X196640000Y-97996205D01*
X196640000Y-98153795D01*
X196609257Y-98308352D01*
X196548952Y-98453941D01*
X196461399Y-98584973D01*
X196349973Y-98696399D01*
X196218941Y-98783952D01*
X196073352Y-98844257D01*
X195918795Y-98875000D01*
X195761205Y-98875000D01*
X195606648Y-98844257D01*
X195461059Y-98783952D01*
X195330027Y-98696399D01*
X195218601Y-98584973D01*
X195131048Y-98453941D01*
X195070743Y-98308352D01*
X195040000Y-98153795D01*
X195040000Y-97996205D01*
X195070743Y-97841648D01*
X195131048Y-97696059D01*
X195218601Y-97565027D01*
X195330027Y-97453601D01*
X195461059Y-97366048D01*
X195606648Y-97305743D01*
X195761205Y-97275000D01*
X195918795Y-97275000D01*
X196073352Y-97305743D01*
X196073352Y-97305743D01*
G37*
G36*
X130250000Y-98450000D02*
X129750000Y-98450000D01*
X129750000Y-97550000D01*
X130250000Y-97550000D01*
X130250000Y-98450000D01*
X130250000Y-98450000D01*
G37*
G36*
X131750000Y-98450000D02*
X131250000Y-98450000D01*
X131250000Y-97550000D01*
X131750000Y-97550000D01*
X131750000Y-98450000D01*
X131750000Y-98450000D01*
G37*
G36*
X193233352Y-95920743D02*
X193378941Y-95981048D01*
X193509973Y-96068601D01*
X193621399Y-96180027D01*
X193708952Y-96311059D01*
X193769257Y-96456648D01*
X193800000Y-96611205D01*
X193800000Y-96768795D01*
X193769257Y-96923352D01*
X193708952Y-97068941D01*
X193621399Y-97199973D01*
X193509973Y-97311399D01*
X193378941Y-97398952D01*
X193233352Y-97459257D01*
X193078795Y-97490000D01*
X192921205Y-97490000D01*
X192766648Y-97459257D01*
X192621059Y-97398952D01*
X192490027Y-97311399D01*
X192378601Y-97199973D01*
X192291048Y-97068941D01*
X192230743Y-96923352D01*
X192200000Y-96768795D01*
X192200000Y-96611205D01*
X192230743Y-96456648D01*
X192291048Y-96311059D01*
X192378601Y-96180027D01*
X192490027Y-96068601D01*
X192621059Y-95981048D01*
X192766648Y-95920743D01*
X192921205Y-95890000D01*
X193078795Y-95890000D01*
X193233352Y-95920743D01*
X193233352Y-95920743D01*
G37*
G36*
X152450000Y-97250000D02*
X151550000Y-97250000D01*
X151550000Y-96750000D01*
X152450000Y-96750000D01*
X152450000Y-97250000D01*
X152450000Y-97250000D01*
G37*
G36*
X196073352Y-94535743D02*
X196218941Y-94596048D01*
X196349973Y-94683601D01*
X196461399Y-94795027D01*
X196548952Y-94926059D01*
X196609257Y-95071648D01*
X196640000Y-95226205D01*
X196640000Y-95383795D01*
X196609257Y-95538352D01*
X196548952Y-95683941D01*
X196461399Y-95814973D01*
X196349973Y-95926399D01*
X196218941Y-96013952D01*
X196073352Y-96074257D01*
X195918795Y-96105000D01*
X195761205Y-96105000D01*
X195606648Y-96074257D01*
X195461059Y-96013952D01*
X195330027Y-95926399D01*
X195218601Y-95814973D01*
X195131048Y-95683941D01*
X195070743Y-95538352D01*
X195040000Y-95383795D01*
X195040000Y-95226205D01*
X195070743Y-95071648D01*
X195131048Y-94926059D01*
X195218601Y-94795027D01*
X195330027Y-94683601D01*
X195461059Y-94596048D01*
X195606648Y-94535743D01*
X195761205Y-94505000D01*
X195918795Y-94505000D01*
X196073352Y-94535743D01*
X196073352Y-94535743D01*
G37*
G36*
X162450000Y-95750000D02*
X161550000Y-95750000D01*
X161550000Y-95250000D01*
X162450000Y-95250000D01*
X162450000Y-95750000D01*
X162450000Y-95750000D01*
G37*
G36*
X152450000Y-95750000D02*
X151550000Y-95750000D01*
X151550000Y-95250000D01*
X152450000Y-95250000D01*
X152450000Y-95750000D01*
X152450000Y-95750000D01*
G37*
G36*
X193233352Y-93150743D02*
X193378941Y-93211048D01*
X193509973Y-93298601D01*
X193621399Y-93410027D01*
X193708952Y-93541059D01*
X193769257Y-93686648D01*
X193800000Y-93841205D01*
X193800000Y-93998795D01*
X193769257Y-94153352D01*
X193708952Y-94298941D01*
X193621399Y-94429973D01*
X193509973Y-94541399D01*
X193378941Y-94628952D01*
X193233352Y-94689257D01*
X193078795Y-94720000D01*
X192921205Y-94720000D01*
X192766648Y-94689257D01*
X192621059Y-94628952D01*
X192490027Y-94541399D01*
X192378601Y-94429973D01*
X192291048Y-94298941D01*
X192230743Y-94153352D01*
X192200000Y-93998795D01*
X192200000Y-93841205D01*
X192230743Y-93686648D01*
X192291048Y-93541059D01*
X192378601Y-93410027D01*
X192490027Y-93298601D01*
X192621059Y-93211048D01*
X192766648Y-93150743D01*
X192921205Y-93120000D01*
X193078795Y-93120000D01*
X193233352Y-93150743D01*
X193233352Y-93150743D01*
G37*
G36*
X162450000Y-94250000D02*
X161550000Y-94250000D01*
X161550000Y-93750000D01*
X162450000Y-93750000D01*
X162450000Y-94250000D01*
X162450000Y-94250000D01*
G37*
G36*
X156500000Y-93500000D02*
X155500000Y-93500000D01*
X155500000Y-92500000D01*
X156500000Y-92500000D01*
X156500000Y-93500000D01*
X156500000Y-93500000D01*
G37*
G36*
X158685845Y-92519215D02*
X158776839Y-92556906D01*
X158857640Y-92610896D01*
X158858734Y-92611627D01*
X158928373Y-92681266D01*
X158928375Y-92681269D01*
X158983094Y-92763161D01*
X159020785Y-92854155D01*
X159040000Y-92950754D01*
X159040000Y-93049246D01*
X159020785Y-93145845D01*
X158983094Y-93236839D01*
X158929104Y-93317640D01*
X158928373Y-93318734D01*
X158858734Y-93388373D01*
X158858731Y-93388375D01*
X158776839Y-93443094D01*
X158685845Y-93480785D01*
X158589246Y-93500000D01*
X158490754Y-93500000D01*
X158394155Y-93480785D01*
X158303161Y-93443094D01*
X158221269Y-93388375D01*
X158221266Y-93388373D01*
X158151627Y-93318734D01*
X158150896Y-93317640D01*
X158096906Y-93236839D01*
X158059215Y-93145845D01*
X158040000Y-93049246D01*
X158040000Y-92950754D01*
X158059215Y-92854155D01*
X158096906Y-92763161D01*
X158151625Y-92681269D01*
X158151627Y-92681266D01*
X158221266Y-92611627D01*
X158222360Y-92610896D01*
X158303161Y-92556906D01*
X158394155Y-92519215D01*
X158490754Y-92500000D01*
X158589246Y-92500000D01*
X158685845Y-92519215D01*
X158685845Y-92519215D01*
G37*
G36*
X152450000Y-93250000D02*
X151550000Y-93250000D01*
X151550000Y-92750000D01*
X152450000Y-92750000D01*
X152450000Y-93250000D01*
X152450000Y-93250000D01*
G37*
G36*
X145500000Y-92450000D02*
X145000000Y-92450000D01*
X145000000Y-91550000D01*
X145500000Y-91550000D01*
X145500000Y-92450000D01*
X145500000Y-92450000D01*
G37*
G36*
X147000000Y-92450000D02*
X146500000Y-92450000D01*
X146500000Y-91550000D01*
X147000000Y-91550000D01*
X147000000Y-92450000D01*
X147000000Y-92450000D01*
G37*
G36*
X157415845Y-91249215D02*
X157506839Y-91286906D01*
X157587640Y-91340896D01*
X157588734Y-91341627D01*
X157658373Y-91411266D01*
X157713095Y-91493163D01*
X157750785Y-91584155D01*
X157770000Y-91680755D01*
X157770000Y-91779245D01*
X157750785Y-91875845D01*
X157713095Y-91966837D01*
X157658373Y-92048734D01*
X157588734Y-92118373D01*
X157588731Y-92118375D01*
X157506839Y-92173094D01*
X157415845Y-92210785D01*
X157319246Y-92230000D01*
X157220754Y-92230000D01*
X157124155Y-92210785D01*
X157033161Y-92173094D01*
X156951269Y-92118375D01*
X156951266Y-92118373D01*
X156881627Y-92048734D01*
X156826905Y-91966837D01*
X156789215Y-91875845D01*
X156770000Y-91779245D01*
X156770000Y-91680755D01*
X156789215Y-91584155D01*
X156826905Y-91493163D01*
X156881627Y-91411266D01*
X156951266Y-91341627D01*
X156952360Y-91340896D01*
X157033161Y-91286906D01*
X157124155Y-91249215D01*
X157220754Y-91230000D01*
X157319246Y-91230000D01*
X157415845Y-91249215D01*
X157415845Y-91249215D01*
G37*
G36*
X152450000Y-91750000D02*
X151550000Y-91750000D01*
X151550000Y-91250000D01*
X152450000Y-91250000D01*
X152450000Y-91750000D01*
X152450000Y-91750000D01*
G37*
G36*
X139500000Y-90450000D02*
X139000000Y-90450000D01*
X139000000Y-89550000D01*
X139500000Y-89550000D01*
X139500000Y-90450000D01*
X139500000Y-90450000D01*
G37*
G36*
X141000000Y-90450000D02*
X140500000Y-90450000D01*
X140500000Y-89550000D01*
X141000000Y-89550000D01*
X141000000Y-90450000D01*
X141000000Y-90450000D01*
G37*
G36*
X193883378Y-85036859D02*
X194247354Y-85187622D01*
X194574929Y-85406501D01*
X194853499Y-85685071D01*
X195072378Y-86012646D01*
X195223141Y-86376622D01*
X195300000Y-86763016D01*
X195300000Y-87156984D01*
X195223141Y-87543378D01*
X195072378Y-87907354D01*
X194853499Y-88234929D01*
X194574929Y-88513499D01*
X194247354Y-88732378D01*
X193883378Y-88883141D01*
X193496984Y-88960000D01*
X193103016Y-88960000D01*
X192716622Y-88883141D01*
X192352646Y-88732378D01*
X192025071Y-88513499D01*
X191746501Y-88234929D01*
X191527622Y-87907354D01*
X191376859Y-87543378D01*
X191300000Y-87156984D01*
X191300000Y-86763016D01*
X191376859Y-86376622D01*
X191527622Y-86012646D01*
X191746501Y-85685071D01*
X192025071Y-85406501D01*
X192352646Y-85187622D01*
X192716622Y-85036859D01*
X193103016Y-84960000D01*
X193496984Y-84960000D01*
X193883378Y-85036859D01*
X193883378Y-85036859D01*
G37*
G36*
X138637649Y-85827717D02*
X138676827Y-85831576D01*
X138752228Y-85854449D01*
X138827629Y-85877321D01*
X138966608Y-85951608D01*
X139088422Y-86051578D01*
X139188392Y-86173392D01*
X139262679Y-86312371D01*
X139308424Y-86463174D01*
X139323870Y-86620000D01*
X139308424Y-86776826D01*
X139262679Y-86927629D01*
X139188392Y-87066608D01*
X139088422Y-87188422D01*
X138966608Y-87288392D01*
X138827629Y-87362679D01*
X138752227Y-87385552D01*
X138676827Y-87408424D01*
X138637649Y-87412283D01*
X138559295Y-87420000D01*
X138480705Y-87420000D01*
X138402351Y-87412283D01*
X138363173Y-87408424D01*
X138287773Y-87385552D01*
X138212371Y-87362679D01*
X138073392Y-87288392D01*
X137951578Y-87188422D01*
X137851608Y-87066608D01*
X137777321Y-86927629D01*
X137731576Y-86776826D01*
X137716130Y-86620000D01*
X137731576Y-86463174D01*
X137777321Y-86312371D01*
X137851608Y-86173392D01*
X137951578Y-86051578D01*
X138073392Y-85951608D01*
X138212371Y-85877321D01*
X138287772Y-85854449D01*
X138363173Y-85831576D01*
X138402351Y-85827717D01*
X138480705Y-85820000D01*
X138559295Y-85820000D01*
X138637649Y-85827717D01*
X138637649Y-85827717D01*
G37*
G36*
X141177649Y-85827717D02*
X141216827Y-85831576D01*
X141292228Y-85854449D01*
X141367629Y-85877321D01*
X141506608Y-85951608D01*
X141628422Y-86051578D01*
X141728392Y-86173392D01*
X141802679Y-86312371D01*
X141848424Y-86463174D01*
X141863870Y-86620000D01*
X141848424Y-86776826D01*
X141802679Y-86927629D01*
X141728392Y-87066608D01*
X141628422Y-87188422D01*
X141506608Y-87288392D01*
X141367629Y-87362679D01*
X141292227Y-87385552D01*
X141216827Y-87408424D01*
X141177649Y-87412283D01*
X141099295Y-87420000D01*
X141020705Y-87420000D01*
X140942351Y-87412283D01*
X140903173Y-87408424D01*
X140827773Y-87385552D01*
X140752371Y-87362679D01*
X140613392Y-87288392D01*
X140491578Y-87188422D01*
X140391608Y-87066608D01*
X140317321Y-86927629D01*
X140271576Y-86776826D01*
X140256130Y-86620000D01*
X140271576Y-86463174D01*
X140317321Y-86312371D01*
X140391608Y-86173392D01*
X140491578Y-86051578D01*
X140613392Y-85951608D01*
X140752371Y-85877321D01*
X140827772Y-85854449D01*
X140903173Y-85831576D01*
X140942351Y-85827717D01*
X141020705Y-85820000D01*
X141099295Y-85820000D01*
X141177649Y-85827717D01*
X141177649Y-85827717D01*
G37*
G36*
X143717649Y-85827717D02*
X143756827Y-85831576D01*
X143832228Y-85854449D01*
X143907629Y-85877321D01*
X144046608Y-85951608D01*
X144168422Y-86051578D01*
X144268392Y-86173392D01*
X144342679Y-86312371D01*
X144388424Y-86463174D01*
X144403870Y-86620000D01*
X144388424Y-86776826D01*
X144342679Y-86927629D01*
X144268392Y-87066608D01*
X144168422Y-87188422D01*
X144046608Y-87288392D01*
X143907629Y-87362679D01*
X143832227Y-87385552D01*
X143756827Y-87408424D01*
X143717649Y-87412283D01*
X143639295Y-87420000D01*
X143560705Y-87420000D01*
X143482351Y-87412283D01*
X143443173Y-87408424D01*
X143367773Y-87385552D01*
X143292371Y-87362679D01*
X143153392Y-87288392D01*
X143031578Y-87188422D01*
X142931608Y-87066608D01*
X142857321Y-86927629D01*
X142811576Y-86776826D01*
X142796130Y-86620000D01*
X142811576Y-86463174D01*
X142857321Y-86312371D01*
X142931608Y-86173392D01*
X143031578Y-86051578D01*
X143153392Y-85951608D01*
X143292371Y-85877321D01*
X143367772Y-85854449D01*
X143443173Y-85831576D01*
X143482351Y-85827717D01*
X143560705Y-85820000D01*
X143639295Y-85820000D01*
X143717649Y-85827717D01*
X143717649Y-85827717D01*
G37*
G36*
X146257649Y-85827717D02*
X146296827Y-85831576D01*
X146372228Y-85854449D01*
X146447629Y-85877321D01*
X146586608Y-85951608D01*
X146708422Y-86051578D01*
X146808392Y-86173392D01*
X146882679Y-86312371D01*
X146928424Y-86463174D01*
X146943870Y-86620000D01*
X146928424Y-86776826D01*
X146882679Y-86927629D01*
X146808392Y-87066608D01*
X146708422Y-87188422D01*
X146586608Y-87288392D01*
X146447629Y-87362679D01*
X146372227Y-87385552D01*
X146296827Y-87408424D01*
X146257649Y-87412283D01*
X146179295Y-87420000D01*
X146100705Y-87420000D01*
X146022351Y-87412283D01*
X145983173Y-87408424D01*
X145907773Y-87385552D01*
X145832371Y-87362679D01*
X145693392Y-87288392D01*
X145571578Y-87188422D01*
X145471608Y-87066608D01*
X145397321Y-86927629D01*
X145351576Y-86776826D01*
X145336130Y-86620000D01*
X145351576Y-86463174D01*
X145397321Y-86312371D01*
X145471608Y-86173392D01*
X145571578Y-86051578D01*
X145693392Y-85951608D01*
X145832371Y-85877321D01*
X145907772Y-85854449D01*
X145983173Y-85831576D01*
X146022351Y-85827717D01*
X146100705Y-85820000D01*
X146179295Y-85820000D01*
X146257649Y-85827717D01*
X146257649Y-85827717D01*
G37*
G36*
X148797649Y-85827717D02*
X148836827Y-85831576D01*
X148912228Y-85854449D01*
X148987629Y-85877321D01*
X149126608Y-85951608D01*
X149248422Y-86051578D01*
X149348392Y-86173392D01*
X149422679Y-86312371D01*
X149468424Y-86463174D01*
X149483870Y-86620000D01*
X149468424Y-86776826D01*
X149422679Y-86927629D01*
X149348392Y-87066608D01*
X149248422Y-87188422D01*
X149126608Y-87288392D01*
X148987629Y-87362679D01*
X148912227Y-87385552D01*
X148836827Y-87408424D01*
X148797649Y-87412283D01*
X148719295Y-87420000D01*
X148640705Y-87420000D01*
X148562351Y-87412283D01*
X148523173Y-87408424D01*
X148447773Y-87385552D01*
X148372371Y-87362679D01*
X148233392Y-87288392D01*
X148111578Y-87188422D01*
X148011608Y-87066608D01*
X147937321Y-86927629D01*
X147891576Y-86776826D01*
X147876130Y-86620000D01*
X147891576Y-86463174D01*
X147937321Y-86312371D01*
X148011608Y-86173392D01*
X148111578Y-86051578D01*
X148233392Y-85951608D01*
X148372371Y-85877321D01*
X148447772Y-85854449D01*
X148523173Y-85831576D01*
X148562351Y-85827717D01*
X148640705Y-85820000D01*
X148719295Y-85820000D01*
X148797649Y-85827717D01*
X148797649Y-85827717D01*
G37*
G36*
X153877649Y-85827717D02*
X153916827Y-85831576D01*
X153992228Y-85854449D01*
X154067629Y-85877321D01*
X154206608Y-85951608D01*
X154328422Y-86051578D01*
X154428392Y-86173392D01*
X154502679Y-86312371D01*
X154548424Y-86463174D01*
X154563870Y-86620000D01*
X154548424Y-86776826D01*
X154502679Y-86927629D01*
X154428392Y-87066608D01*
X154328422Y-87188422D01*
X154206608Y-87288392D01*
X154067629Y-87362679D01*
X153992227Y-87385552D01*
X153916827Y-87408424D01*
X153877649Y-87412283D01*
X153799295Y-87420000D01*
X153720705Y-87420000D01*
X153642351Y-87412283D01*
X153603173Y-87408424D01*
X153527773Y-87385552D01*
X153452371Y-87362679D01*
X153313392Y-87288392D01*
X153191578Y-87188422D01*
X153091608Y-87066608D01*
X153017321Y-86927629D01*
X152971576Y-86776826D01*
X152956130Y-86620000D01*
X152971576Y-86463174D01*
X153017321Y-86312371D01*
X153091608Y-86173392D01*
X153191578Y-86051578D01*
X153313392Y-85951608D01*
X153452371Y-85877321D01*
X153527772Y-85854449D01*
X153603173Y-85831576D01*
X153642351Y-85827717D01*
X153720705Y-85820000D01*
X153799295Y-85820000D01*
X153877649Y-85827717D01*
X153877649Y-85827717D01*
G37*
G36*
X136097649Y-85827717D02*
X136136827Y-85831576D01*
X136212228Y-85854449D01*
X136287629Y-85877321D01*
X136426608Y-85951608D01*
X136548422Y-86051578D01*
X136648392Y-86173392D01*
X136722679Y-86312371D01*
X136768424Y-86463174D01*
X136783870Y-86620000D01*
X136768424Y-86776826D01*
X136722679Y-86927629D01*
X136648392Y-87066608D01*
X136548422Y-87188422D01*
X136426608Y-87288392D01*
X136287629Y-87362679D01*
X136212227Y-87385552D01*
X136136827Y-87408424D01*
X136097649Y-87412283D01*
X136019295Y-87420000D01*
X135940705Y-87420000D01*
X135862351Y-87412283D01*
X135823173Y-87408424D01*
X135747773Y-87385552D01*
X135672371Y-87362679D01*
X135533392Y-87288392D01*
X135411578Y-87188422D01*
X135311608Y-87066608D01*
X135237321Y-86927629D01*
X135191576Y-86776826D01*
X135176130Y-86620000D01*
X135191576Y-86463174D01*
X135237321Y-86312371D01*
X135311608Y-86173392D01*
X135411578Y-86051578D01*
X135533392Y-85951608D01*
X135672371Y-85877321D01*
X135747772Y-85854449D01*
X135823173Y-85831576D01*
X135862351Y-85827717D01*
X135940705Y-85820000D01*
X136019295Y-85820000D01*
X136097649Y-85827717D01*
X136097649Y-85827717D01*
G37*
G36*
X158957649Y-85827717D02*
X158996827Y-85831576D01*
X159072228Y-85854449D01*
X159147629Y-85877321D01*
X159286608Y-85951608D01*
X159408422Y-86051578D01*
X159508392Y-86173392D01*
X159582679Y-86312371D01*
X159628424Y-86463174D01*
X159643870Y-86620000D01*
X159628424Y-86776826D01*
X159582679Y-86927629D01*
X159508392Y-87066608D01*
X159408422Y-87188422D01*
X159286608Y-87288392D01*
X159147629Y-87362679D01*
X159072227Y-87385552D01*
X158996827Y-87408424D01*
X158957649Y-87412283D01*
X158879295Y-87420000D01*
X158800705Y-87420000D01*
X158722351Y-87412283D01*
X158683173Y-87408424D01*
X158607773Y-87385552D01*
X158532371Y-87362679D01*
X158393392Y-87288392D01*
X158271578Y-87188422D01*
X158171608Y-87066608D01*
X158097321Y-86927629D01*
X158051576Y-86776826D01*
X158036130Y-86620000D01*
X158051576Y-86463174D01*
X158097321Y-86312371D01*
X158171608Y-86173392D01*
X158271578Y-86051578D01*
X158393392Y-85951608D01*
X158532371Y-85877321D01*
X158607772Y-85854449D01*
X158683173Y-85831576D01*
X158722351Y-85827717D01*
X158800705Y-85820000D01*
X158879295Y-85820000D01*
X158957649Y-85827717D01*
X158957649Y-85827717D01*
G37*
G36*
X164037649Y-85827717D02*
X164076827Y-85831576D01*
X164152228Y-85854449D01*
X164227629Y-85877321D01*
X164366608Y-85951608D01*
X164488422Y-86051578D01*
X164588392Y-86173392D01*
X164662679Y-86312371D01*
X164708424Y-86463174D01*
X164723870Y-86620000D01*
X164708424Y-86776826D01*
X164662679Y-86927629D01*
X164588392Y-87066608D01*
X164488422Y-87188422D01*
X164366608Y-87288392D01*
X164227629Y-87362679D01*
X164152227Y-87385552D01*
X164076827Y-87408424D01*
X164037649Y-87412283D01*
X163959295Y-87420000D01*
X163880705Y-87420000D01*
X163802351Y-87412283D01*
X163763173Y-87408424D01*
X163687773Y-87385552D01*
X163612371Y-87362679D01*
X163473392Y-87288392D01*
X163351578Y-87188422D01*
X163251608Y-87066608D01*
X163177321Y-86927629D01*
X163131576Y-86776826D01*
X163116130Y-86620000D01*
X163131576Y-86463174D01*
X163177321Y-86312371D01*
X163251608Y-86173392D01*
X163351578Y-86051578D01*
X163473392Y-85951608D01*
X163612371Y-85877321D01*
X163687772Y-85854449D01*
X163763173Y-85831576D01*
X163802351Y-85827717D01*
X163880705Y-85820000D01*
X163959295Y-85820000D01*
X164037649Y-85827717D01*
X164037649Y-85827717D01*
G37*
G36*
X166577649Y-85827717D02*
X166616827Y-85831576D01*
X166692228Y-85854449D01*
X166767629Y-85877321D01*
X166906608Y-85951608D01*
X167028422Y-86051578D01*
X167128392Y-86173392D01*
X167202679Y-86312371D01*
X167248424Y-86463174D01*
X167263870Y-86620000D01*
X167248424Y-86776826D01*
X167202679Y-86927629D01*
X167128392Y-87066608D01*
X167028422Y-87188422D01*
X166906608Y-87288392D01*
X166767629Y-87362679D01*
X166692227Y-87385552D01*
X166616827Y-87408424D01*
X166577649Y-87412283D01*
X166499295Y-87420000D01*
X166420705Y-87420000D01*
X166342351Y-87412283D01*
X166303173Y-87408424D01*
X166227773Y-87385552D01*
X166152371Y-87362679D01*
X166013392Y-87288392D01*
X165891578Y-87188422D01*
X165791608Y-87066608D01*
X165717321Y-86927629D01*
X165671576Y-86776826D01*
X165656130Y-86620000D01*
X165671576Y-86463174D01*
X165717321Y-86312371D01*
X165791608Y-86173392D01*
X165891578Y-86051578D01*
X166013392Y-85951608D01*
X166152371Y-85877321D01*
X166227772Y-85854449D01*
X166303173Y-85831576D01*
X166342351Y-85827717D01*
X166420705Y-85820000D01*
X166499295Y-85820000D01*
X166577649Y-85827717D01*
X166577649Y-85827717D01*
G37*
G36*
X169117649Y-85827717D02*
X169156827Y-85831576D01*
X169232228Y-85854449D01*
X169307629Y-85877321D01*
X169446608Y-85951608D01*
X169568422Y-86051578D01*
X169668392Y-86173392D01*
X169742679Y-86312371D01*
X169788424Y-86463174D01*
X169803870Y-86620000D01*
X169788424Y-86776826D01*
X169742679Y-86927629D01*
X169668392Y-87066608D01*
X169568422Y-87188422D01*
X169446608Y-87288392D01*
X169307629Y-87362679D01*
X169232227Y-87385552D01*
X169156827Y-87408424D01*
X169117649Y-87412283D01*
X169039295Y-87420000D01*
X168960705Y-87420000D01*
X168882351Y-87412283D01*
X168843173Y-87408424D01*
X168767773Y-87385552D01*
X168692371Y-87362679D01*
X168553392Y-87288392D01*
X168431578Y-87188422D01*
X168331608Y-87066608D01*
X168257321Y-86927629D01*
X168211576Y-86776826D01*
X168196130Y-86620000D01*
X168211576Y-86463174D01*
X168257321Y-86312371D01*
X168331608Y-86173392D01*
X168431578Y-86051578D01*
X168553392Y-85951608D01*
X168692371Y-85877321D01*
X168767772Y-85854449D01*
X168843173Y-85831576D01*
X168882351Y-85827717D01*
X168960705Y-85820000D01*
X169039295Y-85820000D01*
X169117649Y-85827717D01*
X169117649Y-85827717D01*
G37*
G36*
X151337649Y-85827717D02*
X151376827Y-85831576D01*
X151452228Y-85854449D01*
X151527629Y-85877321D01*
X151666608Y-85951608D01*
X151788422Y-86051578D01*
X151888392Y-86173392D01*
X151962679Y-86312371D01*
X152008424Y-86463174D01*
X152023870Y-86620000D01*
X152008424Y-86776826D01*
X151962679Y-86927629D01*
X151888392Y-87066608D01*
X151788422Y-87188422D01*
X151666608Y-87288392D01*
X151527629Y-87362679D01*
X151452227Y-87385552D01*
X151376827Y-87408424D01*
X151337649Y-87412283D01*
X151259295Y-87420000D01*
X151180705Y-87420000D01*
X151102351Y-87412283D01*
X151063173Y-87408424D01*
X150987773Y-87385552D01*
X150912371Y-87362679D01*
X150773392Y-87288392D01*
X150651578Y-87188422D01*
X150551608Y-87066608D01*
X150477321Y-86927629D01*
X150431576Y-86776826D01*
X150416130Y-86620000D01*
X150431576Y-86463174D01*
X150477321Y-86312371D01*
X150551608Y-86173392D01*
X150651578Y-86051578D01*
X150773392Y-85951608D01*
X150912371Y-85877321D01*
X150987772Y-85854449D01*
X151063173Y-85831576D01*
X151102351Y-85827717D01*
X151180705Y-85820000D01*
X151259295Y-85820000D01*
X151337649Y-85827717D01*
X151337649Y-85827717D01*
G37*
G36*
X187737649Y-85827717D02*
X187776827Y-85831576D01*
X187852228Y-85854449D01*
X187927629Y-85877321D01*
X188066608Y-85951608D01*
X188188422Y-86051578D01*
X188288392Y-86173392D01*
X188362679Y-86312371D01*
X188408424Y-86463174D01*
X188423870Y-86620000D01*
X188408424Y-86776826D01*
X188362679Y-86927629D01*
X188288392Y-87066608D01*
X188188422Y-87188422D01*
X188066608Y-87288392D01*
X187927629Y-87362679D01*
X187852227Y-87385552D01*
X187776827Y-87408424D01*
X187737649Y-87412283D01*
X187659295Y-87420000D01*
X187580705Y-87420000D01*
X187502351Y-87412283D01*
X187463173Y-87408424D01*
X187387773Y-87385552D01*
X187312371Y-87362679D01*
X187173392Y-87288392D01*
X187051578Y-87188422D01*
X186951608Y-87066608D01*
X186877321Y-86927629D01*
X186831576Y-86776826D01*
X186816130Y-86620000D01*
X186831576Y-86463174D01*
X186877321Y-86312371D01*
X186951608Y-86173392D01*
X187051578Y-86051578D01*
X187173392Y-85951608D01*
X187312371Y-85877321D01*
X187387772Y-85854449D01*
X187463173Y-85831576D01*
X187502351Y-85827717D01*
X187580705Y-85820000D01*
X187659295Y-85820000D01*
X187737649Y-85827717D01*
X187737649Y-85827717D01*
G37*
G36*
X180117649Y-85827717D02*
X180156827Y-85831576D01*
X180232228Y-85854449D01*
X180307629Y-85877321D01*
X180446608Y-85951608D01*
X180568422Y-86051578D01*
X180668392Y-86173392D01*
X180742679Y-86312371D01*
X180788424Y-86463174D01*
X180803870Y-86620000D01*
X180788424Y-86776826D01*
X180742679Y-86927629D01*
X180668392Y-87066608D01*
X180568422Y-87188422D01*
X180446608Y-87288392D01*
X180307629Y-87362679D01*
X180232227Y-87385552D01*
X180156827Y-87408424D01*
X180117649Y-87412283D01*
X180039295Y-87420000D01*
X179960705Y-87420000D01*
X179882351Y-87412283D01*
X179843173Y-87408424D01*
X179767773Y-87385552D01*
X179692371Y-87362679D01*
X179553392Y-87288392D01*
X179431578Y-87188422D01*
X179331608Y-87066608D01*
X179257321Y-86927629D01*
X179211576Y-86776826D01*
X179196130Y-86620000D01*
X179211576Y-86463174D01*
X179257321Y-86312371D01*
X179331608Y-86173392D01*
X179431578Y-86051578D01*
X179553392Y-85951608D01*
X179692371Y-85877321D01*
X179767772Y-85854449D01*
X179843173Y-85831576D01*
X179882351Y-85827717D01*
X179960705Y-85820000D01*
X180039295Y-85820000D01*
X180117649Y-85827717D01*
X180117649Y-85827717D01*
G37*
G36*
X156417649Y-85827717D02*
X156456827Y-85831576D01*
X156532228Y-85854449D01*
X156607629Y-85877321D01*
X156746608Y-85951608D01*
X156868422Y-86051578D01*
X156968392Y-86173392D01*
X157042679Y-86312371D01*
X157088424Y-86463174D01*
X157103870Y-86620000D01*
X157088424Y-86776826D01*
X157042679Y-86927629D01*
X156968392Y-87066608D01*
X156868422Y-87188422D01*
X156746608Y-87288392D01*
X156607629Y-87362679D01*
X156532227Y-87385552D01*
X156456827Y-87408424D01*
X156417649Y-87412283D01*
X156339295Y-87420000D01*
X156260705Y-87420000D01*
X156182351Y-87412283D01*
X156143173Y-87408424D01*
X156067773Y-87385552D01*
X155992371Y-87362679D01*
X155853392Y-87288392D01*
X155731578Y-87188422D01*
X155631608Y-87066608D01*
X155557321Y-86927629D01*
X155511576Y-86776826D01*
X155496130Y-86620000D01*
X155511576Y-86463174D01*
X155557321Y-86312371D01*
X155631608Y-86173392D01*
X155731578Y-86051578D01*
X155853392Y-85951608D01*
X155992371Y-85877321D01*
X156067772Y-85854449D01*
X156143173Y-85831576D01*
X156182351Y-85827717D01*
X156260705Y-85820000D01*
X156339295Y-85820000D01*
X156417649Y-85827717D01*
X156417649Y-85827717D01*
G37*
G36*
X161497649Y-85827717D02*
X161536827Y-85831576D01*
X161612228Y-85854449D01*
X161687629Y-85877321D01*
X161826608Y-85951608D01*
X161948422Y-86051578D01*
X162048392Y-86173392D01*
X162122679Y-86312371D01*
X162168424Y-86463174D01*
X162183870Y-86620000D01*
X162168424Y-86776826D01*
X162122679Y-86927629D01*
X162048392Y-87066608D01*
X161948422Y-87188422D01*
X161826608Y-87288392D01*
X161687629Y-87362679D01*
X161612227Y-87385552D01*
X161536827Y-87408424D01*
X161497649Y-87412283D01*
X161419295Y-87420000D01*
X161340705Y-87420000D01*
X161262351Y-87412283D01*
X161223173Y-87408424D01*
X161147773Y-87385552D01*
X161072371Y-87362679D01*
X160933392Y-87288392D01*
X160811578Y-87188422D01*
X160711608Y-87066608D01*
X160637321Y-86927629D01*
X160591576Y-86776826D01*
X160576130Y-86620000D01*
X160591576Y-86463174D01*
X160637321Y-86312371D01*
X160711608Y-86173392D01*
X160811578Y-86051578D01*
X160933392Y-85951608D01*
X161072371Y-85877321D01*
X161147772Y-85854449D01*
X161223173Y-85831576D01*
X161262351Y-85827717D01*
X161340705Y-85820000D01*
X161419295Y-85820000D01*
X161497649Y-85827717D01*
X161497649Y-85827717D01*
G37*
G36*
X187737649Y-83287717D02*
X187776827Y-83291576D01*
X187852228Y-83314449D01*
X187927629Y-83337321D01*
X188066608Y-83411608D01*
X188188422Y-83511578D01*
X188288392Y-83633392D01*
X188362679Y-83772371D01*
X188408424Y-83923174D01*
X188423870Y-84080000D01*
X188408424Y-84236826D01*
X188362679Y-84387629D01*
X188288392Y-84526608D01*
X188188422Y-84648422D01*
X188066608Y-84748392D01*
X187927629Y-84822679D01*
X187852227Y-84845552D01*
X187776827Y-84868424D01*
X187737649Y-84872283D01*
X187659295Y-84880000D01*
X187580705Y-84880000D01*
X187502351Y-84872283D01*
X187463173Y-84868424D01*
X187387773Y-84845552D01*
X187312371Y-84822679D01*
X187173392Y-84748392D01*
X187051578Y-84648422D01*
X186951608Y-84526608D01*
X186877321Y-84387629D01*
X186831576Y-84236826D01*
X186816130Y-84080000D01*
X186831576Y-83923174D01*
X186877321Y-83772371D01*
X186951608Y-83633392D01*
X187051578Y-83511578D01*
X187173392Y-83411608D01*
X187312371Y-83337321D01*
X187387772Y-83314449D01*
X187463173Y-83291576D01*
X187502351Y-83287717D01*
X187580705Y-83280000D01*
X187659295Y-83280000D01*
X187737649Y-83287717D01*
X187737649Y-83287717D01*
G37*
G36*
X180117649Y-83287717D02*
X180156827Y-83291576D01*
X180232228Y-83314449D01*
X180307629Y-83337321D01*
X180446608Y-83411608D01*
X180568422Y-83511578D01*
X180668392Y-83633392D01*
X180742679Y-83772371D01*
X180788424Y-83923174D01*
X180803870Y-84080000D01*
X180788424Y-84236826D01*
X180742679Y-84387629D01*
X180668392Y-84526608D01*
X180568422Y-84648422D01*
X180446608Y-84748392D01*
X180307629Y-84822679D01*
X180232227Y-84845552D01*
X180156827Y-84868424D01*
X180117649Y-84872283D01*
X180039295Y-84880000D01*
X179960705Y-84880000D01*
X179882351Y-84872283D01*
X179843173Y-84868424D01*
X179767773Y-84845552D01*
X179692371Y-84822679D01*
X179553392Y-84748392D01*
X179431578Y-84648422D01*
X179331608Y-84526608D01*
X179257321Y-84387629D01*
X179211576Y-84236826D01*
X179196130Y-84080000D01*
X179211576Y-83923174D01*
X179257321Y-83772371D01*
X179331608Y-83633392D01*
X179431578Y-83511578D01*
X179553392Y-83411608D01*
X179692371Y-83337321D01*
X179767772Y-83314449D01*
X179843173Y-83291576D01*
X179882351Y-83287717D01*
X179960705Y-83280000D01*
X180039295Y-83280000D01*
X180117649Y-83287717D01*
X180117649Y-83287717D01*
G37*
G36*
X174500000Y-84450000D02*
X174000000Y-84450000D01*
X174000000Y-83550000D01*
X174500000Y-83550000D01*
X174500000Y-84450000D01*
X174500000Y-84450000D01*
G37*
G36*
X176000000Y-84450000D02*
X175500000Y-84450000D01*
X175500000Y-83550000D01*
X176000000Y-83550000D01*
X176000000Y-84450000D01*
X176000000Y-84450000D01*
G37*
G36*
X180117649Y-80747717D02*
X180156827Y-80751576D01*
X180232228Y-80774449D01*
X180307629Y-80797321D01*
X180446608Y-80871608D01*
X180568422Y-80971578D01*
X180668392Y-81093392D01*
X180742679Y-81232371D01*
X180788424Y-81383174D01*
X180803870Y-81540000D01*
X180788424Y-81696826D01*
X180742679Y-81847629D01*
X180668392Y-81986608D01*
X180568422Y-82108422D01*
X180446608Y-82208392D01*
X180307629Y-82282679D01*
X180232228Y-82305551D01*
X180156827Y-82328424D01*
X180117649Y-82332283D01*
X180039295Y-82340000D01*
X179960705Y-82340000D01*
X179882351Y-82332283D01*
X179843173Y-82328424D01*
X179767772Y-82305551D01*
X179692371Y-82282679D01*
X179553392Y-82208392D01*
X179431578Y-82108422D01*
X179331608Y-81986608D01*
X179257321Y-81847629D01*
X179211576Y-81696826D01*
X179196130Y-81540000D01*
X179211576Y-81383174D01*
X179257321Y-81232371D01*
X179331608Y-81093392D01*
X179431578Y-80971578D01*
X179553392Y-80871608D01*
X179692371Y-80797321D01*
X179767772Y-80774449D01*
X179843173Y-80751576D01*
X179882351Y-80747717D01*
X179960705Y-80740000D01*
X180039295Y-80740000D01*
X180117649Y-80747717D01*
X180117649Y-80747717D01*
G37*
G36*
X187737649Y-80747717D02*
X187776827Y-80751576D01*
X187852228Y-80774449D01*
X187927629Y-80797321D01*
X188066608Y-80871608D01*
X188188422Y-80971578D01*
X188288392Y-81093392D01*
X188362679Y-81232371D01*
X188408424Y-81383174D01*
X188423870Y-81540000D01*
X188408424Y-81696826D01*
X188362679Y-81847629D01*
X188288392Y-81986608D01*
X188188422Y-82108422D01*
X188066608Y-82208392D01*
X187927629Y-82282679D01*
X187852228Y-82305551D01*
X187776827Y-82328424D01*
X187737649Y-82332283D01*
X187659295Y-82340000D01*
X187580705Y-82340000D01*
X187502351Y-82332283D01*
X187463173Y-82328424D01*
X187387772Y-82305551D01*
X187312371Y-82282679D01*
X187173392Y-82208392D01*
X187051578Y-82108422D01*
X186951608Y-81986608D01*
X186877321Y-81847629D01*
X186831576Y-81696826D01*
X186816130Y-81540000D01*
X186831576Y-81383174D01*
X186877321Y-81232371D01*
X186951608Y-81093392D01*
X187051578Y-80971578D01*
X187173392Y-80871608D01*
X187312371Y-80797321D01*
X187387772Y-80774449D01*
X187463173Y-80751576D01*
X187502351Y-80747717D01*
X187580705Y-80740000D01*
X187659295Y-80740000D01*
X187737649Y-80747717D01*
X187737649Y-80747717D01*
G37*
G36*
X136097649Y-78207717D02*
X136136827Y-78211576D01*
X136212227Y-78234448D01*
X136287629Y-78257321D01*
X136426608Y-78331608D01*
X136548422Y-78431578D01*
X136648392Y-78553392D01*
X136722679Y-78692371D01*
X136768424Y-78843174D01*
X136783870Y-79000000D01*
X136768424Y-79156826D01*
X136722679Y-79307629D01*
X136648392Y-79446608D01*
X136548422Y-79568422D01*
X136426608Y-79668392D01*
X136287629Y-79742679D01*
X136212227Y-79765552D01*
X136136827Y-79788424D01*
X136097649Y-79792283D01*
X136019295Y-79800000D01*
X135940705Y-79800000D01*
X135862351Y-79792283D01*
X135823173Y-79788424D01*
X135747773Y-79765552D01*
X135672371Y-79742679D01*
X135533392Y-79668392D01*
X135411578Y-79568422D01*
X135311608Y-79446608D01*
X135237321Y-79307629D01*
X135191576Y-79156826D01*
X135176130Y-79000000D01*
X135191576Y-78843174D01*
X135237321Y-78692371D01*
X135311608Y-78553392D01*
X135411578Y-78431578D01*
X135533392Y-78331608D01*
X135672371Y-78257321D01*
X135747773Y-78234448D01*
X135823173Y-78211576D01*
X135862351Y-78207717D01*
X135940705Y-78200000D01*
X136019295Y-78200000D01*
X136097649Y-78207717D01*
X136097649Y-78207717D01*
G37*
G36*
X143717649Y-78207717D02*
X143756827Y-78211576D01*
X143832227Y-78234448D01*
X143907629Y-78257321D01*
X144046608Y-78331608D01*
X144168422Y-78431578D01*
X144268392Y-78553392D01*
X144342679Y-78692371D01*
X144388424Y-78843174D01*
X144403870Y-79000000D01*
X144388424Y-79156826D01*
X144342679Y-79307629D01*
X144268392Y-79446608D01*
X144168422Y-79568422D01*
X144046608Y-79668392D01*
X143907629Y-79742679D01*
X143832227Y-79765552D01*
X143756827Y-79788424D01*
X143717649Y-79792283D01*
X143639295Y-79800000D01*
X143560705Y-79800000D01*
X143482351Y-79792283D01*
X143443173Y-79788424D01*
X143367773Y-79765552D01*
X143292371Y-79742679D01*
X143153392Y-79668392D01*
X143031578Y-79568422D01*
X142931608Y-79446608D01*
X142857321Y-79307629D01*
X142811576Y-79156826D01*
X142796130Y-79000000D01*
X142811576Y-78843174D01*
X142857321Y-78692371D01*
X142931608Y-78553392D01*
X143031578Y-78431578D01*
X143153392Y-78331608D01*
X143292371Y-78257321D01*
X143367773Y-78234448D01*
X143443173Y-78211576D01*
X143482351Y-78207717D01*
X143560705Y-78200000D01*
X143639295Y-78200000D01*
X143717649Y-78207717D01*
X143717649Y-78207717D01*
G37*
G36*
X148797649Y-78207717D02*
X148836827Y-78211576D01*
X148912227Y-78234448D01*
X148987629Y-78257321D01*
X149126608Y-78331608D01*
X149248422Y-78431578D01*
X149348392Y-78553392D01*
X149422679Y-78692371D01*
X149468424Y-78843174D01*
X149483870Y-79000000D01*
X149468424Y-79156826D01*
X149422679Y-79307629D01*
X149348392Y-79446608D01*
X149248422Y-79568422D01*
X149126608Y-79668392D01*
X148987629Y-79742679D01*
X148912227Y-79765552D01*
X148836827Y-79788424D01*
X148797649Y-79792283D01*
X148719295Y-79800000D01*
X148640705Y-79800000D01*
X148562351Y-79792283D01*
X148523173Y-79788424D01*
X148447773Y-79765552D01*
X148372371Y-79742679D01*
X148233392Y-79668392D01*
X148111578Y-79568422D01*
X148011608Y-79446608D01*
X147937321Y-79307629D01*
X147891576Y-79156826D01*
X147876130Y-79000000D01*
X147891576Y-78843174D01*
X147937321Y-78692371D01*
X148011608Y-78553392D01*
X148111578Y-78431578D01*
X148233392Y-78331608D01*
X148372371Y-78257321D01*
X148447773Y-78234448D01*
X148523173Y-78211576D01*
X148562351Y-78207717D01*
X148640705Y-78200000D01*
X148719295Y-78200000D01*
X148797649Y-78207717D01*
X148797649Y-78207717D01*
G37*
G36*
X180800000Y-79800000D02*
X179200000Y-79800000D01*
X179200000Y-78200000D01*
X180800000Y-78200000D01*
X180800000Y-79800000D01*
X180800000Y-79800000D01*
G37*
G36*
X187737649Y-78207717D02*
X187776827Y-78211576D01*
X187852227Y-78234448D01*
X187927629Y-78257321D01*
X188066608Y-78331608D01*
X188188422Y-78431578D01*
X188288392Y-78553392D01*
X188362679Y-78692371D01*
X188408424Y-78843174D01*
X188423870Y-79000000D01*
X188408424Y-79156826D01*
X188362679Y-79307629D01*
X188288392Y-79446608D01*
X188188422Y-79568422D01*
X188066608Y-79668392D01*
X187927629Y-79742679D01*
X187852227Y-79765552D01*
X187776827Y-79788424D01*
X187737649Y-79792283D01*
X187659295Y-79800000D01*
X187580705Y-79800000D01*
X187502351Y-79792283D01*
X187463173Y-79788424D01*
X187387773Y-79765552D01*
X187312371Y-79742679D01*
X187173392Y-79668392D01*
X187051578Y-79568422D01*
X186951608Y-79446608D01*
X186877321Y-79307629D01*
X186831576Y-79156826D01*
X186816130Y-79000000D01*
X186831576Y-78843174D01*
X186877321Y-78692371D01*
X186951608Y-78553392D01*
X187051578Y-78431578D01*
X187173392Y-78331608D01*
X187312371Y-78257321D01*
X187387773Y-78234448D01*
X187463173Y-78211576D01*
X187502351Y-78207717D01*
X187580705Y-78200000D01*
X187659295Y-78200000D01*
X187737649Y-78207717D01*
X187737649Y-78207717D01*
G37*
G36*
X146257649Y-78207717D02*
X146296827Y-78211576D01*
X146372227Y-78234448D01*
X146447629Y-78257321D01*
X146586608Y-78331608D01*
X146708422Y-78431578D01*
X146808392Y-78553392D01*
X146882679Y-78692371D01*
X146928424Y-78843174D01*
X146943870Y-79000000D01*
X146928424Y-79156826D01*
X146882679Y-79307629D01*
X146808392Y-79446608D01*
X146708422Y-79568422D01*
X146586608Y-79668392D01*
X146447629Y-79742679D01*
X146372227Y-79765552D01*
X146296827Y-79788424D01*
X146257649Y-79792283D01*
X146179295Y-79800000D01*
X146100705Y-79800000D01*
X146022351Y-79792283D01*
X145983173Y-79788424D01*
X145907773Y-79765552D01*
X145832371Y-79742679D01*
X145693392Y-79668392D01*
X145571578Y-79568422D01*
X145471608Y-79446608D01*
X145397321Y-79307629D01*
X145351576Y-79156826D01*
X145336130Y-79000000D01*
X145351576Y-78843174D01*
X145397321Y-78692371D01*
X145471608Y-78553392D01*
X145571578Y-78431578D01*
X145693392Y-78331608D01*
X145832371Y-78257321D01*
X145907773Y-78234448D01*
X145983173Y-78211576D01*
X146022351Y-78207717D01*
X146100705Y-78200000D01*
X146179295Y-78200000D01*
X146257649Y-78207717D01*
X146257649Y-78207717D01*
G37*
G36*
X164037649Y-78207717D02*
X164076827Y-78211576D01*
X164152227Y-78234448D01*
X164227629Y-78257321D01*
X164366608Y-78331608D01*
X164488422Y-78431578D01*
X164588392Y-78553392D01*
X164662679Y-78692371D01*
X164708424Y-78843174D01*
X164723870Y-79000000D01*
X164708424Y-79156826D01*
X164662679Y-79307629D01*
X164588392Y-79446608D01*
X164488422Y-79568422D01*
X164366608Y-79668392D01*
X164227629Y-79742679D01*
X164152227Y-79765552D01*
X164076827Y-79788424D01*
X164037649Y-79792283D01*
X163959295Y-79800000D01*
X163880705Y-79800000D01*
X163802351Y-79792283D01*
X163763173Y-79788424D01*
X163687773Y-79765552D01*
X163612371Y-79742679D01*
X163473392Y-79668392D01*
X163351578Y-79568422D01*
X163251608Y-79446608D01*
X163177321Y-79307629D01*
X163131576Y-79156826D01*
X163116130Y-79000000D01*
X163131576Y-78843174D01*
X163177321Y-78692371D01*
X163251608Y-78553392D01*
X163351578Y-78431578D01*
X163473392Y-78331608D01*
X163612371Y-78257321D01*
X163687773Y-78234448D01*
X163763173Y-78211576D01*
X163802351Y-78207717D01*
X163880705Y-78200000D01*
X163959295Y-78200000D01*
X164037649Y-78207717D01*
X164037649Y-78207717D01*
G37*
G36*
X166577649Y-78207717D02*
X166616827Y-78211576D01*
X166692227Y-78234448D01*
X166767629Y-78257321D01*
X166906608Y-78331608D01*
X167028422Y-78431578D01*
X167128392Y-78553392D01*
X167202679Y-78692371D01*
X167248424Y-78843174D01*
X167263870Y-79000000D01*
X167248424Y-79156826D01*
X167202679Y-79307629D01*
X167128392Y-79446608D01*
X167028422Y-79568422D01*
X166906608Y-79668392D01*
X166767629Y-79742679D01*
X166692227Y-79765552D01*
X166616827Y-79788424D01*
X166577649Y-79792283D01*
X166499295Y-79800000D01*
X166420705Y-79800000D01*
X166342351Y-79792283D01*
X166303173Y-79788424D01*
X166227773Y-79765552D01*
X166152371Y-79742679D01*
X166013392Y-79668392D01*
X165891578Y-79568422D01*
X165791608Y-79446608D01*
X165717321Y-79307629D01*
X165671576Y-79156826D01*
X165656130Y-79000000D01*
X165671576Y-78843174D01*
X165717321Y-78692371D01*
X165791608Y-78553392D01*
X165891578Y-78431578D01*
X166013392Y-78331608D01*
X166152371Y-78257321D01*
X166227773Y-78234448D01*
X166303173Y-78211576D01*
X166342351Y-78207717D01*
X166420705Y-78200000D01*
X166499295Y-78200000D01*
X166577649Y-78207717D01*
X166577649Y-78207717D01*
G37*
G36*
X161497649Y-78207717D02*
X161536827Y-78211576D01*
X161612227Y-78234448D01*
X161687629Y-78257321D01*
X161826608Y-78331608D01*
X161948422Y-78431578D01*
X162048392Y-78553392D01*
X162122679Y-78692371D01*
X162168424Y-78843174D01*
X162183870Y-79000000D01*
X162168424Y-79156826D01*
X162122679Y-79307629D01*
X162048392Y-79446608D01*
X161948422Y-79568422D01*
X161826608Y-79668392D01*
X161687629Y-79742679D01*
X161612227Y-79765552D01*
X161536827Y-79788424D01*
X161497649Y-79792283D01*
X161419295Y-79800000D01*
X161340705Y-79800000D01*
X161262351Y-79792283D01*
X161223173Y-79788424D01*
X161147773Y-79765552D01*
X161072371Y-79742679D01*
X160933392Y-79668392D01*
X160811578Y-79568422D01*
X160711608Y-79446608D01*
X160637321Y-79307629D01*
X160591576Y-79156826D01*
X160576130Y-79000000D01*
X160591576Y-78843174D01*
X160637321Y-78692371D01*
X160711608Y-78553392D01*
X160811578Y-78431578D01*
X160933392Y-78331608D01*
X161072371Y-78257321D01*
X161147773Y-78234448D01*
X161223173Y-78211576D01*
X161262351Y-78207717D01*
X161340705Y-78200000D01*
X161419295Y-78200000D01*
X161497649Y-78207717D01*
X161497649Y-78207717D01*
G37*
G36*
X169800000Y-79800000D02*
X168200000Y-79800000D01*
X168200000Y-78200000D01*
X169800000Y-78200000D01*
X169800000Y-79800000D01*
X169800000Y-79800000D01*
G37*
G36*
X158957649Y-78207717D02*
X158996827Y-78211576D01*
X159072227Y-78234448D01*
X159147629Y-78257321D01*
X159286608Y-78331608D01*
X159408422Y-78431578D01*
X159508392Y-78553392D01*
X159582679Y-78692371D01*
X159628424Y-78843174D01*
X159643870Y-79000000D01*
X159628424Y-79156826D01*
X159582679Y-79307629D01*
X159508392Y-79446608D01*
X159408422Y-79568422D01*
X159286608Y-79668392D01*
X159147629Y-79742679D01*
X159072227Y-79765552D01*
X158996827Y-79788424D01*
X158957649Y-79792283D01*
X158879295Y-79800000D01*
X158800705Y-79800000D01*
X158722351Y-79792283D01*
X158683173Y-79788424D01*
X158607773Y-79765552D01*
X158532371Y-79742679D01*
X158393392Y-79668392D01*
X158271578Y-79568422D01*
X158171608Y-79446608D01*
X158097321Y-79307629D01*
X158051576Y-79156826D01*
X158036130Y-79000000D01*
X158051576Y-78843174D01*
X158097321Y-78692371D01*
X158171608Y-78553392D01*
X158271578Y-78431578D01*
X158393392Y-78331608D01*
X158532371Y-78257321D01*
X158607773Y-78234448D01*
X158683173Y-78211576D01*
X158722351Y-78207717D01*
X158800705Y-78200000D01*
X158879295Y-78200000D01*
X158957649Y-78207717D01*
X158957649Y-78207717D01*
G37*
G36*
X156417649Y-78207717D02*
X156456827Y-78211576D01*
X156532227Y-78234448D01*
X156607629Y-78257321D01*
X156746608Y-78331608D01*
X156868422Y-78431578D01*
X156968392Y-78553392D01*
X157042679Y-78692371D01*
X157088424Y-78843174D01*
X157103870Y-79000000D01*
X157088424Y-79156826D01*
X157042679Y-79307629D01*
X156968392Y-79446608D01*
X156868422Y-79568422D01*
X156746608Y-79668392D01*
X156607629Y-79742679D01*
X156532227Y-79765552D01*
X156456827Y-79788424D01*
X156417649Y-79792283D01*
X156339295Y-79800000D01*
X156260705Y-79800000D01*
X156182351Y-79792283D01*
X156143173Y-79788424D01*
X156067773Y-79765552D01*
X155992371Y-79742679D01*
X155853392Y-79668392D01*
X155731578Y-79568422D01*
X155631608Y-79446608D01*
X155557321Y-79307629D01*
X155511576Y-79156826D01*
X155496130Y-79000000D01*
X155511576Y-78843174D01*
X155557321Y-78692371D01*
X155631608Y-78553392D01*
X155731578Y-78431578D01*
X155853392Y-78331608D01*
X155992371Y-78257321D01*
X156067773Y-78234448D01*
X156143173Y-78211576D01*
X156182351Y-78207717D01*
X156260705Y-78200000D01*
X156339295Y-78200000D01*
X156417649Y-78207717D01*
X156417649Y-78207717D01*
G37*
G36*
X138637649Y-78207717D02*
X138676827Y-78211576D01*
X138752227Y-78234448D01*
X138827629Y-78257321D01*
X138966608Y-78331608D01*
X139088422Y-78431578D01*
X139188392Y-78553392D01*
X139262679Y-78692371D01*
X139308424Y-78843174D01*
X139323870Y-79000000D01*
X139308424Y-79156826D01*
X139262679Y-79307629D01*
X139188392Y-79446608D01*
X139088422Y-79568422D01*
X138966608Y-79668392D01*
X138827629Y-79742679D01*
X138752227Y-79765552D01*
X138676827Y-79788424D01*
X138637649Y-79792283D01*
X138559295Y-79800000D01*
X138480705Y-79800000D01*
X138402351Y-79792283D01*
X138363173Y-79788424D01*
X138287773Y-79765552D01*
X138212371Y-79742679D01*
X138073392Y-79668392D01*
X137951578Y-79568422D01*
X137851608Y-79446608D01*
X137777321Y-79307629D01*
X137731576Y-79156826D01*
X137716130Y-79000000D01*
X137731576Y-78843174D01*
X137777321Y-78692371D01*
X137851608Y-78553392D01*
X137951578Y-78431578D01*
X138073392Y-78331608D01*
X138212371Y-78257321D01*
X138287773Y-78234448D01*
X138363173Y-78211576D01*
X138402351Y-78207717D01*
X138480705Y-78200000D01*
X138559295Y-78200000D01*
X138637649Y-78207717D01*
X138637649Y-78207717D01*
G37*
G36*
X153877649Y-78207717D02*
X153916827Y-78211576D01*
X153992227Y-78234448D01*
X154067629Y-78257321D01*
X154206608Y-78331608D01*
X154328422Y-78431578D01*
X154428392Y-78553392D01*
X154502679Y-78692371D01*
X154548424Y-78843174D01*
X154563870Y-79000000D01*
X154548424Y-79156826D01*
X154502679Y-79307629D01*
X154428392Y-79446608D01*
X154328422Y-79568422D01*
X154206608Y-79668392D01*
X154067629Y-79742679D01*
X153992227Y-79765552D01*
X153916827Y-79788424D01*
X153877649Y-79792283D01*
X153799295Y-79800000D01*
X153720705Y-79800000D01*
X153642351Y-79792283D01*
X153603173Y-79788424D01*
X153527773Y-79765552D01*
X153452371Y-79742679D01*
X153313392Y-79668392D01*
X153191578Y-79568422D01*
X153091608Y-79446608D01*
X153017321Y-79307629D01*
X152971576Y-79156826D01*
X152956130Y-79000000D01*
X152971576Y-78843174D01*
X153017321Y-78692371D01*
X153091608Y-78553392D01*
X153191578Y-78431578D01*
X153313392Y-78331608D01*
X153452371Y-78257321D01*
X153527773Y-78234448D01*
X153603173Y-78211576D01*
X153642351Y-78207717D01*
X153720705Y-78200000D01*
X153799295Y-78200000D01*
X153877649Y-78207717D01*
X153877649Y-78207717D01*
G37*
G36*
X151337649Y-78207717D02*
X151376827Y-78211576D01*
X151452227Y-78234448D01*
X151527629Y-78257321D01*
X151666608Y-78331608D01*
X151788422Y-78431578D01*
X151888392Y-78553392D01*
X151962679Y-78692371D01*
X152008424Y-78843174D01*
X152023870Y-79000000D01*
X152008424Y-79156826D01*
X151962679Y-79307629D01*
X151888392Y-79446608D01*
X151788422Y-79568422D01*
X151666608Y-79668392D01*
X151527629Y-79742679D01*
X151452227Y-79765552D01*
X151376827Y-79788424D01*
X151337649Y-79792283D01*
X151259295Y-79800000D01*
X151180705Y-79800000D01*
X151102351Y-79792283D01*
X151063173Y-79788424D01*
X150987773Y-79765552D01*
X150912371Y-79742679D01*
X150773392Y-79668392D01*
X150651578Y-79568422D01*
X150551608Y-79446608D01*
X150477321Y-79307629D01*
X150431576Y-79156826D01*
X150416130Y-79000000D01*
X150431576Y-78843174D01*
X150477321Y-78692371D01*
X150551608Y-78553392D01*
X150651578Y-78431578D01*
X150773392Y-78331608D01*
X150912371Y-78257321D01*
X150987773Y-78234448D01*
X151063173Y-78211576D01*
X151102351Y-78207717D01*
X151180705Y-78200000D01*
X151259295Y-78200000D01*
X151337649Y-78207717D01*
X151337649Y-78207717D01*
G37*
G36*
X141177649Y-78207717D02*
X141216827Y-78211576D01*
X141292227Y-78234448D01*
X141367629Y-78257321D01*
X141506608Y-78331608D01*
X141628422Y-78431578D01*
X141728392Y-78553392D01*
X141802679Y-78692371D01*
X141848424Y-78843174D01*
X141863870Y-79000000D01*
X141848424Y-79156826D01*
X141802679Y-79307629D01*
X141728392Y-79446608D01*
X141628422Y-79568422D01*
X141506608Y-79668392D01*
X141367629Y-79742679D01*
X141292227Y-79765552D01*
X141216827Y-79788424D01*
X141177649Y-79792283D01*
X141099295Y-79800000D01*
X141020705Y-79800000D01*
X140942351Y-79792283D01*
X140903173Y-79788424D01*
X140827773Y-79765552D01*
X140752371Y-79742679D01*
X140613392Y-79668392D01*
X140491578Y-79568422D01*
X140391608Y-79446608D01*
X140317321Y-79307629D01*
X140271576Y-79156826D01*
X140256130Y-79000000D01*
X140271576Y-78843174D01*
X140317321Y-78692371D01*
X140391608Y-78553392D01*
X140491578Y-78431578D01*
X140613392Y-78331608D01*
X140752371Y-78257321D01*
X140827773Y-78234448D01*
X140903173Y-78211576D01*
X140942351Y-78207717D01*
X141020705Y-78200000D01*
X141099295Y-78200000D01*
X141177649Y-78207717D01*
X141177649Y-78207717D01*
G37*
G36*
X142500000Y-74450000D02*
X142000000Y-74450000D01*
X142000000Y-73550000D01*
X142500000Y-73550000D01*
X142500000Y-74450000D01*
X142500000Y-74450000D01*
G37*
G36*
X144000000Y-74450000D02*
X143500000Y-74450000D01*
X143500000Y-73550000D01*
X144000000Y-73550000D01*
X144000000Y-74450000D01*
X144000000Y-74450000D01*
G37*
G36*
X166450000Y-74000000D02*
X165550000Y-74000000D01*
X165550000Y-73500000D01*
X166450000Y-73500000D01*
X166450000Y-74000000D01*
X166450000Y-74000000D01*
G37*
G36*
X161450000Y-73000000D02*
X160550000Y-73000000D01*
X160550000Y-72500000D01*
X161450000Y-72500000D01*
X161450000Y-73000000D01*
X161450000Y-73000000D01*
G37*
G36*
X187450000Y-72750000D02*
X186550000Y-72750000D01*
X186550000Y-72250000D01*
X187450000Y-72250000D01*
X187450000Y-72750000D01*
X187450000Y-72750000D01*
G37*
G36*
X166450000Y-72500000D02*
X165550000Y-72500000D01*
X165550000Y-72000000D01*
X166450000Y-72000000D01*
X166450000Y-72500000D01*
X166450000Y-72500000D01*
G37*
G36*
X161450000Y-71500000D02*
X160550000Y-71500000D01*
X160550000Y-71000000D01*
X161450000Y-71000000D01*
X161450000Y-71500000D01*
X161450000Y-71500000D01*
G37*
G36*
X187450000Y-71250000D02*
X186550000Y-71250000D01*
X186550000Y-70750000D01*
X187450000Y-70750000D01*
X187450000Y-71250000D01*
X187450000Y-71250000D01*
G37*
G36*
X144395000Y-71075000D02*
X144005000Y-71075000D01*
X144005000Y-70525000D01*
X144395000Y-70525000D01*
X144395000Y-71075000D01*
X144395000Y-71075000D01*
G37*
G36*
X139595000Y-71075000D02*
X139205000Y-71075000D01*
X139205000Y-70525000D01*
X139595000Y-70525000D01*
X139595000Y-71075000D01*
X139595000Y-71075000D01*
G37*
G36*
X145195000Y-71075000D02*
X144805000Y-71075000D01*
X144805000Y-70525000D01*
X145195000Y-70525000D01*
X145195000Y-71075000D01*
X145195000Y-71075000D01*
G37*
G36*
X143595000Y-71075000D02*
X143205000Y-71075000D01*
X143205000Y-70525000D01*
X143595000Y-70525000D01*
X143595000Y-71075000D01*
X143595000Y-71075000D01*
G37*
G36*
X142795000Y-71075000D02*
X142405000Y-71075000D01*
X142405000Y-70525000D01*
X142795000Y-70525000D01*
X142795000Y-71075000D01*
X142795000Y-71075000D01*
G37*
G36*
X141995000Y-71075000D02*
X141605000Y-71075000D01*
X141605000Y-70525000D01*
X141995000Y-70525000D01*
X141995000Y-71075000D01*
X141995000Y-71075000D01*
G37*
G36*
X140395000Y-71075000D02*
X140005000Y-71075000D01*
X140005000Y-70525000D01*
X140395000Y-70525000D01*
X140395000Y-71075000D01*
X140395000Y-71075000D01*
G37*
G36*
X141195000Y-71075000D02*
X140805000Y-71075000D01*
X140805000Y-70525000D01*
X141195000Y-70525000D01*
X141195000Y-71075000D01*
X141195000Y-71075000D01*
G37*
G36*
X137195000Y-71075000D02*
X136805000Y-71075000D01*
X136805000Y-70525000D01*
X137195000Y-70525000D01*
X137195000Y-71075000D01*
X137195000Y-71075000D01*
G37*
G36*
X137995000Y-71075000D02*
X137605000Y-71075000D01*
X137605000Y-70525000D01*
X137995000Y-70525000D01*
X137995000Y-71075000D01*
X137995000Y-71075000D01*
G37*
G36*
X138795000Y-71075000D02*
X138405000Y-71075000D01*
X138405000Y-70525000D01*
X138795000Y-70525000D01*
X138795000Y-71075000D01*
X138795000Y-71075000D01*
G37*
G36*
X136475000Y-70195000D02*
X135925000Y-70195000D01*
X135925000Y-69805000D01*
X136475000Y-69805000D01*
X136475000Y-70195000D01*
X136475000Y-70195000D01*
G37*
G36*
X146075000Y-70195000D02*
X145525000Y-70195000D01*
X145525000Y-69805000D01*
X146075000Y-69805000D01*
X146075000Y-70195000D01*
X146075000Y-70195000D01*
G37*
G36*
X146075000Y-69395000D02*
X145525000Y-69395000D01*
X145525000Y-69005000D01*
X146075000Y-69005000D01*
X146075000Y-69395000D01*
X146075000Y-69395000D01*
G37*
G36*
X136475000Y-69395000D02*
X135925000Y-69395000D01*
X135925000Y-69005000D01*
X136475000Y-69005000D01*
X136475000Y-69395000D01*
X136475000Y-69395000D01*
G37*
G36*
X141094799Y-68687489D02*
X141140543Y-68706437D01*
X141153941Y-68711986D01*
X141153942Y-68711987D01*
X141153945Y-68711988D01*
X141207176Y-68747556D01*
X141252444Y-68792824D01*
X141288012Y-68846055D01*
X141312511Y-68905201D01*
X141325000Y-68967990D01*
X141325000Y-69032010D01*
X141312511Y-69094799D01*
X141288012Y-69153945D01*
X141252444Y-69207176D01*
X141207176Y-69252444D01*
X141153945Y-69288012D01*
X141153942Y-69288013D01*
X141153941Y-69288014D01*
X141140543Y-69293563D01*
X141094799Y-69312511D01*
X141032010Y-69325000D01*
X140967990Y-69325000D01*
X140905201Y-69312511D01*
X140859457Y-69293563D01*
X140846059Y-69288014D01*
X140846058Y-69288013D01*
X140846055Y-69288012D01*
X140792824Y-69252444D01*
X140747556Y-69207176D01*
X140711988Y-69153945D01*
X140687489Y-69094799D01*
X140675000Y-69032010D01*
X140675000Y-68967990D01*
X140687489Y-68905201D01*
X140711988Y-68846055D01*
X140747556Y-68792824D01*
X140792824Y-68747556D01*
X140846055Y-68711988D01*
X140846058Y-68711987D01*
X140846059Y-68711986D01*
X140859457Y-68706437D01*
X140905201Y-68687489D01*
X140967990Y-68675000D01*
X141032010Y-68675000D01*
X141094799Y-68687489D01*
X141094799Y-68687489D01*
G37*
G36*
X138094799Y-68687489D02*
X138140543Y-68706437D01*
X138153941Y-68711986D01*
X138153942Y-68711987D01*
X138153945Y-68711988D01*
X138207176Y-68747556D01*
X138252444Y-68792824D01*
X138288012Y-68846055D01*
X138312511Y-68905201D01*
X138325000Y-68967990D01*
X138325000Y-69032010D01*
X138312511Y-69094799D01*
X138288012Y-69153945D01*
X138252444Y-69207176D01*
X138207176Y-69252444D01*
X138153945Y-69288012D01*
X138153942Y-69288013D01*
X138153941Y-69288014D01*
X138140543Y-69293563D01*
X138094799Y-69312511D01*
X138032010Y-69325000D01*
X137967990Y-69325000D01*
X137905201Y-69312511D01*
X137859457Y-69293563D01*
X137846059Y-69288014D01*
X137846058Y-69288013D01*
X137846055Y-69288012D01*
X137792824Y-69252444D01*
X137747556Y-69207176D01*
X137711988Y-69153945D01*
X137687489Y-69094799D01*
X137675000Y-69032010D01*
X137675000Y-68967990D01*
X137687489Y-68905201D01*
X137711988Y-68846055D01*
X137747556Y-68792824D01*
X137792824Y-68747556D01*
X137846055Y-68711988D01*
X137846058Y-68711987D01*
X137846059Y-68711986D01*
X137859457Y-68706437D01*
X137905201Y-68687489D01*
X137967990Y-68675000D01*
X138032010Y-68675000D01*
X138094799Y-68687489D01*
X138094799Y-68687489D01*
G37*
G36*
X139594799Y-68687489D02*
X139640543Y-68706437D01*
X139653941Y-68711986D01*
X139653942Y-68711987D01*
X139653945Y-68711988D01*
X139707176Y-68747556D01*
X139752444Y-68792824D01*
X139788012Y-68846055D01*
X139812511Y-68905201D01*
X139825000Y-68967990D01*
X139825000Y-69032010D01*
X139812511Y-69094799D01*
X139788012Y-69153945D01*
X139752444Y-69207176D01*
X139707176Y-69252444D01*
X139653945Y-69288012D01*
X139653942Y-69288013D01*
X139653941Y-69288014D01*
X139640543Y-69293563D01*
X139594799Y-69312511D01*
X139532010Y-69325000D01*
X139467990Y-69325000D01*
X139405201Y-69312511D01*
X139359457Y-69293563D01*
X139346059Y-69288014D01*
X139346058Y-69288013D01*
X139346055Y-69288012D01*
X139292824Y-69252444D01*
X139247556Y-69207176D01*
X139211988Y-69153945D01*
X139187489Y-69094799D01*
X139175000Y-69032010D01*
X139175000Y-68967990D01*
X139187489Y-68905201D01*
X139211988Y-68846055D01*
X139247556Y-68792824D01*
X139292824Y-68747556D01*
X139346055Y-68711988D01*
X139346058Y-68711987D01*
X139346059Y-68711986D01*
X139359457Y-68706437D01*
X139405201Y-68687489D01*
X139467990Y-68675000D01*
X139532010Y-68675000D01*
X139594799Y-68687489D01*
X139594799Y-68687489D01*
G37*
G36*
X144094799Y-68687489D02*
X144140543Y-68706437D01*
X144153941Y-68711986D01*
X144153942Y-68711987D01*
X144153945Y-68711988D01*
X144207176Y-68747556D01*
X144252444Y-68792824D01*
X144288012Y-68846055D01*
X144312511Y-68905201D01*
X144325000Y-68967990D01*
X144325000Y-69032010D01*
X144312511Y-69094799D01*
X144288012Y-69153945D01*
X144252444Y-69207176D01*
X144207176Y-69252444D01*
X144153945Y-69288012D01*
X144153942Y-69288013D01*
X144153941Y-69288014D01*
X144140543Y-69293563D01*
X144094799Y-69312511D01*
X144032010Y-69325000D01*
X143967990Y-69325000D01*
X143905201Y-69312511D01*
X143859457Y-69293563D01*
X143846059Y-69288014D01*
X143846058Y-69288013D01*
X143846055Y-69288012D01*
X143792824Y-69252444D01*
X143747556Y-69207176D01*
X143711988Y-69153945D01*
X143687489Y-69094799D01*
X143675000Y-69032010D01*
X143675000Y-68967990D01*
X143687489Y-68905201D01*
X143711988Y-68846055D01*
X143747556Y-68792824D01*
X143792824Y-68747556D01*
X143846055Y-68711988D01*
X143846058Y-68711987D01*
X143846059Y-68711986D01*
X143859457Y-68706437D01*
X143905201Y-68687489D01*
X143967990Y-68675000D01*
X144032010Y-68675000D01*
X144094799Y-68687489D01*
X144094799Y-68687489D01*
G37*
G36*
X142594799Y-68687489D02*
X142640543Y-68706437D01*
X142653941Y-68711986D01*
X142653942Y-68711987D01*
X142653945Y-68711988D01*
X142707176Y-68747556D01*
X142752444Y-68792824D01*
X142788012Y-68846055D01*
X142812511Y-68905201D01*
X142825000Y-68967990D01*
X142825000Y-69032010D01*
X142812511Y-69094799D01*
X142788012Y-69153945D01*
X142752444Y-69207176D01*
X142707176Y-69252444D01*
X142653945Y-69288012D01*
X142653942Y-69288013D01*
X142653941Y-69288014D01*
X142640543Y-69293563D01*
X142594799Y-69312511D01*
X142532010Y-69325000D01*
X142467990Y-69325000D01*
X142405201Y-69312511D01*
X142359457Y-69293563D01*
X142346059Y-69288014D01*
X142346058Y-69288013D01*
X142346055Y-69288012D01*
X142292824Y-69252444D01*
X142247556Y-69207176D01*
X142211988Y-69153945D01*
X142187489Y-69094799D01*
X142175000Y-69032010D01*
X142175000Y-68967990D01*
X142187489Y-68905201D01*
X142211988Y-68846055D01*
X142247556Y-68792824D01*
X142292824Y-68747556D01*
X142346055Y-68711988D01*
X142346058Y-68711987D01*
X142346059Y-68711986D01*
X142359457Y-68706437D01*
X142405201Y-68687489D01*
X142467990Y-68675000D01*
X142532010Y-68675000D01*
X142594799Y-68687489D01*
X142594799Y-68687489D01*
G37*
G36*
X166375000Y-69150000D02*
X165625000Y-69150000D01*
X165625000Y-68350000D01*
X166375000Y-68350000D01*
X166375000Y-69150000D01*
X166375000Y-69150000D01*
G37*
G36*
X173146318Y-67264411D02*
X173218767Y-67278822D01*
X173252563Y-67292821D01*
X173355257Y-67335358D01*
X173478100Y-67417439D01*
X173582561Y-67521900D01*
X173664642Y-67644743D01*
X173690502Y-67707176D01*
X173721178Y-67781233D01*
X173729884Y-67825000D01*
X173750000Y-67926130D01*
X173750000Y-68073870D01*
X173721178Y-68218766D01*
X173664642Y-68355257D01*
X173582561Y-68478100D01*
X173478100Y-68582561D01*
X173355257Y-68664642D01*
X173300099Y-68687489D01*
X173218767Y-68721178D01*
X173146318Y-68735589D01*
X173073870Y-68750000D01*
X172926130Y-68750000D01*
X172853682Y-68735589D01*
X172781233Y-68721178D01*
X172699901Y-68687489D01*
X172644743Y-68664642D01*
X172521900Y-68582561D01*
X172417439Y-68478100D01*
X172335358Y-68355257D01*
X172278822Y-68218766D01*
X172250000Y-68073870D01*
X172250000Y-67926130D01*
X172270116Y-67825000D01*
X172278822Y-67781233D01*
X172309498Y-67707176D01*
X172335358Y-67644743D01*
X172417439Y-67521900D01*
X172521900Y-67417439D01*
X172644743Y-67335358D01*
X172747437Y-67292821D01*
X172781233Y-67278822D01*
X172853682Y-67264411D01*
X172926130Y-67250000D01*
X173073870Y-67250000D01*
X173146318Y-67264411D01*
X173146318Y-67264411D01*
G37*
G36*
X136475000Y-68595000D02*
X135925000Y-68595000D01*
X135925000Y-68205000D01*
X136475000Y-68205000D01*
X136475000Y-68595000D01*
X136475000Y-68595000D01*
G37*
G36*
X146075000Y-68595000D02*
X145525000Y-68595000D01*
X145525000Y-68205000D01*
X146075000Y-68205000D01*
X146075000Y-68595000D01*
X146075000Y-68595000D01*
G37*
G36*
X190450000Y-68000000D02*
X189550000Y-68000000D01*
X189550000Y-67500000D01*
X190450000Y-67500000D01*
X190450000Y-68000000D01*
X190450000Y-68000000D01*
G37*
G36*
X138094799Y-67187489D02*
X138140543Y-67206437D01*
X138153941Y-67211986D01*
X138153942Y-67211987D01*
X138153945Y-67211988D01*
X138207176Y-67247556D01*
X138252444Y-67292824D01*
X138288012Y-67346055D01*
X138312511Y-67405201D01*
X138325000Y-67467990D01*
X138325000Y-67532010D01*
X138312511Y-67594799D01*
X138288012Y-67653945D01*
X138252444Y-67707176D01*
X138207176Y-67752444D01*
X138153945Y-67788012D01*
X138153942Y-67788013D01*
X138153941Y-67788014D01*
X138140543Y-67793563D01*
X138094799Y-67812511D01*
X138032010Y-67825000D01*
X137967990Y-67825000D01*
X137905201Y-67812511D01*
X137859457Y-67793563D01*
X137846059Y-67788014D01*
X137846058Y-67788013D01*
X137846055Y-67788012D01*
X137792824Y-67752444D01*
X137747556Y-67707176D01*
X137711988Y-67653945D01*
X137687489Y-67594799D01*
X137675000Y-67532010D01*
X137675000Y-67467990D01*
X137687489Y-67405201D01*
X137711988Y-67346055D01*
X137747556Y-67292824D01*
X137792824Y-67247556D01*
X137846055Y-67211988D01*
X137846058Y-67211987D01*
X137846059Y-67211986D01*
X137859457Y-67206437D01*
X137905201Y-67187489D01*
X137967990Y-67175000D01*
X138032010Y-67175000D01*
X138094799Y-67187489D01*
X138094799Y-67187489D01*
G37*
G36*
X144094799Y-67187489D02*
X144140543Y-67206437D01*
X144153941Y-67211986D01*
X144153942Y-67211987D01*
X144153945Y-67211988D01*
X144207176Y-67247556D01*
X144252444Y-67292824D01*
X144288012Y-67346055D01*
X144312511Y-67405201D01*
X144325000Y-67467990D01*
X144325000Y-67532010D01*
X144312511Y-67594799D01*
X144288012Y-67653945D01*
X144252444Y-67707176D01*
X144207176Y-67752444D01*
X144153945Y-67788012D01*
X144153942Y-67788013D01*
X144153941Y-67788014D01*
X144140543Y-67793563D01*
X144094799Y-67812511D01*
X144032010Y-67825000D01*
X143967990Y-67825000D01*
X143905201Y-67812511D01*
X143859457Y-67793563D01*
X143846059Y-67788014D01*
X143846058Y-67788013D01*
X143846055Y-67788012D01*
X143792824Y-67752444D01*
X143747556Y-67707176D01*
X143711988Y-67653945D01*
X143687489Y-67594799D01*
X143675000Y-67532010D01*
X143675000Y-67467990D01*
X143687489Y-67405201D01*
X143711988Y-67346055D01*
X143747556Y-67292824D01*
X143792824Y-67247556D01*
X143846055Y-67211988D01*
X143846058Y-67211987D01*
X143846059Y-67211986D01*
X143859457Y-67206437D01*
X143905201Y-67187489D01*
X143967990Y-67175000D01*
X144032010Y-67175000D01*
X144094799Y-67187489D01*
X144094799Y-67187489D01*
G37*
G36*
X142594799Y-67187489D02*
X142640543Y-67206437D01*
X142653941Y-67211986D01*
X142653942Y-67211987D01*
X142653945Y-67211988D01*
X142707176Y-67247556D01*
X142752444Y-67292824D01*
X142788012Y-67346055D01*
X142812511Y-67405201D01*
X142825000Y-67467990D01*
X142825000Y-67532010D01*
X142812511Y-67594799D01*
X142788012Y-67653945D01*
X142752444Y-67707176D01*
X142707176Y-67752444D01*
X142653945Y-67788012D01*
X142653942Y-67788013D01*
X142653941Y-67788014D01*
X142640543Y-67793563D01*
X142594799Y-67812511D01*
X142532010Y-67825000D01*
X142467990Y-67825000D01*
X142405201Y-67812511D01*
X142359457Y-67793563D01*
X142346059Y-67788014D01*
X142346058Y-67788013D01*
X142346055Y-67788012D01*
X142292824Y-67752444D01*
X142247556Y-67707176D01*
X142211988Y-67653945D01*
X142187489Y-67594799D01*
X142175000Y-67532010D01*
X142175000Y-67467990D01*
X142187489Y-67405201D01*
X142211988Y-67346055D01*
X142247556Y-67292824D01*
X142292824Y-67247556D01*
X142346055Y-67211988D01*
X142346058Y-67211987D01*
X142346059Y-67211986D01*
X142359457Y-67206437D01*
X142405201Y-67187489D01*
X142467990Y-67175000D01*
X142532010Y-67175000D01*
X142594799Y-67187489D01*
X142594799Y-67187489D01*
G37*
G36*
X141094799Y-67187489D02*
X141140543Y-67206437D01*
X141153941Y-67211986D01*
X141153942Y-67211987D01*
X141153945Y-67211988D01*
X141207176Y-67247556D01*
X141252444Y-67292824D01*
X141288012Y-67346055D01*
X141312511Y-67405201D01*
X141325000Y-67467990D01*
X141325000Y-67532010D01*
X141312511Y-67594799D01*
X141288012Y-67653945D01*
X141252444Y-67707176D01*
X141207176Y-67752444D01*
X141153945Y-67788012D01*
X141153942Y-67788013D01*
X141153941Y-67788014D01*
X141140543Y-67793563D01*
X141094799Y-67812511D01*
X141032010Y-67825000D01*
X140967990Y-67825000D01*
X140905201Y-67812511D01*
X140859457Y-67793563D01*
X140846059Y-67788014D01*
X140846058Y-67788013D01*
X140846055Y-67788012D01*
X140792824Y-67752444D01*
X140747556Y-67707176D01*
X140711988Y-67653945D01*
X140687489Y-67594799D01*
X140675000Y-67532010D01*
X140675000Y-67467990D01*
X140687489Y-67405201D01*
X140711988Y-67346055D01*
X140747556Y-67292824D01*
X140792824Y-67247556D01*
X140846055Y-67211988D01*
X140846058Y-67211987D01*
X140846059Y-67211986D01*
X140859457Y-67206437D01*
X140905201Y-67187489D01*
X140967990Y-67175000D01*
X141032010Y-67175000D01*
X141094799Y-67187489D01*
X141094799Y-67187489D01*
G37*
G36*
X139594799Y-67187489D02*
X139640543Y-67206437D01*
X139653941Y-67211986D01*
X139653942Y-67211987D01*
X139653945Y-67211988D01*
X139707176Y-67247556D01*
X139752444Y-67292824D01*
X139788012Y-67346055D01*
X139812511Y-67405201D01*
X139825000Y-67467990D01*
X139825000Y-67532010D01*
X139812511Y-67594799D01*
X139788012Y-67653945D01*
X139752444Y-67707176D01*
X139707176Y-67752444D01*
X139653945Y-67788012D01*
X139653942Y-67788013D01*
X139653941Y-67788014D01*
X139640543Y-67793563D01*
X139594799Y-67812511D01*
X139532010Y-67825000D01*
X139467990Y-67825000D01*
X139405201Y-67812511D01*
X139359457Y-67793563D01*
X139346059Y-67788014D01*
X139346058Y-67788013D01*
X139346055Y-67788012D01*
X139292824Y-67752444D01*
X139247556Y-67707176D01*
X139211988Y-67653945D01*
X139187489Y-67594799D01*
X139175000Y-67532010D01*
X139175000Y-67467990D01*
X139187489Y-67405201D01*
X139211988Y-67346055D01*
X139247556Y-67292824D01*
X139292824Y-67247556D01*
X139346055Y-67211988D01*
X139346058Y-67211987D01*
X139346059Y-67211986D01*
X139359457Y-67206437D01*
X139405201Y-67187489D01*
X139467990Y-67175000D01*
X139532010Y-67175000D01*
X139594799Y-67187489D01*
X139594799Y-67187489D01*
G37*
G36*
X146075000Y-67795000D02*
X145525000Y-67795000D01*
X145525000Y-67405000D01*
X146075000Y-67405000D01*
X146075000Y-67795000D01*
X146075000Y-67795000D01*
G37*
G36*
X136475000Y-67795000D02*
X135925000Y-67795000D01*
X135925000Y-67405000D01*
X136475000Y-67405000D01*
X136475000Y-67795000D01*
X136475000Y-67795000D01*
G37*
G36*
X166375000Y-67650000D02*
X165625000Y-67650000D01*
X165625000Y-66850000D01*
X166375000Y-66850000D01*
X166375000Y-67650000D01*
X166375000Y-67650000D01*
G37*
G36*
X146075000Y-66995000D02*
X145525000Y-66995000D01*
X145525000Y-66605000D01*
X146075000Y-66605000D01*
X146075000Y-66995000D01*
X146075000Y-66995000D01*
G37*
G36*
X136475000Y-66995000D02*
X135925000Y-66995000D01*
X135925000Y-66605000D01*
X136475000Y-66605000D01*
X136475000Y-66995000D01*
X136475000Y-66995000D01*
G37*
G36*
X190450000Y-66500000D02*
X189550000Y-66500000D01*
X189550000Y-66000000D01*
X190450000Y-66000000D01*
X190450000Y-66500000D01*
X190450000Y-66500000D01*
G37*
G36*
X144094799Y-65687489D02*
X144140543Y-65706437D01*
X144153941Y-65711986D01*
X144153942Y-65711987D01*
X144153945Y-65711988D01*
X144207176Y-65747556D01*
X144252444Y-65792824D01*
X144288012Y-65846055D01*
X144312511Y-65905201D01*
X144325000Y-65967990D01*
X144325000Y-66032010D01*
X144312511Y-66094799D01*
X144288012Y-66153945D01*
X144252444Y-66207176D01*
X144207176Y-66252444D01*
X144153945Y-66288012D01*
X144153942Y-66288013D01*
X144153941Y-66288014D01*
X144140543Y-66293563D01*
X144094799Y-66312511D01*
X144032010Y-66325000D01*
X143967990Y-66325000D01*
X143905201Y-66312511D01*
X143859457Y-66293563D01*
X143846059Y-66288014D01*
X143846058Y-66288013D01*
X143846055Y-66288012D01*
X143792824Y-66252444D01*
X143747556Y-66207176D01*
X143711988Y-66153945D01*
X143687489Y-66094799D01*
X143675000Y-66032010D01*
X143675000Y-65967990D01*
X143687489Y-65905201D01*
X143711988Y-65846055D01*
X143747556Y-65792824D01*
X143792824Y-65747556D01*
X143846055Y-65711988D01*
X143846058Y-65711987D01*
X143846059Y-65711986D01*
X143859457Y-65706437D01*
X143905201Y-65687489D01*
X143967990Y-65675000D01*
X144032010Y-65675000D01*
X144094799Y-65687489D01*
X144094799Y-65687489D01*
G37*
G36*
X139594799Y-65687489D02*
X139640543Y-65706437D01*
X139653941Y-65711986D01*
X139653942Y-65711987D01*
X139653945Y-65711988D01*
X139707176Y-65747556D01*
X139752444Y-65792824D01*
X139788012Y-65846055D01*
X139812511Y-65905201D01*
X139825000Y-65967990D01*
X139825000Y-66032010D01*
X139812511Y-66094799D01*
X139788012Y-66153945D01*
X139752444Y-66207176D01*
X139707176Y-66252444D01*
X139653945Y-66288012D01*
X139653942Y-66288013D01*
X139653941Y-66288014D01*
X139640543Y-66293563D01*
X139594799Y-66312511D01*
X139532010Y-66325000D01*
X139467990Y-66325000D01*
X139405201Y-66312511D01*
X139359457Y-66293563D01*
X139346059Y-66288014D01*
X139346058Y-66288013D01*
X139346055Y-66288012D01*
X139292824Y-66252444D01*
X139247556Y-66207176D01*
X139211988Y-66153945D01*
X139187489Y-66094799D01*
X139175000Y-66032010D01*
X139175000Y-65967990D01*
X139187489Y-65905201D01*
X139211988Y-65846055D01*
X139247556Y-65792824D01*
X139292824Y-65747556D01*
X139346055Y-65711988D01*
X139346058Y-65711987D01*
X139346059Y-65711986D01*
X139359457Y-65706437D01*
X139405201Y-65687489D01*
X139467990Y-65675000D01*
X139532010Y-65675000D01*
X139594799Y-65687489D01*
X139594799Y-65687489D01*
G37*
G36*
X142594799Y-65687489D02*
X142640543Y-65706437D01*
X142653941Y-65711986D01*
X142653942Y-65711987D01*
X142653945Y-65711988D01*
X142707176Y-65747556D01*
X142752444Y-65792824D01*
X142788012Y-65846055D01*
X142812511Y-65905201D01*
X142825000Y-65967990D01*
X142825000Y-66032010D01*
X142812511Y-66094799D01*
X142788012Y-66153945D01*
X142752444Y-66207176D01*
X142707176Y-66252444D01*
X142653945Y-66288012D01*
X142653942Y-66288013D01*
X142653941Y-66288014D01*
X142640543Y-66293563D01*
X142594799Y-66312511D01*
X142532010Y-66325000D01*
X142467990Y-66325000D01*
X142405201Y-66312511D01*
X142359457Y-66293563D01*
X142346059Y-66288014D01*
X142346058Y-66288013D01*
X142346055Y-66288012D01*
X142292824Y-66252444D01*
X142247556Y-66207176D01*
X142211988Y-66153945D01*
X142187489Y-66094799D01*
X142175000Y-66032010D01*
X142175000Y-65967990D01*
X142187489Y-65905201D01*
X142211988Y-65846055D01*
X142247556Y-65792824D01*
X142292824Y-65747556D01*
X142346055Y-65711988D01*
X142346058Y-65711987D01*
X142346059Y-65711986D01*
X142359457Y-65706437D01*
X142405201Y-65687489D01*
X142467990Y-65675000D01*
X142532010Y-65675000D01*
X142594799Y-65687489D01*
X142594799Y-65687489D01*
G37*
G36*
X141094799Y-65687489D02*
X141140543Y-65706437D01*
X141153941Y-65711986D01*
X141153942Y-65711987D01*
X141153945Y-65711988D01*
X141207176Y-65747556D01*
X141252444Y-65792824D01*
X141288012Y-65846055D01*
X141312511Y-65905201D01*
X141325000Y-65967990D01*
X141325000Y-66032010D01*
X141312511Y-66094799D01*
X141288012Y-66153945D01*
X141252444Y-66207176D01*
X141207176Y-66252444D01*
X141153945Y-66288012D01*
X141153942Y-66288013D01*
X141153941Y-66288014D01*
X141140543Y-66293563D01*
X141094799Y-66312511D01*
X141032010Y-66325000D01*
X140967990Y-66325000D01*
X140905201Y-66312511D01*
X140859457Y-66293563D01*
X140846059Y-66288014D01*
X140846058Y-66288013D01*
X140846055Y-66288012D01*
X140792824Y-66252444D01*
X140747556Y-66207176D01*
X140711988Y-66153945D01*
X140687489Y-66094799D01*
X140675000Y-66032010D01*
X140675000Y-65967990D01*
X140687489Y-65905201D01*
X140711988Y-65846055D01*
X140747556Y-65792824D01*
X140792824Y-65747556D01*
X140846055Y-65711988D01*
X140846058Y-65711987D01*
X140846059Y-65711986D01*
X140859457Y-65706437D01*
X140905201Y-65687489D01*
X140967990Y-65675000D01*
X141032010Y-65675000D01*
X141094799Y-65687489D01*
X141094799Y-65687489D01*
G37*
G36*
X138094799Y-65687489D02*
X138140543Y-65706437D01*
X138153941Y-65711986D01*
X138153942Y-65711987D01*
X138153945Y-65711988D01*
X138207176Y-65747556D01*
X138252444Y-65792824D01*
X138288012Y-65846055D01*
X138312511Y-65905201D01*
X138325000Y-65967990D01*
X138325000Y-66032010D01*
X138312511Y-66094799D01*
X138288012Y-66153945D01*
X138252444Y-66207176D01*
X138207176Y-66252444D01*
X138153945Y-66288012D01*
X138153942Y-66288013D01*
X138153941Y-66288014D01*
X138140543Y-66293563D01*
X138094799Y-66312511D01*
X138032010Y-66325000D01*
X137967990Y-66325000D01*
X137905201Y-66312511D01*
X137859457Y-66293563D01*
X137846059Y-66288014D01*
X137846058Y-66288013D01*
X137846055Y-66288012D01*
X137792824Y-66252444D01*
X137747556Y-66207176D01*
X137711988Y-66153945D01*
X137687489Y-66094799D01*
X137675000Y-66032010D01*
X137675000Y-65967990D01*
X137687489Y-65905201D01*
X137711988Y-65846055D01*
X137747556Y-65792824D01*
X137792824Y-65747556D01*
X137846055Y-65711988D01*
X137846058Y-65711987D01*
X137846059Y-65711986D01*
X137859457Y-65706437D01*
X137905201Y-65687489D01*
X137967990Y-65675000D01*
X138032010Y-65675000D01*
X138094799Y-65687489D01*
X138094799Y-65687489D01*
G37*
G36*
X185850000Y-66250000D02*
X185250000Y-66250000D01*
X185250000Y-65750000D01*
X185850000Y-65750000D01*
X185850000Y-66250000D01*
X185850000Y-66250000D01*
G37*
G36*
X184750000Y-66250000D02*
X184150000Y-66250000D01*
X184150000Y-65750000D01*
X184750000Y-65750000D01*
X184750000Y-66250000D01*
X184750000Y-66250000D01*
G37*
G36*
X146075000Y-66195000D02*
X145525000Y-66195000D01*
X145525000Y-65805000D01*
X146075000Y-65805000D01*
X146075000Y-66195000D01*
X146075000Y-66195000D01*
G37*
G36*
X136475000Y-66195000D02*
X135925000Y-66195000D01*
X135925000Y-65805000D01*
X136475000Y-65805000D01*
X136475000Y-66195000D01*
X136475000Y-66195000D01*
G37*
G36*
X195450000Y-66000000D02*
X194550000Y-66000000D01*
X194550000Y-65500000D01*
X195450000Y-65500000D01*
X195450000Y-66000000D01*
X195450000Y-66000000D01*
G37*
G36*
X136475000Y-65395000D02*
X135925000Y-65395000D01*
X135925000Y-65005000D01*
X136475000Y-65005000D01*
X136475000Y-65395000D01*
X136475000Y-65395000D01*
G37*
G36*
X146075000Y-65395000D02*
X145525000Y-65395000D01*
X145525000Y-65005000D01*
X146075000Y-65005000D01*
X146075000Y-65395000D01*
X146075000Y-65395000D01*
G37*
G36*
X138094799Y-64187489D02*
X138137074Y-64205000D01*
X138153941Y-64211986D01*
X138153942Y-64211987D01*
X138153945Y-64211988D01*
X138207176Y-64247556D01*
X138252444Y-64292824D01*
X138288012Y-64346055D01*
X138312511Y-64405201D01*
X138325000Y-64467990D01*
X138325000Y-64532010D01*
X138312511Y-64594799D01*
X138288012Y-64653945D01*
X138252444Y-64707176D01*
X138207176Y-64752444D01*
X138153945Y-64788012D01*
X138153942Y-64788013D01*
X138153941Y-64788014D01*
X138140543Y-64793563D01*
X138094799Y-64812511D01*
X138032010Y-64825000D01*
X137967990Y-64825000D01*
X137905201Y-64812511D01*
X137859457Y-64793563D01*
X137846059Y-64788014D01*
X137846058Y-64788013D01*
X137846055Y-64788012D01*
X137792824Y-64752444D01*
X137747556Y-64707176D01*
X137711988Y-64653945D01*
X137687489Y-64594799D01*
X137675000Y-64532010D01*
X137675000Y-64467990D01*
X137687489Y-64405201D01*
X137711988Y-64346055D01*
X137747556Y-64292824D01*
X137792824Y-64247556D01*
X137846055Y-64211988D01*
X137846058Y-64211987D01*
X137846059Y-64211986D01*
X137862926Y-64205000D01*
X137905201Y-64187489D01*
X137967990Y-64175000D01*
X138032010Y-64175000D01*
X138094799Y-64187489D01*
X138094799Y-64187489D01*
G37*
G36*
X139594799Y-64187489D02*
X139637074Y-64205000D01*
X139653941Y-64211986D01*
X139653942Y-64211987D01*
X139653945Y-64211988D01*
X139707176Y-64247556D01*
X139752444Y-64292824D01*
X139788012Y-64346055D01*
X139812511Y-64405201D01*
X139825000Y-64467990D01*
X139825000Y-64532010D01*
X139812511Y-64594799D01*
X139788012Y-64653945D01*
X139752444Y-64707176D01*
X139707176Y-64752444D01*
X139653945Y-64788012D01*
X139653942Y-64788013D01*
X139653941Y-64788014D01*
X139640543Y-64793563D01*
X139594799Y-64812511D01*
X139532010Y-64825000D01*
X139467990Y-64825000D01*
X139405201Y-64812511D01*
X139359457Y-64793563D01*
X139346059Y-64788014D01*
X139346058Y-64788013D01*
X139346055Y-64788012D01*
X139292824Y-64752444D01*
X139247556Y-64707176D01*
X139211988Y-64653945D01*
X139187489Y-64594799D01*
X139175000Y-64532010D01*
X139175000Y-64467990D01*
X139187489Y-64405201D01*
X139211988Y-64346055D01*
X139247556Y-64292824D01*
X139292824Y-64247556D01*
X139346055Y-64211988D01*
X139346058Y-64211987D01*
X139346059Y-64211986D01*
X139362926Y-64205000D01*
X139405201Y-64187489D01*
X139467990Y-64175000D01*
X139532010Y-64175000D01*
X139594799Y-64187489D01*
X139594799Y-64187489D01*
G37*
G36*
X144094799Y-64187489D02*
X144137074Y-64205000D01*
X144153941Y-64211986D01*
X144153942Y-64211987D01*
X144153945Y-64211988D01*
X144207176Y-64247556D01*
X144252444Y-64292824D01*
X144288012Y-64346055D01*
X144312511Y-64405201D01*
X144325000Y-64467990D01*
X144325000Y-64532010D01*
X144312511Y-64594799D01*
X144288012Y-64653945D01*
X144252444Y-64707176D01*
X144207176Y-64752444D01*
X144153945Y-64788012D01*
X144153942Y-64788013D01*
X144153941Y-64788014D01*
X144140543Y-64793563D01*
X144094799Y-64812511D01*
X144032010Y-64825000D01*
X143967990Y-64825000D01*
X143905201Y-64812511D01*
X143859457Y-64793563D01*
X143846059Y-64788014D01*
X143846058Y-64788013D01*
X143846055Y-64788012D01*
X143792824Y-64752444D01*
X143747556Y-64707176D01*
X143711988Y-64653945D01*
X143687489Y-64594799D01*
X143675000Y-64532010D01*
X143675000Y-64467990D01*
X143687489Y-64405201D01*
X143711988Y-64346055D01*
X143747556Y-64292824D01*
X143792824Y-64247556D01*
X143846055Y-64211988D01*
X143846058Y-64211987D01*
X143846059Y-64211986D01*
X143862926Y-64205000D01*
X143905201Y-64187489D01*
X143967990Y-64175000D01*
X144032010Y-64175000D01*
X144094799Y-64187489D01*
X144094799Y-64187489D01*
G37*
G36*
X141094799Y-64187489D02*
X141137074Y-64205000D01*
X141153941Y-64211986D01*
X141153942Y-64211987D01*
X141153945Y-64211988D01*
X141207176Y-64247556D01*
X141252444Y-64292824D01*
X141288012Y-64346055D01*
X141312511Y-64405201D01*
X141325000Y-64467990D01*
X141325000Y-64532010D01*
X141312511Y-64594799D01*
X141288012Y-64653945D01*
X141252444Y-64707176D01*
X141207176Y-64752444D01*
X141153945Y-64788012D01*
X141153942Y-64788013D01*
X141153941Y-64788014D01*
X141140543Y-64793563D01*
X141094799Y-64812511D01*
X141032010Y-64825000D01*
X140967990Y-64825000D01*
X140905201Y-64812511D01*
X140859457Y-64793563D01*
X140846059Y-64788014D01*
X140846058Y-64788013D01*
X140846055Y-64788012D01*
X140792824Y-64752444D01*
X140747556Y-64707176D01*
X140711988Y-64653945D01*
X140687489Y-64594799D01*
X140675000Y-64532010D01*
X140675000Y-64467990D01*
X140687489Y-64405201D01*
X140711988Y-64346055D01*
X140747556Y-64292824D01*
X140792824Y-64247556D01*
X140846055Y-64211988D01*
X140846058Y-64211987D01*
X140846059Y-64211986D01*
X140862926Y-64205000D01*
X140905201Y-64187489D01*
X140967990Y-64175000D01*
X141032010Y-64175000D01*
X141094799Y-64187489D01*
X141094799Y-64187489D01*
G37*
G36*
X142594799Y-64187489D02*
X142637074Y-64205000D01*
X142653941Y-64211986D01*
X142653942Y-64211987D01*
X142653945Y-64211988D01*
X142707176Y-64247556D01*
X142752444Y-64292824D01*
X142788012Y-64346055D01*
X142812511Y-64405201D01*
X142825000Y-64467990D01*
X142825000Y-64532010D01*
X142812511Y-64594799D01*
X142788012Y-64653945D01*
X142752444Y-64707176D01*
X142707176Y-64752444D01*
X142653945Y-64788012D01*
X142653942Y-64788013D01*
X142653941Y-64788014D01*
X142640543Y-64793563D01*
X142594799Y-64812511D01*
X142532010Y-64825000D01*
X142467990Y-64825000D01*
X142405201Y-64812511D01*
X142359457Y-64793563D01*
X142346059Y-64788014D01*
X142346058Y-64788013D01*
X142346055Y-64788012D01*
X142292824Y-64752444D01*
X142247556Y-64707176D01*
X142211988Y-64653945D01*
X142187489Y-64594799D01*
X142175000Y-64532010D01*
X142175000Y-64467990D01*
X142187489Y-64405201D01*
X142211988Y-64346055D01*
X142247556Y-64292824D01*
X142292824Y-64247556D01*
X142346055Y-64211988D01*
X142346058Y-64211987D01*
X142346059Y-64211986D01*
X142362926Y-64205000D01*
X142405201Y-64187489D01*
X142467990Y-64175000D01*
X142532010Y-64175000D01*
X142594799Y-64187489D01*
X142594799Y-64187489D01*
G37*
G36*
X146075000Y-64595000D02*
X145525000Y-64595000D01*
X145525000Y-64205000D01*
X146075000Y-64205000D01*
X146075000Y-64595000D01*
X146075000Y-64595000D01*
G37*
G36*
X136475000Y-64595000D02*
X135925000Y-64595000D01*
X135925000Y-64205000D01*
X136475000Y-64205000D01*
X136475000Y-64595000D01*
X136475000Y-64595000D01*
G37*
G36*
X195450000Y-64500000D02*
X194550000Y-64500000D01*
X194550000Y-64000000D01*
X195450000Y-64000000D01*
X195450000Y-64500000D01*
X195450000Y-64500000D01*
G37*
G36*
X128900000Y-64375000D02*
X128100000Y-64375000D01*
X128100000Y-63625000D01*
X128900000Y-63625000D01*
X128900000Y-64375000D01*
X128900000Y-64375000D01*
G37*
G36*
X130400000Y-64375000D02*
X129600000Y-64375000D01*
X129600000Y-63625000D01*
X130400000Y-63625000D01*
X130400000Y-64375000D01*
X130400000Y-64375000D01*
G37*
G36*
X173146318Y-62384411D02*
X173218767Y-62398822D01*
X173275303Y-62422240D01*
X173355257Y-62455358D01*
X173478100Y-62537439D01*
X173582561Y-62641900D01*
X173664642Y-62764743D01*
X173721178Y-62901234D01*
X173750000Y-63046130D01*
X173750000Y-63193870D01*
X173721178Y-63338766D01*
X173664642Y-63475257D01*
X173582561Y-63598100D01*
X173478100Y-63702561D01*
X173355257Y-63784642D01*
X173275303Y-63817760D01*
X173218767Y-63841178D01*
X173146318Y-63855589D01*
X173073870Y-63870000D01*
X172926130Y-63870000D01*
X172853682Y-63855589D01*
X172781233Y-63841178D01*
X172724697Y-63817760D01*
X172644743Y-63784642D01*
X172521900Y-63702561D01*
X172417439Y-63598100D01*
X172335358Y-63475257D01*
X172278822Y-63338766D01*
X172250000Y-63193870D01*
X172250000Y-63046130D01*
X172278822Y-62901234D01*
X172335358Y-62764743D01*
X172417439Y-62641900D01*
X172521900Y-62537439D01*
X172644743Y-62455358D01*
X172724697Y-62422240D01*
X172781233Y-62398822D01*
X172853682Y-62384411D01*
X172926130Y-62370000D01*
X173073870Y-62370000D01*
X173146318Y-62384411D01*
X173146318Y-62384411D01*
G37*
G36*
X136475000Y-63795000D02*
X135925000Y-63795000D01*
X135925000Y-63405000D01*
X136475000Y-63405000D01*
X136475000Y-63795000D01*
X136475000Y-63795000D01*
G37*
G36*
X146075000Y-63795000D02*
X145525000Y-63795000D01*
X145525000Y-63405000D01*
X146075000Y-63405000D01*
X146075000Y-63795000D01*
X146075000Y-63795000D01*
G37*
G36*
X141094799Y-62687489D02*
X141140543Y-62706437D01*
X141153941Y-62711986D01*
X141153942Y-62711987D01*
X141153945Y-62711988D01*
X141207176Y-62747556D01*
X141252444Y-62792824D01*
X141288012Y-62846055D01*
X141312511Y-62905201D01*
X141325000Y-62967990D01*
X141325000Y-63032010D01*
X141312511Y-63094799D01*
X141288012Y-63153945D01*
X141252444Y-63207176D01*
X141207176Y-63252444D01*
X141153945Y-63288012D01*
X141153942Y-63288013D01*
X141153941Y-63288014D01*
X141140543Y-63293563D01*
X141094799Y-63312511D01*
X141032010Y-63325000D01*
X140967990Y-63325000D01*
X140905201Y-63312511D01*
X140859457Y-63293563D01*
X140846059Y-63288014D01*
X140846058Y-63288013D01*
X140846055Y-63288012D01*
X140792824Y-63252444D01*
X140747556Y-63207176D01*
X140711988Y-63153945D01*
X140687489Y-63094799D01*
X140675000Y-63032010D01*
X140675000Y-62967990D01*
X140687489Y-62905201D01*
X140711988Y-62846055D01*
X140747556Y-62792824D01*
X140792824Y-62747556D01*
X140846055Y-62711988D01*
X140846058Y-62711987D01*
X140846059Y-62711986D01*
X140859457Y-62706437D01*
X140905201Y-62687489D01*
X140967990Y-62675000D01*
X141032010Y-62675000D01*
X141094799Y-62687489D01*
X141094799Y-62687489D01*
G37*
G36*
X142594799Y-62687489D02*
X142640543Y-62706437D01*
X142653941Y-62711986D01*
X142653942Y-62711987D01*
X142653945Y-62711988D01*
X142707176Y-62747556D01*
X142752444Y-62792824D01*
X142788012Y-62846055D01*
X142812511Y-62905201D01*
X142825000Y-62967990D01*
X142825000Y-63032010D01*
X142812511Y-63094799D01*
X142788012Y-63153945D01*
X142752444Y-63207176D01*
X142707176Y-63252444D01*
X142653945Y-63288012D01*
X142653942Y-63288013D01*
X142653941Y-63288014D01*
X142640543Y-63293563D01*
X142594799Y-63312511D01*
X142532010Y-63325000D01*
X142467990Y-63325000D01*
X142405201Y-63312511D01*
X142359457Y-63293563D01*
X142346059Y-63288014D01*
X142346058Y-63288013D01*
X142346055Y-63288012D01*
X142292824Y-63252444D01*
X142247556Y-63207176D01*
X142211988Y-63153945D01*
X142187489Y-63094799D01*
X142175000Y-63032010D01*
X142175000Y-62967990D01*
X142187489Y-62905201D01*
X142211988Y-62846055D01*
X142247556Y-62792824D01*
X142292824Y-62747556D01*
X142346055Y-62711988D01*
X142346058Y-62711987D01*
X142346059Y-62711986D01*
X142359457Y-62706437D01*
X142405201Y-62687489D01*
X142467990Y-62675000D01*
X142532010Y-62675000D01*
X142594799Y-62687489D01*
X142594799Y-62687489D01*
G37*
G36*
X144094799Y-62687489D02*
X144140543Y-62706437D01*
X144153941Y-62711986D01*
X144153942Y-62711987D01*
X144153945Y-62711988D01*
X144207176Y-62747556D01*
X144252444Y-62792824D01*
X144288012Y-62846055D01*
X144312511Y-62905201D01*
X144325000Y-62967990D01*
X144325000Y-63032010D01*
X144312511Y-63094799D01*
X144288012Y-63153945D01*
X144252444Y-63207176D01*
X144207176Y-63252444D01*
X144153945Y-63288012D01*
X144153942Y-63288013D01*
X144153941Y-63288014D01*
X144140543Y-63293563D01*
X144094799Y-63312511D01*
X144032010Y-63325000D01*
X143967990Y-63325000D01*
X143905201Y-63312511D01*
X143859457Y-63293563D01*
X143846059Y-63288014D01*
X143846058Y-63288013D01*
X143846055Y-63288012D01*
X143792824Y-63252444D01*
X143747556Y-63207176D01*
X143711988Y-63153945D01*
X143687489Y-63094799D01*
X143675000Y-63032010D01*
X143675000Y-62967990D01*
X143687489Y-62905201D01*
X143711988Y-62846055D01*
X143747556Y-62792824D01*
X143792824Y-62747556D01*
X143846055Y-62711988D01*
X143846058Y-62711987D01*
X143846059Y-62711986D01*
X143859457Y-62706437D01*
X143905201Y-62687489D01*
X143967990Y-62675000D01*
X144032010Y-62675000D01*
X144094799Y-62687489D01*
X144094799Y-62687489D01*
G37*
G36*
X139594799Y-62687489D02*
X139640543Y-62706437D01*
X139653941Y-62711986D01*
X139653942Y-62711987D01*
X139653945Y-62711988D01*
X139707176Y-62747556D01*
X139752444Y-62792824D01*
X139788012Y-62846055D01*
X139812511Y-62905201D01*
X139825000Y-62967990D01*
X139825000Y-63032010D01*
X139812511Y-63094799D01*
X139788012Y-63153945D01*
X139752444Y-63207176D01*
X139707176Y-63252444D01*
X139653945Y-63288012D01*
X139653942Y-63288013D01*
X139653941Y-63288014D01*
X139640543Y-63293563D01*
X139594799Y-63312511D01*
X139532010Y-63325000D01*
X139467990Y-63325000D01*
X139405201Y-63312511D01*
X139359457Y-63293563D01*
X139346059Y-63288014D01*
X139346058Y-63288013D01*
X139346055Y-63288012D01*
X139292824Y-63252444D01*
X139247556Y-63207176D01*
X139211988Y-63153945D01*
X139187489Y-63094799D01*
X139175000Y-63032010D01*
X139175000Y-62967990D01*
X139187489Y-62905201D01*
X139211988Y-62846055D01*
X139247556Y-62792824D01*
X139292824Y-62747556D01*
X139346055Y-62711988D01*
X139346058Y-62711987D01*
X139346059Y-62711986D01*
X139359457Y-62706437D01*
X139405201Y-62687489D01*
X139467990Y-62675000D01*
X139532010Y-62675000D01*
X139594799Y-62687489D01*
X139594799Y-62687489D01*
G37*
G36*
X138094799Y-62687489D02*
X138140543Y-62706437D01*
X138153941Y-62711986D01*
X138153942Y-62711987D01*
X138153945Y-62711988D01*
X138207176Y-62747556D01*
X138252444Y-62792824D01*
X138288012Y-62846055D01*
X138312511Y-62905201D01*
X138325000Y-62967990D01*
X138325000Y-63032010D01*
X138312511Y-63094799D01*
X138288012Y-63153945D01*
X138252444Y-63207176D01*
X138207176Y-63252444D01*
X138153945Y-63288012D01*
X138153942Y-63288013D01*
X138153941Y-63288014D01*
X138140543Y-63293563D01*
X138094799Y-63312511D01*
X138032010Y-63325000D01*
X137967990Y-63325000D01*
X137905201Y-63312511D01*
X137859457Y-63293563D01*
X137846059Y-63288014D01*
X137846058Y-63288013D01*
X137846055Y-63288012D01*
X137792824Y-63252444D01*
X137747556Y-63207176D01*
X137711988Y-63153945D01*
X137687489Y-63094799D01*
X137675000Y-63032010D01*
X137675000Y-62967990D01*
X137687489Y-62905201D01*
X137711988Y-62846055D01*
X137747556Y-62792824D01*
X137792824Y-62747556D01*
X137846055Y-62711988D01*
X137846058Y-62711987D01*
X137846059Y-62711986D01*
X137859457Y-62706437D01*
X137905201Y-62687489D01*
X137967990Y-62675000D01*
X138032010Y-62675000D01*
X138094799Y-62687489D01*
X138094799Y-62687489D01*
G37*
G36*
X166375000Y-63150000D02*
X165625000Y-63150000D01*
X165625000Y-62350000D01*
X166375000Y-62350000D01*
X166375000Y-63150000D01*
X166375000Y-63150000D01*
G37*
G36*
X190375000Y-63150000D02*
X189625000Y-63150000D01*
X189625000Y-62350000D01*
X190375000Y-62350000D01*
X190375000Y-63150000D01*
X190375000Y-63150000D01*
G37*
G36*
X136475000Y-62995000D02*
X135925000Y-62995000D01*
X135925000Y-62605000D01*
X136475000Y-62605000D01*
X136475000Y-62995000D01*
X136475000Y-62995000D01*
G37*
G36*
X146075000Y-62995000D02*
X145525000Y-62995000D01*
X145525000Y-62605000D01*
X146075000Y-62605000D01*
X146075000Y-62995000D01*
X146075000Y-62995000D01*
G37*
G36*
X136475000Y-62195000D02*
X135925000Y-62195000D01*
X135925000Y-61805000D01*
X136475000Y-61805000D01*
X136475000Y-62195000D01*
X136475000Y-62195000D01*
G37*
G36*
X146075000Y-62195000D02*
X145525000Y-62195000D01*
X145525000Y-61805000D01*
X146075000Y-61805000D01*
X146075000Y-62195000D01*
X146075000Y-62195000D01*
G37*
G36*
X166375000Y-61650000D02*
X165625000Y-61650000D01*
X165625000Y-60850000D01*
X166375000Y-60850000D01*
X166375000Y-61650000D01*
X166375000Y-61650000D01*
G37*
G36*
X190375000Y-61650000D02*
X189625000Y-61650000D01*
X189625000Y-60850000D01*
X190375000Y-60850000D01*
X190375000Y-61650000D01*
X190375000Y-61650000D01*
G37*
G36*
X142795000Y-61475000D02*
X142405000Y-61475000D01*
X142405000Y-60925000D01*
X142795000Y-60925000D01*
X142795000Y-61475000D01*
X142795000Y-61475000D01*
G37*
G36*
X137195000Y-61475000D02*
X136805000Y-61475000D01*
X136805000Y-60925000D01*
X137195000Y-60925000D01*
X137195000Y-61475000D01*
X137195000Y-61475000D01*
G37*
G36*
X137995000Y-61475000D02*
X137605000Y-61475000D01*
X137605000Y-60925000D01*
X137995000Y-60925000D01*
X137995000Y-61475000D01*
X137995000Y-61475000D01*
G37*
G36*
X145195000Y-61475000D02*
X144805000Y-61475000D01*
X144805000Y-60925000D01*
X145195000Y-60925000D01*
X145195000Y-61475000D01*
X145195000Y-61475000D01*
G37*
G36*
X144395000Y-61475000D02*
X144005000Y-61475000D01*
X144005000Y-60925000D01*
X144395000Y-60925000D01*
X144395000Y-61475000D01*
X144395000Y-61475000D01*
G37*
G36*
X143595000Y-61475000D02*
X143205000Y-61475000D01*
X143205000Y-60925000D01*
X143595000Y-60925000D01*
X143595000Y-61475000D01*
X143595000Y-61475000D01*
G37*
G36*
X141995000Y-61475000D02*
X141605000Y-61475000D01*
X141605000Y-60925000D01*
X141995000Y-60925000D01*
X141995000Y-61475000D01*
X141995000Y-61475000D01*
G37*
G36*
X141195000Y-61475000D02*
X140805000Y-61475000D01*
X140805000Y-60925000D01*
X141195000Y-60925000D01*
X141195000Y-61475000D01*
X141195000Y-61475000D01*
G37*
G36*
X138795000Y-61475000D02*
X138405000Y-61475000D01*
X138405000Y-60925000D01*
X138795000Y-60925000D01*
X138795000Y-61475000D01*
X138795000Y-61475000D01*
G37*
G36*
X139595000Y-61475000D02*
X139205000Y-61475000D01*
X139205000Y-60925000D01*
X139595000Y-60925000D01*
X139595000Y-61475000D01*
X139595000Y-61475000D01*
G37*
G36*
X140395000Y-61475000D02*
X140005000Y-61475000D01*
X140005000Y-60925000D01*
X140395000Y-60925000D01*
X140395000Y-61475000D01*
X140395000Y-61475000D01*
G37*
G36*
X186000000Y-61450000D02*
X185500000Y-61450000D01*
X185500000Y-60550000D01*
X186000000Y-60550000D01*
X186000000Y-61450000D01*
X186000000Y-61450000D01*
G37*
G36*
X184500000Y-61450000D02*
X184000000Y-61450000D01*
X184000000Y-60550000D01*
X184500000Y-60550000D01*
X184500000Y-61450000D01*
X184500000Y-61450000D01*
G37*
G36*
X195375000Y-61150000D02*
X194625000Y-61150000D01*
X194625000Y-60350000D01*
X195375000Y-60350000D01*
X195375000Y-61150000D01*
X195375000Y-61150000D01*
G37*
G36*
X158450000Y-61000000D02*
X157550000Y-61000000D01*
X157550000Y-60500000D01*
X158450000Y-60500000D01*
X158450000Y-61000000D01*
X158450000Y-61000000D01*
G37*
G36*
X195375000Y-59650000D02*
X194625000Y-59650000D01*
X194625000Y-58850000D01*
X195375000Y-58850000D01*
X195375000Y-59650000D01*
X195375000Y-59650000D01*
G37*
G36*
X158450000Y-59500000D02*
X157550000Y-59500000D01*
X157550000Y-59000000D01*
X158450000Y-59000000D01*
X158450000Y-59500000D01*
X158450000Y-59500000D01*
G37*
G36*
X127780857Y-56482272D02*
X127981042Y-56565191D01*
X128161213Y-56685578D01*
X128314422Y-56838787D01*
X128434809Y-57018958D01*
X128517728Y-57219143D01*
X128560000Y-57431658D01*
X128560000Y-57648342D01*
X128517728Y-57860857D01*
X128434809Y-58061042D01*
X128314422Y-58241213D01*
X128161213Y-58394422D01*
X127981042Y-58514809D01*
X127780857Y-58597728D01*
X127568342Y-58640000D01*
X127351658Y-58640000D01*
X127139143Y-58597728D01*
X126938958Y-58514809D01*
X126758787Y-58394422D01*
X126605578Y-58241213D01*
X126485191Y-58061042D01*
X126402272Y-57860857D01*
X126360000Y-57648342D01*
X126360000Y-57431658D01*
X126402272Y-57219143D01*
X126485191Y-57018958D01*
X126605578Y-56838787D01*
X126758787Y-56685578D01*
X126938958Y-56565191D01*
X127139143Y-56482272D01*
X127351658Y-56440000D01*
X127568342Y-56440000D01*
X127780857Y-56482272D01*
X127780857Y-56482272D01*
G37*
G36*
X132860857Y-56482272D02*
X133061042Y-56565191D01*
X133241213Y-56685578D01*
X133394422Y-56838787D01*
X133514809Y-57018958D01*
X133597728Y-57219143D01*
X133640000Y-57431658D01*
X133640000Y-57648342D01*
X133597728Y-57860857D01*
X133514809Y-58061042D01*
X133394422Y-58241213D01*
X133241213Y-58394422D01*
X133061042Y-58514809D01*
X132860857Y-58597728D01*
X132648342Y-58640000D01*
X132431658Y-58640000D01*
X132219143Y-58597728D01*
X132018958Y-58514809D01*
X131838787Y-58394422D01*
X131685578Y-58241213D01*
X131565191Y-58061042D01*
X131482272Y-57860857D01*
X131440000Y-57648342D01*
X131440000Y-57431658D01*
X131482272Y-57219143D01*
X131565191Y-57018958D01*
X131685578Y-56838787D01*
X131838787Y-56685578D01*
X132018958Y-56565191D01*
X132219143Y-56482272D01*
X132431658Y-56440000D01*
X132648342Y-56440000D01*
X132860857Y-56482272D01*
X132860857Y-56482272D01*
G37*
G36*
X144450000Y-58000000D02*
X143550000Y-58000000D01*
X143550000Y-57500000D01*
X144450000Y-57500000D01*
X144450000Y-58000000D01*
X144450000Y-58000000D01*
G37*
G36*
X144450000Y-56500000D02*
X143550000Y-56500000D01*
X143550000Y-56000000D01*
X144450000Y-56000000D01*
X144450000Y-56500000D01*
X144450000Y-56500000D01*
G37*
G36*
X130175770Y-54015372D02*
X130291689Y-54038429D01*
X130473678Y-54113811D01*
X130637463Y-54223249D01*
X130776751Y-54362537D01*
X130886189Y-54526322D01*
X130961571Y-54708311D01*
X131000000Y-54901509D01*
X131000000Y-55098491D01*
X130961571Y-55291689D01*
X130886189Y-55473678D01*
X130776751Y-55637463D01*
X130637463Y-55776751D01*
X130473678Y-55886189D01*
X130291689Y-55961571D01*
X130175770Y-55984628D01*
X130098493Y-56000000D01*
X129901507Y-56000000D01*
X129824230Y-55984628D01*
X129708311Y-55961571D01*
X129526322Y-55886189D01*
X129362537Y-55776751D01*
X129223249Y-55637463D01*
X129113811Y-55473678D01*
X129038429Y-55291689D01*
X129000000Y-55098491D01*
X129000000Y-54901509D01*
X129038429Y-54708311D01*
X129113811Y-54526322D01*
X129223249Y-54362537D01*
X129362537Y-54223249D01*
X129526322Y-54113811D01*
X129708311Y-54038429D01*
X129824230Y-54015372D01*
X129901507Y-54000000D01*
X130098493Y-54000000D01*
X130175770Y-54015372D01*
X130175770Y-54015372D01*
G37*
G36*
X177646630Y-53412299D02*
X177806855Y-53460903D01*
X177954520Y-53539831D01*
X178083949Y-53646051D01*
X178190169Y-53775480D01*
X178269097Y-53923145D01*
X178317701Y-54083370D01*
X178334112Y-54250000D01*
X178317701Y-54416630D01*
X178269097Y-54576855D01*
X178190169Y-54724520D01*
X178083949Y-54853949D01*
X177954520Y-54960169D01*
X177806855Y-55039097D01*
X177646630Y-55087701D01*
X177521752Y-55100000D01*
X177438248Y-55100000D01*
X177313370Y-55087701D01*
X177153145Y-55039097D01*
X177005480Y-54960169D01*
X176876051Y-54853949D01*
X176769831Y-54724520D01*
X176690903Y-54576855D01*
X176642299Y-54416630D01*
X176625888Y-54250000D01*
X176642299Y-54083370D01*
X176690903Y-53923145D01*
X176769831Y-53775480D01*
X176876051Y-53646051D01*
X177005480Y-53539831D01*
X177153145Y-53460903D01*
X177313370Y-53412299D01*
X177438248Y-53400000D01*
X177521752Y-53400000D01*
X177646630Y-53412299D01*
X177646630Y-53412299D01*
G37*
G36*
X185266630Y-53412299D02*
X185426855Y-53460903D01*
X185574520Y-53539831D01*
X185703949Y-53646051D01*
X185810169Y-53775480D01*
X185889097Y-53923145D01*
X185937701Y-54083370D01*
X185954112Y-54250000D01*
X185937701Y-54416630D01*
X185889097Y-54576855D01*
X185810169Y-54724520D01*
X185703949Y-54853949D01*
X185574520Y-54960169D01*
X185426855Y-55039097D01*
X185266630Y-55087701D01*
X185141752Y-55100000D01*
X185058248Y-55100000D01*
X184933370Y-55087701D01*
X184773145Y-55039097D01*
X184625480Y-54960169D01*
X184496051Y-54853949D01*
X184389831Y-54724520D01*
X184310903Y-54576855D01*
X184262299Y-54416630D01*
X184245888Y-54250000D01*
X184262299Y-54083370D01*
X184310903Y-53923145D01*
X184389831Y-53775480D01*
X184496051Y-53646051D01*
X184625480Y-53539831D01*
X184773145Y-53460903D01*
X184933370Y-53412299D01*
X185058248Y-53400000D01*
X185141752Y-53400000D01*
X185266630Y-53412299D01*
X185266630Y-53412299D01*
G37*
G36*
X175106630Y-53412299D02*
X175266855Y-53460903D01*
X175414520Y-53539831D01*
X175543949Y-53646051D01*
X175650169Y-53775480D01*
X175729097Y-53923145D01*
X175777701Y-54083370D01*
X175794112Y-54250000D01*
X175777701Y-54416630D01*
X175729097Y-54576855D01*
X175650169Y-54724520D01*
X175543949Y-54853949D01*
X175414520Y-54960169D01*
X175266855Y-55039097D01*
X175106630Y-55087701D01*
X174981752Y-55100000D01*
X174898248Y-55100000D01*
X174773370Y-55087701D01*
X174613145Y-55039097D01*
X174465480Y-54960169D01*
X174336051Y-54853949D01*
X174229831Y-54724520D01*
X174150903Y-54576855D01*
X174102299Y-54416630D01*
X174085888Y-54250000D01*
X174102299Y-54083370D01*
X174150903Y-53923145D01*
X174229831Y-53775480D01*
X174336051Y-53646051D01*
X174465480Y-53539831D01*
X174613145Y-53460903D01*
X174773370Y-53412299D01*
X174898248Y-53400000D01*
X174981752Y-53400000D01*
X175106630Y-53412299D01*
X175106630Y-53412299D01*
G37*
G36*
X172566630Y-53412299D02*
X172726855Y-53460903D01*
X172874520Y-53539831D01*
X173003949Y-53646051D01*
X173110169Y-53775480D01*
X173189097Y-53923145D01*
X173237701Y-54083370D01*
X173254112Y-54250000D01*
X173237701Y-54416630D01*
X173189097Y-54576855D01*
X173110169Y-54724520D01*
X173003949Y-54853949D01*
X172874520Y-54960169D01*
X172726855Y-55039097D01*
X172566630Y-55087701D01*
X172441752Y-55100000D01*
X172358248Y-55100000D01*
X172233370Y-55087701D01*
X172073145Y-55039097D01*
X171925480Y-54960169D01*
X171796051Y-54853949D01*
X171689831Y-54724520D01*
X171610903Y-54576855D01*
X171562299Y-54416630D01*
X171545888Y-54250000D01*
X171562299Y-54083370D01*
X171610903Y-53923145D01*
X171689831Y-53775480D01*
X171796051Y-53646051D01*
X171925480Y-53539831D01*
X172073145Y-53460903D01*
X172233370Y-53412299D01*
X172358248Y-53400000D01*
X172441752Y-53400000D01*
X172566630Y-53412299D01*
X172566630Y-53412299D01*
G37*
G36*
X170026630Y-53412299D02*
X170186855Y-53460903D01*
X170334520Y-53539831D01*
X170463949Y-53646051D01*
X170570169Y-53775480D01*
X170649097Y-53923145D01*
X170697701Y-54083370D01*
X170714112Y-54250000D01*
X170697701Y-54416630D01*
X170649097Y-54576855D01*
X170570169Y-54724520D01*
X170463949Y-54853949D01*
X170334520Y-54960169D01*
X170186855Y-55039097D01*
X170026630Y-55087701D01*
X169901752Y-55100000D01*
X169818248Y-55100000D01*
X169693370Y-55087701D01*
X169533145Y-55039097D01*
X169385480Y-54960169D01*
X169256051Y-54853949D01*
X169149831Y-54724520D01*
X169070903Y-54576855D01*
X169022299Y-54416630D01*
X169005888Y-54250000D01*
X169022299Y-54083370D01*
X169070903Y-53923145D01*
X169149831Y-53775480D01*
X169256051Y-53646051D01*
X169385480Y-53539831D01*
X169533145Y-53460903D01*
X169693370Y-53412299D01*
X169818248Y-53400000D01*
X169901752Y-53400000D01*
X170026630Y-53412299D01*
X170026630Y-53412299D01*
G37*
G36*
X167486630Y-53412299D02*
X167646855Y-53460903D01*
X167794520Y-53539831D01*
X167923949Y-53646051D01*
X168030169Y-53775480D01*
X168109097Y-53923145D01*
X168157701Y-54083370D01*
X168174112Y-54250000D01*
X168157701Y-54416630D01*
X168109097Y-54576855D01*
X168030169Y-54724520D01*
X167923949Y-54853949D01*
X167794520Y-54960169D01*
X167646855Y-55039097D01*
X167486630Y-55087701D01*
X167361752Y-55100000D01*
X167278248Y-55100000D01*
X167153370Y-55087701D01*
X166993145Y-55039097D01*
X166845480Y-54960169D01*
X166716051Y-54853949D01*
X166609831Y-54724520D01*
X166530903Y-54576855D01*
X166482299Y-54416630D01*
X166465888Y-54250000D01*
X166482299Y-54083370D01*
X166530903Y-53923145D01*
X166609831Y-53775480D01*
X166716051Y-53646051D01*
X166845480Y-53539831D01*
X166993145Y-53460903D01*
X167153370Y-53412299D01*
X167278248Y-53400000D01*
X167361752Y-53400000D01*
X167486630Y-53412299D01*
X167486630Y-53412299D01*
G37*
G36*
X164946630Y-53412299D02*
X165106855Y-53460903D01*
X165254520Y-53539831D01*
X165383949Y-53646051D01*
X165490169Y-53775480D01*
X165569097Y-53923145D01*
X165617701Y-54083370D01*
X165634112Y-54250000D01*
X165617701Y-54416630D01*
X165569097Y-54576855D01*
X165490169Y-54724520D01*
X165383949Y-54853949D01*
X165254520Y-54960169D01*
X165106855Y-55039097D01*
X164946630Y-55087701D01*
X164821752Y-55100000D01*
X164738248Y-55100000D01*
X164613370Y-55087701D01*
X164453145Y-55039097D01*
X164305480Y-54960169D01*
X164176051Y-54853949D01*
X164069831Y-54724520D01*
X163990903Y-54576855D01*
X163942299Y-54416630D01*
X163925888Y-54250000D01*
X163942299Y-54083370D01*
X163990903Y-53923145D01*
X164069831Y-53775480D01*
X164176051Y-53646051D01*
X164305480Y-53539831D01*
X164453145Y-53460903D01*
X164613370Y-53412299D01*
X164738248Y-53400000D01*
X164821752Y-53400000D01*
X164946630Y-53412299D01*
X164946630Y-53412299D01*
G37*
G36*
X162406630Y-53412299D02*
X162566855Y-53460903D01*
X162714520Y-53539831D01*
X162843949Y-53646051D01*
X162950169Y-53775480D01*
X163029097Y-53923145D01*
X163077701Y-54083370D01*
X163094112Y-54250000D01*
X163077701Y-54416630D01*
X163029097Y-54576855D01*
X162950169Y-54724520D01*
X162843949Y-54853949D01*
X162714520Y-54960169D01*
X162566855Y-55039097D01*
X162406630Y-55087701D01*
X162281752Y-55100000D01*
X162198248Y-55100000D01*
X162073370Y-55087701D01*
X161913145Y-55039097D01*
X161765480Y-54960169D01*
X161636051Y-54853949D01*
X161529831Y-54724520D01*
X161450903Y-54576855D01*
X161402299Y-54416630D01*
X161385888Y-54250000D01*
X161402299Y-54083370D01*
X161450903Y-53923145D01*
X161529831Y-53775480D01*
X161636051Y-53646051D01*
X161765480Y-53539831D01*
X161913145Y-53460903D01*
X162073370Y-53412299D01*
X162198248Y-53400000D01*
X162281752Y-53400000D01*
X162406630Y-53412299D01*
X162406630Y-53412299D01*
G37*
G36*
X159866630Y-53412299D02*
X160026855Y-53460903D01*
X160174520Y-53539831D01*
X160303949Y-53646051D01*
X160410169Y-53775480D01*
X160489097Y-53923145D01*
X160537701Y-54083370D01*
X160554112Y-54250000D01*
X160537701Y-54416630D01*
X160489097Y-54576855D01*
X160410169Y-54724520D01*
X160303949Y-54853949D01*
X160174520Y-54960169D01*
X160026855Y-55039097D01*
X159866630Y-55087701D01*
X159741752Y-55100000D01*
X159658248Y-55100000D01*
X159533370Y-55087701D01*
X159373145Y-55039097D01*
X159225480Y-54960169D01*
X159096051Y-54853949D01*
X158989831Y-54724520D01*
X158910903Y-54576855D01*
X158862299Y-54416630D01*
X158845888Y-54250000D01*
X158862299Y-54083370D01*
X158910903Y-53923145D01*
X158989831Y-53775480D01*
X159096051Y-53646051D01*
X159225480Y-53539831D01*
X159373145Y-53460903D01*
X159533370Y-53412299D01*
X159658248Y-53400000D01*
X159741752Y-53400000D01*
X159866630Y-53412299D01*
X159866630Y-53412299D01*
G37*
G36*
X157326630Y-53412299D02*
X157486855Y-53460903D01*
X157634520Y-53539831D01*
X157763949Y-53646051D01*
X157870169Y-53775480D01*
X157949097Y-53923145D01*
X157997701Y-54083370D01*
X158014112Y-54250000D01*
X157997701Y-54416630D01*
X157949097Y-54576855D01*
X157870169Y-54724520D01*
X157763949Y-54853949D01*
X157634520Y-54960169D01*
X157486855Y-55039097D01*
X157326630Y-55087701D01*
X157201752Y-55100000D01*
X157118248Y-55100000D01*
X156993370Y-55087701D01*
X156833145Y-55039097D01*
X156685480Y-54960169D01*
X156556051Y-54853949D01*
X156449831Y-54724520D01*
X156370903Y-54576855D01*
X156322299Y-54416630D01*
X156305888Y-54250000D01*
X156322299Y-54083370D01*
X156370903Y-53923145D01*
X156449831Y-53775480D01*
X156556051Y-53646051D01*
X156685480Y-53539831D01*
X156833145Y-53460903D01*
X156993370Y-53412299D01*
X157118248Y-53400000D01*
X157201752Y-53400000D01*
X157326630Y-53412299D01*
X157326630Y-53412299D01*
G37*
G36*
X182726630Y-53412299D02*
X182886855Y-53460903D01*
X183034520Y-53539831D01*
X183163949Y-53646051D01*
X183270169Y-53775480D01*
X183349097Y-53923145D01*
X183397701Y-54083370D01*
X183414112Y-54250000D01*
X183397701Y-54416630D01*
X183349097Y-54576855D01*
X183270169Y-54724520D01*
X183163949Y-54853949D01*
X183034520Y-54960169D01*
X182886855Y-55039097D01*
X182726630Y-55087701D01*
X182601752Y-55100000D01*
X182518248Y-55100000D01*
X182393370Y-55087701D01*
X182233145Y-55039097D01*
X182085480Y-54960169D01*
X181956051Y-54853949D01*
X181849831Y-54724520D01*
X181770903Y-54576855D01*
X181722299Y-54416630D01*
X181705888Y-54250000D01*
X181722299Y-54083370D01*
X181770903Y-53923145D01*
X181849831Y-53775480D01*
X181956051Y-53646051D01*
X182085480Y-53539831D01*
X182233145Y-53460903D01*
X182393370Y-53412299D01*
X182518248Y-53400000D01*
X182601752Y-53400000D01*
X182726630Y-53412299D01*
X182726630Y-53412299D01*
G37*
G36*
X154786630Y-53412299D02*
X154946855Y-53460903D01*
X155094520Y-53539831D01*
X155223949Y-53646051D01*
X155330169Y-53775480D01*
X155409097Y-53923145D01*
X155457701Y-54083370D01*
X155474112Y-54250000D01*
X155457701Y-54416630D01*
X155409097Y-54576855D01*
X155330169Y-54724520D01*
X155223949Y-54853949D01*
X155094520Y-54960169D01*
X154946855Y-55039097D01*
X154786630Y-55087701D01*
X154661752Y-55100000D01*
X154578248Y-55100000D01*
X154453370Y-55087701D01*
X154293145Y-55039097D01*
X154145480Y-54960169D01*
X154016051Y-54853949D01*
X153909831Y-54724520D01*
X153830903Y-54576855D01*
X153782299Y-54416630D01*
X153765888Y-54250000D01*
X153782299Y-54083370D01*
X153830903Y-53923145D01*
X153909831Y-53775480D01*
X154016051Y-53646051D01*
X154145480Y-53539831D01*
X154293145Y-53460903D01*
X154453370Y-53412299D01*
X154578248Y-53400000D01*
X154661752Y-53400000D01*
X154786630Y-53412299D01*
X154786630Y-53412299D01*
G37*
G36*
X187806630Y-53412299D02*
X187966855Y-53460903D01*
X188114520Y-53539831D01*
X188243949Y-53646051D01*
X188350169Y-53775480D01*
X188429097Y-53923145D01*
X188477701Y-54083370D01*
X188494112Y-54250000D01*
X188477701Y-54416630D01*
X188429097Y-54576855D01*
X188350169Y-54724520D01*
X188243949Y-54853949D01*
X188114520Y-54960169D01*
X187966855Y-55039097D01*
X187806630Y-55087701D01*
X187681752Y-55100000D01*
X187598248Y-55100000D01*
X187473370Y-55087701D01*
X187313145Y-55039097D01*
X187165480Y-54960169D01*
X187036051Y-54853949D01*
X186929831Y-54724520D01*
X186850903Y-54576855D01*
X186802299Y-54416630D01*
X186785888Y-54250000D01*
X186802299Y-54083370D01*
X186850903Y-53923145D01*
X186929831Y-53775480D01*
X187036051Y-53646051D01*
X187165480Y-53539831D01*
X187313145Y-53460903D01*
X187473370Y-53412299D01*
X187598248Y-53400000D01*
X187681752Y-53400000D01*
X187806630Y-53412299D01*
X187806630Y-53412299D01*
G37*
G36*
X152246630Y-53412299D02*
X152406855Y-53460903D01*
X152554520Y-53539831D01*
X152683949Y-53646051D01*
X152790169Y-53775480D01*
X152869097Y-53923145D01*
X152917701Y-54083370D01*
X152934112Y-54250000D01*
X152917701Y-54416630D01*
X152869097Y-54576855D01*
X152790169Y-54724520D01*
X152683949Y-54853949D01*
X152554520Y-54960169D01*
X152406855Y-55039097D01*
X152246630Y-55087701D01*
X152121752Y-55100000D01*
X152038248Y-55100000D01*
X151913370Y-55087701D01*
X151753145Y-55039097D01*
X151605480Y-54960169D01*
X151476051Y-54853949D01*
X151369831Y-54724520D01*
X151290903Y-54576855D01*
X151242299Y-54416630D01*
X151225888Y-54250000D01*
X151242299Y-54083370D01*
X151290903Y-53923145D01*
X151369831Y-53775480D01*
X151476051Y-53646051D01*
X151605480Y-53539831D01*
X151753145Y-53460903D01*
X151913370Y-53412299D01*
X152038248Y-53400000D01*
X152121752Y-53400000D01*
X152246630Y-53412299D01*
X152246630Y-53412299D01*
G37*
G36*
X149706630Y-53412299D02*
X149866855Y-53460903D01*
X150014520Y-53539831D01*
X150143949Y-53646051D01*
X150250169Y-53775480D01*
X150329097Y-53923145D01*
X150377701Y-54083370D01*
X150394112Y-54250000D01*
X150377701Y-54416630D01*
X150329097Y-54576855D01*
X150250169Y-54724520D01*
X150143949Y-54853949D01*
X150014520Y-54960169D01*
X149866855Y-55039097D01*
X149706630Y-55087701D01*
X149581752Y-55100000D01*
X149498248Y-55100000D01*
X149373370Y-55087701D01*
X149213145Y-55039097D01*
X149065480Y-54960169D01*
X148936051Y-54853949D01*
X148829831Y-54724520D01*
X148750903Y-54576855D01*
X148702299Y-54416630D01*
X148685888Y-54250000D01*
X148702299Y-54083370D01*
X148750903Y-53923145D01*
X148829831Y-53775480D01*
X148936051Y-53646051D01*
X149065480Y-53539831D01*
X149213145Y-53460903D01*
X149373370Y-53412299D01*
X149498248Y-53400000D01*
X149581752Y-53400000D01*
X149706630Y-53412299D01*
X149706630Y-53412299D01*
G37*
G36*
X195426630Y-53412299D02*
X195586855Y-53460903D01*
X195734520Y-53539831D01*
X195863949Y-53646051D01*
X195970169Y-53775480D01*
X196049097Y-53923145D01*
X196097701Y-54083370D01*
X196114112Y-54250000D01*
X196097701Y-54416630D01*
X196049097Y-54576855D01*
X195970169Y-54724520D01*
X195863949Y-54853949D01*
X195734520Y-54960169D01*
X195586855Y-55039097D01*
X195426630Y-55087701D01*
X195301752Y-55100000D01*
X195218248Y-55100000D01*
X195093370Y-55087701D01*
X194933145Y-55039097D01*
X194785480Y-54960169D01*
X194656051Y-54853949D01*
X194549831Y-54724520D01*
X194470903Y-54576855D01*
X194422299Y-54416630D01*
X194405888Y-54250000D01*
X194422299Y-54083370D01*
X194470903Y-53923145D01*
X194549831Y-53775480D01*
X194656051Y-53646051D01*
X194785480Y-53539831D01*
X194933145Y-53460903D01*
X195093370Y-53412299D01*
X195218248Y-53400000D01*
X195301752Y-53400000D01*
X195426630Y-53412299D01*
X195426630Y-53412299D01*
G37*
G36*
X192886630Y-53412299D02*
X193046855Y-53460903D01*
X193194520Y-53539831D01*
X193323949Y-53646051D01*
X193430169Y-53775480D01*
X193509097Y-53923145D01*
X193557701Y-54083370D01*
X193574112Y-54250000D01*
X193557701Y-54416630D01*
X193509097Y-54576855D01*
X193430169Y-54724520D01*
X193323949Y-54853949D01*
X193194520Y-54960169D01*
X193046855Y-55039097D01*
X192886630Y-55087701D01*
X192761752Y-55100000D01*
X192678248Y-55100000D01*
X192553370Y-55087701D01*
X192393145Y-55039097D01*
X192245480Y-54960169D01*
X192116051Y-54853949D01*
X192009831Y-54724520D01*
X191930903Y-54576855D01*
X191882299Y-54416630D01*
X191865888Y-54250000D01*
X191882299Y-54083370D01*
X191930903Y-53923145D01*
X192009831Y-53775480D01*
X192116051Y-53646051D01*
X192245480Y-53539831D01*
X192393145Y-53460903D01*
X192553370Y-53412299D01*
X192678248Y-53400000D01*
X192761752Y-53400000D01*
X192886630Y-53412299D01*
X192886630Y-53412299D01*
G37*
G36*
X190346630Y-53412299D02*
X190506855Y-53460903D01*
X190654520Y-53539831D01*
X190783949Y-53646051D01*
X190890169Y-53775480D01*
X190969097Y-53923145D01*
X191017701Y-54083370D01*
X191034112Y-54250000D01*
X191017701Y-54416630D01*
X190969097Y-54576855D01*
X190890169Y-54724520D01*
X190783949Y-54853949D01*
X190654520Y-54960169D01*
X190506855Y-55039097D01*
X190346630Y-55087701D01*
X190221752Y-55100000D01*
X190138248Y-55100000D01*
X190013370Y-55087701D01*
X189853145Y-55039097D01*
X189705480Y-54960169D01*
X189576051Y-54853949D01*
X189469831Y-54724520D01*
X189390903Y-54576855D01*
X189342299Y-54416630D01*
X189325888Y-54250000D01*
X189342299Y-54083370D01*
X189390903Y-53923145D01*
X189469831Y-53775480D01*
X189576051Y-53646051D01*
X189705480Y-53539831D01*
X189853145Y-53460903D01*
X190013370Y-53412299D01*
X190138248Y-53400000D01*
X190221752Y-53400000D01*
X190346630Y-53412299D01*
X190346630Y-53412299D01*
G37*
G36*
X147850000Y-55100000D02*
X146150000Y-55100000D01*
X146150000Y-53400000D01*
X147850000Y-53400000D01*
X147850000Y-55100000D01*
X147850000Y-55100000D01*
G37*
G36*
X180186630Y-53412299D02*
X180346855Y-53460903D01*
X180494520Y-53539831D01*
X180623949Y-53646051D01*
X180730169Y-53775480D01*
X180809097Y-53923145D01*
X180857701Y-54083370D01*
X180874112Y-54250000D01*
X180857701Y-54416630D01*
X180809097Y-54576855D01*
X180730169Y-54724520D01*
X180623949Y-54853949D01*
X180494520Y-54960169D01*
X180346855Y-55039097D01*
X180186630Y-55087701D01*
X180061752Y-55100000D01*
X179978248Y-55100000D01*
X179853370Y-55087701D01*
X179693145Y-55039097D01*
X179545480Y-54960169D01*
X179416051Y-54853949D01*
X179309831Y-54724520D01*
X179230903Y-54576855D01*
X179182299Y-54416630D01*
X179165888Y-54250000D01*
X179182299Y-54083370D01*
X179230903Y-53923145D01*
X179309831Y-53775480D01*
X179416051Y-53646051D01*
X179545480Y-53539831D01*
X179693145Y-53460903D01*
X179853370Y-53412299D01*
X179978248Y-53400000D01*
X180061752Y-53400000D01*
X180186630Y-53412299D01*
X180186630Y-53412299D01*
G37*
G36*
X127780857Y-51402272D02*
X127981042Y-51485191D01*
X128161213Y-51605578D01*
X128314422Y-51758787D01*
X128434809Y-51938958D01*
X128517728Y-52139143D01*
X128560000Y-52351658D01*
X128560000Y-52568342D01*
X128517728Y-52780857D01*
X128434809Y-52981042D01*
X128314422Y-53161213D01*
X128161213Y-53314422D01*
X128161210Y-53314424D01*
X128161209Y-53314425D01*
X128014729Y-53412300D01*
X127981042Y-53434809D01*
X127780857Y-53517728D01*
X127568342Y-53560000D01*
X127351658Y-53560000D01*
X127139143Y-53517728D01*
X126938958Y-53434809D01*
X126905271Y-53412300D01*
X126758791Y-53314425D01*
X126758790Y-53314424D01*
X126758787Y-53314422D01*
X126605578Y-53161213D01*
X126485191Y-52981042D01*
X126402272Y-52780857D01*
X126360000Y-52568342D01*
X126360000Y-52351658D01*
X126402272Y-52139143D01*
X126485191Y-51938958D01*
X126605578Y-51758787D01*
X126758787Y-51605578D01*
X126938958Y-51485191D01*
X127139143Y-51402272D01*
X127351658Y-51360000D01*
X127568342Y-51360000D01*
X127780857Y-51402272D01*
X127780857Y-51402272D01*
G37*
G36*
X132860857Y-51402272D02*
X133061042Y-51485191D01*
X133241213Y-51605578D01*
X133394422Y-51758787D01*
X133514809Y-51938958D01*
X133597728Y-52139143D01*
X133640000Y-52351658D01*
X133640000Y-52568342D01*
X133597728Y-52780857D01*
X133514809Y-52981042D01*
X133394422Y-53161213D01*
X133241213Y-53314422D01*
X133241210Y-53314424D01*
X133241209Y-53314425D01*
X133094729Y-53412300D01*
X133061042Y-53434809D01*
X132860857Y-53517728D01*
X132648342Y-53560000D01*
X132431658Y-53560000D01*
X132219143Y-53517728D01*
X132018958Y-53434809D01*
X131985271Y-53412300D01*
X131838791Y-53314425D01*
X131838790Y-53314424D01*
X131838787Y-53314422D01*
X131685578Y-53161213D01*
X131565191Y-52981042D01*
X131482272Y-52780857D01*
X131440000Y-52568342D01*
X131440000Y-52351658D01*
X131482272Y-52139143D01*
X131565191Y-51938958D01*
X131685578Y-51758787D01*
X131838787Y-51605578D01*
X132018958Y-51485191D01*
X132219143Y-51402272D01*
X132431658Y-51360000D01*
X132648342Y-51360000D01*
X132860857Y-51402272D01*
X132860857Y-51402272D01*
G37*
G36*
X139000000Y-53450000D02*
X138500000Y-53450000D01*
X138500000Y-52550000D01*
X139000000Y-52550000D01*
X139000000Y-53450000D01*
X139000000Y-53450000D01*
G37*
G36*
X137500000Y-53450000D02*
X137000000Y-53450000D01*
X137000000Y-52550000D01*
X137500000Y-52550000D01*
X137500000Y-53450000D01*
X137500000Y-53450000D01*
G37*
G36*
X147166630Y-50872299D02*
X147326855Y-50920903D01*
X147474520Y-50999831D01*
X147603949Y-51106051D01*
X147710169Y-51235480D01*
X147789097Y-51383145D01*
X147837701Y-51543370D01*
X147854112Y-51710000D01*
X147837701Y-51876630D01*
X147789097Y-52036855D01*
X147710169Y-52184520D01*
X147603949Y-52313949D01*
X147474520Y-52420169D01*
X147326855Y-52499097D01*
X147166630Y-52547701D01*
X147041752Y-52560000D01*
X146958248Y-52560000D01*
X146833370Y-52547701D01*
X146673145Y-52499097D01*
X146525480Y-52420169D01*
X146396051Y-52313949D01*
X146289831Y-52184520D01*
X146210903Y-52036855D01*
X146162299Y-51876630D01*
X146145888Y-51710000D01*
X146162299Y-51543370D01*
X146210903Y-51383145D01*
X146289831Y-51235480D01*
X146396051Y-51106051D01*
X146525480Y-50999831D01*
X146673145Y-50920903D01*
X146833370Y-50872299D01*
X146958248Y-50860000D01*
X147041752Y-50860000D01*
X147166630Y-50872299D01*
X147166630Y-50872299D01*
G37*
G36*
X170026630Y-50872299D02*
X170186855Y-50920903D01*
X170334520Y-50999831D01*
X170463949Y-51106051D01*
X170570169Y-51235480D01*
X170649097Y-51383145D01*
X170697701Y-51543370D01*
X170714112Y-51710000D01*
X170697701Y-51876630D01*
X170649097Y-52036855D01*
X170570169Y-52184520D01*
X170463949Y-52313949D01*
X170334520Y-52420169D01*
X170186855Y-52499097D01*
X170026630Y-52547701D01*
X169901752Y-52560000D01*
X169818248Y-52560000D01*
X169693370Y-52547701D01*
X169533145Y-52499097D01*
X169385480Y-52420169D01*
X169256051Y-52313949D01*
X169149831Y-52184520D01*
X169070903Y-52036855D01*
X169022299Y-51876630D01*
X169005888Y-51710000D01*
X169022299Y-51543370D01*
X169070903Y-51383145D01*
X169149831Y-51235480D01*
X169256051Y-51106051D01*
X169385480Y-50999831D01*
X169533145Y-50920903D01*
X169693370Y-50872299D01*
X169818248Y-50860000D01*
X169901752Y-50860000D01*
X170026630Y-50872299D01*
X170026630Y-50872299D01*
G37*
G36*
X164946630Y-50872299D02*
X165106855Y-50920903D01*
X165254520Y-50999831D01*
X165383949Y-51106051D01*
X165490169Y-51235480D01*
X165569097Y-51383145D01*
X165617701Y-51543370D01*
X165634112Y-51710000D01*
X165617701Y-51876630D01*
X165569097Y-52036855D01*
X165490169Y-52184520D01*
X165383949Y-52313949D01*
X165254520Y-52420169D01*
X165106855Y-52499097D01*
X164946630Y-52547701D01*
X164821752Y-52560000D01*
X164738248Y-52560000D01*
X164613370Y-52547701D01*
X164453145Y-52499097D01*
X164305480Y-52420169D01*
X164176051Y-52313949D01*
X164069831Y-52184520D01*
X163990903Y-52036855D01*
X163942299Y-51876630D01*
X163925888Y-51710000D01*
X163942299Y-51543370D01*
X163990903Y-51383145D01*
X164069831Y-51235480D01*
X164176051Y-51106051D01*
X164305480Y-50999831D01*
X164453145Y-50920903D01*
X164613370Y-50872299D01*
X164738248Y-50860000D01*
X164821752Y-50860000D01*
X164946630Y-50872299D01*
X164946630Y-50872299D01*
G37*
G36*
X172566630Y-50872299D02*
X172726855Y-50920903D01*
X172874520Y-50999831D01*
X173003949Y-51106051D01*
X173110169Y-51235480D01*
X173189097Y-51383145D01*
X173237701Y-51543370D01*
X173254112Y-51710000D01*
X173237701Y-51876630D01*
X173189097Y-52036855D01*
X173110169Y-52184520D01*
X173003949Y-52313949D01*
X172874520Y-52420169D01*
X172726855Y-52499097D01*
X172566630Y-52547701D01*
X172441752Y-52560000D01*
X172358248Y-52560000D01*
X172233370Y-52547701D01*
X172073145Y-52499097D01*
X171925480Y-52420169D01*
X171796051Y-52313949D01*
X171689831Y-52184520D01*
X171610903Y-52036855D01*
X171562299Y-51876630D01*
X171545888Y-51710000D01*
X171562299Y-51543370D01*
X171610903Y-51383145D01*
X171689831Y-51235480D01*
X171796051Y-51106051D01*
X171925480Y-50999831D01*
X172073145Y-50920903D01*
X172233370Y-50872299D01*
X172358248Y-50860000D01*
X172441752Y-50860000D01*
X172566630Y-50872299D01*
X172566630Y-50872299D01*
G37*
G36*
X175106630Y-50872299D02*
X175266855Y-50920903D01*
X175414520Y-50999831D01*
X175543949Y-51106051D01*
X175650169Y-51235480D01*
X175729097Y-51383145D01*
X175777701Y-51543370D01*
X175794112Y-51710000D01*
X175777701Y-51876630D01*
X175729097Y-52036855D01*
X175650169Y-52184520D01*
X175543949Y-52313949D01*
X175414520Y-52420169D01*
X175266855Y-52499097D01*
X175106630Y-52547701D01*
X174981752Y-52560000D01*
X174898248Y-52560000D01*
X174773370Y-52547701D01*
X174613145Y-52499097D01*
X174465480Y-52420169D01*
X174336051Y-52313949D01*
X174229831Y-52184520D01*
X174150903Y-52036855D01*
X174102299Y-51876630D01*
X174085888Y-51710000D01*
X174102299Y-51543370D01*
X174150903Y-51383145D01*
X174229831Y-51235480D01*
X174336051Y-51106051D01*
X174465480Y-50999831D01*
X174613145Y-50920903D01*
X174773370Y-50872299D01*
X174898248Y-50860000D01*
X174981752Y-50860000D01*
X175106630Y-50872299D01*
X175106630Y-50872299D01*
G37*
G36*
X177646630Y-50872299D02*
X177806855Y-50920903D01*
X177954520Y-50999831D01*
X178083949Y-51106051D01*
X178190169Y-51235480D01*
X178269097Y-51383145D01*
X178317701Y-51543370D01*
X178334112Y-51710000D01*
X178317701Y-51876630D01*
X178269097Y-52036855D01*
X178190169Y-52184520D01*
X178083949Y-52313949D01*
X177954520Y-52420169D01*
X177806855Y-52499097D01*
X177646630Y-52547701D01*
X177521752Y-52560000D01*
X177438248Y-52560000D01*
X177313370Y-52547701D01*
X177153145Y-52499097D01*
X177005480Y-52420169D01*
X176876051Y-52313949D01*
X176769831Y-52184520D01*
X176690903Y-52036855D01*
X176642299Y-51876630D01*
X176625888Y-51710000D01*
X176642299Y-51543370D01*
X176690903Y-51383145D01*
X176769831Y-51235480D01*
X176876051Y-51106051D01*
X177005480Y-50999831D01*
X177153145Y-50920903D01*
X177313370Y-50872299D01*
X177438248Y-50860000D01*
X177521752Y-50860000D01*
X177646630Y-50872299D01*
X177646630Y-50872299D01*
G37*
G36*
X162406630Y-50872299D02*
X162566855Y-50920903D01*
X162714520Y-50999831D01*
X162843949Y-51106051D01*
X162950169Y-51235480D01*
X163029097Y-51383145D01*
X163077701Y-51543370D01*
X163094112Y-51710000D01*
X163077701Y-51876630D01*
X163029097Y-52036855D01*
X162950169Y-52184520D01*
X162843949Y-52313949D01*
X162714520Y-52420169D01*
X162566855Y-52499097D01*
X162406630Y-52547701D01*
X162281752Y-52560000D01*
X162198248Y-52560000D01*
X162073370Y-52547701D01*
X161913145Y-52499097D01*
X161765480Y-52420169D01*
X161636051Y-52313949D01*
X161529831Y-52184520D01*
X161450903Y-52036855D01*
X161402299Y-51876630D01*
X161385888Y-51710000D01*
X161402299Y-51543370D01*
X161450903Y-51383145D01*
X161529831Y-51235480D01*
X161636051Y-51106051D01*
X161765480Y-50999831D01*
X161913145Y-50920903D01*
X162073370Y-50872299D01*
X162198248Y-50860000D01*
X162281752Y-50860000D01*
X162406630Y-50872299D01*
X162406630Y-50872299D01*
G37*
G36*
X180186630Y-50872299D02*
X180346855Y-50920903D01*
X180494520Y-50999831D01*
X180623949Y-51106051D01*
X180730169Y-51235480D01*
X180809097Y-51383145D01*
X180857701Y-51543370D01*
X180874112Y-51710000D01*
X180857701Y-51876630D01*
X180809097Y-52036855D01*
X180730169Y-52184520D01*
X180623949Y-52313949D01*
X180494520Y-52420169D01*
X180346855Y-52499097D01*
X180186630Y-52547701D01*
X180061752Y-52560000D01*
X179978248Y-52560000D01*
X179853370Y-52547701D01*
X179693145Y-52499097D01*
X179545480Y-52420169D01*
X179416051Y-52313949D01*
X179309831Y-52184520D01*
X179230903Y-52036855D01*
X179182299Y-51876630D01*
X179165888Y-51710000D01*
X179182299Y-51543370D01*
X179230903Y-51383145D01*
X179309831Y-51235480D01*
X179416051Y-51106051D01*
X179545480Y-50999831D01*
X179693145Y-50920903D01*
X179853370Y-50872299D01*
X179978248Y-50860000D01*
X180061752Y-50860000D01*
X180186630Y-50872299D01*
X180186630Y-50872299D01*
G37*
G36*
X159866630Y-50872299D02*
X160026855Y-50920903D01*
X160174520Y-50999831D01*
X160303949Y-51106051D01*
X160410169Y-51235480D01*
X160489097Y-51383145D01*
X160537701Y-51543370D01*
X160554112Y-51710000D01*
X160537701Y-51876630D01*
X160489097Y-52036855D01*
X160410169Y-52184520D01*
X160303949Y-52313949D01*
X160174520Y-52420169D01*
X160026855Y-52499097D01*
X159866630Y-52547701D01*
X159741752Y-52560000D01*
X159658248Y-52560000D01*
X159533370Y-52547701D01*
X159373145Y-52499097D01*
X159225480Y-52420169D01*
X159096051Y-52313949D01*
X158989831Y-52184520D01*
X158910903Y-52036855D01*
X158862299Y-51876630D01*
X158845888Y-51710000D01*
X158862299Y-51543370D01*
X158910903Y-51383145D01*
X158989831Y-51235480D01*
X159096051Y-51106051D01*
X159225480Y-50999831D01*
X159373145Y-50920903D01*
X159533370Y-50872299D01*
X159658248Y-50860000D01*
X159741752Y-50860000D01*
X159866630Y-50872299D01*
X159866630Y-50872299D01*
G37*
G36*
X182726630Y-50872299D02*
X182886855Y-50920903D01*
X183034520Y-50999831D01*
X183163949Y-51106051D01*
X183270169Y-51235480D01*
X183349097Y-51383145D01*
X183397701Y-51543370D01*
X183414112Y-51710000D01*
X183397701Y-51876630D01*
X183349097Y-52036855D01*
X183270169Y-52184520D01*
X183163949Y-52313949D01*
X183034520Y-52420169D01*
X182886855Y-52499097D01*
X182726630Y-52547701D01*
X182601752Y-52560000D01*
X182518248Y-52560000D01*
X182393370Y-52547701D01*
X182233145Y-52499097D01*
X182085480Y-52420169D01*
X181956051Y-52313949D01*
X181849831Y-52184520D01*
X181770903Y-52036855D01*
X181722299Y-51876630D01*
X181705888Y-51710000D01*
X181722299Y-51543370D01*
X181770903Y-51383145D01*
X181849831Y-51235480D01*
X181956051Y-51106051D01*
X182085480Y-50999831D01*
X182233145Y-50920903D01*
X182393370Y-50872299D01*
X182518248Y-50860000D01*
X182601752Y-50860000D01*
X182726630Y-50872299D01*
X182726630Y-50872299D01*
G37*
G36*
X167486630Y-50872299D02*
X167646855Y-50920903D01*
X167794520Y-50999831D01*
X167923949Y-51106051D01*
X168030169Y-51235480D01*
X168109097Y-51383145D01*
X168157701Y-51543370D01*
X168174112Y-51710000D01*
X168157701Y-51876630D01*
X168109097Y-52036855D01*
X168030169Y-52184520D01*
X167923949Y-52313949D01*
X167794520Y-52420169D01*
X167646855Y-52499097D01*
X167486630Y-52547701D01*
X167361752Y-52560000D01*
X167278248Y-52560000D01*
X167153370Y-52547701D01*
X166993145Y-52499097D01*
X166845480Y-52420169D01*
X166716051Y-52313949D01*
X166609831Y-52184520D01*
X166530903Y-52036855D01*
X166482299Y-51876630D01*
X166465888Y-51710000D01*
X166482299Y-51543370D01*
X166530903Y-51383145D01*
X166609831Y-51235480D01*
X166716051Y-51106051D01*
X166845480Y-50999831D01*
X166993145Y-50920903D01*
X167153370Y-50872299D01*
X167278248Y-50860000D01*
X167361752Y-50860000D01*
X167486630Y-50872299D01*
X167486630Y-50872299D01*
G37*
G36*
X185266630Y-50872299D02*
X185426855Y-50920903D01*
X185574520Y-50999831D01*
X185703949Y-51106051D01*
X185810169Y-51235480D01*
X185889097Y-51383145D01*
X185937701Y-51543370D01*
X185954112Y-51710000D01*
X185937701Y-51876630D01*
X185889097Y-52036855D01*
X185810169Y-52184520D01*
X185703949Y-52313949D01*
X185574520Y-52420169D01*
X185426855Y-52499097D01*
X185266630Y-52547701D01*
X185141752Y-52560000D01*
X185058248Y-52560000D01*
X184933370Y-52547701D01*
X184773145Y-52499097D01*
X184625480Y-52420169D01*
X184496051Y-52313949D01*
X184389831Y-52184520D01*
X184310903Y-52036855D01*
X184262299Y-51876630D01*
X184245888Y-51710000D01*
X184262299Y-51543370D01*
X184310903Y-51383145D01*
X184389831Y-51235480D01*
X184496051Y-51106051D01*
X184625480Y-50999831D01*
X184773145Y-50920903D01*
X184933370Y-50872299D01*
X185058248Y-50860000D01*
X185141752Y-50860000D01*
X185266630Y-50872299D01*
X185266630Y-50872299D01*
G37*
G36*
X190346630Y-50872299D02*
X190506855Y-50920903D01*
X190654520Y-50999831D01*
X190783949Y-51106051D01*
X190890169Y-51235480D01*
X190969097Y-51383145D01*
X191017701Y-51543370D01*
X191034112Y-51710000D01*
X191017701Y-51876630D01*
X190969097Y-52036855D01*
X190890169Y-52184520D01*
X190783949Y-52313949D01*
X190654520Y-52420169D01*
X190506855Y-52499097D01*
X190346630Y-52547701D01*
X190221752Y-52560000D01*
X190138248Y-52560000D01*
X190013370Y-52547701D01*
X189853145Y-52499097D01*
X189705480Y-52420169D01*
X189576051Y-52313949D01*
X189469831Y-52184520D01*
X189390903Y-52036855D01*
X189342299Y-51876630D01*
X189325888Y-51710000D01*
X189342299Y-51543370D01*
X189390903Y-51383145D01*
X189469831Y-51235480D01*
X189576051Y-51106051D01*
X189705480Y-50999831D01*
X189853145Y-50920903D01*
X190013370Y-50872299D01*
X190138248Y-50860000D01*
X190221752Y-50860000D01*
X190346630Y-50872299D01*
X190346630Y-50872299D01*
G37*
G36*
X192886630Y-50872299D02*
X193046855Y-50920903D01*
X193194520Y-50999831D01*
X193323949Y-51106051D01*
X193430169Y-51235480D01*
X193509097Y-51383145D01*
X193557701Y-51543370D01*
X193574112Y-51710000D01*
X193557701Y-51876630D01*
X193509097Y-52036855D01*
X193430169Y-52184520D01*
X193323949Y-52313949D01*
X193194520Y-52420169D01*
X193046855Y-52499097D01*
X192886630Y-52547701D01*
X192761752Y-52560000D01*
X192678248Y-52560000D01*
X192553370Y-52547701D01*
X192393145Y-52499097D01*
X192245480Y-52420169D01*
X192116051Y-52313949D01*
X192009831Y-52184520D01*
X191930903Y-52036855D01*
X191882299Y-51876630D01*
X191865888Y-51710000D01*
X191882299Y-51543370D01*
X191930903Y-51383145D01*
X192009831Y-51235480D01*
X192116051Y-51106051D01*
X192245480Y-50999831D01*
X192393145Y-50920903D01*
X192553370Y-50872299D01*
X192678248Y-50860000D01*
X192761752Y-50860000D01*
X192886630Y-50872299D01*
X192886630Y-50872299D01*
G37*
G36*
X195426630Y-50872299D02*
X195586855Y-50920903D01*
X195734520Y-50999831D01*
X195863949Y-51106051D01*
X195970169Y-51235480D01*
X196049097Y-51383145D01*
X196097701Y-51543370D01*
X196114112Y-51710000D01*
X196097701Y-51876630D01*
X196049097Y-52036855D01*
X195970169Y-52184520D01*
X195863949Y-52313949D01*
X195734520Y-52420169D01*
X195586855Y-52499097D01*
X195426630Y-52547701D01*
X195301752Y-52560000D01*
X195218248Y-52560000D01*
X195093370Y-52547701D01*
X194933145Y-52499097D01*
X194785480Y-52420169D01*
X194656051Y-52313949D01*
X194549831Y-52184520D01*
X194470903Y-52036855D01*
X194422299Y-51876630D01*
X194405888Y-51710000D01*
X194422299Y-51543370D01*
X194470903Y-51383145D01*
X194549831Y-51235480D01*
X194656051Y-51106051D01*
X194785480Y-50999831D01*
X194933145Y-50920903D01*
X195093370Y-50872299D01*
X195218248Y-50860000D01*
X195301752Y-50860000D01*
X195426630Y-50872299D01*
X195426630Y-50872299D01*
G37*
G36*
X154786630Y-50872299D02*
X154946855Y-50920903D01*
X155094520Y-50999831D01*
X155223949Y-51106051D01*
X155330169Y-51235480D01*
X155409097Y-51383145D01*
X155457701Y-51543370D01*
X155474112Y-51710000D01*
X155457701Y-51876630D01*
X155409097Y-52036855D01*
X155330169Y-52184520D01*
X155223949Y-52313949D01*
X155094520Y-52420169D01*
X154946855Y-52499097D01*
X154786630Y-52547701D01*
X154661752Y-52560000D01*
X154578248Y-52560000D01*
X154453370Y-52547701D01*
X154293145Y-52499097D01*
X154145480Y-52420169D01*
X154016051Y-52313949D01*
X153909831Y-52184520D01*
X153830903Y-52036855D01*
X153782299Y-51876630D01*
X153765888Y-51710000D01*
X153782299Y-51543370D01*
X153830903Y-51383145D01*
X153909831Y-51235480D01*
X154016051Y-51106051D01*
X154145480Y-50999831D01*
X154293145Y-50920903D01*
X154453370Y-50872299D01*
X154578248Y-50860000D01*
X154661752Y-50860000D01*
X154786630Y-50872299D01*
X154786630Y-50872299D01*
G37*
G36*
X152246630Y-50872299D02*
X152406855Y-50920903D01*
X152554520Y-50999831D01*
X152683949Y-51106051D01*
X152790169Y-51235480D01*
X152869097Y-51383145D01*
X152917701Y-51543370D01*
X152934112Y-51710000D01*
X152917701Y-51876630D01*
X152869097Y-52036855D01*
X152790169Y-52184520D01*
X152683949Y-52313949D01*
X152554520Y-52420169D01*
X152406855Y-52499097D01*
X152246630Y-52547701D01*
X152121752Y-52560000D01*
X152038248Y-52560000D01*
X151913370Y-52547701D01*
X151753145Y-52499097D01*
X151605480Y-52420169D01*
X151476051Y-52313949D01*
X151369831Y-52184520D01*
X151290903Y-52036855D01*
X151242299Y-51876630D01*
X151225888Y-51710000D01*
X151242299Y-51543370D01*
X151290903Y-51383145D01*
X151369831Y-51235480D01*
X151476051Y-51106051D01*
X151605480Y-50999831D01*
X151753145Y-50920903D01*
X151913370Y-50872299D01*
X152038248Y-50860000D01*
X152121752Y-50860000D01*
X152246630Y-50872299D01*
X152246630Y-50872299D01*
G37*
G36*
X187806630Y-50872299D02*
X187966855Y-50920903D01*
X188114520Y-50999831D01*
X188243949Y-51106051D01*
X188350169Y-51235480D01*
X188429097Y-51383145D01*
X188477701Y-51543370D01*
X188494112Y-51710000D01*
X188477701Y-51876630D01*
X188429097Y-52036855D01*
X188350169Y-52184520D01*
X188243949Y-52313949D01*
X188114520Y-52420169D01*
X187966855Y-52499097D01*
X187806630Y-52547701D01*
X187681752Y-52560000D01*
X187598248Y-52560000D01*
X187473370Y-52547701D01*
X187313145Y-52499097D01*
X187165480Y-52420169D01*
X187036051Y-52313949D01*
X186929831Y-52184520D01*
X186850903Y-52036855D01*
X186802299Y-51876630D01*
X186785888Y-51710000D01*
X186802299Y-51543370D01*
X186850903Y-51383145D01*
X186929831Y-51235480D01*
X187036051Y-51106051D01*
X187165480Y-50999831D01*
X187313145Y-50920903D01*
X187473370Y-50872299D01*
X187598248Y-50860000D01*
X187681752Y-50860000D01*
X187806630Y-50872299D01*
X187806630Y-50872299D01*
G37*
G36*
X149706630Y-50872299D02*
X149866855Y-50920903D01*
X150014520Y-50999831D01*
X150143949Y-51106051D01*
X150250169Y-51235480D01*
X150329097Y-51383145D01*
X150377701Y-51543370D01*
X150394112Y-51710000D01*
X150377701Y-51876630D01*
X150329097Y-52036855D01*
X150250169Y-52184520D01*
X150143949Y-52313949D01*
X150014520Y-52420169D01*
X149866855Y-52499097D01*
X149706630Y-52547701D01*
X149581752Y-52560000D01*
X149498248Y-52560000D01*
X149373370Y-52547701D01*
X149213145Y-52499097D01*
X149065480Y-52420169D01*
X148936051Y-52313949D01*
X148829831Y-52184520D01*
X148750903Y-52036855D01*
X148702299Y-51876630D01*
X148685888Y-51710000D01*
X148702299Y-51543370D01*
X148750903Y-51383145D01*
X148829831Y-51235480D01*
X148936051Y-51106051D01*
X149065480Y-50999831D01*
X149213145Y-50920903D01*
X149373370Y-50872299D01*
X149498248Y-50860000D01*
X149581752Y-50860000D01*
X149706630Y-50872299D01*
X149706630Y-50872299D01*
G37*
G36*
X157326630Y-50872299D02*
X157486855Y-50920903D01*
X157634520Y-50999831D01*
X157763949Y-51106051D01*
X157870169Y-51235480D01*
X157949097Y-51383145D01*
X157997701Y-51543370D01*
X158014112Y-51710000D01*
X157997701Y-51876630D01*
X157949097Y-52036855D01*
X157870169Y-52184520D01*
X157763949Y-52313949D01*
X157634520Y-52420169D01*
X157486855Y-52499097D01*
X157326630Y-52547701D01*
X157201752Y-52560000D01*
X157118248Y-52560000D01*
X156993370Y-52547701D01*
X156833145Y-52499097D01*
X156685480Y-52420169D01*
X156556051Y-52313949D01*
X156449831Y-52184520D01*
X156370903Y-52036855D01*
X156322299Y-51876630D01*
X156305888Y-51710000D01*
X156322299Y-51543370D01*
X156370903Y-51383145D01*
X156449831Y-51235480D01*
X156556051Y-51106051D01*
X156685480Y-50999831D01*
X156833145Y-50920903D01*
X156993370Y-50872299D01*
X157118248Y-50860000D01*
X157201752Y-50860000D01*
X157326630Y-50872299D01*
X157326630Y-50872299D01*
G37*
M02*
