G04 #@! TF.GenerationSoftware,KiCad,Pcbnew,(5.0.1)-3*
G04 #@! TF.CreationDate,2018-11-25T11:45:10-08:00*
G04 #@! TF.ProjectId,DashSight-Mezzanine-Card,4461736853696768742D4D657A7A616E,rev?*
G04 #@! TF.SameCoordinates,Original*
G04 #@! TF.FileFunction,Paste,Top*
G04 #@! TF.FilePolarity,Positive*
%FSLAX46Y46*%
G04 Gerber Fmt 4.6, Leading zero omitted, Abs format (unit mm)*
G04 Created by KiCad (PCBNEW (5.0.1)-3) date 25/11/2018 11:45:10 AM*
%MOMM*%
%LPD*%
G01*
G04 APERTURE LIST*
%ADD10C,0.650000*%
%ADD11R,0.550000X0.390000*%
%ADD12R,0.390000X0.550000*%
%ADD13R,0.500000X0.600000*%
%ADD14R,0.600000X0.500000*%
%ADD15R,0.750000X0.800000*%
%ADD16R,0.800000X0.750000*%
%ADD17R,1.800000X2.500000*%
%ADD18R,0.500000X0.900000*%
%ADD19R,0.900000X0.500000*%
G04 APERTURE END LIST*
D10*
G04 #@! TO.C,IC1*
X144000000Y-63000000D03*
X142500000Y-63000000D03*
X141000000Y-63000000D03*
X139500000Y-63000000D03*
X138000000Y-63000000D03*
X144000000Y-64500000D03*
X142500000Y-64500000D03*
X141000000Y-64500000D03*
X139500000Y-64500000D03*
X138000000Y-64500000D03*
X144000000Y-66000000D03*
X142500000Y-66000000D03*
X141000000Y-66000000D03*
X139500000Y-66000000D03*
X138000000Y-66000000D03*
X144000000Y-67500000D03*
X142500000Y-67500000D03*
X141000000Y-67500000D03*
X139500000Y-67500000D03*
X138000000Y-67500000D03*
X144000000Y-69000000D03*
X142500000Y-69000000D03*
X141000000Y-69000000D03*
X139500000Y-69000000D03*
X138000000Y-69000000D03*
D11*
X136200000Y-70000000D03*
X136200000Y-69200000D03*
X136200000Y-68400000D03*
X136200000Y-67600000D03*
X136200000Y-66800000D03*
X136200000Y-66000000D03*
X136200000Y-65200000D03*
X136200000Y-64400000D03*
X136200000Y-63600000D03*
X136200000Y-62800000D03*
X136200000Y-62000000D03*
D12*
X137000000Y-61200000D03*
X137800000Y-61200000D03*
X138600000Y-61200000D03*
X139400000Y-61200000D03*
X140200000Y-61200000D03*
X141000000Y-61200000D03*
X141800000Y-61200000D03*
X142600000Y-61200000D03*
X143400000Y-61200000D03*
X144200000Y-61200000D03*
X145000000Y-61200000D03*
D11*
X145800000Y-62000000D03*
X145800000Y-62800000D03*
X145800000Y-63600000D03*
X145800000Y-64400000D03*
X145800000Y-65200000D03*
X145800000Y-66000000D03*
X145800000Y-66800000D03*
X145800000Y-67600000D03*
X145800000Y-68400000D03*
X145800000Y-69200000D03*
X145800000Y-70000000D03*
D12*
X145000000Y-70800000D03*
X144200000Y-70800000D03*
X143400000Y-70800000D03*
X142600000Y-70800000D03*
X141800000Y-70800000D03*
X141000000Y-70800000D03*
X140200000Y-70800000D03*
X139400000Y-70800000D03*
X138600000Y-70800000D03*
X137800000Y-70800000D03*
X137000000Y-70800000D03*
G04 #@! TD*
D13*
G04 #@! TO.C,C2*
X135000000Y-115550000D03*
X135000000Y-114450000D03*
G04 #@! TD*
D14*
G04 #@! TO.C,C8*
X184450000Y-66000000D03*
X185550000Y-66000000D03*
G04 #@! TD*
D15*
G04 #@! TO.C,C3*
X195000000Y-59250000D03*
X195000000Y-60750000D03*
G04 #@! TD*
G04 #@! TO.C,C4*
X190000000Y-61250000D03*
X190000000Y-62750000D03*
G04 #@! TD*
D16*
G04 #@! TO.C,C5*
X128500000Y-64000000D03*
X130000000Y-64000000D03*
G04 #@! TD*
D15*
G04 #@! TO.C,C6*
X166000000Y-68750000D03*
X166000000Y-67250000D03*
G04 #@! TD*
G04 #@! TO.C,C7*
X166000000Y-61250000D03*
X166000000Y-62750000D03*
G04 #@! TD*
D17*
G04 #@! TO.C,D2*
X148000000Y-115000000D03*
X148000000Y-111000000D03*
G04 #@! TD*
G04 #@! TO.C,D3*
X167000000Y-103000000D03*
X167000000Y-99000000D03*
G04 #@! TD*
D18*
G04 #@! TO.C,L1*
X137250000Y-53000000D03*
X138750000Y-53000000D03*
G04 #@! TD*
D19*
G04 #@! TO.C,R25*
X152000000Y-95500000D03*
X152000000Y-97000000D03*
G04 #@! TD*
G04 #@! TO.C,R26*
X152000000Y-99250000D03*
X152000000Y-100750000D03*
G04 #@! TD*
D18*
G04 #@! TO.C,R27*
X146750000Y-92000000D03*
X145250000Y-92000000D03*
G04 #@! TD*
G04 #@! TO.C,R28*
X140750000Y-90000000D03*
X139250000Y-90000000D03*
G04 #@! TD*
D19*
G04 #@! TO.C,R29*
X162000000Y-95500000D03*
X162000000Y-94000000D03*
G04 #@! TD*
D18*
G04 #@! TO.C,R30*
X162750000Y-99000000D03*
X161250000Y-99000000D03*
G04 #@! TD*
D19*
G04 #@! TO.C,R1*
X144000000Y-56250000D03*
X144000000Y-57750000D03*
G04 #@! TD*
D18*
G04 #@! TO.C,R23*
X130000000Y-98000000D03*
X131500000Y-98000000D03*
G04 #@! TD*
G04 #@! TO.C,R21*
X130500000Y-104000000D03*
X132000000Y-104000000D03*
G04 #@! TD*
D19*
G04 #@! TO.C,R19*
X135000000Y-109250000D03*
X135000000Y-110750000D03*
G04 #@! TD*
D18*
G04 #@! TO.C,R2*
X143750000Y-74000000D03*
X142250000Y-74000000D03*
G04 #@! TD*
D19*
G04 #@! TO.C,R18*
X148000000Y-102250000D03*
X148000000Y-103750000D03*
G04 #@! TD*
G04 #@! TO.C,R24*
X152000000Y-91500000D03*
X152000000Y-93000000D03*
G04 #@! TD*
G04 #@! TO.C,R16*
X161000000Y-72750000D03*
X161000000Y-71250000D03*
G04 #@! TD*
G04 #@! TO.C,R15*
X166000000Y-73750000D03*
X166000000Y-72250000D03*
G04 #@! TD*
D18*
G04 #@! TO.C,R3*
X175750000Y-84000000D03*
X174250000Y-84000000D03*
G04 #@! TD*
G04 #@! TO.C,R12*
X184250000Y-61000000D03*
X185750000Y-61000000D03*
G04 #@! TD*
D19*
G04 #@! TO.C,R11*
X187000000Y-72500000D03*
X187000000Y-71000000D03*
G04 #@! TD*
G04 #@! TO.C,R10*
X187000000Y-101250000D03*
X187000000Y-102750000D03*
G04 #@! TD*
G04 #@! TO.C,R6*
X190000000Y-67750000D03*
X190000000Y-66250000D03*
G04 #@! TD*
G04 #@! TO.C,R5*
X195000000Y-65750000D03*
X195000000Y-64250000D03*
G04 #@! TD*
G04 #@! TO.C,R4*
X158000000Y-59250000D03*
X158000000Y-60750000D03*
G04 #@! TD*
G04 #@! TO.C,R14*
X148000000Y-107750000D03*
X148000000Y-106250000D03*
G04 #@! TD*
G04 #@! TO.C,R8*
X160000000Y-109250000D03*
X160000000Y-110750000D03*
G04 #@! TD*
M02*
