G04 #@! TF.GenerationSoftware,KiCad,Pcbnew,(5.0.1)-3*
G04 #@! TF.CreationDate,2018-11-29T07:36:30-08:00*
G04 #@! TF.ProjectId,DashSight-Mezzanine-Card,4461736853696768742D4D657A7A616E,rev?*
G04 #@! TF.SameCoordinates,Original*
G04 #@! TF.FileFunction,Legend,Bot*
G04 #@! TF.FilePolarity,Positive*
%FSLAX46Y46*%
G04 Gerber Fmt 4.6, Leading zero omitted, Abs format (unit mm)*
G04 Created by KiCad (PCBNEW (5.0.1)-3) date 29/11/2018 7:36:30 AM*
%MOMM*%
%LPD*%
G01*
G04 APERTURE LIST*
%ADD10C,0.100000*%
%ADD11C,0.120000*%
%ADD12C,0.150000*%
G04 APERTURE END LIST*
D10*
X125000000Y-125000000D02*
X125000000Y-50000000D01*
X200000000Y-125000000D02*
X125000000Y-125000000D01*
X200000000Y-50000000D02*
X200000000Y-125000000D01*
X125000000Y-50000000D02*
X200000000Y-50000000D01*
D11*
G04 #@! TO.C,R9*
X173680000Y-107250000D02*
X173680000Y-106250000D01*
X172320000Y-106250000D02*
X172320000Y-107250000D01*
G04 #@! TO.C,C1*
X128750000Y-68530000D02*
X129250000Y-68530000D01*
X129250000Y-69470000D02*
X128750000Y-69470000D01*
G04 #@! TO.C,D4*
X170400000Y-112350000D02*
X170400000Y-115650000D01*
X170400000Y-115650000D02*
X165000000Y-115650000D01*
X170400000Y-112350000D02*
X165000000Y-112350000D01*
G04 #@! TO.C,D1*
X179650000Y-112400000D02*
X176350000Y-112400000D01*
X176350000Y-112400000D02*
X176350000Y-107000000D01*
X179650000Y-112400000D02*
X179650000Y-107000000D01*
G04 #@! TO.C,R20*
X176500000Y-73320000D02*
X175500000Y-73320000D01*
X175500000Y-74680000D02*
X176500000Y-74680000D01*
G04 #@! TO.C,R22*
X145500000Y-75680000D02*
X146500000Y-75680000D01*
X146500000Y-74320000D02*
X145500000Y-74320000D01*
G04 #@! TO.C,R13*
X172320000Y-90500000D02*
X172320000Y-91500000D01*
X173680000Y-91500000D02*
X173680000Y-90500000D01*
G04 #@! TO.C,R17*
X174500000Y-100320000D02*
X173500000Y-100320000D01*
X173500000Y-101680000D02*
X174500000Y-101680000D01*
G04 #@! TO.C,R7*
X132320000Y-91500000D02*
X132320000Y-92500000D01*
X133680000Y-92500000D02*
X133680000Y-91500000D01*
G04 #@! TD*
G04 #@! TO.C,R9*
D12*
X172002380Y-106583333D02*
X171526190Y-106250000D01*
X172002380Y-106011904D02*
X171002380Y-106011904D01*
X171002380Y-106392857D01*
X171050000Y-106488095D01*
X171097619Y-106535714D01*
X171192857Y-106583333D01*
X171335714Y-106583333D01*
X171430952Y-106535714D01*
X171478571Y-106488095D01*
X171526190Y-106392857D01*
X171526190Y-106011904D01*
X172002380Y-107059523D02*
X172002380Y-107250000D01*
X171954761Y-107345238D01*
X171907142Y-107392857D01*
X171764285Y-107488095D01*
X171573809Y-107535714D01*
X171192857Y-107535714D01*
X171097619Y-107488095D01*
X171050000Y-107440476D01*
X171002380Y-107345238D01*
X171002380Y-107154761D01*
X171050000Y-107059523D01*
X171097619Y-107011904D01*
X171192857Y-106964285D01*
X171430952Y-106964285D01*
X171526190Y-107011904D01*
X171573809Y-107059523D01*
X171621428Y-107154761D01*
X171621428Y-107345238D01*
X171573809Y-107440476D01*
X171526190Y-107488095D01*
X171430952Y-107535714D01*
G04 #@! TO.C,C1*
X129166666Y-68087142D02*
X129214285Y-68134761D01*
X129357142Y-68182380D01*
X129452380Y-68182380D01*
X129595238Y-68134761D01*
X129690476Y-68039523D01*
X129738095Y-67944285D01*
X129785714Y-67753809D01*
X129785714Y-67610952D01*
X129738095Y-67420476D01*
X129690476Y-67325238D01*
X129595238Y-67230000D01*
X129452380Y-67182380D01*
X129357142Y-67182380D01*
X129214285Y-67230000D01*
X129166666Y-67277619D01*
X128214285Y-68182380D02*
X128785714Y-68182380D01*
X128500000Y-68182380D02*
X128500000Y-67182380D01*
X128595238Y-67325238D01*
X128690476Y-67420476D01*
X128785714Y-67468095D01*
G04 #@! TO.C,D4*
X167738095Y-111952380D02*
X167738095Y-110952380D01*
X167500000Y-110952380D01*
X167357142Y-111000000D01*
X167261904Y-111095238D01*
X167214285Y-111190476D01*
X167166666Y-111380952D01*
X167166666Y-111523809D01*
X167214285Y-111714285D01*
X167261904Y-111809523D01*
X167357142Y-111904761D01*
X167500000Y-111952380D01*
X167738095Y-111952380D01*
X166309523Y-111285714D02*
X166309523Y-111952380D01*
X166547619Y-110904761D02*
X166785714Y-111619047D01*
X166166666Y-111619047D01*
G04 #@! TO.C,D1*
X180952380Y-108261904D02*
X179952380Y-108261904D01*
X179952380Y-108500000D01*
X180000000Y-108642857D01*
X180095238Y-108738095D01*
X180190476Y-108785714D01*
X180380952Y-108833333D01*
X180523809Y-108833333D01*
X180714285Y-108785714D01*
X180809523Y-108738095D01*
X180904761Y-108642857D01*
X180952380Y-108500000D01*
X180952380Y-108261904D01*
X180952380Y-109785714D02*
X180952380Y-109214285D01*
X180952380Y-109500000D02*
X179952380Y-109500000D01*
X180095238Y-109404761D01*
X180190476Y-109309523D01*
X180238095Y-109214285D01*
G04 #@! TO.C,R20*
X176642857Y-75902380D02*
X176976190Y-75426190D01*
X177214285Y-75902380D02*
X177214285Y-74902380D01*
X176833333Y-74902380D01*
X176738095Y-74950000D01*
X176690476Y-74997619D01*
X176642857Y-75092857D01*
X176642857Y-75235714D01*
X176690476Y-75330952D01*
X176738095Y-75378571D01*
X176833333Y-75426190D01*
X177214285Y-75426190D01*
X176261904Y-74997619D02*
X176214285Y-74950000D01*
X176119047Y-74902380D01*
X175880952Y-74902380D01*
X175785714Y-74950000D01*
X175738095Y-74997619D01*
X175690476Y-75092857D01*
X175690476Y-75188095D01*
X175738095Y-75330952D01*
X176309523Y-75902380D01*
X175690476Y-75902380D01*
X175071428Y-74902380D02*
X174976190Y-74902380D01*
X174880952Y-74950000D01*
X174833333Y-74997619D01*
X174785714Y-75092857D01*
X174738095Y-75283333D01*
X174738095Y-75521428D01*
X174785714Y-75711904D01*
X174833333Y-75807142D01*
X174880952Y-75854761D01*
X174976190Y-75902380D01*
X175071428Y-75902380D01*
X175166666Y-75854761D01*
X175214285Y-75807142D01*
X175261904Y-75711904D01*
X175309523Y-75521428D01*
X175309523Y-75283333D01*
X175261904Y-75092857D01*
X175214285Y-74997619D01*
X175166666Y-74950000D01*
X175071428Y-74902380D01*
G04 #@! TO.C,R22*
X146642857Y-74002380D02*
X146976190Y-73526190D01*
X147214285Y-74002380D02*
X147214285Y-73002380D01*
X146833333Y-73002380D01*
X146738095Y-73050000D01*
X146690476Y-73097619D01*
X146642857Y-73192857D01*
X146642857Y-73335714D01*
X146690476Y-73430952D01*
X146738095Y-73478571D01*
X146833333Y-73526190D01*
X147214285Y-73526190D01*
X146261904Y-73097619D02*
X146214285Y-73050000D01*
X146119047Y-73002380D01*
X145880952Y-73002380D01*
X145785714Y-73050000D01*
X145738095Y-73097619D01*
X145690476Y-73192857D01*
X145690476Y-73288095D01*
X145738095Y-73430952D01*
X146309523Y-74002380D01*
X145690476Y-74002380D01*
X145309523Y-73097619D02*
X145261904Y-73050000D01*
X145166666Y-73002380D01*
X144928571Y-73002380D01*
X144833333Y-73050000D01*
X144785714Y-73097619D01*
X144738095Y-73192857D01*
X144738095Y-73288095D01*
X144785714Y-73430952D01*
X145357142Y-74002380D01*
X144738095Y-74002380D01*
G04 #@! TO.C,R13*
X174902380Y-90357142D02*
X174426190Y-90023809D01*
X174902380Y-89785714D02*
X173902380Y-89785714D01*
X173902380Y-90166666D01*
X173950000Y-90261904D01*
X173997619Y-90309523D01*
X174092857Y-90357142D01*
X174235714Y-90357142D01*
X174330952Y-90309523D01*
X174378571Y-90261904D01*
X174426190Y-90166666D01*
X174426190Y-89785714D01*
X174902380Y-91309523D02*
X174902380Y-90738095D01*
X174902380Y-91023809D02*
X173902380Y-91023809D01*
X174045238Y-90928571D01*
X174140476Y-90833333D01*
X174188095Y-90738095D01*
X173902380Y-91642857D02*
X173902380Y-92261904D01*
X174283333Y-91928571D01*
X174283333Y-92071428D01*
X174330952Y-92166666D01*
X174378571Y-92214285D01*
X174473809Y-92261904D01*
X174711904Y-92261904D01*
X174807142Y-92214285D01*
X174854761Y-92166666D01*
X174902380Y-92071428D01*
X174902380Y-91785714D01*
X174854761Y-91690476D01*
X174807142Y-91642857D01*
G04 #@! TO.C,R17*
X174642857Y-102902380D02*
X174976190Y-102426190D01*
X175214285Y-102902380D02*
X175214285Y-101902380D01*
X174833333Y-101902380D01*
X174738095Y-101950000D01*
X174690476Y-101997619D01*
X174642857Y-102092857D01*
X174642857Y-102235714D01*
X174690476Y-102330952D01*
X174738095Y-102378571D01*
X174833333Y-102426190D01*
X175214285Y-102426190D01*
X173690476Y-102902380D02*
X174261904Y-102902380D01*
X173976190Y-102902380D02*
X173976190Y-101902380D01*
X174071428Y-102045238D01*
X174166666Y-102140476D01*
X174261904Y-102188095D01*
X173357142Y-101902380D02*
X172690476Y-101902380D01*
X173119047Y-102902380D01*
G04 #@! TO.C,R7*
X134902380Y-91833333D02*
X134426190Y-91500000D01*
X134902380Y-91261904D02*
X133902380Y-91261904D01*
X133902380Y-91642857D01*
X133950000Y-91738095D01*
X133997619Y-91785714D01*
X134092857Y-91833333D01*
X134235714Y-91833333D01*
X134330952Y-91785714D01*
X134378571Y-91738095D01*
X134426190Y-91642857D01*
X134426190Y-91261904D01*
X133902380Y-92166666D02*
X133902380Y-92833333D01*
X134902380Y-92404761D01*
G04 #@! TD*
M02*
